<svg width="363" height="180" viewBox="0 0 363 180" fill="none" xmlns="http://www.w3.org/2000/svg">
<path d="M358.177 177.894C359.179 178.065 360.141 177.425 360.372 176.435C360.602 175.444 360.02 174.446 359.045 174.158C352.661 172.269 347.082 167.553 342.282 160.864C337.487 154.181 333.571 145.664 330.482 136.443C324.304 117.995 321.553 97.0734 321.553 83.277C321.553 38.1419 278.378 2.07863 225.823 2.07863L97.8088 2.07867C45.2543 2.07867 2.07863 38.142 2.07863 83.277C2.07863 128.412 45.2543 164.475 97.8088 164.475L225.823 164.475C245.931 164.475 264.612 159.218 280.038 150.214C299.047 159.563 335.253 173.984 358.177 177.894Z" fill="white" stroke="white" stroke-width="3.84274" stroke-linejoin="round"/>
<path d="M40.5981 59.358C41.7846 59.358 42.9082 59.5469 43.9688 59.9247C45.0294 60.2959 45.9674 60.8826 46.7827 61.6847C47.6047 62.4867 48.2477 63.5341 48.7117 64.8267C49.1824 66.1127 49.421 67.6705 49.4276 69.5C49.4343 71.1705 49.2254 72.6719 48.8012 74.0043C48.3836 75.33 47.7837 76.4602 47.0015 77.3949C46.2259 78.3295 45.2913 79.0455 44.1975 79.5426C43.1104 80.0331 41.8973 80.2784 40.5583 80.2784C39.0536 80.2784 37.7311 79.9901 36.591 79.4134C35.4508 78.8366 34.5427 78.0611 33.8665 77.0866C33.1904 76.1122 32.796 75.0284 32.6833 73.8352H38.1322C38.2647 74.4517 38.5564 74.8991 39.0072 75.1776C39.4579 75.4493 39.975 75.5852 40.5583 75.5852C41.725 75.5852 42.5768 75.0814 43.1137 74.0739C43.6573 73.0597 43.9324 71.7074 43.939 70.017H43.8197C43.5611 70.6402 43.17 71.1738 42.6464 71.6179C42.1227 72.062 41.5129 72.4034 40.8168 72.642C40.1208 72.8807 39.385 73 38.6094 73C37.3831 73 36.3093 72.7249 35.3879 72.1747C34.4664 71.6179 33.7472 70.8589 33.2302 69.8977C32.7131 68.9299 32.4513 67.8295 32.4447 66.5966C32.438 65.1515 32.7794 63.8854 33.4688 62.7983C34.1582 61.7112 35.1161 60.866 36.3424 60.2628C37.5687 59.6596 38.9873 59.358 40.5981 59.358ZM40.6379 63.5341C40.0877 63.5341 39.5971 63.66 39.1663 63.9119C38.742 64.1638 38.4073 64.5052 38.162 64.9361C37.9234 65.3669 37.8074 65.8542 37.814 66.3977C37.8206 66.9413 37.9432 67.4285 38.1819 67.8594C38.4272 68.2902 38.7586 68.6316 39.1762 68.8835C39.6004 69.1354 40.0877 69.2614 40.6379 69.2614C41.0422 69.2614 41.4167 69.1918 41.7614 69.0526C42.1061 68.9067 42.4044 68.7045 42.6563 68.446C42.9148 68.1809 43.1137 67.8759 43.2529 67.5312C43.3987 67.1799 43.4683 66.8021 43.4617 66.3977C43.4551 65.8542 43.3291 65.3669 43.0839 64.9361C42.8386 64.5052 42.5039 64.1638 42.0796 63.9119C41.6554 63.66 41.1748 63.5341 40.6379 63.5341ZM60.6808 80.5568C58.8314 80.5502 57.2338 80.1226 55.8882 79.2741C54.5426 78.4257 53.5052 77.2027 52.776 75.6051C52.0468 74.0076 51.6856 72.0919 51.6922 69.858C51.6988 67.6174 52.0634 65.715 52.7859 64.1506C53.5151 62.5862 54.5492 61.3963 55.8882 60.581C57.2338 59.7656 58.8314 59.358 60.6808 59.358C62.5303 59.358 64.1278 59.7689 65.4734 60.5909C66.8191 61.4062 67.8565 62.5961 68.5856 64.1605C69.3148 65.7249 69.6761 67.6241 69.6695 69.858C69.6695 72.1051 69.3049 74.0275 68.5757 75.625C67.8465 77.2225 66.8091 78.4455 65.4635 79.294C64.1245 80.1359 62.5303 80.5568 60.6808 80.5568ZM60.6808 76.0625C61.6354 76.0625 62.4176 75.5653 63.0274 74.571C63.6439 73.5701 63.9488 71.9991 63.9422 69.858C63.9422 68.4593 63.803 67.3158 63.5246 66.4276C63.2462 65.5393 62.8617 64.883 62.3712 64.4588C61.8806 64.0279 61.3172 63.8125 60.6808 63.8125C59.7263 63.8125 58.9474 64.2964 58.3442 65.2642C57.741 66.232 57.4327 67.7633 57.4195 69.858C57.4128 71.2831 57.5487 72.4564 57.8271 73.3778C58.1055 74.2926 58.49 74.9688 58.9805 75.4062C59.4777 75.8438 60.0445 76.0625 60.6808 76.0625ZM83.918 76.1818V75.108C83.918 74.2462 84.1036 73.4508 84.4749 72.7216C84.8527 71.9924 85.3996 71.4058 86.1155 70.9616C86.8314 70.5175 87.7031 70.2955 88.7305 70.2955C89.7845 70.2955 90.6695 70.5142 91.3854 70.9517C92.1079 71.3892 92.6548 71.9725 93.026 72.7017C93.3972 73.4309 93.5828 74.233 93.5828 75.108V76.1818C93.5828 77.0436 93.3939 77.839 93.016 78.5682C92.6448 79.2973 92.098 79.884 91.3754 80.3281C90.6529 80.7723 89.7713 80.9943 88.7305 80.9943C87.6898 80.9943 86.8115 80.7723 86.0956 80.3281C85.3797 79.884 84.8361 79.2973 84.4649 78.5682C84.1003 77.839 83.918 77.0436 83.918 76.1818ZM87.3783 75.108V76.1818C87.3783 76.5597 87.4711 76.9342 87.6567 77.3054C87.8489 77.67 88.2069 77.8523 88.7305 77.8523C89.2807 77.8523 89.642 77.6733 89.8143 77.3153C89.9933 76.9574 90.0828 76.5795 90.0828 76.1818V75.108C90.0828 74.7102 89.9999 74.3258 89.8342 73.9545C89.6685 73.5833 89.3006 73.3977 88.7305 73.3977C88.2069 73.3977 87.8489 73.5833 87.6567 73.9545C87.4711 74.3258 87.3783 74.7102 87.3783 75.108ZM73.2589 64.5284V63.4545C73.2589 62.5795 73.4479 61.7775 73.8257 61.0483C74.2102 60.3191 74.7604 59.7358 75.4763 59.2983C76.1922 58.8608 77.0572 58.642 78.0714 58.642C79.1254 58.642 80.0104 58.8608 80.7263 59.2983C81.4488 59.7358 81.9957 60.3191 82.3669 61.0483C82.7381 61.7775 82.9237 62.5795 82.9237 63.4545V64.5284C82.9237 65.4034 82.7348 66.2022 82.357 66.9247C81.9857 67.6473 81.4389 68.224 80.7163 68.6548C79.9938 69.0857 79.1122 69.3011 78.0714 69.3011C77.0307 69.3011 76.1524 69.0824 75.4365 68.6449C74.7206 68.2074 74.177 67.6274 73.8058 66.9048C73.4412 66.1823 73.2589 65.3902 73.2589 64.5284ZM76.7589 63.4545V64.5284C76.7589 64.9261 76.8517 65.304 77.0374 65.6619C77.223 66.0199 77.5677 66.1989 78.0714 66.1989C78.6216 66.1989 78.9829 66.0199 79.1553 65.6619C79.3342 65.304 79.4237 64.9261 79.4237 64.5284V63.4545C79.4237 63.0568 79.3409 62.6723 79.1751 62.3011C79.0094 61.9299 78.6415 61.7443 78.0714 61.7443C77.5478 61.7443 77.1964 61.9366 77.0175 62.321C76.8451 62.6989 76.7589 63.0767 76.7589 63.4545ZM74.9493 80L88.9493 59.6364H91.7731L77.7731 80H74.9493ZM102.74 59.6364H109.621L114.354 71.1705H114.593L119.326 59.6364H126.206V80H120.797V68.2273H120.638L116.104 79.8409H112.843L108.309 68.1477H108.15V80H102.74V59.6364ZM137.696 80V68.8239H135.628C134.938 68.8239 134.431 68.983 134.106 69.3011C133.781 69.6193 133.626 69.9375 133.639 70.2557C133.626 70.5937 133.791 70.9119 134.136 71.2102C134.481 71.5019 135.018 71.6477 135.747 71.6477H139.645V74.9489H135.747C134.255 74.9489 132.963 74.7401 131.869 74.3224C130.775 73.9048 129.933 73.3281 129.343 72.5923C128.753 71.8565 128.462 71.0114 128.468 70.0568C128.462 69.0227 128.747 68.1046 129.324 67.3026C129.907 66.5005 130.736 65.8707 131.809 65.4134C132.89 64.956 134.163 64.7273 135.628 64.7273H142.787V80H137.696ZM128.309 80L132.486 71.8068H137.537L133.361 80H128.309ZM152.78 80.2784C151.122 80.2784 149.704 79.9503 148.524 79.294C147.344 78.6312 146.439 77.7098 145.809 76.5298C145.18 75.3433 144.865 73.9678 144.865 72.4034C144.865 70.839 145.18 69.4669 145.809 68.2869C146.439 67.1004 147.344 66.179 148.524 65.5227C149.704 64.8598 151.122 64.5284 152.78 64.5284C154.278 64.5284 155.574 64.8002 156.667 65.3438C157.768 65.8807 158.62 66.643 159.223 67.6307C159.826 68.6117 160.131 69.7652 160.137 71.0909H155.047C154.974 70.2888 154.742 69.679 154.351 69.2614C153.966 68.8371 153.469 68.625 152.859 68.625C152.382 68.625 151.964 68.7642 151.606 69.0426C151.248 69.3144 150.97 69.7287 150.771 70.2855C150.572 70.8357 150.473 71.5284 150.473 72.3636C150.473 73.1989 150.572 73.8949 150.771 74.4517C150.97 75.0019 151.248 75.4162 151.606 75.6946C151.964 75.9664 152.382 76.1023 152.859 76.1023C153.263 76.1023 153.621 76.0095 153.933 75.8239C154.245 75.6316 154.496 75.3532 154.689 74.9886C154.887 74.6174 155.007 74.1667 155.047 73.6364H160.137C160.118 74.982 159.809 76.1553 159.213 77.1562C158.616 78.1506 157.771 78.9195 156.677 79.4631C155.59 80.0066 154.291 80.2784 152.78 80.2784ZM166.658 80.2386C165.683 80.2386 164.822 80.0795 164.073 79.7614C163.33 79.4366 162.747 78.946 162.323 78.2898C161.898 77.6335 161.686 76.7983 161.686 75.7841C161.686 74.9489 161.829 74.2363 162.114 73.6463C162.399 73.0497 162.796 72.5625 163.307 72.1847C163.817 71.8068 164.411 71.5185 165.087 71.3196C165.769 71.1207 166.505 70.9915 167.294 70.9318C168.149 70.8655 168.835 70.786 169.352 70.6932C169.876 70.5937 170.254 70.4579 170.486 70.2855C170.718 70.1065 170.834 69.8712 170.834 69.5795V69.5398C170.834 69.142 170.681 68.8371 170.376 68.625C170.072 68.4129 169.68 68.3068 169.203 68.3068C168.68 68.3068 168.252 68.4228 167.921 68.6548C167.596 68.8802 167.4 69.2282 167.334 69.6989H162.283C162.349 68.7708 162.644 67.9157 163.168 67.1335C163.698 66.3447 164.47 65.715 165.484 65.2443C166.499 64.767 167.765 64.5284 169.283 64.5284C170.376 64.5284 171.358 64.6577 172.226 64.9162C173.094 65.1681 173.833 65.5227 174.443 65.9801C175.053 66.4309 175.517 66.9612 175.835 67.571C176.16 68.1742 176.323 68.8305 176.323 69.5398V80H171.192V77.8523H171.073C170.768 78.4223 170.396 78.883 169.959 79.2344C169.528 79.5857 169.034 79.8409 168.477 80C167.927 80.1591 167.321 80.2386 166.658 80.2386ZM168.448 76.7784C168.865 76.7784 169.256 76.6922 169.621 76.5199C169.992 76.3475 170.294 76.099 170.526 75.7741C170.758 75.4493 170.874 75.0549 170.874 74.5909V73.3182C170.728 73.3778 170.572 73.4342 170.406 73.4872C170.247 73.5402 170.075 73.59 169.889 73.6364C169.71 73.6828 169.518 73.7259 169.313 73.7656C169.114 73.8054 168.905 73.8419 168.686 73.875C168.262 73.9413 167.914 74.0507 167.642 74.2031C167.377 74.349 167.178 74.5312 167.046 74.75C166.92 74.9621 166.857 75.2008 166.857 75.4659C166.857 75.8902 167.006 76.215 167.304 76.4403C167.602 76.6657 167.983 76.7784 168.448 76.7784ZM184.444 59.6364H189.972V70.2955H190.131L197.37 59.6364H202.063V80H196.535V69.3011H196.415L189.057 80H184.444V59.6364ZM210.256 80V59.6364H219.046C220.557 59.6364 221.88 59.9347 223.013 60.5312C224.147 61.1278 225.028 61.9664 225.658 63.0469C226.288 64.1274 226.603 65.3902 226.603 66.8352C226.603 68.2936 226.278 69.5563 225.628 70.6236C224.985 71.6908 224.08 72.5128 222.914 73.0895C221.754 73.6662 220.398 73.9545 218.847 73.9545H213.597V69.6591H217.733C218.383 69.6591 218.937 69.5464 219.394 69.321C219.858 69.089 220.213 68.7609 220.458 68.3366C220.71 67.9124 220.836 67.4119 220.836 66.8352C220.836 66.2519 220.71 65.7547 220.458 65.3438C220.213 64.9261 219.858 64.608 219.394 64.3892C218.937 64.1638 218.383 64.0511 217.733 64.0511H215.785V80H210.256ZM231.773 68.8636H236.466C238.647 68.8636 240.364 69.3674 241.617 70.375C242.87 71.3759 243.499 72.7547 243.506 74.5114C243.499 75.6449 243.211 76.6226 242.641 77.4446C242.078 78.2666 241.269 78.8996 240.215 79.3438C239.168 79.7812 237.918 80 236.466 80H228.711V64.7273H233.881V75.9034H236.466C237.03 75.9034 237.494 75.7708 237.858 75.5057C238.223 75.2339 238.409 74.8892 238.415 74.4716C238.409 74.0275 238.223 73.6662 237.858 73.3878C237.494 73.1027 237.03 72.9602 236.466 72.9602H231.773V68.8636ZM244.62 80V64.7273H250.108V80H244.62ZM266.485 59.1989L267.837 62.858C267.426 63.1496 266.989 63.3783 266.525 63.544C266.061 63.7031 265.481 63.8158 264.785 63.8821C264.088 63.9418 263.184 63.9716 262.07 63.9716C260.811 63.9716 259.796 64.1174 259.027 64.4091C258.258 64.7008 257.678 65.1946 257.287 65.8906C256.896 66.5866 256.634 67.5379 256.502 68.7443H256.621C257.039 67.8295 257.635 67.0971 258.411 66.5469C259.193 65.9967 260.254 65.7216 261.593 65.7216C262.965 65.7216 264.148 66.0133 265.142 66.5966C266.137 67.1733 266.899 67.9853 267.429 69.0327C267.966 70.08 268.235 71.3097 268.235 72.7216C268.235 74.2462 267.92 75.5753 267.29 76.7088C266.66 77.8423 265.756 78.7206 264.576 79.3438C263.396 79.9669 261.977 80.2784 260.32 80.2784C258.663 80.2784 257.244 79.9536 256.064 79.304C254.884 78.6544 253.98 77.6998 253.35 76.4403C252.72 75.1809 252.405 73.6364 252.405 71.8068V70.8125C252.405 66.9413 253.211 64.1108 254.821 62.321C256.439 60.5312 258.789 59.6364 261.871 59.6364C262.587 59.6364 263.237 59.6364 263.82 59.6364C264.41 59.6364 264.927 59.6065 265.371 59.5469C265.822 59.4872 266.193 59.3712 266.485 59.1989ZM260.36 76.2216C260.824 76.2216 261.225 76.0956 261.563 75.8438C261.901 75.5852 262.163 75.214 262.348 74.7301C262.534 74.2396 262.627 73.6496 262.627 72.9602C262.627 72.2576 262.534 71.661 262.348 71.1705C262.163 70.6799 261.901 70.3054 261.563 70.0469C261.225 69.7884 260.824 69.6591 260.36 69.6591C259.995 69.6591 259.667 69.732 259.375 69.8778C259.084 70.0237 258.835 70.2391 258.63 70.5241C258.431 70.8026 258.278 71.1473 258.172 71.5582C258.066 71.9626 258.013 72.4299 258.013 72.9602C258.013 73.9943 258.219 74.7964 258.63 75.3665C259.047 75.9366 259.624 76.2216 260.36 76.2216ZM273.609 68.8636H278.302C280.483 68.8636 282.2 69.3674 283.453 70.375C284.706 71.3759 285.335 72.7547 285.342 74.5114C285.335 75.6449 285.047 76.6226 284.477 77.4446C283.914 78.2666 283.105 78.8996 282.051 79.3438C281.003 79.7812 279.754 80 278.302 80H270.547V64.7273H275.717V75.9034H278.302C278.866 75.9034 279.33 75.7708 279.694 75.5057C280.059 75.2339 280.245 74.8892 280.251 74.4716C280.245 74.0275 280.059 73.6662 279.694 73.3878C279.33 73.1027 278.866 72.9602 278.302 72.9602H273.609V68.8636ZM286.456 80V64.7273H291.944V80H286.456Z" fill="black"/>
<path d="M126.787 31.3636V43H124.696V33.1136H119.605V43H117.514V31.3636H126.787ZM129.217 46.2727V34.2727H131.24V35.7159H131.359C131.465 35.5038 131.615 35.2784 131.808 35.0398C132.001 34.7973 132.263 34.5909 132.592 34.4205C132.922 34.2462 133.342 34.1591 133.854 34.1591C134.528 34.1591 135.136 34.3314 135.677 34.6761C136.223 35.017 136.655 35.5227 136.973 36.1932C137.295 36.8598 137.456 37.678 137.456 38.6477C137.456 39.6061 137.299 40.4205 136.984 41.0909C136.67 41.7614 136.242 42.2727 135.7 42.625C135.159 42.9773 134.545 43.1534 133.859 43.1534C133.359 43.1534 132.944 43.0701 132.615 42.9034C132.285 42.7367 132.02 42.536 131.819 42.3011C131.623 42.0625 131.469 41.8371 131.359 41.625H131.274V46.2727H129.217ZM131.234 38.6364C131.234 39.2008 131.314 39.6951 131.473 40.1193C131.636 40.5436 131.869 40.875 132.172 41.1136C132.479 41.3485 132.85 41.4659 133.285 41.4659C133.74 41.4659 134.121 41.3447 134.427 41.1023C134.734 40.8561 134.965 40.5208 135.121 40.0966C135.28 39.6686 135.359 39.1818 135.359 38.6364C135.359 38.0947 135.282 37.6136 135.126 37.1932C134.971 36.7727 134.74 36.4432 134.433 36.2045C134.126 35.9659 133.744 35.8466 133.285 35.8466C132.846 35.8466 132.473 35.9621 132.166 36.1932C131.859 36.4242 131.626 36.7481 131.467 37.1648C131.312 37.5814 131.234 38.072 131.234 38.6364ZM141.729 43.1761C141.176 43.1761 140.677 43.0777 140.234 42.8807C139.795 42.6799 139.446 42.3845 139.189 41.9943C138.935 41.6042 138.808 41.1231 138.808 40.5511C138.808 40.0587 138.899 39.6515 139.081 39.3295C139.263 39.0076 139.511 38.75 139.825 38.5568C140.14 38.3636 140.494 38.2178 140.888 38.1193C141.285 38.017 141.696 37.9432 142.121 37.8977C142.632 37.8447 143.047 37.7973 143.365 37.7557C143.683 37.7102 143.914 37.642 144.058 37.5511C144.206 37.4564 144.28 37.3106 144.28 37.1136V37.0795C144.28 36.6515 144.153 36.3201 143.899 36.0852C143.645 35.8504 143.28 35.733 142.802 35.733C142.299 35.733 141.899 35.8428 141.604 36.0625C141.312 36.2822 141.115 36.5417 141.013 36.8409L139.092 36.5682C139.244 36.0379 139.494 35.5947 139.842 35.2386C140.191 34.8788 140.617 34.6098 141.121 34.4318C141.624 34.25 142.181 34.1591 142.791 34.1591C143.212 34.1591 143.63 34.2083 144.047 34.3068C144.463 34.4053 144.844 34.5682 145.189 34.7955C145.534 35.0189 145.81 35.3239 146.018 35.7102C146.23 36.0966 146.337 36.5795 146.337 37.1591V43H144.359V41.8011H144.291C144.166 42.0436 143.99 42.2708 143.763 42.483C143.539 42.6913 143.257 42.8598 142.916 42.9886C142.579 43.1136 142.183 43.1761 141.729 43.1761ZM142.263 41.6648C142.676 41.6648 143.034 41.5833 143.337 41.4205C143.64 41.2538 143.873 41.0341 144.035 40.7614C144.202 40.4886 144.285 40.1913 144.285 39.8693V38.8409C144.221 38.8939 144.111 38.9432 143.956 38.9886C143.804 39.0341 143.634 39.0739 143.444 39.108C143.255 39.142 143.068 39.1723 142.882 39.1989C142.696 39.2254 142.535 39.2481 142.399 39.267C142.092 39.3087 141.818 39.3769 141.575 39.4716C141.333 39.5663 141.141 39.6989 141.001 39.8693C140.861 40.036 140.791 40.2519 140.791 40.517C140.791 40.8958 140.929 41.1818 141.206 41.375C141.482 41.5682 141.835 41.6648 142.263 41.6648ZM148.405 43V34.2727H152.069C153.104 34.2727 153.92 34.4792 154.518 34.892C155.121 35.3049 155.422 35.8807 155.422 36.6193C155.422 37.108 155.251 37.5076 154.91 37.8182C154.573 38.125 154.113 38.3314 153.53 38.4375C153.988 38.4754 154.39 38.5909 154.734 38.7841C155.083 38.9773 155.355 39.2311 155.552 39.5455C155.749 39.8598 155.848 40.2216 155.848 40.6307C155.848 41.1117 155.721 41.5303 155.467 41.8864C155.217 42.2386 154.852 42.5133 154.371 42.7102C153.893 42.9034 153.314 43 152.632 43H148.405ZM150.331 41.3807H152.632C153.011 41.3807 153.308 41.2917 153.524 41.1136C153.74 40.9318 153.848 40.6856 153.848 40.375C153.848 40.0152 153.74 39.733 153.524 39.5284C153.308 39.3201 153.011 39.2159 152.632 39.2159H150.331V41.3807ZM150.331 37.8864H152.109C152.39 37.8864 152.63 37.8466 152.831 37.767C153.032 37.6837 153.185 37.5682 153.291 37.4205C153.397 37.2689 153.45 37.089 153.45 36.8807C153.45 36.5814 153.327 36.3466 153.081 36.1761C152.838 36.0057 152.501 35.9205 152.069 35.9205H150.331V37.8864ZM159.528 40.2159L163.023 34.2727L165.136 34.2727V43H163.148V37.0511L159.665 43H157.545V34.2727H159.528V40.2159ZM166.646 43L166.635 41.3068H166.936C167.163 41.3068 167.355 41.2557 167.51 41.1534C167.665 41.0511 167.794 40.8807 167.896 40.642C167.998 40.3996 168.078 40.0739 168.135 39.6648C168.192 39.2557 168.231 38.7462 168.254 38.1364L168.408 34.2727H174.771V43H172.783V35.9602H170.277L170.141 38.7727C170.106 39.5 170.025 40.1307 169.896 40.6648C169.771 41.1951 169.593 41.6326 169.362 41.9773C169.135 42.322 168.849 42.5795 168.504 42.75C168.159 42.9167 167.752 43 167.283 43H166.646ZM180.649 43.1705C179.797 43.1705 179.058 42.983 178.433 42.608C177.808 42.233 177.323 41.7083 176.979 41.0341C176.638 40.3598 176.467 39.572 176.467 38.6705C176.467 37.7689 176.638 36.9792 176.979 36.3011C177.323 35.6231 177.808 35.0966 178.433 34.7216C179.058 34.3466 179.797 34.1591 180.649 34.1591C181.501 34.1591 182.24 34.3466 182.865 34.7216C183.49 35.0966 183.973 35.6231 184.314 36.3011C184.659 36.9792 184.831 37.7689 184.831 38.6705C184.831 39.572 184.659 40.3598 184.314 41.0341C183.973 41.7083 183.49 42.233 182.865 42.608C182.24 42.983 181.501 43.1705 180.649 43.1705ZM180.66 41.5227C181.123 41.5227 181.509 41.3958 181.819 41.142C182.13 40.8845 182.361 40.5398 182.513 40.108C182.668 39.6761 182.746 39.1951 182.746 38.6648C182.746 38.1307 182.668 37.6477 182.513 37.2159C182.361 36.7803 182.13 36.4337 181.819 36.1761C181.509 35.9186 181.123 35.7898 180.66 35.7898C180.187 35.7898 179.793 35.9186 179.479 36.1761C179.168 36.4337 178.935 36.7803 178.78 37.2159C178.628 37.6477 178.552 38.1307 178.552 38.6648C178.552 39.1951 178.628 39.6761 178.78 40.108C178.935 40.5398 179.168 40.8845 179.479 41.142C179.793 41.3958 180.187 41.5227 180.66 41.5227ZM194.932 43L196.841 31.3636H198.432L196.523 43H194.932ZM189.687 40L189.954 38.4091H198.909L198.642 40H189.687ZM190.841 43L192.75 31.3636H194.341L192.432 43H190.841ZM190.364 35.9545L190.625 34.3636H199.579L199.318 35.9545H190.364ZM205.552 31.3636V43H203.444V33.4148H203.376L200.655 35.1534V33.2216L203.547 31.3636H205.552Z" fill="#F0563A"/>
<path d="M55.5774 110V98.3636H60.032C60.8729 98.3636 61.5717 98.4962 62.1286 98.7614C62.6892 99.0227 63.1077 99.3807 63.3842 99.8352C63.6645 100.29 63.8047 100.805 63.8047 101.381C63.8047 101.854 63.7138 102.259 63.532 102.597C63.3501 102.93 63.1058 103.201 62.799 103.409C62.4922 103.617 62.1494 103.767 61.7706 103.858V103.972C62.1835 103.994 62.5793 104.121 62.9581 104.352C63.3407 104.58 63.6532 104.902 63.8956 105.318C64.138 105.735 64.2592 106.239 64.2592 106.83C64.2592 107.432 64.1134 107.973 63.8217 108.455C63.5301 108.932 63.0907 109.309 62.5036 109.585C61.9164 109.862 61.1778 110 60.2876 110H55.5774ZM57.6854 108.239H59.9524C60.7176 108.239 61.2687 108.093 61.6058 107.801C61.9467 107.506 62.1172 107.127 62.1172 106.665C62.1172 106.32 62.032 106.009 61.8615 105.733C61.6911 105.453 61.4486 105.233 61.1342 105.074C60.8198 104.911 60.4448 104.83 60.0092 104.83H57.6854V108.239ZM57.6854 103.312H59.7706C60.1342 103.312 60.4619 103.246 60.7536 103.114C61.0452 102.977 61.2744 102.786 61.4411 102.54C61.6115 102.29 61.6967 101.994 61.6967 101.653C61.6967 101.203 61.5376 100.831 61.2195 100.54C60.9051 100.248 60.4373 100.102 59.8161 100.102H57.6854V103.312ZM69.9709 110V101.273H72.0277V104.795H72.7777L75.4027 101.273H77.88L74.647 105.557L77.9141 110H75.4254L73.0334 106.71H72.0277V110H69.9709ZM81.5916 110.176C81.0386 110.176 80.5405 110.078 80.0973 109.881C79.6579 109.68 79.3094 109.384 79.0518 108.994C78.7981 108.604 78.6712 108.123 78.6712 107.551C78.6712 107.059 78.7621 106.652 78.9439 106.33C79.1257 106.008 79.3738 105.75 79.6882 105.557C80.0026 105.364 80.3568 105.218 80.7507 105.119C81.1484 105.017 81.5594 104.943 81.9837 104.898C82.495 104.845 82.9098 104.797 83.228 104.756C83.5462 104.71 83.7772 104.642 83.9212 104.551C84.0689 104.456 84.1428 104.311 84.1428 104.114V104.08C84.1428 103.652 84.0159 103.32 83.7621 103.085C83.5083 102.85 83.1428 102.733 82.6655 102.733C82.1617 102.733 81.7621 102.843 81.4666 103.062C81.175 103.282 80.978 103.542 80.8757 103.841L78.9553 103.568C79.1068 103.038 79.3568 102.595 79.7053 102.239C80.0537 101.879 80.4799 101.61 80.9837 101.432C81.4875 101.25 82.0443 101.159 82.6541 101.159C83.0746 101.159 83.4931 101.208 83.9098 101.307C84.3265 101.405 84.7071 101.568 85.0518 101.795C85.3965 102.019 85.6731 102.324 85.8814 102.71C86.0935 103.097 86.1996 103.58 86.1996 104.159V110H84.2223V108.801H84.1541C84.0291 109.044 83.853 109.271 83.6257 109.483C83.4022 109.691 83.12 109.86 82.7791 109.989C82.442 110.114 82.0462 110.176 81.5916 110.176ZM82.1257 108.665C82.5386 108.665 82.8965 108.583 83.1996 108.42C83.5026 108.254 83.7356 108.034 83.8984 107.761C84.0651 107.489 84.1484 107.191 84.1484 106.869V105.841C84.084 105.894 83.9742 105.943 83.8189 105.989C83.6674 106.034 83.4969 106.074 83.3075 106.108C83.1181 106.142 82.9306 106.172 82.745 106.199C82.5594 106.225 82.3984 106.248 82.2621 106.267C81.9553 106.309 81.6806 106.377 81.4382 106.472C81.1958 106.566 81.0045 106.699 80.8643 106.869C80.7242 107.036 80.6541 107.252 80.6541 107.517C80.6541 107.896 80.7924 108.182 81.0689 108.375C81.3454 108.568 81.6977 108.665 82.1257 108.665ZM87.6996 110L90.9212 105.494L87.728 101.273H90.103L92.5859 104.79H93.0746V101.273H95.1314V104.79H95.6087L98.0916 101.273H100.467L97.2905 105.494L100.495 110H98.0689L95.5859 106.477H95.1314V110H93.0746V106.477H92.62L90.1257 110H87.6996ZM101.261 112.534V108.307H101.954C102.139 108.163 102.295 107.968 102.42 107.722C102.545 107.472 102.647 107.178 102.727 106.841C102.81 106.5 102.878 106.119 102.931 105.699C102.984 105.275 103.031 104.818 103.073 104.33L103.323 101.273H109.63V108.307H110.982V112.534H108.994V110H103.283V112.534H101.261ZM104.067 108.307H107.664V102.932H105.107L104.971 104.33C104.895 105.254 104.795 106.045 104.67 106.705C104.545 107.364 104.344 107.898 104.067 108.307ZM116.325 110.17C115.472 110.17 114.734 109.983 114.109 109.608C113.484 109.233 112.999 108.708 112.654 108.034C112.313 107.36 112.143 106.572 112.143 105.67C112.143 104.769 112.313 103.979 112.654 103.301C112.999 102.623 113.484 102.097 114.109 101.722C114.734 101.347 115.472 101.159 116.325 101.159C117.177 101.159 117.915 101.347 118.54 101.722C119.165 102.097 119.648 102.623 119.989 103.301C120.334 103.979 120.506 104.769 120.506 105.67C120.506 106.572 120.334 107.36 119.989 108.034C119.648 108.708 119.165 109.233 118.54 109.608C117.915 109.983 117.177 110.17 116.325 110.17ZM116.336 108.523C116.798 108.523 117.184 108.396 117.495 108.142C117.806 107.884 118.037 107.54 118.188 107.108C118.344 106.676 118.421 106.195 118.421 105.665C118.421 105.131 118.344 104.648 118.188 104.216C118.037 103.78 117.806 103.434 117.495 103.176C117.184 102.919 116.798 102.79 116.336 102.79C115.862 102.79 115.469 102.919 115.154 103.176C114.844 103.434 114.611 103.78 114.455 104.216C114.304 104.648 114.228 105.131 114.228 105.665C114.228 106.195 114.304 106.676 114.455 107.108C114.611 107.54 114.844 107.884 115.154 108.142C115.469 108.396 115.862 108.523 116.336 108.523ZM124.235 107.216L127.729 101.273H129.843V110H127.854V104.051L124.371 110H122.252V101.273H124.235V107.216ZM127.167 98.2727H128.707C128.707 98.9356 128.466 99.4735 127.985 99.8864C127.508 100.295 126.86 100.5 126.042 100.5C125.231 100.5 124.585 100.295 124.104 99.8864C123.627 99.4735 123.39 98.9356 123.394 98.2727L124.923 98.2727C124.923 98.5455 125.006 98.7898 125.173 99.0057C125.343 99.2178 125.633 99.3239 126.042 99.3239C126.443 99.3239 126.729 99.2178 126.9 99.0057C127.074 98.7936 127.163 98.5492 127.167 98.2727ZM135.924 110V101.273H137.981V104.795H138.731L141.356 101.273H143.833L140.6 105.557L143.867 110H141.379L138.987 106.71H137.981V110H135.924ZM148.481 110.17C147.629 110.17 146.89 109.983 146.265 109.608C145.64 109.233 145.155 108.708 144.81 108.034C144.469 107.36 144.299 106.572 144.299 105.67C144.299 104.769 144.469 103.979 144.81 103.301C145.155 102.623 145.64 102.097 146.265 101.722C146.89 101.347 147.629 101.159 148.481 101.159C149.333 101.159 150.072 101.347 150.697 101.722C151.322 102.097 151.805 102.623 152.146 103.301C152.49 103.979 152.663 104.769 152.663 105.67C152.663 106.572 152.49 107.36 152.146 108.034C151.805 108.708 151.322 109.233 150.697 109.608C150.072 109.983 149.333 110.17 148.481 110.17ZM148.492 108.523C148.954 108.523 149.341 108.396 149.651 108.142C149.962 107.884 150.193 107.54 150.344 107.108C150.5 106.676 150.577 106.195 150.577 105.665C150.577 105.131 150.5 104.648 150.344 104.216C150.193 103.78 149.962 103.434 149.651 103.176C149.341 102.919 148.954 102.79 148.492 102.79C148.019 102.79 147.625 102.919 147.31 103.176C147 103.434 146.767 103.78 146.612 104.216C146.46 104.648 146.384 105.131 146.384 105.665C146.384 106.195 146.46 106.676 146.612 107.108C146.767 107.54 147 107.884 147.31 108.142C147.625 108.396 148.019 108.523 148.492 108.523ZM160.403 104.784V106.472H155.755V104.784H160.403ZM156.391 101.273V110H154.408V101.273H156.391ZM161.749 101.273V110H159.772V101.273H161.749ZM167.637 110.17C166.766 110.17 166.018 109.979 165.393 109.597C164.772 109.214 164.292 108.686 163.955 108.011C163.622 107.333 163.455 106.553 163.455 105.67C163.455 104.784 163.626 104.002 163.967 103.324C164.308 102.642 164.789 102.112 165.41 101.733C166.035 101.35 166.773 101.159 167.626 101.159C168.334 101.159 168.961 101.29 169.506 101.551C170.056 101.809 170.493 102.174 170.819 102.648C171.145 103.117 171.33 103.667 171.376 104.295H169.41C169.33 103.875 169.141 103.525 168.842 103.244C168.546 102.96 168.15 102.818 167.654 102.818C167.234 102.818 166.864 102.932 166.546 103.159C166.228 103.383 165.98 103.705 165.802 104.125C165.628 104.545 165.54 105.049 165.54 105.636C165.54 106.231 165.628 106.742 165.802 107.17C165.976 107.595 166.22 107.922 166.535 108.153C166.853 108.381 167.226 108.494 167.654 108.494C167.957 108.494 168.228 108.437 168.467 108.324C168.709 108.206 168.912 108.038 169.075 107.818C169.237 107.598 169.349 107.331 169.41 107.017H171.376C171.326 107.634 171.145 108.182 170.83 108.659C170.516 109.133 170.088 109.504 169.546 109.773C169.004 110.038 168.368 110.17 167.637 110.17ZM176.928 110.17C176.053 110.17 175.298 109.989 174.661 109.625C174.029 109.258 173.542 108.739 173.201 108.068C172.86 107.394 172.69 106.6 172.69 105.687C172.69 104.79 172.86 104.002 173.201 103.324C173.546 102.642 174.027 102.112 174.644 101.733C175.262 101.35 175.987 101.159 176.82 101.159C177.358 101.159 177.866 101.246 178.343 101.42C178.824 101.591 179.248 101.856 179.616 102.216C179.987 102.576 180.279 103.034 180.491 103.591C180.703 104.144 180.809 104.803 180.809 105.568V106.199H173.656V104.812H178.837C178.834 104.419 178.748 104.068 178.582 103.761C178.415 103.451 178.182 103.206 177.883 103.028C177.587 102.85 177.243 102.761 176.849 102.761C176.428 102.761 176.059 102.864 175.741 103.068C175.423 103.269 175.174 103.534 174.996 103.864C174.822 104.189 174.733 104.547 174.729 104.937V106.148C174.729 106.655 174.822 107.091 175.008 107.455C175.193 107.814 175.453 108.091 175.786 108.284C176.12 108.473 176.51 108.568 176.957 108.568C177.256 108.568 177.527 108.527 177.769 108.443C178.012 108.356 178.222 108.229 178.4 108.062C178.578 107.896 178.712 107.689 178.803 107.443L180.724 107.659C180.603 108.167 180.371 108.61 180.031 108.989C179.693 109.364 179.262 109.655 178.735 109.864C178.209 110.068 177.606 110.17 176.928 110.17ZM182.549 113.273V101.273H184.572V102.716H184.691C184.797 102.504 184.947 102.278 185.14 102.04C185.333 101.797 185.594 101.591 185.924 101.42C186.254 101.246 186.674 101.159 187.185 101.159C187.86 101.159 188.468 101.331 189.009 101.676C189.555 102.017 189.987 102.523 190.305 103.193C190.627 103.86 190.788 104.678 190.788 105.648C190.788 106.606 190.63 107.42 190.316 108.091C190.002 108.761 189.574 109.273 189.032 109.625C188.49 109.977 187.877 110.153 187.191 110.153C186.691 110.153 186.276 110.07 185.947 109.903C185.617 109.737 185.352 109.536 185.151 109.301C184.954 109.062 184.801 108.837 184.691 108.625H184.606V113.273H182.549ZM184.566 105.636C184.566 106.201 184.646 106.695 184.805 107.119C184.968 107.544 185.201 107.875 185.504 108.114C185.81 108.348 186.182 108.466 186.617 108.466C187.072 108.466 187.452 108.345 187.759 108.102C188.066 107.856 188.297 107.521 188.452 107.097C188.612 106.669 188.691 106.182 188.691 105.636C188.691 105.095 188.613 104.614 188.458 104.193C188.303 103.773 188.072 103.443 187.765 103.205C187.458 102.966 187.076 102.847 186.617 102.847C186.178 102.847 185.805 102.962 185.498 103.193C185.191 103.424 184.958 103.748 184.799 104.165C184.644 104.581 184.566 105.072 184.566 105.636ZM192.549 110V101.273H196.214C197.248 101.273 198.064 101.479 198.663 101.892C199.265 102.305 199.566 102.881 199.566 103.619C199.566 104.108 199.396 104.508 199.055 104.818C198.718 105.125 198.257 105.331 197.674 105.437C198.132 105.475 198.534 105.591 198.879 105.784C199.227 105.977 199.5 106.231 199.697 106.545C199.894 106.86 199.992 107.222 199.992 107.631C199.992 108.112 199.865 108.53 199.612 108.886C199.362 109.239 198.996 109.513 198.515 109.71C198.038 109.903 197.458 110 196.776 110H192.549ZM194.475 108.381H196.776C197.155 108.381 197.452 108.292 197.668 108.114C197.884 107.932 197.992 107.686 197.992 107.375C197.992 107.015 197.884 106.733 197.668 106.528C197.452 106.32 197.155 106.216 196.776 106.216H194.475V108.381ZM194.475 104.886H196.254C196.534 104.886 196.774 104.847 196.975 104.767C197.176 104.684 197.329 104.568 197.435 104.42C197.541 104.269 197.594 104.089 197.594 103.881C197.594 103.581 197.471 103.347 197.225 103.176C196.983 103.006 196.646 102.92 196.214 102.92H194.475V104.886ZM205.553 110.17C204.678 110.17 203.923 109.989 203.286 109.625C202.654 109.258 202.167 108.739 201.826 108.068C201.485 107.394 201.315 106.6 201.315 105.687C201.315 104.79 201.485 104.002 201.826 103.324C202.171 102.642 202.652 102.112 203.269 101.733C203.887 101.35 204.612 101.159 205.445 101.159C205.983 101.159 206.491 101.246 206.968 101.42C207.449 101.591 207.873 101.856 208.241 102.216C208.612 102.576 208.904 103.034 209.116 103.591C209.328 104.144 209.434 104.803 209.434 105.568V106.199H202.281V104.812H207.462C207.459 104.419 207.373 104.068 207.207 103.761C207.04 103.451 206.807 103.206 206.508 103.028C206.212 102.85 205.868 102.761 205.474 102.761C205.053 102.761 204.684 102.864 204.366 103.068C204.048 103.269 203.799 103.534 203.621 103.864C203.447 104.189 203.358 104.547 203.354 104.937V106.148C203.354 106.655 203.447 107.091 203.633 107.455C203.818 107.814 204.078 108.091 204.411 108.284C204.745 108.473 205.135 108.568 205.582 108.568C205.881 108.568 206.152 108.527 206.394 108.443C206.637 108.356 206.847 108.229 207.025 108.062C207.203 107.896 207.337 107.689 207.428 107.443L209.349 107.659C209.228 108.167 208.996 108.61 208.656 108.989C208.318 109.364 207.887 109.655 207.36 109.864C206.834 110.068 206.231 110.17 205.553 110.17ZM214.665 102.96V101.273H222.302V102.96H219.478V110H217.489V102.96H214.665ZM227.387 110.17C226.535 110.17 225.796 109.983 225.171 109.608C224.546 109.233 224.061 108.708 223.717 108.034C223.376 107.36 223.205 106.572 223.205 105.67C223.205 104.769 223.376 103.979 223.717 103.301C224.061 102.623 224.546 102.097 225.171 101.722C225.796 101.347 226.535 101.159 227.387 101.159C228.239 101.159 228.978 101.347 229.603 101.722C230.228 102.097 230.711 102.623 231.052 103.301C231.397 103.979 231.569 104.769 231.569 105.67C231.569 106.572 231.397 107.36 231.052 108.034C230.711 108.708 230.228 109.233 229.603 109.608C228.978 109.983 228.239 110.17 227.387 110.17ZM227.398 108.523C227.861 108.523 228.247 108.396 228.558 108.142C228.868 107.884 229.099 107.54 229.251 107.108C229.406 106.676 229.484 106.195 229.484 105.665C229.484 105.131 229.406 104.648 229.251 104.216C229.099 103.78 228.868 103.434 228.558 103.176C228.247 102.919 227.861 102.79 227.398 102.79C226.925 102.79 226.531 102.919 226.217 103.176C225.906 103.434 225.673 103.78 225.518 104.216C225.366 104.648 225.29 105.131 225.29 105.665C225.29 106.195 225.366 106.676 225.518 107.108C225.673 107.54 225.906 107.884 226.217 108.142C226.531 108.396 226.925 108.523 227.398 108.523ZM232.712 110L232.701 108.307H233.002C233.229 108.307 233.421 108.256 233.576 108.153C233.731 108.051 233.86 107.881 233.962 107.642C234.065 107.4 234.144 107.074 234.201 106.665C234.258 106.256 234.298 105.746 234.32 105.136L234.474 101.273H240.837V110H238.849V102.96H236.343L236.207 105.773C236.173 106.5 236.091 107.131 235.962 107.665C235.837 108.195 235.659 108.633 235.428 108.977C235.201 109.322 234.915 109.58 234.57 109.75C234.226 109.917 233.818 110 233.349 110H232.712ZM244.3 104.114H246.874C247.988 104.114 248.85 104.384 249.46 104.926C250.069 105.468 250.376 106.178 250.38 107.057C250.376 107.629 250.236 108.136 249.96 108.58C249.687 109.023 249.289 109.371 248.766 109.625C248.247 109.875 247.617 110 246.874 110H242.908V101.273H244.891V108.312H246.874C247.321 108.312 247.689 108.199 247.977 107.972C248.264 107.741 248.408 107.445 248.408 107.085C248.408 106.706 248.264 106.398 247.977 106.159C247.689 105.92 247.321 105.801 246.874 105.801H244.3V104.114ZM252.143 110V101.273H254.2V104.795H254.95L257.575 101.273H260.052L256.819 105.557L260.086 110H257.597L255.205 106.71H254.2V110H252.143ZM264.7 110.17C263.847 110.17 263.109 109.983 262.484 109.608C261.859 109.233 261.374 108.708 261.029 108.034C260.688 107.36 260.518 106.572 260.518 105.67C260.518 104.769 260.688 103.979 261.029 103.301C261.374 102.623 261.859 102.097 262.484 101.722C263.109 101.347 263.847 101.159 264.7 101.159C265.552 101.159 266.29 101.347 266.915 101.722C267.54 102.097 268.023 102.623 268.364 103.301C268.709 103.979 268.881 104.769 268.881 105.67C268.881 106.572 268.709 107.36 268.364 108.034C268.023 108.708 267.54 109.233 266.915 109.608C266.29 109.983 265.552 110.17 264.7 110.17ZM264.711 108.523C265.173 108.523 265.559 108.396 265.87 108.142C266.181 107.884 266.412 107.54 266.563 107.108C266.719 106.676 266.796 106.195 266.796 105.665C266.796 105.131 266.719 104.648 266.563 104.216C266.412 103.78 266.181 103.434 265.87 103.176C265.559 102.919 265.173 102.79 264.711 102.79C264.237 102.79 263.844 102.919 263.529 103.176C263.219 103.434 262.986 103.78 262.83 104.216C262.679 104.648 262.603 105.131 262.603 105.665C262.603 106.195 262.679 106.676 262.83 107.108C262.986 107.54 263.219 107.884 263.529 108.142C263.844 108.396 264.237 108.523 264.711 108.523ZM86.0483 126.608L88.6392 120.273H90.2983L86.7699 129H85.3324L81.8835 120.273H83.5256L86.0483 126.608ZM83.0085 120.273V129H81.0256V120.273H83.0085ZM89.1733 129V120.273H91.1392V129H89.1733ZM98.3722 129V121.943H96.5085C96.035 121.943 95.6714 122.053 95.4176 122.273C95.1638 122.492 95.0388 122.765 95.0426 123.091C95.0388 123.417 95.1581 123.686 95.4006 123.898C95.643 124.11 95.9896 124.216 96.4403 124.216H99.0199V125.716H96.4403C95.7434 125.716 95.1411 125.606 94.6335 125.386C94.1259 125.167 93.7358 124.856 93.4631 124.455C93.1903 124.053 93.054 123.583 93.054 123.045C93.054 122.485 93.1922 121.998 93.4688 121.585C93.7491 121.169 94.1468 120.847 94.6619 120.619C95.1809 120.388 95.7964 120.273 96.5085 120.273H100.298V129H98.3722ZM92.7358 129L95.1733 124.523H97.2017L94.7585 129H92.7358ZM106.176 129.17C105.305 129.17 104.557 128.979 103.932 128.597C103.311 128.214 102.831 127.686 102.494 127.011C102.161 126.333 101.994 125.553 101.994 124.67C101.994 123.784 102.165 123.002 102.506 122.324C102.847 121.642 103.328 121.112 103.949 120.733C104.574 120.35 105.313 120.159 106.165 120.159C106.873 120.159 107.5 120.29 108.045 120.551C108.595 120.809 109.032 121.174 109.358 121.648C109.684 122.117 109.869 122.667 109.915 123.295H107.949C107.869 122.875 107.68 122.525 107.381 122.244C107.085 121.96 106.689 121.818 106.193 121.818C105.773 121.818 105.403 121.932 105.085 122.159C104.767 122.383 104.519 122.705 104.341 123.125C104.167 123.545 104.08 124.049 104.08 124.636C104.08 125.231 104.167 125.742 104.341 126.17C104.515 126.595 104.759 126.922 105.074 127.153C105.392 127.381 105.765 127.494 106.193 127.494C106.496 127.494 106.767 127.437 107.006 127.324C107.248 127.206 107.451 127.038 107.614 126.818C107.777 126.598 107.888 126.331 107.949 126.017H109.915C109.866 126.634 109.684 127.182 109.369 127.659C109.055 128.133 108.627 128.504 108.085 128.773C107.544 129.038 106.907 129.17 106.176 129.17ZM115.411 129.17C114.558 129.17 113.82 128.983 113.195 128.608C112.57 128.233 112.085 127.708 111.74 127.034C111.399 126.36 111.229 125.572 111.229 124.67C111.229 123.769 111.399 122.979 111.74 122.301C112.085 121.623 112.57 121.097 113.195 120.722C113.82 120.347 114.558 120.159 115.411 120.159C116.263 120.159 117.001 120.347 117.626 120.722C118.251 121.097 118.734 121.623 119.075 122.301C119.42 122.979 119.592 123.769 119.592 124.67C119.592 125.572 119.42 126.36 119.075 127.034C118.734 127.708 118.251 128.233 117.626 128.608C117.001 128.983 116.263 129.17 115.411 129.17ZM115.422 127.523C115.884 127.523 116.27 127.396 116.581 127.142C116.892 126.884 117.123 126.54 117.274 126.108C117.429 125.676 117.507 125.195 117.507 124.665C117.507 124.131 117.429 123.648 117.274 123.216C117.123 122.78 116.892 122.434 116.581 122.176C116.27 121.919 115.884 121.79 115.422 121.79C114.948 121.79 114.554 121.919 114.24 122.176C113.929 122.434 113.696 122.78 113.541 123.216C113.39 123.648 113.314 124.131 113.314 124.665C113.314 125.195 113.39 125.676 113.541 126.108C113.696 126.54 113.929 126.884 114.24 127.142C114.554 127.396 114.948 127.523 115.422 127.523ZM123.753 127.409L123.679 128.034C123.626 128.511 123.531 128.996 123.395 129.489C123.262 129.985 123.122 130.441 122.974 130.858C122.827 131.275 122.707 131.602 122.616 131.841H121.23C121.283 131.61 121.355 131.295 121.446 130.898C121.541 130.5 121.632 130.053 121.719 129.557C121.806 129.061 121.865 128.557 121.895 128.045L121.935 127.409H123.753ZM129.666 132.273V120.273H131.689V121.716H131.808C131.914 121.504 132.064 121.278 132.257 121.04C132.45 120.797 132.712 120.591 133.041 120.42C133.371 120.246 133.791 120.159 134.303 120.159C134.977 120.159 135.585 120.331 136.126 120.676C136.672 121.017 137.104 121.523 137.422 122.193C137.744 122.86 137.905 123.678 137.905 124.648C137.905 125.606 137.748 126.42 137.433 127.091C137.119 127.761 136.691 128.273 136.149 128.625C135.607 128.977 134.994 129.153 134.308 129.153C133.808 129.153 133.393 129.07 133.064 128.903C132.734 128.737 132.469 128.536 132.268 128.301C132.071 128.062 131.918 127.837 131.808 127.625H131.723V132.273H129.666ZM131.683 124.636C131.683 125.201 131.763 125.695 131.922 126.119C132.085 126.544 132.318 126.875 132.621 127.114C132.928 127.348 133.299 127.466 133.734 127.466C134.189 127.466 134.57 127.345 134.876 127.102C135.183 126.856 135.414 126.521 135.57 126.097C135.729 125.669 135.808 125.182 135.808 124.636C135.808 124.095 135.731 123.614 135.575 123.193C135.42 122.773 135.189 122.443 134.882 122.205C134.575 121.966 134.193 121.847 133.734 121.847C133.295 121.847 132.922 121.962 132.615 122.193C132.308 122.424 132.075 122.748 131.916 123.165C131.761 123.581 131.683 124.072 131.683 124.636ZM141.058 123.114L143.632 123.114C144.746 123.114 145.607 123.384 146.217 123.926C146.827 124.468 147.134 125.178 147.138 126.057C147.134 126.629 146.994 127.136 146.717 127.58C146.445 128.023 146.047 128.371 145.524 128.625C145.005 128.875 144.375 129 143.632 129H139.666V120.273H141.649V127.312H143.632C144.079 127.312 144.446 127.199 144.734 126.972C145.022 126.741 145.166 126.445 145.166 126.085C145.166 125.706 145.022 125.398 144.734 125.159C144.446 124.92 144.079 124.801 143.632 124.801L141.058 124.801V123.114ZM148.223 129V120.273H150.28V129H148.223ZM159.395 117.045L160.111 118.375C159.857 118.595 159.573 118.754 159.259 118.852C158.944 118.951 158.575 119.015 158.151 119.045C157.73 119.072 157.23 119.091 156.651 119.102C155.999 119.117 155.467 119.241 155.054 119.472C154.641 119.703 154.325 120.053 154.105 120.523C153.885 120.989 153.741 121.583 153.673 122.307H153.77C154.043 121.773 154.425 121.366 154.918 121.085C155.41 120.805 155.988 120.665 156.651 120.665C157.374 120.665 158.012 120.828 158.565 121.153C159.122 121.475 159.556 121.943 159.866 122.557C160.181 123.17 160.338 123.913 160.338 124.784C160.338 125.682 160.17 126.46 159.832 127.119C159.495 127.775 159.016 128.28 158.395 128.636C157.777 128.992 157.045 129.17 156.196 129.17C155.351 129.17 154.616 128.987 153.991 128.619C153.37 128.248 152.889 127.701 152.548 126.977C152.211 126.25 152.043 125.354 152.043 124.29V123.506C152.043 121.453 152.425 119.92 153.19 118.909C153.955 117.898 155.09 117.383 156.594 117.364C157.041 117.356 157.44 117.354 157.793 117.358C158.149 117.362 158.459 117.345 158.724 117.307C158.99 117.269 159.213 117.182 159.395 117.045ZM156.207 127.523C156.628 127.523 156.991 127.415 157.298 127.199C157.605 126.979 157.84 126.669 158.003 126.267C158.17 125.866 158.253 125.39 158.253 124.841C158.253 124.299 158.17 123.839 158.003 123.46C157.836 123.078 157.599 122.786 157.293 122.585C156.986 122.384 156.62 122.284 156.196 122.284C155.878 122.284 155.592 122.341 155.338 122.455C155.084 122.568 154.868 122.735 154.69 122.955C154.512 123.174 154.376 123.441 154.281 123.756C154.187 124.07 154.135 124.432 154.128 124.841C154.128 125.663 154.313 126.316 154.685 126.801C155.056 127.282 155.563 127.523 156.207 127.523ZM164.599 129.176C164.046 129.176 163.548 129.078 163.105 128.881C162.666 128.68 162.317 128.384 162.06 127.994C161.806 127.604 161.679 127.123 161.679 126.551C161.679 126.059 161.77 125.652 161.952 125.33C162.134 125.008 162.382 124.75 162.696 124.557C163.01 124.364 163.365 124.218 163.759 124.119C164.156 124.017 164.567 123.943 164.991 123.898C165.503 123.845 165.918 123.797 166.236 123.756C166.554 123.71 166.785 123.642 166.929 123.551C167.077 123.456 167.151 123.311 167.151 123.114V123.08C167.151 122.652 167.024 122.32 166.77 122.085C166.516 121.85 166.151 121.733 165.673 121.733C165.17 121.733 164.77 121.843 164.474 122.062C164.183 122.282 163.986 122.542 163.884 122.841L161.963 122.568C162.115 122.038 162.365 121.595 162.713 121.239C163.062 120.879 163.488 120.61 163.991 120.432C164.495 120.25 165.052 120.159 165.662 120.159C166.082 120.159 166.501 120.208 166.918 120.307C167.334 120.405 167.715 120.568 168.06 120.795C168.404 121.019 168.681 121.324 168.889 121.71C169.101 122.097 169.207 122.58 169.207 123.159V129H167.23V127.801H167.162C167.037 128.044 166.861 128.271 166.634 128.483C166.41 128.691 166.128 128.86 165.787 128.989C165.45 129.114 165.054 129.176 164.599 129.176ZM165.134 127.665C165.546 127.665 165.904 127.583 166.207 127.42C166.51 127.254 166.743 127.034 166.906 126.761C167.073 126.489 167.156 126.191 167.156 125.869V124.841C167.092 124.894 166.982 124.943 166.827 124.989C166.675 125.034 166.505 125.074 166.315 125.108C166.126 125.142 165.938 125.172 165.753 125.199C165.567 125.225 165.406 125.248 165.27 125.267C164.963 125.309 164.688 125.377 164.446 125.472C164.204 125.566 164.012 125.699 163.872 125.869C163.732 126.036 163.662 126.252 163.662 126.517C163.662 126.896 163.8 127.182 164.077 127.375C164.353 127.568 164.705 127.665 165.134 127.665ZM177.227 126.216L180.722 120.273H182.835V129H180.847V123.051L177.364 129H175.244V120.273H177.227V126.216ZM195.911 117.045L196.626 118.375C196.373 118.595 196.089 118.754 195.774 118.852C195.46 118.951 195.09 119.015 194.666 119.045C194.246 119.072 193.746 119.091 193.166 119.102C192.515 119.117 191.982 119.241 191.57 119.472C191.157 119.703 190.84 120.053 190.621 120.523C190.401 120.989 190.257 121.583 190.189 122.307H190.286C190.558 121.773 190.941 121.366 191.433 121.085C191.926 120.805 192.503 120.665 193.166 120.665C193.89 120.665 194.528 120.828 195.081 121.153C195.638 121.475 196.071 121.943 196.382 122.557C196.696 123.17 196.854 123.913 196.854 124.784C196.854 125.682 196.685 126.46 196.348 127.119C196.011 127.775 195.532 128.28 194.911 128.636C194.293 128.992 193.56 129.17 192.712 129.17C191.867 129.17 191.132 128.987 190.507 128.619C189.886 128.248 189.405 127.701 189.064 126.977C188.727 126.25 188.558 125.354 188.558 124.29V123.506C188.558 121.453 188.941 119.92 189.706 118.909C190.471 117.898 191.606 117.383 193.109 117.364C193.556 117.356 193.956 117.354 194.308 117.358C194.664 117.362 194.975 117.345 195.24 117.307C195.505 117.269 195.729 117.182 195.911 117.045ZM192.723 127.523C193.143 127.523 193.507 127.415 193.814 127.199C194.121 126.979 194.356 126.669 194.518 126.267C194.685 125.866 194.768 125.39 194.768 124.841C194.768 124.299 194.685 123.839 194.518 123.46C194.352 123.078 194.115 122.786 193.808 122.585C193.501 122.384 193.136 122.284 192.712 122.284C192.393 122.284 192.107 122.341 191.854 122.455C191.6 122.568 191.384 122.735 191.206 122.955C191.028 123.174 190.892 123.441 190.797 123.756C190.702 124.07 190.651 124.432 190.643 124.841C190.643 125.663 190.829 126.316 191.2 126.801C191.571 127.282 192.079 127.523 192.723 127.523ZM199.882 132.273C199.602 132.273 199.342 132.25 199.104 132.205C198.869 132.163 198.681 132.114 198.541 132.057L199.018 130.455C199.318 130.542 199.585 130.583 199.82 130.58C200.054 130.576 200.261 130.502 200.439 130.358C200.621 130.218 200.774 129.983 200.899 129.653L201.075 129.182L197.911 120.273H200.092L202.104 126.864H202.195L204.212 120.273H206.399L202.905 130.057C202.742 130.519 202.526 130.915 202.257 131.244C201.988 131.578 201.659 131.831 201.268 132.006C200.882 132.184 200.42 132.273 199.882 132.273ZM206.501 129L206.49 127.307H206.791C207.018 127.307 207.21 127.256 207.365 127.153C207.52 127.051 207.649 126.881 207.751 126.642C207.854 126.4 207.933 126.074 207.99 125.665C208.047 125.256 208.087 124.746 208.109 124.136L208.263 120.273H214.626V129H212.638V121.96H210.132L209.996 124.773C209.962 125.5 209.88 126.131 209.751 126.665C209.626 127.195 209.448 127.633 209.217 127.977C208.99 128.322 208.704 128.58 208.359 128.75C208.015 128.917 207.607 129 207.138 129H206.501ZM218.089 123.114H220.663C221.777 123.114 222.639 123.384 223.249 123.926C223.858 124.468 224.165 125.178 224.169 126.057C224.165 126.629 224.025 127.136 223.749 127.58C223.476 128.023 223.078 128.371 222.555 128.625C222.036 128.875 221.406 129 220.663 129H216.697V120.273H218.68V127.312H220.663C221.11 127.312 221.478 127.199 221.766 126.972C222.054 126.741 222.197 126.445 222.197 126.085C222.197 125.706 222.054 125.398 221.766 125.159C221.478 124.92 221.11 124.801 220.663 124.801H218.089V123.114ZM229.739 129.17C228.886 129.17 228.148 128.983 227.523 128.608C226.898 128.233 226.413 127.708 226.068 127.034C225.727 126.36 225.557 125.572 225.557 124.67C225.557 123.769 225.727 122.979 226.068 122.301C226.413 121.623 226.898 121.097 227.523 120.722C228.148 120.347 228.886 120.159 229.739 120.159C230.591 120.159 231.33 120.347 231.955 120.722C232.58 121.097 233.063 121.623 233.403 122.301C233.748 122.979 233.92 123.769 233.92 124.67C233.92 125.572 233.748 126.36 233.403 127.034C233.063 127.708 232.58 128.233 231.955 128.608C231.33 128.983 230.591 129.17 229.739 129.17ZM229.75 127.523C230.212 127.523 230.598 127.396 230.909 127.142C231.22 126.884 231.451 126.54 231.602 126.108C231.758 125.676 231.835 125.195 231.835 124.665C231.835 124.131 231.758 123.648 231.602 123.216C231.451 122.78 231.22 122.434 230.909 122.176C230.598 121.919 230.212 121.79 229.75 121.79C229.277 121.79 228.883 121.919 228.568 122.176C228.258 122.434 228.025 122.78 227.869 123.216C227.718 123.648 227.642 124.131 227.642 124.665C227.642 125.195 227.718 125.676 227.869 126.108C228.025 126.54 228.258 126.884 228.568 127.142C228.883 127.396 229.277 127.523 229.75 127.523ZM241.661 123.784V125.472H237.013V123.784H241.661ZM237.649 120.273V129H235.666V120.273H237.649ZM243.007 120.273V129H241.03V120.273H243.007Z" fill="#F0563A"/>
</svg>
