<svg width="931" height="269" viewBox="0 0 931 269" fill="none" xmlns="http://www.w3.org/2000/svg">
<mask id="path-1-outside-1_67_926" maskUnits="userSpaceOnUse" x="2.38419e-07" y="2.38419e-07" width="776" height="199" fill="#fff">
<rect fill="white" x="2.38419e-07" y="2.38419e-07" width="776" height="199"/>
<path d="M97.8088 4C45.9996 4 4 43.4143 4 92.0343C4 140.654 45.9996 180.069 97.8088 180.069H639.322C659.485 180.069 678.162 174.099 693.456 163.94C712.124 174.263 748.965 190.637 772 195C744.253 185.886 733.13 123.105 733.131 92.0343C733.131 43.4143 691.132 4 639.322 4H97.8088Z"/>
</mask>
<path d="M97.8088 4C45.9996 4 4 43.4143 4 92.0343C4 140.654 45.9996 180.069 97.8088 180.069H639.322C659.485 180.069 678.162 174.099 693.456 163.94C712.124 174.263 748.965 190.637 772 195C744.253 185.886 733.13 123.105 733.131 92.0343C733.131 43.4143 691.132 4 639.322 4H97.8088Z" fill="white"/>
<path d="M693.456 163.94L695.316 160.578C694.061 159.884 692.524 159.946 691.33 160.739L693.456 163.94ZM772 195L771.285 198.776C773.275 199.153 775.216 197.92 775.721 195.959C776.227 193.998 775.123 191.981 773.199 191.349L772 195ZM733.131 92.0343L736.974 92.0344V92.0343H733.131ZM7.84274 92.0343C7.84274 45.7629 47.8883 7.84274 97.8088 7.84274V0.157261C44.111 0.157261 0.157261 41.0657 0.157261 92.0343H7.84274ZM97.8088 176.226C47.8883 176.226 7.84274 138.306 7.84274 92.0343H0.157261C0.157261 143.003 44.111 183.911 97.8088 183.911V176.226ZM639.322 176.226H97.8088V183.911H639.322V176.226ZM691.33 160.739C676.659 170.484 658.721 176.226 639.322 176.226V183.911C660.25 183.911 679.665 177.714 695.582 167.141L691.33 160.739ZM772.715 191.224C750.274 186.974 713.853 170.828 695.316 160.578L691.597 167.303C710.395 177.698 747.656 194.3 771.285 198.776L772.715 191.224ZM729.288 92.0341C729.288 107.917 732.115 131.756 738.481 152.861C741.665 163.415 745.784 173.458 750.993 181.521C756.178 189.546 762.691 195.987 770.801 198.651L773.199 191.349C767.435 189.456 762.153 184.632 757.449 177.35C752.769 170.108 748.905 160.805 745.839 150.641C739.706 130.309 736.973 107.223 736.974 92.0344L729.288 92.0341ZM639.322 7.84274C689.243 7.84274 729.288 45.7629 729.288 92.0343H736.974C736.974 41.0657 693.02 0.157261 639.322 0.157261V7.84274ZM97.8088 7.84274H639.322V0.157261H97.8088V7.84274Z" fill="white" />
<path d="M110.078 62.0382C112.452 62.0382 114.699 62.416 116.82 63.1717C118.941 63.9141 120.817 65.0874 122.448 66.6916C124.092 68.2958 125.378 70.3904 126.306 72.9757C127.247 75.5476 127.724 78.6632 127.738 82.3223C127.751 85.6632 127.333 88.666 126.485 91.3308C125.65 93.9823 124.45 96.2427 122.885 98.112C121.334 99.9814 119.465 101.413 117.277 102.407C115.103 103.389 112.677 103.879 109.999 103.879C106.989 103.879 104.345 103.302 102.064 102.149C99.784 100.996 97.9677 99.4444 96.6154 97.4956C95.2631 95.5467 94.4743 93.3791 94.2489 90.9927H105.147C105.412 92.2257 105.995 93.1206 106.897 93.6774C107.798 94.2209 108.832 94.4927 109.999 94.4927C112.332 94.4927 114.036 93.4851 115.11 91.47C116.197 89.4416 116.747 86.737 116.76 83.3564H116.522C116.005 84.6026 115.222 85.6698 114.175 86.5581C113.128 87.4463 111.908 88.1291 110.516 88.6064C109.124 89.0836 107.652 89.3223 106.101 89.3223C103.649 89.3223 101.501 88.7721 99.658 87.6717C97.8152 86.5581 96.3768 85.0401 95.3427 83.1177C94.3086 81.1821 93.7849 78.9814 93.7717 76.5154C93.7584 73.6253 94.4412 71.0931 95.82 68.9189C97.1987 66.7446 99.1145 65.0543 101.567 63.8478C104.02 62.6414 106.857 62.0382 110.078 62.0382ZM110.158 70.3904C109.058 70.3904 108.077 70.6423 107.215 71.1461C106.366 71.6499 105.697 72.3327 105.206 73.1944C104.729 74.0562 104.497 75.0306 104.51 76.1177C104.524 77.2048 104.769 78.1793 105.246 79.041C105.737 79.9028 106.4 80.5855 107.235 81.0893C108.083 81.5931 109.058 81.845 110.158 81.845C110.967 81.845 111.716 81.7058 112.405 81.4274C113.095 81.1357 113.691 80.7314 114.195 80.2143C114.712 79.684 115.11 79.0742 115.388 78.3848C115.68 77.6821 115.819 76.9264 115.806 76.1177C115.792 75.0306 115.541 74.0562 115.05 73.1944C114.56 72.3327 113.89 71.6499 113.042 71.1461C112.193 70.6423 111.232 70.3904 110.158 70.3904ZM150.244 104.436C146.545 104.423 143.35 103.568 140.659 101.871C137.967 100.174 135.893 97.7276 134.434 94.5325C132.976 91.3374 132.253 87.506 132.267 83.0382C132.28 78.5571 133.009 74.7522 134.454 71.6234C135.913 68.4946 137.981 66.1149 140.659 64.4842C143.35 62.8535 146.545 62.0382 150.244 62.0382C153.943 62.0382 157.138 62.8601 159.829 64.5041C162.52 66.1348 164.595 68.5145 166.054 71.6433C167.512 74.7721 168.234 78.5704 168.221 83.0382C168.221 87.5325 167.492 91.3772 166.034 94.5723C164.575 97.7673 162.501 100.213 159.809 101.91C157.131 103.594 153.943 104.436 150.244 104.436ZM150.244 95.4473C152.153 95.4473 153.717 94.4529 154.937 92.4643C156.17 90.4624 156.78 87.3204 156.767 83.0382C156.767 80.2408 156.488 77.9539 155.931 76.1774C155.375 74.4009 154.606 73.0884 153.625 72.2399C152.644 71.3781 151.517 70.9473 150.244 70.9473C148.335 70.9473 146.777 71.9151 145.571 73.8507C144.364 75.7863 143.748 78.8488 143.721 83.0382C143.708 85.8886 143.98 88.2351 144.537 90.0779C145.093 91.9075 145.862 93.2598 146.843 94.1348C147.838 95.0098 148.971 95.4473 150.244 95.4473ZM196.718 95.6859V93.5382C196.718 91.8147 197.09 90.2238 197.832 88.7654C198.588 87.3071 199.681 86.1338 201.113 85.2456C202.545 84.3573 204.288 83.9132 206.343 83.9132C208.451 83.9132 210.221 84.3507 211.653 85.2257C213.098 86.1007 214.192 87.2673 214.934 88.7257C215.677 90.184 216.048 91.7882 216.048 93.5382V95.6859C216.048 97.4094 215.67 99.0003 214.914 100.459C214.172 101.917 213.078 103.09 211.633 103.979C210.188 104.867 208.425 105.311 206.343 105.311C204.262 105.311 202.505 104.867 201.074 103.979C199.642 103.09 198.555 101.917 197.812 100.459C197.083 99.0003 196.718 97.4094 196.718 95.6859ZM203.639 93.5382V95.6859C203.639 96.4416 203.824 97.1906 204.196 97.9331C204.58 98.6622 205.296 99.0268 206.343 99.0268C207.444 99.0268 208.166 98.6689 208.511 97.9529C208.869 97.237 209.048 96.4814 209.048 95.6859V93.5382C209.048 92.7427 208.882 91.9738 208.551 91.2314C208.219 90.4889 207.484 90.1177 206.343 90.1177C205.296 90.1177 204.58 90.4889 204.196 91.2314C203.824 91.9738 203.639 92.7427 203.639 93.5382ZM175.4 72.3791V70.2314C175.4 68.4814 175.778 66.8772 176.534 65.4189C177.303 63.9605 178.403 62.7939 179.835 61.9189C181.267 61.0439 182.997 60.6064 185.025 60.6064C187.133 60.6064 188.903 61.0439 190.335 61.9189C191.78 62.7939 192.874 63.9605 193.616 65.4189C194.359 66.8772 194.73 68.4814 194.73 70.2314V72.3791C194.73 74.1291 194.352 75.7266 193.596 77.1717C192.854 78.6168 191.76 79.7702 190.315 80.6319C188.87 81.4937 187.107 81.9245 185.025 81.9245C182.944 81.9245 181.187 81.487 179.755 80.612C178.324 79.737 177.236 78.577 176.494 77.1319C175.765 75.6868 175.4 74.1026 175.4 72.3791ZM182.4 70.2314V72.3791C182.4 73.1745 182.586 73.9302 182.957 74.6461C183.328 75.362 184.018 75.72 185.025 75.72C186.126 75.72 186.848 75.362 187.193 74.6461C187.551 73.9302 187.73 73.1745 187.73 72.3791V70.2314C187.73 69.4359 187.564 68.667 187.233 67.9245C186.901 67.1821 186.165 66.8109 185.025 66.8109C183.978 66.8109 183.275 67.1954 182.917 67.9643C182.573 68.72 182.4 69.4757 182.4 70.2314ZM178.781 103.322L206.781 62.595H212.429L184.429 103.322H178.781ZM234.363 62.595H248.125L257.591 85.6632H258.068L267.534 62.595H281.295V103.322H270.477V79.7768H270.159L261.091 103.004H254.568L245.5 79.6177H245.181V103.322H234.363V62.595ZM304.274 103.322V80.97H300.137C298.759 80.97 297.744 81.2882 297.095 81.9245C296.445 82.5609 296.134 83.1973 296.16 83.8336C296.134 84.5098 296.465 85.1461 297.154 85.7427C297.844 86.3261 298.918 86.6177 300.376 86.6177H308.172V93.22H300.376C297.393 93.22 294.808 92.8024 292.62 91.9672C290.433 91.1319 288.749 89.9785 287.569 88.5069C286.389 87.0353 285.806 85.345 285.819 83.4359C285.806 81.3677 286.376 79.5315 287.529 77.9274C288.696 76.3232 290.353 75.0637 292.501 74.149C294.662 73.2342 297.208 72.7768 300.137 72.7768H314.456V103.322H304.274ZM285.501 103.322L293.853 86.9359H303.956L295.603 103.322H285.501ZM334.441 103.879C331.127 103.879 328.29 103.223 325.93 101.91C323.57 100.585 321.761 98.7418 320.501 96.3819C319.242 94.0088 318.612 91.2579 318.612 88.1291C318.612 85.0003 319.242 82.256 320.501 79.8961C321.761 77.523 323.57 75.6802 325.93 74.3677C328.29 73.042 331.127 72.3791 334.441 72.3791C337.438 72.3791 340.029 72.9226 342.217 74.0098C344.418 75.0836 346.121 76.6082 347.328 78.5836C348.534 80.5457 349.144 82.8526 349.157 85.5041H338.975C338.83 83.8999 338.366 82.6802 337.583 81.845C336.815 80.9965 335.82 80.5723 334.6 80.5723C333.646 80.5723 332.811 80.8507 332.095 81.4075C331.379 81.9511 330.822 82.7797 330.424 83.8933C330.027 84.9937 329.828 86.3791 329.828 88.0495C329.828 89.72 330.027 91.112 330.424 92.2257C330.822 93.3261 331.379 94.1547 332.095 94.7115C332.811 95.255 333.646 95.5268 334.6 95.5268C335.409 95.5268 336.125 95.3412 336.748 94.97C337.371 94.5855 337.875 94.0287 338.26 93.2995C338.657 92.5571 338.896 91.6556 338.975 90.595H349.157C349.118 93.2863 348.501 95.6329 347.308 97.6348C346.115 99.6234 344.424 101.161 342.237 102.248C340.063 103.336 337.464 103.879 334.441 103.879ZM362.198 103.8C360.249 103.8 358.525 103.481 357.027 102.845C355.542 102.195 354.376 101.214 353.527 99.9018C352.679 98.5893 352.255 96.9189 352.255 94.8904C352.255 93.22 352.54 91.7948 353.11 90.6149C353.68 89.4217 354.475 88.4473 355.496 87.6916C356.517 86.9359 357.703 86.3592 359.056 85.9615C360.421 85.5637 361.893 85.3052 363.471 85.1859C365.181 85.0533 366.553 84.8942 367.587 84.7086C368.634 84.5098 369.39 84.238 369.854 83.8933C370.318 83.5353 370.55 83.0647 370.55 82.4814V82.4018C370.55 81.6064 370.245 80.9965 369.635 80.5723C369.025 80.148 368.243 79.9359 367.289 79.9359C366.241 79.9359 365.386 80.1679 364.723 80.6319C364.074 81.0827 363.683 81.7787 363.55 82.72H353.448C353.58 80.8639 354.17 79.1537 355.218 77.5893C356.278 76.0117 357.823 74.7522 359.851 73.8109C361.88 72.8564 364.412 72.3791 367.448 72.3791C369.635 72.3791 371.597 72.6376 373.334 73.1547C375.071 73.6584 376.549 74.3677 377.769 75.2825C378.989 76.184 379.917 77.2446 380.553 78.4643C381.203 79.6707 381.527 80.9832 381.527 82.4018V103.322H371.266V99.0268H371.027C370.417 100.167 369.675 101.088 368.8 101.791C367.938 102.494 366.951 103.004 365.837 103.322C364.737 103.64 363.524 103.8 362.198 103.8ZM365.777 96.8791C366.613 96.8791 367.395 96.7067 368.124 96.362C368.866 96.0173 369.47 95.5202 369.934 94.8706C370.398 94.2209 370.63 93.4321 370.63 92.5041V89.9586C370.338 90.0779 370.026 90.1906 369.695 90.2967C369.377 90.4028 369.032 90.5022 368.661 90.595C368.303 90.6878 367.918 90.774 367.507 90.8535C367.11 90.9331 366.692 91.006 366.255 91.0723C365.406 91.2048 364.71 91.4236 364.167 91.7285C363.636 92.0202 363.239 92.3848 362.973 92.8223C362.721 93.2465 362.596 93.7238 362.596 94.2541C362.596 95.1026 362.894 95.7522 363.49 96.2029C364.087 96.6537 364.849 96.8791 365.777 96.8791ZM397.77 62.595H408.826V83.9132H409.145L423.622 62.595H433.008V103.322H421.951V81.9245H421.713L406.997 103.322H397.77V62.595ZM449.395 103.322V62.595H466.974C469.997 62.595 472.642 63.1916 474.909 64.3848C477.176 65.5779 478.939 67.255 480.199 69.416C481.458 71.577 482.088 74.1026 482.088 76.9927C482.088 79.9094 481.438 82.435 480.139 84.5694C478.853 86.7039 477.043 88.3478 474.71 89.5012C472.39 90.6547 469.679 91.2314 466.576 91.2314H456.076V82.6404H464.349C465.648 82.6404 466.755 82.4151 467.67 81.9643C468.598 81.5003 469.307 80.844 469.798 79.9956C470.302 79.1471 470.554 78.1461 470.554 76.9927C470.554 75.8261 470.302 74.8317 469.798 74.0098C469.307 73.1745 468.598 72.5382 467.67 72.1007C466.755 71.6499 465.648 71.4245 464.349 71.4245H460.451V103.322H449.395ZM492.429 81.0495H501.815C506.177 81.0495 509.61 82.0571 512.116 84.0723C514.622 86.0742 515.881 88.8317 515.895 92.345C515.881 94.612 515.305 96.5675 514.164 98.2115C513.038 99.8554 511.42 101.122 509.312 102.01C507.217 102.885 504.718 103.322 501.815 103.322H486.304V72.7768H496.645V95.1291H501.815C502.942 95.1291 503.87 94.8639 504.599 94.3336C505.328 93.7901 505.699 93.1007 505.713 92.2654C505.699 91.3772 505.328 90.6547 504.599 90.0978C503.87 89.5278 502.942 89.2427 501.815 89.2427H492.429V81.0495ZM518.122 103.322V72.7768H529.099V103.322H518.122ZM561.852 61.72L564.556 69.0382C563.734 69.6215 562.859 70.0789 561.931 70.4103C561.003 70.7285 559.843 70.9539 558.451 71.0865C557.059 71.2058 555.25 71.2654 553.022 71.2654C550.503 71.2654 548.475 71.5571 546.937 72.1404C545.399 72.7238 544.239 73.7115 543.457 75.1035C542.675 76.4956 542.151 78.398 541.886 80.8109H542.125C542.96 78.9814 544.153 77.5164 545.704 76.416C547.269 75.3156 549.39 74.7654 552.068 74.7654C554.812 74.7654 557.179 75.3488 559.167 76.5154C561.156 77.6689 562.681 79.2929 563.741 81.3876C564.815 83.4823 565.352 85.9416 565.352 88.7654C565.352 91.8147 564.722 94.4728 563.463 96.7399C562.203 99.0069 560.394 100.764 558.034 102.01C555.674 103.256 552.837 103.879 549.522 103.879C546.208 103.879 543.371 103.229 541.011 101.93C538.651 100.631 536.842 98.7219 535.582 96.2029C534.323 93.684 533.693 90.595 533.693 86.9359V84.9473C533.693 77.2048 535.304 71.5439 538.525 67.9643C541.76 64.3848 546.46 62.595 552.625 62.595C554.056 62.595 555.356 62.595 556.522 62.595C557.702 62.595 558.736 62.5353 559.625 62.416C560.526 62.2967 561.269 62.0647 561.852 61.72ZM549.602 95.7654C550.53 95.7654 551.332 95.5136 552.008 95.0098C552.684 94.4927 553.208 93.7503 553.579 92.7825C553.95 91.8014 554.136 90.6215 554.136 89.2427C554.136 87.8374 553.95 86.6442 553.579 85.6632C553.208 84.6821 552.684 83.9331 552.008 83.416C551.332 82.899 550.53 82.6404 549.602 82.6404C548.873 82.6404 548.217 82.7863 547.633 83.0779C547.05 83.3696 546.553 83.8005 546.142 84.3706C545.744 84.9274 545.439 85.6168 545.227 86.4387C545.015 87.2475 544.909 88.1821 544.909 89.2427C544.909 91.3109 545.32 92.9151 546.142 94.0552C546.977 95.1954 548.13 95.7654 549.602 95.7654ZM576.1 81.0495H585.487C589.849 81.0495 593.282 82.0571 595.788 84.0723C598.294 86.0742 599.553 88.8317 599.566 92.345C599.553 94.612 598.976 96.5675 597.836 98.2115C596.709 99.8554 595.092 101.122 592.984 102.01C590.889 102.885 588.39 103.322 585.487 103.322H569.975V72.7768H580.316V95.1291H585.487C586.614 95.1291 587.542 94.8639 588.271 94.3336C589 93.7901 589.371 93.1007 589.385 92.2654C589.371 91.3772 589 90.6547 588.271 90.0978C587.542 89.5278 586.614 89.2427 585.487 89.2427H576.1V81.0495ZM601.794 103.322V72.7768H612.771V103.322H601.794Z" fill="black"/>
<path d="M309.722 27.7334V42.2788H307.109V29.9209H300.745V42.2788H298.132V27.7334H309.722ZM312.76 46.3697V31.3697H315.289V33.1737H315.438C315.571 32.9085 315.758 32.6268 315.999 32.3285C316.241 32.0255 316.567 31.7674 316.979 31.5544C317.391 31.3366 317.917 31.2277 318.556 31.2277C319.399 31.2277 320.159 31.4431 320.836 31.874C321.518 32.3001 322.057 32.9322 322.455 33.7703C322.858 34.6036 323.059 35.6263 323.059 36.8385C323.059 38.0364 322.862 39.0544 322.469 39.8924C322.076 40.7305 321.541 41.3697 320.864 41.8101C320.187 42.2504 319.42 42.4706 318.563 42.4706C317.938 42.4706 317.42 42.3664 317.008 42.1581C316.596 41.9497 316.264 41.6988 316.013 41.4052C315.767 41.1069 315.575 40.8252 315.438 40.5601H315.331V46.3697H312.76ZM315.282 36.8243C315.282 37.5298 315.381 38.1477 315.58 38.678C315.784 39.2083 316.075 39.6226 316.454 39.9209C316.837 40.2144 317.301 40.3612 317.846 40.3612C318.414 40.3612 318.89 40.2097 319.273 39.9066C319.657 39.5989 319.946 39.1799 320.14 38.6495C320.339 38.1145 320.438 37.5061 320.438 36.8243C320.438 36.1472 320.341 35.5459 320.147 35.0203C319.953 34.4947 319.664 34.0828 319.28 33.7845C318.897 33.4862 318.419 33.337 317.846 33.337C317.296 33.337 316.83 33.4815 316.447 33.7703C316.063 34.0591 315.772 34.4639 315.573 34.9848C315.379 35.5056 315.282 36.1188 315.282 36.8243ZM328.4 42.499C327.708 42.499 327.086 42.3759 326.532 42.1297C325.983 41.8787 325.547 41.5094 325.225 41.0217C324.908 40.534 324.749 39.9327 324.749 39.2177C324.749 38.6022 324.863 38.0932 325.09 37.6907C325.317 37.2883 325.627 36.9663 326.02 36.7248C326.413 36.4834 326.856 36.3011 327.349 36.178C327.846 36.0501 328.359 35.9578 328.89 35.901C329.529 35.8347 330.047 35.7755 330.445 35.7234C330.843 35.6666 331.132 35.5814 331.312 35.4677C331.496 35.3494 331.589 35.1671 331.589 34.9209V34.8782C331.589 34.3432 331.43 33.9289 331.113 33.6353C330.796 33.3418 330.339 33.195 329.742 33.195C329.112 33.195 328.613 33.3323 328.243 33.6069C327.879 33.8816 327.633 34.2059 327.505 34.5799L325.104 34.239C325.294 33.5762 325.606 33.0222 326.042 32.5771C326.477 32.1273 327.01 31.7911 327.64 31.5686C328.269 31.3413 328.965 31.2277 329.728 31.2277C330.253 31.2277 330.777 31.2892 331.297 31.4123C331.818 31.5354 332.294 31.739 332.725 32.0231C333.156 32.3025 333.501 32.6836 333.762 33.1666C334.027 33.6495 334.16 34.2532 334.16 34.9777V42.2788H331.688V40.7802H331.603C331.447 41.0833 331.226 41.3674 330.942 41.6325C330.663 41.8929 330.31 42.1036 329.884 42.2646C329.463 42.4209 328.968 42.499 328.4 42.499ZM329.067 40.6098C329.583 40.6098 330.031 40.508 330.41 40.3044C330.788 40.096 331.08 39.8214 331.283 39.4805C331.492 39.1396 331.596 38.7679 331.596 38.3655V37.0799C331.515 37.1462 331.378 37.2078 331.184 37.2646C330.994 37.3214 330.781 37.3711 330.545 37.4138C330.308 37.4564 330.073 37.4942 329.841 37.5274C329.609 37.5605 329.408 37.5889 329.238 37.6126C328.854 37.6647 328.511 37.7499 328.208 37.8683C327.905 37.9867 327.666 38.1524 327.491 38.3655C327.315 38.5738 327.228 38.8437 327.228 39.1751C327.228 39.6486 327.401 40.0061 327.746 40.2476C328.092 40.489 328.532 40.6098 329.067 40.6098ZM336.745 42.2788V31.3697H341.326C342.618 31.3697 343.639 31.6278 344.387 32.1439C345.14 32.66 345.516 33.3797 345.516 34.303C345.516 34.9138 345.303 35.4133 344.877 35.8015C344.456 36.1851 343.88 36.4431 343.151 36.5757C343.724 36.623 344.226 36.7674 344.657 37.0089C345.092 37.2504 345.433 37.5676 345.68 37.9606C345.926 38.3536 346.049 38.8058 346.049 39.3172C346.049 39.9185 345.89 40.4417 345.573 40.8868C345.26 41.3271 344.804 41.6704 344.202 41.9166C343.606 42.1581 342.881 42.2788 342.029 42.2788H336.745ZM339.153 40.2547H342.029C342.502 40.2547 342.874 40.1434 343.144 39.9209C343.414 39.6936 343.549 39.3858 343.549 38.9976C343.549 38.5477 343.414 38.195 343.144 37.9393C342.874 37.6789 342.502 37.5487 342.029 37.5487H339.153V40.2547ZM339.153 35.8868H341.376C341.726 35.8868 342.027 35.837 342.278 35.7376C342.528 35.6334 342.72 35.489 342.853 35.3044C342.985 35.115 343.052 34.8901 343.052 34.6297C343.052 34.2556 342.898 33.962 342.59 33.749C342.287 33.5359 341.866 33.4294 341.326 33.4294H339.153V35.8868ZM350.649 38.7987L355.017 31.3697H357.659V42.2788H355.173V34.8427L350.82 42.2788H348.171V31.3697L350.649 31.3697V38.7987ZM359.547 42.2788L359.532 40.1623H359.909C360.193 40.1623 360.432 40.0984 360.626 39.9706C360.82 39.8427 360.981 39.6297 361.109 39.3314C361.237 39.0283 361.336 38.6211 361.407 38.1098C361.479 37.5984 361.528 36.9616 361.557 36.1993L361.748 31.3697H369.703V42.2788H367.217V33.4791H364.085L363.915 36.9947C363.872 37.9038 363.77 38.6922 363.609 39.3598C363.453 40.0227 363.23 40.5695 362.942 41.0004C362.657 41.4313 362.3 41.7532 361.869 41.9663C361.438 42.1746 360.929 42.2788 360.342 42.2788L359.547 42.2788ZM377.05 42.4919C375.985 42.4919 375.062 42.2575 374.28 41.7888C373.499 41.32 372.893 40.6642 372.462 39.8214C372.036 38.9786 371.823 37.9938 371.823 36.8669C371.823 35.74 372.036 34.7528 372.462 33.9052C372.893 33.0577 373.499 32.3995 374.28 31.9308C375.062 31.462 375.985 31.2277 377.05 31.2277C378.116 31.2277 379.039 31.462 379.82 31.9308C380.601 32.3995 381.205 33.0577 381.631 33.9052C382.062 34.7528 382.278 35.74 382.278 36.8669C382.278 37.9938 382.062 38.9786 381.631 39.8214C381.205 40.6642 380.601 41.32 379.82 41.7888C379.039 42.2575 378.116 42.4919 377.05 42.4919ZM377.064 40.4322C377.642 40.4322 378.125 40.2736 378.513 39.9564C378.902 39.6344 379.19 39.2035 379.38 38.6638C379.574 38.124 379.671 37.5227 379.671 36.8598C379.671 36.1922 379.574 35.5885 379.38 35.0487C379.19 34.5042 378.902 34.0709 378.513 33.749C378.125 33.427 377.642 33.266 377.064 33.266C376.473 33.266 375.98 33.427 375.587 33.749C375.199 34.0709 374.908 34.5042 374.714 35.0487C374.524 35.5885 374.43 36.1922 374.43 36.8598C374.43 37.5227 374.524 38.124 374.714 38.6638C374.908 39.2035 375.199 39.6344 375.587 39.9564C375.98 40.2736 376.473 40.4322 377.064 40.4322ZM394.904 42.2788L397.29 27.7334H399.279L396.892 42.2788H394.904ZM388.348 38.5288L388.682 36.5402H399.875L399.541 38.5288H388.348ZM389.79 42.2788L392.176 27.7334H394.165L391.779 42.2788H389.79ZM389.193 33.472L389.52 31.4834H400.713L400.387 33.472H389.193ZM408.18 27.7334V42.2788H405.545V30.2973H405.459L402.057 32.4706V30.0558L405.672 27.7334L408.18 27.7334Z" fill="#F0563A"/>
<path d="M115.452 143V128.455H121.02C122.072 128.455 122.945 128.62 123.641 128.952C124.342 129.278 124.865 129.726 125.211 130.294C125.561 130.862 125.736 131.506 125.736 132.226C125.736 132.818 125.623 133.324 125.395 133.746C125.168 134.162 124.863 134.501 124.479 134.761C124.096 135.022 123.667 135.209 123.194 135.322V135.464C123.71 135.493 124.205 135.652 124.678 135.94C125.156 136.224 125.547 136.627 125.85 137.148C126.153 137.669 126.305 138.298 126.305 139.037C126.305 139.79 126.122 140.467 125.758 141.068C125.393 141.665 124.844 142.136 124.11 142.482C123.376 142.827 122.453 143 121.34 143H115.452ZM118.087 140.798H120.921C121.877 140.798 122.566 140.616 122.988 140.251C123.414 139.882 123.627 139.409 123.627 138.831C123.627 138.4 123.52 138.012 123.307 137.666C123.094 137.316 122.791 137.041 122.398 136.842C122.005 136.639 121.537 136.537 120.992 136.537H118.087V140.798ZM118.087 134.641H120.694C121.148 134.641 121.558 134.558 121.922 134.392C122.287 134.222 122.573 133.982 122.782 133.675C122.995 133.362 123.101 132.993 123.101 132.567C123.101 132.003 122.903 131.539 122.505 131.175C122.112 130.81 121.527 130.628 120.751 130.628H118.087V134.641ZM133.444 143V132.091H136.015V136.494H136.953L140.234 132.091H143.33L139.289 137.446L143.373 143H140.262L137.272 138.888H136.015V143H133.444ZM147.97 143.22C147.279 143.22 146.656 143.097 146.102 142.851C145.553 142.6 145.117 142.231 144.795 141.743C144.478 141.255 144.319 140.654 144.319 139.939C144.319 139.323 144.433 138.814 144.66 138.412C144.888 138.009 145.198 137.688 145.591 137.446C145.984 137.205 146.426 137.022 146.919 136.899C147.416 136.771 147.93 136.679 148.46 136.622C149.099 136.556 149.618 136.497 150.015 136.445C150.413 136.388 150.702 136.303 150.882 136.189C151.067 136.071 151.159 135.888 151.159 135.642V135.599C151.159 135.064 151 134.65 150.683 134.357C150.366 134.063 149.909 133.916 149.312 133.916C148.683 133.916 148.183 134.054 147.814 134.328C147.449 134.603 147.203 134.927 147.075 135.301L144.675 134.96C144.864 134.297 145.176 133.743 145.612 133.298C146.048 132.848 146.58 132.512 147.21 132.29C147.84 132.062 148.536 131.949 149.298 131.949C149.824 131.949 150.347 132.01 150.868 132.134C151.389 132.257 151.864 132.46 152.295 132.744C152.726 133.024 153.072 133.405 153.332 133.888C153.597 134.371 153.73 134.974 153.73 135.699V143H151.258V141.501H151.173C151.017 141.804 150.797 142.089 150.513 142.354C150.233 142.614 149.881 142.825 149.454 142.986C149.033 143.142 148.538 143.22 147.97 143.22ZM148.638 141.331C149.154 141.331 149.601 141.229 149.98 141.026C150.359 140.817 150.65 140.543 150.854 140.202C151.062 139.861 151.166 139.489 151.166 139.087V137.801C151.086 137.867 150.948 137.929 150.754 137.986C150.565 138.043 150.352 138.092 150.115 138.135C149.878 138.178 149.644 138.215 149.412 138.249C149.18 138.282 148.979 138.31 148.808 138.334C148.425 138.386 148.081 138.471 147.778 138.589C147.475 138.708 147.236 138.874 147.061 139.087C146.886 139.295 146.798 139.565 146.798 139.896C146.798 140.37 146.971 140.727 147.317 140.969C147.662 141.21 148.103 141.331 148.638 141.331ZM155.605 143L159.632 137.368L155.64 132.091H158.609L161.713 136.487H162.324V132.091H164.895V136.487H165.491L168.595 132.091H171.564L167.594 137.368L171.599 143H168.567L165.463 138.597H164.895V143H162.324V138.597H161.756L158.638 143H155.605ZM172.556 146.168V140.884H173.423C173.655 140.704 173.849 140.46 174.005 140.152C174.161 139.839 174.289 139.473 174.389 139.051C174.493 138.625 174.578 138.149 174.644 137.624C174.711 137.093 174.77 136.523 174.822 135.912L175.134 132.091H183.018V140.884H184.708V146.168H182.222V143H175.085V146.168H172.556ZM176.065 140.884H180.561V134.165H177.365L177.194 135.912C177.099 137.067 176.974 138.057 176.818 138.881C176.661 139.705 176.41 140.372 176.065 140.884ZM191.386 143.213C190.321 143.213 189.398 142.979 188.616 142.51C187.835 142.041 187.229 141.385 186.798 140.543C186.372 139.7 186.159 138.715 186.159 137.588C186.159 136.461 186.372 135.474 186.798 134.626C187.229 133.779 187.835 133.121 188.616 132.652C189.398 132.183 190.321 131.949 191.386 131.949C192.452 131.949 193.375 132.183 194.156 132.652C194.937 133.121 195.541 133.779 195.967 134.626C196.398 135.474 196.613 136.461 196.613 137.588C196.613 138.715 196.398 139.7 195.967 140.543C195.541 141.385 194.937 142.041 194.156 142.51C193.375 142.979 192.452 143.213 191.386 143.213ZM191.4 141.153C191.978 141.153 192.461 140.995 192.849 140.678C193.238 140.356 193.526 139.925 193.716 139.385C193.91 138.845 194.007 138.244 194.007 137.581C194.007 136.913 193.91 136.31 193.716 135.77C193.526 135.225 193.238 134.792 192.849 134.47C192.461 134.148 191.978 133.987 191.4 133.987C190.809 133.987 190.316 134.148 189.923 134.47C189.535 134.792 189.244 135.225 189.05 135.77C188.86 136.31 188.765 136.913 188.765 137.581C188.765 138.244 188.86 138.845 189.05 139.385C189.244 139.925 189.535 140.356 189.923 140.678C190.316 140.995 190.809 141.153 191.4 141.153ZM201.274 139.52L205.642 132.091H208.284V143H205.798V135.564L201.445 143H198.796V132.091H201.274V139.52ZM204.939 128.341L206.864 128.341C206.864 129.17 206.563 129.842 205.962 130.358C205.365 130.869 204.556 131.125 203.533 131.125C202.52 131.125 201.712 130.869 201.111 130.358C200.514 129.842 200.218 129.17 200.223 128.341H202.134C202.134 128.682 202.238 128.987 202.446 129.257C202.659 129.522 203.021 129.655 203.533 129.655C204.035 129.655 204.392 129.522 204.605 129.257C204.823 128.992 204.934 128.687 204.939 128.341ZM215.885 143V132.091H218.456V136.494H219.394L222.675 132.091H225.772L221.731 137.446L225.814 143H222.704L219.714 138.888H218.456V143H215.885ZM231.581 143.213C230.516 143.213 229.593 142.979 228.812 142.51C228.03 142.041 227.424 141.385 226.993 140.543C226.567 139.7 226.354 138.715 226.354 137.588C226.354 136.461 226.567 135.474 226.993 134.626C227.424 133.779 228.03 133.121 228.812 132.652C229.593 132.183 230.516 131.949 231.581 131.949C232.647 131.949 233.57 132.183 234.351 132.652C235.133 133.121 235.736 133.779 236.162 134.626C236.593 135.474 236.809 136.461 236.809 137.588C236.809 138.715 236.593 139.7 236.162 140.543C235.736 141.385 235.133 142.041 234.351 142.51C233.57 142.979 232.647 143.213 231.581 143.213ZM231.596 141.153C232.173 141.153 232.656 140.995 233.045 140.678C233.433 140.356 233.722 139.925 233.911 139.385C234.105 138.845 234.202 138.244 234.202 137.581C234.202 136.913 234.105 136.31 233.911 135.77C233.722 135.225 233.433 134.792 233.045 134.47C232.656 134.148 232.173 133.987 231.596 133.987C231.004 133.987 230.511 134.148 230.118 134.47C229.73 134.792 229.439 135.225 229.245 135.77C229.055 136.31 228.961 136.913 228.961 137.581C228.961 138.244 229.055 138.845 229.245 139.385C229.439 139.925 229.73 140.356 230.118 140.678C230.511 140.995 231.004 141.153 231.596 141.153ZM246.484 136.48V138.589H240.674V136.48H246.484ZM241.47 132.091V143H238.991V132.091H241.47ZM248.167 132.091V143H245.695V132.091H248.167ZM255.527 143.213C254.438 143.213 253.503 142.974 252.721 142.496C251.945 142.018 251.346 141.357 250.925 140.514C250.508 139.667 250.3 138.691 250.3 137.588C250.3 136.48 250.513 135.502 250.939 134.655C251.365 133.803 251.966 133.14 252.743 132.666C253.524 132.188 254.447 131.949 255.513 131.949C256.398 131.949 257.182 132.112 257.863 132.439C258.55 132.761 259.097 133.218 259.504 133.81C259.911 134.397 260.143 135.083 260.2 135.869H257.743C257.643 135.344 257.407 134.906 257.032 134.555C256.663 134.2 256.168 134.023 255.548 134.023C255.023 134.023 254.561 134.165 254.163 134.449C253.765 134.728 253.455 135.131 253.233 135.656C253.015 136.182 252.906 136.812 252.906 137.545C252.906 138.289 253.015 138.928 253.233 139.463C253.451 139.993 253.756 140.403 254.149 140.692C254.547 140.976 255.013 141.118 255.548 141.118C255.927 141.118 256.265 141.047 256.564 140.905C256.867 140.758 257.12 140.547 257.324 140.273C257.527 139.998 257.667 139.664 257.743 139.271H260.2C260.139 140.043 259.911 140.727 259.518 141.324C259.125 141.916 258.59 142.38 257.913 142.716C257.236 143.047 256.441 143.213 255.527 143.213ZM267.141 143.213C266.047 143.213 265.102 142.986 264.307 142.531C263.516 142.072 262.908 141.423 262.482 140.585C262.056 139.742 261.843 138.75 261.843 137.609C261.843 136.487 262.056 135.502 262.482 134.655C262.913 133.803 263.514 133.14 264.286 132.666C265.057 132.188 265.964 131.949 267.006 131.949C267.678 131.949 268.313 132.058 268.909 132.276C269.511 132.489 270.041 132.82 270.5 133.27C270.964 133.72 271.329 134.293 271.594 134.989C271.859 135.68 271.992 136.504 271.992 137.46V138.249H263.05V136.516H269.527C269.522 136.023 269.416 135.585 269.208 135.202C268.999 134.813 268.708 134.508 268.334 134.286C267.965 134.063 267.534 133.952 267.041 133.952C266.516 133.952 266.054 134.08 265.656 134.335C265.259 134.586 264.949 134.918 264.726 135.33C264.508 135.737 264.397 136.184 264.392 136.672V138.185C264.392 138.819 264.508 139.364 264.74 139.818C264.972 140.268 265.297 140.614 265.713 140.855C266.13 141.092 266.618 141.21 267.176 141.21C267.55 141.21 267.889 141.158 268.192 141.054C268.495 140.945 268.758 140.786 268.98 140.578C269.203 140.37 269.371 140.112 269.485 139.804L271.885 140.074C271.734 140.708 271.445 141.262 271.019 141.736C270.597 142.205 270.057 142.569 269.399 142.83C268.741 143.085 267.988 143.213 267.141 143.213ZM274.167 147.091V132.091H276.695V133.895H276.844C276.977 133.63 277.164 133.348 277.405 133.05C277.647 132.747 277.974 132.489 278.385 132.276C278.797 132.058 279.323 131.949 279.962 131.949C280.805 131.949 281.565 132.164 282.242 132.595C282.924 133.021 283.464 133.653 283.861 134.491C284.264 135.325 284.465 136.348 284.465 137.56C284.465 138.758 284.269 139.776 283.876 140.614C283.483 141.452 282.948 142.091 282.27 142.531C281.593 142.972 280.826 143.192 279.969 143.192C279.344 143.192 278.826 143.088 278.414 142.879C278.002 142.671 277.671 142.42 277.42 142.126C277.173 141.828 276.982 141.546 276.844 141.281H276.738V147.091H274.167ZM276.688 137.545C276.688 138.251 276.787 138.869 276.986 139.399C277.19 139.929 277.481 140.344 277.86 140.642C278.243 140.936 278.707 141.082 279.252 141.082C279.82 141.082 280.296 140.931 280.68 140.628C281.063 140.32 281.352 139.901 281.546 139.371C281.745 138.836 281.844 138.227 281.844 137.545C281.844 136.868 281.747 136.267 281.553 135.741C281.359 135.216 281.07 134.804 280.687 134.506C280.303 134.207 279.825 134.058 279.252 134.058C278.703 134.058 278.236 134.203 277.853 134.491C277.469 134.78 277.178 135.185 276.979 135.706C276.785 136.227 276.688 136.84 276.688 137.545ZM286.667 143V132.091H291.248C292.54 132.091 293.561 132.349 294.309 132.865C295.062 133.381 295.438 134.101 295.438 135.024C295.438 135.635 295.225 136.134 294.799 136.523C294.377 136.906 293.802 137.164 293.073 137.297C293.646 137.344 294.148 137.489 294.579 137.73C295.014 137.972 295.355 138.289 295.601 138.682C295.848 139.075 295.971 139.527 295.971 140.038C295.971 140.64 295.812 141.163 295.495 141.608C295.182 142.048 294.725 142.392 294.124 142.638C293.528 142.879 292.803 143 291.951 143H286.667ZM289.074 140.976H291.951C292.424 140.976 292.796 140.865 293.066 140.642C293.336 140.415 293.471 140.107 293.471 139.719C293.471 139.269 293.336 138.916 293.066 138.661C292.796 138.4 292.424 138.27 291.951 138.27H289.074V140.976ZM289.074 136.608H291.297C291.648 136.608 291.948 136.558 292.199 136.459C292.45 136.355 292.642 136.21 292.775 136.026C292.907 135.836 292.974 135.611 292.974 135.351C292.974 134.977 292.82 134.683 292.512 134.47C292.209 134.257 291.787 134.151 291.248 134.151H289.074V136.608ZM302.922 143.213C301.828 143.213 300.884 142.986 300.088 142.531C299.298 142.072 298.689 141.423 298.263 140.585C297.837 139.742 297.624 138.75 297.624 137.609C297.624 136.487 297.837 135.502 298.263 134.655C298.694 133.803 299.295 133.14 300.067 132.666C300.839 132.188 301.745 131.949 302.787 131.949C303.459 131.949 304.094 132.058 304.691 132.276C305.292 132.489 305.822 132.82 306.281 133.27C306.745 133.72 307.11 134.293 307.375 134.989C307.64 135.68 307.773 136.504 307.773 137.46V138.249H298.831V136.516H305.308C305.304 136.023 305.197 135.585 304.989 135.202C304.78 134.813 304.489 134.508 304.115 134.286C303.746 134.063 303.315 133.952 302.823 133.952C302.297 133.952 301.835 134.08 301.438 134.335C301.04 134.586 300.73 134.918 300.507 135.33C300.289 135.737 300.178 136.184 300.173 136.672V138.185C300.173 138.819 300.289 139.364 300.521 139.818C300.753 140.268 301.078 140.614 301.494 140.855C301.911 141.092 302.399 141.21 302.958 141.21C303.332 141.21 303.67 141.158 303.973 141.054C304.276 140.945 304.539 140.786 304.762 140.578C304.984 140.37 305.152 140.112 305.266 139.804L307.666 140.074C307.515 140.708 307.226 141.262 306.8 141.736C306.378 142.205 305.839 142.569 305.181 142.83C304.522 143.085 303.77 143.213 302.922 143.213ZM314.312 134.2V132.091H323.858V134.2H320.328V143H317.842V134.2H314.312ZM330.214 143.213C329.149 143.213 328.226 142.979 327.444 142.51C326.663 142.041 326.057 141.385 325.626 140.543C325.2 139.7 324.987 138.715 324.987 137.588C324.987 136.461 325.2 135.474 325.626 134.626C326.057 133.779 326.663 133.121 327.444 132.652C328.226 132.183 329.149 131.949 330.214 131.949C331.28 131.949 332.203 132.183 332.984 132.652C333.765 133.121 334.369 133.779 334.795 134.626C335.226 135.474 335.442 136.461 335.442 137.588C335.442 138.715 335.226 139.7 334.795 140.543C334.369 141.385 333.765 142.041 332.984 142.51C332.203 142.979 331.28 143.213 330.214 143.213ZM330.229 141.153C330.806 141.153 331.289 140.995 331.677 140.678C332.066 140.356 332.354 139.925 332.544 139.385C332.738 138.845 332.835 138.244 332.835 137.581C332.835 136.913 332.738 136.31 332.544 135.77C332.354 135.225 332.066 134.792 331.677 134.47C331.289 134.148 330.806 133.987 330.229 133.987C329.637 133.987 329.144 134.148 328.751 134.47C328.363 134.792 328.072 135.225 327.878 135.77C327.688 136.31 327.594 136.913 327.594 137.581C327.594 138.244 327.688 138.845 327.878 139.385C328.072 139.925 328.363 140.356 328.751 140.678C329.144 140.995 329.637 141.153 330.229 141.153ZM336.871 143L336.857 140.884H337.233C337.517 140.884 337.756 140.82 337.95 140.692C338.145 140.564 338.306 140.351 338.433 140.053C338.561 139.75 338.661 139.342 338.732 138.831C338.803 138.32 338.852 137.683 338.881 136.92L339.073 132.091H347.027V143H344.541V134.2H341.409L341.239 137.716C341.196 138.625 341.094 139.413 340.933 140.081C340.777 140.744 340.555 141.291 340.266 141.722C339.982 142.152 339.624 142.474 339.193 142.687C338.762 142.896 338.253 143 337.666 143H336.871ZM351.356 135.642H354.573C355.965 135.642 357.043 135.981 357.805 136.658C358.567 137.335 358.951 138.223 358.955 139.321C358.951 140.036 358.776 140.67 358.43 141.224C358.089 141.778 357.592 142.214 356.938 142.531C356.29 142.844 355.501 143 354.573 143H349.616V132.091H352.095V140.891H354.573C355.132 140.891 355.591 140.749 355.951 140.464C356.311 140.176 356.491 139.806 356.491 139.357C356.491 138.883 356.311 138.497 355.951 138.199C355.591 137.901 355.132 137.751 354.573 137.751H351.356V135.642ZM361.159 143V132.091H363.73V136.494H364.667L367.949 132.091H371.045L367.004 137.446L371.088 143H367.977L364.987 138.888H363.73V143H361.159ZM376.855 143.213C375.79 143.213 374.866 142.979 374.085 142.51C373.304 142.041 372.698 141.385 372.267 140.543C371.841 139.7 371.628 138.715 371.628 137.588C371.628 136.461 371.841 135.474 372.267 134.626C372.698 133.779 373.304 133.121 374.085 132.652C374.866 132.183 375.79 131.949 376.855 131.949C377.92 131.949 378.844 132.183 379.625 132.652C380.406 133.121 381.01 133.779 381.436 134.626C381.867 135.474 382.082 136.461 382.082 137.588C382.082 138.715 381.867 139.7 381.436 140.543C381.01 141.385 380.406 142.041 379.625 142.51C378.844 142.979 377.92 143.213 376.855 143.213ZM376.869 141.153C377.447 141.153 377.93 140.995 378.318 140.678C378.706 140.356 378.995 139.925 379.184 139.385C379.379 138.845 379.476 138.244 379.476 137.581C379.476 136.913 379.379 136.31 379.184 135.77C378.995 135.225 378.706 134.792 378.318 134.47C377.93 134.148 377.447 133.987 376.869 133.987C376.277 133.987 375.785 134.148 375.392 134.47C375.004 134.792 374.712 135.225 374.518 135.77C374.329 136.31 374.234 136.913 374.234 137.581C374.234 138.244 374.329 138.845 374.518 139.385C374.712 139.925 375.004 140.356 375.392 140.678C375.785 140.995 376.277 141.153 376.869 141.153ZM395.504 140.01L398.742 132.091H400.816L396.406 143H394.609L390.298 132.091H392.35L395.504 140.01ZM391.704 132.091V143H389.225V132.091H391.704ZM399.41 143V132.091H401.867V143H399.41ZM410.909 143V134.179H408.579C407.987 134.179 407.533 134.316 407.215 134.591C406.898 134.866 406.742 135.206 406.747 135.614C406.742 136.021 406.891 136.357 407.194 136.622C407.497 136.887 407.93 137.02 408.494 137.02H411.718V138.895H408.494C407.623 138.895 406.87 138.758 406.235 138.483C405.601 138.208 405.113 137.82 404.772 137.318C404.431 136.816 404.261 136.229 404.261 135.557C404.261 134.856 404.434 134.248 404.779 133.732C405.13 133.211 405.627 132.808 406.271 132.524C406.919 132.235 407.689 132.091 408.579 132.091H413.316V143H410.909ZM403.863 143L406.91 137.403H409.445L406.392 143H403.863ZM420.664 143.213C419.575 143.213 418.639 142.974 417.858 142.496C417.082 142.018 416.483 141.357 416.061 140.514C415.645 139.667 415.436 138.691 415.436 137.588C415.436 136.48 415.649 135.502 416.075 134.655C416.502 133.803 417.103 133.14 417.879 132.666C418.661 132.188 419.584 131.949 420.649 131.949C421.535 131.949 422.318 132.112 423 132.439C423.687 132.761 424.234 133.218 424.641 133.81C425.048 134.397 425.28 135.083 425.337 135.869H422.879C422.78 135.344 422.543 134.906 422.169 134.555C421.8 134.2 421.305 134.023 420.685 134.023C420.159 134.023 419.698 134.165 419.3 134.449C418.902 134.728 418.592 135.131 418.369 135.656C418.152 136.182 418.043 136.812 418.043 137.545C418.043 138.289 418.152 138.928 418.369 139.463C418.587 139.993 418.893 140.403 419.286 140.692C419.683 140.976 420.15 141.118 420.685 141.118C421.064 141.118 421.402 141.047 421.7 140.905C422.003 140.758 422.257 140.547 422.46 140.273C422.664 139.998 422.804 139.664 422.879 139.271H425.337C425.275 140.043 425.048 140.727 424.655 141.324C424.262 141.916 423.727 142.38 423.05 142.716C422.373 143.047 421.577 143.213 420.664 143.213ZM432.206 143.213C431.141 143.213 430.218 142.979 429.437 142.51C428.655 142.041 428.049 141.385 427.618 140.543C427.192 139.7 426.979 138.715 426.979 137.588C426.979 136.461 427.192 135.474 427.618 134.626C428.049 133.779 428.655 133.121 429.437 132.652C430.218 132.183 431.141 131.949 432.206 131.949C433.272 131.949 434.195 132.183 434.976 132.652C435.758 133.121 436.361 133.779 436.787 134.626C437.218 135.474 437.434 136.461 437.434 137.588C437.434 138.715 437.218 139.7 436.787 140.543C436.361 141.385 435.758 142.041 434.976 142.51C434.195 142.979 433.272 143.213 432.206 143.213ZM432.221 141.153C432.798 141.153 433.281 140.995 433.67 140.678C434.058 140.356 434.347 139.925 434.536 139.385C434.73 138.845 434.827 138.244 434.827 137.581C434.827 136.913 434.73 136.31 434.536 135.77C434.347 135.225 434.058 134.792 433.67 134.47C433.281 134.148 432.798 133.987 432.221 133.987C431.629 133.987 431.136 134.148 430.743 134.47C430.355 134.792 430.064 135.225 429.87 135.77C429.68 136.31 429.586 136.913 429.586 137.581C429.586 138.244 429.68 138.845 429.87 139.385C430.064 139.925 430.355 140.356 430.743 140.678C431.136 140.995 431.629 141.153 432.221 141.153ZM442.634 141.011L442.542 141.793C442.476 142.389 442.357 142.995 442.187 143.611C442.021 144.231 441.846 144.802 441.661 145.322C441.477 145.843 441.328 146.253 441.214 146.551H439.481C439.547 146.262 439.637 145.869 439.751 145.372C439.869 144.875 439.983 144.316 440.092 143.696C440.201 143.076 440.274 142.446 440.312 141.807L440.362 141.011H442.634ZM450.026 147.091V132.091H452.555V133.895H452.704C452.836 133.63 453.023 133.348 453.265 133.05C453.506 132.747 453.833 132.489 454.245 132.276C454.657 132.058 455.182 131.949 455.822 131.949C456.664 131.949 457.424 132.164 458.101 132.595C458.783 133.021 459.323 133.653 459.721 134.491C460.123 135.325 460.324 136.348 460.324 137.56C460.324 138.758 460.128 139.776 459.735 140.614C459.342 141.452 458.807 142.091 458.13 142.531C457.453 142.972 456.686 143.192 455.829 143.192C455.204 143.192 454.685 143.088 454.273 142.879C453.861 142.671 453.53 142.42 453.279 142.126C453.033 141.828 452.841 141.546 452.704 141.281H452.597V147.091H450.026ZM452.547 137.545C452.547 138.251 452.647 138.869 452.846 139.399C453.049 139.929 453.34 140.344 453.719 140.642C454.103 140.936 454.567 141.082 455.111 141.082C455.68 141.082 456.155 140.931 456.539 140.628C456.922 140.32 457.211 139.901 457.405 139.371C457.604 138.836 457.704 138.227 457.704 137.545C457.704 136.868 457.607 136.267 457.412 135.741C457.218 135.216 456.93 134.804 456.546 134.506C456.162 134.207 455.684 134.058 455.111 134.058C454.562 134.058 454.096 134.203 453.712 134.491C453.329 134.78 453.037 135.185 452.839 135.706C452.644 136.227 452.547 136.84 452.547 137.545ZM464.266 135.642H467.483C468.876 135.642 469.953 135.981 470.715 136.658C471.477 137.335 471.861 138.223 471.866 139.321C471.861 140.036 471.686 140.67 471.34 141.224C470.999 141.778 470.502 142.214 469.849 142.531C469.2 142.844 468.412 143 467.483 143H462.526V132.091H465.005V140.891H467.483C468.042 140.891 468.501 140.749 468.861 140.464C469.221 140.176 469.401 139.806 469.401 139.357C469.401 138.883 469.221 138.497 468.861 138.199C468.501 137.901 468.042 137.751 467.483 137.751H464.266V135.642ZM473.222 143V132.091H475.793V143H473.222ZM487.187 128.057L488.082 129.719C487.765 129.993 487.41 130.192 487.017 130.315C486.624 130.438 486.162 130.519 485.632 130.557C485.106 130.59 484.481 130.614 483.757 130.628C482.942 130.647 482.277 130.801 481.761 131.089C481.245 131.378 480.849 131.816 480.575 132.403C480.3 132.986 480.12 133.729 480.035 134.634H480.156C480.497 133.966 480.975 133.457 481.59 133.107C482.206 132.756 482.928 132.581 483.757 132.581C484.661 132.581 485.459 132.785 486.15 133.192C486.846 133.594 487.388 134.179 487.776 134.946C488.169 135.713 488.366 136.641 488.366 137.73C488.366 138.852 488.155 139.825 487.734 140.649C487.312 141.468 486.713 142.1 485.937 142.545C485.165 142.991 484.249 143.213 483.188 143.213C482.133 143.213 481.214 142.983 480.433 142.524C479.656 142.06 479.055 141.376 478.629 140.472C478.207 139.562 477.997 138.443 477.997 137.112V136.132C477.997 133.566 478.475 131.651 479.431 130.386C480.388 129.122 481.806 128.478 483.686 128.455C484.244 128.445 484.744 128.443 485.184 128.447C485.629 128.452 486.017 128.431 486.349 128.384C486.68 128.336 486.96 128.227 487.187 128.057ZM483.203 141.153C483.728 141.153 484.183 141.018 484.566 140.749C484.95 140.474 485.243 140.086 485.447 139.584C485.655 139.082 485.759 138.488 485.759 137.801C485.759 137.124 485.655 136.549 485.447 136.075C485.239 135.597 484.943 135.232 484.559 134.982C484.176 134.731 483.719 134.605 483.188 134.605C482.791 134.605 482.433 134.676 482.116 134.818C481.799 134.96 481.529 135.169 481.306 135.443C481.084 135.718 480.913 136.052 480.795 136.445C480.677 136.838 480.613 137.29 480.603 137.801C480.603 138.829 480.835 139.645 481.299 140.251C481.763 140.853 482.398 141.153 483.203 141.153ZM493.693 143.22C493.001 143.22 492.379 143.097 491.825 142.851C491.276 142.6 490.84 142.231 490.518 141.743C490.201 141.255 490.042 140.654 490.042 139.939C490.042 139.323 490.156 138.814 490.383 138.412C490.61 138.009 490.92 137.687 491.313 137.446C491.706 137.205 492.149 137.022 492.642 136.899C493.139 136.771 493.652 136.679 494.183 136.622C494.822 136.556 495.34 136.497 495.738 136.445C496.136 136.388 496.425 136.303 496.605 136.189C496.789 136.071 496.882 135.888 496.882 135.642V135.599C496.882 135.064 496.723 134.65 496.406 134.357C496.088 134.063 495.632 133.916 495.035 133.916C494.405 133.916 493.906 134.054 493.536 134.328C493.172 134.603 492.926 134.927 492.798 135.301L490.397 134.96C490.587 134.297 490.899 133.743 491.335 133.298C491.77 132.848 492.303 132.512 492.933 132.29C493.562 132.062 494.258 131.949 495.021 131.949C495.546 131.949 496.07 132.01 496.59 132.134C497.111 132.257 497.587 132.46 498.018 132.744C498.449 133.024 498.794 133.405 499.055 133.888C499.32 134.371 499.453 134.974 499.453 135.699V143H496.981V141.501H496.896C496.74 141.804 496.519 142.089 496.235 142.354C495.956 142.614 495.603 142.825 495.177 142.986C494.756 143.142 494.261 143.22 493.693 143.22ZM494.36 141.331C494.876 141.331 495.324 141.229 495.703 141.026C496.081 140.817 496.373 140.543 496.576 140.202C496.785 139.861 496.889 139.489 496.889 139.087V137.801C496.808 137.867 496.671 137.929 496.477 137.986C496.287 138.043 496.074 138.092 495.838 138.135C495.601 138.178 495.366 138.215 495.134 138.249C494.902 138.282 494.701 138.31 494.531 138.334C494.147 138.386 493.804 138.471 493.501 138.589C493.198 138.708 492.959 138.874 492.784 139.087C492.608 139.295 492.521 139.565 492.521 139.896C492.521 140.37 492.694 140.727 493.039 140.969C493.385 141.21 493.825 141.331 494.36 141.331ZM509.477 139.52L513.845 132.091H516.487V143H514.002V135.564L509.648 143H506.999V132.091H509.477V139.52ZM532.831 128.057L533.726 129.719C533.409 129.993 533.054 130.192 532.661 130.315C532.268 130.438 531.806 130.519 531.276 130.557C530.751 130.59 530.126 130.614 529.401 130.628C528.587 130.647 527.921 130.801 527.405 131.089C526.889 131.378 526.494 131.816 526.219 132.403C525.945 132.986 525.765 133.729 525.68 134.634H525.8C526.141 133.966 526.619 133.457 527.235 133.107C527.85 132.756 528.573 132.581 529.401 132.581C530.305 132.581 531.103 132.785 531.795 133.192C532.491 133.594 533.033 134.179 533.421 134.946C533.814 135.713 534.01 136.641 534.01 137.73C534.01 138.852 533.8 139.825 533.378 140.649C532.957 141.468 532.358 142.1 531.581 142.545C530.81 142.991 529.894 143.213 528.833 143.213C527.777 143.213 526.858 142.983 526.077 142.524C525.301 142.06 524.699 141.376 524.273 140.472C523.852 139.562 523.641 138.443 523.641 137.112V136.132C523.641 133.566 524.119 131.651 525.076 130.386C526.032 129.122 527.45 128.478 529.33 128.455C529.889 128.445 530.388 128.443 530.829 128.447C531.274 128.452 531.662 128.431 531.993 128.384C532.325 128.336 532.604 128.227 532.831 128.057ZM528.847 141.153C529.373 141.153 529.827 141.018 530.211 140.749C530.594 140.474 530.888 140.086 531.091 139.584C531.3 139.082 531.404 138.488 531.404 137.801C531.404 137.124 531.3 136.549 531.091 136.075C530.883 135.597 530.587 135.232 530.204 134.982C529.82 134.731 529.363 134.605 528.833 134.605C528.435 134.605 528.078 134.676 527.76 134.818C527.443 134.96 527.173 135.169 526.951 135.443C526.728 135.718 526.558 136.052 526.439 136.445C526.321 136.838 526.257 137.29 526.248 137.801C526.248 138.829 526.48 139.645 526.944 140.251C527.408 140.853 528.042 141.153 528.847 141.153ZM537.796 147.091C537.446 147.091 537.121 147.063 536.823 147.006C536.529 146.954 536.295 146.892 536.12 146.821L536.716 144.818C537.09 144.927 537.424 144.979 537.718 144.974C538.011 144.97 538.269 144.877 538.492 144.697C538.719 144.522 538.911 144.229 539.067 143.817L539.287 143.227L535.331 132.091H538.059L540.573 140.33H540.687L543.208 132.091H545.942L541.574 144.321C541.371 144.899 541.101 145.393 540.765 145.805C540.429 146.222 540.017 146.539 539.529 146.757C539.046 146.98 538.468 147.091 537.796 147.091ZM546.07 143L546.056 140.884H546.432C546.716 140.884 546.956 140.82 547.15 140.692C547.344 140.564 547.505 140.351 547.633 140.053C547.76 139.75 547.86 139.342 547.931 138.831C548.002 138.32 548.052 137.683 548.08 136.92L548.272 132.091H556.226V143H553.741V134.2H550.608L550.438 137.716C550.395 138.625 550.294 139.413 550.133 140.081C549.976 140.744 549.754 141.291 549.465 141.722C549.181 142.152 548.823 142.474 548.393 142.687C547.962 142.896 547.453 143 546.866 143H546.07ZM560.555 135.642H563.773C565.165 135.642 566.242 135.981 567.004 136.658C567.766 137.335 568.15 138.223 568.155 139.321C568.15 140.036 567.975 140.67 567.629 141.224C567.288 141.778 566.791 142.214 566.138 142.531C565.489 142.844 564.701 143 563.773 143H558.815V132.091H561.294V140.891H563.773C564.331 140.891 564.791 140.749 565.15 140.464C565.51 140.176 565.69 139.806 565.69 139.357C565.69 138.883 565.51 138.497 565.15 138.199C564.791 137.901 564.331 137.751 563.773 137.751H560.555V135.642ZM575.117 143.213C574.051 143.213 573.128 142.979 572.347 142.51C571.566 142.041 570.959 141.385 570.529 140.543C570.102 139.7 569.889 138.715 569.889 137.588C569.889 136.461 570.102 135.474 570.529 134.626C570.959 133.779 571.566 133.121 572.347 132.652C573.128 132.183 574.051 131.949 575.117 131.949C576.182 131.949 577.105 132.183 577.887 132.652C578.668 133.121 579.271 133.779 579.698 134.626C580.128 135.474 580.344 136.461 580.344 137.588C580.344 138.715 580.128 139.7 579.698 140.543C579.271 141.385 578.668 142.041 577.887 142.51C577.105 142.979 576.182 143.213 575.117 143.213ZM575.131 141.153C575.709 141.153 576.191 140.995 576.58 140.678C576.968 140.356 577.257 139.925 577.446 139.385C577.64 138.845 577.737 138.244 577.737 137.581C577.737 136.913 577.64 136.31 577.446 135.77C577.257 135.225 576.968 134.792 576.58 134.47C576.191 134.148 575.709 133.987 575.131 133.987C574.539 133.987 574.047 134.148 573.654 134.47C573.265 134.792 572.974 135.225 572.78 135.77C572.591 136.31 572.496 136.913 572.496 137.581C572.496 138.244 572.591 138.845 572.78 139.385C572.974 139.925 573.265 140.356 573.654 140.678C574.047 140.995 574.539 141.153 575.131 141.153ZM590.019 136.48V138.589H584.209V136.48H590.019ZM585.005 132.091V143H582.526V132.091H585.005ZM591.702 132.091V143H589.231V132.091H591.702Z" fill="#F0563A"/>
<circle cx="926.5" cy="264.5" r="3" fill="white" stroke="white" stroke-width="3"/>
<circle cx="824" cy="224" r="6.5" fill="white" stroke="white" stroke-width="3"/>
<circle cx="874.5" cy="254.5" r="4" fill="white" stroke="white" stroke-width="3"/>
</svg>
