<svg width="284" height="123" viewBox="0 0 284 123" fill="none" xmlns="http://www.w3.org/2000/svg">
<path d="M62.9493 6.21438C34.0655 2.78227 8.35742 19.2975 5.52885 43.1021C2.70028 66.9067 23.8223 88.9865 52.7062 92.4186L202.195 113.465C213.436 114.8 224.196 113.115 233.313 109.154C243.12 115.445 256.553 121.057 272.953 121.872C255.725 119.825 257.807 91.7894 259.616 76.577C262.444 52.7723 241.322 30.6926 212.438 27.2605L62.9493 6.21438Z" fill="white"/>
<path d="M77.6311 39.2253L76.0627 38.9951C76.0362 38.5304 75.932 38.1102 75.7503 37.7347C75.5727 37.3598 75.3365 37.0322 75.0417 36.7521C74.7517 36.4683 74.4172 36.2383 74.0382 36.0621C73.6592 35.8859 73.2547 35.7662 72.8246 35.7031C72.0404 35.588 71.3009 35.6819 70.6061 35.9848C69.9155 36.2883 69.326 36.7983 68.8375 37.5148C68.3532 38.2319 68.0288 39.1512 67.8642 40.2727C67.6996 41.3942 67.7462 42.368 68.004 43.194C68.266 44.0206 68.6841 44.6785 69.2583 45.1677C69.8368 45.6574 70.5182 45.9598 71.3024 46.0749C71.7324 46.1381 72.1543 46.1397 72.5679 46.0798C72.9816 46.0199 73.3677 45.8978 73.7264 45.7136C74.0899 45.5258 74.4106 45.2778 74.6884 44.9697C74.971 44.658 75.1915 44.2855 75.3499 43.8522L76.9183 44.0824C76.7031 44.727 76.4011 45.2878 76.0124 45.7648C75.6237 46.2419 75.1705 46.6297 74.6529 46.9285C74.1359 47.223 73.5746 47.4227 72.9692 47.5277C72.3679 47.6333 71.7406 47.6381 71.087 47.5422C69.9824 47.3801 69.0396 46.966 68.2587 46.3001C67.4778 45.6342 66.9138 44.7676 66.5665 43.7001C66.2192 42.6327 66.1459 41.416 66.3463 40.0499C66.5468 38.6839 66.9667 37.5396 67.6061 36.6169C68.2454 35.6943 69.0347 35.0263 69.974 34.6128C70.9133 34.1994 71.9353 34.0737 73.04 34.2359C73.6935 34.3318 74.293 34.5167 74.8386 34.7906C75.3883 35.0651 75.8682 35.4198 76.2781 35.8546C76.6887 36.2853 77.0116 36.7849 77.2469 37.3535C77.4828 37.9179 77.6109 38.5418 77.6311 39.2253ZM81.4815 49.1194C80.8659 49.0291 80.3243 48.8311 79.8566 48.5256C79.3895 48.2159 79.0409 47.818 78.8108 47.332C78.5812 46.8417 78.5129 46.2804 78.6057 45.648C78.6874 45.0914 78.8632 44.6564 79.1332 44.3428C79.4038 44.0251 79.737 43.794 80.1329 43.6497C80.5288 43.5054 80.9552 43.4172 81.4122 43.3852C81.8739 43.3496 82.3347 43.3354 82.7945 43.3426C83.3959 43.3533 83.8828 43.3667 84.2552 43.3825C84.6324 43.3948 84.9124 43.3649 85.0953 43.2927C85.2824 43.2211 85.3936 43.0651 85.4289 42.8248L85.4363 42.7742C85.5279 42.1502 85.4283 41.6403 85.1375 41.2444C84.851 40.8492 84.3641 40.6011 83.6768 40.5003C82.9643 40.3957 82.3827 40.4697 81.9322 40.7223C81.4816 40.9749 81.1482 41.2662 80.9318 41.5962L79.5894 40.8824C79.929 40.3292 80.3337 39.9192 80.8036 39.6522C81.2783 39.3816 81.7761 39.2178 82.2971 39.1607C82.8228 39.1 83.3302 39.1056 83.8193 39.1774C84.1313 39.2232 84.4841 39.3137 84.8777 39.449C85.2762 39.5807 85.6484 39.7882 85.9945 40.0716C86.3447 40.3556 86.6126 40.7459 86.7981 41.2426C86.9837 41.7393 87.0198 42.3734 86.9066 43.145L85.9672 49.5452L84.4747 49.3261L84.6677 48.0107L84.5919 47.9996C84.4597 48.1955 84.258 48.3963 83.9866 48.602C83.7152 48.8077 83.3711 48.9661 82.9542 49.0772C82.5374 49.1883 82.0465 49.2023 81.4815 49.1194ZM81.906 47.8121C82.4962 47.8987 83.0107 47.8558 83.4495 47.6833C83.8925 47.5114 84.2443 47.2573 84.5047 46.9208C84.7693 46.5849 84.9314 46.2146 84.9908 45.8098L85.1913 44.4438C85.1169 44.5104 84.9675 44.5595 84.7432 44.5912C84.5237 44.6193 84.2715 44.6361 83.9864 44.6417C83.7062 44.6436 83.4329 44.6423 83.1665 44.6376C82.905 44.6294 82.6926 44.6241 82.5293 44.6216C82.1339 44.6153 81.7593 44.6443 81.4053 44.7086C81.0561 44.7694 80.7618 44.8963 80.5224 45.0894C80.2879 45.279 80.1428 45.5635 80.0871 45.9429C80.011 46.4615 80.1452 46.8818 80.4899 47.2037C80.8395 47.522 81.3115 47.7248 81.906 47.8121ZM88.0843 49.8559L92.7546 45.5022L89.5606 40.1492L91.3314 40.4091L93.9605 45.0331L94.77 45.1519L95.3789 41.0032L96.8715 41.2222L96.2626 45.371L97.0468 45.486L100.894 41.8125L102.665 42.0724L98.0923 46.2856L101.289 51.794L99.4933 51.5304L96.8173 46.8737L96.0584 46.7623L95.4458 50.9363L93.9532 50.7173L94.5658 46.5432L93.8069 46.4319L89.8804 50.1195L88.0843 49.8559ZM103.849 55.8909C103.596 55.8538 103.373 55.7996 103.182 55.7283C102.989 55.6613 102.857 55.6033 102.787 55.5542L103.36 54.2944C103.709 54.4404 104.024 54.5211 104.306 54.5367C104.588 54.5522 104.853 54.464 105.101 54.2721C105.352 54.0851 105.605 53.7582 105.858 53.2915L106.248 52.5734L104.089 42.2815L105.708 42.5191L107.253 50.6536L107.355 50.6685L111.172 43.3211L112.791 43.5587L107.034 54.0843C106.775 54.5588 106.484 54.9404 106.162 55.229C105.839 55.5219 105.485 55.7218 105.098 55.8288C104.717 55.9364 104.3 55.9571 103.849 55.8909ZM116.904 54.2925C115.994 54.1588 115.241 53.8287 114.646 53.3021C114.052 52.7755 113.633 52.1089 113.389 51.3022C113.146 50.4955 113.096 49.6073 113.238 48.6376C113.383 47.651 113.692 46.807 114.165 46.1055C114.643 45.4004 115.24 44.8829 115.956 44.553C116.677 44.2195 117.476 44.1171 118.353 44.2458C119.036 44.346 119.633 44.5629 120.144 44.8963C120.655 45.2297 121.052 45.6498 121.335 46.1565C121.618 46.6632 121.758 47.2263 121.753 47.8458L120.26 47.6267C120.211 47.1673 120.016 46.7381 119.674 46.339C119.337 45.9364 118.839 45.6868 118.182 45.5903C117.6 45.5049 117.067 45.5818 116.584 45.821C116.106 46.0566 115.705 46.4305 115.38 46.9427C115.059 47.4513 114.845 48.0725 114.738 48.8061C114.628 49.5566 114.65 50.2274 114.804 50.8186C114.963 51.4104 115.237 51.8921 115.626 52.2636C116.019 52.6357 116.511 52.8651 117.101 52.9517C117.489 53.0087 117.851 52.9929 118.187 52.9044C118.523 52.8159 118.819 52.6612 119.076 52.4404C119.332 52.2196 119.533 51.9389 119.677 51.5984L121.17 51.8175C121.001 52.3785 120.717 52.8643 120.316 53.275C119.921 53.6821 119.431 53.9806 118.848 54.1707C118.269 54.3571 117.621 54.3977 116.904 54.2925ZM125.136 48.9625L127.918 49.3709C129.057 49.538 129.885 49.9546 130.403 50.6207C130.921 51.2868 131.115 52.0625 130.985 52.9479C130.9 53.5298 130.687 54.0391 130.348 54.4759C130.009 54.9086 129.557 55.2277 128.993 55.4335C128.429 55.635 127.768 55.6801 127.009 55.5687L122.936 54.971L124.362 45.2568L125.854 45.4759L124.633 53.7987L127.213 54.1774C127.803 54.264 128.311 54.1792 128.736 53.9229C129.161 53.6666 129.41 53.2939 129.482 52.8048C129.557 52.2904 129.429 51.8431 129.097 51.4627C128.765 51.0824 128.304 50.8489 127.714 50.7623L124.931 50.3539L125.136 48.9625ZM145.12 52.5675L144.916 53.9588L139.553 53.1717L139.757 51.7804L145.12 52.5675ZM140.724 47.6583L139.298 57.3724L137.806 57.1534L139.232 47.4393L140.724 47.6583ZM146.871 48.5605L145.446 58.2746L143.953 58.0556L145.379 48.3415L146.871 48.5605ZM150.997 59.3219C150.381 59.2316 149.839 59.0336 149.372 58.7281C148.905 58.4184 148.556 58.0205 148.326 57.5345C148.096 57.0442 148.028 56.4829 148.121 55.8505C148.202 55.2939 148.378 54.8589 148.648 54.5453C148.919 54.2276 149.252 53.9965 149.648 53.8522C150.044 53.7079 150.47 53.6197 150.927 53.5877C151.389 53.5521 151.85 53.5379 152.31 53.5451C152.911 53.5558 153.398 53.5691 153.77 53.585C154.147 53.5973 154.427 53.5674 154.61 53.4951C154.797 53.4235 154.909 53.2676 154.944 53.0273L154.951 52.9767C155.043 52.3527 154.943 51.8427 154.653 51.4469C154.366 51.0517 153.879 50.8036 153.192 50.7027C152.479 50.5982 151.898 50.6722 151.447 50.9248C150.997 51.1774 150.663 51.4687 150.447 51.7987L149.104 51.0848C149.444 50.5317 149.849 50.1216 150.319 49.8547C150.793 49.5841 151.291 49.4203 151.812 49.3632C152.338 49.3025 152.845 49.3081 153.334 49.3799C153.646 49.4257 153.999 49.5162 154.393 49.6515C154.791 49.7832 155.163 49.9907 155.51 50.2741C155.86 50.5581 156.128 50.9484 156.313 51.4451C156.499 51.9418 156.535 52.5759 156.422 53.3475L155.482 59.7477L153.99 59.5286L154.183 58.2132L154.107 58.202C153.975 58.398 153.773 58.5988 153.502 58.8045C153.23 59.0102 152.886 59.1685 152.469 59.2796C152.052 59.3907 151.562 59.4048 150.997 59.3219ZM151.421 58.0146C152.011 58.1012 152.526 58.0583 152.965 57.8858C153.408 57.7139 153.759 57.4597 154.02 57.1233C154.284 56.7874 154.446 56.4171 154.506 56.0123L154.706 54.6463C154.632 54.7129 154.483 54.762 154.258 54.7937C154.039 54.8218 153.787 54.8386 153.501 54.8442C153.221 54.8461 152.948 54.8447 152.682 54.8401C152.42 54.8319 152.208 54.8265 152.044 54.8241C151.649 54.8178 151.274 54.8468 150.92 54.9111C150.571 54.9718 150.277 55.0988 150.037 55.2919C149.803 55.4815 149.658 55.766 149.602 56.1454C149.526 56.664 149.66 57.0843 150.005 57.4062C150.355 57.7245 150.827 57.9273 151.421 58.0146ZM161.77 63.5131L162.382 59.3391L163.192 59.4579C163.42 59.2804 163.624 59.082 163.802 58.8627C163.981 58.6434 164.147 58.3771 164.301 58.0637C164.459 57.7467 164.612 57.3555 164.757 56.8902C164.904 56.4207 165.056 55.8509 165.215 55.1808L166.108 51.3839L172.281 52.2898L171.059 60.6126L172.552 60.8316L171.939 65.0056L170.447 64.7866L170.855 62.0039L163.671 60.9495L163.262 63.7322L161.77 63.5131ZM164.887 59.7066L169.567 60.3935L170.584 53.4621L167.295 52.9794L166.682 55.3961C166.428 56.3967 166.167 57.2651 165.899 58.0011C165.632 58.7371 165.294 59.3056 164.887 59.7066ZM176.144 60.5319L181.927 53.7055L183.647 53.958L182.221 63.6721L180.729 63.453L181.832 55.9398L176.074 62.7699L174.329 62.5137L175.754 52.7996L177.247 53.0186L176.144 60.5319ZM188.998 64.8734C188.062 64.7361 187.285 64.411 186.667 63.8982C186.054 63.3818 185.618 62.7235 185.361 61.9234C185.109 61.1197 185.055 60.2203 185.201 59.2253C185.347 58.2303 185.657 57.3799 186.131 56.6742C186.61 55.9649 187.208 55.4453 187.924 55.1154C188.645 54.7819 189.443 54.6795 190.32 54.8082C190.826 54.8824 191.314 55.0401 191.782 55.2811C192.251 55.5222 192.659 55.8621 193.009 56.301C193.358 56.7356 193.608 57.2805 193.757 57.9356C193.906 58.5906 193.915 59.3714 193.782 60.2779L193.689 60.9103L186.201 59.8113L186.39 58.5211L192.36 59.3974C192.441 58.8493 192.403 58.3441 192.247 57.8819C192.095 57.4202 191.837 57.0357 191.473 56.7281C191.113 56.4212 190.663 56.2281 190.124 56.1489C189.529 56.0617 188.993 56.1338 188.516 56.3652C188.043 56.593 187.656 56.9238 187.356 57.3578C187.055 57.7918 186.865 58.2765 186.787 58.8119L186.661 59.672C186.553 60.4057 186.588 61.0461 186.766 61.5934C186.949 62.1371 187.249 62.5752 187.665 62.9076C188.082 63.2358 188.592 63.4442 189.195 63.5327C189.587 63.5902 189.949 63.5874 190.282 63.5242C190.619 63.4574 190.92 63.3293 191.184 63.1398C191.45 62.9462 191.67 62.69 191.846 62.3713L193.229 62.9877C193.005 63.4545 192.687 63.8471 192.274 64.1655C191.862 64.4797 191.377 64.7015 190.82 64.8307C190.263 64.9557 189.656 64.97 188.998 64.8734ZM195.638 57.1391L195.842 55.7478L203.735 56.9062L203.53 58.2975L200.343 57.8297L199.121 66.1525L197.629 65.9334L198.85 57.6106L195.638 57.1391ZM204.913 70.7237C204.66 70.6866 204.437 70.6324 204.245 70.5611C204.053 70.4941 203.921 70.436 203.851 70.387L204.423 69.1272C204.772 69.2732 205.088 69.3539 205.37 69.3695C205.652 69.385 205.917 69.2968 206.165 69.1049C206.416 68.9179 206.669 68.591 206.922 68.1243L207.312 67.4062L205.153 57.1143L206.772 57.3519L208.317 65.4864L208.418 65.5013L212.236 58.1539L213.855 58.3915L208.098 68.9171C207.839 69.3916 207.548 69.7731 207.226 70.0618C206.903 70.3546 206.548 70.5546 206.162 70.6616C205.78 70.7692 205.364 70.7899 204.913 70.7237ZM216.277 66.8613L216.075 67.5295C215.933 67.9996 215.748 68.4979 215.52 69.0244C215.296 69.5514 215.071 70.046 214.844 70.5079C214.616 70.9699 214.431 71.3368 214.288 71.6086L213.15 71.4416C213.244 71.1798 213.368 70.834 213.521 70.4043C213.675 69.9746 213.836 69.4922 214.005 68.9571C214.178 68.4268 214.335 67.8814 214.478 67.3209L214.658 66.6237L216.277 66.8613ZM32.457 65.9488L33.8827 56.2347L37.8543 56.8176C38.9 56.971 39.6959 57.3291 40.2422 57.8916C40.7884 58.4542 41.0046 59.1233 40.8908 59.8991C40.8041 60.4894 40.562 60.9212 40.1644 61.1945C39.7675 61.4635 39.2866 61.6148 38.7218 61.6481C39.0727 61.7513 39.402 61.9289 39.7096 62.1808C40.0214 62.4333 40.263 62.753 40.4345 63.1399C40.6066 63.5227 40.6552 63.9691 40.5803 64.4793C40.5073 64.9768 40.3156 65.4031 40.005 65.758C39.6945 66.113 39.2864 66.3697 38.7808 66.5281C38.2752 66.6864 37.6935 66.7173 37.0358 66.6208L32.457 65.9488ZM34.0741 64.7907L37.2363 65.2548C37.7506 65.3303 38.1712 65.2671 38.498 65.0652C38.8248 64.8634 39.0192 64.5517 39.0811 64.13C39.1547 63.6283 39.0671 63.2128 38.8183 62.8834C38.57 62.5497 38.1887 62.3452 37.6744 62.2697L34.5122 61.8056L34.0741 64.7907ZM34.7016 60.5154L37.2566 60.8904C37.6571 60.9492 38.0088 60.9448 38.3116 60.8773C38.615 60.8055 38.8578 60.6775 39.0399 60.4932C39.2268 60.3053 39.3413 60.068 39.3834 59.7813C39.4434 59.3723 39.3197 59.0268 39.0122 58.7448C38.7053 58.4585 38.2526 58.2715 37.6539 58.1836L35.0988 57.8086L34.7016 60.5154ZM46.3739 68.1981C45.497 68.0694 44.7581 67.7477 44.1575 67.2332C43.561 66.7192 43.1323 66.0598 42.8714 65.2549C42.6148 64.4505 42.5601 63.5467 42.7074 62.5432C42.8559 61.5313 43.1689 60.6749 43.6465 59.9741C44.1283 59.2738 44.7287 58.7633 45.4476 58.4424C46.1709 58.1222 46.9709 58.0264 47.8479 58.1551C48.7249 58.2838 49.4616 58.6051 50.0581 59.1191C50.6587 59.6336 51.0871 60.2952 51.3431 61.1037C51.6034 61.9128 51.6593 62.8234 51.5108 63.8353C51.3635 64.8387 51.0493 65.6885 50.5681 66.3845C50.0912 67.0811 49.4911 67.5896 48.7679 67.9098C48.0489 68.2307 47.2509 68.3268 46.3739 68.1981ZM46.5707 66.8573C47.2369 66.9551 47.81 66.8648 48.2902 66.5864C48.7704 66.308 49.1546 65.9057 49.4429 65.3795C49.7312 64.8533 49.9229 64.2655 50.0182 63.6162C50.1135 62.9669 50.099 62.3467 49.9747 61.7556C49.8504 61.1646 49.5986 60.6646 49.2193 60.2558C48.84 59.8469 48.3173 59.5936 47.6511 59.4958C46.985 59.3981 46.4115 59.4905 45.9307 59.7731C45.4499 60.0557 45.0651 60.4622 44.7762 60.9927C44.4873 61.5231 44.2952 62.113 44.1999 62.7623C44.1046 63.4116 44.1194 64.0296 44.2443 64.6165C44.3692 65.2034 44.6216 65.6991 45.0016 66.1037C45.3815 66.5084 45.9046 66.7596 46.5707 66.8573ZM52.8404 66.4079L54.4341 66.6418C54.4035 67.0852 54.5528 67.4474 54.8819 67.7283C55.2153 68.0098 55.6751 68.1935 56.2611 68.2795C56.8598 68.3674 57.39 68.3203 57.8517 68.1383C58.3141 67.952 58.5858 67.5827 58.6669 67.0304C58.7145 66.7058 58.6759 66.4115 58.5509 66.1477C58.4266 65.8796 58.2289 65.6568 57.9578 65.4792C57.6866 65.3016 57.3529 65.1837 56.9566 65.1255L55.287 64.8805L55.4838 63.5397L57.1534 63.7848C57.7479 63.872 58.2061 63.8015 58.5282 63.5731C58.8545 63.3453 59.0474 63.0291 59.1068 62.6243C59.1705 62.19 59.0677 61.8196 58.7983 61.513C58.5295 61.2022 58.1126 61.0054 57.5476 60.9225C56.9784 60.8389 56.4852 60.8979 56.068 61.0994C55.6514 61.2967 55.4032 61.5941 55.3234 61.9915L53.7549 61.7613C53.8485 61.241 54.0765 60.8028 54.4389 60.4468C54.8018 60.0866 55.2614 59.8311 55.8176 59.6801C56.3745 59.525 56.9902 59.4969 57.6648 59.5959C58.3478 59.6961 58.9226 59.9032 59.389 60.2172C59.8603 60.5276 60.203 60.9073 60.417 61.3565C60.6359 61.8021 60.7075 62.2821 60.6321 62.7965C60.5516 63.3446 60.3327 63.7647 59.9755 64.0568C59.6182 64.3489 59.1971 64.5327 58.7123 64.6079L58.6974 64.7091C59.0605 64.7883 59.3615 64.953 59.6004 65.2034C59.8442 65.4503 60.0172 65.7535 60.1195 66.113C60.2223 66.4684 60.2441 66.8484 60.1847 67.2532C60.0981 67.8435 59.8645 68.3346 59.4839 68.7267C59.1039 69.1146 58.6202 69.3881 58.0326 69.5474C57.4456 69.7024 56.798 69.728 56.0896 69.624C55.4024 69.5231 54.8032 69.3211 54.2921 69.0178C53.7817 68.7103 53.3956 68.3328 53.134 67.8852C52.8771 67.434 52.7793 66.9416 52.8404 66.4079ZM61.8839 70.2677L63.3096 60.5536L67.2813 61.1365C68.3269 61.2899 69.1228 61.6479 69.6691 62.2105C70.2154 62.7731 70.4316 63.4422 70.3177 64.218C70.2311 64.8083 69.989 65.2401 69.5914 65.5133C69.1944 65.7824 68.7135 65.9336 68.1487 65.967C68.4996 66.0702 68.8289 66.2478 69.1365 66.4997C69.4483 66.7522 69.69 67.0719 69.8614 67.4588C70.0335 67.8416 70.0822 68.288 70.0073 68.7982C69.9343 69.2957 69.7425 69.7219 69.432 70.0769C69.1215 70.4319 68.7134 70.6886 68.2078 70.8469C67.7021 71.0053 67.1204 71.0362 66.4627 70.9397L61.8839 70.2677ZM63.5011 69.1096L66.6632 69.5737C67.1776 69.6491 67.5982 69.586 67.925 69.3841C68.2518 69.1823 68.4461 68.8706 68.508 68.4489C68.5817 67.9472 68.494 67.5316 68.2452 67.2022C67.997 66.8686 67.6157 66.6641 67.1013 66.5886L63.9392 66.1245L63.5011 69.1096ZM64.1285 64.8343L66.6835 65.2093C67.0841 65.2681 67.4357 65.2637 67.7385 65.1962C68.0419 65.1244 68.2847 64.9964 68.4668 64.8121C68.6537 64.6242 68.7682 64.3868 68.8103 64.1001C68.8703 63.6912 68.7466 63.3457 68.4391 63.0637C68.1323 62.7774 67.6795 62.5904 67.0808 62.5025L64.5258 62.1275L64.1285 64.8343ZM71.3496 75.3782L73.3099 62.0213L74.7519 62.2329L74.5254 63.776L74.7025 63.802C74.8368 63.6495 75.0202 63.4567 75.2525 63.2238C75.4896 62.9872 75.8068 62.7926 76.2039 62.6398C76.6059 62.4835 77.1231 62.4517 77.7555 62.5445C78.5734 62.6646 79.2644 62.9749 79.8284 63.4754C80.3923 63.976 80.7942 64.6272 81.034 65.429C81.2738 66.2309 81.3189 67.1419 81.1691 68.1623C81.0181 69.191 80.7123 70.0571 80.2516 70.7604C79.7915 71.4595 79.2212 71.9702 78.5408 72.2924C77.861 72.6104 77.1163 72.71 76.3068 72.5912C75.6828 72.4996 75.1984 72.323 74.8534 72.0613C74.5091 71.7955 74.2553 71.5149 74.0919 71.2195C73.9291 70.92 73.8059 70.6736 73.7223 70.4805L73.5958 70.4619L72.8421 75.5972L71.3496 75.3782ZM74.0643 67.0937C73.9566 67.8273 73.9692 68.4903 74.1019 69.0826C74.2352 69.6707 74.4853 70.1531 74.8521 70.53C75.2195 70.9026 75.7025 71.1329 76.3012 71.2208C76.9252 71.3123 77.4701 71.2243 77.9357 70.9567C78.4062 70.6855 78.788 70.285 79.0811 69.7552C79.3791 69.2218 79.5788 68.6094 79.6803 67.9179C79.7805 67.2349 79.7655 66.6039 79.6351 66.0248C79.5096 65.4422 79.2595 64.9597 78.8849 64.5774C78.5152 64.1915 78.0141 63.9521 77.3816 63.8593C76.7745 63.7702 76.2418 63.8492 75.7834 64.0963C75.3257 64.3393 74.9512 64.7193 74.6599 65.2365C74.3693 65.7494 74.1707 66.3685 74.0643 67.0937ZM85.5619 73.9754C84.9463 73.8851 84.4047 73.6871 83.937 73.3816C83.4699 73.0718 83.1213 72.674 82.8911 72.1879C82.6616 71.6977 82.5932 71.1364 82.6861 70.504C82.7677 69.9474 82.9436 69.5124 83.2135 69.1988C83.4842 68.8811 83.8174 68.65 84.2133 68.5057C84.6092 68.3614 85.0356 68.2732 85.4925 68.2412C85.9543 68.2056 86.4151 68.1914 86.8749 68.1986C87.4763 68.2093 87.9632 68.2226 88.3356 68.2385C88.7128 68.2508 88.9928 68.2208 89.1757 68.1486C89.3628 68.077 89.474 67.9211 89.5092 67.6807L89.5167 67.6301C89.6083 67.0061 89.5087 66.4962 89.2179 66.1004C88.9313 65.7051 88.4444 65.4571 87.7572 65.3562C87.0447 65.2517 86.4631 65.3257 86.0126 65.5783C85.562 65.8309 85.2285 66.1222 85.0121 66.4522L83.6697 65.7383C84.0094 65.1852 84.4141 64.7751 84.884 64.5081C85.3587 64.2376 85.8565 64.0737 86.3774 64.0167C86.9032 63.956 87.4106 63.9616 87.8997 64.0334C88.2117 64.0791 88.5645 64.1697 88.9581 64.305C89.3565 64.4367 89.7288 64.6442 90.0748 64.9276C90.4251 65.2116 90.693 65.6019 90.8785 66.0986C91.064 66.5953 91.1002 67.2294 90.9869 68.001L90.0476 74.4012L88.5551 74.1821L88.7481 72.8667L88.6722 72.8555C88.5401 73.0515 88.3383 73.2523 88.067 73.458C87.7956 73.6636 87.4515 73.822 87.0346 73.9331C86.6178 74.0442 86.1268 74.0583 85.5619 73.9754ZM85.9863 72.6681C86.5766 72.7547 87.0911 72.7118 87.5299 72.5393C87.9729 72.3674 88.3246 72.1132 88.5851 71.7767C88.8497 71.4409 89.0117 71.0706 89.0711 70.6658L89.2716 69.2998C89.1972 69.3664 89.0479 69.4155 88.8236 69.4472C88.6041 69.4753 88.3518 69.4921 88.0668 69.4976C87.7865 69.4996 87.5132 69.4982 87.2469 69.4936C86.9854 69.4854 86.7729 69.48 86.6096 69.4776C86.2143 69.4713 85.8397 69.5003 85.4857 69.5646C85.1365 69.6253 84.8422 69.7523 84.6028 69.9454C84.3683 70.1349 84.2231 70.4194 84.1674 70.7989C84.0913 71.3175 84.2256 71.7378 84.5703 72.0597C84.9198 72.378 85.3918 72.5808 85.9863 72.6681ZM106.232 75.3551L105.442 79.5032L103.899 79.2767L104.307 76.494L103.042 76.3084L103.247 74.917L106.232 75.3551ZM94.1975 65.0869L95.69 65.3059L94.4685 73.6287L98.1366 74.1671L99.3581 65.8443L100.851 66.0633L99.6291 74.3861L103.297 74.9245L104.519 66.6017L106.011 66.8207L104.586 76.5349L92.7718 74.801L94.1975 65.0869ZM111.023 77.7123C110.408 77.622 109.866 77.424 109.399 77.1185C108.932 76.8088 108.583 76.4109 108.353 75.9249C108.123 75.4346 108.055 74.8733 108.148 74.2409C108.229 73.6843 108.405 73.2493 108.675 72.9357C108.946 72.618 109.279 72.3869 109.675 72.2426C110.071 72.0983 110.497 72.0101 110.954 71.9781C111.416 71.9425 111.877 71.9283 112.336 71.9355C112.938 71.9462 113.425 71.9595 113.797 71.9754C114.174 71.9877 114.454 71.9578 114.637 71.8855C114.824 71.8139 114.936 71.658 114.971 71.4177L114.978 71.3671C115.07 70.7431 114.97 70.2331 114.679 69.8373C114.393 69.4421 113.906 69.194 113.219 69.0931C112.506 68.9886 111.925 69.0626 111.474 69.3152C111.024 69.5678 110.69 69.8591 110.474 70.1891L109.131 69.4752C109.471 68.9221 109.876 68.512 110.346 68.2451C110.82 67.9745 111.318 67.8107 111.839 67.7536C112.365 67.6929 112.872 67.6985 113.361 67.7703C113.673 67.8161 114.026 67.9066 114.42 68.0419C114.818 68.1736 115.19 68.3811 115.536 68.6645C115.887 68.9485 116.155 69.3388 116.34 69.8355C116.526 70.3322 116.562 70.9663 116.449 71.7379L115.509 78.1381L114.017 77.919L114.21 76.6036L114.134 76.5924C114.002 76.7884 113.8 76.9892 113.529 77.1949C113.257 77.4006 112.913 77.5589 112.496 77.67C112.079 77.7811 111.588 77.7952 111.023 77.7123ZM111.448 76.405C112.038 76.4916 112.553 76.4487 112.992 76.2762C113.435 76.1043 113.786 75.8501 114.047 75.5137C114.311 75.1778 114.473 74.8075 114.533 74.4027L114.733 73.0367C114.659 73.1033 114.51 73.1524 114.285 73.1841C114.066 73.2122 113.813 73.229 113.528 73.2346C113.248 73.2365 112.975 73.2351 112.708 73.2305C112.447 73.2223 112.235 73.2169 112.071 73.2145C111.676 73.2082 111.301 73.2372 110.947 73.3015C110.598 73.3622 110.304 73.4892 110.064 73.6823C109.83 73.8719 109.685 74.1564 109.629 74.5358C109.553 75.0544 109.687 75.4747 110.032 75.7966C110.381 76.1149 110.853 76.3177 111.448 76.405ZM123.69 73.7569L123.486 75.1482L118.351 74.3945L118.555 73.0032L123.69 73.7569ZM120.443 68.9389L119.018 78.653L117.525 78.4339L118.951 68.7198L120.443 68.9389ZM125.843 79.8615C124.966 79.7328 124.228 79.4112 123.627 78.8966C123.03 78.3827 122.602 77.7233 122.341 76.9183C122.084 76.114 122.03 75.2101 122.177 74.2067C122.325 73.1948 122.638 72.3384 123.116 71.6375C123.598 70.9373 124.198 70.4267 124.917 70.1059C125.64 69.7856 126.44 69.6899 127.317 69.8186C128.194 69.9473 128.931 70.2686 129.528 70.7825C130.128 71.2971 130.557 71.9586 130.813 72.7672C131.073 73.5763 131.129 74.4868 130.98 75.4987C130.833 76.5022 130.519 77.3519 130.038 78.0479C129.561 78.7446 128.961 79.253 128.237 79.5733C127.518 79.8942 126.72 79.9903 125.843 79.8615ZM126.04 78.5208C126.706 78.6186 127.28 78.5282 127.76 78.2499C128.24 77.9715 128.624 77.5692 128.912 77.0429C129.201 76.5167 129.392 75.929 129.488 75.2797C129.583 74.6304 129.569 74.0102 129.444 73.4191C129.32 72.828 129.068 72.3281 128.689 71.9192C128.31 71.5104 127.787 71.2571 127.121 71.1593C126.454 71.0615 125.881 71.154 125.4 71.4366C124.919 71.7192 124.535 72.1257 124.246 72.6561C123.957 73.1866 123.765 73.7764 123.669 74.4257C123.574 75.075 123.589 75.6931 123.714 76.28C123.839 76.8668 124.091 77.3626 124.471 77.7672C124.851 78.1718 125.374 78.423 126.04 78.5208ZM136.62 81.4432C135.709 81.3095 134.957 80.9794 134.362 80.4528C133.767 79.9262 133.348 79.2596 133.105 78.4529C132.862 77.6462 132.811 76.758 132.953 75.7883C133.098 74.8017 133.407 73.9577 133.881 73.2562C134.359 72.5511 134.956 72.0336 135.672 71.7037C136.393 71.3702 137.192 71.2678 138.069 71.3965C138.752 71.4967 139.349 71.7136 139.86 72.047C140.371 72.3804 140.768 72.8005 141.051 73.3072C141.334 73.8139 141.473 74.377 141.468 74.9965L139.976 74.7774C139.927 74.318 139.732 73.8888 139.39 73.4897C139.052 73.0871 138.555 72.8375 137.897 72.741C137.315 72.6556 136.783 72.7325 136.3 72.9717C135.822 73.2073 135.42 73.5812 135.095 74.0934C134.775 74.602 134.561 75.2232 134.453 75.9568C134.343 76.7073 134.365 77.3781 134.52 77.9693C134.678 78.5611 134.952 79.0428 135.341 79.4143C135.735 79.7864 136.227 80.0158 136.817 80.1024C137.205 80.1594 137.567 80.1436 137.903 80.0551C138.239 79.9666 138.535 79.8119 138.791 79.5911C139.048 79.3703 139.248 79.0896 139.393 78.7491L140.885 78.9682C140.717 79.5292 140.432 80.015 140.032 80.4257C139.636 80.8328 139.147 81.1313 138.563 81.3214C137.984 81.5078 137.337 81.5484 136.62 81.4432ZM144.851 76.1132L147.634 76.5216C148.772 76.6887 149.601 77.1053 150.119 77.7714C150.637 78.4375 150.831 79.2132 150.701 80.0986C150.616 80.6805 150.403 81.1898 150.063 81.6266C149.724 82.0593 149.272 82.3784 148.708 82.5842C148.145 82.7857 147.483 82.8308 146.724 82.7194L142.651 82.1217L144.077 72.4075L145.57 72.6266L144.348 80.9494L146.929 81.3281C147.519 81.4147 148.027 81.3299 148.452 81.0736C148.877 80.8173 149.126 80.4446 149.197 79.9555C149.273 79.4411 149.145 78.9938 148.813 78.6134C148.481 78.2331 148.02 77.9996 147.43 77.913L144.647 77.5046L144.851 76.1132ZM157.521 84.3041L158.947 74.59L160.44 74.809L159.82 79.0336L160.806 79.1784L164.917 75.4662L166.84 75.7484L162.232 79.8528L165.465 85.4699L163.542 85.1877L160.956 80.6218L159.615 80.425L159.014 84.5231L157.521 84.3041ZM173.911 84.4613L179.694 77.6349L181.414 77.8874L179.989 87.6015L178.496 87.3824L179.599 79.8692L173.841 86.6993L172.096 86.4431L173.522 76.729L175.014 76.948L173.911 84.4613ZM186.639 88.7843C185.728 88.6506 184.976 88.3205 184.381 87.7939C183.786 87.2673 183.367 86.6007 183.124 85.794C182.881 84.9873 182.83 84.0991 182.972 83.1294C183.117 82.1428 183.426 81.2988 183.9 80.5973C184.378 79.8922 184.975 79.3747 185.691 79.0448C186.412 78.7113 187.211 78.6089 188.088 78.7376C188.771 78.8378 189.368 79.0547 189.879 79.3881C190.39 79.7215 190.787 80.1416 191.07 80.6483C191.353 81.155 191.492 81.7181 191.487 82.3376L189.995 82.1185C189.946 81.6591 189.75 81.2299 189.408 80.8308C189.071 80.4282 188.574 80.1786 187.916 80.082C187.334 79.9967 186.802 80.0736 186.319 80.3128C185.841 80.5484 185.439 80.9223 185.114 81.4345C184.794 81.9431 184.58 82.5643 184.472 83.2979C184.362 84.0484 184.384 84.7192 184.539 85.3104C184.697 85.9022 184.971 86.3839 185.36 86.7554C185.754 87.1275 186.245 87.3569 186.836 87.4435C187.224 87.5005 187.585 87.4847 187.922 87.3962C188.258 87.3077 188.554 87.153 188.81 86.9322C189.066 86.7114 189.267 86.4307 189.412 86.0902L190.904 86.3092C190.736 86.8703 190.451 87.3561 190.051 87.7668C189.655 88.1739 189.165 88.4724 188.582 88.6625C188.003 88.8489 187.356 88.8895 186.639 88.7843ZM193.127 81.0277L193.331 79.6363L201.224 80.7947L201.019 82.1861L197.832 81.7183L196.61 90.041L195.118 89.822L196.339 81.4992L193.127 81.0277ZM205.387 91.5359C204.51 91.4072 203.771 91.0856 203.171 90.571C202.574 90.0571 202.146 89.3976 201.885 88.5927C201.628 87.7884 201.573 86.8845 201.721 85.881C201.869 84.8692 202.182 84.0128 202.66 83.3119C203.142 82.6117 203.742 82.1011 204.461 81.7802C205.184 81.46 205.984 81.3642 206.861 81.4929C207.738 81.6216 208.475 81.943 209.071 82.4569C209.672 82.9715 210.1 83.633 210.356 84.4415C210.617 85.2507 210.673 86.1612 210.524 87.1731C210.377 88.1766 210.063 89.0263 209.581 89.7223C209.104 90.419 208.504 90.9274 207.781 91.2477C207.062 91.5685 206.264 91.6646 205.387 91.5359ZM205.584 90.1952C206.25 90.2929 206.823 90.2026 207.304 89.9242C207.784 89.6458 208.168 89.2435 208.456 88.7173C208.744 88.1911 208.936 87.6033 209.032 86.954C209.127 86.3047 209.112 85.6846 208.988 85.0935C208.864 84.5024 208.612 84.0025 208.233 83.5936C207.853 83.1848 207.331 82.9315 206.664 82.8337C205.998 82.7359 205.425 82.8283 204.944 83.1109C204.463 83.3936 204.078 83.8001 203.789 84.3305C203.501 84.8609 203.308 85.4508 203.213 86.1001C203.118 86.7494 203.133 87.3675 203.258 87.9543C203.383 88.5412 203.635 89.0369 204.015 89.4416C204.395 89.8462 204.918 90.0974 205.584 90.1952ZM212.097 92.3139L213.523 82.5998L215.015 82.8189L214.395 87.0435L215.382 87.1883L219.493 83.476L221.415 83.7582L216.807 87.8627L220.04 93.4798L218.118 93.1976L215.532 88.6316L214.191 88.4349L213.59 92.533L212.097 92.3139ZM224.488 94.3651C223.872 94.2747 223.33 94.0768 222.863 93.7712C222.396 93.4615 222.047 93.0636 221.817 92.5776C221.587 92.0874 221.519 91.526 221.612 90.8936C221.694 90.3371 221.869 89.902 222.139 89.5885C222.41 89.2707 222.743 89.0397 223.139 88.8953C223.535 88.751 223.961 88.6629 224.418 88.6309C224.88 88.5953 225.341 88.5811 225.801 88.5882C226.402 88.599 226.889 88.6123 227.261 88.6282C227.639 88.6405 227.919 88.6105 228.101 88.5383C228.289 88.4667 228.4 88.3107 228.435 88.0704L228.442 88.0198C228.534 87.3958 228.434 86.8859 228.144 86.49C227.857 86.0948 227.37 85.8468 226.683 85.7459C225.97 85.6413 225.389 85.7153 224.938 85.9679C224.488 86.2205 224.154 86.5118 223.938 86.8418L222.596 86.128C222.935 85.5749 223.34 85.1648 223.81 84.8978C224.284 84.6272 224.782 84.4634 225.303 84.4063C225.829 84.3457 226.336 84.3512 226.825 84.423C227.137 84.4688 227.49 84.5593 227.884 84.6946C228.282 84.8263 228.655 85.0339 229.001 85.3172C229.351 85.6012 229.619 85.9916 229.804 86.4883C229.99 86.985 230.026 87.6191 229.913 88.3906L228.973 94.7908L227.481 94.5718L227.674 93.2563L227.598 93.2452C227.466 93.4411 227.264 93.642 226.993 93.8476C226.721 94.0533 226.377 94.2117 225.96 94.3228C225.544 94.4339 225.053 94.448 224.488 94.3651ZM224.912 93.0577C225.502 93.1444 226.017 93.1014 226.456 92.9289C226.899 92.7571 227.25 92.5029 227.511 92.1664C227.775 91.8305 227.938 91.4602 227.997 91.0555L228.197 89.6894C228.123 89.756 227.974 89.8052 227.749 89.8369C227.53 89.8649 227.278 89.8818 226.993 89.8873C226.712 89.8892 226.439 89.8879 226.173 89.8833C225.911 89.875 225.699 89.8697 225.535 89.8673C225.14 89.8609 224.765 89.8899 224.411 89.9543C224.062 90.015 223.768 90.1419 223.529 90.3351C223.294 90.5246 223.149 90.8091 223.093 91.1886C223.017 91.7072 223.151 92.1274 223.496 92.4493C223.846 92.7677 224.318 92.9705 224.912 93.0577ZM237.307 93.9466L241.825 86.7537L243.242 86.9616L237.617 96.0594L236.403 95.8812L233.705 85.5619L235.096 85.7661L237.307 93.9466ZM234.616 85.6956L233.19 95.4097L231.698 95.1907L233.123 85.4765L234.616 85.6956ZM240.83 96.531L242.256 86.8168L243.748 87.0359L242.322 96.75L240.83 96.531Z" fill="black"/>
</svg>
