<svg width="363" height="180" viewBox="0 0 363 180" fill="none" xmlns="http://www.w3.org/2000/svg">
<path d="M358.177 177.894C359.179 178.065 360.141 177.425 360.372 176.435C360.602 175.444 360.02 174.446 359.045 174.158C352.661 172.269 347.082 167.553 342.282 160.864C337.487 154.181 333.571 145.664 330.482 136.443C324.304 117.995 321.553 97.0734 321.553 83.277C321.553 38.1419 278.378 2.07863 225.823 2.07863L97.8088 2.07867C45.2543 2.07867 2.07863 38.142 2.07863 83.277C2.07863 128.412 45.2543 164.475 97.8088 164.475L225.823 164.475C245.931 164.475 264.612 159.218 280.038 150.214C299.047 159.563 335.253 173.984 358.177 177.894Z" fill="white" stroke="white" stroke-width="3.84274" stroke-linejoin="round"/>
<path d="M76.2788 59.6364V80H70.7504V64.7273H70.6311L66.1766 67.392V62.6989L71.1879 59.6364H76.2788ZM89.3293 80.5568C87.4798 80.5502 85.8823 80.1226 84.5366 79.2741C83.191 78.4257 82.1536 77.2027 81.4244 75.6051C80.6953 74.0076 80.334 72.0919 80.3406 69.858C80.3472 67.6174 80.7118 65.715 81.4344 64.1506C82.1635 62.5862 83.1976 61.3963 84.5366 60.581C85.8823 59.7656 87.4798 59.358 89.3293 59.358C91.1787 59.358 92.7762 59.7689 94.1219 60.5909C95.4675 61.4062 96.5049 62.5961 97.2341 64.1605C97.9633 65.7249 98.3245 67.6241 98.3179 69.858C98.3179 72.1051 97.9533 74.0275 97.2241 75.625C96.495 77.2225 95.4576 78.4455 94.1119 79.294C92.7729 80.1359 91.1787 80.5568 89.3293 80.5568ZM89.3293 76.0625C90.2838 76.0625 91.066 75.5653 91.6758 74.571C92.2923 73.5701 92.5972 71.9991 92.5906 69.858C92.5906 68.4593 92.4514 67.3158 92.173 66.4276C91.8946 65.5393 91.5101 64.883 91.0196 64.4588C90.5291 64.0279 89.9656 63.8125 89.3293 63.8125C88.3747 63.8125 87.5958 64.2964 86.9926 65.2642C86.3894 66.232 86.0812 67.7633 86.0679 69.858C86.0613 71.2831 86.1972 72.4564 86.4756 73.3778C86.754 74.2926 87.1384 74.9688 87.629 75.4062C88.1261 75.8438 88.6929 76.0625 89.3293 76.0625ZM109.782 80.5568C107.933 80.5502 106.335 80.1226 104.99 79.2741C103.644 78.4257 102.607 77.2027 101.878 75.6051C101.148 74.0076 100.787 72.0919 100.794 69.858C100.8 67.6174 101.165 65.715 101.887 64.1506C102.617 62.5862 103.651 61.3963 104.99 60.581C106.335 59.7656 107.933 59.358 109.782 59.358C111.632 59.358 113.229 59.7689 114.575 60.5909C115.921 61.4062 116.958 62.5961 117.687 64.1605C118.416 65.7249 118.778 67.6241 118.771 69.858C118.771 72.1051 118.406 74.0275 117.677 75.625C116.948 77.2225 115.911 78.4455 114.565 79.294C113.226 80.1359 111.632 80.5568 109.782 80.5568ZM109.782 76.0625C110.737 76.0625 111.519 75.5653 112.129 74.571C112.745 73.5701 113.05 71.9991 113.044 69.858C113.044 68.4593 112.905 67.3158 112.626 66.4276C112.348 65.5393 111.963 64.883 111.473 64.4588C110.982 64.0279 110.419 63.8125 109.782 63.8125C108.828 63.8125 108.049 64.2964 107.446 65.2642C106.843 66.232 106.534 67.7633 106.521 69.858C106.514 71.2831 106.65 72.4564 106.929 73.3778C107.207 74.2926 107.592 74.9688 108.082 75.4062C108.579 75.8438 109.146 76.0625 109.782 76.0625ZM133.02 76.1818V75.108C133.02 74.2462 133.205 73.4508 133.576 72.7216C133.954 71.9924 134.501 71.4058 135.217 70.9616C135.933 70.5175 136.805 70.2955 137.832 70.2955C138.886 70.2955 139.771 70.5142 140.487 70.9517C141.209 71.3892 141.756 71.9725 142.128 72.7017C142.499 73.4309 142.684 74.233 142.684 75.108V76.1818C142.684 77.0436 142.495 77.839 142.118 78.5682C141.746 79.2973 141.2 79.884 140.477 80.3281C139.754 80.7723 138.873 80.9943 137.832 80.9943C136.791 80.9943 135.913 80.7723 135.197 80.3281C134.481 79.884 133.938 79.2973 133.566 78.5682C133.202 77.839 133.02 77.0436 133.02 76.1818ZM136.48 75.108V76.1818C136.48 76.5597 136.573 76.9342 136.758 77.3054C136.95 77.67 137.308 77.8523 137.832 77.8523C138.382 77.8523 138.744 77.6733 138.916 77.3153C139.095 76.9574 139.184 76.5795 139.184 76.1818V75.108C139.184 74.7102 139.102 74.3258 138.936 73.9545C138.77 73.5833 138.402 73.3977 137.832 73.3977C137.308 73.3977 136.95 73.5833 136.758 73.9545C136.573 74.3258 136.48 74.7102 136.48 75.108ZM122.361 64.5284V63.4545C122.361 62.5795 122.549 61.7775 122.927 61.0483C123.312 60.3191 123.862 59.7358 124.578 59.2983C125.294 58.8608 126.159 58.642 127.173 58.642C128.227 58.642 129.112 58.8608 129.828 59.2983C130.55 59.7358 131.097 60.3191 131.468 61.0483C131.84 61.7775 132.025 62.5795 132.025 63.4545V64.5284C132.025 65.4034 131.836 66.2022 131.459 66.9247C131.087 67.6473 130.54 68.224 129.818 68.6548C129.095 69.0857 128.214 69.3011 127.173 69.3011C126.132 69.3011 125.254 69.0824 124.538 68.6449C123.822 68.2074 123.279 67.6274 122.907 66.9048C122.543 66.1823 122.361 65.3902 122.361 64.5284ZM125.861 63.4545V64.5284C125.861 64.9261 125.953 65.304 126.139 65.6619C126.325 66.0199 126.669 66.1989 127.173 66.1989C127.723 66.1989 128.084 66.0199 128.257 65.6619C128.436 65.304 128.525 64.9261 128.525 64.5284V63.4545C128.525 63.0568 128.442 62.6723 128.277 62.3011C128.111 61.9299 127.743 61.7443 127.173 61.7443C126.649 61.7443 126.298 61.9366 126.119 62.321C125.947 62.6989 125.861 63.0767 125.861 63.4545ZM124.051 80L138.051 59.6364H140.875L126.875 80H124.051ZM151.842 80V59.6364H157.37V67.5909H164.689V59.6364H170.217V80H164.689V72.0455H157.37V80H151.842ZM180.28 80.2784C178.622 80.2784 177.204 79.9503 176.024 79.294C174.844 78.6312 173.939 77.7098 173.309 76.5298C172.68 75.3433 172.365 73.9678 172.365 72.4034C172.365 70.839 172.68 69.4669 173.309 68.2869C173.939 67.1004 174.844 66.179 176.024 65.5227C177.204 64.8598 178.622 64.5284 180.28 64.5284C181.937 64.5284 183.355 64.8598 184.535 65.5227C185.715 66.179 186.62 67.1004 187.25 68.2869C187.879 69.4669 188.194 70.839 188.194 72.4034C188.194 73.9678 187.879 75.3433 187.25 76.5298C186.62 77.7098 185.715 78.6312 184.535 79.294C183.355 79.9503 181.937 80.2784 180.28 80.2784ZM180.319 76.2216C180.783 76.2216 181.184 76.0658 181.522 75.7543C181.861 75.4427 182.122 74.9986 182.308 74.4219C182.494 73.8452 182.586 73.1591 182.586 72.3636C182.586 71.5616 182.494 70.8755 182.308 70.3054C182.122 69.7287 181.861 69.2846 181.522 68.973C181.184 68.6615 180.783 68.5057 180.319 68.5057C179.829 68.5057 179.408 68.6615 179.057 68.973C178.705 69.2846 178.437 69.7287 178.251 70.3054C178.066 70.8755 177.973 71.5616 177.973 72.3636C177.973 73.1591 178.066 73.8452 178.251 74.4219C178.437 74.9986 178.705 75.4427 179.057 75.7543C179.408 76.0658 179.829 76.2216 180.319 76.2216ZM195.91 59.6364V80H190.422V59.6364H195.91ZM198.707 80V64.7273H204.195V80H198.707ZM201.451 63.1364C200.709 63.1364 200.072 62.8911 199.542 62.4006C199.012 61.91 198.747 61.3201 198.747 60.6307C198.747 59.9413 199.012 59.3513 199.542 58.8608C200.072 58.3703 200.709 58.125 201.451 58.125C202.2 58.125 202.836 58.3703 203.36 58.8608C203.89 59.3513 204.156 59.9413 204.156 60.6307C204.156 61.3201 203.89 61.91 203.36 62.4006C202.836 62.8911 202.2 63.1364 201.451 63.1364ZM220.952 69.6989H215.901C215.874 69.3873 215.765 69.1188 215.573 68.8935C215.381 68.6681 215.132 68.4957 214.827 68.3764C214.529 68.2505 214.197 68.1875 213.833 68.1875C213.362 68.1875 212.958 68.2737 212.62 68.446C212.282 68.6184 212.116 68.8636 212.123 69.1818C212.116 69.4072 212.212 69.616 212.411 69.8082C212.616 70.0005 213.011 70.1496 213.594 70.2557L216.696 70.8125C218.261 71.0975 219.424 71.5781 220.187 72.2543C220.955 72.9238 221.343 73.822 221.35 74.9489C221.343 76.036 221.018 76.9806 220.375 77.7827C219.739 78.5781 218.867 79.1946 217.76 79.6321C216.66 80.063 215.404 80.2784 213.992 80.2784C211.659 80.2784 209.832 79.8011 208.513 78.8466C207.201 77.892 206.468 76.6326 206.316 75.0682H211.765C211.838 75.5521 212.076 75.9266 212.481 76.1918C212.892 76.4503 213.409 76.5795 214.032 76.5795C214.535 76.5795 214.95 76.4934 215.275 76.321C215.606 76.1487 215.775 75.9034 215.782 75.5852C215.775 75.2936 215.629 75.0616 215.344 74.8892C215.066 74.7169 214.628 74.5777 214.032 74.4716L211.327 73.9943C209.769 73.7225 208.603 73.2055 207.827 72.4432C207.052 71.6809 206.667 70.6998 206.674 69.5C206.667 68.4394 206.945 67.5412 207.509 66.8054C208.079 66.063 208.891 65.4995 209.945 65.1151C211.006 64.724 212.262 64.5284 213.713 64.5284C215.921 64.5284 217.661 64.9858 218.934 65.9006C220.213 66.8153 220.886 68.0814 220.952 69.6989ZM232.561 64.7273V68.7045H222.498V64.7273H232.561ZM224.447 61.0682H229.936V75.0881C229.936 75.3002 229.972 75.4792 230.045 75.625C230.118 75.7642 230.231 75.8703 230.383 75.9432C230.536 76.0095 230.731 76.0426 230.97 76.0426C231.136 76.0426 231.328 76.0227 231.547 75.983C231.772 75.9432 231.938 75.91 232.044 75.8835L232.839 79.7415C232.594 79.8144 232.243 79.9039 231.785 80.0099C231.334 80.116 230.798 80.1856 230.174 80.2188C228.915 80.285 227.858 80.1558 227.003 79.831C226.147 79.4995 225.504 78.9792 225.074 78.2699C224.643 77.5606 224.434 76.6723 224.447 75.6051V61.0682ZM234.8 80V64.7273H240.289V80H234.8ZM237.545 63.1364C236.802 63.1364 236.166 62.8911 235.636 62.4006C235.105 61.91 234.84 61.3201 234.84 60.6307C234.84 59.9413 235.105 59.3513 235.636 58.8608C236.166 58.3703 236.802 58.125 237.545 58.125C238.294 58.125 238.93 58.3703 239.454 58.8608C239.984 59.3513 240.249 59.9413 240.249 60.6307C240.249 61.3201 239.984 61.91 239.454 62.4006C238.93 62.8911 238.294 63.1364 237.545 63.1364ZM250.444 80.2784C248.786 80.2784 247.368 79.9503 246.188 79.294C245.008 78.6312 244.103 77.7098 243.473 76.5298C242.844 75.3433 242.529 73.9678 242.529 72.4034C242.529 70.839 242.844 69.4669 243.473 68.2869C244.103 67.1004 245.008 66.179 246.188 65.5227C247.368 64.8598 248.786 64.5284 250.444 64.5284C251.942 64.5284 253.238 64.8002 254.331 65.3438C255.432 65.8807 256.284 66.643 256.887 67.6307C257.49 68.6117 257.795 69.7652 257.802 71.0909H252.711C252.638 70.2888 252.406 69.679 252.015 69.2614C251.63 68.8371 251.133 68.625 250.523 68.625C250.046 68.625 249.628 68.7642 249.27 69.0426C248.912 69.3144 248.634 69.7287 248.435 70.2855C248.236 70.8357 248.137 71.5284 248.137 72.3636C248.137 73.1989 248.236 73.8949 248.435 74.4517C248.634 75.0019 248.912 75.4162 249.27 75.6946C249.628 75.9664 250.046 76.1023 250.523 76.1023C250.928 76.1023 251.285 76.0095 251.597 75.8239C251.909 75.6316 252.16 75.3532 252.353 74.9886C252.552 74.6174 252.671 74.1667 252.711 73.6364H257.802C257.782 74.982 257.473 76.1553 256.877 77.1562C256.28 78.1506 255.435 78.9195 254.341 79.4631C253.254 80.0066 251.955 80.2784 250.444 80.2784Z" fill="black"/>
<path d="M125.92 31.3636V43H123.829V33.1136H118.738V43H116.647V31.3636H125.92ZM128.35 46.2727V34.2727H130.373V35.7159H130.492C130.598 35.5038 130.748 35.2784 130.941 35.0398C131.134 34.7973 131.395 34.5909 131.725 34.4205C132.055 34.2462 132.475 34.1591 132.986 34.1591C133.661 34.1591 134.269 34.3314 134.81 34.6761C135.356 35.017 135.788 35.5227 136.106 36.1932C136.428 36.8598 136.589 37.678 136.589 38.6477C136.589 39.6061 136.431 40.4205 136.117 41.0909C135.803 41.7614 135.375 42.2727 134.833 42.625C134.291 42.9773 133.678 43.1534 132.992 43.1534C132.492 43.1534 132.077 43.0701 131.748 42.9034C131.418 42.7367 131.153 42.536 130.952 42.3011C130.755 42.0625 130.602 41.8371 130.492 41.625H130.407V46.2727H128.35ZM130.367 38.6364C130.367 39.2008 130.447 39.6951 130.606 40.1193C130.769 40.5436 131.002 40.875 131.305 41.1136C131.611 41.3485 131.983 41.4659 132.418 41.4659C132.873 41.4659 133.253 41.3447 133.56 41.1023C133.867 40.8561 134.098 40.5208 134.253 40.0966C134.413 39.6686 134.492 39.1818 134.492 38.6364C134.492 38.0947 134.414 37.6136 134.259 37.1932C134.104 36.7727 133.873 36.4432 133.566 36.2045C133.259 35.9659 132.877 35.8466 132.418 35.8466C131.979 35.8466 131.606 35.9621 131.299 36.1932C130.992 36.4242 130.759 36.7481 130.6 37.1648C130.445 37.5814 130.367 38.072 130.367 38.6364ZM140.861 43.1761C140.308 43.1761 139.81 43.0777 139.367 42.8807C138.928 42.6799 138.579 42.3845 138.322 41.9943C138.068 41.6042 137.941 41.1231 137.941 40.5511C137.941 40.0587 138.032 39.6515 138.214 39.3295C138.395 39.0076 138.644 38.75 138.958 38.5568C139.272 38.3636 139.627 38.2178 140.02 38.1193C140.418 38.017 140.829 37.9432 141.253 37.8977C141.765 37.8447 142.18 37.7973 142.498 37.7557C142.816 37.7102 143.047 37.642 143.191 37.5511C143.339 37.4564 143.413 37.3106 143.413 37.1136V37.0795C143.413 36.6515 143.286 36.3201 143.032 36.0852C142.778 35.8504 142.413 35.733 141.935 35.733C141.431 35.733 141.032 35.8428 140.736 36.0625C140.445 36.2822 140.248 36.5417 140.145 36.8409L138.225 36.5682C138.377 36.0379 138.627 35.5947 138.975 35.2386C139.324 34.8788 139.75 34.6098 140.253 34.4318C140.757 34.25 141.314 34.1591 141.924 34.1591C142.344 34.1591 142.763 34.2083 143.18 34.3068C143.596 34.4053 143.977 34.5682 144.322 34.7955C144.666 35.0189 144.943 35.3239 145.151 35.7102C145.363 36.0966 145.469 36.5795 145.469 37.1591V43H143.492V41.8011H143.424C143.299 42.0436 143.123 42.2708 142.895 42.483C142.672 42.6913 142.39 42.8598 142.049 42.9886C141.712 43.1136 141.316 43.1761 140.861 43.1761ZM141.395 41.6648C141.808 41.6648 142.166 41.5833 142.469 41.4205C142.772 41.2538 143.005 41.0341 143.168 40.7614C143.335 40.4886 143.418 40.1913 143.418 39.8693V38.8409C143.354 38.8939 143.244 38.9432 143.089 38.9886C142.937 39.0341 142.767 39.0739 142.577 39.108C142.388 39.142 142.2 39.1723 142.015 39.1989C141.829 39.2254 141.668 39.2481 141.532 39.267C141.225 39.3087 140.95 39.3769 140.708 39.4716C140.466 39.5663 140.274 39.6989 140.134 39.8693C139.994 40.036 139.924 40.2519 139.924 40.517C139.924 40.8958 140.062 41.1818 140.339 41.375C140.615 41.5682 140.967 41.6648 141.395 41.6648ZM147.538 43V34.2727H151.202C152.236 34.2727 153.053 34.4792 153.651 34.892C154.253 35.3049 154.555 35.8807 154.555 36.6193C154.555 37.108 154.384 37.5076 154.043 37.8182C153.706 38.125 153.246 38.3314 152.663 38.4375C153.121 38.4754 153.522 38.5909 153.867 38.7841C154.216 38.9773 154.488 39.2311 154.685 39.5455C154.882 39.8598 154.981 40.2216 154.981 40.6307C154.981 41.1117 154.854 41.5303 154.6 41.8864C154.35 42.2386 153.985 42.5133 153.503 42.7102C153.026 42.9034 152.447 43 151.765 43H147.538ZM149.464 41.3807H151.765C152.144 41.3807 152.441 41.2917 152.657 41.1136C152.873 40.9318 152.981 40.6856 152.981 40.375C152.981 40.0152 152.873 39.733 152.657 39.5284C152.441 39.3201 152.144 39.2159 151.765 39.2159H149.464V41.3807ZM149.464 37.8864H151.242C151.522 37.8864 151.763 37.8466 151.964 37.767C152.164 37.6837 152.318 37.5682 152.424 37.4205C152.53 37.2689 152.583 37.089 152.583 36.8807C152.583 36.5814 152.46 36.3466 152.214 36.1761C151.971 36.0057 151.634 35.9205 151.202 35.9205H149.464V37.8864ZM158.661 40.2159L162.155 34.2727L164.269 34.2727V43H162.28V37.0511L158.797 43H156.678V34.2727H158.661V40.2159ZM165.779 43L165.768 41.3068H166.069C166.296 41.3068 166.487 41.2557 166.643 41.1534C166.798 41.0511 166.927 40.8807 167.029 40.642C167.131 40.3996 167.211 40.0739 167.268 39.6648C167.324 39.2557 167.364 38.7462 167.387 38.1364L167.54 34.2727H173.904V43H171.915V35.9602H169.41L169.273 38.7727C169.239 39.5 169.158 40.1307 169.029 40.6648C168.904 41.1951 168.726 41.6326 168.495 41.9773C168.268 42.322 167.982 42.5795 167.637 42.75C167.292 42.9167 166.885 43 166.415 43H165.779ZM179.782 43.1705C178.93 43.1705 178.191 42.983 177.566 42.608C176.941 42.233 176.456 41.7083 176.111 41.0341C175.77 40.3598 175.6 39.572 175.6 38.6705C175.6 37.7689 175.77 36.9792 176.111 36.3011C176.456 35.6231 176.941 35.0966 177.566 34.7216C178.191 34.3466 178.93 34.1591 179.782 34.1591C180.634 34.1591 181.373 34.3466 181.998 34.7216C182.623 35.0966 183.106 35.6231 183.447 36.3011C183.791 36.9792 183.964 37.7689 183.964 38.6705C183.964 39.572 183.791 40.3598 183.447 41.0341C183.106 41.7083 182.623 42.233 181.998 42.608C181.373 42.983 180.634 43.1705 179.782 43.1705ZM179.793 41.5227C180.255 41.5227 180.642 41.3958 180.952 41.142C181.263 40.8845 181.494 40.5398 181.645 40.108C181.801 39.6761 181.878 39.1951 181.878 38.6648C181.878 38.1307 181.801 37.6477 181.645 37.2159C181.494 36.7803 181.263 36.4337 180.952 36.1761C180.642 35.9186 180.255 35.7898 179.793 35.7898C179.32 35.7898 178.926 35.9186 178.611 36.1761C178.301 36.4337 178.068 36.7803 177.913 37.2159C177.761 37.6477 177.685 38.1307 177.685 38.6648C177.685 39.1951 177.761 39.6761 177.913 40.108C178.068 40.5398 178.301 40.8845 178.611 41.142C178.926 41.3958 179.32 41.5227 179.793 41.5227ZM194.065 43L195.974 31.3636H197.565L195.655 43H194.065ZM188.82 40L189.087 38.4091H198.042L197.775 40H188.82ZM189.974 43L191.883 31.3636H193.474L191.565 43H189.974ZM189.496 35.9545L189.758 34.3636H198.712L198.451 35.9545H189.496ZM204.128 43.1591C203.31 43.1591 202.583 43.0189 201.947 42.7386C201.314 42.4583 200.814 42.0682 200.447 41.5682C200.079 41.0682 199.884 40.4905 199.861 39.8352H201.998C202.017 40.1496 202.121 40.4242 202.31 40.6591C202.5 40.8902 202.752 41.0701 203.066 41.1989C203.38 41.3277 203.733 41.392 204.123 41.392C204.539 41.392 204.909 41.3201 205.231 41.1761C205.553 41.0284 205.805 40.8239 205.986 40.5625C206.168 40.3011 206.257 40 206.253 39.6591C206.257 39.3068 206.166 38.9962 205.981 38.7273C205.795 38.4583 205.526 38.2481 205.174 38.0966C204.825 37.9451 204.405 37.8693 203.913 37.8693H202.884V36.2443H203.913C204.318 36.2443 204.672 36.1742 204.975 36.0341C205.282 35.8939 205.522 35.697 205.697 35.4432C205.871 35.1856 205.956 34.8883 205.952 34.5511C205.956 34.2216 205.882 33.9356 205.731 33.6932C205.583 33.447 205.373 33.2557 205.1 33.1193C204.831 32.983 204.515 32.9148 204.151 32.9148C203.795 32.9148 203.466 32.9792 203.163 33.108C202.86 33.2367 202.615 33.4205 202.43 33.6591C202.244 33.8939 202.145 34.1742 202.134 34.5H200.106C200.121 33.8485 200.308 33.2765 200.668 32.7841C201.032 32.2879 201.517 31.9015 202.123 31.625C202.729 31.3447 203.409 31.2045 204.163 31.2045C204.939 31.2045 205.613 31.3504 206.185 31.642C206.761 31.9299 207.206 32.3182 207.52 32.8068C207.835 33.2955 207.992 33.8352 207.992 34.4261C207.996 35.0814 207.803 35.6307 207.413 36.0739C207.026 36.517 206.519 36.8068 205.89 36.9432V37.0341C206.708 37.1477 207.335 37.4508 207.77 37.9432C208.21 38.4318 208.428 39.0398 208.424 39.767C208.424 40.4186 208.238 41.0019 207.867 41.517C207.5 42.0284 206.992 42.4299 206.344 42.7216C205.7 43.0133 204.962 43.1591 204.128 43.1591Z" fill="#F0563A"/>
<path d="M80.1974 110V101.273H82.2543V104.795H83.0043L85.6293 101.273H88.1065L84.8736 105.557L88.1406 110H85.652L83.2599 106.71H82.2543V110H80.1974ZM91.8182 110.176C91.2652 110.176 90.767 110.078 90.3239 109.881C89.8845 109.68 89.536 109.384 89.2784 108.994C89.0246 108.604 88.8977 108.123 88.8977 107.551C88.8977 107.059 88.9886 106.652 89.1705 106.33C89.3523 106.008 89.6004 105.75 89.9148 105.557C90.2292 105.364 90.5833 105.218 90.9773 105.119C91.375 105.017 91.786 104.943 92.2102 104.898C92.7216 104.845 93.1364 104.797 93.4545 104.756C93.7727 104.71 94.0038 104.642 94.1477 104.551C94.2955 104.456 94.3693 104.311 94.3693 104.114V104.08C94.3693 103.652 94.2424 103.32 93.9886 103.085C93.7348 102.85 93.3693 102.733 92.892 102.733C92.3883 102.733 91.9886 102.843 91.6932 103.062C91.4015 103.282 91.2045 103.542 91.1023 103.841L89.1818 103.568C89.3333 103.038 89.5833 102.595 89.9318 102.239C90.2803 101.879 90.7064 101.61 91.2102 101.432C91.714 101.25 92.2708 101.159 92.8807 101.159C93.3011 101.159 93.7197 101.208 94.1364 101.307C94.553 101.405 94.9337 101.568 95.2784 101.795C95.6231 102.019 95.8996 102.324 96.108 102.71C96.3201 103.097 96.4261 103.58 96.4261 104.159V110H94.4489V108.801H94.3807C94.2557 109.044 94.0795 109.271 93.8523 109.483C93.6288 109.691 93.3466 109.86 93.0057 109.989C92.6686 110.114 92.2727 110.176 91.8182 110.176ZM92.3523 108.665C92.7652 108.665 93.1231 108.583 93.4261 108.42C93.7292 108.254 93.9621 108.034 94.125 107.761C94.2917 107.489 94.375 107.191 94.375 106.869V105.841C94.3106 105.894 94.2008 105.943 94.0455 105.989C93.8939 106.034 93.7235 106.074 93.5341 106.108C93.3447 106.142 93.1572 106.172 92.9716 106.199C92.786 106.225 92.625 106.248 92.4886 106.267C92.1818 106.309 91.9072 106.377 91.6648 106.472C91.4223 106.566 91.2311 106.699 91.0909 106.869C90.9508 107.036 90.8807 107.252 90.8807 107.517C90.8807 107.896 91.0189 108.182 91.2955 108.375C91.572 108.568 91.9242 108.665 92.3523 108.665ZM98.4943 110V101.273H100.551V104.795H101.301L103.926 101.273H106.403L103.17 105.557L106.438 110H103.949L101.557 106.71H100.551V110H98.4943ZM111.572 110V101.273H115.237C116.271 101.273 117.088 101.479 117.686 101.892C118.288 102.305 118.589 102.881 118.589 103.619C118.589 104.108 118.419 104.508 118.078 104.818C117.741 105.125 117.281 105.331 116.697 105.438C117.156 105.475 117.557 105.591 117.902 105.784C118.25 105.977 118.523 106.231 118.72 106.545C118.917 106.86 119.016 107.222 119.016 107.631C119.016 108.112 118.889 108.53 118.635 108.886C118.385 109.239 118.019 109.513 117.538 109.71C117.061 109.903 116.482 110 115.8 110H111.572ZM113.499 108.381H115.8C116.179 108.381 116.476 108.292 116.692 108.114C116.908 107.932 117.016 107.686 117.016 107.375C117.016 107.015 116.908 106.733 116.692 106.528C116.476 106.32 116.179 106.216 115.8 106.216H113.499V108.381ZM113.499 104.886H115.277C115.557 104.886 115.798 104.847 115.999 104.767C116.199 104.684 116.353 104.568 116.459 104.42C116.565 104.269 116.618 104.089 116.618 103.881C116.618 103.581 116.495 103.347 116.249 103.176C116.006 103.006 115.669 102.92 115.237 102.92H113.499V104.886ZM123.909 112.534V108.307H124.602C124.788 108.163 124.943 107.968 125.068 107.722C125.193 107.472 125.295 107.178 125.375 106.841C125.458 106.5 125.527 106.119 125.58 105.699C125.633 105.275 125.68 104.818 125.722 104.33L125.972 101.273L132.278 101.273V108.307L133.631 108.307V112.534H131.642V110H125.932V112.534H123.909ZM126.716 108.307H130.312V102.932H127.756L127.619 104.33C127.544 105.254 127.443 106.045 127.318 106.705C127.193 107.364 126.992 107.898 126.716 108.307ZM137.149 107.216L140.643 101.273H142.757V110H140.768V104.051L137.286 110H135.166V101.273H137.149V107.216ZM144.869 110V101.273H146.926V104.795H147.676L150.301 101.273H152.778L149.545 105.557L152.812 110H150.324L147.932 106.71H146.926V110H144.869ZM157.426 110.17C156.574 110.17 155.835 109.983 155.21 109.608C154.585 109.233 154.1 108.708 153.756 108.034C153.415 107.36 153.244 106.572 153.244 105.67C153.244 104.769 153.415 103.979 153.756 103.301C154.1 102.623 154.585 102.097 155.21 101.722C155.835 101.347 156.574 101.159 157.426 101.159C158.278 101.159 159.017 101.347 159.642 101.722C160.267 102.097 160.75 102.623 161.091 103.301C161.436 103.979 161.608 104.769 161.608 105.67C161.608 106.572 161.436 107.36 161.091 108.034C160.75 108.708 160.267 109.233 159.642 109.608C159.017 109.983 158.278 110.17 157.426 110.17ZM157.438 108.523C157.9 108.523 158.286 108.396 158.597 108.142C158.907 107.884 159.138 107.54 159.29 107.108C159.445 106.676 159.523 106.195 159.523 105.665C159.523 105.131 159.445 104.648 159.29 104.216C159.138 103.78 158.907 103.434 158.597 103.176C158.286 102.919 157.9 102.79 157.438 102.79C156.964 102.79 156.57 102.919 156.256 103.176C155.945 103.434 155.712 103.78 155.557 104.216C155.405 104.648 155.33 105.131 155.33 105.665C155.33 106.195 155.405 106.676 155.557 107.108C155.712 107.54 155.945 107.884 156.256 108.142C156.57 108.396 156.964 108.523 157.438 108.523ZM165.337 107.216L168.831 101.273H170.945V110H168.956V104.051L165.473 110H163.354V101.273H165.337V107.216ZM168.268 98.2727H169.808C169.808 98.9356 169.568 99.4735 169.087 99.8864C168.609 100.295 167.962 100.5 167.143 100.5C166.333 100.5 165.687 100.295 165.206 99.8864C164.729 99.4735 164.492 98.9356 164.496 98.2727H166.024C166.024 98.5455 166.107 98.7898 166.274 99.0057C166.445 99.2178 166.734 99.3239 167.143 99.3239C167.545 99.3239 167.831 99.2178 168.001 99.0057C168.176 98.7936 168.265 98.5492 168.268 98.2727ZM177.026 110V101.273H184.395V110H182.412V102.96H178.991V110H177.026ZM186.51 113.273V101.273H188.533V102.716H188.652C188.758 102.504 188.908 102.278 189.101 102.04C189.294 101.797 189.555 101.591 189.885 101.42C190.214 101.246 190.635 101.159 191.146 101.159C191.821 101.159 192.429 101.331 192.97 101.676C193.516 102.017 193.947 102.523 194.266 103.193C194.588 103.86 194.749 104.678 194.749 105.648C194.749 106.606 194.591 107.42 194.277 108.091C193.963 108.761 193.535 109.273 192.993 109.625C192.451 109.977 191.838 110.153 191.152 110.153C190.652 110.153 190.237 110.07 189.908 109.903C189.578 109.737 189.313 109.536 189.112 109.301C188.915 109.062 188.762 108.837 188.652 108.625H188.567V113.273H186.51ZM188.527 105.636C188.527 106.201 188.607 106.695 188.766 107.119C188.929 107.544 189.161 107.875 189.464 108.114C189.771 108.348 190.143 108.466 190.578 108.466C191.033 108.466 191.413 108.345 191.72 108.102C192.027 107.856 192.258 107.521 192.413 107.097C192.572 106.669 192.652 106.182 192.652 105.636C192.652 105.095 192.574 104.614 192.419 104.193C192.264 103.773 192.033 103.443 191.726 103.205C191.419 102.966 191.036 102.847 190.578 102.847C190.139 102.847 189.766 102.962 189.459 103.193C189.152 103.424 188.919 103.748 188.76 104.165C188.605 104.581 188.527 105.072 188.527 105.636ZM198.493 107.216L201.987 101.273H204.101V110H202.112V104.051L198.629 110H196.51V101.273H198.493V107.216ZM206.213 113.273V101.273H208.236V102.716H208.355C208.461 102.504 208.611 102.278 208.804 102.04C208.997 101.797 209.259 101.591 209.588 101.42C209.918 101.246 210.338 101.159 210.849 101.159C211.524 101.159 212.132 101.331 212.673 101.676C213.219 102.017 213.651 102.523 213.969 103.193C214.291 103.86 214.452 104.678 214.452 105.648C214.452 106.606 214.295 107.42 213.98 108.091C213.666 108.761 213.238 109.273 212.696 109.625C212.154 109.977 211.541 110.153 210.855 110.153C210.355 110.153 209.94 110.07 209.611 109.903C209.281 109.737 209.016 109.536 208.815 109.301C208.618 109.062 208.465 108.837 208.355 108.625H208.27V113.273H206.213ZM208.23 105.636C208.23 106.201 208.31 106.695 208.469 107.119C208.632 107.544 208.865 107.875 209.168 108.114C209.474 108.348 209.846 108.466 210.281 108.466C210.736 108.466 211.116 108.345 211.423 108.102C211.73 107.856 211.961 107.521 212.116 107.097C212.276 106.669 212.355 106.182 212.355 105.636C212.355 105.095 212.277 104.614 212.122 104.193C211.967 103.773 211.736 103.443 211.429 103.205C211.122 102.966 210.74 102.847 210.281 102.847C209.842 102.847 209.469 102.962 209.162 103.193C208.855 103.424 208.622 103.748 208.463 104.165C208.308 104.581 208.23 105.072 208.23 105.636ZM220.02 110.17C219.168 110.17 218.429 109.983 217.804 109.608C217.179 109.233 216.694 108.708 216.349 108.034C216.009 107.36 215.838 106.572 215.838 105.67C215.838 104.769 216.009 103.979 216.349 103.301C216.694 102.623 217.179 102.097 217.804 101.722C218.429 101.347 219.168 101.159 220.02 101.159C220.872 101.159 221.611 101.347 222.236 101.722C222.861 102.097 223.344 102.623 223.685 103.301C224.029 103.979 224.202 104.769 224.202 105.67C224.202 106.572 224.029 107.36 223.685 108.034C223.344 108.708 222.861 109.233 222.236 109.608C221.611 109.983 220.872 110.17 220.02 110.17ZM220.031 108.523C220.493 108.523 220.88 108.396 221.19 108.142C221.501 107.884 221.732 107.54 221.884 107.108C222.039 106.676 222.116 106.195 222.116 105.665C222.116 105.131 222.039 104.648 221.884 104.216C221.732 103.78 221.501 103.434 221.19 103.176C220.88 102.919 220.493 102.79 220.031 102.79C219.558 102.79 219.164 102.919 218.849 103.176C218.539 103.434 218.306 103.78 218.151 104.216C217.999 104.648 217.923 105.131 217.923 105.665C217.923 106.195 217.999 106.676 218.151 107.108C218.306 107.54 218.539 107.884 218.849 108.142C219.164 108.396 219.558 108.523 220.031 108.523ZM225.175 112.534V108.307H225.868C226.054 108.163 226.209 107.968 226.334 107.722C226.459 107.472 226.561 107.178 226.641 106.841C226.724 106.5 226.792 106.119 226.845 105.699C226.898 105.275 226.946 104.818 226.987 104.33L227.237 101.273H233.544V108.307H234.896V112.534H232.908V110H227.197V112.534H225.175ZM227.982 108.307H231.578V102.932H229.021L228.885 104.33C228.809 105.254 228.709 106.045 228.584 106.705C228.459 107.364 228.258 107.898 227.982 108.307ZM240.295 110.17C239.42 110.17 238.665 109.989 238.028 109.625C237.396 109.258 236.909 108.739 236.568 108.068C236.227 107.394 236.057 106.6 236.057 105.687C236.057 104.79 236.227 104.002 236.568 103.324C236.913 102.642 237.394 102.112 238.011 101.733C238.629 101.35 239.354 101.159 240.188 101.159C240.725 101.159 241.233 101.246 241.71 101.42C242.191 101.591 242.616 101.856 242.983 102.216C243.354 102.576 243.646 103.034 243.858 103.591C244.07 104.144 244.176 104.803 244.176 105.568V106.199H237.023V104.812H242.205C242.201 104.419 242.116 104.068 241.949 103.761C241.782 103.451 241.549 103.206 241.25 103.028C240.955 102.85 240.61 102.761 240.216 102.761C239.795 102.761 239.426 102.864 239.108 103.068C238.79 103.269 238.542 103.534 238.364 103.864C238.189 104.189 238.1 104.547 238.097 104.937V106.148C238.097 106.655 238.189 107.091 238.375 107.455C238.561 107.814 238.82 108.091 239.153 108.284C239.487 108.473 239.877 108.568 240.324 108.568C240.623 108.568 240.894 108.527 241.136 108.443C241.379 108.356 241.589 108.229 241.767 108.062C241.945 107.896 242.08 107.689 242.17 107.443L244.091 107.659C243.97 108.167 243.739 108.61 243.398 108.989C243.061 109.364 242.629 109.655 242.102 109.864C241.576 110.068 240.973 110.17 240.295 110.17Z" fill="#F0563A"/>
</svg>
