<svg width="605" height="199" viewBox="0 0 605 199" fill="none" xmlns="http://www.w3.org/2000/svg">
<mask id="path-1-outside-1_67_1113" maskUnits="userSpaceOnUse" x="0.5" y="2.38419e-07" width="604" height="199" fill="black">
<rect fill="white" x="0.5" y="2.38419e-07" width="604" height="199"/>
<path d="M98.3088 4C46.4996 4 4.5 43.4143 4.5 92.0343C4.5 140.654 46.4996 180.069 98.3088 180.069H467.5C487.663 180.069 506.34 174.099 521.634 163.94C540.302 174.263 577.143 190.637 600.177 195C572.431 185.886 561.307 123.105 561.308 92.0343C561.308 43.4143 519.309 4 467.5 4L98.3088 4Z"/>
</mask>
<path d="M98.3088 4C46.4996 4 4.5 43.4143 4.5 92.0343C4.5 140.654 46.4996 180.069 98.3088 180.069H467.5C487.663 180.069 506.34 174.099 521.634 163.94C540.302 174.263 577.143 190.637 600.177 195C572.431 185.886 561.307 123.105 561.308 92.0343C561.308 43.4143 519.309 4 467.5 4L98.3088 4Z" fill="white"/>
<path d="M98.3088 4V7.84274V4ZM521.634 163.94L523.493 160.578C522.238 159.884 520.702 159.946 519.507 160.739L521.634 163.94ZM600.177 195L599.462 198.776C601.452 199.153 603.393 197.92 603.899 195.959C604.404 193.998 603.301 191.981 601.377 191.349L600.177 195ZM561.308 92.0343L565.151 92.0344V92.0343H561.308ZM467.5 4V0.157261V4ZM8.34274 92.0343C8.34274 45.7629 48.3883 7.84274 98.3088 7.84274V0.157261C44.611 0.157261 0.657261 41.0657 0.657261 92.0343H8.34274ZM98.3088 176.226C48.3883 176.226 8.34274 138.306 8.34274 92.0343H0.657261C0.657261 143.003 44.611 183.911 98.3088 183.911V176.226ZM467.5 176.226H98.3088V183.911H467.5V176.226ZM519.507 160.739C504.837 170.484 486.898 176.226 467.5 176.226V183.911C488.427 183.911 507.842 177.714 523.76 167.141L519.507 160.739ZM600.893 191.224C578.452 186.974 542.031 170.828 523.493 160.578L519.774 167.303C538.573 177.698 575.833 194.3 599.462 198.776L600.893 191.224ZM557.466 92.0341C557.465 107.917 560.293 131.756 566.658 152.861C569.842 163.415 573.961 173.458 579.171 181.521C584.356 189.546 590.869 195.987 598.978 198.651L601.377 191.349C595.613 189.456 590.331 184.632 585.626 177.35C580.946 170.108 577.082 160.805 574.017 150.641C567.884 130.309 565.151 107.223 565.151 92.0344L557.466 92.0341ZM467.5 7.84274C517.421 7.84274 557.466 45.7629 557.466 92.0343H565.151C565.151 41.0657 521.198 0.157261 467.5 0.157261V7.84274ZM98.3088 7.84274H467.5V0.157261H98.3088V7.84274Z" fill="white" mask="url(#path-1-outside-1_67_1113)"/>
<path d="M107.94 62.595V103.322H96.8832V72.7768H96.6445L87.7354 78.1064V68.72L97.7582 62.595H107.94ZM134.041 104.436C130.342 104.423 127.147 103.568 124.456 101.871C121.764 100.174 119.69 97.7276 118.231 94.5325C116.773 91.3374 116.05 87.506 116.064 83.0382C116.077 78.5571 116.806 74.7522 118.251 71.6234C119.709 68.4946 121.778 66.1149 124.456 64.4842C127.147 62.8535 130.342 62.0382 134.041 62.0382C137.74 62.0382 140.935 62.8601 143.626 64.5041C146.317 66.1348 148.392 68.5145 149.85 71.6433C151.309 74.7721 152.031 78.5704 152.018 83.0382C152.018 87.5325 151.289 91.3772 149.831 94.5723C148.372 97.7673 146.297 100.213 143.606 101.91C140.928 103.594 137.74 104.436 134.041 104.436ZM134.041 95.4473C135.95 95.4473 137.514 94.4529 138.734 92.4643C139.967 90.4624 140.577 87.3204 140.564 83.0382C140.564 80.2408 140.285 77.9539 139.728 76.1774C139.172 74.4009 138.403 73.0884 137.422 72.2399C136.44 71.3781 135.314 70.9473 134.041 70.9473C132.132 70.9473 130.574 71.9151 129.368 73.8507C128.161 75.7863 127.545 78.8488 127.518 83.0382C127.505 85.8886 127.777 88.2351 128.333 90.0779C128.89 91.9075 129.659 93.2598 130.64 94.1348C131.635 95.0098 132.768 95.4473 134.041 95.4473ZM174.947 104.436C171.248 104.423 168.053 103.568 165.362 101.871C162.671 100.174 160.596 97.7276 159.137 94.5325C157.679 91.3374 156.957 87.506 156.97 83.0382C156.983 78.5571 157.712 74.7522 159.157 71.6234C160.616 68.4946 162.684 66.1149 165.362 64.4842C168.053 62.8535 171.248 62.0382 174.947 62.0382C178.646 62.0382 181.841 62.8601 184.532 64.5041C187.224 66.1348 189.298 68.5145 190.757 71.6433C192.215 74.7721 192.938 78.5704 192.924 83.0382C192.924 87.5325 192.195 91.3772 190.737 94.5723C189.279 97.7673 187.204 100.213 184.512 101.91C181.834 103.594 178.646 104.436 174.947 104.436ZM174.947 95.4473C176.856 95.4473 178.421 94.4529 179.64 92.4643C180.873 90.4624 181.483 87.3204 181.47 83.0382C181.47 80.2408 181.191 77.9539 180.635 76.1774C180.078 74.4009 179.309 73.0884 178.328 72.2399C177.347 71.3781 176.22 70.9473 174.947 70.9473C173.038 70.9473 171.48 71.9151 170.274 73.8507C169.067 75.7863 168.451 78.8488 168.424 83.0382C168.411 85.8886 168.683 88.2351 169.24 90.0779C169.797 91.9075 170.565 93.2598 171.547 94.1348C172.541 95.0098 173.674 95.4473 174.947 95.4473ZM221.422 95.6859V93.5382C221.422 91.8147 221.793 90.2238 222.535 88.7654C223.291 87.3071 224.385 86.1338 225.816 85.2456C227.248 84.3573 228.992 83.9132 231.047 83.9132C233.154 83.9132 234.924 84.3507 236.356 85.2257C237.801 86.1007 238.895 87.2673 239.637 88.7257C240.38 90.184 240.751 91.7882 240.751 93.5382V95.6859C240.751 97.4094 240.373 99.0003 239.618 100.459C238.875 101.917 237.781 103.09 236.336 103.979C234.891 104.867 233.128 105.311 231.047 105.311C228.965 105.311 227.208 104.867 225.777 103.979C224.345 103.09 223.258 101.917 222.515 100.459C221.786 99.0003 221.422 97.4094 221.422 95.6859ZM228.342 93.5382V95.6859C228.342 96.4416 228.528 97.1906 228.899 97.9331C229.283 98.6622 229.999 99.0268 231.047 99.0268C232.147 99.0268 232.869 98.6689 233.214 97.9529C233.572 97.237 233.751 96.4814 233.751 95.6859V93.5382C233.751 92.7427 233.585 91.9738 233.254 91.2314C232.922 90.4889 232.187 90.1177 231.047 90.1177C229.999 90.1177 229.283 90.4889 228.899 91.2314C228.528 91.9738 228.342 92.7427 228.342 93.5382ZM200.103 72.3791V70.2314C200.103 68.4814 200.481 66.8772 201.237 65.4189C202.006 63.9605 203.106 62.7939 204.538 61.9189C205.97 61.0439 207.7 60.6064 209.728 60.6064C211.836 60.6064 213.606 61.0439 215.038 61.9189C216.483 62.7939 217.577 63.9605 218.319 65.4189C219.062 66.8772 219.433 68.4814 219.433 70.2314V72.3791C219.433 74.1291 219.055 75.7266 218.299 77.1717C217.557 78.6168 216.463 79.7702 215.018 80.6319C213.573 81.4937 211.81 81.9245 209.728 81.9245C207.647 81.9245 205.89 81.487 204.458 80.612C203.027 79.737 201.94 78.577 201.197 77.1319C200.468 75.6868 200.103 74.1026 200.103 72.3791ZM207.103 70.2314V72.3791C207.103 73.1745 207.289 73.9302 207.66 74.6461C208.031 75.362 208.721 75.72 209.728 75.72C210.829 75.72 211.551 75.362 211.896 74.6461C212.254 73.9302 212.433 73.1745 212.433 72.3791V70.2314C212.433 69.4359 212.267 68.667 211.936 67.9245C211.604 67.1821 210.868 66.8109 209.728 66.8109C208.681 66.8109 207.978 67.1954 207.62 67.9643C207.276 68.72 207.103 69.4757 207.103 70.2314ZM203.484 103.322L231.484 62.595H237.132L209.132 103.322H203.484ZM259.066 103.322V62.595H270.123V78.5041H284.76V62.595H295.816V103.322H284.76V87.4132H270.123V103.322H259.066ZM315.941 103.879C312.627 103.879 309.79 103.223 307.43 101.91C305.07 100.585 303.261 98.7418 302.001 96.3819C300.742 94.0088 300.112 91.2579 300.112 88.1291C300.112 85.0003 300.742 82.256 302.001 79.8961C303.261 77.523 305.07 75.6802 307.43 74.3677C309.79 73.042 312.627 72.3791 315.941 72.3791C319.256 72.3791 322.093 73.042 324.453 74.3677C326.813 75.6802 328.622 77.523 329.882 79.8961C331.141 82.256 331.771 85.0003 331.771 88.1291C331.771 91.2579 331.141 94.0088 329.882 96.3819C328.622 98.7418 326.813 100.585 324.453 101.91C322.093 103.223 319.256 103.879 315.941 103.879ZM316.021 95.7654C316.949 95.7654 317.751 95.4539 318.427 94.8308C319.103 94.2077 319.627 93.3194 319.998 92.166C320.369 91.0126 320.555 89.6404 320.555 88.0495C320.555 86.4454 320.369 85.0732 319.998 83.9331C319.627 82.7797 319.103 81.8914 318.427 81.2683C317.751 80.6452 316.949 80.3336 316.021 80.3336C315.04 80.3336 314.198 80.6452 313.495 81.2683C312.793 81.8914 312.256 82.7797 311.885 83.9331C311.513 85.0732 311.328 86.4454 311.328 88.0495C311.328 89.6404 311.513 91.0126 311.885 92.166C312.256 93.3194 312.793 94.2077 313.495 94.8308C314.198 95.4539 315.04 95.7654 316.021 95.7654ZM347.203 62.595V103.322H336.225V62.595H347.203ZM352.796 103.322V72.7768H363.773V103.322H352.796ZM358.284 69.595C356.8 69.595 355.527 69.1045 354.466 68.1234C353.406 67.1423 352.875 65.9624 352.875 64.5836C352.875 63.2048 353.406 62.0249 354.466 61.0439C355.527 60.0628 356.8 59.5723 358.284 59.5723C359.783 59.5723 361.055 60.0628 362.103 61.0439C363.163 62.0249 363.694 63.2048 363.694 64.5836C363.694 65.9624 363.163 67.1423 362.103 68.1234C361.055 69.1045 359.783 69.595 358.284 69.595ZM397.287 82.72H387.184C387.131 82.0969 386.913 81.56 386.528 81.1092C386.144 80.6584 385.646 80.3137 385.037 80.0751C384.44 79.8232 383.777 79.6973 383.048 79.6973C382.107 79.6973 381.298 79.8696 380.622 80.2143C379.946 80.559 379.614 81.0495 379.627 81.6859C379.614 82.1367 379.806 82.5543 380.204 82.9387C380.615 83.3232 381.404 83.6215 382.571 83.8336L388.775 84.9473C391.904 85.5173 394.231 86.4785 395.755 87.8308C397.293 89.1698 398.069 90.9662 398.082 93.22C398.069 95.3942 397.419 97.2834 396.133 98.8876C394.86 100.479 393.117 101.711 390.903 102.586C388.702 103.448 386.19 103.879 383.366 103.879C378.699 103.879 375.047 102.925 372.409 101.015C369.784 99.1064 368.319 96.5874 368.014 93.4586H378.912C379.057 94.4264 379.535 95.1755 380.343 95.7058C381.165 96.2228 382.199 96.4814 383.446 96.4814C384.453 96.4814 385.282 96.309 385.931 95.9643C386.594 95.6196 386.932 95.1291 386.946 94.4927C386.932 93.9094 386.641 93.4454 386.071 93.1007C385.514 92.756 384.639 92.4776 383.446 92.2654L378.037 91.3109C374.921 90.7673 372.588 89.7333 371.037 88.2086C369.485 86.684 368.717 84.7219 368.73 82.3223C368.717 80.2011 369.273 78.4047 370.4 76.9331C371.54 75.4482 373.164 74.3213 375.272 73.5524C377.394 72.7702 379.906 72.3791 382.809 72.3791C387.224 72.3791 390.704 73.2939 393.25 75.1234C395.808 76.9529 397.154 79.4851 397.287 82.72ZM420.504 72.7768V80.7314H400.379V72.7768H420.504ZM404.277 65.4586H415.254V93.4984C415.254 93.9226 415.327 94.2806 415.473 94.5723C415.618 94.8507 415.844 95.0628 416.149 95.2086C416.454 95.3412 416.845 95.4075 417.322 95.4075C417.654 95.4075 418.038 95.3677 418.475 95.2882C418.926 95.2086 419.258 95.1423 419.47 95.0893L421.061 102.805C420.57 102.951 419.868 103.13 418.953 103.342C418.051 103.554 416.977 103.693 415.731 103.76C413.212 103.892 411.098 103.634 409.387 102.984C407.677 102.321 406.391 101.281 405.529 99.862C404.668 98.4435 404.25 96.667 404.277 94.5325V65.4586ZM424.983 103.322V72.7768H435.961V103.322H424.983ZM430.472 69.595C428.987 69.595 427.714 69.1045 426.654 68.1234C425.593 67.1423 425.063 65.9624 425.063 64.5836C425.063 63.2048 425.593 62.0249 426.654 61.0439C427.714 60.0628 428.987 59.5723 430.472 59.5723C431.97 59.5723 433.243 60.0628 434.29 61.0439C435.351 62.0249 435.881 63.2048 435.881 64.5836C435.881 65.9624 435.351 67.1423 434.29 68.1234C433.243 69.1045 431.97 69.595 430.472 69.595ZM456.27 103.879C452.955 103.879 450.118 103.223 447.758 101.91C445.398 100.585 443.589 98.7418 442.329 96.3819C441.07 94.0088 440.44 91.2579 440.44 88.1291C440.44 85.0003 441.07 82.256 442.329 79.8961C443.589 77.523 445.398 75.6802 447.758 74.3677C450.118 73.042 452.955 72.3791 456.27 72.3791C459.266 72.3791 461.858 72.9226 464.045 74.0098C466.246 75.0836 467.949 76.6082 469.156 78.5836C470.362 80.5457 470.972 82.8526 470.985 85.5041H460.804C460.658 83.8999 460.194 82.6802 459.412 81.845C458.643 80.9965 457.648 80.5723 456.429 80.5723C455.474 80.5723 454.639 80.8507 453.923 81.4075C453.207 81.9511 452.65 82.7797 452.252 83.8933C451.855 84.9937 451.656 86.3791 451.656 88.0495C451.656 89.72 451.855 91.112 452.252 92.2257C452.65 93.3261 453.207 94.1547 453.923 94.7115C454.639 95.255 455.474 95.5268 456.429 95.5268C457.237 95.5268 457.953 95.3412 458.576 94.97C459.199 94.5855 459.703 94.0287 460.088 93.2995C460.485 92.5571 460.724 91.6556 460.804 90.595H470.985C470.946 93.2863 470.329 95.6329 469.136 97.6348C467.943 99.6234 466.252 101.161 464.065 102.248C461.891 103.336 459.292 103.879 456.27 103.879Z" fill="black"/>
<path d="M234.013 27.4545V42H231.4V29.642H225.036V42H222.423V27.4545H234.013ZM237.051 46.0909V31.0909H239.58V32.8949H239.729C239.862 32.6297 240.049 32.348 240.29 32.0497C240.532 31.7467 240.858 31.4886 241.27 31.2756C241.682 31.0578 242.208 30.9489 242.847 30.9489C243.69 30.9489 244.45 31.1643 245.127 31.5952C245.809 32.0213 246.348 32.6534 246.746 33.4915C247.149 34.3248 247.35 35.3475 247.35 36.5597C247.35 37.7576 247.153 38.7756 246.76 39.6136C246.367 40.4517 245.832 41.0909 245.155 41.5312C244.478 41.9716 243.711 42.1918 242.854 42.1918C242.229 42.1918 241.711 42.0876 241.299 41.8793C240.887 41.6709 240.555 41.42 240.304 41.1264C240.058 40.8281 239.866 40.5464 239.729 40.2812H239.623V46.0909H237.051ZM239.573 36.5455C239.573 37.2509 239.672 37.8688 239.871 38.3991C240.075 38.9295 240.366 39.3437 240.745 39.642C241.128 39.9356 241.592 40.0824 242.137 40.0824C242.705 40.0824 243.181 39.9309 243.564 39.6278C243.948 39.3201 244.237 38.901 244.431 38.3707C244.63 37.8357 244.729 37.2273 244.729 36.5455C244.729 35.8684 244.632 35.267 244.438 34.7415C244.244 34.2159 243.955 33.804 243.571 33.5057C243.188 33.2074 242.71 33.0582 242.137 33.0582C241.587 33.0582 241.121 33.2027 240.738 33.4915C240.354 33.7803 240.063 34.1851 239.864 34.706C239.67 35.2268 239.573 35.84 239.573 36.5455ZM252.691 42.2202C251.999 42.2202 251.377 42.0971 250.823 41.8509C250.274 41.5999 249.838 41.2306 249.516 40.7429C249.199 40.2552 249.04 39.6539 249.04 38.9389C249.04 38.3234 249.154 37.8144 249.381 37.4119C249.608 37.0095 249.918 36.6875 250.311 36.446C250.704 36.2045 251.147 36.0223 251.64 35.8991C252.137 35.7713 252.65 35.679 253.181 35.6222C253.82 35.5559 254.338 35.4967 254.736 35.4446C255.134 35.3878 255.423 35.3026 255.603 35.1889C255.787 35.0705 255.88 34.8883 255.88 34.642V34.5994C255.88 34.0644 255.721 33.6501 255.404 33.3565C255.087 33.063 254.63 32.9162 254.033 32.9162C253.403 32.9162 252.904 33.0535 252.534 33.3281C252.17 33.6027 251.924 33.9271 251.796 34.3011L249.395 33.9602C249.585 33.2973 249.897 32.7434 250.333 32.2983C250.768 31.8485 251.301 31.5123 251.931 31.2898C252.56 31.0625 253.257 30.9489 254.019 30.9489C254.544 30.9489 255.068 31.0104 255.588 31.1335C256.109 31.2566 256.585 31.4602 257.016 31.7443C257.447 32.0237 257.792 32.4048 258.053 32.8878C258.318 33.3707 258.451 33.9744 258.451 34.6989V42H255.979V40.5014H255.894C255.738 40.8045 255.517 41.0885 255.233 41.3537C254.954 41.6141 254.601 41.8248 254.175 41.9858C253.754 42.142 253.259 42.2202 252.691 42.2202ZM253.358 40.331C253.874 40.331 254.322 40.2292 254.701 40.0256C255.079 39.8172 255.371 39.5426 255.574 39.2017C255.783 38.8608 255.887 38.4891 255.887 38.0866V36.8011C255.806 36.8674 255.669 36.929 255.475 36.9858C255.285 37.0426 255.072 37.0923 254.836 37.1349C254.599 37.1776 254.364 37.2154 254.132 37.2486C253.9 37.2817 253.699 37.3101 253.529 37.3338C253.145 37.3859 252.802 37.4711 252.499 37.5895C252.196 37.7079 251.957 37.8736 251.782 38.0866C251.606 38.295 251.519 38.5649 251.519 38.8963C251.519 39.3698 251.692 39.7273 252.037 39.9688C252.383 40.2102 252.823 40.331 253.358 40.331ZM261.036 42V31.0909L265.617 31.0909C266.909 31.0909 267.93 31.349 268.678 31.8651C269.431 32.3812 269.807 33.1009 269.807 34.0241C269.807 34.6349 269.594 35.1345 269.168 35.5227C268.747 35.9062 268.171 36.1643 267.442 36.2969C268.015 36.3442 268.517 36.4886 268.948 36.7301C269.383 36.9716 269.724 37.2888 269.971 37.6818C270.217 38.0748 270.34 38.527 270.34 39.0384C270.34 39.6397 270.181 40.1629 269.864 40.608C269.551 41.0483 269.095 41.3916 268.493 41.6378C267.897 41.8793 267.172 42 266.32 42H261.036ZM263.444 39.9759H266.32C266.793 39.9759 267.165 39.8646 267.435 39.642C267.705 39.4148 267.84 39.107 267.84 38.7188C267.84 38.2689 267.705 37.9162 267.435 37.6605C267.165 37.4001 266.793 37.2699 266.32 37.2699H263.444V39.9759ZM263.444 35.608H265.667C266.017 35.608 266.318 35.5582 266.569 35.4588C266.819 35.3546 267.011 35.2102 267.144 35.0256C267.276 34.8362 267.343 34.6113 267.343 34.3509C267.343 33.9768 267.189 33.6832 266.881 33.4702C266.578 33.2571 266.157 33.1506 265.617 33.1506H263.444V35.608ZM274.94 38.5199L279.308 31.0909H281.95V42H279.464V34.5639L275.111 42H272.462V31.0909H274.94V38.5199ZM283.838 42L283.824 39.8835H284.2C284.484 39.8835 284.723 39.8196 284.917 39.6918C285.111 39.5639 285.272 39.3509 285.4 39.0526C285.528 38.7495 285.627 38.3423 285.699 37.831C285.77 37.3196 285.819 36.6828 285.848 35.9205L286.039 31.0909H293.994V42H291.508V33.2003H288.376L288.206 36.7159C288.163 37.625 288.061 38.4134 287.9 39.081C287.744 39.7438 287.521 40.2907 287.233 40.7216C286.949 41.1525 286.591 41.4744 286.16 41.6875C285.729 41.8958 285.22 42 284.633 42H283.838ZM301.341 42.2131C300.276 42.2131 299.353 41.9787 298.571 41.5099C297.79 41.0412 297.184 40.3854 296.753 39.5426C296.327 38.6998 296.114 37.715 296.114 36.5881C296.114 35.4612 296.327 34.474 296.753 33.6264C297.184 32.7789 297.79 32.1207 298.571 31.652C299.353 31.1832 300.276 30.9489 301.341 30.9489C302.407 30.9489 303.33 31.1832 304.111 31.652C304.892 32.1207 305.496 32.7789 305.922 33.6264C306.353 34.474 306.569 35.4612 306.569 36.5881C306.569 37.715 306.353 38.6998 305.922 39.5426C305.496 40.3854 304.892 41.0412 304.111 41.5099C303.33 41.9787 302.407 42.2131 301.341 42.2131ZM301.355 40.1534C301.933 40.1534 302.416 39.9948 302.804 39.6776C303.193 39.3556 303.481 38.9247 303.671 38.3849C303.865 37.8452 303.962 37.2438 303.962 36.581C303.962 35.9134 303.865 35.3097 303.671 34.7699C303.481 34.2254 303.193 33.7921 302.804 33.4702C302.416 33.1482 301.933 32.9872 301.355 32.9872C300.764 32.9872 300.271 33.1482 299.878 33.4702C299.49 33.7921 299.199 34.2254 299.005 34.7699C298.815 35.3097 298.721 35.9134 298.721 36.581C298.721 37.2438 298.815 37.8452 299.005 38.3849C299.199 38.9247 299.49 39.3556 299.878 39.6776C300.271 39.9948 300.764 40.1534 301.355 40.1534ZM319.195 42L321.581 27.4545H323.57L321.183 42H319.195ZM312.639 38.25L312.973 36.2614H324.166L323.832 38.25L312.639 38.25ZM314.081 42L316.467 27.4545H318.456L316.07 42L314.081 42ZM313.484 33.1932L313.811 31.2045H325.004L324.678 33.1932H313.484ZM331.775 42.1989C330.752 42.1989 329.843 42.0237 329.047 41.6733C328.257 41.3229 327.632 40.8352 327.172 40.2102C326.713 39.5852 326.469 38.8632 326.441 38.044H329.111C329.135 38.437 329.265 38.7803 329.502 39.0739C329.739 39.3627 330.053 39.5876 330.446 39.7486C330.839 39.9096 331.28 39.9901 331.767 39.9901C332.288 39.9901 332.75 39.9001 333.152 39.7202C333.555 39.5355 333.87 39.2798 334.097 38.9531C334.324 38.6264 334.435 38.25 334.431 37.8239C334.435 37.3835 334.322 36.9953 334.09 36.6591C333.858 36.3229 333.522 36.0601 333.081 35.8707C332.646 35.6813 332.12 35.5866 331.505 35.5866H330.219V33.5554H331.505C332.011 33.5554 332.454 33.4678 332.833 33.2926C333.216 33.1174 333.517 32.8712 333.735 32.554C333.953 32.232 334.059 31.8603 334.054 31.4389C334.059 31.027 333.967 30.6695 333.777 30.3665C333.593 30.0587 333.33 29.8196 332.989 29.6491C332.653 29.4787 332.257 29.3935 331.803 29.3935C331.358 29.3935 330.946 29.474 330.567 29.6349C330.188 29.7959 329.883 30.0256 329.651 30.3239C329.419 30.6174 329.296 30.9678 329.282 31.375H326.746C326.765 30.5606 326.999 29.8456 327.449 29.2301C327.904 28.6098 328.51 28.1269 329.267 27.7812C330.025 27.4309 330.875 27.2557 331.817 27.2557C332.788 27.2557 333.631 27.438 334.346 27.8026C335.065 28.1624 335.622 28.6477 336.015 29.2585C336.408 29.8693 336.604 30.544 336.604 31.2827C336.609 32.1018 336.367 32.7884 335.88 33.3423C335.397 33.8963 334.762 34.2585 333.976 34.429V34.5426C334.999 34.6847 335.783 35.0634 336.327 35.679C336.876 36.2898 337.149 37.0497 337.144 37.9588C337.144 38.7732 336.912 39.5024 336.448 40.1463C335.989 40.7855 335.354 41.2874 334.544 41.652C333.739 42.0166 332.816 42.1989 331.775 42.1989Z" fill="#F0563A"/>
<path d="M176.747 143V132.091H179.318V136.494H180.255L183.537 132.091H186.633L182.592 137.446L186.676 143H183.565L180.575 138.888H179.318V143H176.747ZM191.273 143.22C190.581 143.22 189.959 143.097 189.405 142.851C188.856 142.6 188.42 142.231 188.098 141.743C187.781 141.255 187.622 140.654 187.622 139.939C187.622 139.323 187.736 138.814 187.963 138.412C188.19 138.009 188.5 137.688 188.893 137.446C189.286 137.205 189.729 137.022 190.222 136.899C190.719 136.771 191.232 136.679 191.763 136.622C192.402 136.556 192.92 136.497 193.318 136.445C193.716 136.388 194.005 136.303 194.185 136.189C194.369 136.071 194.462 135.888 194.462 135.642V135.599C194.462 135.064 194.303 134.65 193.986 134.357C193.669 134.063 193.212 133.916 192.615 133.916C191.985 133.916 191.486 134.054 191.116 134.328C190.752 134.603 190.506 134.927 190.378 135.301L187.977 134.96C188.167 134.297 188.479 133.743 188.915 133.298C189.35 132.848 189.883 132.512 190.513 132.29C191.143 132.062 191.839 131.949 192.601 131.949C193.126 131.949 193.65 132.01 194.17 132.134C194.691 132.257 195.167 132.46 195.598 132.744C196.029 133.024 196.375 133.405 196.635 133.888C196.9 134.371 197.033 134.974 197.033 135.699V143H194.561V141.501H194.476C194.32 141.804 194.099 142.089 193.815 142.354C193.536 142.614 193.183 142.825 192.757 142.986C192.336 143.142 191.841 143.22 191.273 143.22ZM191.94 141.331C192.456 141.331 192.904 141.229 193.283 141.026C193.661 140.817 193.953 140.543 194.156 140.202C194.365 139.861 194.469 139.489 194.469 139.087V137.801C194.388 137.867 194.251 137.929 194.057 137.986C193.867 138.043 193.654 138.092 193.418 138.135C193.181 138.178 192.946 138.215 192.714 138.249C192.482 138.282 192.281 138.31 192.111 138.334C191.727 138.386 191.384 138.471 191.081 138.589C190.778 138.708 190.539 138.874 190.364 139.087C190.188 139.295 190.101 139.565 190.101 139.896C190.101 140.37 190.274 140.727 190.619 140.969C190.965 141.21 191.405 141.331 191.94 141.331ZM199.618 143V132.091H202.189V136.494H203.126L206.408 132.091H209.504L205.463 137.446L209.547 143H206.436L203.446 138.888H202.189V143H199.618ZM215.966 143V132.091H220.547C221.839 132.091 222.859 132.349 223.608 132.865C224.36 133.381 224.737 134.101 224.737 135.024C224.737 135.635 224.524 136.134 224.098 136.523C223.676 136.906 223.101 137.164 222.372 137.297C222.945 137.344 223.447 137.489 223.877 137.73C224.313 137.972 224.654 138.289 224.9 138.682C225.146 139.075 225.27 139.527 225.27 140.038C225.27 140.64 225.111 141.163 224.794 141.608C224.481 142.048 224.024 142.392 223.423 142.638C222.826 142.879 222.102 143 221.25 143H215.966ZM218.373 140.976H221.25C221.723 140.976 222.095 140.865 222.365 140.642C222.635 140.415 222.77 140.107 222.77 139.719C222.77 139.269 222.635 138.916 222.365 138.661C222.095 138.4 221.723 138.27 221.25 138.27H218.373V140.976ZM218.373 136.608H220.596C220.947 136.608 221.247 136.558 221.498 136.459C221.749 136.355 221.941 136.21 222.074 136.026C222.206 135.836 222.272 135.611 222.272 135.351C222.272 134.977 222.118 134.683 221.811 134.47C221.508 134.257 221.086 134.151 220.547 134.151H218.373V136.608ZM231.386 146.168V140.884H232.253C232.485 140.704 232.679 140.46 232.835 140.152C232.991 139.839 233.119 139.473 233.219 139.051C233.323 138.625 233.408 138.149 233.474 137.624C233.541 137.093 233.6 136.523 233.652 135.912L233.964 132.091H241.848V140.884H243.538V146.168H241.053V143H233.915V146.168H231.386ZM234.895 140.884H239.391V134.165H236.195L236.024 135.912C235.929 137.067 235.804 138.057 235.648 138.881C235.491 139.705 235.241 140.372 234.895 140.884ZM247.936 139.52L252.304 132.091H254.946V143H252.461V135.564L248.107 143H245.458V132.091H247.936V139.52ZM257.587 143V132.091H260.158V136.494H261.095L264.376 132.091H267.473L263.432 137.446L267.516 143H264.405L261.415 138.888H260.158V143H257.587ZM273.283 143.213C272.217 143.213 271.294 142.979 270.513 142.51C269.732 142.041 269.125 141.385 268.695 140.543C268.268 139.7 268.055 138.715 268.055 137.588C268.055 136.461 268.268 135.474 268.695 134.626C269.125 133.779 269.732 133.121 270.513 132.652C271.294 132.183 272.217 131.949 273.283 131.949C274.348 131.949 275.271 132.183 276.053 132.652C276.834 133.121 277.438 133.779 277.864 134.626C278.295 135.474 278.51 136.461 278.51 137.588C278.51 138.715 278.295 139.7 277.864 140.543C277.438 141.385 276.834 142.041 276.053 142.51C275.271 142.979 274.348 143.213 273.283 143.213ZM273.297 141.153C273.875 141.153 274.357 140.995 274.746 140.678C275.134 140.356 275.423 139.925 275.612 139.385C275.806 138.845 275.903 138.244 275.903 137.581C275.903 136.913 275.806 136.31 275.612 135.77C275.423 135.225 275.134 134.792 274.746 134.47C274.357 134.148 273.875 133.987 273.297 133.987C272.705 133.987 272.213 134.148 271.82 134.47C271.431 134.792 271.14 135.225 270.946 135.77C270.757 136.31 270.662 136.913 270.662 137.581C270.662 138.244 270.757 138.845 270.946 139.385C271.14 139.925 271.431 140.356 271.82 140.678C272.213 140.995 272.705 141.153 273.297 141.153ZM283.171 139.52L287.539 132.091H290.181V143H287.695V135.564L283.341 143H280.692V132.091H283.171V139.52ZM286.836 128.341H288.76C288.76 129.17 288.46 129.842 287.858 130.358C287.262 130.869 286.452 131.125 285.429 131.125C284.416 131.125 283.609 130.869 283.007 130.358C282.411 129.842 282.115 129.17 282.12 128.341H284.03C284.03 128.682 284.134 128.987 284.343 129.257C284.556 129.522 284.918 129.655 285.429 129.655C285.931 129.655 286.289 129.522 286.502 129.257C286.72 128.992 286.831 128.687 286.836 128.341ZM297.782 143V132.091H306.994V143H304.515V134.2H300.239V143H297.782ZM309.637 147.091V132.091H312.166V133.895H312.315C312.448 133.63 312.635 133.348 312.876 133.05C313.118 132.747 313.444 132.489 313.856 132.276C314.268 132.058 314.794 131.949 315.433 131.949C316.276 131.949 317.036 132.164 317.713 132.595C318.395 133.021 318.934 133.653 319.332 134.491C319.734 135.325 319.936 136.348 319.936 137.56C319.936 138.758 319.739 139.776 319.346 140.614C318.953 141.452 318.418 142.091 317.741 142.531C317.064 142.972 316.297 143.192 315.44 143.192C314.815 143.192 314.297 143.088 313.885 142.879C313.473 142.671 313.141 142.42 312.89 142.126C312.644 141.828 312.452 141.546 312.315 141.281H312.208V147.091H309.637ZM312.159 137.545C312.159 138.251 312.258 138.869 312.457 139.399C312.661 139.929 312.952 140.344 313.331 140.642C313.714 140.936 314.178 141.082 314.723 141.082C315.291 141.082 315.767 140.931 316.15 140.628C316.534 140.32 316.823 139.901 317.017 139.371C317.216 138.836 317.315 138.227 317.315 137.545C317.315 136.868 317.218 136.267 317.024 135.741C316.83 135.216 316.541 134.804 316.157 134.506C315.774 134.207 315.296 134.058 314.723 134.058C314.173 134.058 313.707 134.203 313.324 134.491C312.94 134.78 312.649 135.185 312.45 135.706C312.256 136.227 312.159 136.84 312.159 137.545ZM324.616 139.52L328.984 132.091H331.626V143H329.14V135.564L324.787 143H322.137V132.091H324.616V139.52ZM334.266 147.091V132.091H336.795V133.895H336.944C337.076 133.63 337.263 133.348 337.505 133.05C337.746 132.747 338.073 132.489 338.485 132.276C338.897 132.058 339.423 131.949 340.062 131.949C340.905 131.949 341.665 132.164 342.342 132.595C343.023 133.021 343.563 133.653 343.961 134.491C344.363 135.325 344.565 136.348 344.565 137.56C344.565 138.758 344.368 139.776 343.975 140.614C343.582 141.452 343.047 142.091 342.37 142.531C341.693 142.972 340.926 143.192 340.069 143.192C339.444 143.192 338.925 143.088 338.513 142.879C338.102 142.671 337.77 142.42 337.519 142.126C337.273 141.828 337.081 141.546 336.944 141.281H336.837V147.091H334.266ZM336.788 137.545C336.788 138.251 336.887 138.869 337.086 139.399C337.29 139.929 337.581 140.344 337.96 140.642C338.343 140.936 338.807 141.082 339.352 141.082C339.92 141.082 340.396 140.931 340.779 140.628C341.163 140.32 341.451 139.901 341.646 139.371C341.844 138.836 341.944 138.227 341.944 137.545C341.944 136.868 341.847 136.267 341.653 135.741C341.459 135.216 341.17 134.804 340.786 134.506C340.403 134.207 339.924 134.058 339.352 134.058C338.802 134.058 338.336 134.203 337.952 134.491C337.569 134.78 337.278 135.185 337.079 135.706C336.885 136.227 336.788 136.84 336.788 137.545ZM351.525 143.213C350.46 143.213 349.536 142.979 348.755 142.51C347.974 142.041 347.368 141.385 346.937 140.543C346.511 139.7 346.298 138.715 346.298 137.588C346.298 136.461 346.511 135.474 346.937 134.626C347.368 133.779 347.974 133.121 348.755 132.652C349.536 132.183 350.46 131.949 351.525 131.949C352.59 131.949 353.513 132.183 354.295 132.652C355.076 133.121 355.68 133.779 356.106 134.626C356.537 135.474 356.752 136.461 356.752 137.588C356.752 138.715 356.537 139.7 356.106 140.543C355.68 141.385 355.076 142.041 354.295 142.51C353.513 142.979 352.59 143.213 351.525 143.213ZM351.539 141.153C352.117 141.153 352.6 140.995 352.988 140.678C353.376 140.356 353.665 139.925 353.854 139.385C354.049 138.845 354.146 138.244 354.146 137.581C354.146 136.913 354.049 136.31 353.854 135.77C353.665 135.225 353.376 134.792 352.988 134.47C352.6 134.148 352.117 133.987 351.539 133.987C350.947 133.987 350.455 134.148 350.062 134.47C349.674 134.792 349.382 135.225 349.188 135.77C348.999 136.31 348.904 136.913 348.904 137.581C348.904 138.244 348.999 138.845 349.188 139.385C349.382 139.925 349.674 140.356 350.062 140.678C350.455 140.995 350.947 141.153 351.539 141.153ZM357.968 146.168V140.884H358.835C359.067 140.704 359.261 140.46 359.417 140.152C359.574 139.839 359.701 139.473 359.801 139.051C359.905 138.625 359.99 138.149 360.056 137.624C360.123 137.093 360.182 136.523 360.234 135.912L360.547 132.091H368.43V140.884H370.12V146.168H367.635V143L360.497 143V146.168H357.968ZM361.477 140.884H365.973V134.165H362.777L362.606 135.912C362.511 137.067 362.386 138.057 362.23 138.881C362.074 139.705 361.823 140.372 361.477 140.884ZM376.869 143.213C375.776 143.213 374.831 142.986 374.036 142.531C373.245 142.072 372.636 141.423 372.21 140.585C371.784 139.742 371.571 138.75 371.571 137.609C371.571 136.487 371.784 135.502 372.21 134.655C372.641 133.803 373.242 133.14 374.014 132.666C374.786 132.188 375.693 131.949 376.734 131.949C377.407 131.949 378.041 132.058 378.638 132.276C379.239 132.489 379.769 132.82 380.229 133.27C380.693 133.72 381.057 134.293 381.322 134.989C381.588 135.68 381.72 136.504 381.72 137.46V138.249H372.778V136.516H379.256C379.251 136.023 379.144 135.585 378.936 135.202C378.728 134.813 378.437 134.508 378.062 134.286C377.693 134.063 377.262 133.952 376.77 133.952C376.244 133.952 375.783 134.08 375.385 134.335C374.987 134.586 374.677 134.918 374.455 135.33C374.237 135.737 374.125 136.184 374.121 136.672V138.185C374.121 138.819 374.237 139.364 374.469 139.818C374.701 140.268 375.025 140.614 375.442 140.855C375.858 141.092 376.346 141.21 376.905 141.21C377.279 141.21 377.617 141.158 377.92 141.054C378.223 140.945 378.486 140.786 378.709 140.578C378.931 140.37 379.099 140.112 379.213 139.804L381.614 140.074C381.462 140.708 381.173 141.262 380.747 141.736C380.326 142.205 379.786 142.569 379.128 142.83C378.47 143.085 377.717 143.213 376.869 143.213Z" fill="#F0563A"/>
</svg>
