<svg width="96" height="16" viewBox="0 0 96 16" fill="none" xmlns="http://www.w3.org/2000/svg">
<path d="M8 0L10.4452 4.63449L15.6085 5.52786L11.9564 9.28551L12.7023 14.4721L8 12.16L3.29772 14.4721L4.0436 9.28551L0.391548 5.52786L5.55481 4.63449L8 0Z" fill="#FFC115"/>
<path d="M28 0L30.4452 4.63449L35.6085 5.52786L31.9564 9.28551L32.7023 14.4721L28 12.16L23.2977 14.4721L24.0436 9.28551L20.3915 5.52786L25.5548 4.63449L28 0Z" fill="#FFC115"/>
<path d="M48 0L50.4452 4.63449L55.6085 5.52786L51.9564 9.28551L52.7023 14.4721L48 12.16L43.2977 14.4721L44.0436 9.28551L40.3915 5.52786L45.5548 4.63449L48 0Z" fill="#FFC115"/>
<path d="M68 0L70.4452 4.63449L75.6085 5.52786L71.9564 9.28551L72.7023 14.4721L68 12.16L63.2977 14.4721L64.0436 9.28551L60.3915 5.52786L65.5548 4.63449L68 0Z" fill="#FFC115"/>
<path d="M88 0L90.4452 4.63449L95.6085 5.52786L91.9564 9.28551L92.7023 14.4721L88 12.16L83.2977 14.4721L84.0436 9.28551L80.3915 5.52786L85.5548 4.63449L88 0Z" fill="#FFC115"/>
</svg>
