<svg width="32" height="32" viewBox="0 0 32 32" fill="none" xmlns="http://www.w3.org/2000/svg">
<path d="M0 16C0 7.16344 7.16344 0 16 0C24.8366 0 32 7.16344 32 16C32 24.8366 24.8366 32 16 32C7.16344 32 0 24.8366 0 16Z" fill="black"/>
<path d="M8 15C7.44772 15 7 15.4477 7 16C7 16.5523 7.44772 17 8 17L8 15ZM24.7071 16.7071C25.0976 16.3166 25.0976 15.6834 24.7071 15.2929L18.3431 8.92893C17.9526 8.53841 17.3195 8.53841 16.9289 8.92893C16.5384 9.31946 16.5384 9.95262 16.9289 10.3431L22.5858 16L16.9289 21.6569C16.5384 22.0474 16.5384 22.6805 16.9289 23.0711C17.3195 23.4616 17.9526 23.4616 18.3431 23.0711L24.7071 16.7071ZM8 17L24 17L24 15L8 15L8 17Z" fill="white"/>
</svg>
