<svg width="83" height="15" viewBox="0 0 83 15" fill="none" xmlns="http://www.w3.org/2000/svg">
<path d="M7.5 0L9.77914 4.36304L14.6329 5.18237L11.1877 8.69821L11.9084 13.5676L7.5 11.3775L3.09161 13.5676L3.81228 8.69821L0.367076 5.18237L5.22086 4.36304L7.5 0Z" fill="#FFC115"/>
<path d="M24.5 0L26.7791 4.36304L31.6329 5.18237L28.1877 8.69821L28.9084 13.5676L24.5 11.3775L20.0916 13.5676L20.8123 8.69821L17.3671 5.18237L22.2209 4.36304L24.5 0Z" fill="#FFC115"/>
<path d="M41.5 0L43.7791 4.36304L48.6329 5.18237L45.1877 8.69821L45.9084 13.5676L41.5 11.3775L37.0916 13.5676L37.8123 8.69821L34.3671 5.18237L39.2209 4.36304L41.5 0Z" fill="#FFC115"/>
<path d="M58.5 0L60.7791 4.36304L65.6329 5.18237L62.1877 8.69821L62.9084 13.5676L58.5 11.3775L54.0916 13.5676L54.8123 8.69821L51.3671 5.18237L56.2209 4.36304L58.5 0Z" fill="#FFC115"/>
<path d="M75.5 0L77.7791 4.36304L82.6329 5.18237L79.1877 8.69821L79.9084 13.5676L75.5 11.3775L71.0916 13.5676L71.8123 8.69821L68.3671 5.18237L73.2209 4.36304L75.5 0Z" fill="#FFC115"/>
</svg>
