<svg width="260" height="103" viewBox="0 0 260 103" fill="none" xmlns="http://www.w3.org/2000/svg">
<g filter="url(#filter0_dd_624_3724)">
<path d="M210.951 89.0652C230.308 89.0652 246 73.1622 246 53.5449C246 33.9275 230.308 18.0245 210.951 18.0245L61.5709 18.0245C54.0377 18.0245 47.0596 20.4332 41.3454 24.532C34.3706 20.3671 20.6063 13.7604 12 12C22.3666 15.6774 26.5226 41.0083 26.5222 53.5449C26.5222 73.1622 42.214 89.0652 61.5709 89.0652L210.951 89.0652Z" fill="#7AFF8C"/>
<path d="M12.385 10.1176C11.3962 9.91533 10.4194 10.5127 10.1489 11.4851C9.8784 12.4574 10.4064 13.4734 11.3576 13.8108C13.3414 14.5145 15.2478 16.348 16.9938 19.2663C18.721 22.1532 20.1561 25.878 21.2982 29.9671C23.5823 38.145 24.601 47.4369 24.6008 53.5448C24.6008 74.199 41.1288 90.9866 61.5709 90.9866L210.951 90.9866C231.393 90.9866 247.921 74.199 247.921 53.5449C247.921 32.8907 231.393 16.1032 210.951 16.1032L61.5709 16.1032C54.0704 16.1032 47.0885 18.3672 41.2604 22.2547C33.9492 18.0383 20.8754 11.8543 12.385 10.1176Z" stroke="white" stroke-width="3.84274" stroke-linejoin="round"/>
</g>
<path d="M45.2854 58.086C47.1096 58.086 48.2366 57.1022 49.5641 54.0842L53.3557 45.4982C53.4321 45.3168 53.4608 45.1162 53.4608 44.9443C53.4608 44.3999 53.0692 44.037 52.4484 44.037C51.9136 44.037 51.6652 44.2471 51.4265 44.8392L48.2079 52.6898H48.0647L44.741 44.8583C44.4832 44.2375 44.2348 44.037 43.7287 44.037C43.1079 44.037 42.6685 44.4286 42.6685 44.9729C42.6685 45.1448 42.6972 45.3454 42.7832 45.5269L47.0045 54.9342C46.5366 55.7174 45.9826 56.214 44.9034 56.214H44.8843C44.1584 56.214 43.7955 56.5388 43.7955 57.0545C43.7955 57.7135 44.3495 58.086 45.2854 58.086ZM58.1024 58.191C60.5855 58.191 62.1996 56.9399 62.1996 55.0202C62.1996 53.8455 61.5024 53.0337 60.2513 52.7472V52.6707C61.2254 52.4224 61.8462 51.5533 61.8462 50.5314C61.8462 48.7932 60.4614 47.7713 58.1024 47.7713C56.3164 47.7713 54.9507 48.4303 54.454 49.5572C54.3585 49.7769 54.3203 49.9679 54.3203 50.2162C54.3203 50.7224 54.6546 51.0471 55.1799 51.0471C55.5619 51.0471 55.772 50.9134 56.0299 50.5123C56.4692 49.7674 57.0709 49.414 58.1119 49.414C59.2007 49.414 59.831 49.8915 59.831 50.732C59.831 51.6106 59.2484 52.05 58.0833 52.05H57.2619C56.813 52.05 56.517 52.346 56.517 52.814C56.517 53.2724 56.813 53.5685 57.2619 53.5685H58.1119C59.4968 53.5685 60.1558 54.0365 60.1558 55.0298C60.1558 55.9562 59.3726 56.5292 58.1024 56.5292C57.0327 56.5292 56.4406 56.1949 55.858 55.3927C55.5905 55.0489 55.4091 54.9247 55.0366 54.9247C54.5018 54.9247 54.1389 55.259 54.1389 55.7843C54.1389 55.9848 54.1866 56.1949 54.2917 56.3955C54.836 57.5129 56.2782 58.191 58.1024 58.191ZM65.0457 58.1815C65.6665 58.1815 66.0771 57.7517 66.0771 57.0927V53.6258H70.6232V57.0927C70.6232 57.7517 71.0244 58.1815 71.6547 58.1815C72.2755 58.1815 72.6766 57.7517 72.6766 57.0927V48.8696C72.6766 48.2011 72.2755 47.7713 71.6547 47.7713C71.0244 47.7713 70.6232 48.2011 70.6232 48.8696V52.0022H66.0771V48.8696C66.0771 48.2011 65.6665 47.7713 65.0457 47.7713C64.4249 47.7713 64.0238 48.2011 64.0238 48.8696V57.0927C64.0238 57.7517 64.4249 58.1815 65.0457 58.1815ZM77.8626 58.1719C79.1711 58.1719 80.4508 57.4652 81.0334 56.3477H81.0812V57.1977C81.1003 57.809 81.4919 58.1815 82.0649 58.1815C82.6475 58.1815 83.0582 57.7899 83.0582 57.1404V51.0758C83.0582 49.0606 81.5014 47.7713 79.066 47.7713C77.2609 47.7713 75.7424 48.4971 75.2171 49.6336C75.0929 49.8629 75.0356 50.0921 75.0356 50.3022C75.0356 50.8179 75.4081 51.1617 75.9238 51.1617C76.2868 51.1617 76.5542 51.028 76.7643 50.7224C77.3373 49.8056 77.9963 49.4522 78.9896 49.4522C80.2503 49.4522 81.0048 50.1207 81.0048 51.2382V52.0118L78.2446 52.1741C75.8665 52.3078 74.5104 53.387 74.5104 55.1444C74.5104 56.9494 75.8952 58.1719 77.8626 58.1719ZM78.4261 56.5388C77.3278 56.5388 76.5924 55.9657 76.5924 55.0871C76.5924 54.2275 77.2896 53.6831 78.5216 53.5972L81.0048 53.4443V54.2371C81.0048 55.5455 79.8683 56.5388 78.4261 56.5388ZM89.629 46.5679C91.2813 46.5679 92.4751 45.6415 92.7043 44.3712C92.7234 44.2566 92.7425 44.1229 92.7425 44.0083C92.7425 43.5881 92.4942 43.3016 92.0931 43.3016C91.7206 43.3016 91.5296 43.4926 91.415 43.951C91.2049 44.8297 90.565 45.3932 89.6195 45.3932C88.7026 45.3932 88.0722 44.8488 87.843 43.951C87.7284 43.4926 87.5279 43.3016 87.1554 43.3016C86.7638 43.3016 86.5059 43.5785 86.5059 44.0083C86.5059 44.142 86.525 44.2757 86.5537 44.419C86.802 45.6606 87.9767 46.5679 89.629 46.5679ZM86.3531 58.1815C86.9166 58.1815 87.27 57.9809 87.6425 57.4079L91.9021 50.9421H91.9785V57.1213C91.9785 57.7899 92.3987 58.1815 92.9908 58.1815C93.583 58.1815 94.0127 57.7899 94.0127 57.1213V48.9173C94.0127 48.2106 93.5639 47.7713 92.8762 47.7713C92.3127 47.7713 91.9594 47.9814 91.5869 48.5544L87.3368 54.9916H87.2604V48.8314C87.2604 48.1724 86.8307 47.7713 86.2385 47.7713C85.6464 47.7713 85.2262 48.1724 85.2262 48.8314V57.0354C85.2262 57.7421 85.6177 58.1815 86.3531 58.1815ZM104.528 58.191C107.403 58.191 109.294 56.214 109.294 52.9764C109.294 49.7483 107.393 47.7713 104.528 47.7713C101.663 47.7713 99.7622 49.7483 99.7622 52.9764C99.7622 56.214 101.653 58.191 104.528 58.191ZM104.528 56.491C102.914 56.491 101.863 55.2112 101.863 52.9764C101.863 50.7511 102.914 49.4713 104.528 49.4713C106.142 49.4713 107.193 50.7511 107.193 52.9764C107.193 55.2112 106.152 56.491 104.528 56.491ZM116.046 58.1815C116.638 58.1815 117.03 57.809 117.03 57.2168V51.028H117.097L119.78 56.8826C120.019 57.4174 120.334 57.6275 120.86 57.6275C121.385 57.6275 121.7 57.3888 121.939 56.8635L124.623 51.028H124.689V57.2168C124.689 57.7994 125.1 58.1815 125.692 58.1815C126.294 58.1815 126.695 57.809 126.695 57.2168V49.2134C126.695 48.2966 126.179 47.7713 125.272 47.7713C124.508 47.7713 124.116 48.0864 123.753 48.9747L120.926 55.3163H120.85L118.052 48.9747C117.689 48.0864 117.288 47.7713 116.485 47.7713C115.588 47.7713 115.043 48.3252 115.043 49.223V57.2168C115.043 57.7994 115.444 58.1815 116.046 58.1815ZM133.237 58.191C136.112 58.191 138.003 56.214 138.003 52.9764C138.003 49.7483 136.102 47.7713 133.237 47.7713C130.372 47.7713 128.471 49.7483 128.471 52.9764C128.471 56.214 130.362 58.191 133.237 58.191ZM133.237 56.491C131.623 56.491 130.573 55.2112 130.573 52.9764C130.573 50.7511 131.623 49.4713 133.237 49.4713C134.851 49.4713 135.902 50.7511 135.902 52.9764C135.902 55.2112 134.861 56.491 133.237 56.491ZM142.157 46.4533C142.788 46.4533 143.284 45.9567 143.284 45.3359C143.284 44.7151 142.788 44.2184 142.157 44.2184C141.527 44.2184 141.021 44.7151 141.021 45.3359C141.021 45.9567 141.527 46.4533 142.157 46.4533ZM145.834 46.4533C146.455 46.4533 146.961 45.9567 146.961 45.3359C146.961 44.7151 146.455 44.2184 145.834 44.2184C145.204 44.2184 144.698 44.7151 144.698 45.3359C144.698 45.9567 145.204 46.4533 145.834 46.4533ZM144.144 58.191C146.016 58.191 147.477 57.4365 148.136 56.1185C148.222 55.918 148.279 55.7269 148.279 55.5646C148.279 55.0489 147.917 54.7241 147.42 54.7241C147.124 54.7241 146.914 54.8292 146.694 55.0871C145.93 56.1281 145.223 56.5197 144.096 56.5197C142.454 56.5197 141.422 55.3736 141.422 53.5399V53.4921H147.496C148.136 53.4921 148.518 53.1101 148.518 52.4415C148.518 49.7005 146.675 47.7713 144.001 47.7713C141.155 47.7713 139.34 49.8342 139.34 53.0241C139.34 56.2713 141.116 58.191 144.144 58.191ZM141.432 52.05C141.537 50.4837 142.568 49.4331 143.991 49.4331C145.424 49.4331 146.408 50.4741 146.455 52.05H141.432ZM151.288 58.1815C151.88 58.1815 152.272 57.809 152.272 57.2168V51.028H152.338L155.022 56.8826C155.261 57.4174 155.576 57.6275 156.101 57.6275C156.627 57.6275 156.942 57.3888 157.181 56.8635L159.864 51.028H159.931V57.2168C159.931 57.7994 160.342 58.1815 160.934 58.1815C161.536 58.1815 161.937 57.809 161.937 57.2168V49.2134C161.937 48.2966 161.421 47.7713 160.514 47.7713C159.75 47.7713 159.358 48.0864 158.995 48.9747L156.168 55.3163H156.092L153.294 48.9747C152.931 48.0864 152.529 47.7713 151.727 47.7713C150.829 47.7713 150.285 48.3252 150.285 49.223V57.2168C150.285 57.7994 150.686 58.1815 151.288 58.1815ZM169.138 58.1815C169.759 58.1815 170.179 57.7899 170.179 57.1882V53.3679H170.255L174.276 57.723C174.525 58.0191 174.792 58.1815 175.193 58.1815C175.737 58.1815 176.139 57.7708 176.139 57.2359C176.139 56.9781 176.053 56.768 175.833 56.5197L172.204 52.6707L175.671 49.3185C175.929 49.0702 175.995 48.8982 175.995 48.6308C175.995 48.1342 175.594 47.7713 175.079 47.7713C174.773 47.7713 174.572 47.8668 174.314 48.1437L170.255 52.2505H170.179V48.7741C170.179 48.1628 169.759 47.7713 169.138 47.7713C168.527 47.7713 168.126 48.1628 168.126 48.7741V57.1882C168.126 57.7899 168.527 58.1815 169.138 58.1815ZM182.194 58.191C185.068 58.191 186.959 56.214 186.959 52.9764C186.959 49.7483 185.059 47.7713 182.194 47.7713C179.329 47.7713 177.428 49.7483 177.428 52.9764C177.428 56.214 179.319 58.191 182.194 58.191ZM182.194 56.491C180.58 56.491 179.529 55.2112 179.529 52.9764C179.529 50.7511 180.58 49.4713 182.194 49.4713C183.808 49.4713 184.858 50.7511 184.858 52.9764C184.858 55.2112 183.817 56.491 182.194 56.491ZM189.777 61.5624C190.379 61.5624 190.808 61.1422 190.808 60.4641V56.3477H190.856C191.429 57.4652 192.575 58.1719 194.017 58.1719C196.539 58.1719 198.21 56.1567 198.21 52.9764C198.21 49.796 196.529 47.7904 193.979 47.7904C192.528 47.7904 191.372 48.5258 190.78 49.6814H190.742V48.8314C190.742 48.1724 190.321 47.7713 189.739 47.7713C189.156 47.7713 188.745 48.1724 188.745 48.8314V60.4641C188.745 61.1422 189.166 61.5624 189.777 61.5624ZM193.435 56.4241C191.849 56.4241 190.799 55.068 190.799 52.9764C190.799 50.9039 191.859 49.5286 193.435 49.5286C195.068 49.5286 196.09 50.8752 196.09 52.9764C196.09 55.0871 195.068 56.4241 193.435 56.4241ZM200.989 58.1815C201.582 58.1815 201.973 57.809 201.973 57.2168V51.028H202.04L204.724 56.8826C204.962 57.4174 205.278 57.6275 205.803 57.6275C206.328 57.6275 206.643 57.3888 206.882 56.8635L209.566 51.028H209.633V57.2168C209.633 57.7994 210.043 58.1815 210.636 58.1815C211.237 58.1815 211.638 57.809 211.638 57.2168V49.2134C211.638 48.2966 211.123 47.7713 210.215 47.7713C209.451 47.7713 209.06 48.0864 208.697 48.9747L205.87 55.3163H205.793L202.995 48.9747C202.632 48.0864 202.231 47.7713 201.429 47.7713C200.531 47.7713 199.987 48.3252 199.987 49.223V57.2168C199.987 57.7994 200.388 58.1815 200.989 58.1815ZM218.219 58.191C220.091 58.191 221.552 57.4365 222.211 56.1185C222.297 55.918 222.354 55.7269 222.354 55.5646C222.354 55.0489 221.991 54.7241 221.495 54.7241C221.199 54.7241 220.988 54.8292 220.769 55.0871C220.005 56.1281 219.298 56.5197 218.171 56.5197C216.528 56.5197 215.497 55.3736 215.497 53.5399V53.4921H221.571C222.211 53.4921 222.593 53.1101 222.593 52.4415C222.593 49.7005 220.75 47.7713 218.075 47.7713C215.229 47.7713 213.415 49.8342 213.415 53.0241C213.415 56.2713 215.191 58.191 218.219 58.191ZM215.506 52.05C215.611 50.4837 216.643 49.4331 218.066 49.4331C219.498 49.4331 220.482 50.4741 220.53 52.05H215.506Z" fill="black"/>
<defs>
<filter id="filter0_dd_624_3724" x="0.470773" y="0.471261" width="258.979" height="102.044" filterUnits="userSpaceOnUse" color-interpolation-filters="sRGB">
<feFlood flood-opacity="0" result="BackgroundImageFix"/>
<feColorMatrix in="SourceAlpha" type="matrix" values="0 0 0 0 0 0 0 0 0 0 0 0 0 0 0 0 0 0 127 0" result="hardAlpha"/>
<feOffset dx="0.960685" dy="0.960685"/>
<feGaussianBlur stdDeviation="4.32308"/>
<feComposite in2="hardAlpha" operator="out"/>
<feColorMatrix type="matrix" values="0 0 0 0 0 0 0 0 0 0 0 0 0 0 0 0 0 0 0.13 0"/>
<feBlend mode="normal" in2="BackgroundImageFix" result="effect1_dropShadow_624_3724"/>
<feColorMatrix in="SourceAlpha" type="matrix" values="0 0 0 0 0 0 0 0 0 0 0 0 0 0 0 0 0 0 127 0" result="hardAlpha"/>
<feOffset dx="0.960685" dy="1.92137"/>
<feGaussianBlur stdDeviation="1.44103"/>
<feComposite in2="hardAlpha" operator="out"/>
<feColorMatrix type="matrix" values="0 0 0 0 0 0 0 0 0 0 0 0 0 0 0 0 0 0 0.25 0"/>
<feBlend mode="normal" in2="effect1_dropShadow_624_3724" result="effect2_dropShadow_624_3724"/>
<feBlend mode="normal" in="SourceGraphic" in2="effect2_dropShadow_624_3724" result="shape"/>
</filter>
</defs>
</svg>
