<svg width="1053" height="274" viewBox="0 0 1053 274" fill="none" xmlns="http://www.w3.org/2000/svg">
<g clip-path="url(#clip0_621_3723)">
<path d="M444.897 95.5196C437.058 77.6347 417.704 67.7796 398.536 70.7443C396.042 71.1301 393.634 71.7564 391.312 72.5688C390.737 72.5572 390.161 72.5443 389.586 72.5307C389.103 72.5197 389.042 73.0852 389.342 73.3244C375.355 79.0443 365.169 92.1937 362.901 107.475C361.338 118.006 363.791 129.018 370.284 137.539C379.998 150.286 393.315 154.951 399.638 170.281C395.226 172.014 392.404 177.824 394.808 182.181C394.866 182.286 394.954 182.317 395.033 182.371C395.281 183.07 395.894 183.604 396.724 184.018C396.69 184.034 396.656 184.025 396.623 184.053C396.445 184.2 396.314 184.398 396.156 184.568C395.962 184.569 395.768 184.568 395.574 184.569C395.28 184.57 395.28 185.024 395.574 185.025C395.63 185.025 395.685 185.025 395.74 185.025C393.413 188.095 393.701 193.605 397.41 195.362C397.424 195.507 397.481 195.641 397.644 195.716C405.242 199.213 414.921 197.702 422.912 196.315C428.716 195.309 436.926 194.167 441.133 189.377C443.682 191.27 444.972 194.331 444.364 197.408C438.769 202.684 431.506 204.737 424.091 206.025C417.365 207.195 405.291 209.768 399.111 205.099C399.199 204.94 399.234 204.757 399.097 204.547C399.058 204.487 399.029 204.425 398.991 204.364C401.69 204.8 404.411 205.142 407.125 205.457C407.418 205.492 407.49 204.983 407.196 204.938C404.363 204.509 401.517 204.098 398.666 203.806C398.196 202.934 397.891 202.035 397.776 201.129C400.319 201.099 402.859 201.204 405.394 201.395C405.776 201.423 405.765 200.845 405.394 200.806C402.843 200.539 400.3 200.509 397.741 200.613C397.683 199.335 398.007 198.048 398.831 196.806C399.092 196.412 398.524 196.018 398.199 196.318C396.321 198.053 395.73 201.063 396.739 203.394C396.716 203.464 396.719 203.548 396.766 203.639C398.116 206.244 400.169 207.759 402.576 208.602C402.587 208.64 402.569 208.677 402.594 208.714C412.422 223.395 440.925 220.115 443.002 200.974C443.01 200.905 442.99 200.854 442.984 200.793C443.568 200.34 444.164 199.905 444.71 199.395C444.903 199.39 445.087 199.328 445.186 199.116C445.219 199.045 445.234 198.969 445.265 198.897C445.404 198.758 445.564 198.649 445.7 198.506C446.036 198.155 445.984 197.738 445.765 197.439C446.612 193.968 445.374 190.162 442.383 188.07C444.254 185.016 444.127 179.703 441.363 177.038C441.711 176.69 442.057 176.34 442.363 175.957C442.89 175.297 442.307 174.461 441.648 174.572C442.313 169.568 438.657 164.282 433.204 164.271C433.191 164.271 433.185 164.283 433.172 164.284C430.87 148.662 444.154 138.007 447.602 123.691C449.84 114.393 448.721 104.243 444.897 95.5196ZM423.188 216.268C415.732 217.657 408.888 214.665 404.09 209.034C408.86 210.126 414.649 209.104 419.23 208.566C426.652 207.695 434.625 206.252 440.992 202.199C439.355 210.479 430.933 214.825 423.188 216.268ZM441.676 181.797C442.037 183.132 442.024 184.431 441.779 185.718C441.646 185.783 441.518 185.876 441.417 186.039C437.395 192.484 427.699 193.656 420.817 194.761C413.933 195.867 405.542 196.929 398.693 194.941C398.673 194.837 398.643 194.732 398.558 194.647C398.072 194.161 397.646 193.627 397.256 193.075C399.792 193.655 402.372 194.074 404.976 194.127C405.478 194.138 405.462 193.402 404.976 193.358C402.207 193.109 399.466 192.823 396.735 192.289C396.122 191.226 395.749 190.084 395.685 188.928C398.21 188.998 400.741 188.972 403.266 188.938C403.645 188.933 403.645 188.354 403.266 188.349C400.737 188.315 398.201 188.289 395.672 188.36C395.718 187.234 396.11 186.106 396.911 185.029C398.159 185.038 399.407 185.043 400.654 185.037C404.749 185.558 409.718 185.124 410.831 185.024C419.182 184.27 432.462 183.946 439.801 178.404C440.583 179.424 441.3 180.409 441.676 181.797ZM432.961 166.525C433.105 166.405 433.219 166.25 433.288 166.069C435.345 166.595 437.104 167.226 438.528 168.962C440.027 170.789 440.565 173.158 440.357 175.482C440.13 175.672 439.886 175.818 439.654 175.993C439.207 175.96 438.762 176.248 438.726 176.669C434.024 179.769 428.421 180.342 422.788 181.279C420.439 181.67 397.833 185.322 396.014 181.467C395.972 181.234 395.95 181.005 395.92 180.774C395.928 180.698 395.924 180.626 395.945 180.546C395.98 180.412 395.924 180.302 395.844 180.21C395.824 179.972 395.829 179.739 395.823 179.504C395.855 179.525 395.867 179.56 395.912 179.571C398.698 180.253 401.43 180.275 404.219 179.602C404.643 179.499 404.461 178.87 404.04 178.953C401.402 179.471 398.729 179.46 396.1 178.888C395.978 178.861 395.882 178.898 395.806 178.96C395.832 177.45 396.165 176.031 396.799 174.747C399.376 174.967 401.96 175.251 404.546 175.281C404.901 175.285 404.884 174.777 404.546 174.74C402.054 174.465 399.537 174.426 397.031 174.338C397.713 173.125 398.665 172.038 399.976 171.161C400.189 171.715 400.416 172.246 400.612 172.828C400.756 173.26 401.29 173.21 401.451 172.898C401.499 172.914 401.524 172.953 401.583 172.953C411.953 173.133 422.927 171.459 432.63 167.75C433.204 167.53 433.255 166.881 432.961 166.525ZM411.124 170.779C407.284 151.091 397.679 133.289 386.7 116.64C391.851 111.941 400.412 110.819 406.854 113.216C411.373 114.897 415.105 118.16 419.757 119.565C420.51 119.792 421.38 120.047 422.298 120.272C419.061 136.138 419.387 152.518 423.113 168.479C419.133 169.358 415.151 170.153 411.124 170.779ZM446.44 116.48C445.266 134.641 427.553 147.273 431.272 166.054C431.309 166.241 431.385 166.383 431.48 166.499C429.119 167.113 426.78 167.633 424.436 168.166C421.473 151.881 421.545 136.36 424.481 120.709C427.45 121.144 430.399 120.815 431.332 117.876C431.619 116.975 430.384 116.582 429.894 117.27C428.697 118.947 426.895 119.414 424.81 119.192C425.738 114.538 426.879 109.872 428.308 105.167C428.627 104.118 427.051 103.716 426.686 104.719C425.008 109.33 423.671 114.018 422.635 118.751C417.19 117.191 410.645 112.412 407.373 111.202C403.543 109.786 399.491 109.525 395.504 110.411C391.84 111.225 388.439 112.958 385.871 115.4C384.593 113.48 383.302 111.572 381.997 109.681C381.55 109.034 380.512 109.613 380.928 110.305C382.196 112.416 383.465 114.515 384.727 116.609C382.228 119.515 380.827 123.227 381.3 127.498C381.364 128.067 382.23 128.099 382.213 127.498C382.107 123.51 383.394 120.318 385.49 117.876C395.662 134.775 405.268 151.387 409.864 170.988C407.135 171.391 404.383 171.741 401.58 172.004C401.474 172.015 401.407 172.074 401.337 172.127C401.172 171.538 400.944 171.003 400.752 170.438C400.758 170.329 400.721 170.23 400.65 170.146C400.511 169.748 400.327 169.388 400.174 169.002C402.055 169.305 403.927 169.607 405.82 169.819C406.208 169.862 406.296 169.21 405.912 169.134C404.073 168.77 402.227 168.498 400.372 168.223C400.168 168.192 400.029 168.313 399.947 168.458C398.455 164.867 396.408 161.757 394.066 158.904C395.861 159.173 397.681 159.22 399.487 158.961C399.789 158.918 399.716 158.419 399.415 158.43C397.429 158.502 395.48 158.456 393.515 158.257C391.911 156.368 390.171 154.598 388.375 152.879C389.634 153.083 390.892 153.305 392.157 153.462C392.483 153.503 392.562 152.94 392.235 152.884C390.733 152.625 389.22 152.435 387.708 152.24C386.214 150.832 384.686 149.456 383.161 148.079C385.157 148.292 387.118 148.69 389.075 149.233C389.488 149.347 389.652 148.729 389.251 148.595C387.012 147.851 384.707 147.481 382.369 147.362C380.316 145.505 378.297 143.623 376.378 141.66C378.922 142.084 381.491 142.564 384.055 142.687C384.406 142.704 384.481 142.155 384.138 142.074C381.349 141.414 378.425 141.182 375.576 140.831C373.593 138.736 371.757 136.52 370.169 134.098C372.359 134.522 374.558 134.914 376.768 135.209C377.169 135.263 377.259 134.582 376.863 134.501C374.485 134.019 372.08 133.649 369.675 133.316C368.21 130.959 366.992 128.395 366.114 125.546C368.518 125.939 370.928 126.351 373.359 126.531C373.679 126.554 373.757 126.021 373.436 125.964C371.012 125.538 368.552 125.345 366.101 125.134C366.055 125.13 366.021 125.151 365.99 125.174C365.441 123.319 365.053 121.453 364.783 119.588C367.208 119.605 369.566 119.865 371.963 120.262C372.449 120.342 372.668 119.636 372.171 119.509C369.736 118.887 367.189 118.733 364.684 118.873C364.507 117.473 364.41 116.075 364.381 114.682C366.66 114.754 368.943 114.768 371.22 114.688C371.722 114.671 371.723 113.925 371.22 113.907C368.949 113.827 366.673 113.842 364.401 113.913C364.4 111.485 364.639 109.083 365.06 106.724C367.822 106.899 370.589 107.126 373.356 107.081C373.956 107.071 373.928 106.231 373.356 106.168C370.665 105.87 367.95 105.83 365.243 105.747C366.311 100.492 368.402 95.5015 371.295 91.0432C374.111 91.3464 376.93 91.6779 379.757 91.8072C380.301 91.8317 380.444 90.9172 379.889 90.839C377.253 90.4719 374.595 90.2761 371.94 90.0712C373.424 87.9131 375.114 85.9031 376.966 84.0533C380.175 84.3603 383.38 84.6789 386.604 84.7875C387.158 84.8062 387.126 84.01 386.604 83.9466C383.676 83.5892 380.735 83.4076 377.793 83.2305C379.733 81.3976 381.868 79.7753 384.137 78.3463C387.489 78.9726 390.878 79.2569 394.293 78.9306C394.95 78.8679 394.977 77.8628 394.293 77.8848C391.285 77.9824 388.329 77.9372 385.372 77.5869C388.183 75.9549 391.226 74.6901 394.428 73.7826C397.374 73.9888 400.321 74.173 403.271 74.2047C404.038 74.2131 404.016 73.0872 403.271 73.0271C401.812 72.9088 400.347 72.8655 398.883 72.8047C400.087 72.6134 401.297 72.4344 402.541 72.3575C427.482 70.8244 448.048 91.5958 446.44 116.48Z" fill="white"/>
<path d="M377.828 159.083C372.273 161.627 366.629 164.039 361.117 166.668C360.565 166.931 360.954 167.845 361.534 167.656C367.336 165.771 373.048 162.979 378.301 159.892C378.831 159.58 378.367 158.836 377.828 159.083Z" fill="white"/>
<path d="M351.043 120.224C345.316 121.169 339.801 120.893 334.078 120.144C333.48 120.066 333.372 121.037 333.937 121.183C339.651 122.661 345.592 122.474 351.353 121.348C352.095 121.203 351.773 120.104 351.043 120.224Z" fill="white"/>
<path d="M367.415 74.2678C363.117 68.6371 360.094 62.3581 358.097 55.5685C357.914 54.9435 356.98 55.204 357.124 55.8367C358.739 62.9366 361.989 69.275 366.529 74.9516C366.925 75.4474 367.805 74.7778 367.415 74.2678Z" fill="white"/>
<path d="M403.083 42.467C403.162 41.78 401.982 41.6145 401.867 42.3028C401.004 47.4689 400.941 52.6343 401.43 57.8449C401.501 58.6043 402.689 58.6218 402.632 57.8449C402.255 52.6931 402.497 47.593 403.083 42.467Z" fill="white"/>
<path d="M440.009 48.8435C436.087 53.4072 433.661 59.1594 432.004 64.8929C431.764 65.7222 433.027 66.0602 433.29 65.2478C435.138 59.5666 437.99 54.7121 440.99 49.601C441.34 49.0051 440.482 48.2929 440.009 48.8435Z" fill="white"/>
<path d="M472.096 79.2162C469.195 81.5527 466.591 84.2588 463.918 86.8473C463.288 87.4581 464.238 88.4004 464.878 87.8078C467.606 85.2793 470.45 82.8266 472.937 80.0577C473.458 79.4773 472.684 78.7418 472.096 79.2162Z" fill="white"/>
<path d="M473.404 124.665C468.368 126.883 463.416 129.232 458.265 131.185C457.452 131.493 457.791 132.804 458.629 132.506C463.909 130.624 469.186 128.57 474.09 125.838C474.871 125.403 474.184 124.321 473.404 124.665Z" fill="white"/>
<path d="M417.042 213.421C414.412 212.884 411.526 212.268 408.835 212.248C408.573 212.246 408.53 212.621 408.774 212.696C411.347 213.487 414.281 213.766 416.957 214.047C417.313 214.084 417.392 213.492 417.042 213.421Z" fill="white"/>
<path d="M413.147 210.237C410.716 209.782 408.299 209.64 405.83 209.821C405.593 209.838 405.588 210.202 405.83 210.193C408.247 210.105 410.65 210.247 413.039 210.631C413.294 210.672 413.408 210.286 413.147 210.237Z" fill="white"/>
<path d="M402.838 163.693C401.414 163.668 399.989 163.689 398.565 163.693C398.349 163.694 398.348 164.029 398.565 164.03C399.989 164.035 401.414 164.055 402.838 164.03C403.055 164.026 403.055 163.697 402.838 163.693Z" fill="white"/>
<path d="M374.639 98.4485C372.379 98.2301 370.07 98.3878 367.803 98.4182C367.161 98.4266 367.16 99.407 367.803 99.4154C370.07 99.4458 372.379 99.6035 374.639 99.3851C375.241 99.3275 375.242 98.5067 374.639 98.4485Z" fill="white"/>
</g>
<path d="M785.871 50.2994C780.747 48.3688 776.372 45.5394 772.051 42.2249C771.599 41.8786 771.053 42.6215 771.446 43.0077C775.416 46.9141 780.357 49.5657 785.594 51.3647C786.269 51.5969 786.524 50.5456 785.871 50.2994Z" fill="white"/>
<path d="M820.916 20.4494C820.061 13.8158 820.553 7.25415 822.123 0.759239C822.268 0.161508 821.383 -0.0664271 821.202 0.519034C819.173 7.0873 818.838 13.8047 819.869 20.5899C819.959 21.1823 820.994 21.0504 820.916 20.4494Z" fill="white"/>
<path d="M865.047 11.2841C865.435 10.7596 864.55 10.0674 864.131 10.5759C860.99 14.393 858.503 18.587 856.445 23.0788C856.145 23.7334 857.107 24.3082 857.426 23.6461C859.548 19.2554 862.151 15.199 865.047 11.2841Z" fill="white"/>
<path d="M892.202 33.9319C886.846 35.8121 882.152 39.3704 878.095 43.2768C877.508 43.8417 878.38 44.714 878.978 44.1742C883.166 40.4006 887.786 37.7778 892.646 35.0145C893.213 34.6923 892.848 33.705 892.202 33.9319Z" fill="white"/>
<path d="M649.007 181.88C646.428 184.133 644.135 186.716 641.775 189.193C641.219 189.777 642.126 190.609 642.692 190.041C645.105 187.617 647.626 185.259 649.809 182.623C650.267 182.07 649.529 181.422 649.007 181.88Z" fill="white"/>
<path d="M948.511 181.88C945.933 184.133 943.64 186.716 941.28 189.193C940.723 189.777 941.631 190.609 942.197 190.041C944.61 187.617 947.131 185.259 949.314 182.623C949.772 182.07 949.034 181.422 948.511 181.88Z" fill="white"/>
<path d="M707.818 186.767C705.24 189.021 702.947 191.603 700.587 194.08C700.03 194.664 700.937 195.496 701.503 194.928C703.916 192.504 706.438 190.146 708.621 187.51C709.079 186.958 708.341 186.31 707.818 186.767Z" fill="white"/>
<path d="M1007.32 186.767C1004.74 189.021 1002.45 191.603 1000.09 194.08C999.535 194.664 1000.44 195.496 1001.01 194.928C1003.42 192.504 1005.94 190.146 1008.13 187.51C1008.58 186.958 1007.85 186.31 1007.32 186.767Z" fill="white"/>
<path d="M773.165 150.787C770.586 153.04 768.294 155.623 765.933 158.1C765.377 158.684 766.284 159.516 766.85 158.947C769.263 156.524 771.785 154.166 773.967 151.53C774.425 150.977 773.688 150.329 773.165 150.787Z" fill="white"/>
<path d="M826.057 186.857C823.479 189.11 821.186 191.693 818.826 194.17C818.269 194.754 819.177 195.586 819.743 195.018C822.156 192.594 824.677 190.236 826.86 187.6C827.318 187.047 826.58 186.399 826.057 186.857Z" fill="white"/>
<path d="M855.937 155.148C853.359 157.401 851.066 159.984 848.706 162.461C848.149 163.045 849.057 163.877 849.623 163.309C852.036 160.885 854.557 158.527 856.74 155.891C857.198 155.338 856.46 154.69 855.937 155.148Z" fill="white"/>
<path d="M637.66 147.141C634.617 148.708 631.771 150.663 628.886 152.5C628.205 152.933 628.886 153.959 629.572 153.543C632.496 151.771 635.51 150.088 638.261 148.055C638.838 147.629 638.278 146.822 637.66 147.141Z" fill="white"/>
<path d="M937.165 147.141C934.122 148.708 931.276 150.663 928.39 152.5C927.71 152.933 928.391 153.959 929.077 153.543C932.001 151.771 935.015 150.088 937.766 148.055C938.343 147.629 937.783 146.822 937.165 147.141Z" fill="white"/>
<path d="M696.472 152.028C693.428 153.595 690.583 155.551 687.697 157.387C687.017 157.821 687.698 158.846 688.384 158.431C691.308 156.659 694.321 154.976 697.073 152.942C697.65 152.516 697.089 151.71 696.472 152.028Z" fill="white"/>
<path d="M995.977 152.028C992.934 153.595 990.088 155.551 987.202 157.387C986.522 157.821 987.203 158.846 987.889 158.431C990.813 156.659 993.827 154.976 996.578 152.942C997.155 152.516 996.595 151.71 995.977 152.028Z" fill="white"/>
<path d="M761.819 116.047C758.775 117.614 755.93 119.57 753.044 121.406C752.363 121.84 753.045 122.865 753.73 122.45C756.654 120.678 759.668 118.995 762.42 116.962C762.997 116.535 762.436 115.729 761.819 116.047Z" fill="white"/>
<path d="M844.591 120.409C841.547 121.976 838.702 123.931 835.816 125.768C835.136 126.201 835.817 127.227 836.503 126.811C839.427 125.039 842.44 123.356 845.192 121.323C845.769 120.897 845.208 120.09 844.591 120.409Z" fill="white"/>
<path d="M628.332 104.618C625.288 106.186 622.443 108.141 619.557 109.977C618.877 110.411 619.558 111.436 620.243 111.021C623.168 109.249 626.181 107.566 628.933 105.533C629.51 105.106 628.949 104.3 628.332 104.618Z" fill="white"/>
<path d="M927.837 104.618C924.793 106.186 921.948 108.141 919.062 109.977C918.382 110.411 919.063 111.436 919.749 111.021C922.673 109.249 925.687 107.566 928.438 105.533C929.015 105.106 928.455 104.3 927.837 104.618Z" fill="white"/>
<path d="M646.101 176.151C642.421 178.578 639.029 181.494 635.574 184.258C634.759 184.91 635.715 186.184 636.538 185.556C640.047 182.872 643.678 180.296 646.945 177.288C647.63 176.657 646.847 175.658 646.101 176.151Z" fill="white"/>
<path d="M945.606 176.151C941.926 178.578 938.534 181.494 935.079 184.258C934.264 184.91 935.22 186.184 936.043 185.556C939.552 182.872 943.183 180.296 946.45 177.288C947.135 176.657 946.352 175.658 945.606 176.151Z" fill="white"/>
<path d="M704.913 181.038C701.233 183.465 697.841 186.381 694.386 189.145C693.571 189.797 694.527 191.072 695.35 190.443C698.859 187.76 702.49 185.184 705.757 182.175C706.442 181.545 705.659 180.545 704.913 181.038Z" fill="white"/>
<path d="M1004.42 181.038C1000.74 183.465 997.346 186.381 993.891 189.145C993.076 189.797 994.032 191.072 994.855 190.443C998.364 187.76 1001.99 185.184 1005.26 182.175C1005.95 181.545 1005.16 180.545 1004.42 181.038Z" fill="white"/>
<path d="M770.26 145.058C766.58 147.485 763.187 150.401 759.732 153.165C758.918 153.817 759.873 155.091 760.696 154.462C764.206 151.779 767.837 149.203 771.104 146.195C771.789 145.564 771.006 144.565 770.26 145.058Z" fill="white"/>
<path d="M823.152 181.128C819.472 183.555 816.079 186.471 812.624 189.235C811.81 189.887 812.765 191.162 813.589 190.533C817.098 187.849 820.729 185.274 823.996 182.265C824.681 181.635 823.898 180.635 823.152 181.128Z" fill="white"/>
<path d="M853.032 149.419C849.352 151.846 845.959 154.762 842.504 157.526C841.69 158.178 842.645 159.453 843.468 158.824C846.978 156.14 850.609 153.564 853.876 150.556C854.561 149.925 853.778 148.926 853.032 149.419Z" fill="white"/>
<path d="M636.215 140.881C632.061 142.351 628.067 144.366 624.05 146.218C623.103 146.655 623.725 148.122 624.674 147.71C628.725 145.949 632.868 144.322 636.761 142.188C637.578 141.74 637.058 140.582 636.215 140.881Z" fill="white"/>
<path d="M935.72 140.881C931.565 142.351 927.572 144.366 923.555 146.218C922.608 146.655 923.229 148.122 924.179 147.71C928.23 145.949 932.372 144.322 936.266 142.188C937.083 141.74 936.563 140.582 935.72 140.881Z" fill="white"/>
<path d="M626.887 98.3586C622.732 99.8291 618.739 101.844 614.722 103.695C613.775 104.133 614.396 105.6 615.346 105.187C619.397 103.427 623.539 101.8 627.433 99.6654C628.25 99.2182 627.729 98.0597 626.887 98.3586Z" fill="white"/>
<path d="M926.392 98.3586C922.237 99.8291 918.244 101.844 914.227 103.695C913.28 104.133 913.901 105.6 914.851 105.187C918.902 103.427 923.044 101.8 926.938 99.6654C927.754 99.2182 927.234 98.0597 926.392 98.3586Z" fill="white"/>
<path d="M645.135 163.42C640.814 167.086 636.935 171.333 632.952 175.395C632.014 176.353 633.43 177.832 634.383 176.902C638.447 172.934 642.682 169.085 646.387 164.74C647.164 163.83 646.011 162.676 645.135 163.42Z" fill="white"/>
<path d="M945.027 163.42C940.397 167.086 936.241 171.333 931.974 175.395C930.969 176.353 932.486 177.832 933.507 176.902C937.862 172.934 942.4 169.085 946.369 164.74C947.202 163.83 945.966 162.676 945.027 163.42Z" fill="white"/>
<path d="M704.135 168.425C699.814 172.092 695.935 176.338 691.952 180.4C691.014 181.358 692.43 182.837 693.383 181.907C697.447 177.939 701.682 174.091 705.387 169.746C706.164 168.835 705.011 167.681 704.135 168.425Z" fill="white"/>
<path d="M1003.13 168.425C998.814 172.092 994.935 176.338 990.952 180.4C990.014 181.358 991.43 182.837 992.383 181.907C996.447 177.939 1000.68 174.091 1004.39 169.746C1005.16 168.835 1004.01 167.681 1003.13 168.425Z" fill="white"/>
<path d="M769.135 132.385C764.814 136.052 760.935 140.298 756.952 144.36C756.014 145.318 757.43 146.797 758.383 145.867C762.447 141.899 766.682 138.051 770.387 133.706C771.164 132.795 770.011 131.641 769.135 132.385Z" fill="white"/>
<path d="M852.135 137.391C847.814 141.057 843.935 145.304 839.952 149.366C839.014 150.324 840.43 151.803 841.383 150.873C845.447 146.905 849.682 143.056 853.387 138.711C854.164 137.801 853.011 136.646 852.135 137.391Z" fill="white"/>
<path d="M638.287 128.527C633.155 131.075 628.316 134.3 623.421 137.318C622.266 138.031 623.298 139.827 624.459 139.146C629.412 136.24 634.504 133.492 639.196 130.128C640.18 129.423 639.327 128.009 638.287 128.527Z" fill="white"/>
<path d="M937.792 128.527C932.66 131.075 927.821 134.3 922.926 137.318C921.772 138.031 922.803 139.827 923.965 139.146C928.917 136.24 934.01 133.492 938.701 130.128C939.685 129.423 938.833 128.009 937.792 128.527Z" fill="white"/>
<path d="M638.626 160.774C635.665 162.689 632.93 164.997 630.146 167.183C629.49 167.699 630.245 168.725 630.908 168.228C633.734 166.107 636.657 164.073 639.293 161.69C639.845 161.19 639.226 160.385 638.626 160.774Z" fill="white"/>
<path d="M938.131 160.774C935.17 162.689 932.435 164.997 929.651 167.183C928.994 167.699 929.75 168.725 930.413 168.228C933.239 166.107 936.162 164.073 938.798 161.69C939.35 161.19 938.731 160.385 938.131 160.774Z" fill="white"/>
<path d="M697.438 165.662C694.477 167.576 691.742 169.885 688.958 172.071C688.302 172.587 689.057 173.613 689.72 173.116C692.546 170.995 695.469 168.961 698.105 166.577C698.657 166.078 698.038 165.273 697.438 165.662Z" fill="white"/>
<path d="M996.943 165.662C993.982 167.576 991.247 169.885 988.463 172.071C987.806 172.587 988.562 173.613 989.225 173.116C992.051 170.995 994.974 168.961 997.61 166.577C998.162 166.078 997.543 165.273 996.943 165.662Z" fill="white"/>
<path d="M762.784 129.681C759.823 131.596 757.088 133.904 754.304 136.09C753.648 136.606 754.403 137.632 755.066 137.135C757.893 135.014 760.816 132.98 763.451 130.596C764.004 130.097 763.384 129.292 762.784 129.681Z" fill="white"/>
<path d="M845.556 134.042C842.595 135.957 839.86 138.265 837.077 140.451C836.42 140.967 837.175 141.994 837.838 141.497C840.665 139.375 843.588 137.341 846.223 134.958C846.776 134.458 846.157 133.653 845.556 134.042Z" fill="white"/>
<path d="M632.649 124.156C629.315 125.302 626.106 126.885 622.879 128.337C622.118 128.68 622.605 129.859 623.368 129.535C626.621 128.156 629.946 126.884 633.076 125.205C633.733 124.853 633.325 123.923 632.649 124.156Z" fill="white"/>
<path d="M932.154 124.156C928.82 125.302 925.611 126.885 922.384 128.337C921.623 128.68 922.11 129.859 922.873 129.535C926.126 128.156 929.451 126.884 932.581 125.205C933.238 124.853 932.83 123.923 932.154 124.156Z" fill="white"/>
<path d="M634.674 156.31C631.896 158.405 629.402 160.831 626.842 163.153C626.239 163.7 627.149 164.545 627.762 164.014C630.375 161.747 633.097 159.547 635.479 157.064C635.979 156.544 635.237 155.885 634.674 156.31Z" fill="white"/>
<path d="M934.674 156.31C931.896 158.405 929.402 160.831 926.842 163.153C926.239 163.7 927.149 164.545 927.762 164.014C930.375 161.747 933.097 159.547 935.479 157.064C935.979 156.544 935.237 155.885 934.674 156.31Z" fill="white"/>
<path d="M693.674 160.331C690.896 162.688 688.402 165.418 685.842 168.029C685.239 168.645 686.149 169.596 686.762 168.998C689.375 166.448 692.097 163.973 694.479 161.18C694.979 160.595 694.237 159.853 693.674 160.331Z" fill="white"/>
<path d="M992.782 160.331C990.312 162.688 988.096 165.418 985.82 168.029C985.284 168.645 986.093 169.596 986.638 168.998C988.96 166.448 991.38 163.973 993.497 161.18C993.941 160.595 993.282 159.853 992.782 160.331Z" fill="white"/>
<path d="M758.782 125.275C756.312 127.37 754.096 129.797 751.82 132.118C751.284 132.666 752.093 133.511 752.638 132.979C754.96 130.712 757.38 128.513 759.497 126.03C759.941 125.509 759.282 124.85 758.782 125.275Z" fill="white"/>
<path d="M841.674 129.297C838.896 131.654 836.402 134.384 833.842 136.995C833.239 137.611 834.149 138.562 834.762 137.964C837.375 135.413 840.097 132.939 842.479 130.146C842.979 129.56 842.237 128.818 841.674 129.297Z" fill="white"/>
<path d="M625.674 113.279C622.896 115.636 620.402 118.366 617.842 120.977C617.239 121.593 618.149 122.544 618.762 121.946C621.375 119.395 624.097 116.921 626.479 114.128C626.979 113.542 626.237 112.801 625.674 113.279Z" fill="white"/>
<path d="M924.782 113.279C922.312 115.636 920.096 118.366 917.82 120.977C917.284 121.593 918.093 122.544 918.638 121.946C920.96 119.395 923.38 116.921 925.497 114.128C925.941 113.542 925.282 112.801 924.782 113.279Z" fill="white"/>
<path d="M630.139 118.549C626.981 120.117 624.003 122.102 620.991 123.96C620.281 124.398 620.915 125.504 621.63 125.084C624.678 123.296 627.811 121.605 630.699 119.535C631.304 119.101 630.78 118.231 630.139 118.549Z" fill="white"/>
<path d="M929.644 118.549C926.486 120.117 923.508 122.102 920.496 123.96C919.785 124.398 920.42 125.504 921.135 125.084C924.183 123.296 927.316 121.605 930.203 119.535C930.809 119.101 930.285 118.231 929.644 118.549Z" fill="white"/>
<path d="M813.565 192.964L813.638 193.018L813.716 193.063C825.031 199.549 835.52 200.849 843.985 194.414C849.354 190.748 852.499 186.459 853.531 182.262C854.575 178.014 853.414 173.974 850.403 171.137C845.364 166.388 835.47 167.157 831.933 176.481C831.254 178.27 830.447 180.287 829.135 181.642C828.508 182.29 827.796 182.749 826.952 182.963C826.134 183.17 825.081 183.175 823.706 182.751C823.134 182.439 822.539 182.091 821.919 181.706C818.819 179.44 814.457 180.081 812.147 183.159C809.821 186.258 810.458 190.649 813.565 192.964ZM982.942 148.895L994.635 185.792C997.071 193.48 1004.12 198.715 1012.11 198.719C1020.46 198.723 1027.74 193.022 1029.88 184.866L1050.62 105.52C1053.22 95.5854 1045.85 85.7924 1035.65 85.7876C1028.35 85.7842 1022.06 90.9371 1020.51 98.1341L1010.46 144.628L999.647 111.732C997.257 104.458 990.543 99.5303 982.957 99.5267C975.378 99.5231 968.665 104.434 966.261 111.696L955.429 144.422L945.43 98.0913C943.877 90.8961 937.592 85.7414 930.297 85.738C920.097 85.7331 912.716 95.5214 915.305 105.461L935.974 184.822C938.098 192.98 945.375 198.688 953.724 198.692C961.713 198.695 968.771 193.467 971.215 185.781L982.942 148.895ZM636.334 184.681C638.459 192.839 645.736 198.546 654.085 198.55C662.073 198.554 669.131 193.326 671.575 185.64L683.302 148.754L694.995 185.651C697.432 193.339 704.485 198.574 712.474 198.578C720.823 198.582 728.105 192.881 730.237 184.725L750.98 105.379C753.577 95.4441 746.207 85.6512 736.009 85.6464C728.712 85.6429 722.422 90.7958 720.866 97.9927L710.818 144.487L700.008 111.591C697.617 104.317 690.903 99.389 683.317 99.3854C675.739 99.3818 669.025 104.293 666.622 111.554L655.79 144.28L645.79 97.95C644.237 90.7548 637.952 85.6001 630.657 85.5967C620.457 85.5919 613.076 95.3802 615.665 105.32L636.334 184.681ZM874.262 169.859C886.527 169.865 896.399 165.365 903.193 157.799C909.97 150.251 913.582 139.768 913.588 127.954C913.593 116.14 909.99 105.683 903.218 98.16C896.429 90.6183 886.561 86.1436 874.301 86.1378C862.04 86.1321 852.167 90.5975 845.372 98.1327C838.593 105.65 834.98 116.103 834.975 127.917C834.97 139.731 838.573 150.217 845.343 157.771C852.13 165.344 861.998 169.853 874.262 169.859ZM893.84 128.021C893.835 138.67 885.166 147.307 874.466 147.302C863.765 147.297 855.104 138.651 855.109 128.003C855.114 117.354 863.783 108.717 874.483 108.722C885.184 108.727 893.845 117.372 893.84 128.021ZM791.962 169.394C804.227 169.4 814.099 164.9 820.893 157.334C827.67 149.786 831.282 139.303 831.288 127.489C831.293 115.675 827.69 105.218 820.918 97.6949C814.129 90.1533 804.261 85.6785 792.001 85.6727C779.74 85.667 769.868 90.1324 763.072 97.6677C756.293 105.184 752.68 115.637 752.675 127.452C752.67 139.266 756.273 149.752 763.043 157.306C769.83 164.879 779.698 169.388 791.962 169.394ZM811.482 127.982C811.477 138.631 802.808 147.268 792.108 147.263C781.407 147.258 772.746 138.613 772.751 127.964C772.756 117.315 781.425 108.678 792.125 108.683C802.826 108.688 811.487 117.334 811.482 127.982Z" stroke="white" stroke-width="3"/>
<g clip-path="url(#clip1_621_3723)">
<path d="M596.973 192.687C592.58 190.449 587.773 188.958 583.215 187.217C582.635 186.969 581.971 187.632 581.971 188.129C582.055 191.029 581.972 194.096 582.883 196.831L582.8 196.914C573.435 207.771 555.036 208.931 541.776 209.594C526.526 210.423 510.448 208.931 497.021 201.307C495.53 200.146 493.955 198.903 492.546 197.494C491.883 196.831 490.971 197.743 491.552 198.489C491.8 198.737 492.049 198.986 492.297 199.235C491.966 199.566 491.966 200.063 492.38 200.478C493.375 201.307 494.535 201.97 495.613 202.715C518.736 224.512 562.744 223.766 586.033 203.296C586.613 205.368 587.359 207.439 587.856 209.594C588.021 210.589 589.265 210.506 589.762 209.843C593.326 205.119 595.066 199.4 597.387 194.096C597.635 193.682 597.635 193.019 596.973 192.687ZM589.182 207.108C588.602 205.533 587.856 204.124 587.359 202.467C587.11 201.886 586.53 201.804 586.198 201.97C585.95 201.721 585.618 201.721 585.287 201.887C562.164 218.379 532.576 220.949 508.293 208.6C519.398 211.915 531.664 212.246 542.853 211.666C551.058 211.252 559.097 210.174 566.97 208.102C573.103 206.445 580.065 203.627 583.132 197.743C583.546 198.654 584.872 197.991 584.706 197.163C584.375 194.676 584.126 192.273 584.043 189.869C587.773 191.278 591.585 192.604 595.149 194.345C593.243 198.572 591.668 203.13 589.182 207.108Z" fill="white"/>
</g>
<g clip-path="url(#clip2_621_3723)">
<path d="M324.973 204.687C320.58 202.449 315.773 200.958 311.215 199.217C310.635 198.969 309.971 199.632 309.971 200.129C310.055 203.029 309.972 206.096 310.883 208.831L310.8 208.914C301.435 219.771 283.036 220.931 269.776 221.594C254.526 222.423 238.448 220.931 225.021 213.307C223.53 212.146 221.955 210.903 220.546 209.494C219.883 208.831 218.971 209.743 219.552 210.489C219.8 210.737 220.049 210.986 220.297 211.235C219.966 211.566 219.966 212.063 220.38 212.478C221.375 213.307 222.535 213.97 223.613 214.715C246.736 236.512 290.744 235.766 314.033 215.296C314.613 217.368 315.359 219.439 315.856 221.594C316.021 222.589 317.265 222.506 317.762 221.843C321.326 217.119 323.066 211.4 325.387 206.096C325.635 205.682 325.635 205.019 324.973 204.687ZM317.182 219.108C316.602 217.533 315.856 216.124 315.359 214.467C315.11 213.886 314.53 213.804 314.198 213.97C313.95 213.721 313.618 213.721 313.287 213.887C290.164 230.379 260.576 232.949 236.293 220.6C247.398 223.915 259.664 224.246 270.853 223.666C279.058 223.252 287.097 222.174 294.97 220.102C301.103 218.445 308.065 215.627 311.132 209.743C311.546 210.654 312.872 209.991 312.706 209.163C312.375 206.676 312.126 204.273 312.043 201.869C315.773 203.278 319.585 204.604 323.149 206.345C321.243 210.572 319.668 215.13 317.182 219.108Z" fill="white"/>
</g>
<g clip-path="url(#clip3_621_3723)">
<path d="M117.187 58.5984C69.3218 46.0321 22.1428 74.1066 12.9075 116.685C12.7701 116.815 12.7454 117.021 12.8164 117.184C9.90417 131.086 11.0059 146.506 17.4629 162.563C33.9635 203.594 75.3886 203.041 111.37 190.254C113.941 208.418 137.897 215.051 153.388 212.453C154.386 212.286 154.687 210.967 153.881 210.369C146.445 204.855 141.259 197.685 138.41 188.946C168.143 184.152 181.726 153.876 179.273 125.825C176.131 89.8908 151.11 67.5039 117.187 58.5984ZM135.4 186.754C133.746 186.946 134.167 189.48 135.813 189.302C135.931 189.289 136.044 189.267 136.161 189.254C138.88 197.771 143.563 204.825 150.362 210.505C145.074 211.028 139.363 210.54 133.991 209.03C134.925 209.229 136.352 208.89 137.265 208.818C138.717 208.704 140.15 208.548 141.591 208.33C141.95 208.275 141.957 207.664 141.574 207.671C140.394 207.693 139.227 207.736 138.049 207.835C137.429 207.887 136.809 207.946 136.188 208.003C135.972 208.022 134.623 208.259 133.974 208.375C134.044 208.284 134.071 208.159 133.978 208.061L133.868 207.945C133.784 207.856 133.664 207.822 133.55 207.871C132.81 208.194 133.202 208.747 133.743 208.959C130.344 207.982 127.098 206.575 124.189 204.743C127.703 204.313 131.227 204.02 134.767 203.856C135.284 203.832 135.265 202.941 134.744 202.939C130.769 202.925 126.844 203.299 122.925 203.911C121.09 202.627 119.422 201.15 117.962 199.486C120.974 199.52 123.995 199.615 127.003 199.471C127.433 199.45 127.415 198.722 126.983 198.709C123.86 198.611 120.725 198.778 117.602 198.858C117.55 198.859 117.52 198.892 117.479 198.911C116.142 197.292 115.029 195.482 114.136 193.514C117.775 193.144 121.414 192.545 124.894 191.404C125.358 191.251 125.12 190.458 124.642 190.576C121.044 191.465 117.491 192.29 113.814 192.747C113.287 191.465 112.827 190.136 112.521 188.706C112.337 187.851 111.163 188.047 111.172 188.877C90.3177 195.395 66.7842 200.965 46.0972 191.163C54.876 190.901 63.6562 190.572 72.4255 190.111C72.9994 190.081 72.8421 189.22 72.2837 189.236C63.0406 189.508 53.7975 189.921 44.5629 190.412C41.5481 188.853 38.7927 186.988 36.2516 184.903C41.6062 185.214 46.9813 185.275 52.3265 184.792C52.8866 184.742 52.7293 183.92 52.1889 183.943C46.5203 184.179 40.884 184.312 35.2175 184.048C32.6117 181.787 30.3008 179.237 28.1969 176.519C32.6008 176.149 37.0071 175.789 41.3974 175.286C41.9691 175.22 41.8175 174.368 41.2556 174.411C36.683 174.761 32.1238 175.265 27.5647 175.752C25.6295 173.158 23.9336 170.38 22.4232 167.489C27.1987 167.523 31.9331 167.115 36.6399 166.216C37.2234 166.104 37.0819 165.209 36.4918 165.302C31.6614 166.06 26.8209 166.432 21.9416 166.525C20.7529 164.155 19.7467 161.689 18.823 159.188C28.5338 157.782 38.2725 156.479 47.8994 154.569C48.4595 154.458 48.3243 153.628 47.7576 153.694C37.9508 154.836 28.2231 156.597 18.4922 158.246C17.529 155.529 16.7189 152.756 16.0449 149.955C16.2632 150.171 16.3622 150.221 16.7267 150.134C16.8984 150.094 16.9971 149.958 16.9819 149.78C16.9798 149.754 16.9776 149.728 16.9755 149.702C19.3622 149.646 28.541 148.346 29.4825 148.125C30.064 147.988 29.9349 147.099 29.3323 147.198C26.2636 147.704 23.1701 148.153 20.0749 148.46C18.7914 148.587 16.5973 148.157 15.9447 149.507C15.458 147.433 15.0344 145.345 14.7236 143.247C14.4897 141.668 14.3698 140.104 14.2325 138.537C19.5185 138.246 24.8091 137.873 30.0697 137.298C30.6218 137.237 30.4657 136.437 29.9342 136.461C24.6641 136.706 19.3953 137.152 14.1432 137.68C13.8986 134.483 13.9182 131.334 14.0633 128.214C25.1036 126.834 36.1355 125.438 47.1359 123.764C47.8851 123.65 47.6957 122.516 46.9483 122.606C35.9756 123.934 25.0465 125.535 14.114 127.155C14.3143 123.855 14.7657 120.618 15.3839 117.437C20.9081 117.533 26.3399 116.941 31.6997 115.43C32.3029 115.26 32.1627 114.29 31.5413 114.452C26.263 115.834 20.9589 116.549 15.5359 116.566C16.418 112.305 17.6979 108.184 19.2922 104.212C25.5752 103.806 31.8611 103.521 38.1332 102.965C38.6492 102.919 38.507 102.155 38.0061 102.18C31.8491 102.484 25.7135 103.046 19.567 103.501C21.3587 99.1698 23.5841 95.0505 26.1692 91.1656C32.427 90.8093 38.6881 90.4908 44.9287 89.8929C45.64 89.8246 45.4428 88.7784 44.7536 88.8119C38.7628 89.1065 32.7894 89.6575 26.8151 90.1859C35.7753 77.1875 49.0672 67.0775 65.5601 61.8147C98.2858 51.3711 143.304 62.2353 164.644 90.3551C187.92 121.026 179.404 181.637 135.4 186.754Z" fill="white"/>
<path d="M86.9834 80.0747C58.5487 80.3604 38.3479 121.681 69.0397 135.47C69.2926 135.584 69.5126 135.482 69.691 135.325C70.0154 135.574 70.4956 135.6 70.8187 135.157C72.5919 132.731 74.3467 130.293 76.2414 127.96C77.2479 126.72 79.6955 124.827 79.9364 123.131C80.3192 120.44 76.5855 117.517 75.6658 115.348C70.3891 102.906 86.3517 98.4823 93.8759 106.344C99.0684 111.77 103.084 126.319 92.634 129.306C92.3176 129.396 92.1025 129.589 91.9616 129.82C91.6657 128.678 89.7919 129.076 89.8437 130.386C90.2606 140.98 91.599 151.492 93.5716 161.904C93.7093 162.631 94.4751 163.057 95.1616 162.753C100.528 160.378 105.836 159.171 111.675 158.943C112.238 158.922 112.758 158.187 112.607 157.651C110.578 150.454 109.201 143.041 107.007 135.898C107.179 135.938 107.364 135.937 107.556 135.847C136.57 122.151 113.201 79.811 86.9834 80.0747ZM106.588 134.302C106.44 134.411 106.361 134.546 106.31 134.687C105.981 134.682 105.613 134.953 105.637 135.34C105.852 138.834 106.51 142.227 107.253 145.645C107.655 147.493 110.421 154.274 109.755 155.777C108.929 157.643 104.616 157.307 102.7 157.748C100.239 158.314 97.8898 159.177 95.5705 160.148C93.8237 150.595 92.7448 141.013 92.1138 131.325C92.3217 131.516 92.6128 131.612 92.991 131.505C108.89 126.983 99.8518 102.267 86.7506 99.9405C80.8293 98.8885 74.5096 101.935 72.6926 107.913C71.3528 112.321 73.439 114.904 75.0691 118.788C76.4791 122.146 76.3655 123.475 74.5554 126.742C73.1375 129.301 71.0495 131.616 69.5105 134.136C41.4901 118.18 61.5183 79.6811 90.1741 82.6494C115.253 85.2485 127.971 118.564 106.588 134.302Z" fill="white"/>
<path d="M112.608 163.083C111.12 162.383 108.356 163.457 106.928 163.715C103.772 164.287 100.502 164.686 97.4666 165.739C96.996 165.903 97.1261 166.715 97.6256 166.72C99.5079 166.739 101.331 166.455 103.195 166.202C105.304 165.916 108.534 164.775 110.605 165.138C112.597 165.488 112.201 168.577 112.42 170.443C112.659 172.479 112.899 174.514 113.133 176.551C109.441 176.568 105.819 177.106 102.307 178.33C101.724 178.533 100.033 179.629 99.4313 179.499C97.658 179.114 97.7393 176.828 97.5287 175.533C97.2557 173.857 95.6452 168.998 96.8067 167.518C97.7156 166.359 95.9466 165.195 94.9988 166.214C93.2859 168.057 94.4696 171.106 94.8169 173.288C95.1687 175.499 94.9093 179.938 96.6585 181.563C97.9343 182.748 99.6242 181.947 100.98 181.388C105.299 179.607 109.594 178.72 114.277 178.785C115.02 178.796 115.616 178.261 115.515 177.481C115.051 173.901 114.664 170.308 114.164 166.733C113.986 165.463 113.991 163.733 112.608 163.083Z" fill="white"/>
<path d="M54.4843 76.4059C48.6902 77.4542 42.8574 78.2551 36.9792 78.6174C36.5291 78.6449 36.5448 79.43 37.0002 79.418C42.9626 79.2637 48.8125 78.6695 54.6476 77.4093C55.2824 77.2724 55.1323 76.2889 54.4843 76.4059Z" fill="white"/>
<path d="M74.8635 65.9764C66.7518 67.2958 58.617 68.3242 50.4025 68.6893C49.7629 68.7177 49.7859 69.8369 50.4325 69.8259C58.7419 69.6868 66.9275 68.9414 75.0575 67.1737C75.8142 67.0085 75.6393 65.8507 74.8635 65.9764Z" fill="white"/>
</g>
<path d="M737.65 261.472C747.367 261.472 753.031 256.858 753.031 249.607C753.031 243.894 749.467 240.794 741.898 239.427L738.358 238.792C734.843 238.157 733.329 237.4 733.329 235.813C733.329 234.226 734.794 232.957 737.675 232.957C739.896 232.957 741.532 233.616 742.68 235.374C743.925 237.254 745.316 238.01 747.514 238.01C750.102 237.986 751.811 236.399 751.811 234.055C751.811 233.25 751.664 232.591 751.371 231.883C749.54 227.488 744.535 225.022 737.553 225.022C729.179 225.022 723.075 229.49 723.075 236.57C723.075 242.039 726.908 245.579 733.915 246.824L737.455 247.459C741.41 248.167 742.777 248.875 742.777 250.535C742.777 252.268 740.873 253.538 737.772 253.538C735.453 253.538 733.402 252.83 732.182 251.096C730.79 249.143 729.472 248.533 727.519 248.533C724.955 248.533 723.075 250.242 723.075 252.732C723.075 253.538 723.246 254.368 723.612 255.174C725.126 258.616 729.716 261.472 737.65 261.472ZM769.999 261.472C773.295 261.472 775.175 259.519 775.175 256.052V233.885H780.375C783.109 233.885 784.94 232.395 784.94 229.759C784.94 227.122 783.158 225.633 780.375 225.633H759.623C756.84 225.633 755.058 227.122 755.058 229.759C755.058 232.395 756.889 233.885 759.623 233.885H764.823V256.052C764.823 259.519 766.703 261.472 769.999 261.472ZM787.895 261.472C790.702 261.472 792.265 260.032 793.241 256.492L793.852 254.27H805.326L805.937 256.663C806.815 260.081 808.402 261.472 811.454 261.472C814.457 261.472 816.63 259.373 816.63 256.443C816.63 255.32 816.435 254.344 815.946 253.001L807.987 231.223C806.4 226.878 803.861 225.022 799.442 225.022C795.316 225.022 792.753 226.951 791.239 231.223L783.354 253.001C782.89 254.246 782.621 255.564 782.621 256.468C782.621 259.593 784.599 261.472 787.895 261.472ZM795.805 246.555L799.296 233.762H799.491L803.153 246.555H795.805ZM825.98 261.472C829.276 261.472 831.156 259.519 831.156 256.052V249.046H835.282L839.921 257.322C841.752 260.569 842.777 261.472 845.316 261.472C848.319 261.472 850.468 259.495 850.468 256.736C850.468 255.515 850.272 254.71 849.369 253.196L845.683 247.141C849.027 245.188 850.688 241.502 850.688 237.595C850.688 230.052 845.854 225.633 836.454 225.633H825.98C822.685 225.633 820.805 227.586 820.805 231.052V256.052C820.805 259.519 822.685 261.472 825.98 261.472ZM831.156 242.21V233.274H835.453C838.236 233.274 840.116 235.154 840.116 237.766C840.116 240.427 838.334 242.21 835.429 242.21H831.156ZM867.997 261.472C871.293 261.472 873.173 259.519 873.173 256.052V233.885H878.373C881.107 233.885 882.938 232.395 882.938 229.759C882.938 227.122 881.156 225.633 878.373 225.633H857.621C854.838 225.633 853.056 227.122 853.056 229.759C853.056 232.395 854.887 233.885 857.621 233.885H862.821V256.052C862.821 259.519 864.701 261.472 867.997 261.472ZM901.518 261.472C910.819 261.472 917.045 256.345 917.045 248.313V230.442C917.045 226.975 915.165 225.022 911.869 225.022C908.573 225.022 906.693 226.975 906.693 230.442V247.166C906.693 250.877 904.862 252.903 901.518 252.903C898.173 252.903 896.342 250.877 896.342 247.166V230.442C896.342 226.975 894.462 225.022 891.166 225.022C887.87 225.022 885.99 226.975 885.99 230.442V248.313C885.99 256.345 892.216 261.472 901.518 261.472ZM927.104 261.472C930.399 261.472 932.279 259.519 932.279 256.052V251.243H937.309C945.536 251.243 951.127 246.238 951.127 238.474C951.127 230.637 945.854 225.633 938.017 225.633H927.104C923.808 225.633 921.928 227.586 921.928 231.052V256.052C921.928 259.519 923.808 261.472 927.104 261.472ZM932.279 243.601V233.421H935.258C938.627 233.421 940.678 235.154 940.678 238.499C940.678 241.868 938.627 243.601 935.185 243.601H932.279Z" fill="white"/>
<defs>
<clipPath id="clip0_621_3723">
<rect width="176" height="176" fill="white" transform="translate(316 41.8621)"/>
</clipPath>
<clipPath id="clip1_621_3723">
<rect width="79.529" height="79.529" fill="white" transform="translate(490 198.097) rotate(-45)"/>
</clipPath>
<clipPath id="clip2_621_3723">
<rect width="79.529" height="79.529" fill="white" transform="translate(218 210.097) rotate(-45)"/>
</clipPath>
<clipPath id="clip3_621_3723">
<rect width="168" height="168" fill="white" transform="translate(0 68.3796) rotate(-9.20418)"/>
</clipPath>
</defs>
</svg>
