<svg width="354" height="161" viewBox="0 0 354 161" fill="none" xmlns="http://www.w3.org/2000/svg">
<path d="M139.083 40.4451C134.966 38.8927 131.451 36.6176 127.979 33.9525C127.617 33.6741 127.178 34.2714 127.493 34.5819C130.683 37.723 134.653 39.8551 138.86 41.3017C139.402 41.4884 139.607 40.6431 139.083 40.4451Z" fill="white"/>
<path d="M167.238 16.4431C166.551 11.1091 166.947 5.83296 168.208 0.610494C168.325 0.129866 167.613 -0.0534131 167.468 0.417348C165.838 5.6988 165.569 11.1001 166.397 16.556C166.47 17.0324 167.301 16.9263 167.238 16.4431Z" fill="white"/>
<path d="M202.693 9.07364C203.005 8.65183 202.294 8.09526 201.958 8.50418C199.434 11.5734 197.436 14.9457 195.782 18.5576C195.541 19.0839 196.314 19.5461 196.571 19.0137C198.276 15.4832 200.367 12.2215 202.693 9.07364Z" fill="white"/>
<path d="M224.51 27.2842C220.207 28.7961 216.435 31.6573 213.176 34.7984C212.704 35.2526 213.405 35.954 213.886 35.5199C217.25 32.4857 220.962 30.3767 224.867 28.1547C225.322 27.8957 225.029 27.1018 224.51 27.2842Z" fill="white"/>
<path d="M29.1247 146.248C27.0531 148.06 25.2112 150.136 23.3148 152.128C22.8677 152.598 23.5967 153.266 24.0514 152.81C25.9901 150.861 28.0158 148.964 29.7696 146.845C30.1374 146.401 29.5447 145.88 29.1247 146.248Z" fill="white"/>
<path d="M269.749 146.248C267.678 148.06 265.836 150.136 263.939 152.128C263.492 152.598 264.221 153.266 264.676 152.81C266.615 150.861 268.64 148.964 270.394 146.845C270.762 146.401 270.169 145.88 269.749 146.248Z" fill="white"/>
<path d="M76.3742 150.177C74.3026 151.989 72.4607 154.066 70.5643 156.058C70.1173 156.527 70.8462 157.196 71.3009 156.739C73.2396 154.79 75.2653 152.894 77.0191 150.775C77.3869 150.33 76.7942 149.809 76.3742 150.177Z" fill="white"/>
<path d="M316.999 150.177C314.928 151.989 313.086 154.066 311.189 156.058C310.742 156.527 311.471 157.196 311.926 156.739C313.865 154.79 315.89 152.894 317.644 150.775C318.012 150.33 317.419 149.809 316.999 150.177Z" fill="white"/>
<path d="M128.874 121.246C126.803 123.058 124.961 125.134 123.064 127.126C122.617 127.596 123.346 128.264 123.801 127.808C125.74 125.859 127.765 123.963 129.519 121.843C129.887 121.399 129.294 120.878 128.874 121.246Z" fill="white"/>
<path d="M171.369 150.25C169.297 152.062 167.455 154.138 165.559 156.13C165.112 156.6 165.841 157.268 166.296 156.812C168.234 154.863 170.26 152.966 172.014 150.847C172.382 150.403 171.789 149.882 171.369 150.25Z" fill="white"/>
<path d="M195.374 124.752C193.303 126.564 191.461 128.641 189.564 130.633C189.117 131.103 189.846 131.771 190.301 131.314C192.24 129.366 194.265 127.469 196.019 125.35C196.387 124.906 195.794 124.385 195.374 124.752Z" fill="white"/>
<path d="M20.009 118.314C17.5635 119.574 15.2776 121.147 12.9592 122.623C12.4125 122.972 12.9597 123.796 13.5107 123.462C15.8599 122.037 18.281 120.684 20.4917 119.049C20.9553 118.706 20.5049 118.058 20.009 118.314Z" fill="white"/>
<path d="M260.633 118.314C258.188 119.574 255.902 121.147 253.584 122.623C253.037 122.972 253.584 123.796 254.135 123.462C256.484 122.037 258.906 120.684 261.116 119.049C261.58 118.706 261.129 118.058 260.633 118.314Z" fill="white"/>
<path d="M67.2585 122.244C64.813 123.504 62.5271 125.076 60.2087 126.553C59.662 126.901 60.2093 127.726 60.7602 127.392C63.1094 125.967 65.5306 124.614 67.7412 122.979C68.2048 122.636 67.7544 121.988 67.2585 122.244Z" fill="white"/>
<path d="M307.883 122.244C305.438 123.504 303.152 125.076 300.834 126.553C300.287 126.901 300.834 127.726 301.385 127.392C303.734 125.967 306.156 124.614 308.366 122.979C308.83 122.636 308.379 121.988 307.883 122.244Z" fill="white"/>
<path d="M119.758 93.3121C117.313 94.5723 115.027 96.1446 112.709 97.6213C112.162 97.9698 112.709 98.7944 113.26 98.4605C115.609 97.0355 118.031 95.6824 120.241 94.0473C120.705 93.7045 120.254 93.0561 119.758 93.3121Z" fill="white"/>
<path d="M186.259 96.8189C183.814 98.0791 181.528 99.6514 179.209 101.128C178.663 101.477 179.21 102.301 179.761 101.967C182.11 100.542 184.531 99.1892 186.742 97.5541C187.205 97.2114 186.755 96.5629 186.259 96.8189Z" fill="white"/>
<path d="M12.5143 84.1222C10.0689 85.3823 7.78297 86.9546 5.46453 88.4314C4.9179 88.7799 5.46512 89.6045 6.01606 89.2705C8.36528 87.8455 10.7864 86.4925 12.9971 84.8573C13.4607 84.5146 13.0103 83.8662 12.5143 84.1222Z" fill="white"/>
<path d="M253.139 84.1222C250.694 85.3823 248.408 86.9546 246.09 88.4314C245.543 88.7799 246.09 89.6045 246.641 89.2705C248.99 87.8455 251.411 86.4925 253.622 84.8573C254.086 84.5146 253.635 83.8662 253.139 84.1222Z" fill="white"/>
<path d="M26.7902 141.641C23.8339 143.592 21.1081 145.937 18.3323 148.159C17.6779 148.684 18.4456 149.709 19.1069 149.203C21.9264 147.045 24.8433 144.974 27.4683 142.555C28.0188 142.048 27.3898 141.244 26.7902 141.641Z" fill="white"/>
<path d="M267.415 141.641C264.459 143.592 261.733 145.937 258.957 148.159C258.303 148.684 259.071 149.709 259.732 149.203C262.551 147.045 265.468 144.974 268.093 142.555C268.644 142.048 268.015 141.244 267.415 141.641Z" fill="white"/>
<path d="M74.0407 145.57C71.0844 147.522 68.3586 149.866 65.5828 152.089C64.9284 152.613 65.6961 153.638 66.3574 153.133C69.1769 150.975 72.0938 148.904 74.7188 146.485C75.2693 145.978 74.6403 145.174 74.0407 145.57Z" fill="white"/>
<path d="M314.665 145.57C311.709 147.522 308.983 149.866 306.207 152.089C305.553 152.613 306.321 153.638 306.982 153.133C309.801 150.975 312.718 148.904 315.343 146.485C315.894 145.978 315.265 145.174 314.665 145.57Z" fill="white"/>
<path d="M126.541 116.639C123.584 118.59 120.859 120.935 118.083 123.157C117.428 123.682 118.196 124.707 118.857 124.201C121.677 122.043 124.594 119.972 127.219 117.553C127.769 117.046 127.14 116.242 126.541 116.639Z" fill="white"/>
<path d="M169.034 145.643C166.078 147.594 163.352 149.939 160.576 152.161C159.922 152.686 160.69 153.711 161.351 153.205C164.171 151.047 167.087 148.976 169.712 146.557C170.263 146.05 169.634 145.246 169.034 145.643Z" fill="white"/>
<path d="M193.04 120.146C190.084 122.097 187.358 124.442 184.582 126.664C183.928 127.189 184.696 128.213 185.357 127.708C188.176 125.55 191.093 123.479 193.718 121.06C194.269 120.553 193.64 119.749 193.04 120.146Z" fill="white"/>
<path d="M18.8475 113.281C15.5098 114.463 12.3016 116.083 9.07418 117.572C8.31316 117.924 8.81261 119.103 9.57577 118.772C12.8301 117.356 16.1582 116.048 19.2864 114.332C19.9423 113.972 19.5245 113.04 18.8475 113.281Z" fill="white"/>
<path d="M259.472 113.281C256.135 114.463 252.927 116.083 249.699 117.572C248.938 117.924 249.438 119.103 250.201 118.772C253.455 117.356 256.783 116.048 259.911 114.332C260.567 113.972 260.149 113.04 259.472 113.281Z" fill="white"/>
<path d="M11.3533 79.0889C8.01564 80.2713 4.80746 81.8912 1.58004 83.3802C0.819021 83.7318 1.31847 84.9115 2.08163 84.5798C5.33594 83.1641 8.66406 81.8559 11.7922 80.1397C12.4482 79.7801 12.0303 78.8486 11.3533 79.0889Z" fill="white"/>
<path d="M251.978 79.0889C248.64 80.2713 245.432 81.8912 242.205 83.3802C241.444 83.7318 241.943 84.9115 242.706 84.5798C245.96 83.1641 249.289 81.8559 252.417 80.1397C253.073 79.7801 252.655 78.8486 251.978 79.0889Z" fill="white"/>
<path d="M26.0137 131.404C22.5421 134.352 19.4255 137.766 16.2262 141.032C15.472 141.803 16.6099 142.992 17.3757 142.244C20.6407 139.054 24.0435 135.959 27.02 132.466C27.6442 131.733 26.7176 130.805 26.0137 131.404Z" fill="white"/>
<path d="M266.95 131.404C263.23 134.352 259.891 137.766 256.463 141.032C255.655 141.803 256.874 142.992 257.695 142.244C261.193 139.054 264.839 135.959 268.028 132.466C268.697 131.733 267.704 130.805 266.95 131.404Z" fill="white"/>
<path d="M73.415 135.429C69.9434 138.377 66.8269 141.791 63.6276 145.057C62.8734 145.828 64.0112 147.017 64.777 146.269C68.0421 143.079 71.4448 139.984 74.4214 136.49C75.0456 135.758 74.1189 134.83 73.415 135.429Z" fill="white"/>
<path d="M313.634 135.429C310.162 138.377 307.046 141.791 303.846 145.057C303.092 145.828 304.23 147.017 304.996 146.269C308.261 143.079 311.664 139.984 314.64 136.49C315.264 135.758 314.338 134.83 313.634 135.429Z" fill="white"/>
<path d="M125.637 106.449C122.165 109.397 119.049 112.812 115.849 116.078C115.095 116.848 116.233 118.037 116.999 117.29C120.264 114.099 123.667 111.005 126.643 107.511C127.267 106.779 126.341 105.851 125.637 106.449Z" fill="white"/>
<path d="M192.319 110.474C188.848 113.422 185.731 116.837 182.532 120.103C181.778 120.873 182.916 122.062 183.681 121.314C186.946 118.124 190.349 115.029 193.326 111.536C193.95 110.803 193.023 109.875 192.319 110.474Z" fill="white"/>
<path d="M20.5119 103.347C16.3889 105.396 12.5013 107.989 8.56849 110.416C7.64121 110.989 8.46988 112.433 9.40301 111.886C13.382 109.549 17.473 107.339 21.2423 104.634C22.0327 104.067 21.3481 102.931 20.5119 103.347Z" fill="white"/>
<path d="M261.137 103.347C257.014 105.396 253.126 107.989 249.193 110.416C248.266 110.989 249.095 112.433 250.028 111.886C254.007 109.549 258.098 107.339 261.867 104.634C262.658 104.067 261.973 102.931 261.137 103.347Z" fill="white"/>
<path d="M20.7845 129.276C18.4055 130.816 16.2082 132.672 13.9717 134.43C13.4444 134.845 14.0512 135.67 14.5838 135.271C16.8548 133.565 19.2031 131.929 21.3204 130.013C21.7644 129.611 21.267 128.964 20.7845 129.276Z" fill="white"/>
<path d="M261.409 129.276C259.03 130.816 256.833 132.672 254.596 134.43C254.069 134.845 254.676 135.67 255.208 135.271C257.479 133.565 259.828 131.929 261.945 130.013C262.389 129.611 261.892 128.964 261.409 129.276Z" fill="white"/>
<path d="M68.0345 133.206C65.6555 134.746 63.4582 136.602 61.2217 138.36C60.6944 138.775 61.3012 139.6 61.8338 139.2C64.1048 137.494 66.4531 135.859 68.5704 133.942C69.0144 133.541 68.517 132.893 68.0345 133.206Z" fill="white"/>
<path d="M308.659 133.206C306.28 134.746 304.083 136.602 301.846 138.36C301.319 138.775 301.926 139.6 302.458 139.2C304.729 137.494 307.078 135.859 309.195 133.942C309.639 133.541 309.142 132.893 308.659 133.206Z" fill="white"/>
<path d="M120.534 104.275C118.155 105.814 115.958 107.67 113.721 109.428C113.194 109.843 113.801 110.668 114.333 110.269C116.604 108.563 118.953 106.927 121.07 105.011C121.514 104.609 121.017 103.962 120.534 104.275Z" fill="white"/>
<path d="M187.034 107.781C184.655 109.321 182.458 111.177 180.221 112.935C179.694 113.35 180.301 114.175 180.833 113.775C183.104 112.07 185.453 110.434 187.57 108.518C188.014 108.116 187.517 107.469 187.034 107.781Z" fill="white"/>
<path d="M15.9824 99.8323C13.3038 100.754 10.7258 102.027 8.13322 103.195C7.52191 103.47 7.91298 104.418 8.52586 104.158C11.1394 103.049 13.8112 102.026 16.3259 100.676C16.8533 100.393 16.5257 99.6449 15.9824 99.8323Z" fill="white"/>
<path d="M256.607 99.8323C253.929 100.754 251.351 102.027 248.758 103.195C248.147 103.47 248.538 104.418 249.151 104.158C251.764 103.049 254.436 102.026 256.951 100.676C257.478 100.393 257.151 99.6449 256.607 99.8323Z" fill="white"/>
<path d="M17.6094 125.687C15.3777 127.372 13.3741 129.323 11.3174 131.189C10.8326 131.63 11.5641 132.309 12.0564 131.882C14.1554 130.059 16.3429 128.29 18.2564 126.294C18.6577 125.876 18.0619 125.345 17.6094 125.687Z" fill="white"/>
<path d="M258.632 125.687C256.4 127.372 254.397 129.323 252.34 131.189C251.855 131.63 252.587 132.309 253.079 131.882C255.178 130.059 257.365 128.29 259.279 126.294C259.68 125.876 259.084 125.345 258.632 125.687Z" fill="white"/>
<path d="M65.0108 128.92C62.779 130.815 60.7755 133.01 58.7188 135.11C58.234 135.605 58.9654 136.37 59.4577 135.889C61.5567 133.838 63.7442 131.849 65.6577 129.603C66.059 129.132 65.4633 128.535 65.0108 128.92Z" fill="white"/>
<path d="M305.316 128.92C303.333 130.815 301.552 133.01 299.724 135.11C299.293 135.605 299.943 136.37 300.38 135.889C302.246 133.838 304.191 131.849 305.891 129.603C306.248 129.132 305.719 128.535 305.316 128.92Z" fill="white"/>
<path d="M117.319 100.732C115.335 102.417 113.554 104.368 111.726 106.234C111.295 106.675 111.945 107.354 112.383 106.927C114.249 105.104 116.193 103.335 117.894 101.339C118.251 100.92 117.721 100.39 117.319 100.732Z" fill="white"/>
<path d="M183.915 103.966C181.683 105.861 179.68 108.056 177.623 110.156C177.138 110.651 177.87 111.416 178.362 110.935C180.461 108.884 182.649 106.895 184.562 104.649C184.963 104.178 184.368 103.581 183.915 103.966Z" fill="white"/>
<path d="M10.3789 91.0862C8.14719 92.9814 6.14368 95.1764 4.08696 97.276C3.60212 97.7714 4.33361 98.5358 4.82591 98.0551C6.9249 96.0042 9.11239 94.0147 11.0259 91.7688C11.4272 91.298 10.8315 90.7014 10.3789 91.0862Z" fill="white"/>
<path d="M250.685 91.0862C248.701 92.9814 246.92 95.1764 245.092 97.276C244.661 97.7714 245.311 98.5358 245.749 98.0551C247.614 96.0042 249.559 94.0147 251.26 91.7688C251.616 91.298 251.087 90.7014 250.685 91.0862Z" fill="white"/>
<path d="M13.9664 95.324C11.4292 96.5848 9.03681 98.1806 6.61658 99.6744C6.04594 100.027 6.5559 100.916 7.13014 100.579C9.57876 99.1406 12.0963 97.7808 14.4159 96.1163C14.9023 95.7674 14.481 95.0679 13.9664 95.324Z" fill="white"/>
<path d="M254.591 95.324C252.054 96.5848 249.661 98.1806 247.241 99.6744C246.67 100.027 247.18 100.916 247.755 100.579C250.203 99.1406 252.721 97.7808 255.04 96.1163C255.527 95.7674 255.106 95.0679 254.591 95.324Z" fill="white"/>
<mask id="path-57-outside-1_615_3723" maskUnits="userSpaceOnUse" x="0.124023" y="67.0332" width="354" height="94" fill="black">
<rect fill="white" x="0.124023" y="67.0332" width="354" height="94"/>
<path d="M169.006 148.063C174.326 149.781 176.152 145.139 177.215 142.333C179.739 135.675 186.651 135.232 190.102 138.487C194.277 142.425 193.389 149.674 185.067 155.347C178.825 160.113 170.97 159.309 162.052 154.192C160.09 152.729 159.689 149.956 161.156 147.999C162.624 146.042 165.404 145.642 167.367 147.106C167.934 147.46 168.48 147.779 169.006 148.063Z"/>
<path d="M20.1092 148.195C21.6808 154.235 27.0566 158.442 33.2046 158.445C39.0876 158.448 44.3004 154.594 46.1075 148.905L56.2799 116.882C56.3358 116.706 56.497 116.587 56.6789 116.587C56.8609 116.587 57.022 116.706 57.0777 116.882L67.2208 148.915C69.0227 154.605 74.232 158.465 80.1151 158.467C86.263 158.47 91.6426 154.268 93.2197 148.23L109.885 84.4285C111.778 77.1809 106.402 70.0766 99.0225 70.0731C93.7395 70.0707 89.1673 73.8059 88.0351 79.0494L79.3363 119.334C79.296 119.521 79.1332 119.654 78.945 119.654C78.7728 119.654 78.62 119.542 78.5655 119.376L68.9544 90.1051C67.1932 84.7414 62.2537 81.1232 56.6891 81.1205C51.1303 81.1179 46.1914 84.724 44.4207 90.0782L34.7903 119.199C34.7354 119.364 34.5824 119.476 34.4102 119.476C34.222 119.476 34.0592 119.343 34.0189 119.156L25.3622 79.0147C24.2317 73.7724 19.6633 70.0357 14.3817 70.0332C7.00012 70.0297 1.6168 77.1307 3.50375 84.3821L20.1092 148.195Z"/>
<path fill-rule="evenodd" clip-rule="evenodd" d="M210.097 135.375C229.176 135.384 240.478 121.403 240.486 102.885C240.494 84.3674 229.206 70.4773 210.127 70.4683C191.048 70.4593 179.746 84.3387 179.738 102.857C179.73 121.375 191.018 135.366 210.097 135.375ZM210.259 119.65C219.518 119.654 227.026 112.173 227.031 102.94C227.035 93.7078 219.533 86.2198 210.275 86.2154C201.016 86.211 193.508 93.692 193.503 102.925C193.499 112.157 201.001 119.645 210.259 119.65Z"/>
<path d="M273.937 158.559C267.789 158.556 262.414 154.348 260.842 148.309L244.237 84.4956C242.35 77.2443 247.733 70.1433 255.115 70.1468C260.396 70.1493 264.965 73.886 266.095 79.1283L274.752 119.27C274.792 119.456 274.955 119.59 275.143 119.59C275.315 119.59 275.468 119.478 275.523 119.312L285.154 90.1918C286.924 84.8376 291.863 81.2315 297.422 81.2341C302.987 81.2367 307.926 84.855 309.687 90.2187L319.298 119.49C319.353 119.656 319.506 119.768 319.678 119.768C319.866 119.768 320.029 119.635 320.069 119.448L328.768 79.163C329.9 73.9195 334.472 70.1842 339.755 70.1867C347.135 70.1902 352.511 77.2945 350.617 84.5422L333.953 148.343C332.376 154.381 326.996 158.584 320.848 158.581C314.965 158.578 309.756 154.719 307.954 149.028L297.811 116.996C297.755 116.82 297.594 116.701 297.412 116.701C297.23 116.701 297.069 116.82 297.013 116.996L286.84 149.019C285.033 154.707 279.82 158.562 273.937 158.559Z"/>
<path fill-rule="evenodd" clip-rule="evenodd" d="M143.977 135.001C163.056 135.01 174.357 121.029 174.365 102.511C174.374 83.9934 163.085 70.1034 144.006 70.0944C124.927 70.0854 113.626 83.9648 113.618 102.483C113.609 121.001 124.898 134.992 143.977 135.001ZM160.864 102.909C160.86 112.142 153.351 119.623 144.093 119.618C134.834 119.614 127.332 112.126 127.337 102.893C127.341 93.6609 134.85 86.1799 144.108 86.1843C153.366 86.1886 160.868 93.6767 160.864 102.909Z"/>
</mask>
<path d="M177.215 142.333L179.469 143.188L177.215 142.333ZM169.006 148.063L167.86 150.183L168.055 150.288L168.265 150.356L169.006 148.063ZM190.102 138.487L188.448 140.24L190.102 138.487ZM185.067 155.347L183.709 153.355L183.656 153.392L183.604 153.431L185.067 155.347ZM162.052 154.192L160.611 156.125L160.727 156.211L160.853 156.283L162.052 154.192ZM167.367 147.106L165.926 149.038L166.006 149.098L166.091 149.151L167.367 147.106ZM33.2046 158.445L33.2057 156.035L33.2046 158.445ZM20.1092 148.195L22.4418 147.588L20.1092 148.195ZM46.1075 148.905L48.4047 149.635V149.635L46.1075 148.905ZM56.2799 116.882L53.9828 116.152L53.9828 116.152L56.2799 116.882ZM56.6789 116.587L56.6801 114.177L56.6789 116.587ZM57.0777 116.882L59.3755 116.155V116.155L57.0777 116.882ZM67.2208 148.915L69.5186 148.187L67.2208 148.915ZM80.1151 158.467L80.1139 160.878L80.1151 158.467ZM93.2197 148.23L90.8877 147.62L93.2197 148.23ZM109.885 84.4285L107.553 83.8194L109.885 84.4285ZM99.0225 70.0731L99.0214 72.4834L99.0225 70.0731ZM88.0351 79.0494L90.391 79.5581L88.0351 79.0494ZM79.3363 119.334L76.9804 118.826V118.826L79.3363 119.334ZM78.945 119.654L78.9462 117.244L78.945 119.654ZM78.5655 119.376L76.2755 120.128L76.2755 120.128L78.5655 119.376ZM68.9544 90.1051L71.2443 89.3532L68.9544 90.1051ZM56.6891 81.1205L56.688 83.5308L56.6891 81.1205ZM44.4207 90.0782L46.709 90.835L44.4207 90.0782ZM34.7903 119.199L32.5019 118.442V118.442L34.7903 119.199ZM34.4102 119.476L34.4091 121.886L34.4102 119.476ZM34.0189 119.156L36.375 118.648L36.375 118.648L34.0189 119.156ZM25.3622 79.0147L23.0061 79.5228L25.3622 79.0147ZM14.3817 70.0332L14.3828 67.623L14.3817 70.0332ZM3.50375 84.3821L5.8363 83.7751L3.50375 84.3821ZM240.486 102.885L238.076 102.884L240.486 102.885ZM210.097 135.375L210.098 132.965L210.097 135.375ZM210.127 70.4683L210.128 68.0581L210.127 70.4683ZM179.738 102.857L177.328 102.856L179.738 102.857ZM260.842 148.309L258.51 148.916L260.842 148.309ZM273.937 158.559L273.936 160.969L273.937 158.559ZM244.237 84.4956L246.569 83.8887V83.8887L244.237 84.4956ZM255.115 70.1468L255.116 67.7366L255.115 70.1468ZM266.095 79.1283L263.739 79.6364V79.6364L266.095 79.1283ZM274.752 119.27L277.108 118.762V118.762L274.752 119.27ZM275.143 119.59L275.142 122L275.143 119.59ZM275.523 119.312L277.811 120.069L277.811 120.069L275.523 119.312ZM285.154 90.1918L282.865 89.435V89.435L285.154 90.1918ZM297.422 81.2341L297.423 78.8239L297.422 81.2341ZM309.687 90.2187L311.977 89.4668V89.4668L309.687 90.2187ZM319.298 119.49L321.588 118.738L321.588 118.738L319.298 119.49ZM319.678 119.768L319.679 117.357L319.678 119.768ZM320.069 119.448L322.425 119.957V119.957L320.069 119.448ZM328.768 79.163L331.124 79.6717V79.6717L328.768 79.163ZM339.755 70.1867L339.754 72.597L339.755 70.1867ZM350.617 84.5422L348.285 83.9331V83.9331L350.617 84.5422ZM333.953 148.343L331.621 147.734V147.734L333.953 148.343ZM320.848 158.581L320.847 160.991L320.848 158.581ZM307.954 149.028L310.251 148.301L307.954 149.028ZM297.811 116.996L300.108 116.268L300.108 116.268L297.811 116.996ZM297.412 116.701L297.413 114.29L297.412 116.701ZM297.013 116.996L294.716 116.266L294.716 116.266L297.013 116.996ZM286.84 149.019L289.138 149.748L286.84 149.019ZM174.365 102.511L171.955 102.51L174.365 102.511ZM143.977 135.001L143.978 132.591L143.977 135.001ZM144.006 70.0944L144.007 67.6841L144.006 70.0944ZM113.618 102.483L111.207 102.482L113.618 102.483ZM144.093 119.618L144.091 122.029L144.093 119.618ZM160.864 102.909L163.274 102.91L160.864 102.909ZM127.337 102.893L129.747 102.895L127.337 102.893ZM144.108 86.1843L144.107 88.5945L144.108 86.1843ZM227.031 102.94L229.441 102.942L227.031 102.94ZM193.503 102.925L195.914 102.926L193.503 102.925ZM174.962 141.479C174.402 142.954 173.829 144.335 172.975 145.218C172.593 145.613 172.21 145.844 171.791 145.951C171.372 146.057 170.728 146.086 169.747 145.769L168.265 150.356C169.944 150.898 171.523 150.992 172.976 150.623C174.429 150.255 175.566 149.473 176.439 148.571C178.093 146.861 178.965 144.518 179.469 143.188L174.962 141.479ZM191.756 136.733C187.108 132.35 178.121 133.145 174.962 141.479L179.469 143.188C181.358 138.206 186.194 138.114 188.448 140.24L191.756 136.733ZM186.424 157.338C190.922 154.272 193.69 150.591 194.611 146.841C195.549 143.025 194.505 139.327 191.756 136.733L188.448 140.24C189.874 141.585 190.473 143.48 189.93 145.691C189.37 147.969 187.533 150.748 183.709 153.355L186.424 157.338ZM183.604 153.431C178.489 157.337 171.801 157.006 163.252 152.102L160.853 156.283C170.14 161.611 179.16 162.89 186.53 157.263L183.604 153.431ZM163.493 152.26C162.598 151.593 162.418 150.334 163.085 149.445L159.228 146.553C156.959 149.578 157.581 153.865 160.611 156.125L163.493 152.26ZM163.085 149.445C163.754 148.553 165.027 148.368 165.926 149.038L168.808 145.174C165.782 142.917 161.494 143.532 159.228 146.553L163.085 149.445ZM166.091 149.151C166.696 149.528 167.285 149.873 167.86 150.183L170.151 145.942C169.675 145.684 169.172 145.392 168.643 145.061L166.091 149.151ZM33.2057 156.035C28.1781 156.033 23.7431 152.589 22.4418 147.588L17.7767 148.802C19.6186 155.88 25.9352 160.852 33.2034 160.856L33.2057 156.035ZM43.8104 148.175C42.3149 152.883 38.0172 156.037 33.2057 156.035L33.2034 160.856C40.1579 160.859 46.2859 156.304 48.4047 149.635L43.8104 148.175ZM53.9828 116.152L43.8104 148.175L48.4047 149.635L58.577 117.612L53.9828 116.152ZM56.6801 114.177C55.4266 114.176 54.3503 114.996 53.9828 116.152L58.577 117.612C58.3213 118.417 57.5674 118.998 56.6778 118.997L56.6801 114.177ZM59.3755 116.155C59.0091 114.998 57.9335 114.177 56.6801 114.177L56.6778 118.997C55.7882 118.997 55.0349 118.415 54.7799 117.61L59.3755 116.155ZM69.5186 148.187L59.3755 116.155L54.7799 117.61L64.923 149.642L69.5186 148.187ZM80.1162 156.057C75.3046 156.055 71.0098 152.897 69.5186 148.187L64.923 149.642C67.0356 156.314 73.1594 160.874 80.1139 160.878L80.1162 156.057ZM90.8877 147.62C89.5819 152.62 85.1438 156.06 80.1162 156.057L80.1139 160.878C87.3822 160.881 93.7033 155.915 95.5517 148.839L90.8877 147.62ZM107.553 83.8194L90.8877 147.62L95.5517 148.839L112.217 85.0376L107.553 83.8194ZM99.0214 72.4834C104.772 72.4861 109.06 78.0492 107.553 83.8194L112.217 85.0376C114.496 76.3125 108.032 67.6672 99.0237 67.6629L99.0214 72.4834ZM90.391 79.5581C91.2889 75.3996 94.8992 72.4814 99.0214 72.4834L99.0237 67.6629C92.5797 67.6599 87.0456 72.2122 85.6791 78.5406L90.391 79.5581ZM81.6922 119.843L90.391 79.5581L85.6791 78.5406L76.9804 118.826L81.6922 119.843ZM78.9439 122.064C80.2929 122.065 81.4176 121.115 81.6922 119.843L76.9804 118.826C77.1743 117.927 77.9734 117.243 78.9462 117.244L78.9439 122.064ZM76.2755 120.128C76.6483 121.263 77.7101 122.064 78.9439 122.064L78.9462 117.244C79.8356 117.244 80.5916 117.821 80.8554 118.624L76.2755 120.128ZM66.6644 90.857L76.2755 120.128L80.8554 118.624L71.2443 89.3532L66.6644 90.857ZM56.688 83.5308C61.191 83.5329 65.2216 86.4626 66.6644 90.857L71.2443 89.3532C69.1649 83.0202 63.3165 78.7134 56.6903 78.7103L56.688 83.5308ZM46.709 90.835C48.1597 86.4485 52.1897 83.5286 56.688 83.5308L56.6903 78.7103C50.071 78.7072 44.2231 82.9996 42.1324 89.3214L46.709 90.835ZM37.0786 119.955L46.709 90.835L42.1324 89.3214L32.5019 118.442L37.0786 119.955ZM34.4091 121.886C35.6418 121.887 36.7037 121.089 37.0786 119.955L32.5019 118.442C32.7671 117.64 33.523 117.065 34.4114 117.066L34.4091 121.886ZM31.6629 119.664C31.937 120.935 33.0606 121.886 34.4091 121.886L34.4114 117.066C35.3834 117.066 36.1814 117.75 36.375 118.648L31.6629 119.664ZM23.0061 79.5228L31.6629 119.664L36.375 118.648L27.7183 78.5066L23.0061 79.5228ZM14.3806 72.4434C18.502 72.4454 22.1095 75.3649 23.0061 79.5228L27.7183 78.5066C26.3539 72.1798 20.8247 67.626 14.3828 67.623L14.3806 72.4434ZM5.8363 83.7751C4.3339 78.0015 8.6277 72.4407 14.3806 72.4434L14.3828 67.623C5.37253 67.6187 -1.10029 76.2599 1.17121 84.989L5.8363 83.7751ZM22.4418 147.588L5.8363 83.7751L1.17121 84.989L17.7767 148.802L22.4418 147.588ZM238.076 102.884C238.072 111.663 235.394 119.179 230.649 124.468C225.932 129.727 219.01 132.969 210.098 132.965L210.096 137.785C220.264 137.79 228.532 134.047 234.237 127.687C239.915 121.359 242.892 112.625 242.896 102.886L238.076 102.884ZM210.126 72.8786C219.043 72.8828 225.962 76.1106 230.672 81.3477C235.409 86.6147 238.08 94.1058 238.076 102.884L242.896 102.886C242.901 93.147 239.931 84.4341 234.256 78.1242C228.555 71.7846 220.29 68.0629 210.128 68.0581L210.126 72.8786ZM182.148 102.858C182.152 94.0793 184.83 86.5907 189.571 81.3283C194.286 76.0957 201.209 72.8744 210.126 72.8786L210.128 68.0581C199.966 68.0533 191.698 71.7672 185.99 78.1015C180.31 84.406 177.332 93.1161 177.328 102.856L182.148 102.858ZM210.098 132.965C201.187 132.961 194.268 129.712 189.555 124.449C184.815 119.155 182.144 111.637 182.148 102.858L177.328 102.856C177.323 112.594 180.292 121.331 185.964 127.665C191.664 134.029 199.928 137.781 210.096 137.785L210.098 132.965ZM258.51 148.916C260.351 155.994 266.668 160.966 273.936 160.969L273.939 156.149C268.911 156.146 264.476 152.702 263.175 147.702L258.51 148.916ZM241.904 85.1026L258.51 148.916L263.175 147.702L246.569 83.8887L241.904 85.1026ZM255.116 67.7366C246.105 67.7323 239.633 76.3735 241.904 85.1026L246.569 83.8887C245.067 78.1151 249.361 72.5543 255.113 72.557L255.116 67.7366ZM268.451 78.6202C267.087 72.2934 261.558 67.7396 255.116 67.7366L255.113 72.557C259.235 72.559 262.842 75.4785 263.739 79.6364L268.451 78.6202ZM277.108 118.762L268.451 78.6202L263.739 79.6364L272.396 119.778L277.108 118.762ZM275.144 117.179C276.116 117.18 276.914 117.864 277.108 118.762L272.396 119.778C272.67 121.049 273.794 121.999 275.142 122L275.144 117.179ZM273.235 118.555C273.5 117.754 274.256 117.179 275.144 117.179L275.142 122C276.375 122 277.436 121.202 277.811 120.069L273.235 118.555ZM282.865 89.435L273.235 118.555L277.811 120.069L287.442 90.9486L282.865 89.435ZM297.423 78.8239C290.804 78.8208 284.956 83.1132 282.865 89.435L287.442 90.9486C288.893 86.5621 292.923 83.6422 297.421 83.6443L297.423 78.8239ZM311.977 89.4668C309.898 83.1338 304.049 78.827 297.423 78.8239L297.421 83.6443C301.924 83.6465 305.954 86.5762 307.397 90.9706L311.977 89.4668ZM321.588 118.738L311.977 89.4668L307.397 90.9706L317.008 120.241L321.588 118.738ZM319.679 117.357C320.568 117.358 321.325 117.934 321.588 118.738L317.008 120.241C317.381 121.377 318.443 122.177 319.677 122.178L319.679 117.357ZM317.713 118.939C317.907 118.041 318.706 117.357 319.679 117.357L319.677 122.178C321.026 122.178 322.15 121.228 322.425 119.957L317.713 118.939ZM326.412 78.6543L317.713 118.939L322.425 119.957L331.124 79.6717L326.412 78.6543ZM339.757 67.7765C333.313 67.7735 327.778 72.3258 326.412 78.6543L331.124 79.6717C332.022 75.5132 335.632 72.595 339.754 72.597L339.757 67.7765ZM352.949 85.1513C355.228 76.4262 348.765 67.7808 339.757 67.7765L339.754 72.597C345.505 72.5997 349.793 78.1628 348.285 83.9331L352.949 85.1513ZM336.285 148.952L352.949 85.1513L348.285 83.9331L331.621 147.734L336.285 148.952ZM320.847 160.991C328.115 160.995 334.436 156.029 336.285 148.952L331.621 147.734C330.315 152.734 325.877 156.173 320.849 156.171L320.847 160.991ZM305.656 149.756C307.769 156.428 313.892 160.988 320.847 160.991L320.849 156.171C316.038 156.169 311.743 153.01 310.251 148.301L305.656 149.756ZM295.513 117.724L305.656 149.756L310.251 148.301L300.108 116.268L295.513 117.724ZM297.411 119.111C296.521 119.11 295.768 118.529 295.513 117.724L300.108 116.268C299.742 115.111 298.666 114.291 297.413 114.29L297.411 119.111ZM299.31 117.726C299.054 118.53 298.301 119.111 297.411 119.111L297.413 114.29C296.159 114.29 295.083 115.109 294.716 116.266L299.31 117.726ZM289.138 149.748L299.31 117.725L294.716 116.266L284.543 148.289L289.138 149.748ZM273.936 160.969C280.891 160.972 287.019 156.418 289.138 149.748L284.543 148.289C283.048 152.997 278.75 156.151 273.939 156.149L273.936 160.969ZM171.955 102.51C171.951 111.289 169.273 118.805 164.528 124.094C159.811 129.353 152.889 132.595 143.978 132.591L143.976 137.411C154.143 137.416 162.411 133.673 168.117 127.313C173.794 120.985 176.771 112.251 176.775 102.512L171.955 102.51ZM144.005 72.5046C152.922 72.5088 159.841 75.7367 164.552 80.9738C169.288 86.2407 171.959 93.7318 171.955 102.51L176.775 102.512C176.78 92.773 173.811 84.0601 168.136 77.7503C162.434 71.4106 154.17 67.6889 144.007 67.6841L144.005 72.5046ZM116.028 102.484C116.032 93.7053 118.709 86.2168 123.451 80.9543C128.166 75.7217 135.088 72.5004 144.005 72.5046L144.007 67.6841C133.845 67.6794 125.577 71.3932 119.87 77.7275C114.189 84.032 111.212 92.7421 111.207 102.482L116.028 102.484ZM143.978 132.591C135.067 132.587 128.147 129.338 123.435 124.075C118.695 118.781 116.024 111.263 116.028 102.484L111.207 102.482C111.203 112.221 114.172 120.957 119.844 127.291C125.543 133.655 133.808 137.407 143.976 137.411L143.978 132.591ZM144.091 122.029C154.674 122.034 163.269 113.48 163.274 102.91L158.454 102.908C158.45 110.803 152.027 117.212 144.094 117.208L144.091 122.029ZM124.926 102.892C124.921 113.462 133.508 122.024 144.091 122.029L144.094 117.208C136.16 117.205 129.743 110.79 129.747 102.895L124.926 102.892ZM144.109 83.7741C133.526 83.7691 124.931 92.3223 124.926 102.892L129.747 102.895C129.75 94.9994 136.173 88.5908 144.107 88.5945L144.109 83.7741ZM163.274 102.91C163.279 92.3404 154.692 83.779 144.109 83.7741L144.107 88.5945C152.04 88.5982 158.457 95.013 158.454 102.908L163.274 102.91ZM224.62 102.939C224.617 110.834 218.194 117.243 210.26 117.239L210.258 122.06C220.841 122.065 229.436 113.512 229.441 102.942L224.62 102.939ZM210.273 88.6256C218.207 88.6294 224.624 95.0441 224.62 102.939L229.441 102.942C229.446 92.3715 220.859 83.8102 210.276 83.8052L210.273 88.6256ZM195.914 102.926C195.917 95.0306 202.34 88.6219 210.273 88.6256L210.276 83.8052C199.693 83.8002 191.098 92.3534 191.093 102.923L195.914 102.926ZM210.26 117.239C202.327 117.236 195.91 110.821 195.914 102.926L191.093 102.923C191.088 113.494 199.675 122.055 210.258 122.06L210.26 117.239Z" fill="white" mask="url(#path-57-outside-1_615_3723)"/>
</svg>
