<svg width="207" height="219" viewBox="0 0 207 219" fill="none" xmlns="http://www.w3.org/2000/svg">
<path d="M154.872 100.396C156.976 81.4291 145.412 63.6315 127.741 56.7745C125.441 55.8823 123.097 55.2357 120.735 54.7888C120.254 54.4979 119.773 54.2056 119.293 53.913C118.89 53.6678 118.561 54.1164 118.699 54.4657C104.066 52.4722 89.0195 58.6235 79.633 70.4487C73.1647 78.5975 69.86 89.1168 71.1918 99.5007C73.1845 115.036 82.1753 125.491 80.0359 141.555C75.455 140.866 70.2279 144.404 70.1335 149.267C70.1316 149.384 70.1911 149.453 70.2313 149.537C70.0997 150.25 70.3574 151.001 70.8576 151.757C70.821 151.755 70.7964 151.73 70.7552 151.737C70.5328 151.775 70.3248 151.879 70.108 151.945C69.9433 151.851 69.7798 151.755 69.6151 151.662C69.3656 151.519 69.1439 151.903 69.3921 152.048C69.4392 152.075 69.4857 152.102 69.5327 152.129C66.0628 153.59 63.6145 158.394 65.895 161.694C65.8361 161.823 65.8185 161.964 65.9203 162.108C70.6424 168.78 79.5722 172.23 87.0128 174.962C92.4161 176.946 99.9234 179.991 105.824 177.993C107.056 180.84 106.652 184.061 104.635 186.369C97.3211 188.1 90.1713 186.288 83.2658 183.756C77.0023 181.459 65.5255 177.737 62.5768 170.765C62.7291 170.674 62.8483 170.536 62.8347 170.292C62.8307 170.222 62.8367 170.155 62.8338 170.085C64.9058 171.773 67.0411 173.391 69.1844 174.985C69.4155 175.157 69.7253 174.762 69.4976 174.58C67.3101 172.832 65.1022 171.094 62.8315 169.454C62.8599 168.486 63.0415 167.576 63.3869 166.753C65.5537 167.97 67.6525 169.301 69.7047 170.701C70.0136 170.911 70.2875 170.416 69.9924 170.202C67.9633 168.73 65.8259 167.462 63.6092 166.299C64.1849 165.189 65.0877 164.258 66.3921 163.61C66.8055 163.404 66.5173 162.793 66.0956 162.888C63.658 163.439 61.6873 165.698 61.4029 168.163C61.3482 168.211 61.3099 168.284 61.3053 168.384C61.1753 171.248 62.1723 173.534 63.7976 175.423C63.7882 175.461 63.7555 175.483 63.7585 175.527C64.9025 192.755 90.6284 203.906 101.739 188.721C101.779 188.667 101.788 188.613 101.813 188.559C102.528 188.461 103.245 188.384 103.956 188.219C104.122 188.309 104.308 188.347 104.496 188.216C104.558 188.172 104.608 188.115 104.669 188.069C104.855 188.02 105.043 188.005 105.229 187.951C105.684 187.818 105.844 187.44 105.805 187.08C108.218 184.556 109.03 180.73 107.521 177.498C110.597 175.827 113.085 171.268 112.048 167.662C112.513 167.537 112.977 167.411 113.422 167.236C114.191 166.935 114.106 165.943 113.494 165.714C116.502 161.805 115.991 155.544 111.381 152.87C111.37 152.863 111.359 152.871 111.348 152.865C117.033 138.519 133.482 135.993 143.395 125.561C149.833 118.785 153.846 109.648 154.872 100.396ZM77.4969 191.983C70.5079 189.515 66.1775 183.639 64.8679 176.529C68.3714 179.784 73.7703 181.747 77.9102 183.531C84.6178 186.42 92.0709 189.095 99.4391 188.776C94.0079 194.983 84.7566 194.547 77.4969 191.983ZM109.987 171.843C109.64 173.149 108.995 174.242 108.159 175.212C108.014 175.201 107.861 175.218 107.695 175.307C101.142 178.796 92.3632 175.05 85.9992 172.623C79.6321 170.195 72.0114 166.993 67.1868 161.964C67.2201 161.866 67.2464 161.762 67.2161 161.649C67.0417 161 66.9421 160.34 66.8823 159.682C68.7451 161.413 70.7242 163.028 72.9018 164.346C73.3218 164.6 73.667 163.969 73.2777 163.695C71.0556 162.13 68.8754 160.549 66.8254 158.763C66.8261 157.564 67.0679 156.415 67.5793 155.405C69.6818 156.698 71.8368 157.914 73.9901 159.118C74.3132 159.299 74.5964 158.81 74.2778 158.62C72.1541 157.355 70.0208 156.094 67.8454 154.918C68.435 153.988 69.3176 153.224 70.522 152.705C71.5736 153.321 72.6274 153.936 73.6859 154.54C76.8964 156.982 81.3145 159.043 82.3054 159.502C89.7413 162.944 101.139 169.159 110.058 168.055C110.222 169.301 110.348 170.484 109.987 171.843ZM110.074 154.659C110.254 154.627 110.427 154.552 110.574 154.433C112.058 155.884 113.238 157.276 113.595 159.441C113.97 161.721 113.269 163.988 111.957 165.853C111.672 165.903 111.395 165.908 111.113 165.943C110.75 165.696 110.233 165.723 109.996 166.061C104.503 166.387 99.48 164.134 94.2549 162.175C92.076 161.359 71.159 153.403 71.5027 149.252C71.5817 149.034 71.6743 148.829 71.7619 148.619C71.8063 148.559 71.8375 148.496 71.8947 148.439C71.9896 148.342 71.9966 148.222 71.9736 148.105C72.0732 147.893 72.1913 147.699 72.3007 147.497C72.3177 147.53 72.3105 147.566 72.3434 147.597C74.3678 149.535 76.6693 150.889 79.3584 151.682C79.7674 151.802 79.921 151.181 79.5239 151.045C77.0386 150.195 74.7816 148.879 72.8364 147.111C72.7459 147.029 72.6464 147.013 72.5521 147.028C73.3117 145.763 74.287 144.725 75.4511 143.947C77.5252 145.393 79.5727 146.896 81.7467 148.185C82.0457 148.362 82.2788 147.924 82.011 147.727C80.0365 146.277 77.9254 145.014 75.8471 143.715C77.017 143.022 78.3539 142.567 79.8918 142.465C79.8017 143.038 79.7346 143.599 79.6156 144.186C79.5271 144.622 80.0033 144.841 80.2917 144.656C80.3246 144.693 80.3265 144.738 80.3765 144.767C89.0649 149.986 99.171 153.932 109.196 155.534C109.789 155.628 110.149 155.104 110.074 154.659ZM89.5138 147.589C95.8844 129.05 96.4536 109.289 95.2972 89.8346C101.953 88.3749 109.746 91.6083 114.028 96.7846C117.031 100.416 118.595 105 121.845 108.462C122.372 109.023 122.984 109.664 123.65 110.303C113.158 122.15 105.43 136.171 100.785 151.501C96.9863 150.299 93.2279 149.027 89.5138 147.589ZM145.935 118.89C136.068 133.687 114.904 135.723 108.875 153.435C108.815 153.611 108.81 153.769 108.834 153.914C106.535 153.28 104.301 152.576 102.057 151.882C107.507 136.651 115.152 123.551 125.285 111.74C127.585 113.558 130.241 114.721 132.468 112.689C133.15 112.067 132.297 111.131 131.546 111.473C129.714 112.308 127.96 111.823 126.304 110.616C129.364 107.131 132.609 103.74 136.118 100.455C136.901 99.7232 135.763 98.613 134.964 99.2841C131.291 102.367 127.868 105.681 124.679 109.18C120.833 105.199 117.629 97.9564 115.451 95.3334C112.901 92.2637 109.599 90.0631 105.792 88.8642C102.293 87.7634 98.5678 87.5678 95.2011 88.3802C95.058 86.1307 94.8976 83.8844 94.7173 81.6462C94.6555 80.8804 93.494 80.8633 93.5075 81.6523C93.5489 84.059 93.5973 86.455 93.6423 88.8441C90.1071 90.0822 87.108 92.5393 85.4215 96.3851C85.1969 96.898 85.9144 97.348 86.1945 96.8314C88.0528 93.4042 90.7017 91.3313 93.6688 90.2889C94.0209 109.562 94.0336 128.315 88.3448 147.15C85.8386 146.158 83.3386 145.109 80.8379 143.963C80.7426 143.92 80.6575 143.937 80.5725 143.948C80.7199 143.369 80.7888 142.805 80.9019 142.233C80.9605 142.142 80.9773 142.041 80.9587 141.936C81.0351 141.531 81.0551 141.136 81.1149 140.734C82.5586 141.91 83.9952 143.08 85.4938 144.184C85.8014 144.411 86.1941 143.902 85.9065 143.65C84.528 142.444 83.0985 141.311 81.6634 140.172C81.5048 140.046 81.3285 140.08 81.1885 140.163C81.6801 136.395 81.4674 132.763 80.8791 129.204C82.2673 130.308 83.7844 131.237 85.4396 131.901C85.7168 132.012 85.8979 131.554 85.6385 131.416C83.9225 130.506 82.2951 129.515 80.7292 128.387C80.2946 126.004 79.6868 123.656 79.0067 121.324C79.973 122.112 80.929 122.913 81.9229 123.665C82.1793 123.859 82.5211 123.421 82.2718 123.214C81.1269 122.261 79.9386 121.361 78.7545 120.457C78.1786 118.535 77.5578 116.624 76.9396 114.713C78.5254 115.869 79.9904 117.164 81.381 118.579C81.6746 118.878 82.1155 118.435 81.8411 118.126C80.3101 116.402 78.5404 114.962 76.6195 113.719C75.7895 111.144 75 108.565 74.3354 105.966C76.2818 107.568 78.2209 109.23 80.3306 110.587C80.6194 110.773 80.9513 110.344 80.7009 110.109C78.6624 108.187 76.3011 106.562 74.0623 104.873C73.4076 102.131 72.9362 99.3584 72.7753 96.5319C74.4216 97.9616 76.0912 99.3675 77.8171 100.697C78.1305 100.939 78.54 100.406 78.2442 100.144C76.4668 98.5742 74.6123 97.0856 72.7392 95.6293C72.6518 92.9182 72.8732 90.1534 73.5219 87.313C75.3648 88.8204 77.2034 90.3465 79.1729 91.6864C79.4329 91.8627 79.7591 91.4493 79.515 91.2442C77.6718 89.6995 75.6843 88.3339 73.713 86.958C73.6761 86.9323 73.637 86.9331 73.5994 86.9376C74.0417 85.099 74.6247 83.33 75.3077 81.6202C77.3519 82.8193 79.2195 84.1916 81.055 85.6991C81.4267 86.0041 81.9573 85.5133 81.5985 85.1632C79.8412 83.447 77.7615 82.072 75.5727 80.9666C76.1075 79.6955 76.708 78.4647 77.3645 77.272C79.2576 78.4459 81.183 79.5729 83.149 80.6182C83.5826 80.8488 83.9481 80.2182 83.5308 79.9569C81.648 78.7801 79.7145 77.6799 77.7576 76.6303C78.9422 74.5747 80.3187 72.6592 81.8275 70.8683C84.0796 72.3654 86.3105 73.9094 88.674 75.2237C89.1869 75.5089 89.5734 74.7839 89.1203 74.4508C86.9883 72.8844 84.7103 71.5232 82.4598 70.1306C85.9316 66.2054 90.1399 63.0031 94.7668 60.6434C97.002 62.276 99.226 63.9342 101.555 65.4249C102.004 65.7113 102.572 65.0074 102.14 64.6696C100.088 63.071 97.9341 61.6063 95.7871 60.1356C98.0981 59.0345 100.511 58.1592 102.982 57.4985C105.548 59.3263 108.105 61.1621 110.78 62.8293C111.24 63.1158 111.602 62.4264 111.191 62.1177C108.888 60.3845 106.487 58.7935 104.083 57.2061C106.621 56.6028 109.221 56.273 111.839 56.1724C114.37 58.3402 117.1 60.2371 120.15 61.6296C120.737 61.8977 121.25 61.0601 120.661 60.7445C118.067 59.3573 115.587 57.8745 113.256 56.1332C116.433 56.1258 119.626 56.5421 122.779 57.3387C125.172 58.9527 127.576 60.5487 130.057 62.0165C130.702 62.3985 131.234 61.4352 130.632 61.0199C129.455 60.207 128.237 59.4544 127.027 58.6877C128.14 59.1144 129.252 59.5541 130.342 60.097C152.2 70.9861 159.456 98.6154 145.935 118.89Z" fill="black"/>
<path d="M67.0493 121.42C61.1044 120.859 55.1496 120.143 49.1999 119.675C48.6043 119.628 48.4864 120.591 49.0699 120.715C54.9011 121.954 61.1004 122.382 67.0543 122.336C67.655 122.332 67.6261 121.475 67.0493 121.42Z" fill="black"/>
<path d="M63.3679 75.4443C58.0588 73.4462 53.5261 70.5178 49.0483 67.0872C48.5806 66.7289 48.0149 67.4978 48.4216 67.8974C52.5354 71.9406 57.6551 74.6849 63.0807 76.5469C63.78 76.7872 64.0442 75.6991 63.3679 75.4443Z" fill="black"/>
<path d="M99.6798 44.5497C98.7936 37.684 99.3034 30.8928 100.931 24.1706C101.081 23.5519 100.163 23.316 99.9759 23.922C97.8736 30.7201 97.5268 37.6725 98.5952 44.6952C98.6882 45.3083 99.7605 45.1718 99.6798 44.5497Z" fill="black"/>
<path d="M145.407 35.064C145.809 34.5211 144.892 33.8047 144.458 34.3311C141.203 38.2817 138.626 42.6224 136.494 47.2715C136.183 47.9489 137.179 48.5439 137.511 47.8586C139.709 43.3142 142.406 39.1159 145.407 35.064Z" fill="black"/>
<path d="M173.542 58.5037C167.993 60.4497 163.129 64.1325 158.925 68.1756C158.317 68.7602 159.22 69.6631 159.841 69.1044C164.18 65.1988 168.967 62.4842 174.003 59.6241C174.59 59.2907 174.212 58.2688 173.542 58.5037Z" fill="black"/>
<path d="M185.858 99.8884C182.261 100.448 178.735 101.466 175.208 102.351C174.376 102.56 174.72 103.822 175.552 103.633C179.096 102.826 182.701 102.14 186.159 101.011C186.884 100.775 186.588 99.7743 185.858 99.8884Z" fill="black"/>
<path d="M164.757 138.993C159.41 138.409 154.072 137.978 148.758 137.113C147.92 136.977 147.566 138.252 148.421 138.409C153.809 139.396 159.278 140.237 164.764 140.321C165.638 140.334 165.585 139.083 164.757 138.993Z" fill="black"/>
<path d="M73.6859 186.571C71.7229 184.83 69.5806 182.899 67.3135 181.567C67.0929 181.438 66.8728 181.734 67.0429 181.917C68.834 183.844 71.1804 185.514 73.3085 187.059C73.5914 187.264 73.9476 186.802 73.6859 186.571Z" fill="black"/>
<path d="M71.9462 181.972C70.1107 180.399 68.1343 179.098 65.9563 178.044C65.7476 177.943 65.5654 178.249 65.7744 178.359C67.8632 179.466 69.8278 180.76 71.6617 182.253C71.8578 182.412 72.1426 182.141 71.9462 181.972Z" fill="black"/>
<path d="M85.9637 137.543C84.771 136.826 83.5547 136.147 82.3475 135.456C82.1639 135.35 81.9995 135.634 82.1829 135.741C83.3858 136.44 84.5818 137.154 85.7992 137.828C85.9844 137.931 86.1451 137.653 85.9637 137.543Z" fill="black"/>
<path d="M93.9785 68.5446C92.1729 67.2556 90.1414 66.2607 88.2076 65.1785C87.6603 64.872 87.1807 65.7015 87.7203 66.0226C89.6244 67.1562 91.5018 68.418 93.5209 69.3372C94.0582 69.5826 94.4604 68.8885 93.9785 68.5446Z" fill="black"/>
</svg>
