<svg width="381" height="137" viewBox="0 0 381 137" fill="none" xmlns="http://www.w3.org/2000/svg">
<path d="M321.569 0.000116875C354.392 0.000119744 381 30.6012 381 68.3494C381 106.098 354.392 136.699 321.569 136.699L80.4079 136.699C67.634 136.699 55.8013 132.064 46.112 124.177C34.2851 132.191 18.4858 138.47 2.22029e-05 136.699C19.5774 136.699 20.9774 92.4727 20.9766 68.3494C20.9766 30.6011 47.5849 9.31265e-05 80.4079 9.5996e-05L321.569 0.000116875Z" fill="white"/>
<path d="M68.4318 72.3638V73.6138H62.8182V84.0001H61.4091V72.3638H68.4318ZM72.7102 84.1819C71.9223 84.1819 71.2311 83.9944 70.6364 83.6194C70.0455 83.2444 69.5833 82.7198 69.25 82.0456C68.9205 81.3713 68.7557 80.5835 68.7557 79.6819C68.7557 78.7728 68.9205 77.9793 69.25 77.3013C69.5833 76.6232 70.0455 76.0967 70.6364 75.7217C71.2311 75.3467 71.9223 75.1592 72.7102 75.1592C73.4981 75.1592 74.1875 75.3467 74.7784 75.7217C75.3731 76.0967 75.8352 76.6232 76.1648 77.3013C76.4981 77.9793 76.6648 78.7728 76.6648 79.6819C76.6648 80.5835 76.4981 81.3713 76.1648 82.0456C75.8352 82.7198 75.3731 83.2444 74.7784 83.6194C74.1875 83.9944 73.4981 84.1819 72.7102 84.1819ZM72.7102 82.9774C73.3087 82.9774 73.8011 82.824 74.1875 82.5172C74.5739 82.2103 74.8598 81.8069 75.0455 81.3069C75.2311 80.8069 75.3239 80.2653 75.3239 79.6819C75.3239 79.0986 75.2311 78.555 75.0455 78.0513C74.8598 77.5475 74.5739 77.1403 74.1875 76.8297C73.8011 76.5191 73.3087 76.3638 72.7102 76.3638C72.1117 76.3638 71.6193 76.5191 71.233 76.8297C70.8466 77.1403 70.5606 77.5475 70.375 78.0513C70.1894 78.555 70.0966 79.0986 70.0966 79.6819C70.0966 80.2653 70.1894 80.8069 70.375 81.3069C70.5606 81.8069 70.8466 82.2103 71.233 82.5172C71.6193 82.824 72.1117 82.9774 72.7102 82.9774ZM77.571 76.5228V75.2728H84.6619V76.5228H81.7983V84.0001H80.4574V76.5228H77.571ZM89.7102 84.1819C88.9223 84.1819 88.2311 83.9944 87.6364 83.6194C87.0455 83.2444 86.5833 82.7198 86.25 82.0456C85.9205 81.3713 85.7557 80.5835 85.7557 79.6819C85.7557 78.7728 85.9205 77.9793 86.25 77.3013C86.5833 76.6232 87.0455 76.0967 87.6364 75.7217C88.2311 75.3467 88.9223 75.1592 89.7102 75.1592C90.4981 75.1592 91.1875 75.3467 91.7784 75.7217C92.3731 76.0967 92.8352 76.6232 93.1648 77.3013C93.4981 77.9793 93.6648 78.7728 93.6648 79.6819C93.6648 80.5835 93.4981 81.3713 93.1648 82.0456C92.8352 82.7198 92.3731 83.2444 91.7784 83.6194C91.1875 83.9944 90.4981 84.1819 89.7102 84.1819ZM89.7102 82.9774C90.3087 82.9774 90.8011 82.824 91.1875 82.5172C91.5739 82.2103 91.8598 81.8069 92.0455 81.3069C92.2311 80.8069 92.3239 80.2653 92.3239 79.6819C92.3239 79.0986 92.2311 78.555 92.0455 78.0513C91.8598 77.5475 91.5739 77.1403 91.1875 76.8297C90.8011 76.5191 90.3087 76.3638 89.7102 76.3638C89.1117 76.3638 88.6193 76.5191 88.233 76.8297C87.8466 77.1403 87.5606 77.5475 87.375 78.0513C87.1894 78.555 87.0966 79.0986 87.0966 79.6819C87.0966 80.2653 87.1894 80.8069 87.375 81.3069C87.5606 81.8069 87.8466 82.2103 88.233 82.5172C88.6193 82.824 89.1117 82.9774 89.7102 82.9774ZM95.7116 84.0001V75.2728H99.2798C100.219 75.2728 100.965 75.485 101.518 75.9092C102.071 76.3335 102.348 76.8941 102.348 77.591C102.348 78.1213 102.191 78.5323 101.876 78.824C101.562 79.1119 101.159 79.3069 100.666 79.4092C100.988 79.4547 101.301 79.5683 101.604 79.7501C101.911 79.9319 102.164 80.1819 102.365 80.5001C102.566 80.8145 102.666 81.2009 102.666 81.6592C102.666 82.1062 102.553 82.5058 102.325 82.8581C102.098 83.2103 101.772 83.4888 101.348 83.6933C100.924 83.8978 100.416 84.0001 99.8253 84.0001H95.7116ZM96.9844 82.7728H99.8253C100.287 82.7728 100.649 82.663 100.911 82.4433C101.172 82.2236 101.303 81.9244 101.303 81.5456C101.303 81.0948 101.172 80.7407 100.911 80.4831C100.649 80.2217 100.287 80.091 99.8253 80.091H96.9844V82.7728ZM96.9844 78.9319H99.2798C99.6397 78.9319 99.9484 78.8827 100.206 78.7842C100.464 78.6819 100.661 78.538 100.797 78.3524C100.937 78.163 101.007 77.9395 101.007 77.6819C101.007 77.3145 100.854 77.0266 100.547 76.8183C100.24 76.6062 99.8177 76.5001 99.2798 76.5001H96.9844V78.9319ZM112.855 84.1819C112.014 84.1819 111.289 83.9963 110.679 83.6251C110.073 83.2501 109.605 82.7274 109.276 82.0569C108.95 81.3827 108.787 80.5986 108.787 79.7047C108.787 78.8107 108.95 78.0228 109.276 77.341C109.605 76.6554 110.063 76.1213 110.651 75.7388C111.241 75.3524 111.931 75.1592 112.719 75.1592C113.173 75.1592 113.622 75.235 114.065 75.3865C114.509 75.538 114.912 75.7842 115.276 76.1251C115.639 76.4622 115.929 76.9092 116.145 77.466C116.361 78.0228 116.469 78.7085 116.469 79.5228V80.091H109.741V78.9319H115.105C115.105 78.4395 115.007 78.0001 114.81 77.6138C114.616 77.2274 114.34 76.9225 113.98 76.699C113.624 76.4755 113.204 76.3638 112.719 76.3638C112.185 76.3638 111.723 76.4963 111.332 76.7615C110.946 77.0228 110.649 77.3638 110.44 77.7842C110.232 78.2047 110.128 78.6554 110.128 79.1365V79.9092C110.128 80.5683 110.241 81.127 110.469 81.5853C110.7 82.0399 111.02 82.3865 111.429 82.6251C111.838 82.86 112.313 82.9774 112.855 82.9774C113.207 82.9774 113.526 82.9282 113.81 82.8297C114.098 82.7274 114.346 82.5759 114.554 82.3751C114.762 82.1706 114.923 81.9168 115.037 81.6138L116.332 81.9774C116.196 82.4168 115.967 82.8032 115.645 83.1365C115.323 83.466 114.925 83.7236 114.452 83.9092C113.978 84.091 113.446 84.1819 112.855 84.1819ZM122.054 84.1819C121.236 84.1819 120.531 83.9888 119.94 83.6024C119.349 83.216 118.895 82.6838 118.577 82.0058C118.259 81.3278 118.099 80.5532 118.099 79.6819C118.099 78.7956 118.262 78.0134 118.588 77.3353C118.918 76.6535 119.376 76.1213 119.963 75.7388C120.554 75.3524 121.243 75.1592 122.031 75.1592C122.645 75.1592 123.198 75.2728 123.69 75.5001C124.183 75.7274 124.586 76.0456 124.901 76.4547C125.215 76.8638 125.41 77.341 125.486 77.8865H124.145C124.043 77.4888 123.815 77.1365 123.463 76.8297C123.115 76.5191 122.645 76.3638 122.054 76.3638C121.531 76.3638 121.073 76.5001 120.679 76.7728C120.289 77.0418 119.984 77.4225 119.764 77.9149C119.548 78.4035 119.44 78.9774 119.44 79.6365C119.44 80.3107 119.546 80.8978 119.759 81.3978C119.974 81.8978 120.277 82.2861 120.668 82.5626C121.062 82.8391 121.524 82.9774 122.054 82.9774C122.402 82.9774 122.719 82.9168 123.003 82.7956C123.287 82.6744 123.527 82.5001 123.724 82.2728C123.921 82.0456 124.062 81.7728 124.145 81.4547H125.486C125.41 81.9698 125.223 82.4338 124.923 82.8467C124.628 83.2558 124.236 83.5816 123.747 83.824C123.262 84.0626 122.698 84.1819 122.054 84.1819ZM126.759 76.5228V75.2728H133.849V76.5228H130.986V84.0001H129.645V76.5228H126.759ZM136.964 78.4319H139.464C140.487 78.4319 141.269 78.6914 141.811 79.2103C142.353 79.7293 142.624 80.3865 142.624 81.1819C142.624 81.7047 142.502 82.18 142.26 82.6081C142.018 83.0323 141.661 83.3713 141.192 83.6251C140.722 83.8751 140.146 84.0001 139.464 84.0001H135.805V75.2728H137.146V82.7501H139.464C139.995 82.7501 140.43 82.61 140.771 82.3297C141.112 82.0494 141.283 81.6895 141.283 81.2501C141.283 80.788 141.112 80.4111 140.771 80.1194C140.43 79.8278 139.995 79.6819 139.464 79.6819H136.964V78.4319ZM152.051 76.4092C151.748 76.413 151.443 76.4907 151.136 76.6422C150.833 76.7937 150.58 76.9944 150.375 77.2444C150.174 77.4907 150.074 77.7653 150.074 78.0683H148.756C148.756 77.6895 148.847 77.3259 149.028 76.9774C149.21 76.6289 149.455 76.3183 149.761 76.0456C150.072 75.7728 150.424 75.5569 150.818 75.3978C151.216 75.2388 151.627 75.1592 152.051 75.1592C152.847 75.1592 153.521 75.36 154.074 75.7615C154.631 76.163 155.053 76.6933 155.341 77.3524C155.633 78.0115 155.778 78.7274 155.778 79.5001V79.8183C155.778 80.5872 155.633 81.3032 155.341 81.966C155.053 82.6251 154.631 83.1554 154.074 83.5569C153.521 83.9585 152.847 84.1592 152.051 84.1592C151.415 84.1592 150.848 84.0191 150.352 83.7388C149.856 83.4547 149.466 83.0759 149.182 82.6024C148.898 82.1289 148.756 81.6024 148.756 81.0228H150.074C150.074 81.3524 150.167 81.6611 150.352 81.949C150.542 82.2331 150.786 82.4641 151.085 82.6422C151.388 82.8164 151.71 82.9054 152.051 82.9092C152.559 82.9054 152.991 82.7463 153.347 82.4319C153.703 82.1175 153.973 81.7236 154.159 81.2501C154.345 80.7766 154.438 80.2994 154.438 79.8183V79.5001C154.438 79.0077 154.345 78.5266 154.159 78.0569C153.977 77.5835 153.708 77.1914 153.352 76.8808C153 76.5702 152.566 76.413 152.051 76.4092ZM154.983 78.9774V80.2274H151.165V78.9774H154.983ZM156.68 76.5228V75.2728H163.771V76.5228H160.908V84.0001H159.567V76.5228H156.68ZM166.591 87.2728C166.364 87.2728 166.161 87.2539 165.983 87.216C165.805 87.1819 165.682 87.1478 165.614 87.1138L165.955 85.9319C166.28 86.0153 166.568 86.0456 166.818 86.0228C167.068 86.0001 167.29 85.8884 167.483 85.6876C167.68 85.4907 167.86 85.1706 168.023 84.7274L168.273 84.0456L165.045 75.2728H166.5L168.909 82.2274H169L171.409 75.2728H172.864L169.159 85.2728C168.992 85.7236 168.786 86.0967 168.54 86.3922C168.294 86.6914 168.008 86.913 167.682 87.0569C167.36 87.2009 166.996 87.2728 166.591 87.2728ZM179.134 84.0001V75.2728H182.702C183.641 75.2728 184.387 75.485 184.94 75.9092C185.493 76.3335 185.77 76.8941 185.77 77.591C185.77 78.1213 185.613 78.5323 185.298 78.824C184.984 79.1119 184.58 79.3069 184.088 79.4092C184.41 79.4547 184.723 79.5683 185.026 79.7501C185.332 79.9319 185.586 80.1819 185.787 80.5001C185.988 80.8145 186.088 81.2009 186.088 81.6592C186.088 82.1062 185.974 82.5058 185.747 82.8581C185.52 83.2103 185.194 83.4888 184.77 83.6933C184.346 83.8978 183.838 84.0001 183.247 84.0001H179.134ZM180.406 82.7728H183.247C183.709 82.7728 184.071 82.663 184.332 82.4433C184.594 82.2236 184.724 81.9244 184.724 81.5456C184.724 81.0948 184.594 80.7407 184.332 80.4831C184.071 80.2217 183.709 80.091 183.247 80.091H180.406V82.7728ZM180.406 78.9319H182.702C183.062 78.9319 183.37 78.8827 183.628 78.7842C183.885 78.6819 184.082 78.538 184.219 78.3524C184.359 78.163 184.429 77.9395 184.429 77.6819C184.429 77.3145 184.276 77.0266 183.969 76.8183C183.662 76.6062 183.24 76.5001 182.702 76.5001H180.406V78.9319ZM188.118 84.0001V75.2728H189.459V79.0683H190.345L193.482 75.2728H195.209L191.686 79.4774L195.254 84.0001H193.527L190.663 80.3183H189.459V84.0001H188.118ZM197.575 87.2728C197.348 87.2728 197.145 87.2539 196.967 87.216C196.789 87.1819 196.666 87.1478 196.598 87.1138L196.939 85.9319C197.265 86.0153 197.553 86.0456 197.803 86.0228C198.053 86.0001 198.274 85.8884 198.467 85.6876C198.664 85.4907 198.844 85.1706 199.007 84.7274L199.257 84.0456L196.03 75.2728H197.484L199.893 82.2274H199.984L202.393 75.2728H203.848L200.143 85.2728C199.977 85.7236 199.77 86.0967 199.524 86.3922C199.278 86.6914 198.992 86.913 198.666 87.0569C198.344 87.2009 197.981 87.2728 197.575 87.2728ZM208.851 84.1819C208.033 84.1819 207.328 83.9888 206.737 83.6024C206.146 83.216 205.692 82.6838 205.374 82.0058C205.055 81.3278 204.896 80.5532 204.896 79.6819C204.896 78.7956 205.059 78.0134 205.385 77.3353C205.714 76.6535 206.173 76.1213 206.76 75.7388C207.351 75.3524 208.04 75.1592 208.828 75.1592C209.442 75.1592 209.995 75.2728 210.487 75.5001C210.98 75.7274 211.383 76.0456 211.697 76.4547C212.012 76.8638 212.207 77.341 212.283 77.8865H210.942C210.839 77.4888 210.612 77.1365 210.26 76.8297C209.911 76.5191 209.442 76.3638 208.851 76.3638C208.328 76.3638 207.87 76.5001 207.476 76.7728C207.086 77.0418 206.781 77.4225 206.561 77.9149C206.345 78.4035 206.237 78.9774 206.237 79.6365C206.237 80.3107 206.343 80.8978 206.555 81.3978C206.771 81.8978 207.074 82.2861 207.464 82.5626C207.858 82.8391 208.321 82.9774 208.851 82.9774C209.199 82.9774 209.516 82.9168 209.8 82.7956C210.084 82.6744 210.324 82.5001 210.521 82.2728C210.718 82.0456 210.858 81.7728 210.942 81.4547H212.283C212.207 81.9698 212.019 82.4338 211.72 82.8467C211.425 83.2558 211.033 83.5816 210.544 83.824C210.059 84.0626 209.495 84.1819 208.851 84.1819ZM220.084 79.0228V80.2728H215.266V79.0228H220.084ZM215.584 75.2728V84.0001H214.243V75.2728H215.584ZM221.107 75.2728V84.0001L219.766 84.0001V75.2728H221.107ZM228.805 84.0001V76.5001H226.487C225.964 76.5001 225.554 76.6213 225.254 76.8638C224.955 77.1062 224.805 77.4395 224.805 77.8638C224.805 78.2804 224.94 78.6081 225.209 78.8467C225.482 79.0853 225.855 79.2047 226.328 79.2047H229.146V80.4547H226.328C225.737 80.4547 225.228 80.3505 224.8 80.1422C224.372 79.9338 224.042 79.6365 223.811 79.2501C223.58 78.86 223.464 78.3978 223.464 77.8638C223.464 77.3259 223.586 76.8638 223.828 76.4774C224.071 76.091 224.417 75.7937 224.868 75.5853C225.322 75.377 225.862 75.2728 226.487 75.2728H230.078V84.0001H228.805ZM222.987 84.0001L225.464 79.6592H226.919L224.442 84.0001H222.987ZM231.352 76.5228V75.2728H238.443V76.5228H235.58V84.0001H234.239V76.5228H231.352ZM241.74 82.0228L245.945 75.2728H247.49V84.0001H246.149V77.2501L241.967 84.0001H240.399V75.2728H241.74V82.0228ZM255.787 79.0228V80.2728H250.969V79.0228H255.787ZM251.287 75.2728V84.0001H249.946V75.2728H251.287ZM256.81 75.2728V84.0001H255.469V75.2728H256.81ZM259.81 87.2728C259.582 87.2728 259.38 87.2539 259.202 87.216C259.024 87.1819 258.901 87.1478 258.832 87.1138L259.173 85.9319C259.499 86.0153 259.787 86.0456 260.037 86.0228C260.287 86.0001 260.509 85.8884 260.702 85.6876C260.899 85.4907 261.079 85.1706 261.241 84.7274L261.491 84.0456L258.264 75.2728H259.719L262.128 82.2274H262.219L264.628 75.2728H266.082L262.378 85.2728C262.211 85.7236 262.005 86.0967 261.759 86.3922C261.512 86.6914 261.226 86.913 260.901 87.0569C260.579 87.2009 260.215 87.2728 259.81 87.2728ZM61.2273 108V99.2728H62.5682V103.068H63.4545L66.5909 99.2728H68.3182L64.7955 103.477L68.3636 108H66.6364L63.7727 104.318H62.5682V108H61.2273ZM72.3892 108.205C71.8362 108.205 71.3343 108.101 70.8835 107.892C70.4328 107.68 70.0748 107.375 69.8097 106.977C69.5445 106.576 69.4119 106.091 69.4119 105.523C69.4119 105.023 69.5104 104.618 69.7074 104.307C69.9044 103.993 70.1676 103.746 70.4972 103.568C70.8267 103.39 71.1903 103.258 71.5881 103.171C71.9896 103.08 72.393 103.008 72.7983 102.955C73.3286 102.886 73.7585 102.835 74.0881 102.801C74.4214 102.763 74.6638 102.701 74.8153 102.614C74.9706 102.527 75.0483 102.375 75.0483 102.159V102.114C75.0483 101.553 74.8949 101.118 74.5881 100.807C74.285 100.496 73.8248 100.341 73.2074 100.341C72.5672 100.341 72.0653 100.481 71.7017 100.761C71.3381 101.042 71.0824 101.341 70.9347 101.659L69.6619 101.205C69.8892 100.674 70.1922 100.261 70.571 99.966C70.9536 99.6668 71.3703 99.4585 71.821 99.341C72.2756 99.2198 72.7225 99.1592 73.1619 99.1592C73.4422 99.1592 73.7642 99.1933 74.1278 99.2615C74.4953 99.3259 74.8494 99.4603 75.1903 99.6649C75.535 99.8694 75.821 100.178 76.0483 100.591C76.2756 101.004 76.3892 101.557 76.3892 102.25V108H75.0483V106.818H74.9801C74.8892 107.008 74.7377 107.21 74.5256 107.426C74.3134 107.642 74.0313 107.826 73.679 107.977C73.3267 108.129 72.8968 108.205 72.3892 108.205ZM72.5938 107C73.1241 107 73.571 106.896 73.9347 106.688C74.3021 106.479 74.5786 106.21 74.7642 105.881C74.9536 105.551 75.0483 105.205 75.0483 104.841V103.614C74.9915 103.682 74.8665 103.744 74.6733 103.801C74.4839 103.854 74.2642 103.902 74.0142 103.943C73.768 103.981 73.5275 104.015 73.2926 104.046C73.0616 104.072 72.8741 104.095 72.7301 104.114C72.3816 104.159 72.0559 104.233 71.7528 104.335C71.4536 104.434 71.2112 104.583 71.0256 104.784C70.8438 104.981 70.7528 105.25 70.7528 105.591C70.7528 106.057 70.9252 106.409 71.2699 106.648C71.6184 106.883 72.0597 107 72.5938 107ZM78.2912 108L81.8366 103.568L78.3366 99.2728H79.9276L82.8366 103H83.5639V99.2728H84.9048V103H85.6094L88.5185 99.2728H90.1094L86.6321 103.568L90.1548 108H88.5412L85.5866 104.25H84.9048V108H83.5639V104.25H82.8821L79.9048 108H78.2912ZM91.1392 110.5V106.75H91.8665C92.0445 106.565 92.1979 106.364 92.3267 106.148C92.4555 105.932 92.5672 105.676 92.6619 105.381C92.7604 105.082 92.8438 104.718 92.9119 104.29C92.9801 103.858 93.0407 103.337 93.0938 102.727L93.3892 99.2728H98.9347V106.75H100.276V110.5H98.9347V108H92.4801V110.5H91.1392ZM93.3892 106.75H97.5938V100.523H94.6392L94.4119 102.727C94.3172 103.64 94.1998 104.438 94.0597 105.119C93.9195 105.801 93.696 106.345 93.3892 106.75ZM103.214 102.432H105.714C106.737 102.432 107.519 102.691 108.061 103.21C108.603 103.729 108.874 104.386 108.874 105.182C108.874 105.705 108.752 106.18 108.51 106.608C108.268 107.032 107.911 107.371 107.442 107.625C106.972 107.875 106.396 108 105.714 108H102.055V99.2728H103.396V106.75H105.714C106.245 106.75 106.68 106.61 107.021 106.33C107.362 106.049 107.533 105.69 107.533 105.25C107.533 104.788 107.362 104.411 107.021 104.119C106.68 103.828 106.245 103.682 105.714 103.682H103.214V102.432ZM110.26 108V99.2728H111.601V108H110.26ZM115.396 106.023L119.601 99.2728H121.146V108H119.805V101.25L115.624 108H114.055V99.2728H115.396V106.023ZM118.714 96.3638H119.964C119.964 96.9774 119.752 97.4793 119.328 97.8694C118.904 98.2596 118.328 98.4547 117.601 98.4547C116.885 98.4547 116.315 98.2596 115.891 97.8694C115.47 97.4793 115.26 96.9774 115.26 96.3638H116.51C116.51 96.6592 116.591 96.9187 116.754 97.1422C116.921 97.3657 117.203 97.4774 117.601 97.4774C117.999 97.4774 118.283 97.3657 118.453 97.1422C118.627 96.9187 118.714 96.6592 118.714 96.3638ZM127.17 110.5V106.75H127.898C128.076 106.565 128.229 106.364 128.358 106.148C128.487 105.932 128.598 105.676 128.693 105.381C128.792 105.082 128.875 104.718 128.943 104.29C129.011 103.858 129.072 103.337 129.125 102.727L129.42 99.2728H134.966V106.75H136.307V110.5H134.966V108H128.511V110.5H127.17ZM129.42 106.75H133.625V100.523H130.67L130.443 102.727C130.348 103.64 130.231 104.438 130.091 105.119C129.951 105.801 129.727 106.345 129.42 106.75ZM141.746 108.182C140.905 108.182 140.179 107.996 139.57 107.625C138.964 107.25 138.496 106.727 138.166 106.057C137.84 105.383 137.678 104.599 137.678 103.705C137.678 102.811 137.84 102.023 138.166 101.341C138.496 100.655 138.954 100.121 139.541 99.7388C140.132 99.3524 140.821 99.1592 141.609 99.1592C142.064 99.1592 142.513 99.235 142.956 99.3865C143.399 99.538 143.803 99.7842 144.166 100.125C144.53 100.462 144.82 100.909 145.036 101.466C145.251 102.023 145.359 102.708 145.359 103.523V104.091H138.632V102.932H143.996C143.996 102.44 143.897 102 143.7 101.614C143.507 101.227 143.231 100.922 142.871 100.699C142.515 100.476 142.094 100.364 141.609 100.364C141.075 100.364 140.613 100.496 140.223 100.761C139.837 101.023 139.539 101.364 139.331 101.784C139.123 102.205 139.018 102.655 139.018 103.136V103.909C139.018 104.568 139.132 105.127 139.359 105.585C139.59 106.04 139.911 106.386 140.32 106.625C140.729 106.86 141.204 106.977 141.746 106.977C142.098 106.977 142.416 106.928 142.7 106.83C142.988 106.727 143.236 106.576 143.445 106.375C143.653 106.171 143.814 105.917 143.928 105.614L145.223 105.977C145.087 106.417 144.857 106.803 144.536 107.136C144.214 107.466 143.816 107.724 143.342 107.909C142.869 108.091 142.337 108.182 141.746 108.182ZM153.24 103.023V104.273H148.422V103.023H153.24ZM148.74 99.2728V108H147.399V99.2728H148.74ZM154.263 99.2728V108H152.922V99.2728H154.263ZM157.871 102.432H160.371C161.393 102.432 162.176 102.691 162.717 103.21C163.259 103.729 163.53 104.386 163.53 105.182C163.53 105.705 163.409 106.18 163.166 106.608C162.924 107.032 162.568 107.371 162.098 107.625C161.628 107.875 161.053 108 160.371 108H156.712V99.2728H158.053V106.75H160.371C160.901 106.75 161.337 106.61 161.678 106.33C162.018 106.049 162.189 105.69 162.189 105.25C162.189 104.788 162.018 104.411 161.678 104.119C161.337 103.828 160.901 103.682 160.371 103.682H157.871V102.432ZM167.344 96.3638L167.23 104.727H165.912L165.798 96.3638H167.344ZM166.571 108.091C166.291 108.091 166.05 107.991 165.849 107.79C165.649 107.589 165.548 107.349 165.548 107.068C165.548 106.788 165.649 106.547 165.849 106.347C166.05 106.146 166.291 106.046 166.571 106.046C166.851 106.046 167.092 106.146 167.293 106.347C167.493 106.547 167.594 106.788 167.594 107.068C167.594 107.254 167.546 107.424 167.452 107.58C167.361 107.735 167.238 107.86 167.082 107.955C166.931 108.046 166.76 108.091 166.571 108.091Z" fill="black"/>
<path d="M61.5586 16.164H63.0302L66.4905 24.6157H66.6098L70.07 16.164H71.5416V26.3458H70.3882V18.61H70.2888L67.1069 26.3458H65.9933L62.8115 18.61H62.712V26.3458H61.5586V16.164ZM76.1018 26.5248C75.6179 26.5248 75.1787 26.4337 74.7843 26.2514C74.3899 26.0658 74.0767 25.799 73.8447 25.4509C73.6127 25.0996 73.4967 24.6754 73.4967 24.1782C73.4967 23.7407 73.5828 23.3861 73.7552 23.1143C73.9275 22.8392 74.1579 22.6238 74.4462 22.468C74.7346 22.3122 75.0528 22.1962 75.4008 22.12C75.7521 22.0404 76.1051 21.9775 76.4597 21.9311C76.9238 21.8714 77.2999 21.8266 77.5883 21.7968C77.88 21.7637 78.0921 21.709 78.2247 21.6328C78.3605 21.5565 78.4285 21.424 78.4285 21.235V21.1953C78.4285 20.7047 78.2943 20.3236 78.0258 20.0518C77.7606 19.78 77.3579 19.6441 76.8177 19.6441C76.2576 19.6441 75.8184 19.7668 75.5002 20.012C75.182 20.2573 74.9583 20.5191 74.8291 20.7975L73.7154 20.3998C73.9143 19.9358 74.1794 19.5745 74.5109 19.316C74.8456 19.0542 75.2102 18.8719 75.6046 18.7691C76.0024 18.6631 76.3935 18.61 76.7779 18.61C77.0232 18.61 77.3049 18.6399 77.6231 18.6995C77.9446 18.7559 78.2545 18.8735 78.5528 19.0525C78.8544 19.2315 79.1046 19.5016 79.3035 19.8629C79.5024 20.2241 79.6018 20.708 79.6018 21.3146V26.3458H78.4285V25.3117H78.3688C78.2893 25.4775 78.1567 25.6548 77.9711 25.8437C77.7855 26.0326 77.5386 26.1934 77.2303 26.3259C76.9221 26.4585 76.5459 26.5248 76.1018 26.5248ZM76.2808 25.4708C76.7448 25.4708 77.1359 25.3797 77.4541 25.1974C77.7756 25.0151 78.0175 24.7798 78.1799 24.4914C78.3456 24.2031 78.4285 23.8998 78.4285 23.5816V22.5078C78.3788 22.5674 78.2694 22.6221 78.1004 22.6718C77.9346 22.7182 77.7424 22.7597 77.5237 22.7961C77.3082 22.8293 77.0978 22.8591 76.8923 22.8856C76.6901 22.9088 76.526 22.9287 76.4001 22.9453C76.0952 22.985 75.8101 23.0497 75.545 23.1391C75.2831 23.2253 75.071 23.3562 74.9086 23.5319C74.7495 23.7043 74.67 23.9396 74.67 24.2379C74.67 24.6455 74.8208 24.9538 75.1224 25.1626C75.4273 25.3681 75.8134 25.4708 76.2808 25.4708ZM81.7433 29.2095V18.7095H82.8768V19.9225H83.016C83.1022 19.79 83.2215 19.6209 83.374 19.4154C83.5298 19.2066 83.7518 19.021 84.0402 18.8586C84.3318 18.6929 84.7263 18.61 85.2234 18.61C85.8664 18.61 86.4332 18.7708 86.9237 19.0923C87.4142 19.4138 87.797 19.8695 88.0721 20.4595C88.3472 21.0494 88.4848 21.7454 88.4848 22.5475C88.4848 23.3562 88.3472 24.0572 88.0721 24.6505C87.797 25.2405 87.4159 25.6979 86.9287 26.0227C86.4415 26.3442 85.8797 26.5049 85.2433 26.5049C84.7528 26.5049 84.36 26.4237 84.065 26.2613C83.77 26.0956 83.543 25.9083 83.3839 25.6995C83.2248 25.4874 83.1022 25.3117 83.016 25.1725H82.9166V29.2095H81.7433ZM82.8967 22.5276C82.8967 23.1043 82.9812 23.6131 83.1503 24.0539C83.3193 24.4914 83.5662 24.8345 83.891 25.083C84.2158 25.3283 84.6136 25.4509 85.0842 25.4509C85.5747 25.4509 85.9841 25.3217 86.3122 25.0632C86.6436 24.8013 86.8922 24.45 87.0579 24.0092C87.227 23.565 87.3115 23.0712 87.3115 22.5276C87.3115 21.9907 87.2286 21.5068 87.0629 21.0759C86.9005 20.6418 86.6536 20.2987 86.3221 20.0468C85.994 19.7916 85.5814 19.664 85.0842 19.664C84.6069 19.664 84.2059 19.785 83.8811 20.0269C83.5563 20.2656 83.311 20.6003 83.1453 21.0312C82.9796 21.4588 82.8967 21.9576 82.8967 22.5276ZM90.2745 26.3458V18.7095H91.4478V22.0305H92.2234L94.9677 18.7095H96.4791L93.3967 22.3884L96.5189 26.3458H95.0075L92.5018 23.1242H91.4478V26.3458H90.2745ZM98.9674 24.6157L102.646 18.7095H103.999V26.3458H102.825V20.4396L99.1662 26.3458H97.7941V18.7095H98.9674V24.6157ZM105.67 24.397H106.923C106.95 24.7417 107.105 25.0035 107.39 25.1825C107.679 25.3615 108.053 25.4509 108.514 25.4509C108.985 25.4509 109.387 25.3548 109.722 25.1626C110.057 24.967 110.224 24.6522 110.224 24.218C110.224 23.9628 110.161 23.7407 110.035 23.5518C109.909 23.3596 109.732 23.2104 109.503 23.1043C109.275 22.9983 109.005 22.9453 108.693 22.9453L107.381 22.9453V21.8913L108.693 21.8913C109.16 21.8913 109.505 21.7852 109.727 21.5731C109.953 21.361 110.065 21.0958 110.065 20.7776C110.065 20.4363 109.944 20.1628 109.702 19.9573C109.46 19.7485 109.117 19.6441 108.673 19.6441C108.226 19.6441 107.853 19.7452 107.555 19.9474C107.256 20.1463 107.099 20.4031 107.082 20.718H105.849C105.863 20.307 105.989 19.9441 106.227 19.6292C106.466 19.311 106.791 19.0624 107.202 18.8835C107.613 18.7012 108.083 18.61 108.614 18.61C109.15 18.61 109.616 18.7045 110.011 18.8934C110.408 19.079 110.715 19.3326 110.93 19.6541C111.149 19.9722 111.258 20.3335 111.258 20.7379C111.258 21.1687 111.137 21.5168 110.895 21.7819C110.654 22.0471 110.35 22.236 109.986 22.3487V22.4282C110.274 22.4481 110.524 22.5409 110.736 22.7066C110.952 22.869 111.119 23.0828 111.239 23.348C111.358 23.6098 111.417 23.8998 111.417 24.218C111.417 24.682 111.293 25.0864 111.045 25.4311C110.796 25.7724 110.455 26.0376 110.02 26.2265C109.586 26.4121 109.091 26.5049 108.534 26.5049C107.994 26.5049 107.51 26.4171 107.082 26.2414C106.655 26.0624 106.315 25.8155 106.063 25.5007C105.814 25.1825 105.684 24.8146 105.67 24.397Z" fill="#575757"/>
<path d="M206.236 53.1393C205.652 53.1393 205.127 53.0233 204.66 52.7913C204.192 52.5593 203.818 52.2411 203.536 51.8368C203.254 51.4324 203.1 50.9717 203.074 50.4547H204.267C204.313 50.9154 204.522 51.2965 204.893 51.5981C205.268 51.8964 205.715 52.0456 206.236 52.0456C206.653 52.0456 207.025 51.9478 207.349 51.7523C207.678 51.5567 207.934 51.2882 208.12 50.9469C208.309 50.6022 208.403 50.2127 208.403 49.7785C208.403 49.3344 208.306 48.9383 208.11 48.5903C207.918 48.239 207.653 47.9622 207.315 47.7601C206.977 47.5579 206.59 47.4551 206.156 47.4518C205.845 47.4485 205.525 47.4966 205.197 47.596C204.869 47.6921 204.598 47.8164 204.386 47.9689L203.233 47.8297L203.849 42.8183H209.139V43.9121H204.884L204.526 46.9149H204.585C204.794 46.7492 205.056 46.6116 205.371 46.5023C205.686 46.3929 206.014 46.3382 206.355 46.3382C206.978 46.3382 207.533 46.4873 208.021 46.7856C208.511 47.0806 208.896 47.485 209.174 47.9987C209.456 48.5124 209.597 49.0991 209.597 49.7586C209.597 50.4083 209.451 50.9883 209.159 51.4987C208.871 52.0058 208.473 52.4068 207.966 52.7018C207.459 52.9935 206.882 53.1393 206.236 53.1393ZM212.959 51.6081L212.879 52.145C212.823 52.5228 212.737 52.9272 212.621 53.3581C212.508 53.7889 212.39 54.195 212.268 54.5761C212.145 54.9573 212.044 55.2605 211.964 55.4859H211.069C211.113 55.2738 211.169 54.9937 211.238 54.6457C211.308 54.2977 211.378 53.9083 211.447 53.4774C211.52 53.0498 211.58 52.6123 211.626 52.1649L211.686 51.6081H212.959ZM218.078 53.1393C217.329 53.1393 216.691 52.9355 216.164 52.5278C215.637 52.1168 215.234 51.5219 214.956 50.743C214.678 49.9608 214.538 49.0162 214.538 47.9092C214.538 46.8088 214.678 45.8692 214.956 45.0903C215.238 44.3081 215.642 43.7115 216.169 43.3005C216.699 42.8862 217.336 42.6791 218.078 42.6791C218.821 42.6791 219.455 42.8862 219.982 43.3005C220.513 43.7115 220.917 44.3081 221.195 45.0903C221.477 45.8692 221.618 46.8088 221.618 47.9092C221.618 49.0162 221.479 49.9608 221.2 50.743C220.922 51.5219 220.519 52.1168 219.992 52.5278C219.465 52.9355 218.827 53.1393 218.078 53.1393ZM218.078 52.0456C218.821 52.0456 219.397 51.6876 219.808 50.9717C220.219 50.2558 220.425 49.235 220.425 47.9092C220.425 47.0276 220.33 46.2769 220.141 45.6571C219.956 45.0373 219.687 44.565 219.336 44.2402C218.988 43.9154 218.569 43.753 218.078 43.753C217.342 43.753 216.767 44.1159 216.353 44.8417C215.939 45.5643 215.732 46.5868 215.732 47.9092C215.732 48.7908 215.824 49.5399 216.01 50.1564C216.196 50.7728 216.462 51.2418 216.81 51.5633C217.162 51.8848 217.584 52.0456 218.078 52.0456Z" fill="black"/>
<path d="M74.0645 34.9078L77.7111 41.8887L85.4771 43.1996L79.9648 48.825L81.1179 56.616L74.0645 53.1118L67.011 56.616L68.1641 48.825L62.6518 43.1996L70.4178 41.8887L74.0645 34.9078Z" fill="#FFC115"/>
<path d="M102.064 34.9078L105.711 41.8887L113.477 43.1996L107.965 48.825L109.118 56.616L102.064 53.1118L95.011 56.616L96.1641 48.825L90.6518 43.1996L98.4178 41.8887L102.064 34.9078Z" fill="#FFC115"/>
<path d="M130.064 34.9078L133.711 41.8887L141.477 43.1996L135.965 48.825L137.118 56.616L130.064 53.1118L123.011 56.616L124.164 48.825L118.652 43.1996L126.418 41.8887L130.064 34.9078Z" fill="#FFC115"/>
<path d="M158.064 34.9078L161.711 41.8887L169.477 43.1996L163.965 48.825L165.118 56.616L158.064 53.1118L151.011 56.616L152.164 48.825L146.652 43.1996L154.418 41.8887L158.064 34.9078Z" fill="#FFC115"/>
<path d="M186.064 34.9078L189.711 41.8887L197.477 43.1996L191.965 48.825L193.118 56.616L186.064 53.1118L179.011 56.616L180.164 48.825L174.652 43.1996L182.418 41.8887L186.064 34.9078Z" fill="#FFC115"/>
</svg>
