<svg width="381" height="137" viewBox="0 0 381 137" fill="none" xmlns="http://www.w3.org/2000/svg">
<path d="M321.569 0.000116875C354.392 0.000119744 381 30.6012 381 68.3494C381 106.098 354.392 136.699 321.569 136.699L80.4079 136.699C67.634 136.699 55.8013 132.064 46.112 124.177C34.285 132.191 18.4858 138.47 1.07588e-05 136.699C19.5774 136.699 20.9774 92.4727 20.9766 68.3494C20.9766 30.6011 47.5849 9.31265e-05 80.4079 9.5996e-05L321.569 0.000116875Z" fill="white"/>
<path d="M70.1136 72.3638V84.0001H68.7045V73.6138H62.8409V84.0001H61.4318V72.3638H70.1136ZM76.3196 84.1819C75.5317 84.1819 74.8404 83.9944 74.2457 83.6194C73.6548 83.2444 73.1927 82.7198 72.8594 82.0456C72.5298 81.3713 72.3651 80.5835 72.3651 79.6819C72.3651 78.7728 72.5298 77.9793 72.8594 77.3013C73.1927 76.6232 73.6548 76.0967 74.2457 75.7217C74.8404 75.3467 75.5317 75.1592 76.3196 75.1592C77.1075 75.1592 77.7969 75.3467 78.3878 75.7217C78.9825 76.0967 79.4446 76.6232 79.7741 77.3013C80.1075 77.9793 80.2741 78.7728 80.2741 79.6819C80.2741 80.5835 80.1075 81.3713 79.7741 82.0456C79.4446 82.7198 78.9825 83.2444 78.3878 83.6194C77.7969 83.9944 77.1075 84.1819 76.3196 84.1819ZM76.3196 82.9774C76.9181 82.9774 77.4105 82.824 77.7969 82.5172C78.1832 82.2103 78.4692 81.8069 78.6548 81.3069C78.8404 80.8069 78.9332 80.2653 78.9332 79.6819C78.9332 79.0986 78.8404 78.555 78.6548 78.0513C78.4692 77.5475 78.1832 77.1403 77.7969 76.8297C77.4105 76.5191 76.9181 76.3638 76.3196 76.3638C75.7211 76.3638 75.2287 76.5191 74.8423 76.8297C74.456 77.1403 74.17 77.5475 73.9844 78.0513C73.7988 78.555 73.706 79.0986 73.706 79.6819C73.706 80.2653 73.7988 80.8069 73.9844 81.3069C74.17 81.8069 74.456 82.2103 74.8423 82.5172C75.2287 82.824 75.7211 82.9774 76.3196 82.9774ZM85.8665 84.1819C85.0483 84.1819 84.3438 83.9888 83.7528 83.6024C83.1619 83.216 82.7074 82.6838 82.3892 82.0058C82.071 81.3278 81.9119 80.5532 81.9119 79.6819C81.9119 78.7956 82.0748 78.0134 82.4006 77.3353C82.7301 76.6535 83.1884 76.1213 83.7756 75.7388C84.3665 75.3524 85.0559 75.1592 85.8438 75.1592C86.4574 75.1592 87.0104 75.2728 87.5028 75.5001C87.9953 75.7274 88.3987 76.0456 88.7131 76.4547C89.0275 76.8638 89.2225 77.341 89.2983 77.8865H87.9574C87.8551 77.4888 87.6278 77.1365 87.2756 76.8297C86.9271 76.5191 86.4574 76.3638 85.8665 76.3638C85.3438 76.3638 84.8854 76.5001 84.4915 76.7728C84.1013 77.0418 83.7964 77.4225 83.5767 77.9149C83.3608 78.4035 83.2528 78.9774 83.2528 79.6365C83.2528 80.3107 83.3589 80.8978 83.571 81.3978C83.7869 81.8978 84.09 82.2861 84.4801 82.5626C84.8741 82.8391 85.3362 82.9774 85.8665 82.9774C86.215 82.9774 86.5312 82.9168 86.8153 82.7956C87.0994 82.6744 87.34 82.5001 87.5369 82.2728C87.7339 82.0456 87.8741 81.7728 87.9574 81.4547H89.2983C89.2225 81.9698 89.035 82.4338 88.7358 82.8467C88.4403 83.2558 88.0483 83.5816 87.5597 83.824C87.0748 84.0626 86.5104 84.1819 85.8665 84.1819ZM90.4858 84.0001V82.7501H90.804C91.0653 82.7501 91.2831 82.699 91.4574 82.5967C91.6316 82.4907 91.7718 82.3069 91.8778 82.0456C91.9877 81.7804 92.071 81.413 92.1278 80.9433C92.1884 80.4698 92.232 79.8675 92.2585 79.1365L92.4176 75.2728H98.2358V84.0001H96.8949V76.5228H93.6903L93.554 79.6365C93.5237 80.3524 93.4593 80.9831 93.3608 81.5285C93.2661 82.0702 93.1203 82.5247 92.9233 82.8922C92.7301 83.2596 92.4725 83.5361 92.1506 83.7217C91.8286 83.9073 91.4252 84.0001 90.9403 84.0001H90.4858ZM104.355 84.1819C103.514 84.1819 102.789 83.9963 102.179 83.6251C101.573 83.2501 101.105 82.7274 100.776 82.0569C100.45 81.3827 100.287 80.5986 100.287 79.7047C100.287 78.8107 100.45 78.0228 100.776 77.341C101.105 76.6554 101.563 76.1213 102.151 75.7388C102.741 75.3524 103.431 75.1592 104.219 75.1592C104.673 75.1592 105.122 75.235 105.565 75.3865C106.009 75.538 106.412 75.7842 106.776 76.1251C107.139 76.4622 107.429 76.9092 107.645 77.466C107.861 78.0228 107.969 78.7085 107.969 79.5228V80.091H101.241V78.9319H106.605C106.605 78.4395 106.507 78.0001 106.31 77.6138C106.116 77.2274 105.84 76.9225 105.48 76.699C105.124 76.4755 104.704 76.3638 104.219 76.3638C103.685 76.3638 103.223 76.4963 102.832 76.7615C102.446 77.0228 102.149 77.3638 101.94 77.7842C101.732 78.2047 101.628 78.6554 101.628 79.1365V79.9092C101.628 80.5683 101.741 81.127 101.969 81.5853C102.2 82.0399 102.52 82.3865 102.929 82.6251C103.338 82.86 103.813 82.9774 104.355 82.9774C104.707 82.9774 105.026 82.9282 105.31 82.8297C105.598 82.7274 105.846 82.5759 106.054 82.3751C106.262 82.1706 106.423 81.9168 106.537 81.6138L107.832 81.9774C107.696 82.4168 107.467 82.8032 107.145 83.1365C106.823 83.466 106.425 83.7236 105.952 83.9092C105.478 84.091 104.946 84.1819 104.355 84.1819ZM116.804 84.0001L113.622 72.3638H115.054L117.486 81.841H117.599L120.077 72.3638H121.668L124.145 81.841H124.259L126.69 72.3638H128.122L124.94 84.0001H123.486L120.918 74.7274H120.827L118.259 84.0001H116.804ZM132.429 84.1819C131.641 84.1819 130.95 83.9944 130.355 83.6194C129.764 83.2444 129.302 82.7198 128.969 82.0456C128.639 81.3713 128.474 80.5835 128.474 79.6819C128.474 78.7728 128.639 77.9793 128.969 77.3013C129.302 76.6232 129.764 76.0967 130.355 75.7217C130.95 75.3467 131.641 75.1592 132.429 75.1592C133.217 75.1592 133.906 75.3467 134.497 75.7217C135.092 76.0967 135.554 76.6232 135.884 77.3013C136.217 77.9793 136.384 78.7728 136.384 79.6819C136.384 80.5835 136.217 81.3713 135.884 82.0456C135.554 82.7198 135.092 83.2444 134.497 83.6194C133.906 83.9944 133.217 84.1819 132.429 84.1819ZM132.429 82.9774C133.027 82.9774 133.52 82.824 133.906 82.5172C134.293 82.2103 134.579 81.8069 134.764 81.3069C134.95 80.8069 135.043 80.2653 135.043 79.6819C135.043 79.0986 134.95 78.555 134.764 78.0513C134.579 77.5475 134.293 77.1403 133.906 76.8297C133.52 76.5191 133.027 76.3638 132.429 76.3638C131.83 76.3638 131.338 76.5191 130.952 76.8297C130.565 77.1403 130.279 77.5475 130.094 78.0513C129.908 78.555 129.815 79.0986 129.815 79.6819C129.815 80.2653 129.908 80.8069 130.094 81.3069C130.279 81.8069 130.565 82.2103 130.952 82.5172C131.338 82.824 131.83 82.9774 132.429 82.9774ZM141.976 84.1819C141.188 84.1819 140.497 83.9944 139.902 83.6194C139.311 83.2444 138.849 82.7198 138.516 82.0456C138.186 81.3713 138.021 80.5835 138.021 79.6819C138.021 78.7728 138.186 77.9793 138.516 77.3013C138.849 76.6232 139.311 76.0967 139.902 75.7217C140.497 75.3467 141.188 75.1592 141.976 75.1592C142.764 75.1592 143.453 75.3467 144.044 75.7217C144.639 76.0967 145.101 76.6232 145.43 77.3013C145.764 77.9793 145.93 78.7728 145.93 79.6819C145.93 80.5835 145.764 81.3713 145.43 82.0456C145.101 82.7198 144.639 83.2444 144.044 83.6194C143.453 83.9944 142.764 84.1819 141.976 84.1819ZM141.976 82.9774C142.574 82.9774 143.067 82.824 143.453 82.5172C143.839 82.2103 144.125 81.8069 144.311 81.3069C144.497 80.8069 144.589 80.2653 144.589 79.6819C144.589 79.0986 144.497 78.555 144.311 78.0513C144.125 77.5475 143.839 77.1403 143.453 76.8297C143.067 76.5191 142.574 76.3638 141.976 76.3638C141.377 76.3638 140.885 76.5191 140.499 76.8297C140.112 77.1403 139.826 77.5475 139.641 78.0513C139.455 78.555 139.362 79.0986 139.362 79.6819C139.362 80.2653 139.455 80.8069 139.641 81.3069C139.826 81.8069 140.112 82.2103 140.499 82.5172C140.885 82.824 141.377 82.9774 141.976 82.9774ZM149.46 84.0001L146.278 72.3638H147.71L150.142 81.841H150.256L152.733 72.3638H154.324L156.801 81.841H156.915L159.347 72.3638H160.778L157.597 84.0001H156.142L153.574 74.7274H153.483L150.915 84.0001H149.46ZM172.102 84.0001V76.5001H169.784C169.261 76.5001 168.85 76.6213 168.551 76.8638C168.252 77.1062 168.102 77.4395 168.102 77.8638C168.102 78.2804 168.237 78.6081 168.506 78.8467C168.778 79.0853 169.152 79.2047 169.625 79.2047H172.443V80.4547H169.625C169.034 80.4547 168.525 80.3505 168.097 80.1422C167.669 79.9338 167.339 79.6365 167.108 79.2501C166.877 78.86 166.761 78.3978 166.761 77.8638C166.761 77.3259 166.883 76.8638 167.125 76.4774C167.367 76.091 167.714 75.7937 168.165 75.5853C168.619 75.377 169.159 75.2728 169.784 75.2728H173.375V84.0001H172.102ZM166.284 84.0001L168.761 79.6592H170.216L167.739 84.0001H166.284ZM186.178 79.0228V80.2728H181.359V79.0228H186.178ZM181.678 75.2728V84.0001H180.337V75.2728H181.678ZM187.2 75.2728V84.0001H185.859V75.2728H187.2ZM193.308 84.1819C192.467 84.1819 191.742 83.9963 191.132 83.6251C190.526 83.2501 190.058 82.7274 189.729 82.0569C189.403 81.3827 189.24 80.5986 189.24 79.7047C189.24 78.8107 189.403 78.0228 189.729 77.341C190.058 76.6554 190.517 76.1213 191.104 75.7388C191.695 75.3524 192.384 75.1592 193.172 75.1592C193.626 75.1592 194.075 75.235 194.518 75.3865C194.962 75.538 195.365 75.7842 195.729 76.1251C196.092 76.4622 196.382 76.9092 196.598 77.466C196.814 78.0228 196.922 78.7085 196.922 79.5228V80.091H190.195V78.9319H195.558C195.558 78.4395 195.46 78.0001 195.263 77.6138C195.07 77.2274 194.793 76.9225 194.433 76.699C194.077 76.4755 193.657 76.3638 193.172 76.3638C192.638 76.3638 192.176 76.4963 191.786 76.7615C191.399 77.0228 191.102 77.3638 190.893 77.7842C190.685 78.2047 190.581 78.6554 190.581 79.1365V79.9092C190.581 80.5683 190.695 81.127 190.922 81.5853C191.153 82.0399 191.473 82.3865 191.882 82.6251C192.291 82.86 192.767 82.9774 193.308 82.9774C193.661 82.9774 193.979 82.9282 194.263 82.8297C194.551 82.7274 194.799 82.5759 195.007 82.3751C195.215 82.1706 195.376 81.9168 195.49 81.6138L196.786 81.9774C196.649 82.4168 196.42 82.8032 196.098 83.1365C195.776 83.466 195.378 83.7236 194.905 83.9092C194.431 84.091 193.899 84.1819 193.308 84.1819ZM204.325 87.2728C204.098 87.2728 203.895 87.2539 203.717 87.216C203.539 87.1819 203.416 87.1478 203.348 87.1138L203.689 85.9319C204.015 86.0153 204.303 86.0456 204.553 86.0228C204.803 86.0001 205.024 85.8884 205.217 85.6876C205.414 85.4907 205.594 85.1706 205.757 84.7274L206.007 84.0456L202.78 75.2728L204.234 75.2728L206.643 82.2274H206.734L209.143 75.2728H210.598L206.893 85.2728C206.727 85.7236 206.52 86.0967 206.274 86.3922C206.028 86.6914 205.742 86.913 205.416 87.0569C205.094 87.2009 204.731 87.2728 204.325 87.2728ZM211.822 81.7728H213.254C213.285 82.1668 213.463 82.466 213.788 82.6706C214.118 82.8751 214.546 82.9774 215.072 82.9774C215.61 82.9774 216.071 82.8675 216.453 82.6478C216.836 82.4244 217.027 82.0645 217.027 81.5683C217.027 81.2766 216.955 81.0228 216.811 80.8069C216.667 80.5872 216.464 80.4168 216.203 80.2956C215.942 80.1744 215.633 80.1138 215.277 80.1138H213.777V78.9092H215.277C215.811 78.9092 216.205 78.788 216.459 78.5456C216.716 78.3032 216.845 78.0001 216.845 77.6365C216.845 77.2463 216.707 76.9338 216.43 76.699C216.154 76.4603 215.762 76.341 215.254 76.341C214.743 76.341 214.317 76.4566 213.976 76.6876C213.635 76.9149 213.455 77.2085 213.436 77.5683H212.027C212.042 77.0986 212.186 76.6838 212.459 76.324C212.732 75.9603 213.103 75.6763 213.572 75.4717C214.042 75.2634 214.58 75.1592 215.186 75.1592C215.8 75.1592 216.332 75.2672 216.783 75.4831C217.237 75.6952 217.588 75.985 217.834 76.3524C218.084 76.716 218.209 77.1289 218.209 77.591C218.209 78.0835 218.071 78.4812 217.794 78.7842C217.518 79.0872 217.171 79.3032 216.754 79.4319V79.5228C217.084 79.5456 217.37 79.6516 217.612 79.841C217.858 80.0266 218.05 80.271 218.186 80.574C218.322 80.8732 218.391 81.2047 218.391 81.5683C218.391 82.0986 218.249 82.5607 217.964 82.9547C217.68 83.3448 217.29 83.6478 216.794 83.8638C216.298 84.0759 215.732 84.1819 215.095 84.1819C214.478 84.1819 213.925 84.0816 213.436 83.8808C212.947 83.6763 212.559 83.3941 212.271 83.0342C211.987 82.6706 211.838 82.2501 211.822 81.7728ZM226.115 79.0228V80.2728H221.297V79.0228H226.115ZM221.615 75.2728V84.0001H220.274V75.2728H221.615ZM227.138 75.2728V84.0001H225.797V75.2728H227.138ZM232.155 84.2047C231.602 84.2047 231.1 84.1005 230.649 83.8922C230.198 83.68 229.84 83.3751 229.575 82.9774C229.31 82.5759 229.178 82.091 229.178 81.5228C229.178 81.0228 229.276 80.6175 229.473 80.3069C229.67 79.9925 229.933 79.7463 230.263 79.5683C230.592 79.3903 230.956 79.2577 231.354 79.1706C231.755 79.0797 232.159 79.0077 232.564 78.9547C233.094 78.8865 233.524 78.8353 233.854 78.8013C234.187 78.7634 234.429 78.7009 234.581 78.6138C234.736 78.5266 234.814 78.3751 234.814 78.1592V78.1138C234.814 77.5532 234.661 77.1175 234.354 76.8069C234.051 76.4963 233.59 76.341 232.973 76.341C232.333 76.341 231.831 76.4812 231.467 76.7615C231.104 77.0418 230.848 77.341 230.7 77.6592L229.428 77.2047C229.655 76.6744 229.958 76.2615 230.337 75.966C230.719 75.6668 231.136 75.4585 231.587 75.341C232.041 75.2198 232.488 75.1592 232.928 75.1592C233.208 75.1592 233.53 75.1933 233.893 75.2615C234.261 75.3259 234.615 75.4603 234.956 75.6649C235.301 75.8694 235.587 76.1782 235.814 76.591C236.041 77.0039 236.155 77.5569 236.155 78.2501V84.0001H234.814V82.8183H234.746C234.655 83.0077 234.503 83.2103 234.291 83.4263C234.079 83.6422 233.797 83.8259 233.445 83.9774C233.092 84.1289 232.662 84.2047 232.155 84.2047ZM232.359 83.0001C232.89 83.0001 233.337 82.896 233.7 82.6876C234.068 82.4793 234.344 82.2103 234.53 81.8808C234.719 81.5513 234.814 81.2047 234.814 80.841V79.6138C234.757 79.6819 234.632 79.7444 234.439 79.8013C234.25 79.8543 234.03 79.9016 233.78 79.9433C233.534 79.9812 233.293 80.0153 233.058 80.0456C232.827 80.0721 232.64 80.0948 232.496 80.1138C232.147 80.1592 231.821 80.2331 231.518 80.3353C231.219 80.4338 230.977 80.5835 230.791 80.7842C230.609 80.9812 230.518 81.2501 230.518 81.591C230.518 82.0569 230.691 82.4092 231.036 82.6478C231.384 82.8827 231.825 83.0001 232.359 83.0001ZM242.784 79.091V80.341H238.17V79.091H242.784ZM239.307 75.2728V84.0001H237.966V75.2728H239.307ZM245.466 84.1819C244.678 84.1819 243.987 83.9944 243.392 83.6194C242.801 83.2444 242.339 82.7198 242.006 82.0456C241.676 81.3713 241.511 80.5835 241.511 79.6819C241.511 78.7728 241.676 77.9793 242.006 77.3013C242.339 76.6232 242.801 76.0967 243.392 75.7217C243.987 75.3467 244.678 75.1592 245.466 75.1592C246.254 75.1592 246.943 75.3467 247.534 75.7217C248.129 76.0967 248.591 76.6232 248.92 77.3013C249.254 77.9793 249.42 78.7728 249.42 79.6819C249.42 80.5835 249.254 81.3713 248.92 82.0456C248.591 82.7198 248.129 83.2444 247.534 83.6194C246.943 83.9944 246.254 84.1819 245.466 84.1819ZM245.466 82.9774C246.064 82.9774 246.557 82.824 246.943 82.5172C247.33 82.2103 247.616 81.8069 247.801 81.3069C247.987 80.8069 248.08 80.2653 248.08 79.6819C248.08 79.0986 247.987 78.555 247.801 78.0513C247.616 77.5475 247.33 77.1403 246.943 76.8297C246.557 76.5191 246.064 76.3638 245.466 76.3638C244.867 76.3638 244.375 76.5191 243.989 76.8297C243.602 77.1403 243.316 77.5475 243.131 78.0513C242.945 78.555 242.852 79.0986 242.852 79.6819C242.852 80.2653 242.945 80.8069 243.131 81.3069C243.316 81.8069 243.602 82.2103 243.989 82.5172C244.375 82.824 244.867 82.9774 245.466 82.9774ZM259.648 84.1819C258.83 84.1819 258.125 83.9888 257.534 83.6024C256.943 83.216 256.489 82.6838 256.17 82.0058C255.852 81.3278 255.693 80.5532 255.693 79.6819C255.693 78.7956 255.856 78.0134 256.182 77.3353C256.511 76.6535 256.97 76.1213 257.557 75.7388C258.148 75.3524 258.837 75.1592 259.625 75.1592C260.239 75.1592 260.792 75.2728 261.284 75.5001C261.777 75.7274 262.18 76.0456 262.494 76.4547C262.809 76.8638 263.004 77.341 263.08 77.8865H261.739C261.636 77.4888 261.409 77.1365 261.057 76.8297C260.708 76.5191 260.239 76.3638 259.648 76.3638C259.125 76.3638 258.667 76.5001 258.273 76.7728C257.883 77.0418 257.578 77.4225 257.358 77.9149C257.142 78.4035 257.034 78.9774 257.034 79.6365C257.034 80.3107 257.14 80.8978 257.352 81.3978C257.568 81.8978 257.871 82.2861 258.261 82.5626C258.655 82.8391 259.117 82.9774 259.648 82.9774C259.996 82.9774 260.312 82.9168 260.597 82.7956C260.881 82.6744 261.121 82.5001 261.318 82.2728C261.515 82.0456 261.655 81.7728 261.739 81.4547H263.08C263.004 81.9698 262.816 82.4338 262.517 82.8467C262.222 83.2558 261.83 83.5816 261.341 83.824C260.856 84.0626 260.292 84.1819 259.648 84.1819ZM265.04 84.0001V75.2728H268.608C269.547 75.2728 270.294 75.485 270.847 75.9092C271.4 76.3335 271.676 76.8941 271.676 77.591C271.676 78.1213 271.519 78.5323 271.205 78.824C270.89 79.1119 270.487 79.3069 269.994 79.4092C270.316 79.4547 270.629 79.5683 270.932 79.7501C271.239 79.9319 271.492 80.1819 271.693 80.5001C271.894 80.8145 271.994 81.2009 271.994 81.6592C271.994 82.1062 271.881 82.5058 271.653 82.8581C271.426 83.2103 271.1 83.4888 270.676 83.6933C270.252 83.8978 269.744 84.0001 269.153 84.0001H265.04ZM266.312 82.7728H269.153C269.616 82.7728 269.977 82.663 270.239 82.4433C270.5 82.2236 270.631 81.9244 270.631 81.5456C270.631 81.0948 270.5 80.7407 270.239 80.4831C269.977 80.2217 269.616 80.091 269.153 80.091H266.312V82.7728ZM266.312 78.9319H268.608C268.968 78.9319 269.277 78.8827 269.534 78.7842C269.792 78.6819 269.989 78.538 270.125 78.3524C270.265 78.163 270.335 77.9395 270.335 77.6819C270.335 77.3145 270.182 77.0266 269.875 76.8183C269.568 76.6062 269.146 76.5001 268.608 76.5001H266.312V78.9319ZM277.57 84.1819C276.782 84.1819 276.09 83.9944 275.496 83.6194C274.905 83.2444 274.443 82.7198 274.109 82.0456C273.78 81.3713 273.615 80.5835 273.615 79.6819C273.615 78.7728 273.78 77.9793 274.109 77.3013C274.443 76.6232 274.905 76.0967 275.496 75.7217C276.09 75.3467 276.782 75.1592 277.57 75.1592C278.357 75.1592 279.047 75.3467 279.638 75.7217C280.232 76.0967 280.695 76.6232 281.024 77.3013C281.357 77.9793 281.524 78.7728 281.524 79.6819C281.524 80.5835 281.357 81.3713 281.024 82.0456C280.695 82.7198 280.232 83.2444 279.638 83.6194C279.047 83.9944 278.357 84.1819 277.57 84.1819ZM277.57 82.9774C278.168 82.9774 278.661 82.824 279.047 82.5172C279.433 82.2103 279.719 81.8069 279.905 81.3069C280.09 80.8069 280.183 80.2653 280.183 79.6819C280.183 79.0986 280.09 78.555 279.905 78.0513C279.719 77.5475 279.433 77.1403 279.047 76.8297C278.661 76.5191 278.168 76.3638 277.57 76.3638C276.971 76.3638 276.479 76.5191 276.092 76.8297C275.706 77.1403 275.42 77.5475 275.234 78.0513C275.049 78.555 274.956 79.0986 274.956 79.6819C274.956 80.2653 275.049 80.8069 275.234 81.3069C275.42 81.8069 275.706 82.2103 276.092 82.5172C276.479 82.824 276.971 82.9774 277.57 82.9774ZM287.753 79.091V80.341H283.139V79.091H287.753ZM284.276 75.2728V84.0001H282.935V75.2728H284.276ZM290.435 84.1819C289.647 84.1819 288.955 83.9944 288.361 83.6194C287.77 83.2444 287.308 82.7198 286.974 82.0456C286.645 81.3713 286.48 80.5835 286.48 79.6819C286.48 78.7728 286.645 77.9793 286.974 77.3013C287.308 76.6232 287.77 76.0967 288.361 75.7217C288.955 75.3467 289.647 75.1592 290.435 75.1592C291.223 75.1592 291.912 75.3467 292.503 75.7217C293.098 76.0967 293.56 76.6232 293.889 77.3013C294.223 77.9793 294.389 78.7728 294.389 79.6819C294.389 80.5835 294.223 81.3713 293.889 82.0456C293.56 82.7198 293.098 83.2444 292.503 83.6194C291.912 83.9944 291.223 84.1819 290.435 84.1819ZM290.435 82.9774C291.033 82.9774 291.526 82.824 291.912 82.5172C292.298 82.2103 292.584 81.8069 292.77 81.3069C292.955 80.8069 293.048 80.2653 293.048 79.6819C293.048 79.0986 292.955 78.555 292.77 78.0513C292.584 77.5475 292.298 77.1403 291.912 76.8297C291.526 76.5191 291.033 76.3638 290.435 76.3638C289.836 76.3638 289.344 76.5191 288.957 76.8297C288.571 77.1403 288.285 77.5475 288.099 78.0513C287.914 78.555 287.821 79.0986 287.821 79.6819C287.821 80.2653 287.914 80.8069 288.099 81.3069C288.285 81.8069 288.571 82.2103 288.957 82.5172C289.344 82.824 289.836 82.9774 290.435 82.9774ZM61.2273 99.2728H62.5682V106.75H65.8636V99.2728H67.2045V106.75H70.5V99.2728H71.8409V108H61.2273V99.2728ZM77.9489 108.182C77.108 108.182 76.3826 107.996 75.7727 107.625C75.1667 107.25 74.6989 106.727 74.3693 106.057C74.0436 105.383 73.8807 104.599 73.8807 103.705C73.8807 102.811 74.0436 102.023 74.3693 101.341C74.6989 100.655 75.1572 100.121 75.7443 99.7388C76.3352 99.3524 77.0246 99.1592 77.8125 99.1592C78.267 99.1592 78.7159 99.235 79.1591 99.3865C79.6023 99.538 80.0057 99.7842 80.3693 100.125C80.733 100.462 81.0227 100.909 81.2386 101.466C81.4545 102.023 81.5625 102.708 81.5625 103.523V104.091H74.8352V102.932H80.1989C80.1989 102.44 80.1004 102 79.9034 101.614C79.7102 101.227 79.4337 100.922 79.0739 100.699C78.7178 100.476 78.2973 100.364 77.8125 100.364C77.2784 100.364 76.8163 100.496 76.4261 100.761C76.0398 101.023 75.7424 101.364 75.5341 101.784C75.3258 102.205 75.2216 102.655 75.2216 103.136V103.909C75.2216 104.568 75.3352 105.127 75.5625 105.585C75.7936 106.04 76.1136 106.386 76.5227 106.625C76.9318 106.86 77.4072 106.977 77.9489 106.977C78.3011 106.977 78.6193 106.928 78.9034 106.83C79.1913 106.727 79.4394 106.576 79.6477 106.375C79.8561 106.171 80.017 105.917 80.1307 105.614L81.4261 105.977C81.2898 106.417 81.0606 106.803 80.7386 107.136C80.4167 107.466 80.0189 107.724 79.5455 107.909C79.072 108.091 78.5398 108.182 77.9489 108.182ZM76.108 97.8183C75.8693 97.8183 75.6572 97.7274 75.4716 97.5456C75.2898 97.36 75.1989 97.1478 75.1989 96.9092C75.1989 96.6478 75.2898 96.4319 75.4716 96.2615C75.6572 96.0872 75.8693 96.0001 76.108 96.0001C76.3693 96.0001 76.5852 96.0872 76.7557 96.2615C76.9299 96.4319 77.017 96.6478 77.017 96.9092C77.017 97.1478 76.9299 97.36 76.7557 97.5456C76.5852 97.7274 76.3693 97.8183 76.108 97.8183ZM79.3807 97.8183C79.142 97.8183 78.9299 97.7274 78.7443 97.5456C78.5625 97.36 78.4716 97.1478 78.4716 96.9092C78.4716 96.6478 78.5625 96.4319 78.7443 96.2615C78.9299 96.0872 79.142 96.0001 79.3807 96.0001C79.642 96.0001 79.858 96.0872 80.0284 96.2615C80.2027 96.4319 80.2898 96.6478 80.2898 96.9092C80.2898 97.1478 80.2027 97.36 80.0284 97.5456C79.858 97.7274 79.642 97.8183 79.3807 97.8183ZM83.6023 111.273V99.2728H84.8977V100.659H85.0568C85.1553 100.508 85.2917 100.315 85.4659 100.08C85.6439 99.841 85.8977 99.6289 86.2273 99.4433C86.5606 99.2539 87.0114 99.1592 87.5795 99.1592C88.3144 99.1592 88.9621 99.3429 89.5227 99.7103C90.0833 100.078 90.5208 100.599 90.8352 101.273C91.1496 101.947 91.3068 102.743 91.3068 103.659C91.3068 104.583 91.1496 105.385 90.8352 106.063C90.5208 106.737 90.0852 107.26 89.5284 107.631C88.9716 107.998 88.3295 108.182 87.6023 108.182C87.0417 108.182 86.5928 108.089 86.2557 107.904C85.9186 107.714 85.6591 107.5 85.4773 107.261C85.2955 107.019 85.1553 106.818 85.0568 106.659H84.9432V111.273H83.6023ZM84.9205 103.636C84.9205 104.296 85.017 104.877 85.2102 105.381C85.4034 105.881 85.6856 106.273 86.0568 106.557C86.428 106.837 86.8826 106.977 87.4205 106.977C87.9811 106.977 88.4489 106.83 88.8239 106.534C89.2027 106.235 89.4867 105.833 89.6761 105.33C89.8693 104.822 89.9659 104.258 89.9659 103.636C89.9659 103.023 89.8712 102.47 89.6818 101.977C89.4962 101.481 89.214 101.089 88.8352 100.801C88.4602 100.51 87.9886 100.364 87.4205 100.364C86.875 100.364 86.4167 100.502 86.0455 100.779C85.6742 101.051 85.3939 101.434 85.2045 101.926C85.0152 102.415 84.9205 102.985 84.9205 103.636ZM96.8977 108.182C96.0795 108.182 95.375 107.989 94.7841 107.602C94.1932 107.216 93.7386 106.684 93.4205 106.006C93.1023 105.328 92.9432 104.553 92.9432 103.682C92.9432 102.796 93.1061 102.013 93.4318 101.335C93.7614 100.654 94.2197 100.121 94.8068 99.7388C95.3977 99.3524 96.0871 99.1592 96.875 99.1592C97.4886 99.1592 98.0417 99.2728 98.5341 99.5001C99.0265 99.7274 99.4299 100.046 99.7443 100.455C100.059 100.864 100.254 101.341 100.33 101.886H98.9886C98.8864 101.489 98.6591 101.136 98.3068 100.83C97.9583 100.519 97.4886 100.364 96.8977 100.364C96.375 100.364 95.9167 100.5 95.5227 100.773C95.1326 101.042 94.8277 101.422 94.608 101.915C94.392 102.404 94.2841 102.977 94.2841 103.636C94.2841 104.311 94.3902 104.898 94.6023 105.398C94.8182 105.898 95.1212 106.286 95.5114 106.563C95.9053 106.839 96.3674 106.977 96.8977 106.977C97.2462 106.977 97.5625 106.917 97.8466 106.796C98.1307 106.674 98.3712 106.5 98.5682 106.273C98.7652 106.046 98.9053 105.773 98.9886 105.455H100.33C100.254 105.97 100.066 106.434 99.767 106.847C99.4716 107.256 99.0795 107.582 98.5909 107.824C98.1061 108.063 97.5417 108.182 96.8977 108.182ZM101.602 100.523V99.2728H108.693V100.523H105.83V108H104.489V100.523H101.602ZM110.649 108V99.2728H111.99V103.068H112.876L116.013 99.2728H117.74L114.217 103.477L117.786 108H116.058L113.195 104.318H111.99V108H110.649ZM120.107 111.273C119.879 111.273 119.677 111.254 119.499 111.216C119.321 111.182 119.197 111.148 119.129 111.114L119.47 109.932C119.796 110.015 120.084 110.046 120.334 110.023C120.584 110 120.805 109.888 120.999 109.688C121.196 109.491 121.375 109.171 121.538 108.727L121.788 108.046L118.561 99.2728H120.016L122.425 106.227H122.516L124.925 99.2728H126.379L122.675 109.273C122.508 109.724 122.302 110.097 122.055 110.392C121.809 110.691 121.523 110.913 121.197 111.057C120.875 111.201 120.512 111.273 120.107 111.273Z" fill="black"/>
<path d="M61.5586 16.164H63.0302L66.4905 24.6157H66.6098L70.07 16.164H71.5416V26.3458H70.3882V18.61H70.2888L67.1069 26.3458H65.9933L62.8115 18.61H62.712V26.3458H61.5586V16.164ZM74.6103 29.2095C74.4114 29.2095 74.2341 29.1929 74.0783 29.1597C73.9226 29.1299 73.8149 29.1001 73.7552 29.0703L74.0535 28.0362C74.3385 28.1091 74.5904 28.1356 74.8092 28.1157C75.0279 28.0958 75.2218 27.9981 75.3908 27.8224C75.5632 27.65 75.7206 27.37 75.8631 26.9822L76.0819 26.3856L73.258 18.7095H74.5308L76.6387 24.7947H76.7183L78.8262 18.7095H80.0989L76.8575 27.4595C76.7116 27.8539 76.531 28.1803 76.3156 28.4389C76.1001 28.7007 75.8499 28.8946 75.5649 29.0205C75.2831 29.1465 74.9649 29.2095 74.6103 29.2095ZM81.6476 29.2095V18.7095H82.7811V19.9225H82.9203C83.0065 19.79 83.1258 19.6209 83.2783 19.4154C83.4341 19.2066 83.6561 19.021 83.9445 18.8586C84.2361 18.6929 84.6305 18.61 85.1277 18.61C85.7707 18.61 86.3375 18.7708 86.828 19.0923C87.3185 19.4138 87.7013 19.8695 87.9764 20.4595C88.2515 21.0494 88.3891 21.7454 88.3891 22.5475C88.3891 23.3562 88.2515 24.0572 87.9764 24.6505C87.7013 25.2405 87.3202 25.6979 86.833 26.0227C86.3457 26.3442 85.784 26.5049 85.1476 26.5049C84.6571 26.5049 84.2643 26.4237 83.9693 26.2613C83.6743 26.0956 83.4473 25.9083 83.2882 25.6995C83.1291 25.4874 83.0065 25.3117 82.9203 25.1725H82.8209V29.2095H81.6476ZM82.801 22.5276C82.801 23.1043 82.8855 23.6131 83.0546 24.0539C83.2236 24.4914 83.4705 24.8345 83.7953 25.083C84.1201 25.3283 84.5179 25.4509 84.9885 25.4509C85.479 25.4509 85.8884 25.3217 86.2165 25.0632C86.5479 24.8013 86.7965 24.45 86.9622 24.0092C87.1313 23.565 87.2158 23.0712 87.2158 22.5276C87.2158 21.9907 87.1329 21.5068 86.9672 21.0759C86.8048 20.6418 86.5579 20.2987 86.2264 20.0468C85.8983 19.7916 85.4857 19.664 84.9885 19.664C84.5112 19.664 84.1102 19.785 83.7854 20.0269C83.4606 20.2656 83.2153 20.6003 83.0496 21.0312C82.8839 21.4588 82.801 21.9576 82.801 22.5276ZM96.0652 18.7095V26.3458H94.8919V18.7095H96.0652ZM95.6078 22.3487V23.4424C95.3427 23.5418 95.0792 23.6297 94.8173 23.7059C94.5555 23.7788 94.2804 23.8368 93.9921 23.8799C93.7037 23.9197 93.3872 23.9396 93.0425 23.9396C92.1774 23.9396 91.4831 23.7059 90.9594 23.2386C90.439 22.7713 90.1788 22.0703 90.1788 21.1356V18.6896H91.3521V21.1356C91.3521 21.5267 91.4267 21.8482 91.5759 22.1001C91.725 22.352 91.9272 22.5392 92.1824 22.6619C92.4376 22.7845 92.7243 22.8458 93.0425 22.8458C93.5396 22.8458 93.9887 22.8011 94.3898 22.7116C94.7941 22.6188 95.2002 22.4978 95.6078 22.3487ZM99.3912 24.6157L103.07 18.7095H104.422V26.3458H103.249V20.4396L99.5901 26.3458H98.2179V18.7095H99.3912V24.6157ZM106.571 26.3458V18.7095H107.745V22.0305L108.52 22.0305L111.265 18.7095H112.776L109.694 22.3884L112.816 26.3458H111.304L108.799 23.1242L107.745 23.1242V26.3458H106.571Z" fill="#575757"/>
<path d="M206.236 53.1393C205.652 53.1393 205.127 53.0233 204.66 52.7913C204.192 52.5593 203.818 52.2411 203.536 51.8368C203.254 51.4324 203.1 50.9717 203.074 50.4547H204.267C204.313 50.9154 204.522 51.2965 204.893 51.5981C205.268 51.8964 205.715 52.0456 206.236 52.0456C206.653 52.0456 207.025 51.9478 207.349 51.7523C207.678 51.5567 207.934 51.2882 208.12 50.9469C208.309 50.6022 208.403 50.2127 208.403 49.7785C208.403 49.3344 208.306 48.9383 208.11 48.5903C207.918 48.239 207.653 47.9622 207.315 47.7601C206.977 47.5579 206.59 47.4551 206.156 47.4518C205.845 47.4485 205.525 47.4966 205.197 47.596C204.869 47.6921 204.598 47.8164 204.386 47.9689L203.233 47.8297L203.849 42.8183H209.139V43.9121H204.884L204.526 46.9149H204.585C204.794 46.7492 205.056 46.6116 205.371 46.5023C205.686 46.3929 206.014 46.3382 206.355 46.3382C206.978 46.3382 207.533 46.4873 208.021 46.7856C208.511 47.0806 208.896 47.485 209.174 47.9987C209.456 48.5124 209.597 49.0991 209.597 49.7586C209.597 50.4083 209.451 50.9883 209.159 51.4987C208.871 52.0058 208.473 52.4068 207.966 52.7018C207.459 52.9935 206.882 53.1393 206.236 53.1393ZM212.959 51.6081L212.879 52.145C212.823 52.5228 212.737 52.9272 212.621 53.3581C212.508 53.7889 212.39 54.195 212.268 54.5761C212.145 54.9573 212.044 55.2605 211.964 55.4859H211.069C211.113 55.2738 211.169 54.9937 211.238 54.6457C211.308 54.2977 211.378 53.9083 211.447 53.4774C211.52 53.0498 211.58 52.6123 211.626 52.1649L211.686 51.6081H212.959ZM218.078 53.1393C217.329 53.1393 216.691 52.9355 216.164 52.5278C215.637 52.1168 215.234 51.5219 214.956 50.743C214.678 49.9608 214.538 49.0162 214.538 47.9092C214.538 46.8088 214.678 45.8692 214.956 45.0903C215.238 44.3081 215.642 43.7115 216.169 43.3005C216.699 42.8862 217.336 42.6791 218.078 42.6791C218.821 42.6791 219.455 42.8862 219.982 43.3005C220.513 43.7115 220.917 44.3081 221.195 45.0903C221.477 45.8692 221.618 46.8088 221.618 47.9092C221.618 49.0162 221.479 49.9608 221.2 50.743C220.922 51.5219 220.519 52.1168 219.992 52.5278C219.465 52.9355 218.827 53.1393 218.078 53.1393ZM218.078 52.0456C218.821 52.0456 219.397 51.6876 219.808 50.9717C220.219 50.2558 220.425 49.235 220.425 47.9092C220.425 47.0276 220.33 46.2769 220.141 45.6571C219.956 45.0373 219.687 44.565 219.336 44.2402C218.988 43.9154 218.569 43.753 218.078 43.753C217.342 43.753 216.767 44.1159 216.353 44.8417C215.939 45.5643 215.732 46.5868 215.732 47.9092C215.732 48.7908 215.824 49.5399 216.01 50.1564C216.196 50.7728 216.462 51.2418 216.81 51.5633C217.162 51.8848 217.584 52.0456 218.078 52.0456Z" fill="black"/>
<path d="M74.0645 34.9078L77.7111 41.8887L85.4771 43.1996L79.9648 48.825L81.1179 56.616L74.0645 53.1118L67.011 56.616L68.1641 48.825L62.6518 43.1996L70.4178 41.8887L74.0645 34.9078Z" fill="#FFC115"/>
<path d="M102.064 34.9078L105.711 41.8887L113.477 43.1996L107.965 48.825L109.118 56.616L102.064 53.1118L95.011 56.616L96.1641 48.825L90.6518 43.1996L98.4178 41.8887L102.064 34.9078Z" fill="#FFC115"/>
<path d="M130.064 34.9078L133.711 41.8887L141.477 43.1996L135.965 48.825L137.118 56.616L130.064 53.1118L123.011 56.616L124.164 48.825L118.652 43.1996L126.418 41.8887L130.064 34.9078Z" fill="#FFC115"/>
<path d="M158.064 34.9078L161.711 41.8887L169.477 43.1996L163.965 48.825L165.118 56.616L158.064 53.1118L151.011 56.616L152.164 48.825L146.652 43.1996L154.418 41.8887L158.064 34.9078Z" fill="#FFC115"/>
<path d="M186.064 34.9078L189.711 41.8887L197.477 43.1996L191.965 48.825L193.118 56.616L186.064 53.1118L179.011 56.616L180.164 48.825L174.652 43.1996L182.418 41.8887L186.064 34.9078Z" fill="#FFC115"/>
</svg>
