<svg width="295" height="124" viewBox="0 0 295 124" fill="none" xmlns="http://www.w3.org/2000/svg">
<path d="M234.868 -5.21318e-06C267.802 -2.33402e-06 294.5 27.6973 294.5 61.8636C294.5 96.0299 267.802 123.727 234.868 123.727L80.6793 123.727C67.8622 123.727 55.9897 119.532 46.2676 112.394C34.4008 119.647 18.5482 125.331 3.72546e-05 123.727C19.6435 123.727 21.0482 83.6978 21.0474 61.8636C21.0474 27.6973 37.5662 -2.22235e-05 70.5 -1.93443e-05L234.868 -5.21318e-06Z" fill="white"/>
<path d="M152.236 47.1392C151.652 47.1392 151.127 47.0232 150.66 46.7912C150.192 46.5592 149.818 46.241 149.536 45.8366C149.254 45.4323 149.1 44.9716 149.074 44.4545H150.267C150.313 44.9152 150.522 45.2964 150.893 45.598C151.268 45.8963 151.715 46.0455 152.236 46.0455C152.653 46.0455 153.025 45.9477 153.349 45.7521C153.678 45.5566 153.934 45.2881 154.12 44.9467C154.309 44.602 154.403 44.2126 154.403 43.7784C154.403 43.3343 154.306 42.9382 154.11 42.5902C153.918 42.2389 153.653 41.9621 153.315 41.7599C152.977 41.5578 152.59 41.455 152.156 41.4517C151.845 41.4484 151.525 41.4964 151.197 41.5959C150.869 41.692 150.598 41.8163 150.386 41.9688L149.233 41.8295L149.849 36.8182H155.139V37.9119H150.884L150.526 40.9148H150.585C150.794 40.7491 151.056 40.6115 151.371 40.5021C151.686 40.3928 152.014 40.3381 152.355 40.3381C152.978 40.3381 153.533 40.4872 154.021 40.7855C154.511 41.0805 154.896 41.4848 155.174 41.9986C155.456 42.5123 155.597 43.099 155.597 43.7585C155.597 44.4081 155.451 44.9882 155.159 45.4986C154.871 46.0057 154.473 46.4067 153.966 46.7017C153.459 46.9934 152.882 47.1392 152.236 47.1392ZM158.959 45.608L158.879 46.1449C158.823 46.5227 158.737 46.9271 158.621 47.358C158.508 47.7888 158.39 48.1948 158.268 48.576C158.145 48.9571 158.044 49.2604 157.964 49.4858H157.069C157.113 49.2737 157.169 48.9936 157.238 48.6456C157.308 48.2976 157.378 47.9081 157.447 47.4773C157.52 47.0497 157.58 46.6122 157.626 46.1648L157.686 45.608H158.959ZM164.078 47.1392C163.329 47.1392 162.691 46.9354 162.164 46.5277C161.637 46.1167 161.234 45.5218 160.956 44.7429C160.678 43.9607 160.538 43.0161 160.538 41.9091C160.538 40.8087 160.678 39.8691 160.956 39.0902C161.238 38.308 161.642 37.7114 162.169 37.3004C162.699 36.8861 163.336 36.679 164.078 36.679C164.821 36.679 165.455 36.8861 165.982 37.3004C166.513 37.7114 166.917 38.308 167.195 39.0902C167.477 39.8691 167.618 40.8087 167.618 41.9091C167.618 43.0161 167.479 43.9607 167.2 44.7429C166.922 45.5218 166.519 46.1167 165.992 46.5277C165.465 46.9354 164.827 47.1392 164.078 47.1392ZM164.078 46.0455C164.821 46.0455 165.397 45.6875 165.808 44.9716C166.219 44.2557 166.425 43.2348 166.425 41.9091C166.425 41.0275 166.33 40.2768 166.141 39.657C165.956 39.0372 165.687 38.5649 165.336 38.2401C164.988 37.9152 164.569 37.7528 164.078 37.7528C163.342 37.7528 162.767 38.1158 162.353 38.8416C161.939 39.5642 161.732 40.5866 161.732 41.9091C161.732 42.7907 161.824 43.5398 162.01 44.1562C162.196 44.7727 162.462 45.2417 162.81 45.5632C163.162 45.8847 163.584 46.0455 164.078 46.0455Z" fill="black"/>
<path d="M47.0824 73L44.2983 62.8182H45.5511L47.679 71.1108H47.7784L49.946 62.8182H51.3381L53.5057 71.1108H53.6051L55.733 62.8182H56.9858L54.2017 73H52.929L50.6818 64.8864H50.6023L48.3551 73H47.0824ZM60.7543 73.1591C60.0649 73.1591 59.46 72.995 58.9396 72.6669C58.4226 72.3388 58.0182 71.8797 57.7266 71.2898C57.4382 70.6998 57.294 70.0104 57.294 69.2216C57.294 68.4261 57.4382 67.7318 57.7266 67.1385C58.0182 66.5452 58.4226 66.0845 58.9396 65.7564C59.46 65.4283 60.0649 65.2642 60.7543 65.2642C61.4437 65.2642 62.0469 65.4283 62.5639 65.7564C63.0843 66.0845 63.4886 66.5452 63.777 67.1385C64.0687 67.7318 64.2145 68.4261 64.2145 69.2216C64.2145 70.0104 64.0687 70.6998 63.777 71.2898C63.4886 71.8797 63.0843 72.3388 62.5639 72.6669C62.0469 72.995 61.4437 73.1591 60.7543 73.1591ZM60.7543 72.1051C61.2779 72.1051 61.7088 71.9709 62.0469 71.7024C62.3849 71.4339 62.6352 71.081 62.7976 70.6435C62.96 70.206 63.0412 69.732 63.0412 69.2216C63.0412 68.7112 62.96 68.2356 62.7976 67.7947C62.6352 67.3539 62.3849 66.9976 62.0469 66.7259C61.7088 66.4541 61.2779 66.3182 60.7543 66.3182C60.2306 66.3182 59.7997 66.4541 59.4616 66.7259C59.1236 66.9976 58.8733 67.3539 58.7109 67.7947C58.5485 68.2356 58.4673 68.7112 58.4673 69.2216C58.4673 69.732 58.5485 70.206 58.7109 70.6435C58.8733 71.081 59.1236 71.4339 59.4616 71.7024C59.7997 71.9709 60.2306 72.1051 60.7543 72.1051ZM69.1078 73.1591C68.4184 73.1591 67.8135 72.995 67.2931 72.6669C66.7761 72.3388 66.3717 71.8797 66.0801 71.2898C65.7917 70.6998 65.6475 70.0104 65.6475 69.2216C65.6475 68.4261 65.7917 67.7318 66.0801 67.1385C66.3717 66.5452 66.7761 66.0845 67.2931 65.7564C67.8135 65.4283 68.4184 65.2642 69.1078 65.2642C69.7972 65.2642 70.4004 65.4283 70.9174 65.7564C71.4378 66.0845 71.8422 66.5452 72.1305 67.1385C72.4222 67.7318 72.568 68.4261 72.568 69.2216C72.568 70.0104 72.4222 70.6998 72.1305 71.2898C71.8422 71.8797 71.4378 72.3388 70.9174 72.6669C70.4004 72.995 69.7972 73.1591 69.1078 73.1591ZM69.1078 72.1051C69.6315 72.1051 70.0623 71.9709 70.4004 71.7024C70.7385 71.4339 70.9887 71.081 71.1511 70.6435C71.3135 70.206 71.3947 69.732 71.3947 69.2216C71.3947 68.7112 71.3135 68.2356 71.1511 67.7947C70.9887 67.3539 70.7385 66.9976 70.4004 66.7259C70.0623 66.4541 69.6315 66.3182 69.1078 66.3182C68.5841 66.3182 68.1532 66.4541 67.8152 66.7259C67.4771 66.9976 67.2269 67.3539 67.0645 67.7947C66.902 68.2356 66.8208 68.7112 66.8208 69.2216C66.8208 69.732 66.902 70.206 67.0645 70.6435C67.2269 71.081 67.4771 71.4339 67.8152 71.7024C68.1532 71.9709 68.5841 72.1051 69.1078 72.1051ZM75.6566 73L72.8725 62.8182H74.1254L76.2532 71.1108H76.3526L78.5202 62.8182H79.9123L82.0799 71.1108H82.1793L84.3072 62.8182H85.56L82.7759 73H81.5032L79.256 64.8864H79.1765L76.9293 73H75.6566ZM95.2496 67.3622V68.456H90.7951V67.3622H95.2496ZM101.252 73V65.3636H104.374C105.196 65.3636 105.849 65.5492 106.333 65.9205C106.816 66.2917 107.058 66.7822 107.058 67.392C107.058 67.8561 106.921 68.2157 106.646 68.4709C106.371 68.7228 106.018 68.8935 105.587 68.983C105.869 69.0227 106.142 69.1222 106.407 69.2812C106.676 69.4403 106.898 69.6591 107.073 69.9375C107.249 70.2126 107.337 70.5507 107.337 70.9517C107.337 71.3428 107.237 71.6925 107.039 72.0007C106.84 72.3089 106.555 72.5526 106.183 72.7315C105.812 72.9105 105.368 73 104.851 73H101.252ZM102.365 71.9261H104.851C105.255 71.9261 105.572 71.83 105.801 71.6378C106.029 71.4455 106.144 71.1837 106.144 70.8523C106.144 70.4579 106.029 70.148 105.801 69.9226C105.572 69.6939 105.255 69.5795 104.851 69.5795H102.365V71.9261ZM102.365 68.5653H104.374C104.689 68.5653 104.959 68.5223 105.184 68.4361C105.41 68.3466 105.582 68.2206 105.701 68.0582C105.824 67.8925 105.885 67.697 105.885 67.4716C105.885 67.1501 105.751 66.8982 105.482 66.7159C105.214 66.5303 104.844 66.4375 104.374 66.4375H102.365V68.5653ZM111.36 73.179C110.876 73.179 110.437 73.0878 110.043 72.9055C109.648 72.7199 109.335 72.4531 109.103 72.1051C108.871 71.7538 108.755 71.3295 108.755 70.8324C108.755 70.3949 108.841 70.0402 109.013 69.7685C109.186 69.4934 109.416 69.2779 109.705 69.1222C109.993 68.9664 110.311 68.8504 110.659 68.7741C111.01 68.6946 111.363 68.6316 111.718 68.5852C112.182 68.5256 112.558 68.4808 112.847 68.451C113.138 68.4179 113.35 68.3632 113.483 68.2869C113.619 68.2107 113.687 68.0781 113.687 67.8892V67.8494C113.687 67.3589 113.553 66.9777 113.284 66.706C113.019 66.4342 112.616 66.2983 112.076 66.2983C111.516 66.2983 111.077 66.4209 110.759 66.6662C110.44 66.9115 110.217 67.1733 110.087 67.4517L108.974 67.054C109.173 66.59 109.438 66.2287 109.769 65.9702C110.104 65.7083 110.469 65.526 110.863 65.4233C111.261 65.3172 111.652 65.2642 112.036 65.2642C112.281 65.2642 112.563 65.294 112.881 65.3537C113.203 65.41 113.513 65.5277 113.811 65.7067C114.113 65.8857 114.363 66.1558 114.562 66.517C114.761 66.8783 114.86 67.3622 114.86 67.9688V73H113.687V71.9659H113.627C113.548 72.1316 113.415 72.3089 113.229 72.4979C113.044 72.6868 112.797 72.8475 112.489 72.9801C112.18 73.1127 111.804 73.179 111.36 73.179ZM111.539 72.125C112.003 72.125 112.394 72.0339 112.712 71.8516C113.034 71.6693 113.276 71.4339 113.438 71.1456C113.604 70.8572 113.687 70.554 113.687 70.2358V69.1619C113.637 69.2216 113.528 69.2763 113.359 69.326C113.193 69.3724 113.001 69.4138 112.782 69.4503C112.567 69.4834 112.356 69.5133 112.151 69.5398C111.948 69.563 111.784 69.5829 111.658 69.5994C111.353 69.6392 111.068 69.7038 110.803 69.7933C110.541 69.8795 110.329 70.0104 110.167 70.1861C110.008 70.3584 109.928 70.5937 109.928 70.892C109.928 71.2997 110.079 71.608 110.381 71.8168C110.686 72.0223 111.072 72.125 111.539 72.125ZM118.175 71.2699L121.854 65.3636H123.206V73H122.033V67.0938L118.374 73H117.002V65.3636H118.175V71.2699ZM129.531 71.4091L132.196 65.3636H133.31L130.009 73H129.054L125.812 65.3636H126.906L129.531 71.4091ZM126.528 65.3636V73H125.355V65.3636H126.528ZM132.534 73V65.3636H133.707V73H132.534ZM140.966 68.6449V69.7386H136.75V68.6449H140.966ZM137.028 65.3636V73H135.855V65.3636H137.028ZM141.861 65.3636V73H140.688V65.3636H141.861ZM146.251 73.179C145.767 73.179 145.328 73.0878 144.933 72.9055C144.539 72.7199 144.226 72.4531 143.994 72.1051C143.762 71.7538 143.646 71.3295 143.646 70.8324C143.646 70.3949 143.732 70.0402 143.904 69.7685C144.076 69.4934 144.307 69.2779 144.595 69.1222C144.884 68.9664 145.202 68.8504 145.55 68.7741C145.901 68.6946 146.254 68.6316 146.609 68.5852C147.073 68.5256 147.449 68.4808 147.737 68.451C148.029 68.4179 148.241 68.3632 148.374 68.2869C148.509 68.2107 148.577 68.0781 148.577 67.8892V67.8494C148.577 67.3589 148.443 66.9777 148.175 66.706C147.91 66.4342 147.507 66.2983 146.967 66.2983C146.406 66.2983 145.967 66.4209 145.649 66.6662C145.331 66.9115 145.107 67.1733 144.978 67.4517L143.864 67.054C144.063 66.59 144.328 66.2287 144.66 65.9702C144.995 65.7083 145.359 65.526 145.754 65.4233C146.151 65.3172 146.542 65.2642 146.927 65.2642C147.172 65.2642 147.454 65.294 147.772 65.3537C148.094 65.41 148.403 65.5277 148.702 65.7067C149.003 65.8857 149.254 66.1558 149.452 66.517C149.651 66.8783 149.751 67.3622 149.751 67.9688V73H148.577V71.9659H148.518C148.438 72.1316 148.306 72.3089 148.12 72.4979C147.934 72.6868 147.688 72.8475 147.379 72.9801C147.071 73.1127 146.695 73.179 146.251 73.179ZM146.43 72.125C146.894 72.125 147.285 72.0339 147.603 71.8516C147.924 71.6693 148.166 71.4339 148.329 71.1456C148.495 70.8572 148.577 70.554 148.577 70.2358V69.1619C148.528 69.2216 148.418 69.2763 148.249 69.326C148.084 69.3724 147.891 69.4138 147.673 69.4503C147.457 69.4834 147.247 69.5133 147.041 69.5398C146.839 69.563 146.675 69.5829 146.549 69.5994C146.244 69.6392 145.959 69.7038 145.694 69.7933C145.432 69.8795 145.22 70.0104 145.058 70.1861C144.898 70.3584 144.819 70.5937 144.819 70.892C144.819 71.2997 144.97 71.608 145.271 71.8168C145.576 72.0223 145.962 72.125 146.43 72.125ZM156.486 73V66.4375H154.458C154 66.4375 153.641 66.5436 153.379 66.7557C153.117 66.9678 152.986 67.2595 152.986 67.6307C152.986 67.9953 153.104 68.282 153.339 68.4908C153.578 68.6996 153.904 68.804 154.318 68.804H156.784V69.8977H154.318C153.801 69.8977 153.356 69.8066 152.981 69.6243C152.606 69.442 152.318 69.1818 152.116 68.8438C151.914 68.5024 151.813 68.098 151.813 67.6307C151.813 67.16 151.919 66.7557 152.131 66.4176C152.343 66.0795 152.646 65.8194 153.041 65.6371C153.438 65.4548 153.911 65.3636 154.458 65.3636H157.6V73H156.486ZM151.395 73L153.563 69.2017H154.835L152.668 73H151.395ZM163.015 73V71.9062H163.293C163.522 71.9062 163.713 71.8615 163.865 71.772C164.018 71.6792 164.14 71.5185 164.233 71.2898C164.329 71.0578 164.402 70.7363 164.452 70.3253C164.505 69.911 164.543 69.384 164.566 68.7443L164.705 65.3636H169.796V73H168.623V66.4574H165.819L165.7 69.1818C165.673 69.8082 165.617 70.3601 165.531 70.8374C165.448 71.3113 165.32 71.709 165.148 72.0305C164.979 72.352 164.753 72.594 164.472 72.7564C164.19 72.9188 163.837 73 163.413 73H163.015ZM175.608 68.7045V69.7983H171.571V68.7045H175.608ZM172.565 65.3636V73H171.392V65.3636H172.565ZM177.955 73.1591C177.265 73.1591 176.66 72.995 176.14 72.6669C175.623 72.3388 175.219 71.8797 174.927 71.2898C174.638 70.6998 174.494 70.0104 174.494 69.2216C174.494 68.4261 174.638 67.7318 174.927 67.1385C175.219 66.5452 175.623 66.0845 176.14 65.7564C176.66 65.4283 177.265 65.2642 177.955 65.2642C178.644 65.2642 179.247 65.4283 179.764 65.7564C180.285 66.0845 180.689 66.5452 180.977 67.1385C181.269 67.7318 181.415 68.4261 181.415 69.2216C181.415 70.0104 181.269 70.6998 180.977 71.2898C180.689 71.8797 180.285 72.3388 179.764 72.6669C179.247 72.995 178.644 73.1591 177.955 73.1591ZM177.955 72.1051C178.478 72.1051 178.909 71.9709 179.247 71.7024C179.585 71.4339 179.835 71.081 179.998 70.6435C180.16 70.206 180.241 69.732 180.241 69.2216C180.241 68.7112 180.16 68.2356 179.998 67.7947C179.835 67.3539 179.585 66.9976 179.247 66.7259C178.909 66.4541 178.478 66.3182 177.955 66.3182C177.431 66.3182 177 66.4541 176.662 66.7259C176.324 66.9976 176.074 67.3539 175.911 67.7947C175.749 68.2356 175.668 68.7112 175.668 69.2216C175.668 69.732 175.749 70.206 175.911 70.6435C176.074 71.081 176.324 71.4339 176.662 71.7024C177 71.9709 177.431 72.1051 177.955 72.1051ZM188.991 62.5L189.588 63.2159C189.356 63.4413 189.088 63.5987 188.783 63.6882C188.478 63.7777 188.133 63.8324 187.749 63.8523C187.364 63.8722 186.937 63.892 186.466 63.9119C185.936 63.9318 185.496 64.0611 185.148 64.2997C184.8 64.5384 184.532 64.883 184.343 65.3338C184.154 65.7846 184.033 66.3381 183.98 66.9943H184.08C184.338 66.517 184.696 66.1657 185.153 65.9403C185.611 65.715 186.101 65.6023 186.625 65.6023C187.222 65.6023 187.759 65.7415 188.236 66.0199C188.713 66.2983 189.091 66.7109 189.369 67.2578C189.648 67.8047 189.787 68.4792 189.787 69.2813C189.787 70.08 189.644 70.7694 189.359 71.3494C189.078 71.9295 188.682 72.3769 188.171 72.6918C187.664 73.0033 187.069 73.1591 186.386 73.1591C185.704 73.1591 185.105 72.9983 184.592 72.6768C184.078 72.352 183.679 71.8714 183.393 71.2351C183.108 70.5954 182.966 69.8049 182.966 68.8636V68.0483C182.966 66.348 183.254 65.0587 183.831 64.1804C184.411 63.3021 185.283 62.848 186.446 62.8182C186.857 62.8049 187.223 62.8016 187.545 62.8082C187.866 62.8149 188.146 62.8 188.385 62.7635C188.624 62.727 188.826 62.6392 188.991 62.5ZM186.386 72.1051C186.847 72.1051 187.243 71.9891 187.575 71.7571C187.909 71.5251 188.166 71.1986 188.345 70.7777C188.524 70.3535 188.614 69.8546 188.614 69.2813C188.614 68.7244 188.522 68.2505 188.34 67.8594C188.161 67.4683 187.904 67.17 187.57 66.9645C187.235 66.759 186.834 66.6562 186.366 66.6562C186.025 66.6562 185.719 66.7143 185.447 66.8303C185.175 66.9463 184.943 67.117 184.751 67.3423C184.558 67.5677 184.409 67.8428 184.303 68.1676C184.201 68.4924 184.146 68.8636 184.139 69.2812C184.139 70.1364 184.34 70.8208 184.741 71.3345C185.142 71.8482 185.69 72.1051 186.386 72.1051ZM194.684 73.1591C193.995 73.1591 193.39 72.995 192.869 72.6669C192.352 72.3388 191.948 71.8797 191.656 71.2898C191.368 70.6998 191.224 70.0104 191.224 69.2216C191.224 68.4261 191.368 67.7318 191.656 67.1385C191.948 66.5452 192.352 66.0845 192.869 65.7564C193.39 65.4283 193.995 65.2642 194.684 65.2642C195.373 65.2642 195.977 65.4283 196.494 65.7564C197.014 66.0845 197.418 66.5452 197.707 67.1385C197.998 67.7318 198.144 68.4261 198.144 69.2216C198.144 70.0104 197.998 70.6998 197.707 71.2898C197.418 71.8797 197.014 72.3388 196.494 72.6669C195.977 72.995 195.373 73.1591 194.684 73.1591ZM194.684 72.1051C195.208 72.1051 195.638 71.9709 195.977 71.7024C196.315 71.4339 196.565 71.081 196.727 70.6435C196.89 70.206 196.971 69.732 196.971 69.2216C196.971 68.7112 196.89 68.2356 196.727 67.7947C196.565 67.3539 196.315 66.9976 195.977 66.7259C195.638 66.4541 195.208 66.3182 194.684 66.3182C194.16 66.3182 193.729 66.4541 193.391 66.7259C193.053 66.9976 192.803 67.3539 192.641 67.7947C192.478 68.2356 192.397 68.7112 192.397 69.2216C192.397 69.732 192.478 70.206 192.641 70.6435C192.803 71.081 193.053 71.4339 193.391 71.7024C193.729 71.9709 194.16 72.1051 194.684 72.1051ZM199.935 73V65.3636H203.057C203.879 65.3636 204.532 65.5492 205.016 65.9205C205.5 66.2917 205.742 66.7822 205.742 67.392C205.742 67.8561 205.604 68.2157 205.329 68.4709C205.054 68.7228 204.701 68.8935 204.27 68.983C204.552 69.0227 204.826 69.1222 205.091 69.2813C205.359 69.4403 205.581 69.6591 205.757 69.9375C205.933 70.2126 206.02 70.5507 206.02 70.9517C206.02 71.3428 205.921 71.6925 205.722 72.0007C205.523 72.3089 205.238 72.5526 204.867 72.7315C204.496 72.9105 204.052 73 203.535 73H199.935ZM201.049 71.9261H203.535C203.939 71.9261 204.256 71.83 204.484 71.6378C204.713 71.4455 204.827 71.1837 204.827 70.8523C204.827 70.4579 204.713 70.148 204.484 69.9226C204.256 69.6939 203.939 69.5795 203.535 69.5795H201.049V71.9261ZM201.049 68.5653H203.057C203.372 68.5653 203.642 68.5223 203.868 68.4361C204.093 68.3466 204.265 68.2206 204.385 68.0582C204.507 67.8925 204.569 67.697 204.569 67.4716C204.569 67.1501 204.434 66.8982 204.166 66.7159C203.898 66.5303 203.528 66.4375 203.057 66.4375H201.049V68.5653ZM208.811 68.1278H210.998C211.893 68.1278 212.578 68.3549 213.051 68.8089C213.525 69.263 213.762 69.8381 213.762 70.5341C213.762 70.9915 213.656 71.4074 213.444 71.782C213.232 72.1532 212.921 72.4498 212.51 72.6719C212.099 72.8906 211.595 73 210.998 73H207.797V65.3636H208.97V71.9063H210.998C211.462 71.9063 211.843 71.7836 212.142 71.5384C212.44 71.2931 212.589 70.9782 212.589 70.5938C212.589 70.1894 212.44 69.8596 212.142 69.6044C211.843 69.3492 211.462 69.2216 210.998 69.2216H208.811V68.1278ZM222.588 73.1591C221.872 73.1591 221.256 72.9901 220.739 72.652C220.222 72.3139 219.824 71.8482 219.546 71.255C219.267 70.6617 219.128 69.9839 219.128 69.2216C219.128 68.446 219.271 67.7616 219.556 67.1683C219.844 66.5717 220.245 66.1061 220.759 65.7713C221.276 65.4332 221.879 65.2642 222.568 65.2642C223.105 65.2642 223.589 65.3636 224.02 65.5625C224.451 65.7614 224.804 66.0398 225.079 66.3977C225.354 66.7557 225.525 67.1733 225.591 67.6506H224.418C224.328 67.3026 224.129 66.9943 223.821 66.7259C223.516 66.4541 223.105 66.3182 222.588 66.3182C222.131 66.3182 221.73 66.4375 221.385 66.6761C221.044 66.9115 220.777 67.2446 220.585 67.6754C220.396 68.103 220.301 68.6051 220.301 69.1818C220.301 69.7718 220.394 70.2855 220.58 70.723C220.769 71.1605 221.034 71.5002 221.375 71.7422C221.72 71.9841 222.124 72.1051 222.588 72.1051C222.893 72.1051 223.17 72.0521 223.419 71.946C223.667 71.84 223.878 71.6875 224.05 71.4886C224.222 71.2898 224.345 71.0511 224.418 70.7727H225.591C225.525 71.2235 225.361 71.6295 225.099 71.9908C224.84 72.3487 224.497 72.6338 224.07 72.8459C223.646 73.0547 223.152 73.1591 222.588 73.1591ZM45.0739 93V85.3636H51.0795V93H49.9062V86.4574H46.2472V93H45.0739ZM56.424 93.1591C55.6882 93.1591 55.0535 92.9967 54.5199 92.6719C53.9896 92.3438 53.5803 91.8864 53.2919 91.2997C53.0069 90.7098 52.8643 90.0237 52.8643 89.2415C52.8643 88.4593 53.0069 87.7699 53.2919 87.1733C53.5803 86.5734 53.9813 86.1061 54.495 85.7713C55.0121 85.4332 55.6153 85.2642 56.3047 85.2642C56.7024 85.2642 57.0952 85.3305 57.483 85.4631C57.8707 85.5956 58.2237 85.8111 58.5419 86.1094C58.8601 86.4044 59.1136 86.7955 59.3026 87.2827C59.4915 87.7699 59.5859 88.3698 59.5859 89.0824V89.5795H53.6996V88.5653H58.3928C58.3928 88.1345 58.3066 87.75 58.1342 87.4119C57.9652 87.0739 57.7232 86.8071 57.4084 86.6115C57.0968 86.416 56.7289 86.3182 56.3047 86.3182C55.8374 86.3182 55.433 86.4342 55.0916 86.6662C54.7536 86.8949 54.4934 87.1932 54.3111 87.5611C54.1288 87.929 54.0376 88.3234 54.0376 88.7443V89.4205C54.0376 89.9972 54.1371 90.486 54.3359 90.8871C54.5381 91.2848 54.8182 91.5881 55.1761 91.7969C55.5341 92.0024 55.95 92.1051 56.424 92.1051C56.7322 92.1051 57.0107 92.062 57.2592 91.9759C57.5111 91.8864 57.7282 91.7538 57.9105 91.5781C58.0928 91.3991 58.2337 91.1771 58.3331 90.9119L59.4666 91.2301C59.3473 91.6146 59.1468 91.9527 58.8651 92.2443C58.5833 92.5327 58.2353 92.758 57.821 92.9205C57.4067 93.0795 56.9411 93.1591 56.424 93.1591ZM61.3707 95.8636V85.3636H62.5043V86.5767H62.6435C62.7296 86.4441 62.849 86.2751 63.0014 86.0696C63.1572 85.8608 63.3793 85.6752 63.6676 85.5128C63.9593 85.3471 64.3537 85.2642 64.8509 85.2642C65.4938 85.2642 66.0606 85.425 66.5511 85.7464C67.0417 86.0679 67.4245 86.5237 67.6996 87.1136C67.9747 87.7036 68.1122 88.3996 68.1122 89.2017C68.1122 90.0104 67.9747 90.7114 67.6996 91.3047C67.4245 91.8946 67.0433 92.352 66.5561 92.6768C66.0689 92.9983 65.5071 93.1591 64.8707 93.1591C64.3802 93.1591 63.9875 93.0779 63.6925 92.9155C63.3975 92.7498 63.1705 92.5625 63.0114 92.3537C62.8523 92.1416 62.7296 91.9659 62.6435 91.8267H62.544V95.8636H61.3707ZM62.5241 89.1818C62.5241 89.7585 62.6087 90.2673 62.7777 90.7081C62.9467 91.1456 63.1937 91.4886 63.5185 91.7372C63.8433 91.9825 64.241 92.1051 64.7116 92.1051C65.2022 92.1051 65.6115 91.9759 65.9396 91.7173C66.2711 91.4555 66.5196 91.1042 66.6854 90.6634C66.8544 90.2192 66.9389 89.7254 66.9389 89.1818C66.9389 88.6449 66.8561 88.161 66.6903 87.7301C66.5279 87.2959 66.281 86.9529 65.9496 86.701C65.6214 86.4458 65.2088 86.3182 64.7116 86.3182C64.2344 86.3182 63.8333 86.4392 63.5085 86.6811C63.1837 86.9197 62.9384 87.2545 62.7727 87.6854C62.607 88.1129 62.5241 88.6117 62.5241 89.1818ZM69.902 93V85.3636H73.0241C73.8461 85.3636 74.4991 85.5492 74.983 85.9205C75.4669 86.2917 75.7088 86.7822 75.7088 87.392C75.7088 87.8561 75.5713 88.2157 75.2962 88.4709C75.0211 88.7228 74.6681 88.8935 74.2372 88.983C74.5189 89.0227 74.7924 89.1222 75.0575 89.2812C75.326 89.4403 75.5481 89.6591 75.7237 89.9375C75.8994 90.2126 75.9872 90.5507 75.9872 90.9517C75.9872 91.3428 75.8878 91.6925 75.6889 92.0007C75.4901 92.3089 75.205 92.5526 74.8338 92.7315C74.4626 92.9105 74.0185 93 73.5014 93H69.902ZM71.0156 91.9261H73.5014C73.9058 91.9261 74.2223 91.83 74.451 91.6378C74.6797 91.4455 74.794 91.1837 74.794 90.8523C74.794 90.4579 74.6797 90.148 74.451 89.9226C74.2223 89.6939 73.9058 89.5795 73.5014 89.5795H71.0156V91.9261ZM71.0156 88.5653H73.0241C73.339 88.5653 73.6091 88.5223 73.8345 88.4361C74.0599 88.3466 74.2322 88.2206 74.3516 88.0582C74.4742 87.8925 74.5355 87.697 74.5355 87.4716C74.5355 87.1501 74.4013 86.8982 74.1328 86.7159C73.8643 86.5303 73.4948 86.4375 73.0241 86.4375H71.0156V88.5653ZM80.8656 93.1591C80.1762 93.1591 79.5713 92.995 79.051 92.6669C78.5339 92.3388 78.1296 91.8797 77.8379 91.2898C77.5495 90.6998 77.4054 90.0104 77.4054 89.2216C77.4054 88.4261 77.5495 87.7318 77.8379 87.1385C78.1296 86.5452 78.5339 86.0845 79.051 85.7564C79.5713 85.4283 80.1762 85.2642 80.8656 85.2642C81.555 85.2642 82.1582 85.4283 82.6752 85.7564C83.1956 86.0845 83.6 86.5452 83.8883 87.1385C84.18 87.7318 84.3258 88.4261 84.3258 89.2216C84.3258 90.0104 84.18 90.6998 83.8883 91.2898C83.6 91.8797 83.1956 92.3388 82.6752 92.6669C82.1582 92.995 81.555 93.1591 80.8656 93.1591ZM80.8656 92.1051C81.3893 92.1051 81.8201 91.9709 82.1582 91.7024C82.4963 91.4339 82.7465 91.081 82.9089 90.6435C83.0713 90.206 83.1525 89.732 83.1525 89.2216C83.1525 88.7112 83.0713 88.2356 82.9089 87.7947C82.7465 87.3539 82.4963 86.9976 82.1582 86.7259C81.8201 86.4541 81.3893 86.3182 80.8656 86.3182C80.3419 86.3182 79.911 86.4541 79.573 86.7259C79.2349 86.9976 78.9847 87.3539 78.8223 87.7947C78.6599 88.2356 78.5787 88.7112 78.5787 89.2216C78.5787 89.732 78.6599 90.206 78.8223 90.6435C78.9847 91.081 79.2349 91.4339 79.573 91.7024C79.911 91.9709 80.3419 92.1051 80.8656 92.1051ZM90.8299 85.3636V86.4574H87.2901V93H86.1168V85.3636H90.8299ZM95.2484 93.1591C94.559 93.1591 93.9541 92.995 93.4338 92.6669C92.9167 92.3388 92.5124 91.8797 92.2207 91.2898C91.9324 90.6998 91.7882 90.0104 91.7882 89.2216C91.7882 88.4261 91.9324 87.7318 92.2207 87.1385C92.5124 86.5452 92.9167 86.0845 93.4338 85.7564C93.9541 85.4283 94.559 85.2642 95.2484 85.2642C95.9378 85.2642 96.541 85.4283 97.0581 85.7564C97.5784 86.0845 97.9828 86.5452 98.2711 87.1385C98.5628 87.7318 98.7086 88.4261 98.7086 89.2216C98.7086 90.0104 98.5628 90.6998 98.2711 91.2898C97.9828 91.8797 97.5784 92.3388 97.0581 92.6669C96.541 92.995 95.9378 93.1591 95.2484 93.1591ZM95.2484 92.1051C95.7721 92.1051 96.2029 91.9709 96.541 91.7024C96.8791 91.4339 97.1293 91.081 97.2917 90.6435C97.4541 90.206 97.5353 89.732 97.5353 89.2216C97.5353 88.7112 97.4541 88.2356 97.2917 87.7947C97.1293 87.3539 96.8791 86.9976 96.541 86.7259C96.2029 86.4541 95.7721 86.3182 95.2484 86.3182C94.7247 86.3182 94.2939 86.4541 93.9558 86.7259C93.6177 86.9976 93.3675 87.3539 93.2051 87.7947C93.0427 88.2356 92.9615 88.7112 92.9615 89.2216C92.9615 89.732 93.0427 90.206 93.2051 90.6435C93.3675 91.081 93.6177 91.4339 93.9558 91.7024C94.2939 91.9709 94.7247 92.1051 95.2484 92.1051ZM104.437 93V85.3636H107.559C108.381 85.3636 109.034 85.5492 109.518 85.9205C110.002 86.2917 110.244 86.7822 110.244 87.392C110.244 87.8561 110.106 88.2157 109.831 88.4709C109.556 88.7228 109.203 88.8935 108.772 88.983C109.054 89.0227 109.328 89.1222 109.593 89.2812C109.861 89.4403 110.083 89.6591 110.259 89.9375C110.435 90.2126 110.522 90.5507 110.522 90.9517C110.522 91.3428 110.423 91.6925 110.224 92.0007C110.025 92.3089 109.74 92.5526 109.369 92.7315C108.998 92.9105 108.554 93 108.037 93H104.437ZM105.551 91.9261H108.037C108.441 91.9261 108.757 91.83 108.986 91.6378C109.215 91.4455 109.329 91.1837 109.329 90.8523C109.329 90.4579 109.215 90.148 108.986 89.9226C108.757 89.6939 108.441 89.5795 108.037 89.5795H105.551V91.9261ZM105.551 88.5653H107.559C107.874 88.5653 108.144 88.5223 108.37 88.4361C108.595 88.3466 108.767 88.2206 108.887 88.0582C109.009 87.8925 109.071 87.697 109.071 87.4716C109.071 87.1501 108.936 86.8982 108.668 86.7159C108.4 86.5303 108.03 86.4375 107.559 86.4375H105.551V88.5653ZM111.821 91.0511H113.074C113.101 91.3958 113.256 91.6577 113.541 91.8366C113.83 92.0156 114.204 92.1051 114.665 92.1051C115.136 92.1051 115.538 92.009 115.873 91.8168C116.208 91.6212 116.375 91.3063 116.375 90.8722C116.375 90.617 116.312 90.3949 116.186 90.206C116.06 90.0137 115.883 89.8646 115.654 89.7585C115.426 89.6525 115.155 89.5994 114.844 89.5994H113.531V88.5455H114.844C115.311 88.5455 115.656 88.4394 115.878 88.2273C116.103 88.0152 116.216 87.75 116.216 87.4318C116.216 87.0904 116.095 86.817 115.853 86.6115C115.611 86.4027 115.268 86.2983 114.824 86.2983C114.377 86.2983 114.004 86.3994 113.705 86.6016C113.407 86.8004 113.25 87.0573 113.233 87.3722H112C112.013 86.9612 112.139 86.5982 112.378 86.2834C112.617 85.9652 112.941 85.7166 113.352 85.5376C113.763 85.3554 114.234 85.2642 114.764 85.2642C115.301 85.2642 115.767 85.3587 116.161 85.5476C116.559 85.7332 116.866 85.9867 117.081 86.3082C117.3 86.6264 117.409 86.9877 117.409 87.392C117.409 87.8229 117.288 88.1709 117.046 88.4361C116.804 88.7012 116.501 88.8902 116.137 89.0028V89.0824C116.425 89.1023 116.675 89.1951 116.887 89.3608C117.103 89.5232 117.27 89.737 117.389 90.0021C117.509 90.264 117.568 90.554 117.568 90.8722C117.568 91.3362 117.444 91.7405 117.195 92.0852C116.947 92.4266 116.606 92.6918 116.171 92.8807C115.737 93.0663 115.242 93.1591 114.685 93.1591C114.145 93.1591 113.661 93.0713 113.233 92.8956C112.806 92.7166 112.466 92.4697 112.214 92.1548C111.965 91.8366 111.834 91.4688 111.821 91.0511ZM123.93 85.3636V86.4574H120.39V93H119.216V85.3636H123.93ZM124.324 93V91.9062H124.602C124.831 91.9062 125.021 91.8615 125.174 91.772C125.326 91.6792 125.449 91.5185 125.542 91.2898C125.638 91.0578 125.711 90.7363 125.76 90.3253C125.813 89.911 125.851 89.384 125.875 88.7443L126.014 85.3636H131.105V93H129.931V86.4574H127.127L127.008 89.1818C126.982 89.8082 126.925 90.3601 126.839 90.8374C126.756 91.3113 126.629 91.709 126.456 92.0305C126.287 92.352 126.062 92.594 125.78 92.7564C125.498 92.9188 125.145 93 124.721 93H124.324ZM137.851 93V86.4375H135.823C135.365 86.4375 135.006 86.5436 134.744 86.7557C134.482 86.9678 134.351 87.2595 134.351 87.6307C134.351 87.9953 134.469 88.282 134.704 88.4908C134.943 88.6996 135.269 88.804 135.684 88.804H138.15V89.8977H135.684C135.167 89.8977 134.721 89.8066 134.346 89.6243C133.972 89.442 133.683 89.1818 133.481 88.8438C133.279 88.5024 133.178 88.098 133.178 87.6307C133.178 87.16 133.284 86.7557 133.496 86.4176C133.708 86.0795 134.011 85.8194 134.406 85.6371C134.804 85.4548 135.276 85.3636 135.823 85.3636H138.965V93H137.851ZM132.76 93L134.928 89.2017H136.201L134.033 93H132.76ZM140.303 95.1875V91.9062H140.94C141.096 91.7438 141.23 91.5682 141.343 91.3793C141.455 91.1903 141.553 90.9666 141.636 90.7081C141.722 90.4463 141.795 90.1281 141.855 89.7536C141.914 89.3757 141.967 88.92 142.014 88.3864L142.272 85.3636H147.124V91.9062H148.298V95.1875H147.124V93H141.477V95.1875H140.303ZM142.272 91.9062H145.951V86.4574H143.366L143.167 88.3864C143.084 89.1851 142.981 89.8828 142.859 90.4794C142.736 91.076 142.541 91.5516 142.272 91.9062ZM152.102 93.179C151.618 93.179 151.179 93.0878 150.785 92.9055C150.39 92.7199 150.077 92.4531 149.845 92.1051C149.613 91.7538 149.497 91.3295 149.497 90.8324C149.497 90.3949 149.583 90.0402 149.756 89.7685C149.928 89.4934 150.158 89.2779 150.447 89.1222C150.735 88.9664 151.053 88.8504 151.401 88.7741C151.753 88.6946 152.106 88.6316 152.46 88.5852C152.924 88.5256 153.3 88.4808 153.589 88.451C153.88 88.4179 154.093 88.3632 154.225 88.2869C154.361 88.2107 154.429 88.0781 154.429 87.8892V87.8494C154.429 87.3589 154.295 86.9777 154.026 86.706C153.761 86.4342 153.358 86.2983 152.818 86.2983C152.258 86.2983 151.819 86.4209 151.501 86.6662C151.183 86.9115 150.959 87.1733 150.83 87.4517L149.716 87.054C149.915 86.59 150.18 86.2287 150.511 85.9702C150.846 85.7083 151.211 85.526 151.605 85.4233C152.003 85.3172 152.394 85.2642 152.778 85.2642C153.024 85.2642 153.305 85.294 153.624 85.3537C153.945 85.41 154.255 85.5277 154.553 85.7067C154.855 85.8857 155.105 86.1558 155.304 86.517C155.503 86.8783 155.602 87.3622 155.602 87.9688V93H154.429V91.9659H154.369C154.29 92.1316 154.157 92.3089 153.972 92.4979C153.786 92.6868 153.539 92.8475 153.231 92.9801C152.923 93.1127 152.546 93.179 152.102 93.179ZM152.281 92.125C152.745 92.125 153.136 92.0339 153.455 91.8516C153.776 91.6693 154.018 91.4339 154.18 91.1456C154.346 90.8572 154.429 90.554 154.429 90.2358V89.1619C154.379 89.2216 154.27 89.2763 154.101 89.326C153.935 89.3724 153.743 89.4138 153.524 89.4503C153.309 89.4834 153.098 89.5133 152.893 89.5398C152.691 89.563 152.527 89.5829 152.401 89.5994C152.096 89.6392 151.811 89.7038 151.545 89.7933C151.284 89.8795 151.071 90.0104 150.909 90.1861C150.75 90.3584 150.67 90.5937 150.67 90.892C150.67 91.2997 150.821 91.608 151.123 91.8168C151.428 92.0223 151.814 92.125 152.281 92.125Z" fill="black"/>
<path d="M45.0018 17.9119V16.8182H52.6382V17.9119H49.4365V27H48.2035V17.9119H45.0018ZM54.7623 25.2699L58.4413 19.3636H59.7935V27H58.6203V21.0938L54.9612 27H53.589V19.3636H54.7623V25.2699ZM61.9425 19.3636H63.1158V25.9062H65.9993V19.3636H67.1726V25.9062H70.0562V19.3636H71.2294V27H61.9425V19.3636ZM75.6194 27.179C75.1355 27.179 74.6963 27.0878 74.3019 26.9055C73.9075 26.7199 73.5943 26.4531 73.3623 26.1051C73.1303 25.7538 73.0142 25.3295 73.0142 24.8324C73.0142 24.3949 73.1004 24.0402 73.2728 23.7685C73.4451 23.4934 73.6755 23.2779 73.9638 23.1222C74.2522 22.9664 74.5704 22.8504 74.9184 22.7741C75.2697 22.6946 75.6227 22.6316 75.9773 22.5852C76.4413 22.5256 76.8175 22.4808 77.1059 22.451C77.3975 22.4179 77.6097 22.3632 77.7422 22.2869C77.8781 22.2107 77.9461 22.0781 77.9461 21.8892V21.8494C77.9461 21.3589 77.8118 20.9777 77.5434 20.706C77.2782 20.4342 76.8755 20.2983 76.3353 20.2983C75.7751 20.2983 75.336 20.4209 75.0178 20.6662C74.6996 20.9115 74.4759 21.1733 74.3466 21.4517L73.233 21.054C73.4319 20.59 73.697 20.2287 74.0285 19.9702C74.3632 19.7083 74.7278 19.526 75.1222 19.4233C75.5199 19.3172 75.911 19.2642 76.2955 19.2642C76.5408 19.2642 76.8225 19.294 77.1407 19.3537C77.4622 19.41 77.7721 19.5277 78.0704 19.7067C78.372 19.8857 78.6222 20.1558 78.8211 20.517C79.0199 20.8783 79.1194 21.3622 79.1194 21.9688V27H77.9461V25.9659H77.8864C77.8069 26.1316 77.6743 26.3089 77.4887 26.4979C77.3031 26.6868 77.0562 26.8475 76.7479 26.9801C76.4397 27.1127 76.0635 27.179 75.6194 27.179ZM75.7983 26.125C76.2624 26.125 76.6535 26.0339 76.9716 25.8516C77.2931 25.6693 77.5351 25.4339 77.6975 25.1456C77.8632 24.8572 77.9461 24.554 77.9461 24.2358V23.1619C77.8964 23.2216 77.787 23.2763 77.6179 23.326C77.4522 23.3724 77.26 23.4138 77.0412 23.4503C76.8258 23.4834 76.6153 23.5133 76.4098 23.5398C76.2077 23.563 76.0436 23.5829 75.9177 23.5994C75.6127 23.6392 75.3277 23.7038 75.0625 23.7933C74.8007 23.8795 74.5886 24.0104 74.4262 24.1861C74.2671 24.3584 74.1875 24.5937 74.1875 24.892C74.1875 25.2997 74.3383 25.608 74.64 25.8168C74.9449 26.0223 75.331 26.125 75.7983 26.125Z" fill="#575757"/>
<path d="M52 34L54.4452 38.6345L59.6085 39.5279L55.9564 43.2855L56.7023 48.4721L52 46.16L47.2977 48.4721L48.0436 43.2855L44.3915 39.5279L49.5548 38.6345L52 34Z" fill="#FFC115"/>
<path d="M72 34L74.4452 38.6345L79.6085 39.5279L75.9564 43.2855L76.7023 48.4721L72 46.16L67.2977 48.4721L68.0436 43.2855L64.3915 39.5279L69.5548 38.6345L72 34Z" fill="#FFC115"/>
<path d="M92 34L94.4452 38.6345L99.6085 39.5279L95.9564 43.2855L96.7023 48.4721L92 46.16L87.2977 48.4721L88.0436 43.2855L84.3915 39.5279L89.5548 38.6345L92 34Z" fill="#FFC115"/>
<path d="M112 34L114.445 38.6345L119.608 39.5279L115.956 43.2855L116.702 48.4721L112 46.16L107.298 48.4721L108.044 43.2855L104.392 39.5279L109.555 38.6345L112 34Z" fill="#FFC115"/>
<path d="M132 34L134.445 38.6345L139.608 39.5279L135.956 43.2855L136.702 48.4721L132 46.16L127.298 48.4721L128.044 43.2855L124.392 39.5279L129.555 38.6345L132 34Z" fill="#FFC115"/>
</svg>
