<svg width="299" height="170" viewBox="0 0 299 170" fill="none" xmlns="http://www.w3.org/2000/svg">
<g filter="url(#filter0_d_67_1627)">
<path d="M222.963 14.0908C252.152 6.61203 280.638 19.3745 286.588 42.5964C292.537 65.8184 273.698 90.7063 244.509 98.185L93.8613 140.149C82.5016 143.06 71.2485 142.905 61.3887 140.26C52.1343 147.885 39.0741 155.348 22.3556 158.47C39.7655 154.009 34.0396 126.483 30.2366 111.643C24.2868 88.4214 43.1259 63.5336 72.315 56.0548L222.963 14.0908Z" fill="#F4E7FF"/>
</g>
<path d="M60.6342 83.9464L62.1649 83.5344L64.4181 91.904C64.6507 92.7681 64.6547 93.5945 64.4301 94.3831C64.2085 95.1665 63.7821 95.8528 63.1507 96.442C62.5183 97.0271 61.7063 97.4531 60.7146 97.7201C59.7229 97.987 58.8067 98.0263 57.966 97.8378C57.1242 97.6451 56.4088 97.2662 55.8198 96.7011C55.2337 96.1307 54.8244 95.4134 54.5918 94.5493L52.3386 86.1797L53.8693 85.7676L56.0893 94.0138C56.2554 94.631 56.5391 95.1438 56.9403 95.5521C57.3404 95.9563 57.8285 96.2287 58.4048 96.3693C58.984 96.5046 59.6254 96.4775 60.3291 96.2881C61.0327 96.0987 61.601 95.8001 62.0341 95.3922C62.466 94.9803 62.7514 94.4996 62.8904 93.9503C63.0324 93.3958 63.0203 92.8099 62.8541 92.1926L60.6342 83.9464ZM74.9264 84.3354C74.6787 83.9564 74.3995 83.6322 74.0886 83.3628C73.7808 83.0882 73.4431 82.8746 73.0755 82.7221C72.7119 82.5684 72.3222 82.4813 71.9063 82.4609C71.4904 82.4405 71.054 82.4917 70.5973 82.6147C69.8484 82.8163 69.2194 83.193 68.7105 83.7449C68.2015 84.2967 67.8673 84.9979 67.7079 85.8484C67.5485 86.6989 67.6161 87.6715 67.9108 88.766C68.2055 89.8606 68.6373 90.7351 69.2062 91.3895C69.7751 92.0439 70.4244 92.4803 71.154 92.6988C71.8836 92.9172 72.6393 92.9212 73.4211 92.7107C74.1453 92.5157 74.7416 92.1897 75.2099 91.7327C75.6812 91.2704 75.9948 90.7138 76.1505 90.0628C76.3092 89.4067 76.2845 88.6918 76.0762 87.9182L76.5719 87.8907L72.7698 88.9143L72.4042 87.5563L77.2186 86.2603L77.5842 87.6182C77.8644 88.6592 77.8859 89.6243 77.6487 90.5135C77.4155 91.4015 76.9672 92.1621 76.3036 92.7953C75.643 93.4232 74.8106 93.8724 73.8066 94.1427C72.6874 94.444 71.633 94.4454 70.6436 94.1469C69.6582 93.8472 68.7982 93.2756 68.0636 92.4319C67.3331 91.587 66.7884 90.498 66.4294 89.1648C66.1603 88.1649 66.052 87.2298 66.1045 86.3595C66.1601 85.484 66.3589 84.6979 66.7009 84.0012C67.0429 83.3046 67.5109 82.7152 68.1049 82.2332C68.6989 81.7511 69.4012 81.401 70.2118 81.1827C70.8784 81.0033 71.5269 80.9368 72.1572 80.9834C72.7906 81.0247 73.3829 81.1675 73.9341 81.4119C74.4884 81.651 74.9859 81.9827 75.4266 82.4069C75.8663 82.8269 76.2262 83.328 76.5065 83.9101L74.9264 84.3354ZM89.3742 80.446L87.8435 80.8581C87.6344 80.4422 87.3718 80.098 87.0558 79.8256C86.7439 79.5521 86.397 79.3454 86.0151 79.2055C85.6362 79.0604 85.2379 78.9823 84.82 78.9712C84.4022 78.9601 83.9835 79.0111 83.5637 79.124C82.7984 79.3301 82.1571 79.7101 81.6399 80.2642C81.1268 80.8172 80.7885 81.5195 80.625 82.3711C80.4656 83.2216 80.5332 84.1941 80.8279 85.2886C81.1225 86.3832 81.5523 87.2582 82.1171 87.9138C82.686 88.5682 83.3312 89.0057 84.0525 89.2264C84.778 89.4459 85.5234 89.4527 86.2888 89.2466C86.7085 89.1336 87.0963 88.9675 87.4521 88.7481C87.8078 88.5288 88.1137 88.2633 88.3696 87.9517C88.6285 87.6348 88.8242 87.2799 88.9567 86.8867C89.0922 86.4884 89.1465 86.0589 89.1196 85.5984L90.6503 85.1863C90.709 85.8634 90.6548 86.498 90.4877 87.0902C90.3205 87.6824 90.0588 88.2185 89.7026 88.6983C89.3452 89.174 88.9096 89.5804 88.3957 89.9173C87.8859 90.2531 87.3121 90.5069 86.6743 90.6786C85.5962 90.9688 84.5665 90.9636 83.5853 90.6628C82.6041 90.3621 81.7421 89.791 80.9992 88.9495C80.2563 88.108 79.7054 87.0207 79.3465 85.6874C78.9876 84.3542 78.9182 83.1373 79.1382 82.0365C79.3582 80.9358 79.817 80.0091 80.5146 79.2564C81.2123 78.5038 82.1002 77.9823 83.1782 77.6921C83.816 77.5204 84.4397 77.4518 85.0492 77.4863C85.6627 77.5197 86.244 77.6545 86.793 77.8906C87.341 78.1226 87.8358 78.4528 88.2777 78.8811C88.7184 79.3052 89.0839 79.8269 89.3742 80.446ZM98.8782 87.2079L96.326 77.7272L97.7827 77.3351L98.8926 81.4582L99.8555 81.1989L102.153 76.1586L104.029 75.6535L101.432 81.2512L106.631 85.1209L104.754 85.626L100.567 82.4638L99.2582 82.8161L100.335 86.8157L98.8782 87.2079ZM111.728 83.9604C110.872 84.1908 110.066 84.1893 109.311 83.9558C108.559 83.7213 107.904 83.2865 107.344 82.6515C106.789 82.0155 106.38 81.2078 106.116 80.2284C105.85 79.2409 105.797 78.3306 105.957 77.4977C106.121 76.6636 106.469 75.9565 107.001 75.3763C107.537 74.7951 108.234 74.3892 109.089 74.1588C109.945 73.9284 110.749 73.9305 111.501 74.165C112.256 74.3985 112.912 74.8353 113.469 75.4755C114.029 76.1146 114.442 76.9279 114.708 77.9155C114.972 78.8948 115.021 79.7994 114.856 80.6294C114.695 81.4582 114.347 82.1632 113.81 82.7445C113.278 83.3247 112.584 83.73 111.728 83.9604ZM111.376 82.6519C112.026 82.4769 112.516 82.1662 112.846 81.7199C113.176 81.2736 113.369 80.7517 113.424 80.1543C113.48 79.5569 113.422 78.9413 113.251 78.3076C113.081 77.6739 112.821 77.1106 112.472 76.6176C112.123 76.1246 111.693 75.7659 111.183 75.5414C110.672 75.317 110.092 75.2923 109.442 75.4673C108.792 75.6423 108.302 75.9551 107.973 76.4055C107.644 76.8559 107.453 77.3819 107.398 77.9834C107.344 78.585 107.402 79.2026 107.573 79.8363C107.743 80.47 108.003 81.0313 108.351 81.5201C108.698 82.009 109.127 82.3636 109.636 82.5839C110.146 82.8043 110.726 82.8269 111.376 82.6519ZM123.084 74.8927L123.45 76.2506L118.215 77.6597L117.85 76.3018L123.084 74.8927ZM117.099 72.135L119.651 81.6157L118.194 82.0078L115.642 72.5271L117.099 72.135ZM123.098 70.5199L125.651 80.0006L124.194 80.3927L121.642 70.9121L123.098 70.5199ZM124.834 71.5089L124.469 70.151L132.172 68.0773L132.537 69.4352L129.426 70.2727L131.613 78.3954L130.156 78.7876L127.97 70.6648L124.834 71.5089ZM140.385 76.2459C139.471 76.4918 138.629 76.5023 137.858 76.2774C137.09 76.0473 136.429 75.6162 135.875 74.9843C135.324 74.3471 134.917 73.543 134.656 72.5718C134.394 71.6007 134.341 70.6972 134.495 69.8613C134.653 69.0201 134.995 68.3059 135.521 67.7186C136.049 67.126 136.742 66.7146 137.598 66.4842C138.092 66.3512 138.601 66.3023 139.127 66.3373C139.653 66.3722 140.163 66.5217 140.658 66.7857C141.151 67.0456 141.597 67.4464 141.994 67.9882C142.392 68.5299 142.709 69.2431 142.948 70.1278L143.114 70.745L135.806 72.7124L135.467 71.4533L141.293 69.8847C141.149 69.3498 140.914 68.9012 140.587 68.5391C140.264 68.1759 139.875 67.9255 139.418 67.788C138.966 67.6493 138.477 67.6509 137.95 67.7927C137.37 67.9489 136.907 68.2281 136.56 68.6302C136.217 69.0271 135.994 69.4844 135.89 70.0021C135.787 70.5198 135.806 71.0399 135.946 71.5625L136.172 72.4019C136.365 73.1179 136.652 73.6916 137.033 74.123C137.417 74.5492 137.866 74.8322 138.38 74.9718C138.893 75.1072 139.444 75.0958 140.032 74.9374C140.415 74.8343 140.746 74.6878 141.026 74.4977C141.309 74.3024 141.534 74.0653 141.702 73.7863C141.868 73.5032 141.969 73.1804 142.004 72.818L143.517 72.8341C143.498 73.3513 143.362 73.8381 143.109 74.2943C142.856 74.7465 142.499 75.1426 142.039 75.4827C141.578 75.8187 141.026 76.0731 140.385 76.2459ZM151.362 67.28L151.728 68.6379L146.494 70.0469L146.128 68.689L151.362 67.28ZM145.377 64.5223L147.929 74.0029L146.473 74.3951L143.921 64.9144L145.377 64.5223ZM151.377 62.9072L153.929 72.3878L152.472 72.78L149.92 63.2993L151.377 62.9072ZM153.113 63.8962L152.747 62.5383L160.45 60.4646L160.816 61.8225L157.705 62.66L159.891 70.7827L158.435 71.1748L156.248 63.0521L153.113 63.8962ZM170.016 68.0572L167.463 58.5766L174.919 56.5693L177.472 66.05L176.015 66.4421L173.828 58.3194L169.285 59.5423L171.472 67.6651L170.016 68.0572ZM184.037 64.4945C183.181 64.7249 182.375 64.7234 181.619 64.4899C180.868 64.2553 180.212 63.8206 179.653 63.1856C179.098 62.5495 178.688 61.7418 178.425 60.7625C178.159 59.7749 178.106 58.8647 178.265 58.0317C178.429 57.1977 178.777 56.4906 179.31 55.9104C179.846 55.3291 180.542 54.9233 181.398 54.6929C182.254 54.4625 183.058 54.4645 183.809 54.6991C184.565 54.9325 185.221 55.3694 185.777 56.0096C186.338 56.6486 186.751 57.462 187.016 58.4495C187.28 59.4289 187.33 60.3335 187.165 61.1634C187.004 61.9922 186.655 62.6973 186.119 63.2786C185.587 63.8588 184.892 64.2641 184.037 64.4945ZM183.684 63.1859C184.334 63.0109 184.825 62.7003 185.155 62.254C185.485 61.8077 185.677 61.2858 185.733 60.6884C185.788 60.0909 185.73 59.4754 185.56 58.8417C185.389 58.208 185.129 57.6446 184.781 57.1516C184.432 56.6586 184.002 56.2999 183.491 56.0755C182.981 55.8511 182.4 55.8264 181.75 56.0014C181.1 56.1764 180.611 56.4891 180.282 56.9395C179.953 57.39 179.761 57.9159 179.707 58.5175C179.653 59.119 179.711 59.7367 179.881 60.3704C180.052 61.004 180.311 61.5653 180.659 62.0542C181.007 62.5431 181.435 62.8977 181.945 63.118C182.454 63.3383 183.034 63.361 183.684 63.1859ZM189.259 60.2818L190.814 59.8631C190.963 60.2822 191.243 60.5552 191.657 60.6821C192.075 60.808 192.57 60.7939 193.142 60.6399C193.726 60.4826 194.194 60.2287 194.545 59.8782C194.896 59.5235 194.998 59.0766 194.853 58.5376C194.768 58.2207 194.615 57.9661 194.396 57.7736C194.175 57.5771 193.905 57.4512 193.586 57.3959C193.266 57.3407 192.913 57.3651 192.527 57.4693L190.897 57.9079L190.545 56.5994L192.174 56.1607C192.754 56.0045 193.147 55.7577 193.352 55.4201C193.561 55.0814 193.612 54.7146 193.506 54.3195C193.392 53.8957 193.15 53.5967 192.781 53.4224C192.411 53.244 191.95 53.2291 191.399 53.3775C190.843 53.5271 190.414 53.7772 190.111 54.1279C189.807 54.4745 189.698 54.846 189.782 55.2424L188.252 55.6545C188.131 55.1399 188.166 54.6472 188.357 54.1765C188.547 53.7017 188.867 53.2845 189.317 52.925C189.767 52.5613 190.32 52.2908 190.979 52.1136C191.645 51.9342 192.255 51.8958 192.808 51.9985C193.364 52.096 193.829 52.3083 194.204 52.6355C194.582 52.9574 194.839 53.3694 194.974 53.8714C195.118 54.4063 195.084 54.8788 194.872 55.2888C194.66 55.6989 194.347 56.0348 193.932 56.2966L193.959 56.3953C194.323 56.3236 194.665 56.3552 194.984 56.4901C195.305 56.6197 195.585 56.8292 195.821 57.1185C196.057 57.4037 196.228 57.7438 196.334 58.1388C196.489 58.7149 196.47 59.2584 196.277 59.7695C196.082 60.2764 195.747 60.7197 195.271 61.0993C194.794 61.4749 194.21 61.7557 193.519 61.9418C192.848 62.1224 192.218 62.1751 191.628 62.0999C191.038 62.0206 190.533 61.8275 190.115 61.5208C189.701 61.2089 189.415 60.7959 189.259 60.2818ZM199.092 60.2297L196.539 50.7491L200.416 49.7056C201.436 49.4308 202.309 49.4431 203.034 49.7422C203.758 50.0413 204.223 50.5695 204.427 51.3266C204.582 51.9027 204.531 52.3951 204.275 52.8039C204.018 53.2086 203.636 53.5385 203.131 53.7936C203.494 53.7488 203.867 53.7808 204.249 53.8897C204.636 53.9975 204.985 54.1949 205.296 54.4818C205.606 54.7646 205.828 55.155 205.962 55.6529C206.093 56.1385 206.086 56.6058 205.942 57.055C205.798 57.5041 205.526 57.9018 205.125 58.2481C204.724 58.5944 204.202 58.8539 203.56 59.0267L199.092 60.2297ZM200.115 58.5243L203.201 57.6935C203.703 57.5583 204.064 57.3332 204.284 57.0181C204.504 56.703 204.558 56.3397 204.447 55.9282C204.316 55.4386 204.07 55.0921 203.711 54.8887C203.35 54.6812 202.919 54.645 202.417 54.7802L199.331 55.611L200.115 58.5243ZM198.992 54.3518L201.486 53.6805C201.877 53.5753 202.198 53.4315 202.449 53.2492C202.698 53.0628 202.87 52.8488 202.964 52.6073C203.061 52.3606 203.072 52.0973 202.997 51.8175C202.889 51.4183 202.638 51.1505 202.244 51.0139C201.849 50.8732 201.359 50.8815 200.775 51.0388L198.281 51.7101L198.992 54.3518ZM212.756 56.7629C211.9 56.9933 211.095 56.9918 210.339 56.7584C209.587 56.5238 208.932 56.089 208.373 55.4541C207.817 54.818 207.408 54.0103 207.144 53.031C206.878 52.0434 206.825 51.1331 206.985 50.3002C207.149 49.4662 207.497 48.7591 208.029 48.1789C208.566 47.5976 209.262 47.1917 210.118 46.9613C210.974 46.7309 211.777 46.733 212.529 46.9676C213.285 47.201 213.941 47.6378 214.497 48.278C215.057 48.9171 215.47 49.7304 215.736 50.718C216 51.6973 216.049 52.602 215.884 53.4319C215.723 54.2607 215.375 54.9658 214.838 55.547C214.306 56.1272 213.612 56.5325 212.756 56.7629ZM212.404 55.4544C213.054 55.2794 213.544 54.9687 213.874 54.5224C214.204 54.0761 214.397 53.5543 214.452 52.9568C214.508 52.3594 214.45 51.7438 214.28 51.1101C214.109 50.4764 213.849 49.9131 213.5 49.4201C213.151 48.9271 212.721 48.5684 212.211 48.344C211.7 48.1195 211.12 48.0948 210.47 48.2699C209.82 48.4449 209.33 48.7576 209.001 49.208C208.672 49.6584 208.481 50.1844 208.427 50.786C208.372 51.3875 208.43 52.0051 208.601 52.6388C208.772 53.2725 209.031 53.8338 209.379 54.3227C209.727 54.8116 210.155 55.1662 210.665 55.3865C211.174 55.6068 211.754 55.6294 212.404 55.4544ZM218.383 55.0363L218.018 53.6784L218.363 53.5854C218.647 53.5089 218.869 53.3897 219.028 53.2276C219.186 53.0614 219.285 52.8209 219.324 52.5059C219.366 52.1858 219.349 51.7623 219.273 51.2354C219.2 50.7033 219.072 50.0363 218.887 49.2344L217.929 44.9907L224.25 43.2892L226.802 52.7699L225.346 53.162L223.159 45.0393L219.678 45.9764L220.44 49.3987C220.617 50.1853 220.731 50.8892 220.784 51.5106C220.839 52.1267 220.814 52.6631 220.707 53.1199C220.605 53.5755 220.406 53.9512 220.11 54.247C219.815 54.5428 219.404 54.7616 218.877 54.9034L218.383 55.0363ZM235.178 50.515L232.985 42.3676L230.466 43.0455C229.898 43.1984 229.487 43.4503 229.233 43.8011C228.979 44.152 228.914 44.5579 229.038 45.0187C229.16 45.4714 229.402 45.788 229.764 45.9686C230.13 46.148 230.57 46.1685 231.084 46.0301L234.146 45.2059L234.511 46.5638L231.45 47.388C230.808 47.5608 230.224 47.5966 229.698 47.4955C229.172 47.3943 228.727 47.1677 228.363 46.8156C227.998 46.4593 227.738 45.9911 227.581 45.4109C227.424 44.8266 227.421 44.2891 227.571 43.7985C227.721 43.3079 228.011 42.8835 228.44 42.5254C228.873 42.1661 229.428 41.8951 230.107 41.7123L234.008 40.6622L236.561 50.1428L235.178 50.515ZM228.858 52.2165L230.279 46.7764L231.859 46.3511L230.438 51.7912L228.858 52.2165ZM243.263 48.5504C242.349 48.7963 241.507 48.8068 240.736 48.5819C239.968 48.3517 239.307 47.9207 238.753 47.2887C238.202 46.6516 237.796 45.8474 237.534 44.8763C237.273 43.9052 237.219 43.0017 237.374 42.1657C237.531 41.3246 237.873 40.6103 238.399 40.023C238.928 39.4305 239.62 39.019 240.476 38.7886C240.97 38.6557 241.48 38.6067 242.005 38.6417C242.531 38.6767 243.041 38.8262 243.536 39.0902C244.03 39.3501 244.475 39.7509 244.873 40.2926C245.27 40.8344 245.588 41.5476 245.826 42.4323L245.992 43.0495L238.684 45.0169L238.345 43.7577L244.172 42.1891C244.028 41.6542 243.792 41.2057 243.465 40.8436C243.142 40.4804 242.753 40.23 242.297 40.0924C241.844 39.9538 241.355 39.9554 240.828 40.0972C240.248 40.2533 239.785 40.5325 239.439 40.9346C239.095 41.3316 238.872 41.7889 238.769 42.3065C238.665 42.8242 238.684 43.3443 238.825 43.8669L239.051 44.7064C239.243 45.4224 239.53 45.9961 239.911 46.4275C240.295 46.8537 240.744 47.1366 241.258 47.2762C241.771 47.4117 242.322 47.4002 242.911 47.2418C243.293 47.1388 243.625 46.9923 243.904 46.8022C244.187 46.6069 244.412 46.3698 244.58 46.0907C244.746 45.8076 244.847 45.4848 244.882 45.1224L246.396 45.1386C246.376 45.6558 246.24 46.1425 245.988 46.5988C245.734 47.0509 245.378 47.4471 244.918 47.7872C244.456 48.1231 243.905 48.3775 243.263 48.5504ZM246.282 38.8144L245.916 37.4565L253.619 35.3828L253.985 36.7407L250.874 37.5781L253.061 45.7009L251.604 46.093L249.417 37.9703L246.282 38.8144ZM66.6714 120.733L64.1191 111.252L71.5753 109.245L74.1275 118.725L72.6709 119.118L70.4842 110.995L65.9414 112.218L68.1281 120.34L66.6714 120.733ZM77.7449 121.564L74.2355 108.529L75.6428 108.15L76.0483 109.656L76.2211 109.609C76.2838 109.416 76.3754 109.166 76.496 108.86C76.6196 108.549 76.8333 108.244 77.137 107.946C77.4437 107.643 77.9057 107.408 78.5229 107.242C79.3212 107.027 80.0786 107.037 80.795 107.272C81.5115 107.508 82.139 107.945 82.6778 108.586C83.2165 109.226 83.6199 110.045 83.8879 111.04C84.1582 112.044 84.2218 112.961 84.0785 113.789C83.9342 114.614 83.6138 115.309 83.1175 115.875C82.6201 116.437 81.9763 116.824 81.1863 117.037C80.5773 117.201 80.0625 117.231 79.642 117.128C79.2204 117.021 78.8759 116.865 78.6086 116.658C78.3402 116.448 78.1293 116.271 77.9758 116.127L77.8523 116.16L79.2015 121.172L77.7449 121.564ZM76.9436 112.883C77.1364 113.599 77.4114 114.203 77.7685 114.694C78.1246 115.18 78.5458 115.524 79.0322 115.724C79.5174 115.92 80.0522 115.939 80.6365 115.782C81.2455 115.618 81.7105 115.32 82.0314 114.89C82.3554 114.454 82.5466 113.935 82.605 113.332C82.6664 112.724 82.6063 112.083 82.4246 111.408C82.2452 110.741 81.9806 110.168 81.6308 109.689C81.2841 109.204 80.8629 108.861 80.3672 108.659C79.8745 108.451 79.3196 108.431 78.7024 108.597C78.1098 108.757 77.6523 109.041 77.33 109.45C77.0065 109.855 76.8138 110.352 76.7521 110.942C76.6893 111.529 76.7531 112.176 76.9436 112.883ZM91.2841 114.319C90.4282 114.549 89.6224 114.547 88.8667 114.314C88.1152 114.079 87.4597 113.645 86.9004 113.01C86.3453 112.374 85.9359 111.566 85.6722 110.587C85.4064 109.599 85.3533 108.689 85.513 107.856C85.6768 107.022 86.0248 106.315 86.5571 105.734C87.0935 105.153 87.7896 104.747 88.6455 104.517C89.5014 104.287 90.3051 104.289 91.0567 104.523C91.8124 104.757 92.4684 105.193 93.0247 105.834C93.5851 106.473 93.9982 107.286 94.264 108.274C94.5277 109.253 94.5771 110.158 94.4121 110.987C94.2513 111.816 93.9027 112.521 93.3664 113.103C92.8341 113.683 92.14 114.088 91.2841 114.319ZM90.9319 113.01C91.582 112.835 92.0721 112.524 92.4021 112.078C92.7321 111.632 92.9248 111.11 92.9802 110.512C93.0356 109.915 92.978 109.299 92.8074 108.666C92.6368 108.032 92.377 107.469 92.0281 106.976C91.6791 106.483 91.2493 106.124 90.7388 105.9C90.2282 105.675 89.6479 105.65 88.9977 105.825C88.3476 106 87.8581 106.313 87.5292 106.764C87.2003 107.214 87.0087 107.74 86.9544 108.342C86.9001 108.943 86.9583 109.561 87.1289 110.194C87.2995 110.828 87.5587 111.389 87.9065 111.878C88.2544 112.367 88.683 112.722 89.1925 112.942C89.7019 113.162 90.2817 113.185 90.9319 113.01ZM97.4693 115.354L96.3726 111.281L97.1627 111.068C97.3018 110.814 97.4098 110.551 97.4865 110.279C97.5633 110.007 97.6099 109.696 97.6264 109.348C97.6458 108.994 97.63 108.574 97.5789 108.089C97.5267 107.6 97.4402 107.017 97.3195 106.339L96.6302 102.5L102.654 100.878L104.841 109.001L106.298 108.609L107.394 112.682L105.938 113.074L105.207 110.359L98.1949 112.246L98.926 114.962L97.4693 115.354ZM98.8169 110.623L103.384 109.393L101.563 102.628L98.3536 103.492L98.7515 105.953C98.9155 106.973 99.0212 107.873 99.0683 108.655C99.1155 109.437 99.0316 110.092 98.8169 110.623ZM108.597 109.446L106.044 99.9654L109.921 98.9219C110.941 98.6472 111.814 98.6594 112.539 98.9585C113.263 99.2576 113.728 99.7858 113.932 100.543C114.087 101.119 114.036 101.611 113.78 102.02C113.523 102.425 113.141 102.755 112.636 103.01C112.999 102.965 113.372 102.997 113.754 103.106C114.141 103.214 114.49 103.411 114.801 103.698C115.111 103.981 115.333 104.371 115.467 104.869C115.598 105.355 115.591 105.822 115.447 106.271C115.303 106.72 115.031 107.118 114.63 107.464C114.229 107.811 113.707 108.07 113.065 108.243L108.597 109.446ZM109.62 107.741L112.707 106.91C113.209 106.775 113.569 106.55 113.789 106.234C114.009 105.919 114.063 105.556 113.952 105.145C113.821 104.655 113.575 104.308 113.216 104.105C112.855 103.897 112.424 103.861 111.922 103.996L108.836 104.827L109.62 107.741ZM108.497 103.568L110.991 102.897C111.382 102.792 111.703 102.648 111.954 102.466C112.204 102.279 112.375 102.065 112.469 101.824C112.566 101.577 112.577 101.314 112.502 101.034C112.394 100.635 112.143 100.367 111.749 100.23C111.354 100.089 110.864 100.098 110.28 100.255L107.786 100.926L108.497 103.568ZM119.235 104.278L121.829 95.7162L123.507 95.2642L126.06 104.745L124.603 105.137L122.629 97.8043L120.06 106.36L118.357 106.819L115.804 97.3379L117.261 96.9458L119.235 104.278ZM132.027 92.9708L132.392 94.3287L127.998 95.5118L130.184 103.634L128.728 104.027L126.175 94.546L132.027 92.9708ZM139.063 101.483C138.462 101.644 137.886 101.678 137.336 101.584C136.784 101.485 136.306 101.258 135.902 100.904C135.496 100.545 135.21 100.057 135.044 99.44C134.898 98.8969 134.886 98.4278 135.01 98.0327C135.132 97.6336 135.346 97.2892 135.652 96.9994C135.957 96.7096 136.314 96.4592 136.72 96.2483C137.13 96.0321 137.547 95.836 137.972 95.6598C138.528 95.4307 138.98 95.2494 139.328 95.116C139.679 94.9773 139.924 94.8386 140.063 94.6996C140.207 94.5595 140.247 94.3722 140.183 94.1377L140.17 94.0883C140.006 93.4793 139.712 93.051 139.288 92.8033C138.868 92.5545 138.323 92.5204 137.652 92.7009C136.957 92.8881 136.452 93.1872 136.139 93.598C135.826 94.0088 135.636 94.4087 135.569 94.7975L134.053 94.676C134.145 94.0334 134.353 93.4963 134.678 93.0645C135.006 92.6276 135.398 92.2794 135.853 92.02C136.312 91.7554 136.78 91.5589 137.257 91.4304C137.561 91.3484 137.921 91.2913 138.336 91.259C138.754 91.2215 139.178 91.264 139.608 91.3865C140.043 91.5079 140.444 91.7596 140.811 92.1417C141.179 92.5237 141.464 93.0913 141.667 93.8443L143.348 100.091L141.892 100.483L141.546 99.199L141.472 99.2189C141.429 99.4512 141.323 99.7157 141.156 100.012C140.989 100.309 140.736 100.591 140.397 100.859C140.059 101.126 139.614 101.334 139.063 101.483ZM138.933 100.114C139.509 99.9592 139.964 99.7153 140.298 99.3827C140.636 99.0489 140.858 98.6759 140.963 98.2636C141.073 97.8502 141.074 97.446 140.968 97.051L140.609 95.7178C140.567 95.8085 140.45 95.9129 140.256 96.0311C140.066 96.1441 139.841 96.2598 139.582 96.3782C139.325 96.4914 139.074 96.5987 138.828 96.7003C138.585 96.7967 138.388 96.8762 138.237 96.9389C137.872 97.0902 137.539 97.2657 137.24 97.4654C136.944 97.6599 136.724 97.8934 136.581 98.1657C136.441 98.4329 136.421 98.7516 136.521 99.1219C136.657 99.6281 136.947 99.9604 137.392 100.119C137.839 100.272 138.353 100.271 138.933 100.114ZM142.53 91.5995L142.165 90.2416L149.868 88.1678L150.233 89.5258L147.122 90.3632L149.309 98.486L147.853 98.8781L145.666 90.7554L142.53 91.5995ZM154.176 90.6887L156.891 89.9575C158.002 89.6585 158.928 89.7116 159.668 90.1169C160.408 90.5222 160.895 91.1569 161.127 92.0211C161.28 92.5889 161.288 93.1408 161.149 93.6767C161.01 94.2084 160.723 94.6808 160.287 95.0939C159.849 95.5028 159.26 95.807 158.52 96.0064L154.545 97.0765L151.993 87.5958L153.449 87.2037L155.636 95.3264L158.154 94.6485C158.73 94.4934 159.163 94.2138 159.451 93.8096C159.739 93.4054 159.819 92.9646 159.691 92.4873C159.556 91.9853 159.26 91.6257 158.805 91.4085C158.349 91.1914 157.833 91.1604 157.257 91.3154L154.541 92.0466L154.176 90.6887ZM173.71 89.7987L174.998 81.4025L176.381 81.0303L174.835 91.6143L173.65 91.9333L167.073 83.5361L168.431 83.1705L173.71 89.7987ZM167.962 83.2968L170.514 92.7774L169.057 93.1696L166.505 83.6889L167.962 83.2968ZM177.97 90.7702L175.418 81.2896L176.875 80.8974L179.427 90.3781L177.97 90.7702ZM185.998 88.8209C185.142 89.0513 184.336 89.0498 183.581 88.8163C182.829 88.5818 182.174 88.147 181.614 87.512C181.059 86.876 180.65 86.0683 180.386 85.0889C180.12 84.1014 180.067 83.1911 180.227 82.3582C180.391 81.5241 180.739 80.817 181.271 80.2368C181.807 79.6555 182.503 79.2497 183.359 79.0193C184.215 78.7889 185.019 78.791 185.771 79.0255C186.526 79.259 187.182 79.6958 187.739 80.336C188.299 80.9751 188.712 81.7884 188.978 82.7759C189.242 83.7553 189.291 84.6599 189.126 85.4898C188.965 86.3187 188.617 87.0237 188.08 87.605C187.548 88.1852 186.854 88.5905 185.998 88.8209ZM185.646 87.5124C186.296 87.3373 186.786 87.0267 187.116 86.5804C187.446 86.1341 187.639 85.6122 187.694 85.0148C187.749 84.4173 187.692 83.8018 187.521 83.1681C187.351 82.5344 187.091 81.9711 186.742 81.4781C186.393 80.9851 185.963 80.6263 185.453 80.4019C184.942 80.1775 184.362 80.1528 183.712 80.3278C183.061 80.5028 182.572 80.8156 182.243 81.266C181.914 81.7164 181.723 82.2424 181.668 82.8439C181.614 83.4455 181.672 84.0631 181.843 84.6968C182.013 85.3305 182.273 85.8918 182.62 86.3806C182.968 86.8695 183.397 87.2241 183.906 87.4444C184.416 87.6647 184.996 87.6874 185.646 87.5124ZM193.343 84.3282L195.936 75.7659L197.615 75.3139L200.167 84.7946L198.711 85.1867L196.737 77.854L194.168 86.4097L192.464 86.8683L189.912 77.3876L191.369 76.9955L193.343 84.3282ZM194.123 72.8649L195.481 72.4993C195.66 73.1659 195.576 73.7732 195.23 74.3211C194.883 74.869 194.314 75.2493 193.524 75.462C192.747 75.6713 192.07 75.6261 191.495 75.3264C190.924 75.0255 190.549 74.5418 190.37 73.8752L191.728 73.5096C191.814 73.8306 191.979 74.0886 192.221 74.2838C192.467 74.4778 192.806 74.5167 193.239 74.4003C193.671 74.284 193.947 74.0796 194.066 73.7869C194.19 73.4932 194.209 73.1859 194.123 72.8649ZM211.251 67.8302L212.231 68.5196C212.018 68.877 211.737 69.1621 211.389 69.3752C211.04 69.5882 210.63 69.7713 210.16 69.9245C209.689 70.0777 209.165 70.2452 208.587 70.4272C207.936 70.6292 207.434 70.9364 207.081 71.349C206.729 71.7616 206.511 72.2793 206.427 72.902C206.343 73.5248 206.378 74.2524 206.531 75.0849L206.655 75.0516C206.816 74.3727 207.143 73.8169 207.636 73.3842C208.128 72.9515 208.7 72.6477 209.35 72.4726C210.09 72.2732 210.804 72.2666 211.489 72.4527C212.175 72.6389 212.782 73.0249 213.31 73.6108C213.839 74.1967 214.237 74.9876 214.505 75.9833C214.772 76.975 214.825 77.8786 214.665 78.6939C214.509 79.5082 214.167 80.1961 213.639 80.7576C213.113 81.3139 212.427 81.7061 211.579 81.9343C210.731 82.1625 209.935 82.1629 209.19 81.9354C208.443 81.7039 207.787 81.2407 207.22 80.5459C206.653 79.847 206.212 78.9132 205.897 77.7446L205.624 76.7324C205.056 74.6214 204.983 72.9244 205.406 71.6412C205.832 70.3569 206.763 69.5018 208.197 69.076C208.703 68.9222 209.156 68.7956 209.558 68.6964C209.959 68.5972 210.302 68.4851 210.586 68.36C210.87 68.235 211.092 68.0584 211.251 67.8302ZM211.227 80.6258C211.799 80.4718 212.252 80.1954 212.586 79.7966C212.924 79.3967 213.134 78.9055 213.215 78.3231C213.295 77.7366 213.24 77.0874 213.048 76.3755C212.862 75.6842 212.591 75.1262 212.234 74.7016C211.881 74.2759 211.462 73.9914 210.978 73.8481C210.493 73.7049 209.961 73.7114 209.381 73.8676C208.957 73.9817 208.596 74.1561 208.297 74.391C207.999 74.6259 207.768 74.9153 207.604 75.2594C207.441 75.6034 207.348 75.9948 207.325 76.4335C207.306 76.8711 207.362 77.3503 207.493 77.871C207.779 78.9326 208.257 79.7153 208.926 80.2191C209.596 80.7228 210.363 80.8584 211.227 80.6258ZM218.933 83.5556L215.424 70.5197L216.831 70.1409L217.236 71.6469L217.409 71.6004C217.472 71.407 217.564 71.1573 217.684 70.8512C217.808 70.5399 218.021 70.2352 218.325 69.9372C218.632 69.634 219.094 69.3993 219.711 69.2331C220.509 69.0182 221.267 69.0284 221.983 69.2636C222.7 69.4988 223.327 69.9366 223.866 70.5771C224.405 71.2176 224.808 72.0358 225.076 73.0316C225.346 74.0356 225.41 74.9519 225.267 75.7804C225.122 76.6048 224.802 77.3 224.306 77.8661C223.808 78.4281 223.165 78.8154 222.374 79.0281C221.765 79.1921 221.251 79.2225 220.83 79.1195C220.409 79.0123 220.064 78.8557 219.797 78.6496C219.528 78.4395 219.317 78.2624 219.164 78.1183L219.041 78.1516L220.39 83.1635L218.933 83.5556ZM218.132 74.8746C218.325 75.5905 218.6 76.1939 218.957 76.6847C219.313 77.1714 219.734 77.5147 220.22 77.7148C220.706 77.9107 221.24 77.9301 221.825 77.7728C222.434 77.6088 222.899 77.3115 223.22 76.8809C223.544 76.445 223.735 75.9258 223.793 75.3231C223.855 74.7152 223.795 74.0739 223.613 73.399C223.433 72.7324 223.169 72.1594 222.819 71.6798C222.472 71.195 222.051 70.8517 221.555 70.6497C221.063 70.4425 220.508 70.422 219.891 70.5882C219.298 70.7477 218.841 71.0319 218.518 71.4409C218.195 71.8457 218.002 72.3433 217.94 72.9336C217.877 73.5198 217.941 74.1668 218.132 74.8746ZM232.596 76.2765C231.682 76.5224 230.84 76.5329 230.069 76.308C229.301 76.0778 228.64 75.6468 228.086 75.0148C227.535 74.3777 227.128 73.5735 226.867 72.6024C226.606 71.6313 226.552 70.7278 226.707 69.8918C226.864 69.0507 227.206 68.3364 227.732 67.7491C228.261 67.1566 228.953 66.7451 229.809 66.5147C230.303 66.3818 230.813 66.3328 231.338 66.3678C231.864 66.4028 232.374 66.5523 232.869 66.8163C233.363 67.0762 233.808 67.477 234.206 68.0187C234.603 68.5605 234.921 69.2737 235.159 70.1584L235.325 70.7756L228.017 72.743L227.678 71.4838L233.505 69.9153C233.361 69.3803 233.125 68.9318 232.798 68.5697C232.475 68.2065 232.086 67.9561 231.63 67.8185C231.177 67.6799 230.688 67.6815 230.161 67.8233C229.581 67.9795 229.118 68.2586 228.772 68.6608C228.428 69.0577 228.205 69.515 228.102 70.0326C227.998 70.5503 228.017 71.0705 228.158 71.593L228.384 72.4325C228.576 73.1485 228.863 73.7222 229.244 74.1536C229.628 74.5798 230.077 74.8627 230.591 75.0023C231.104 75.1378 231.655 75.1263 232.244 74.9679C232.626 74.8649 232.957 74.7184 233.237 74.5283C233.52 74.333 233.745 74.0959 233.913 73.8168C234.079 73.5337 234.18 73.2109 234.215 72.8485L235.729 72.8647C235.709 73.3819 235.573 73.8686 235.321 74.3249C235.067 74.7771 234.711 75.1732 234.25 75.5133C233.789 75.8493 233.238 76.1037 232.596 76.2765ZM243.574 67.3105L243.939 68.6685L238.705 70.0775L238.339 68.7196L243.574 67.3105ZM237.588 64.5528L240.141 74.0335L238.684 74.4256L236.132 64.945L237.588 64.5528ZM243.588 62.9377L246.14 72.4184L244.684 72.8105L242.131 63.3299L243.588 62.9377ZM248.519 74.6905L247.423 70.6168L248.213 70.4041C248.352 70.1504 248.46 69.8875 248.537 69.6153C248.613 69.3431 248.66 69.0326 248.676 68.684C248.696 68.3301 248.68 67.9107 248.629 67.4258C248.577 66.9368 248.49 66.3532 248.369 65.6752L247.68 61.8361L253.704 60.2143L255.891 68.3371L257.348 67.9449L258.444 72.0187L256.988 72.4108L256.257 69.695L249.245 71.5826L249.976 74.2984L248.519 74.6905ZM249.867 69.9588L254.434 68.7292L252.613 61.9644L249.404 62.8284L249.801 65.2897C249.966 66.3091 250.071 67.2096 250.118 67.9913C250.165 68.773 250.082 69.4288 249.867 69.9588Z" fill="black"/>
<defs>
<filter id="filter0_d_67_1627" x="18.1351" y="9.8419" width="277.991" height="159.179" filterUnits="userSpaceOnUse" color-interpolation-filters="sRGB">
<feFlood flood-opacity="0" result="BackgroundImageFix"/>
<feColorMatrix in="SourceAlpha" type="matrix" values="0 0 0 0 0 0 0 0 0 0 0 0 0 0 0 0 0 0 127 0" result="hardAlpha"/>
<feOffset dx="2.11025" dy="4.22049"/>
<feGaussianBlur stdDeviation="3.16537"/>
<feComposite in2="hardAlpha" operator="out"/>
<feColorMatrix type="matrix" values="0 0 0 0 0 0 0 0 0 0 0 0 0 0 0 0 0 0 0.25 0"/>
<feBlend mode="normal" in2="BackgroundImageFix" result="effect1_dropShadow_67_1627"/>
<feBlend mode="normal" in="SourceGraphic" in2="effect1_dropShadow_67_1627" result="shape"/>
</filter>
</defs>
</svg>
