<svg width="215" height="99" viewBox="0 0 215 99" fill="none" xmlns="http://www.w3.org/2000/svg">
<path d="M84.1879 25.9184C81.6357 25.0533 79.2259 23.7736 77.2865 21.8827C77.0948 21.6958 77.3594 21.334 77.5797 21.5014L84.1879 25.9184ZM84.1879 25.9184C84.5168 26.0301 84.6392 25.519 84.321 25.4005L84.1879 25.9184ZM84.3354 25.4852L84.3352 25.4852L84.3354 25.4852Z" fill="black" stroke="black" stroke-width="0.915324"/>
<mask id="path-2-inside-1_67_1115" fill="white">
<path d="M101.332 10.843C100.905 7.62223 101.133 4.43417 101.887 1.27672C101.956 0.98614 101.525 0.876901 101.438 1.16158C100.461 4.35542 100.309 7.61886 100.823 10.913C100.867 11.2006 101.371 11.1348 101.332 10.843Z"/>
</mask>
<path d="M101.332 10.843C100.905 7.62223 101.133 4.43417 101.887 1.27672C101.956 0.98614 101.525 0.876901 101.438 1.16158C100.461 4.35542 100.309 7.61886 100.823 10.913C100.867 11.2006 101.371 11.1348 101.332 10.843Z" fill="black"/>
<path d="M101.332 10.843L100.424 10.9637L100.424 10.9642L101.332 10.843ZM101.887 1.27672L100.996 1.06447L100.996 1.06484L101.887 1.27672ZM101.438 1.16158L102.314 1.42857L102.314 1.42833L101.438 1.16158ZM100.823 10.913L101.727 10.7721L101.727 10.7718L100.823 10.913ZM102.24 10.7223C101.829 7.62459 102.047 4.54971 102.778 1.4886L100.996 1.06484C100.219 4.31863 99.9804 7.61986 100.424 10.9637L102.24 10.7223ZM102.777 1.48897C102.852 1.177 102.799 0.848303 102.613 0.578166C102.44 0.325753 102.189 0.178391 101.948 0.116852C101.46 -0.00748061 100.776 0.195467 100.562 0.894835L102.314 1.42833C102.263 1.5927 102.14 1.75086 101.957 1.84026C101.792 1.92097 101.626 1.92357 101.494 1.89001C101.363 1.85651 101.212 1.77315 101.103 1.61405C100.982 1.43723 100.956 1.23115 100.996 1.06447L102.777 1.48897ZM100.562 0.894592C99.5406 4.23486 99.3857 7.63913 99.9178 11.0542L101.727 10.7718C101.233 7.5986 101.382 4.47599 102.314 1.42857L100.562 0.894592ZM99.9177 11.0539C99.9748 11.421 100.196 11.704 100.477 11.862C100.733 12.0057 101.006 12.0321 101.23 12.0021C101.453 11.9721 101.714 11.8742 101.925 11.6619C102.158 11.4269 102.289 11.0886 102.24 10.7217L100.424 10.9642C100.395 10.7433 100.477 10.5226 100.625 10.373C100.751 10.2461 100.891 10.2014 100.987 10.1884C101.084 10.1754 101.226 10.1826 101.376 10.2669C101.551 10.3654 101.693 10.5488 101.727 10.7721L99.9177 11.0539Z" fill="black" mask="url(#path-2-inside-1_67_1115)"/>
<mask id="path-4-inside-2_67_1115" fill="white">
<path d="M122.802 6.31757C122.99 6.06211 122.558 5.72737 122.355 5.97509C120.832 7.83442 119.628 9.87574 118.634 12.061C118.489 12.3795 118.958 12.6571 119.112 12.3349C120.138 10.1987 121.398 8.22401 122.802 6.31757Z"/>
</mask>
<path d="M122.802 6.31757C122.99 6.06211 122.558 5.72737 122.355 5.97509C120.832 7.83442 119.628 9.87574 118.634 12.061C118.489 12.3795 118.958 12.6571 119.112 12.3349C120.138 10.1987 121.398 8.22401 122.802 6.31757Z" fill="black"/>
<path d="M122.802 6.31757L122.064 5.77539L122.064 5.77569L122.802 6.31757ZM122.355 5.97509L121.646 5.39579L121.646 5.39587L122.355 5.97509ZM118.634 12.061L119.467 12.4396L119.467 12.4393L118.634 12.061ZM119.112 12.3349L118.287 11.9395L118.287 11.9396L119.112 12.3349ZM123.539 6.85975C123.761 6.55841 123.809 6.19871 123.723 5.8815C123.645 5.59228 123.468 5.37436 123.284 5.23294C123.1 5.0914 122.844 4.9757 122.544 4.97326C122.216 4.97059 121.882 5.10816 121.646 5.39579L123.063 6.5544C122.929 6.71817 122.725 6.80468 122.529 6.80309C122.361 6.80173 122.239 6.73922 122.165 6.68234C122.092 6.62557 122 6.52375 121.956 6.36139C121.904 6.17106 121.936 5.949 122.064 5.77539L123.539 6.85975ZM121.646 5.39587C120.064 7.32721 118.821 9.43915 117.8 11.6828L119.467 12.4393C120.435 10.3123 121.599 8.34163 123.063 6.55432L121.646 5.39587ZM117.8 11.6825C117.488 12.3674 117.875 12.9821 118.299 13.2289C118.518 13.3563 118.822 13.4399 119.153 13.3654C119.514 13.284 119.789 13.0398 119.938 12.7303L118.287 11.9396C118.358 11.7912 118.517 11.6331 118.751 11.5803C118.955 11.5344 119.121 11.5891 119.222 11.6475C119.409 11.7565 119.634 12.0731 119.467 12.4396L117.8 11.6825ZM119.938 12.7303C120.932 10.6593 122.159 8.73408 123.539 6.85945L122.064 5.77569C120.637 7.71393 119.344 9.73808 118.287 11.9395L119.938 12.7303Z" fill="black" mask="url(#path-4-inside-2_67_1115)"/>
<mask id="path-6-inside-3_67_1115" fill="white">
<path d="M136.059 17.2724C133.454 18.1947 131.175 19.9309 129.206 21.8351C128.922 22.1105 129.347 22.5328 129.638 22.2695C131.67 20.4296 133.915 19.1479 136.277 17.7975C136.552 17.6401 136.373 17.1611 136.059 17.2724Z"/>
</mask>
<path d="M136.059 17.2724C133.454 18.1947 131.175 19.9309 129.206 21.8351C128.922 22.1105 129.347 22.5328 129.638 22.2695C131.67 20.4296 133.915 19.1479 136.277 17.7975C136.552 17.6401 136.373 17.1611 136.059 17.2724Z" fill="black"/>
<path d="M136.059 17.2724L136.364 18.1348L136.364 18.1347L136.059 17.2724ZM129.206 21.8351L129.843 22.4925L129.843 22.4923L129.206 21.8351ZM129.638 22.2695L129.023 21.5916L129.023 21.5919L129.638 22.2695ZM136.277 17.7975L136.731 18.5916L136.731 18.5915L136.277 17.7975ZM135.753 16.41C132.974 17.3944 130.583 19.23 128.57 21.1779L129.843 22.4923C131.767 20.6317 133.935 18.9949 136.364 18.1348L135.753 16.41ZM128.57 21.1778C128.317 21.4218 128.178 21.7557 128.199 22.1108C128.218 22.441 128.372 22.7143 128.559 22.9014C128.93 23.2725 129.667 23.4784 130.253 22.9471L129.023 21.5919C129.138 21.4876 129.309 21.4239 129.491 21.4402C129.651 21.4546 129.774 21.5267 129.854 21.6072C129.934 21.6872 130.016 21.8198 130.027 22.0015C130.039 22.2082 129.953 22.3861 129.843 22.4925L128.57 21.1778ZM130.253 22.9474C132.2 21.1848 134.357 19.9492 136.731 18.5916L135.822 17.0035C133.473 18.3466 131.141 19.6744 129.023 21.5916L130.253 22.9474ZM136.731 18.5915C137.374 18.2236 137.406 17.5158 137.24 17.0975C137.152 16.8738 136.982 16.6385 136.712 16.487C136.419 16.3233 136.074 16.2964 135.753 16.4101L136.364 18.1347C136.2 18.1928 135.995 18.184 135.816 18.0837C135.659 17.9956 135.576 17.869 135.537 17.7709C135.471 17.6035 135.454 17.214 135.822 17.0035L136.731 18.5915Z" fill="black" mask="url(#path-6-inside-3_67_1115)"/>
<mask id="path-8-inside-4_67_1115" fill="white">
<path d="M17.9132 89.5422C16.6617 90.6411 15.5499 91.8993 14.4049 93.1064C14.135 93.3912 14.5781 93.7936 14.8527 93.5167C16.0233 92.3354 17.2469 91.1857 18.3052 89.9017C18.5272 89.6325 18.1669 89.319 17.9132 89.5422Z"/>
</mask>
<path d="M17.9132 89.5422C16.6617 90.6411 15.5499 91.8993 14.4049 93.1064C14.135 93.3912 14.5781 93.7936 14.8527 93.5167C16.0233 92.3354 17.2469 91.1857 18.3052 89.9017C18.5272 89.6325 18.1669 89.319 17.9132 89.5422Z" fill="black"/>
<path d="M17.9132 89.5422L18.5172 90.23L18.5176 90.2296L17.9132 89.5422ZM14.4049 93.1064L13.7408 92.4764L13.7405 92.4767L14.4049 93.1064ZM14.8527 93.5167L15.5027 94.1612L15.5028 94.161L14.8527 93.5167ZM18.3052 89.9017L17.599 89.3193L17.5989 89.3195L18.3052 89.9017ZM17.3092 88.8543C16.0161 89.9898 14.8555 91.3012 13.7408 92.4764L15.069 93.7363C16.2442 92.4974 17.3073 91.2923 18.5172 90.23L17.3092 88.8543ZM13.7405 92.4767C13.4981 92.7325 13.3744 93.0734 13.4123 93.4271C13.4475 93.7553 13.6129 94.0206 13.8077 94.1983C14.1943 94.551 14.9423 94.7264 15.5027 94.1612L14.2027 92.8722C14.3132 92.7607 14.4833 92.6871 14.6678 92.695C14.8309 92.7019 14.9574 92.7693 15.0415 92.846C15.125 92.9222 15.2131 93.0507 15.2325 93.2321C15.2547 93.4389 15.1767 93.6227 15.0693 93.736L13.7405 92.4767ZM15.5028 94.161C16.6423 93.0112 17.9179 91.8108 19.0116 90.4839L17.5989 89.3195C16.5759 90.5606 15.4044 91.6596 14.2025 92.8724L15.5028 94.161ZM19.0114 90.4841C19.2078 90.2459 19.3176 89.9369 19.2838 89.6075C19.2516 89.2928 19.0959 89.0324 18.8979 88.8552C18.4948 88.4945 17.8188 88.4063 17.3087 88.8547L18.5176 90.2296C18.2613 90.4549 17.8923 90.4118 17.6773 90.2195C17.5733 90.1264 17.4819 89.9809 17.4627 89.7937C17.442 89.5918 17.5136 89.4229 17.599 89.3193L19.0114 90.4841Z" fill="black" mask="url(#path-8-inside-4_67_1115)"/>
<mask id="path-10-inside-5_67_1115" fill="white">
<path d="M163.718 89.0432C162.466 90.1421 161.355 91.4003 160.21 92.6074C159.94 92.8922 160.383 93.2947 160.657 93.0177C161.828 91.8365 163.052 90.6867 164.11 89.4027C164.332 89.1336 163.972 88.8201 163.718 89.0432Z"/>
</mask>
<path d="M163.718 89.0432C162.466 90.1421 161.355 91.4003 160.21 92.6074C159.94 92.8922 160.383 93.2947 160.657 93.0177C161.828 91.8365 163.052 90.6867 164.11 89.4027C164.332 89.1336 163.972 88.8201 163.718 89.0432Z" fill="black"/>
<path d="M163.718 89.0432L164.322 89.731L164.322 89.7306L163.718 89.0432ZM160.21 92.6074L159.545 91.9775L159.545 91.9778L160.21 92.6074ZM160.657 93.0177L161.307 93.6623L161.308 93.6621L160.657 93.0177ZM164.11 89.4027L163.404 88.8203L163.404 88.8205L164.11 89.4027ZM163.114 88.3554C161.821 89.4908 160.66 90.8023 159.545 91.9775L160.874 93.2374C162.049 91.9984 163.112 90.7934 164.322 89.731L163.114 88.3554ZM159.545 91.9778C159.303 92.2335 159.179 92.5744 159.217 92.9281C159.252 93.2564 159.418 93.5216 159.612 93.6994C159.999 94.052 160.747 94.2274 161.307 93.6623L160.007 92.3732C160.118 92.2617 160.288 92.1881 160.473 92.196C160.636 92.203 160.762 92.2704 160.846 92.3471C160.93 92.4232 161.018 92.5518 161.037 92.7331C161.059 92.9399 160.981 93.1237 160.874 93.2371L159.545 91.9778ZM161.308 93.6621C162.447 92.5123 163.723 91.3118 164.816 89.9849L163.404 88.8205C162.381 90.0616 161.209 91.1607 160.007 92.3734L161.308 93.6621ZM164.816 89.9851C165.012 89.747 165.122 89.4379 165.089 89.1085C165.056 88.7938 164.901 88.5334 164.703 88.3562C164.299 87.9956 163.623 87.9073 163.113 88.3558L164.322 89.7306C164.066 89.9559 163.697 89.9129 163.482 89.7205C163.378 89.6274 163.287 89.4819 163.267 89.2947C163.247 89.0928 163.318 88.9239 163.404 88.8203L164.816 89.9851Z" fill="black" mask="url(#path-10-inside-5_67_1115)"/>
<mask id="path-12-inside-6_67_1115" fill="white">
<path d="M57.7032 91.7805C56.4517 92.8794 55.3399 94.1377 54.1949 95.3447C53.925 95.6295 54.3681 96.032 54.6427 95.755C55.8134 94.5738 57.0369 93.424 58.0952 92.14C58.3172 91.8709 57.957 91.5574 57.7032 91.7805Z"/>
</mask>
<path d="M57.7032 91.7805C56.4517 92.8794 55.3399 94.1377 54.1949 95.3447C53.925 95.6295 54.3681 96.032 54.6427 95.755C55.8134 94.5738 57.0369 93.424 58.0952 92.14C58.3172 91.8709 57.957 91.5574 57.7032 91.7805Z" fill="black"/>
<path d="M57.7032 91.7805L58.3072 92.4683L58.3077 92.4679L57.7032 91.7805ZM54.1949 95.3447L53.5308 94.7148L53.5305 94.7151L54.1949 95.3447ZM54.6427 95.755L55.2927 96.3996L55.2929 96.3994L54.6427 95.755ZM58.0952 92.14L57.389 91.5577L57.3889 91.5578L58.0952 92.14ZM57.0992 91.0927C55.8061 92.2281 54.6456 93.5396 53.5308 94.7148L54.8591 95.9747C56.0343 94.7357 57.0973 93.5307 58.3072 92.4683L57.0992 91.0927ZM53.5305 94.7151C53.2882 94.9708 53.1644 95.3117 53.2023 95.6654C53.2375 95.9937 53.4029 96.2589 53.5977 96.4367C53.9843 96.7893 54.7323 96.9647 55.2927 96.3996L53.9927 95.1105C54.1033 94.999 54.2733 94.9254 54.4579 94.9333C54.6209 94.9403 54.7475 95.0077 54.8315 95.0844C54.915 95.1605 55.0031 95.2891 55.0225 95.4704C55.0447 95.6772 54.9668 95.861 54.8594 95.9744L53.5305 94.7151ZM55.2929 96.3994C56.4324 95.2496 57.7079 94.0491 58.8016 92.7222L57.3889 91.5578C56.3659 92.7989 55.1944 93.898 53.9925 95.1107L55.2929 96.3994ZM58.8015 92.7224C58.9978 92.4843 59.1076 92.1752 59.0739 91.8458C59.0417 91.5311 58.886 91.2707 58.6879 91.0935C58.2848 90.7329 57.6088 90.6446 57.0988 91.0931L58.3077 92.4679C58.0514 92.6933 57.6824 92.6502 57.4673 92.4578C57.3633 92.3647 57.2719 92.2192 57.2527 92.032C57.2321 91.8301 57.3037 91.6612 57.389 91.5577L58.8015 92.7224Z" fill="black" mask="url(#path-12-inside-6_67_1115)"/>
<path d="M200.332 95.1596L200 94.8447L200.332 95.1597C200.332 95.1597 200.332 95.1596 200.332 95.1596ZM203.547 91.3488L203.547 91.3489L203.547 91.3488Z" fill="black" stroke="black" stroke-width="0.915324"/>
<mask id="path-15-inside-7_67_1115" fill="white">
<path d="M78.3041 74.2326C77.0525 75.3315 75.9407 76.5898 74.7958 77.7968C74.5259 78.0816 74.969 78.4841 75.2435 78.2072C76.4142 77.0259 77.6378 75.8761 78.6961 74.5921C78.918 74.323 78.5578 74.0095 78.3041 74.2326Z"/>
</mask>
<path d="M78.3041 74.2326C77.0525 75.3315 75.9407 76.5898 74.7958 77.7968C74.5259 78.0816 74.969 78.4841 75.2435 78.2072C76.4142 77.0259 77.6378 75.8761 78.6961 74.5921C78.918 74.323 78.5578 74.0095 78.3041 74.2326Z" fill="black"/>
<path d="M78.3041 74.2326L78.908 74.9204L78.9085 74.92L78.3041 74.2326ZM74.7958 77.7968L74.1317 77.1669L74.1314 77.1672L74.7958 77.7968ZM75.2435 78.2072L75.8935 78.8517L75.8937 78.8515L75.2435 78.2072ZM78.6961 74.5921L77.9899 74.0098L77.9897 74.0099L78.6961 74.5921ZM77.7001 73.5448C76.407 74.6802 75.2464 75.9917 74.1317 77.1669L75.4599 78.4268C76.6351 77.1879 77.6981 75.9828 78.908 74.9204L77.7001 73.5448ZM74.1314 77.1672C73.889 77.4229 73.7652 77.7638 73.8031 78.1175C73.8383 78.4458 74.0037 78.711 74.1986 78.8888C74.5851 79.2415 75.3332 79.4168 75.8935 78.8517L74.5935 77.5626C74.7041 77.4511 74.8741 77.3776 75.0587 77.3854C75.2218 77.3924 75.3483 77.4598 75.4324 77.5365C75.5158 77.6127 75.6039 77.7412 75.6234 77.9226C75.6455 78.1293 75.5676 78.3131 75.4602 78.4265L74.1314 77.1672ZM75.8937 78.8515C77.0332 77.7017 78.3088 76.5012 79.4024 75.1744L77.9897 74.0099C76.9668 75.251 75.7952 76.3501 74.5934 77.5628L75.8937 78.8515ZM79.4023 75.1745C79.5986 74.9364 79.7084 74.6273 79.6747 74.298C79.6425 73.9832 79.4868 73.7229 79.2887 73.5457C78.8856 73.185 78.2096 73.0968 77.6996 73.5452L78.9085 74.92C78.6522 75.1454 78.2832 75.1023 78.0682 74.9099C77.9641 74.8168 77.8727 74.6713 77.8536 74.4841C77.8329 74.2823 77.9045 74.1133 77.9899 74.0098L79.4023 75.1745Z" fill="black" mask="url(#path-15-inside-7_67_1115)"/>
<mask id="path-17-inside-8_67_1115" fill="white">
<path d="M115.264 91.6266C114.013 92.7255 112.901 93.9838 111.756 95.1908C111.486 95.4757 111.929 95.8781 112.204 95.6012C113.374 94.4199 114.598 93.2702 115.656 91.9862C115.878 91.717 115.518 91.4035 115.264 91.6266Z"/>
</mask>
<path d="M115.264 91.6266C114.013 92.7255 112.901 93.9838 111.756 95.1908C111.486 95.4757 111.929 95.8781 112.204 95.6012C113.374 94.4199 114.598 93.2702 115.656 91.9862C115.878 91.717 115.518 91.4035 115.264 91.6266Z" fill="black"/>
<path d="M115.264 91.6266L115.868 92.3145L115.869 92.314L115.264 91.6266ZM111.756 95.1908L111.092 94.5609L111.092 94.5612L111.756 95.1908ZM112.204 95.6012L112.854 96.2457L112.854 96.2455L112.204 95.6012ZM115.656 91.9862L114.95 91.4038L114.95 91.404L115.656 91.9862ZM114.66 90.9388C113.367 92.0742 112.207 93.3857 111.092 94.5609L112.42 95.8208C113.595 94.5819 114.658 93.3768 115.868 92.3145L114.66 90.9388ZM111.092 94.5612C110.849 94.8169 110.725 95.1578 110.763 95.5115C110.799 95.8398 110.964 96.105 111.159 96.2828C111.545 96.6355 112.293 96.8108 112.854 96.2457L111.554 94.9567C111.664 94.8452 111.834 94.7716 112.019 94.7794C112.182 94.7864 112.309 94.8538 112.393 94.9305C112.476 95.0067 112.564 95.1352 112.584 95.3166C112.606 95.5234 112.528 95.7072 112.42 95.8205L111.092 94.5612ZM112.854 96.2455C113.993 95.0957 115.269 93.8953 116.363 92.5684L114.95 91.404C113.927 92.6451 112.755 93.7441 111.554 94.9568L112.854 96.2455ZM116.362 92.5685C116.559 92.3304 116.669 92.0214 116.635 91.692C116.603 91.3773 116.447 91.1169 116.249 90.9397C115.846 90.579 115.17 90.4908 114.66 90.9392L115.869 92.314C115.612 92.5394 115.243 92.4963 115.028 92.3039C114.924 92.2108 114.833 92.0654 114.814 91.8782C114.793 91.6763 114.865 91.5073 114.95 91.4038L116.362 92.5685Z" fill="black" mask="url(#path-17-inside-8_67_1115)"/>
<mask id="path-19-inside-9_67_1115" fill="white">
<path d="M118.606 76.2131C117.354 77.312 116.243 78.5702 115.098 79.7773C114.828 80.0621 115.271 80.4645 115.545 80.1876C116.716 79.0063 117.94 77.8566 118.998 76.5726C119.22 76.3034 118.86 75.9899 118.606 76.2131Z"/>
</mask>
<path d="M118.606 76.2131C117.354 77.312 116.243 78.5702 115.098 79.7773C114.828 80.0621 115.271 80.4645 115.545 80.1876C116.716 79.0063 117.94 77.8566 118.998 76.5726C119.22 76.3034 118.86 75.9899 118.606 76.2131Z" fill="black"/>
<path d="M118.606 76.2131L119.21 76.9009L119.21 76.9005L118.606 76.2131ZM115.098 79.7773L114.433 79.1473L114.433 79.1476L115.098 79.7773ZM115.545 80.1876L116.195 80.8321L116.195 80.8319L115.545 80.1876ZM118.998 76.5726L118.292 75.9902L118.291 75.9904L118.998 76.5726ZM118.002 75.5252C116.709 76.6607 115.548 77.9721 114.433 79.1473L115.762 80.4072C116.937 79.1683 118 77.9632 119.21 76.9009L118.002 75.5252ZM114.433 79.1476C114.191 79.4034 114.067 79.7443 114.105 80.098C114.14 80.4262 114.306 80.6915 114.5 80.8692C114.887 81.2219 115.635 81.3973 116.195 80.8321L114.895 79.5431C115.006 79.4316 115.176 79.358 115.36 79.3659C115.524 79.3728 115.65 79.4402 115.734 79.5169C115.818 79.5931 115.906 79.7216 115.925 79.903C115.947 80.1098 115.869 80.2936 115.762 80.4069L114.433 79.1476ZM116.195 80.8319C117.335 79.6821 118.611 78.4817 119.704 77.1548L118.291 75.9904C117.269 77.2315 116.097 78.3305 114.895 79.5433L116.195 80.8319ZM119.704 77.155C119.9 76.9168 120.01 76.6078 119.976 76.2784C119.944 75.9637 119.789 75.7033 119.59 75.5261C119.187 75.1654 118.511 75.0772 118.001 75.5256L119.21 76.9005C118.954 77.1258 118.585 77.0827 118.37 76.8903C118.266 76.7973 118.174 76.6518 118.155 76.4646C118.135 76.2627 118.206 76.0938 118.292 75.9902L119.704 77.155Z" fill="black" mask="url(#path-19-inside-9_67_1115)"/>
<path d="M23.5043 72.7249L23.5042 72.7249L23.5043 72.7249Z" fill="black" stroke="black" stroke-width="0.915324"/>
<path d="M158.158 72.263L158.158 72.2631L158.158 72.263Z" fill="black" stroke="black" stroke-width="0.915324"/>
<mask id="path-23-inside-10_67_1115" fill="white">
<path d="M40.9703 74.9627C39.4911 75.729 38.1092 76.6836 36.7074 77.5805C36.3769 77.7922 36.7102 78.2892 37.0434 78.0863C38.4639 77.2206 39.9282 76.3982 41.2643 75.4058C41.5445 75.1978 41.2703 74.807 40.9703 74.9627Z"/>
</mask>
<path d="M40.9703 74.9627C39.4911 75.729 38.1092 76.6836 36.7074 77.5805C36.3769 77.7922 36.7102 78.2892 37.0434 78.0863C38.4639 77.2206 39.9282 76.3982 41.2643 75.4058C41.5445 75.1978 41.2703 74.807 40.9703 74.9627Z" fill="black"/>
<path d="M40.9703 74.9627L41.3912 75.7753L41.3917 75.775L40.9703 74.9627ZM36.7074 77.5805L36.2142 76.8096L36.2139 76.8099L36.7074 77.5805ZM37.0434 78.0863L37.5193 78.8679L37.5196 78.8677L37.0434 78.0863ZM41.2643 75.4058L40.7189 74.671L40.7187 74.6712L41.2643 75.4058ZM40.5494 74.1501C39.021 74.9419 37.579 75.9364 36.2142 76.8096L37.2006 78.3513C38.6394 77.4308 39.9612 76.5162 41.3912 75.7753L40.5494 74.1501ZM36.2139 76.8099C35.9171 76.9999 35.715 77.3011 35.6667 77.6535C35.6219 77.9806 35.7187 78.2777 35.865 78.4971C36.1554 78.9322 36.8394 79.282 37.5193 78.8679L36.5674 77.3047C36.7015 77.223 36.8843 77.1923 37.0616 77.2443C37.2183 77.2902 37.3249 77.386 37.388 77.4806C37.4507 77.5746 37.5053 77.7205 37.4806 77.9012C37.4524 78.1072 37.3325 78.2669 37.201 78.3511L36.2139 76.8099ZM37.5196 78.8677C38.9023 78.0251 40.4292 77.166 41.81 76.1405L40.7187 74.6712C39.4271 75.6304 38.0255 76.416 36.5672 77.3048L37.5196 78.8677ZM41.8098 76.1406C42.0577 75.9566 42.2386 75.6829 42.2851 75.3551C42.3296 75.0419 42.2411 74.7518 42.0914 74.5323C41.7869 74.0854 41.1518 73.8375 40.5489 74.1504L41.3917 75.775C41.0887 75.9323 40.7408 75.8019 40.5784 75.5635C40.4998 75.4482 40.446 75.285 40.4725 75.0987C40.501 74.8978 40.6111 74.751 40.7189 74.671L41.8098 76.1406Z" fill="black" mask="url(#path-23-inside-10_67_1115)"/>
<path d="M186.796 74.5394L186.796 74.5395L186.796 74.5394Z" fill="black" stroke="black" stroke-width="0.915324"/>
<mask id="path-26-inside-11_67_1115" fill="white">
<path d="M72.7222 57.3773C71.2431 58.1436 69.8612 59.0981 68.4594 59.995C68.1289 60.2067 68.4622 60.7037 68.7953 60.5008C70.2159 59.6351 71.6801 58.8127 73.0163 57.8204C73.2965 57.6124 73.0222 57.2216 72.7222 57.3773Z"/>
</mask>
<path d="M72.7222 57.3773C71.2431 58.1436 69.8612 59.0981 68.4594 59.995C68.1289 60.2067 68.4622 60.7037 68.7953 60.5008C70.2159 59.6351 71.6801 58.8127 73.0163 57.8204C73.2965 57.6124 73.0222 57.2216 72.7222 57.3773Z" fill="black"/>
<path d="M72.7222 57.3773L73.1431 58.1899L73.1437 58.1896L72.7222 57.3773ZM68.4594 59.995L67.9662 59.2242L67.9658 59.2244L68.4594 59.995ZM68.7953 60.5008L69.2713 61.2824L69.2715 61.2823L68.7953 60.5008ZM73.0163 57.8204L72.4708 57.0856L72.4706 57.0857L73.0163 57.8204ZM72.3014 56.5647C70.773 57.3565 69.331 58.351 67.9662 59.2242L68.9526 60.7659C70.3914 59.8453 71.7131 58.9307 73.1431 58.1899L72.3014 56.5647ZM67.9658 59.2244C67.6691 59.4145 67.4669 59.7157 67.4187 60.0681C67.3739 60.3951 67.4706 60.6923 67.617 60.9116C67.9074 61.3467 68.5914 61.6965 69.2713 61.2824L68.3193 59.7192C68.4535 59.6375 68.6363 59.6069 68.8136 59.6588C68.9702 59.7047 69.0768 59.8006 69.14 59.8952C69.2027 59.9891 69.2573 60.135 69.2325 60.3157C69.2043 60.5217 69.0845 60.6814 68.9529 60.7657L67.9658 59.2244ZM69.2715 61.2823C70.6542 60.4396 72.1812 59.5805 73.562 58.555L72.4706 57.0857C71.1791 58.0449 69.7775 58.8306 68.3191 59.7193L69.2715 61.2823ZM73.5618 58.5551C73.8097 58.3711 73.9906 58.0975 74.0371 57.7697C74.0815 57.4565 73.993 57.1664 73.8434 56.9468C73.5388 56.5 72.9038 56.252 72.3008 56.565L73.1437 58.1896C72.8407 58.3468 72.4928 58.2164 72.3303 57.978C72.2517 57.8627 72.198 57.6996 72.2244 57.5133C72.2529 57.3124 72.363 57.1656 72.4708 57.0856L73.5618 58.5551Z" fill="black" mask="url(#path-26-inside-11_67_1115)"/>
<path d="M113.046 59.4333L113.046 59.4334L113.046 59.4333Z" fill="black" stroke="black" stroke-width="0.915324"/>
<path d="M18.8915 52.0858L18.8914 52.0858L18.8915 52.0858Z" fill="black" stroke="black" stroke-width="0.915324"/>
<path d="M153.545 51.6238L153.545 51.6239L153.545 51.6238Z" fill="black" stroke="black" stroke-width="0.915324"/>
<mask id="path-31-inside-12_67_1115" fill="white">
<path d="M16.4888 86.7645C14.7014 87.9494 13.0546 89.3716 11.3773 90.7199C10.9818 91.038 11.4491 91.6556 11.8488 91.3487C13.5527 90.0394 15.3159 88.7822 16.9015 87.3155C17.234 87.008 16.8512 86.5239 16.4888 86.7645Z"/>
</mask>
<path d="M16.4888 86.7645C14.7014 87.9494 13.0546 89.3716 11.3773 90.7199C10.9818 91.038 11.4491 91.6556 11.8488 91.3487C13.5527 90.0394 15.3159 88.7822 16.9015 87.3155C17.234 87.008 16.8512 86.5239 16.4888 86.7645Z" fill="black"/>
<path d="M16.4888 86.7645L16.9944 87.5274L16.9949 87.527L16.4888 86.7645ZM11.3773 90.7199L10.8039 90.0065L10.8035 90.0068L11.3773 90.7199ZM11.8488 91.3487L12.4062 92.0746L12.4064 92.0744L11.8488 91.3487ZM16.9015 87.3155L16.2802 86.6435L16.28 86.6437L16.9015 87.3155ZM15.9831 86.0017C14.1494 87.2174 12.4468 88.6859 10.8039 90.0065L11.9507 91.4332C13.6625 90.0572 15.2535 88.6815 16.9944 87.5274L15.9831 86.0017ZM10.8035 90.0068C10.5072 90.2452 10.3346 90.5818 10.314 90.9439C10.2947 91.2838 10.4113 91.5907 10.5837 91.8195C10.7556 92.0477 11.0215 92.2488 11.3625 92.3204C11.728 92.3972 12.1028 92.3076 12.4062 92.0746L11.2914 90.6228C11.3949 90.5433 11.5614 90.4915 11.7393 90.5289C11.8927 90.5611 11.9915 90.6455 12.0461 90.7179C12.101 90.7908 12.15 90.9029 12.1418 91.0471C12.1323 91.2136 12.0496 91.3536 11.951 91.4329L10.8035 90.0068ZM12.4064 92.0744C14.0753 90.792 15.8967 89.4917 17.523 87.9873L16.28 86.6437C14.7351 88.0728 13.0302 89.2868 11.2912 90.623L12.4064 92.0744ZM17.5229 87.9874C18.0648 87.4864 18.0455 86.7501 17.6816 86.2766C17.3233 85.8104 16.6097 85.5857 15.9826 86.0021L16.9949 87.527C16.8941 87.594 16.7409 87.637 16.573 87.6034C16.4195 87.5726 16.3034 87.488 16.2299 87.3924C16.156 87.2962 16.1052 87.1631 16.1146 87.01C16.1248 86.8438 16.2021 86.7157 16.2802 86.6435L17.5229 87.9874Z" fill="black" mask="url(#path-31-inside-12_67_1115)"/>
<mask id="path-33-inside-13_67_1115" fill="white">
<path d="M162.293 86.2656C160.506 87.4505 158.859 88.8726 157.182 90.2209C156.786 90.5391 157.254 91.1566 157.653 90.8497C159.357 89.5405 161.12 88.2833 162.706 86.8165C163.038 86.5091 162.656 86.025 162.293 86.2656Z"/>
</mask>
<path d="M162.293 86.2656C160.506 87.4505 158.859 88.8726 157.182 90.2209C156.786 90.5391 157.254 91.1566 157.653 90.8497C159.357 89.5405 161.12 88.2833 162.706 86.8165C163.038 86.5091 162.656 86.025 162.293 86.2656Z" fill="black"/>
<path d="M162.293 86.2656L162.799 87.0284L162.799 87.0281L162.293 86.2656ZM157.182 90.2209L156.608 89.5076L156.608 89.5078L157.182 90.2209ZM157.653 90.8497L158.211 91.5756L158.211 91.5755L157.653 90.8497ZM162.706 86.8165L162.085 86.1446L162.084 86.1447L162.706 86.8165ZM161.788 85.5028C159.954 86.7184 158.251 88.187 156.608 89.5076L157.755 90.9342C159.467 89.5582 161.058 88.1825 162.799 87.0284L161.788 85.5028ZM156.608 89.5078C156.312 89.7463 156.139 90.0828 156.118 90.4449C156.099 90.7849 156.216 91.0917 156.388 91.3205C156.56 91.5487 156.826 91.7498 157.167 91.8214C157.532 91.8982 157.907 91.8086 158.211 91.5756L157.096 90.1239C157.199 90.0443 157.366 89.9926 157.544 90.03C157.697 90.0622 157.796 90.1465 157.851 90.2189C157.905 90.2919 157.954 90.4039 157.946 90.5482C157.937 90.7146 157.854 90.8546 157.755 90.9339L156.608 89.5078ZM158.211 91.5755C159.88 90.2931 161.701 88.9928 163.327 87.4883L162.084 86.1447C160.54 87.5738 158.835 88.7878 157.096 90.124L158.211 91.5755ZM163.327 87.4885C163.869 86.9874 163.85 86.2511 163.486 85.7777C163.128 85.3115 162.414 85.0868 161.787 85.5031L162.799 87.0281C162.699 87.095 162.545 87.138 162.377 87.1044C162.224 87.0737 162.108 86.989 162.034 86.8934C161.96 86.7972 161.91 86.6641 161.919 86.5111C161.929 86.3449 162.006 86.2168 162.085 86.1446L163.327 87.4885Z" fill="black" mask="url(#path-33-inside-13_67_1115)"/>
<mask id="path-35-inside-14_67_1115" fill="white">
<path d="M45.1284 89.0404C43.3411 90.2253 41.6943 91.6474 40.0169 92.9957C39.6215 93.3139 40.0888 93.9315 40.4884 93.6246C42.1924 92.3153 43.9556 91.0581 45.5412 89.5914C45.8737 89.2839 45.4909 88.7998 45.1284 89.0404Z"/>
</mask>
<path d="M45.1284 89.0404C43.3411 90.2253 41.6943 91.6474 40.0169 92.9957C39.6215 93.3139 40.0888 93.9315 40.4884 93.6246C42.1924 92.3153 43.9556 91.0581 45.5412 89.5914C45.8737 89.2839 45.4909 88.7998 45.1284 89.0404Z" fill="black"/>
<path d="M45.1284 89.0404L45.6341 89.8033L45.6346 89.8029L45.1284 89.0404ZM40.0169 92.9957L39.4435 92.2824L39.4432 92.2827L40.0169 92.9957ZM40.4884 93.6246L41.0458 94.3505L41.046 94.3503L40.4884 93.6246ZM45.5412 89.5914L44.9198 88.9194L44.9196 88.9196L45.5412 89.5914ZM44.6227 88.2776C42.789 89.4932 41.0864 90.9618 39.4435 92.2824L40.5903 93.7091C42.3021 92.3331 43.8931 90.9574 45.6341 89.8033L44.6227 88.2776ZM39.4432 92.2827C39.1469 92.5211 38.9742 92.8576 38.9537 93.2197C38.9344 93.5597 39.051 93.8666 39.2233 94.0953C39.3952 94.3236 39.6611 94.5246 40.0021 94.5963C40.3677 94.6731 40.7425 94.5834 41.0458 94.3505L39.931 92.8987C40.0346 92.8192 40.2011 92.7674 40.379 92.8048C40.5323 92.837 40.6312 92.9214 40.6857 92.9938C40.7407 93.0667 40.7896 93.1787 40.7814 93.323C40.772 93.4894 40.6892 93.6295 40.5906 93.7088L39.4432 92.2827ZM41.046 94.3503C42.715 93.0679 44.5364 91.7676 46.1627 90.2632L44.9196 88.9196C43.3748 90.3486 41.6698 91.5627 39.9308 92.8989L41.046 94.3503ZM46.1625 90.2633C46.7044 89.7623 46.6851 89.026 46.3212 88.5525C45.9629 88.0863 45.2493 87.8616 44.6222 88.2779L45.6346 89.8029C45.5338 89.8698 45.3805 89.9129 45.2126 89.8792C45.0591 89.8485 44.943 89.7638 44.8696 89.6682C44.7956 89.5721 44.7449 89.439 44.7543 89.2859C44.7645 89.1197 44.8417 88.9916 44.9198 88.9194L46.1625 90.2633Z" fill="black" mask="url(#path-35-inside-14_67_1115)"/>
<mask id="path-37-inside-15_67_1115" fill="white">
<path d="M190.933 88.541C189.146 89.7259 187.499 91.148 185.822 92.4963C185.426 92.8145 185.893 93.432 186.293 93.1251C187.997 91.8158 189.76 90.5587 191.346 89.0919C191.678 88.7845 191.296 88.3003 190.933 88.541Z"/>
</mask>
<path d="M190.933 88.541C189.146 89.7259 187.499 91.148 185.822 92.4963C185.426 92.8145 185.893 93.432 186.293 93.1251C187.997 91.8158 189.76 90.5587 191.346 89.0919C191.678 88.7845 191.296 88.3003 190.933 88.541Z" fill="black"/>
<path d="M190.933 88.541L191.439 89.3038L191.439 89.3035L190.933 88.541ZM185.822 92.4963L185.248 91.783L185.248 91.7832L185.822 92.4963ZM186.293 93.1251L186.851 93.851L186.851 93.8508L186.293 93.1251ZM191.346 89.0919L190.724 88.42L190.724 88.4201L191.346 89.0919ZM190.427 87.7781C188.594 88.9938 186.891 90.4623 185.248 91.783L186.395 93.2096C188.107 91.8336 189.698 90.4579 191.439 89.3038L190.427 87.7781ZM185.248 91.7832C184.952 92.0216 184.779 92.3582 184.758 92.7203C184.739 93.0602 184.856 93.3671 185.028 93.5959C185.2 93.8241 185.466 94.0252 185.807 94.0968C186.172 94.1736 186.547 94.084 186.851 93.851L185.736 92.3992C185.839 92.3197 186.006 92.268 186.184 92.3053C186.337 92.3375 186.436 92.4219 186.49 92.4943C186.545 92.5673 186.594 92.6793 186.586 92.8236C186.577 92.99 186.494 93.13 186.395 93.2093L185.248 91.7832ZM186.851 93.8508C188.52 92.5685 190.341 91.2681 191.967 89.7637L190.724 88.4201C189.179 89.8492 187.474 91.0632 185.735 92.3994L186.851 93.8508ZM191.967 89.7639C192.509 89.2628 192.49 88.5265 192.126 88.053C191.768 87.5869 191.054 87.3622 190.427 87.7785L191.439 89.3035C191.338 89.3704 191.185 89.4134 191.017 89.3798C190.864 89.3491 190.748 89.2644 190.674 89.1688C190.6 89.0726 190.55 88.9395 190.559 88.7865C190.569 88.6203 190.646 88.4922 190.724 88.42L191.967 89.7639Z" fill="black" mask="url(#path-37-inside-15_67_1115)"/>
<mask id="path-39-inside-16_67_1115" fill="white">
<path d="M76.8799 71.4545C75.0925 72.6394 73.4457 74.0615 71.7684 75.4098C71.3729 75.728 71.8403 76.3455 72.2399 76.0386C73.9439 74.7294 75.707 73.4722 77.2926 72.0054C77.6251 71.698 77.2423 71.2139 76.8799 71.4545Z"/>
</mask>
<path d="M76.8799 71.4545C75.0925 72.6394 73.4457 74.0615 71.7684 75.4098C71.3729 75.728 71.8403 76.3455 72.2399 76.0386C73.9439 74.7294 75.707 73.4722 77.2926 72.0054C77.6251 71.698 77.2423 71.2139 76.8799 71.4545Z" fill="black"/>
<path d="M76.8799 71.4545L77.3855 72.2173L77.386 72.217L76.8799 71.4545ZM71.7684 75.4098L71.195 74.6965L71.1947 74.6967L71.7684 75.4098ZM72.2399 76.0386L72.7973 76.7645L72.7975 76.7644L72.2399 76.0386ZM77.2926 72.0054L76.6713 71.3335L76.6711 71.3336L77.2926 72.0054ZM76.3742 70.6917C74.5405 71.9073 72.8379 73.3759 71.195 74.6965L72.3418 76.1231C74.0536 74.7471 75.6446 73.3714 77.3855 72.2173L76.3742 70.6917ZM71.1947 74.6967C70.8983 74.9352 70.7257 75.2717 70.7051 75.6338C70.6858 75.9738 70.8025 76.2807 70.9748 76.5094C71.1467 76.7376 71.4126 76.9387 71.7536 77.0103C72.1191 77.0871 72.4939 76.9975 72.7973 76.7645L71.6825 75.3128C71.786 75.2332 71.9525 75.1815 72.1304 75.2189C72.2838 75.2511 72.3826 75.3354 72.4372 75.4078C72.4921 75.4808 72.5411 75.5928 72.5329 75.7371C72.5235 75.9035 72.4407 76.0435 72.3421 76.1229L71.1947 74.6967ZM72.7975 76.7644C74.4665 75.482 76.2878 74.1817 77.9141 72.6772L76.6711 71.3336C75.1262 72.7627 73.4213 73.9767 71.6823 75.3129L72.7975 76.7644ZM77.914 72.6774C78.4559 72.1763 78.4366 71.44 78.0727 70.9666C77.7144 70.5004 77.0008 70.2757 76.3737 70.692L77.386 72.217C77.2852 72.2839 77.132 72.3269 76.9641 72.2933C76.8106 72.2626 76.6945 72.1779 76.621 72.0823C76.5471 71.9861 76.4963 71.853 76.5057 71.7C76.5159 71.5338 76.5932 71.4057 76.6713 71.3335L77.914 72.6774Z" fill="black" mask="url(#path-39-inside-16_67_1115)"/>
<mask id="path-41-inside-17_67_1115" fill="white">
<path d="M102.689 88.8872C100.902 90.072 99.2548 91.4942 97.5775 92.8425C97.182 93.1607 97.6493 93.7782 98.049 93.4713C99.7529 92.162 101.516 90.9049 103.102 89.4381C103.434 89.1307 103.051 88.6465 102.689 88.8872Z"/>
</mask>
<path d="M102.689 88.8872C100.902 90.072 99.2548 91.4942 97.5775 92.8425C97.182 93.1607 97.6493 93.7782 98.049 93.4713C99.7529 92.162 101.516 90.9049 103.102 89.4381C103.434 89.1307 103.051 88.6465 102.689 88.8872Z" fill="black"/>
<path d="M102.689 88.8872L103.195 89.65L103.195 89.6497L102.689 88.8872ZM97.5775 92.8425L97.0041 92.1292L97.0037 92.1294L97.5775 92.8425ZM98.049 93.4713L98.6064 94.1972L98.6066 94.197L98.049 93.4713ZM103.102 89.4381L102.48 88.7661L102.48 88.7663L103.102 89.4381ZM102.183 88.1243C100.35 89.34 98.647 90.8085 97.0041 92.1292L98.1509 93.5558C99.8627 92.1798 101.454 90.8041 103.195 89.65L102.183 88.1243ZM97.0037 92.1294C96.7074 92.3678 96.5348 92.7044 96.5142 93.0665C96.4949 93.4065 96.6115 93.7133 96.7838 93.9421C96.9557 94.1703 97.2217 94.3714 97.5627 94.443C97.9282 94.5198 98.303 94.4302 98.6064 94.1972L97.4916 92.7454C97.5951 92.6659 97.7616 92.6142 97.9395 92.6515C98.0929 92.6838 98.1917 92.7681 98.2463 92.8405C98.3012 92.9135 98.3502 93.0255 98.342 93.1698C98.3325 93.3362 98.2498 93.4762 98.1512 93.5555L97.0037 92.1294ZM98.6066 94.197C100.276 92.9147 102.097 91.6143 103.723 90.1099L102.48 88.7663C100.935 90.1954 99.2303 91.4094 97.4914 92.7456L98.6066 94.197ZM103.723 90.1101C104.265 89.609 104.246 88.8727 103.882 88.3992C103.523 87.9331 102.81 87.7084 102.183 88.1247L103.195 89.6497C103.094 89.7166 102.941 89.7596 102.773 89.726C102.62 89.6952 102.504 89.6106 102.43 89.515C102.356 89.4188 102.305 89.2857 102.315 89.1327C102.325 88.9665 102.402 88.8384 102.48 88.7661L103.723 90.1101Z" fill="black" mask="url(#path-41-inside-17_67_1115)"/>
<mask id="path-43-inside-18_67_1115" fill="white">
<path d="M117.182 73.435C115.394 74.6198 113.747 76.042 112.07 77.3903C111.675 77.7084 112.142 78.326 112.542 78.0191C114.246 76.7098 116.009 75.4527 117.594 73.9859C117.927 73.6785 117.544 73.1943 117.182 73.435Z"/>
</mask>
<path d="M117.182 73.435C115.394 74.6198 113.747 76.042 112.07 77.3903C111.675 77.7084 112.142 78.326 112.542 78.0191C114.246 76.7098 116.009 75.4527 117.594 73.9859C117.927 73.6785 117.544 73.1943 117.182 73.435Z" fill="black"/>
<path d="M117.182 73.435L117.687 74.1978L117.688 74.1974L117.182 73.435ZM112.07 77.3903L111.497 76.6769L111.496 76.6772L112.07 77.3903ZM112.542 78.0191L113.099 78.745L113.099 78.7448L112.542 78.0191ZM117.594 73.9859L116.973 73.3139L116.973 73.3141L117.594 73.9859ZM116.676 72.6721C114.842 73.8878 113.14 75.3563 111.497 76.6769L112.644 78.1036C114.355 76.7276 115.946 75.3519 117.687 74.1978L116.676 72.6721ZM111.496 76.6772C111.2 76.9156 111.027 77.2522 111.007 77.6143C110.988 77.9542 111.104 78.2611 111.277 78.4899C111.448 78.7181 111.714 78.9192 112.055 78.9908C112.421 79.0676 112.796 78.978 113.099 78.745L111.984 77.2932C112.088 77.2137 112.254 77.162 112.432 77.1993C112.586 77.2315 112.684 77.3159 112.739 77.3883C112.794 77.4613 112.843 77.5733 112.835 77.7176C112.825 77.884 112.742 78.024 112.644 78.1033L111.496 76.6772ZM113.099 78.7448C114.768 77.4625 116.59 76.1621 118.216 74.6577L116.973 73.3141C115.428 74.7432 113.723 75.9572 111.984 77.2934L113.099 78.7448ZM118.216 74.6579C118.758 74.1568 118.738 73.4205 118.374 72.947C118.016 72.4809 117.303 72.2561 116.675 72.6725L117.688 74.1974C117.587 74.2644 117.434 74.3074 117.266 74.2738C117.112 74.243 116.996 74.1584 116.923 74.0628C116.849 73.9666 116.798 73.8335 116.807 73.6804C116.818 73.5143 116.895 73.3862 116.973 73.3139L118.216 74.6579Z" fill="black" mask="url(#path-43-inside-18_67_1115)"/>
<mask id="path-45-inside-19_67_1115" fill="white">
<path d="M22.7688 69.6106C20.7488 70.3318 18.8082 71.317 16.8557 72.2232C16.3953 72.4372 16.7003 73.1488 17.1621 72.9468C19.1311 72.0849 21.145 71.2877 23.037 70.2445C23.4337 70.0259 23.1786 69.464 22.7688 69.6106Z"/>
</mask>
<path d="M22.7688 69.6106C20.7488 70.3318 18.8082 71.317 16.8557 72.2232C16.3953 72.4372 16.7003 73.1488 17.1621 72.9468C19.1311 72.0849 21.145 71.2877 23.037 70.2445C23.4337 70.0259 23.1786 69.464 22.7688 69.6106Z" fill="black"/>
<path d="M22.7688 69.6106L23.0764 70.4724L23.077 70.4722L22.7688 69.6106ZM16.8557 72.2232L16.4705 71.3933L16.4701 71.3935L16.8557 72.2232ZM17.1621 72.9468L17.5288 73.7851L17.529 73.785L17.1621 72.9468ZM23.037 70.2445L22.5953 69.4432L22.5951 69.4433L23.037 70.2445ZM22.4613 68.7489C20.3888 69.4888 18.3829 70.5057 16.4705 71.3933L17.2409 73.0532C19.2335 72.1284 21.1088 71.1748 23.0764 70.4724L22.4613 68.7489ZM16.4701 71.3935C16.1251 71.5538 15.8766 71.839 15.7696 72.1854C15.6691 72.5107 15.7085 72.8365 15.8207 73.0999C15.9327 73.3627 16.1424 73.6218 16.4563 73.7732C16.7928 73.9355 17.1782 73.9385 17.5288 73.7851L16.7954 72.1085C16.9151 72.0562 17.0892 72.0459 17.253 72.1249C17.3942 72.193 17.4699 72.2987 17.5054 72.382C17.5412 72.466 17.5618 72.5865 17.5192 72.7245C17.47 72.8836 17.356 72.9997 17.2413 73.053L16.4701 71.3935ZM17.529 73.785C19.4575 72.9408 21.5383 72.1157 23.4789 71.0457L22.5951 69.4433C20.7517 70.4597 18.8046 71.2289 16.7952 72.1086L17.529 73.785ZM23.4787 71.0458C24.1251 70.6895 24.2835 69.9704 24.0442 69.4235C23.8085 68.8849 23.1697 68.4954 22.4607 68.7491L23.077 70.4722C22.963 70.5129 22.8038 70.5179 22.6488 70.4449C22.5071 70.3782 22.4148 70.2681 22.3665 70.1577C22.3179 70.0466 22.3006 69.9053 22.3465 69.7591C22.3964 69.6003 22.5021 69.4945 22.5953 69.4432L23.4787 71.0458Z" fill="black" mask="url(#path-45-inside-19_67_1115)"/>
<mask id="path-47-inside-20_67_1115" fill="white">
<path d="M157.422 69.1497C155.402 69.8708 153.461 70.8561 151.508 71.7623C151.048 71.9762 151.353 72.6878 151.815 72.4859C153.784 71.6239 155.798 70.8268 157.69 69.7835C158.087 69.5649 157.831 69.0031 157.422 69.1497Z"/>
</mask>
<path d="M157.422 69.1497C155.402 69.8708 153.461 70.8561 151.508 71.7623C151.048 71.9762 151.353 72.6878 151.815 72.4859C153.784 71.6239 155.798 70.8268 157.69 69.7835C158.087 69.5649 157.831 69.0031 157.422 69.1497Z" fill="black"/>
<path d="M157.422 69.1497L157.729 70.0114L157.73 70.0112L157.422 69.1497ZM151.508 71.7623L151.123 70.9323L151.123 70.9325L151.508 71.7623ZM151.815 72.4859L152.182 73.3242L152.182 73.3241L151.815 72.4859ZM157.69 69.7835L157.248 68.9822L157.248 68.9823L157.69 69.7835ZM157.114 68.2879C155.042 69.0278 153.036 70.0447 151.123 70.9323L151.894 72.5922C153.886 71.6674 155.762 70.7139 157.729 70.0114L157.114 68.2879ZM151.123 70.9325C150.778 71.0928 150.529 71.378 150.422 71.7245C150.322 72.0498 150.361 72.3756 150.474 72.639C150.585 72.9018 150.795 73.1608 151.109 73.3123C151.446 73.4746 151.831 73.4775 152.182 73.3242L151.448 71.6476C151.568 71.5952 151.742 71.5849 151.906 71.6639C152.047 71.7321 152.123 71.8377 152.158 71.9211C152.194 72.0051 152.215 72.1255 152.172 72.2635C152.123 72.4227 152.009 72.5387 151.894 72.592L151.123 70.9325ZM152.182 73.3241C154.11 72.4798 156.191 71.6548 158.132 70.5847L157.248 68.9823C155.405 69.9988 153.457 70.768 151.448 71.6477L152.182 73.3241ZM158.132 70.5848C158.778 70.2286 158.936 69.5094 158.697 68.9625C158.461 68.424 157.823 68.0345 157.114 68.2881L157.73 70.0112C157.616 70.052 157.457 70.057 157.302 69.984C157.16 69.9173 157.068 69.8072 157.019 69.6968C156.971 69.5857 156.953 69.4443 156.999 69.2981C157.049 69.1393 157.155 69.0336 157.248 68.9822L158.132 70.5848Z" fill="black" mask="url(#path-47-inside-20_67_1115)"/>
<mask id="path-49-inside-21_67_1115" fill="white">
<path d="M18.1563 48.9719C16.1363 49.6931 14.1957 50.6783 12.2431 51.5845C11.7827 51.7984 12.0878 52.51 12.5495 52.3081C14.5185 51.4461 16.5325 50.649 18.4244 49.6057C18.8211 49.3871 18.566 48.8253 18.1563 48.9719Z"/>
</mask>
<path d="M18.1563 48.9719C16.1363 49.6931 14.1957 50.6783 12.2431 51.5845C11.7827 51.7984 12.0878 52.51 12.5495 52.3081C14.5185 51.4461 16.5325 50.649 18.4244 49.6057C18.8211 49.3871 18.566 48.8253 18.1563 48.9719Z" fill="black"/>
<path d="M18.1563 48.9719L18.4638 49.8336L18.4644 49.8334L18.1563 48.9719ZM12.2431 51.5845L11.8579 50.7545L11.8575 50.7547L12.2431 51.5845ZM12.5495 52.3081L12.9162 53.1464L12.9164 53.1463L12.5495 52.3081ZM18.4244 49.6057L17.9827 48.8044L17.9825 48.8045L18.4244 49.6057ZM17.8487 48.1101C15.7763 48.85 13.7704 49.8669 11.8579 50.7545L12.6283 52.4144C14.621 51.4896 16.4963 50.5361 18.4638 49.8336L17.8487 48.1101ZM11.8575 50.7547C11.5125 50.915 11.2641 51.2002 11.157 51.5467C11.0566 51.872 11.0959 52.1978 11.2081 52.4612C11.3201 52.724 11.5299 52.983 11.8438 53.1345C12.1802 53.2968 12.5657 53.2997 12.9162 53.1464L12.1829 51.4698C12.3025 51.4174 12.4767 51.4071 12.6405 51.4861C12.7817 51.5543 12.8574 51.6599 12.8929 51.7433C12.9287 51.8273 12.9492 51.9477 12.9066 52.0857C12.8574 52.2449 12.7435 52.3609 12.6287 52.4143L11.8575 50.7547ZM12.9164 53.1463C14.845 52.302 16.9258 51.477 18.8663 50.4069L17.9825 48.8045C16.1392 49.821 14.1921 50.5902 12.1826 51.4699L12.9164 53.1463ZM18.8661 50.4071C19.5126 50.0508 19.671 49.3316 19.4316 48.7847C19.1959 48.2462 18.5571 47.8567 17.8482 48.1103L18.4644 49.8334C18.3505 49.8742 18.1913 49.8792 18.0363 49.8062C17.8946 49.7395 17.8023 49.6294 17.7539 49.519C17.7053 49.4079 17.6881 49.2665 17.734 49.1203C17.7838 48.9615 17.8895 48.8558 17.9827 48.8044L18.8661 50.4071Z" fill="black" mask="url(#path-49-inside-21_67_1115)"/>
<mask id="path-51-inside-22_67_1115" fill="white">
<path d="M152.81 48.5109C150.79 49.2321 148.849 50.2173 146.897 51.1235C146.436 51.3375 146.741 52.0491 147.203 51.8471C149.172 50.9852 151.186 50.188 153.078 49.1448C153.475 48.9262 153.22 48.3643 152.81 48.5109Z"/>
</mask>
<path d="M152.81 48.5109C150.79 49.2321 148.849 50.2173 146.897 51.1235C146.436 51.3375 146.741 52.0491 147.203 51.8471C149.172 50.9852 151.186 50.188 153.078 49.1448C153.475 48.9262 153.22 48.3643 152.81 48.5109Z" fill="black"/>
<path d="M152.81 48.5109L153.117 49.3727L153.118 49.3725L152.81 48.5109ZM146.897 51.1235L146.511 50.2936L146.511 50.2938L146.897 51.1235ZM147.203 51.8471L147.57 52.6854L147.57 52.6853L147.203 51.8471ZM153.078 49.1448L152.636 48.3435L152.636 48.3436L153.078 49.1448ZM152.502 47.6492C150.43 48.3891 148.424 49.406 146.511 50.2936L147.282 51.9535C149.275 51.0287 151.15 50.0752 153.117 49.3727L152.502 47.6492ZM146.511 50.2938C146.166 50.4541 145.918 50.7393 145.811 51.0857C145.71 51.411 145.749 51.7369 145.862 52.0003C145.974 52.263 146.183 52.5221 146.497 52.6735C146.834 52.8359 147.219 52.8388 147.57 52.6854L146.836 51.0088C146.956 50.9565 147.13 50.9462 147.294 51.0252C147.435 51.0933 147.511 51.199 147.546 51.2824C147.582 51.3664 147.603 51.4868 147.56 51.6248C147.511 51.784 147.397 51.9 147.282 51.9533L146.511 50.2938ZM147.57 52.6853C149.499 51.8411 151.579 51.016 153.52 49.946L152.636 48.3436C150.793 49.36 148.846 50.1293 146.836 51.0089L147.57 52.6853ZM153.52 49.9461C154.166 49.5899 154.325 48.8707 154.085 48.3238C153.849 47.7852 153.211 47.3957 152.502 47.6494L153.118 49.3725C153.004 49.4133 152.845 49.4183 152.69 49.3453C152.548 49.2786 152.456 49.1685 152.407 49.058C152.359 48.9469 152.342 48.8056 152.388 48.6594C152.437 48.5006 152.543 48.3948 152.636 48.3435L153.52 49.9461Z" fill="black" mask="url(#path-51-inside-22_67_1115)"/>
<path d="M16.152 81.0525C14.7951 82.6349 13.2973 84.081 11.7862 85.5399C11.346 85.9649 10.9047 86.391 10.4654 86.8218L16.152 81.0525ZM16.152 81.0525C14.5883 82.4012 13.1464 83.9019 11.6918 85.4159C11.2682 85.8568 10.8435 86.2988 10.4144 86.7385C10.3988 86.7545 10.3957 86.7635 10.3956 86.7637C10.3954 86.764 10.3954 86.7636 10.3955 86.7646C10.3958 86.7693 10.4003 86.7894 10.4218 86.8117C10.4345 86.8249 10.4454 86.8309 10.4517 86.8336C10.455 86.8312 10.4595 86.8275 10.4653 86.8219L16.152 81.0525Z" fill="black" stroke="black" stroke-width="0.915324"/>
<path d="M162.275 80.4403L162.275 80.4401C162.283 80.4338 162.29 80.4298 162.294 80.4274C160.812 82.0551 159.169 83.5363 157.511 85.0304C157.039 85.4554 156.566 85.8815 156.096 86.3123C156.078 86.3288 156.066 86.3336 156.061 86.3351C156.057 86.3367 156.053 86.3373 156.047 86.3368C156.032 86.3356 156.005 86.3264 155.98 86.302C155.965 86.2878 155.959 86.276 155.956 86.2693C155.959 86.2651 155.964 86.259 155.972 86.2511C156.432 85.8115 156.887 85.3696 157.341 84.9287C158.947 83.3684 160.539 81.8214 162.275 80.4403Z" fill="black" stroke="black" stroke-width="0.915324"/>
<path d="M44.8825 83.3859C43.5255 84.9684 42.0277 86.4145 40.5166 87.8734C40.0764 88.2984 39.6351 88.7244 39.1958 89.1553L44.8825 83.3859ZM44.8825 83.3859C43.3188 84.7346 41.8769 86.2353 40.4222 87.7494C39.9986 88.1903 39.5739 88.6323 39.1447 89.0721M44.8825 83.3859L39.1957 89.1554C39.19 89.161 39.1854 89.1647 39.1821 89.1671M39.1447 89.0721L38.8172 88.7524L39.1449 89.0719C39.1448 89.072 39.1448 89.072 39.1447 89.0721ZM39.1447 89.0721C39.1293 89.088 39.1261 89.0969 39.126 89.0971C39.126 89.0973 39.126 89.0973 39.1259 89.0973C39.1259 89.0974 39.1259 89.0974 39.126 89.098C39.1263 89.1027 39.1308 89.1228 39.1523 89.1451C39.165 89.1583 39.1759 89.1644 39.1821 89.1671M39.1821 89.1671C39.1782 89.1699 39.1761 89.1709 39.176 89.1708C39.176 89.1708 39.1763 89.1707 39.1768 89.1705C39.18 89.1693 39.1844 89.1688 39.1874 89.1691C39.1879 89.1691 39.1879 89.1691 39.1874 89.169C39.1866 89.1687 39.1848 89.1682 39.1821 89.1671Z" fill="black" stroke="black" stroke-width="0.915324"/>
<path d="M190.442 82.8874C189.085 84.4699 187.587 85.916 186.076 87.3749C185.636 87.7999 185.194 88.226 184.755 88.6568L190.442 82.8874ZM190.442 82.8874C188.878 84.2362 187.436 85.7369 185.982 87.2509C185.558 87.6918 185.133 88.1339 184.704 88.5736M190.442 82.8874L184.755 88.6569C184.749 88.6625 184.745 88.6662 184.741 88.6686M184.704 88.5736L184.377 88.254L184.704 88.5735C184.704 88.5735 184.704 88.5736 184.704 88.5736ZM184.704 88.5736C184.689 88.5895 184.685 88.5984 184.685 88.5986C184.685 88.5988 184.685 88.5988 184.685 88.5988C184.685 88.5989 184.685 88.599 184.685 88.5995C184.686 88.6042 184.69 88.6243 184.712 88.6466C184.724 88.6598 184.735 88.6659 184.741 88.6686M184.741 88.6686C184.737 88.6715 184.735 88.6724 184.735 88.6724C184.735 88.6724 184.736 88.6722 184.736 88.672C184.739 88.6709 184.744 88.6704 184.747 88.6706C184.747 88.6707 184.747 88.6707 184.747 88.6705C184.746 88.6703 184.744 88.6697 184.741 88.6686Z" fill="black" stroke="black" stroke-width="0.915324"/>
<path d="M76.4655 65.7717C75.1086 67.3541 73.6107 68.8002 72.0996 70.2591C71.6594 70.6841 71.2181 71.1102 70.7788 71.541L76.4655 65.7717ZM76.4655 65.7717C74.9018 67.1204 73.4599 68.6211 72.0052 70.1351C71.5816 70.576 71.1569 71.0181 70.7277 71.4578M76.4655 65.7717L70.7787 71.5411C70.773 71.5467 70.7684 71.5504 70.7652 71.5528M70.7277 71.4578L70.4002 71.1382L70.7279 71.4577C70.7278 71.4577 70.7278 71.4578 70.7277 71.4578ZM70.7277 71.4578C70.7123 71.4737 70.7091 71.4826 70.7091 71.4829C70.709 71.483 70.709 71.483 70.709 71.4831C70.7089 71.4831 70.7089 71.4832 70.709 71.4837C70.7093 71.4884 70.7138 71.5086 70.7353 71.5309C70.748 71.5441 70.7589 71.5501 70.7652 71.5528M70.7652 71.5528C70.7612 71.5557 70.7591 71.5566 70.7591 71.5566C70.759 71.5566 70.7593 71.5564 70.7598 71.5563C70.763 71.5551 70.7674 71.5546 70.7704 71.5548C70.7709 71.5549 70.7709 71.5549 70.7704 71.5547C70.7696 71.5545 70.7678 71.554 70.7652 71.5528Z" fill="black" stroke="black" stroke-width="0.915324"/>
<path d="M116.88 68.0642C115.523 69.6466 114.026 71.0927 112.514 72.5516C112.074 72.9766 111.633 73.4027 111.194 73.8335L116.88 68.0642ZM116.88 68.0642C115.317 69.4129 113.875 70.9136 112.42 72.4276C111.996 72.8685 111.572 73.3106 111.143 73.7503M116.88 68.0642L111.194 73.8336C111.188 73.8392 111.183 73.8429 111.18 73.8453M111.143 73.7503L110.815 73.4307L111.143 73.7502C111.143 73.7502 111.143 73.7503 111.143 73.7503ZM111.143 73.7503C111.127 73.7662 111.124 73.7752 111.124 73.7754C111.124 73.7755 111.124 73.7755 111.124 73.7756C111.124 73.7756 111.124 73.7757 111.124 73.7763C111.124 73.781 111.129 73.8011 111.15 73.8234C111.163 73.8366 111.174 73.8426 111.18 73.8453M111.18 73.8453C111.176 73.8482 111.174 73.8491 111.174 73.8491C111.174 73.8491 111.174 73.849 111.175 73.8488C111.178 73.8476 111.182 73.8471 111.185 73.8473C111.186 73.8474 111.186 73.8474 111.185 73.8472C111.184 73.847 111.183 73.8465 111.18 73.8453Z" fill="black" stroke="black" stroke-width="0.915324"/>
<path d="M12.7012 64.1088C10.9678 65.3499 9.12593 66.4174 7.26783 67.4942C6.73234 67.8046 6.1955 68.1157 5.65953 68.432L12.7012 64.1088ZM12.7012 64.1088C10.8158 65.0597 9.01587 66.1952 7.20005 67.3407C6.677 67.6706 6.15263 68.0014 5.62452 68.3289C5.60482 68.3411 5.59897 68.3496 5.59836 68.3505L5.59836 68.3505C5.5977 68.3515 5.59752 68.3518 5.59723 68.3534C5.59613 68.3595 5.59603 68.3816 5.6122 68.4096C5.62311 68.4285 5.63418 68.4377 5.63987 68.4416C5.64396 68.4401 5.65045 68.4373 5.65942 68.4321L12.7012 64.1088Z" fill="black" stroke="black" stroke-width="0.915324"/>
<path d="M158.506 63.6093C156.773 64.8504 154.931 65.9178 153.073 66.9947C152.537 67.305 152 67.6162 151.464 67.9324L158.506 63.6093ZM158.506 63.6093C156.621 64.5602 154.821 65.6956 153.005 66.8411C152.482 67.1711 151.957 67.502 151.429 67.8294C151.41 67.8416 151.404 67.8501 151.403 67.851L151.403 67.851C151.403 67.8519 151.402 67.8522 151.402 67.8539C151.401 67.8599 151.401 67.882 151.417 67.91C151.428 67.9289 151.439 67.9382 151.445 67.942C151.449 67.9406 151.455 67.9378 151.464 67.9325L158.506 63.6093Z" fill="black" stroke="black" stroke-width="0.915324"/>
<mask id="path-61-inside-23_67_1115" fill="white">
<path d="M12.8248 79.3081C11.3864 80.2431 10.0588 81.369 8.70728 82.4355C8.38864 82.6872 8.75804 83.1846 9.07994 82.9419C10.4525 81.9068 11.872 80.9138 13.151 79.7518C13.4192 79.5083 13.1165 79.1182 12.8248 79.3081Z"/>
</mask>
<path d="M12.8248 79.3081C11.3864 80.2431 10.0588 81.369 8.70728 82.4355C8.38864 82.6872 8.75804 83.1846 9.07994 82.9419C10.4525 81.9068 11.872 80.9138 13.151 79.7518C13.4192 79.5083 13.1165 79.1182 12.8248 79.3081Z" fill="black"/>
<path d="M12.8248 79.3081L13.3236 80.0755L13.3241 80.0751L12.8248 79.3081ZM8.70728 82.4355L8.14034 81.7171L8.14 81.7173L8.70728 82.4355ZM9.07994 82.9419L9.63079 83.6728L9.631 83.6726L9.07994 82.9419ZM13.151 79.7518L12.5357 79.0743L12.5356 79.0745L13.151 79.7518ZM12.326 78.5408C10.841 79.5061 9.45719 80.6779 8.14034 81.7171L9.27423 83.1539C10.6605 82.06 11.9319 80.9801 13.3236 80.0755L12.326 78.5408ZM8.14 81.7173C7.86147 81.9373 7.69497 82.2527 7.67244 82.5951C7.65136 82.9153 7.75862 83.2037 7.91726 83.4183C8.0755 83.6323 8.32299 83.824 8.64463 83.8946C8.99074 83.9705 9.34545 83.8879 9.63079 83.6728L8.52909 82.2111C8.65348 82.1173 8.8413 82.0635 9.03757 82.1066C9.20937 82.1443 9.32407 82.2413 9.38955 82.3299C9.45544 82.419 9.50997 82.551 9.4992 82.7148C9.48696 82.9007 9.39378 83.0595 9.27457 83.1537L8.14 81.7173ZM9.631 83.6726C10.9683 82.6641 12.4464 81.6284 13.7665 80.4292L12.5356 79.0745C11.2977 80.1991 9.9367 81.1495 8.52888 82.2113L9.631 83.6726ZM13.7663 80.4293C14.2792 79.9636 14.2687 79.2668 13.9287 78.8161C13.5942 78.3728 12.9199 78.1542 12.3255 78.5411L13.3241 80.0751C13.2045 80.153 13.0324 80.1975 12.8485 80.1589C12.679 80.1234 12.5495 80.028 12.467 79.9188C12.3842 79.8089 12.3292 79.6589 12.3411 79.489C12.354 79.306 12.4402 79.161 12.5357 79.0743L13.7663 80.4293Z" fill="black" mask="url(#path-61-inside-23_67_1115)"/>
<path d="M158.647 78.9135L158.647 78.9136L158.647 78.9135Z" fill="black" stroke="black" stroke-width="0.915324"/>
<mask id="path-64-inside-24_67_1115" fill="white">
<path d="M41.463 81.584C40.0246 82.519 38.697 83.6448 37.3455 84.7114C37.0268 84.9631 37.3962 85.4604 37.7181 85.2178C39.0907 84.1827 40.5102 83.1897 41.7892 82.0277C42.0574 81.7841 41.7547 81.3941 41.463 81.584Z"/>
</mask>
<path d="M41.463 81.584C40.0246 82.519 38.697 83.6448 37.3455 84.7114C37.0268 84.9631 37.3962 85.4604 37.7181 85.2178C39.0907 84.1827 40.5102 83.1897 41.7892 82.0277C42.0574 81.7841 41.7547 81.3941 41.463 81.584Z" fill="black"/>
<path d="M41.463 81.584L41.9617 82.3513L41.9623 82.351L41.463 81.584ZM37.3455 84.7114L36.7785 83.9929L36.7782 83.9932L37.3455 84.7114ZM37.7181 85.2178L38.269 85.9487L38.2692 85.9485L37.7181 85.2178ZM41.7892 82.0277L41.1739 81.3502L41.1738 81.3503L41.7892 82.0277ZM40.9642 80.8167C39.4792 81.782 38.0954 82.9538 36.7785 83.9929L37.9124 85.4298C39.2987 84.3359 40.5701 83.256 41.9617 82.3513L40.9642 80.8167ZM36.7782 83.9932C36.4997 84.2132 36.3331 84.5286 36.3106 84.871C36.2895 85.1912 36.3968 85.4795 36.5554 85.6942C36.7137 85.9082 36.9612 86.0999 37.2828 86.1705C37.6289 86.2464 37.9836 86.1637 38.269 85.9487L37.1673 84.487C37.2917 84.3932 37.4795 84.3394 37.6758 84.3824C37.8476 84.4201 37.9623 84.5172 38.0277 84.6058C38.0936 84.6949 38.1482 84.8269 38.1374 84.9907C38.1251 85.1765 38.032 85.3354 37.9127 85.4296L36.7782 83.9932ZM38.2692 85.9485C39.6065 84.94 41.0846 83.9043 42.4046 82.7051L41.1738 81.3503C39.9358 82.475 38.5749 83.4254 37.1671 84.4871L38.2692 85.9485ZM42.4045 82.7052C42.9173 82.2395 42.9068 81.5427 42.5669 81.092C42.2324 80.6487 41.558 80.4301 40.9637 80.817L41.9623 82.351C41.8426 82.4289 41.6706 82.4733 41.4867 82.4348C41.3172 82.3993 41.1877 82.3039 41.1052 82.1946C41.0223 82.0848 40.9673 81.9348 40.9793 81.7649C40.9922 81.5818 41.0784 81.4369 41.1739 81.3502L42.4045 82.7052Z" fill="black" mask="url(#path-64-inside-24_67_1115)"/>
<path d="M187.286 81.1894L187.286 81.1895L187.286 81.1894Z" fill="black" stroke="black" stroke-width="0.915324"/>
<mask id="path-67-inside-25_67_1115" fill="white">
<path d="M73.2154 63.998C71.7771 64.933 70.4495 66.0588 69.0979 67.1254C68.7793 67.3771 69.1487 67.8745 69.4706 67.6318C70.8431 66.5967 72.2627 65.6037 73.5416 64.4417C73.8098 64.1981 73.5071 63.8081 73.2154 63.998Z"/>
</mask>
<path d="M73.2154 63.998C71.7771 64.933 70.4495 66.0588 69.0979 67.1254C68.7793 67.3771 69.1487 67.8745 69.4706 67.6318C70.8431 66.5967 72.2627 65.6037 73.5416 64.4417C73.8098 64.1981 73.5071 63.8081 73.2154 63.998Z" fill="black"/>
<path d="M73.2154 63.998L73.7142 64.7653L73.7147 64.765L73.2154 63.998ZM69.0979 67.1254L68.531 66.4069L68.5306 66.4072L69.0979 67.1254ZM69.4706 67.6318L70.0214 68.3627L70.0216 68.3625L69.4706 67.6318ZM73.5416 64.4417L72.9264 63.7642L72.9262 63.7643L73.5416 64.4417ZM72.7166 63.2307C71.2316 64.196 69.8478 65.3678 68.531 66.4069L69.6649 67.8438C71.0511 66.7499 72.3225 65.67 73.7142 64.7653L72.7166 63.2307ZM68.5306 66.4072C68.2521 66.6272 68.0856 66.9426 68.0631 67.285C68.042 67.6052 68.1492 67.8936 68.3079 68.1082C68.4661 68.3222 68.7136 68.5139 69.0353 68.5845C69.3814 68.6604 69.7361 68.5778 70.0214 68.3627L68.9197 66.901C69.0441 66.8072 69.2319 66.7534 69.4282 66.7964C69.6 66.8341 69.7147 66.9312 69.7802 67.0198C69.8461 67.1089 69.9006 67.2409 69.8898 67.4047C69.8776 67.5905 69.7844 67.7494 69.6652 67.8436L68.5306 66.4072ZM70.0216 68.3625C71.3589 67.354 72.837 66.3183 74.1571 65.1191L72.9262 63.7643C71.6883 64.889 70.3273 65.8394 68.9195 66.9011L70.0216 68.3625ZM74.1569 65.1192C74.6698 64.6535 74.6593 63.9567 74.3193 63.506C73.9849 63.0627 73.3105 62.8441 72.7161 63.231L73.7147 64.765C73.5951 64.8429 73.423 64.8873 73.2391 64.8488C73.0696 64.8133 72.9401 64.7179 72.8577 64.6086C72.7748 64.4988 72.7198 64.3488 72.7317 64.1789C72.7446 63.9958 72.8309 63.8509 72.9264 63.7642L74.1569 65.1192Z" fill="black" mask="url(#path-67-inside-25_67_1115)"/>
<path d="M113.536 66.083L113.536 66.0831L113.536 66.083Z" fill="black" stroke="black" stroke-width="0.915324"/>
<mask id="path-70-inside-26_67_1115" fill="white">
<path d="M21.0049 61.4932C19.3837 62.0556 17.8242 62.8298 16.2557 63.5407C15.8858 63.7085 16.1248 64.28 16.4956 64.1217C18.077 63.4463 19.6938 62.8231 21.2148 62.0022C21.5337 61.8301 21.3337 61.3789 21.0049 61.4932Z"/>
</mask>
<path d="M21.0049 61.4932C19.3837 62.0556 17.8242 62.8298 16.2557 63.5407C15.8858 63.7085 16.1248 64.28 16.4956 64.1217C18.077 63.4463 19.6938 62.8231 21.2148 62.0022C21.5337 61.8301 21.3337 61.3789 21.0049 61.4932Z" fill="black"/>
<path d="M21.0049 61.4932L21.3047 62.3577L21.3052 62.3575L21.0049 61.4932ZM16.2557 63.5407L15.878 62.7073L15.8776 62.7075L16.2557 63.5407ZM16.4956 64.1217L16.8547 64.9633L16.855 64.9632L16.4956 64.1217ZM21.2148 62.0022L20.7803 61.1969L20.7801 61.197L21.2148 62.0022ZM20.7051 60.6287C19.0314 61.2093 17.4062 62.0146 15.878 62.7073L16.6334 64.3741C18.2422 63.6449 19.7361 62.9018 21.3047 62.3577L20.7051 60.6287ZM15.8776 62.7075C15.5543 62.8542 15.3169 63.1203 15.2127 63.4471C15.1152 63.7528 15.15 64.0584 15.2523 64.3048C15.3544 64.5506 15.5486 64.7961 15.8439 64.9419C16.1617 65.0987 16.526 65.1036 16.8547 64.9633L16.1365 63.2802C16.2798 63.219 16.4752 63.2118 16.6554 63.3008C16.8132 63.3786 16.9012 63.5004 16.9435 63.6021C16.986 63.7045 17.0072 63.8456 16.9573 64.0019C16.9008 64.1793 16.7722 64.3111 16.6338 64.3739L15.8776 62.7075ZM16.855 64.9632C18.3957 64.3052 20.0796 63.6546 21.6495 62.8073L20.7801 61.197C19.3079 61.9916 17.7582 62.5875 16.1363 63.2803L16.855 64.9632ZM21.6493 62.8074C22.2591 62.4785 22.4165 61.7997 22.1949 61.2807C21.9769 60.7701 21.3746 60.3959 20.7045 60.6289L21.3052 62.3575C21.1704 62.4043 20.9926 62.4062 20.8233 62.3246C20.6672 62.2494 20.5644 62.1257 20.5106 61.9998C20.4566 61.8733 20.4393 61.7146 20.4918 61.5526C20.5483 61.3781 20.6668 61.2582 20.7803 61.1969L21.6493 62.8074Z" fill="black" mask="url(#path-70-inside-26_67_1115)"/>
<path d="M155.651 61.1381L155.651 61.1382L155.651 61.1381Z" fill="black" stroke="black" stroke-width="0.915324"/>
<mask id="path-73-inside-27_67_1115" fill="white">
<path d="M22.044 77.1078C20.6952 78.1301 19.4853 79.3129 18.2429 80.4446C17.95 80.7116 18.3947 81.1205 18.6921 80.8614C19.9602 79.7558 21.282 78.6829 22.4373 77.473C22.6796 77.2194 22.3175 76.9002 22.044 77.1078Z"/>
</mask>
<path d="M22.044 77.1078C20.6952 78.1301 19.4853 79.3129 18.2429 80.4446C17.95 80.7116 18.3947 81.1205 18.6921 80.8614C19.9602 79.7558 21.282 78.6829 22.4373 77.473C22.6796 77.2194 22.3175 76.9002 22.044 77.1078Z" fill="black"/>
<path d="M22.044 77.1078L22.5969 77.8373L22.5974 77.8369L22.044 77.1078ZM18.2429 80.4446L17.6265 79.7679L17.6262 79.7682L18.2429 80.4446ZM18.6921 80.8614L19.2934 81.5515L19.2936 81.5513L18.6921 80.8614ZM22.4373 77.473L21.7755 76.8407L21.7753 76.8409L22.4373 77.473ZM21.4912 76.3783C20.0987 77.4337 18.8368 78.6655 17.6265 79.7679L18.8593 81.1213C20.1337 79.9603 21.2918 78.8265 22.5969 77.8373L21.4912 76.3783ZM17.6262 79.7682C17.3656 80.0058 17.2077 80.3472 17.2347 80.7242C17.2595 81.0706 17.4324 81.3447 17.625 81.5227C18.0026 81.8714 18.7183 82.0526 19.2934 81.5515L18.0908 80.1713C18.2053 80.0715 18.3649 80.0182 18.5253 80.0305C18.6683 80.0415 18.7842 80.1013 18.8672 80.178C18.9481 80.2527 19.0461 80.3907 19.0607 80.5934C19.0774 80.8268 18.9737 81.0169 18.8596 81.121L17.6262 79.7682ZM19.2936 81.5513C20.5283 80.4748 21.9056 79.3552 23.0993 78.1051L21.7753 76.8409C20.6583 78.0107 19.392 79.0367 18.0906 80.1715L19.2936 81.5513ZM23.0992 78.1053C23.3134 77.881 23.4532 77.5696 23.4298 77.219C23.4077 76.8858 23.2447 76.6167 23.0486 76.4391C22.6574 76.0847 22.0091 75.9852 21.4907 76.3787L22.5974 77.8369C22.3524 78.0228 22.0219 77.9791 21.8196 77.7958C21.7179 77.7037 21.6171 77.549 21.6032 77.3405C21.5882 77.1146 21.6824 76.9382 21.7755 76.8407L23.0992 78.1053Z" fill="black" mask="url(#path-73-inside-27_67_1115)"/>
<mask id="path-75-inside-28_67_1115" fill="white">
<path d="M156.938 76.6454C155.589 77.6677 154.38 78.8505 153.137 79.9822C152.844 80.2492 153.289 80.6582 153.586 80.399C154.854 79.2934 156.176 78.2205 157.332 77.0106C157.574 76.757 157.212 76.4378 156.938 76.6454Z"/>
</mask>
<path d="M156.938 76.6454C155.589 77.6677 154.38 78.8505 153.137 79.9822C152.844 80.2492 153.289 80.6582 153.586 80.399C154.854 79.2934 156.176 78.2205 157.332 77.0106C157.574 76.757 157.212 76.4378 156.938 76.6454Z" fill="black"/>
<path d="M156.938 76.6454L157.491 77.3749L157.492 77.3745L156.938 76.6454ZM153.137 79.9822L152.521 79.3055L152.52 79.3058L153.137 79.9822ZM153.586 80.399L154.188 81.0891L154.188 81.0889L153.586 80.399ZM157.332 77.0106L156.67 76.3783L156.67 76.3785L157.332 77.0106ZM156.385 75.9159C154.993 76.9713 153.731 78.2031 152.521 79.3055L153.754 80.6589C155.028 79.498 156.186 78.3641 157.491 77.3749L156.385 75.9159ZM152.52 79.3058C152.26 79.5434 152.102 79.8848 152.129 80.2618C152.154 80.6082 152.327 80.8823 152.519 81.0603C152.897 81.409 153.613 81.5902 154.188 81.0891L152.985 79.7089C153.1 79.6091 153.259 79.5558 153.42 79.5681C153.563 79.5791 153.679 79.6389 153.762 79.7156C153.842 79.7903 153.94 79.9283 153.955 80.131C153.972 80.3644 153.868 80.5545 153.754 80.6586L152.52 79.3058ZM154.188 81.0889C155.423 80.0124 156.8 78.8928 157.994 77.6427L156.67 76.3785C155.553 77.5483 154.286 78.5743 152.985 79.7091L154.188 81.0889ZM157.993 77.6429C158.208 77.4186 158.347 77.1072 158.324 76.7566C158.302 76.4234 158.139 76.1543 157.943 75.9767C157.552 75.6223 156.903 75.5228 156.385 75.9163L157.492 77.3745C157.247 77.5604 156.916 77.5167 156.714 77.3334C156.612 77.2413 156.511 77.0866 156.497 76.8781C156.482 76.6522 156.577 76.4758 156.67 76.3783L157.993 77.6429Z" fill="black" mask="url(#path-75-inside-28_67_1115)"/>
<mask id="path-77-inside-29_67_1115" fill="white">
<path d="M39.6217 79.0009C38.2733 80.1503 37.0639 81.4805 35.822 82.7531C35.5292 83.0534 35.974 83.5136 36.2714 83.2222C37.539 81.9789 38.8603 80.7725 40.0151 79.4118C40.2573 79.1266 39.8951 78.7675 39.6217 79.0009Z"/>
</mask>
<path d="M39.6217 79.0009C38.2733 80.1503 37.0639 81.4805 35.822 82.7531C35.5292 83.0534 35.974 83.5136 36.2714 83.2222C37.539 81.9789 38.8603 80.7725 40.0151 79.4118C40.2573 79.1266 39.8951 78.7675 39.6217 79.0009Z" fill="black"/>
<path d="M39.6217 79.0009L40.2155 79.6974L40.216 79.697L39.6217 79.0009ZM35.822 82.7531L35.1669 82.1138L35.1666 82.1141L35.822 82.7531ZM36.2714 83.2222L36.9121 83.8758L36.9123 83.8757L36.2714 83.2222ZM40.0151 79.4118L39.3174 78.8194L39.3172 78.8196L40.0151 79.4118ZM39.0279 78.3043C37.6371 79.4899 36.3779 80.8728 35.1669 82.1138L36.4771 83.3924C37.7498 82.0881 38.9095 80.8108 40.2155 79.6974L39.0279 78.3043ZM35.1666 82.1141C34.9165 82.3706 34.7913 82.7076 34.8134 83.0526C34.8341 83.3754 34.979 83.65 35.1658 83.8442C35.3522 84.0379 35.6248 84.1972 35.9554 84.226C36.3109 84.2568 36.6546 84.1283 36.9121 83.8758L35.6306 82.5685C35.7395 82.4618 35.9161 82.385 36.1137 82.4022C36.2864 82.4172 36.4103 82.4973 36.485 82.5749C36.56 82.6529 36.63 82.7743 36.6403 82.9355C36.6521 83.1189 36.5811 83.2857 36.4774 83.3921L35.1666 82.1141ZM36.9123 83.8757C38.1484 82.6633 39.5223 81.4071 40.713 80.0041L39.3172 78.8196C38.1983 80.138 36.9296 81.2945 35.6304 82.5687L36.9123 83.8757ZM40.7129 80.0043C41.1651 79.4717 41.0636 78.7769 40.6651 78.3708C40.2731 77.9713 39.5711 77.8406 39.0274 78.3047L40.216 79.697C40.1096 79.7878 39.9471 79.8534 39.762 79.8391C39.5915 79.8259 39.4528 79.7491 39.3584 79.6529C39.2635 79.5562 39.1905 79.4166 39.1806 79.2488C39.1698 79.0679 39.2358 78.9154 39.3174 78.8194L40.7129 80.0043Z" fill="black" mask="url(#path-77-inside-29_67_1115)"/>
<path d="M185.218 78.6378L185.218 78.6379L185.218 78.6378Z" fill="black" stroke="black" stroke-width="0.915324"/>
<path d="M71.26 61.9338L71.2599 61.9339L71.26 61.9338Z" fill="black" stroke="black" stroke-width="0.915324"/>
<mask id="path-81-inside-30_67_1115" fill="white">
<path d="M111.619 63.6796C110.271 64.829 109.061 66.1592 107.819 67.4318C107.527 67.7321 107.971 68.1923 108.269 67.9009C109.536 66.6576 110.858 65.4512 112.012 64.0906C112.255 63.8053 111.892 63.4462 111.619 63.6796Z"/>
</mask>
<path d="M111.619 63.6796C110.271 64.829 109.061 66.1592 107.819 67.4318C107.527 67.7321 107.971 68.1923 108.269 67.9009C109.536 66.6576 110.858 65.4512 112.012 64.0906C112.255 63.8053 111.892 63.4462 111.619 63.6796Z" fill="black"/>
<path d="M111.619 63.6796L112.213 64.3761L112.213 64.3757L111.619 63.6796ZM107.819 67.4318L107.164 66.7925L107.164 66.7928L107.819 67.4318ZM108.269 67.9009L108.909 68.5546L108.91 68.5544L108.269 67.9009ZM112.012 64.0906L111.315 63.4981L111.315 63.4983L112.012 64.0906ZM111.025 62.983C109.634 64.1686 108.375 65.5515 107.164 66.7925L108.474 68.0711C109.747 66.7668 110.907 65.4895 112.213 64.3761L111.025 62.983ZM107.164 66.7928C106.914 67.0494 106.789 67.3863 106.811 67.7313C106.831 68.0542 106.976 68.3287 107.163 68.5229C107.35 68.7166 107.622 68.876 107.953 68.9047C108.308 68.9355 108.652 68.807 108.909 68.5546L107.628 67.2472C107.737 67.1405 107.913 67.0637 108.111 67.0809C108.284 67.0959 108.408 67.1761 108.482 67.2536C108.557 67.3316 108.627 67.453 108.638 67.6142C108.649 67.7976 108.578 67.9644 108.475 68.0708L107.164 66.7928ZM108.91 68.5544C110.146 67.342 111.52 66.0858 112.71 64.6828L111.315 63.4983C110.196 64.8167 108.927 65.9732 107.628 67.2474L108.91 68.5544ZM112.71 64.683C113.162 64.1504 113.061 63.4556 112.662 63.0495C112.27 62.65 111.568 62.5193 111.025 62.9834L112.213 64.3757C112.107 64.4665 111.944 64.5321 111.759 64.5178C111.589 64.5046 111.45 64.4278 111.356 64.3316C111.261 64.2349 111.188 64.0953 111.178 63.9275C111.167 63.7466 111.233 63.5942 111.315 63.4981L112.71 64.683Z" fill="black" mask="url(#path-81-inside-30_67_1115)"/>
<mask id="path-83-inside-31_67_1115" fill="white">
<path d="M17.5909 56.2216C16.2426 57.371 15.0331 58.7012 13.7912 59.9738C13.4985 60.2741 13.9433 60.7343 14.2406 60.4429C15.5082 59.1996 16.8296 57.9932 17.9844 56.6325C18.2265 56.3473 17.8643 55.9882 17.5909 56.2216Z"/>
</mask>
<path d="M17.5909 56.2216C16.2426 57.371 15.0331 58.7012 13.7912 59.9738C13.4985 60.2741 13.9433 60.7343 14.2406 60.4429C15.5082 59.1996 16.8296 57.9932 17.9844 56.6325C18.2265 56.3473 17.8643 55.9882 17.5909 56.2216Z" fill="black"/>
<path d="M17.5909 56.2216L18.1848 56.9181L18.1852 56.9177L17.5909 56.2216ZM13.7912 59.9738L13.1361 59.3345L13.1358 59.3348L13.7912 59.9738ZM14.2406 60.4429L14.8813 61.0965L14.8815 61.0964L14.2406 60.4429ZM17.9844 56.6325L17.2866 56.0401L17.2865 56.0403L17.9844 56.6325ZM16.9971 55.525C15.6064 56.7106 14.3471 58.0935 13.1361 59.3345L14.4463 60.6131C15.7191 59.3088 16.8787 58.0315 18.1848 56.9181L16.9971 55.525ZM13.1358 59.3348C12.8857 59.5913 12.7606 59.9283 12.7827 60.2733C12.8034 60.5961 12.9482 60.8707 13.1351 61.0649C13.3215 61.2586 13.594 61.4179 13.9246 61.4467C14.2801 61.4775 14.6238 61.349 14.8813 61.0965L13.5998 59.7892C13.7087 59.6825 13.8853 59.6057 14.083 59.6229C14.2557 59.6379 14.3796 59.718 14.4542 59.7956C14.5293 59.8736 14.5992 59.995 14.6096 60.1562C14.6213 60.3396 14.5503 60.5064 14.4466 60.6128L13.1358 59.3348ZM14.8815 61.0964C16.1176 59.884 17.4915 58.6278 18.6822 57.2248L17.2865 56.0403C16.1676 57.3587 14.8988 58.5152 13.5997 59.7894L14.8815 61.0964ZM18.6821 57.225C19.1343 56.6924 19.0328 55.9976 18.6343 55.5915C18.2424 55.192 17.5403 55.0613 16.9966 55.5254L18.1852 56.9177C18.0789 57.0085 17.9164 57.0741 17.7312 57.0598C17.5608 57.0466 17.422 56.9698 17.3276 56.8736C17.2327 56.7769 17.1598 56.6373 17.1498 56.4695C17.139 56.2886 17.2051 56.1361 17.2866 56.0401L18.6821 57.225Z" fill="black" mask="url(#path-83-inside-31_67_1115)"/>
<path d="M152.036 55.8965L152.036 55.8966L152.036 55.8965Z" fill="black" stroke="black" stroke-width="0.915324"/>
<mask id="path-86-inside-32_67_1115" fill="white">
<path d="M19.7737 58.7742C18.2389 59.5411 16.7926 60.51 15.3292 61.4174C14.9842 61.6316 15.295 62.1674 15.6423 61.9626C17.123 61.0888 18.6457 60.2622 20.0477 59.2518C20.3418 59.0401 20.085 58.6184 19.7737 58.7742Z"/>
</mask>
<path d="M19.7737 58.7742C18.2389 59.5411 16.7926 60.51 15.3292 61.4174C14.9842 61.6316 15.295 62.1674 15.6423 61.9626C17.123 61.0888 18.6457 60.2622 20.0477 59.2518C20.3418 59.0401 20.085 58.6184 19.7737 58.7742Z" fill="black"/>
<path d="M19.7737 58.7742L20.1827 59.5928L20.1833 59.5925L19.7737 58.7742ZM15.3292 61.4174L14.847 60.6397L14.8466 60.6399L15.3292 61.4174ZM15.6423 61.9626L16.1071 62.7509L16.1073 62.7507L15.6423 61.9626ZM20.0477 59.2518L19.5129 58.5093L19.5127 58.5094L20.0477 59.2518ZM19.3648 57.9555C17.7802 58.7473 16.2728 59.7556 14.847 60.6397L15.8114 62.1951C17.3124 61.2645 18.6977 60.3348 20.1827 59.5928L19.3648 57.9555ZM14.8466 60.6399C14.545 60.8271 14.344 61.1217 14.2829 61.4593C14.2258 61.7751 14.2998 62.0737 14.4332 62.3048C14.5662 62.5353 14.7905 62.7537 15.1021 62.8601C15.4375 62.9746 15.7993 62.9324 16.1071 62.7509L15.1774 61.1744C15.3116 61.0953 15.5044 61.0629 15.6945 61.1279C15.861 61.1847 15.964 61.2941 16.0191 61.3895C16.0745 61.4855 16.1137 61.6227 16.0845 61.7842C16.0514 61.9675 15.9409 62.1148 15.8118 62.1949L14.8466 60.6399ZM16.1073 62.7507C17.55 61.8994 19.1357 61.037 20.5828 59.9942L19.5127 58.5094C18.1556 59.4874 16.696 60.2783 15.1772 61.1745L16.1073 62.7507ZM20.5826 59.9943C21.1448 59.5894 21.2131 58.8959 20.9262 58.4098C20.644 57.9316 19.9985 57.6383 19.3642 57.9558L20.1833 59.5925C20.0556 59.6564 19.8796 59.6812 19.7012 59.6222C19.5367 59.5677 19.4188 59.4584 19.3492 59.3405C19.2793 59.222 19.2416 59.0668 19.2727 58.8994C19.3062 58.719 19.4082 58.5847 19.5129 58.5093L20.5826 59.9943Z" fill="black" mask="url(#path-86-inside-32_67_1115)"/>
<mask id="path-88-inside-33_67_1115" fill="white">
<path d="M154.427 58.3128C152.892 59.0797 151.446 60.0486 149.983 60.956C149.638 61.1702 149.949 61.706 150.296 61.5012C151.777 60.6274 153.299 59.8008 154.701 58.7904C154.995 58.5787 154.739 58.157 154.427 58.3128Z"/>
</mask>
<path d="M154.427 58.3128C152.892 59.0797 151.446 60.0486 149.983 60.956C149.638 61.1702 149.949 61.706 150.296 61.5012C151.777 60.6274 153.299 59.8008 154.701 58.7904C154.995 58.5787 154.739 58.157 154.427 58.3128Z" fill="black"/>
<path d="M154.427 58.3128L154.836 59.1314L154.837 59.1311L154.427 58.3128ZM149.983 60.956L149.501 60.1783L149.5 60.1785L149.983 60.956ZM150.296 61.5012L150.761 62.2895L150.761 62.2893L150.296 61.5012ZM154.701 58.7904L154.166 58.0479L154.166 58.048L154.701 58.7904ZM154.018 57.4941C152.434 58.2859 150.926 59.2942 149.501 60.1783L150.465 61.7337C151.966 60.8031 153.351 59.8734 154.836 59.1314L154.018 57.4941ZM149.5 60.1785C149.199 60.3657 148.998 60.6603 148.936 60.9979C148.879 61.3137 148.953 61.6123 149.087 61.8434C149.22 62.0739 149.444 62.2923 149.756 62.3987C150.091 62.5132 150.453 62.471 150.761 62.2895L149.831 60.713C149.965 60.6339 150.158 60.6015 150.348 60.6664C150.515 60.7233 150.618 60.8327 150.673 60.9281C150.728 61.0241 150.767 61.1613 150.738 61.3228C150.705 61.5061 150.594 61.6534 150.465 61.7335L149.5 60.1785ZM150.761 62.2893C152.204 61.438 153.789 60.5756 155.236 59.5328L154.166 58.048C152.809 59.026 151.35 59.8169 149.831 60.7131L150.761 62.2893ZM155.236 59.5329C155.798 59.128 155.867 58.4345 155.58 57.9484C155.298 57.4702 154.652 57.1769 154.018 57.4944L154.837 59.1311C154.709 59.195 154.533 59.2198 154.355 59.1608C154.19 59.1063 154.072 58.997 154.003 58.8791C153.933 58.7606 153.895 58.6054 153.926 58.438C153.96 58.2576 154.062 58.1233 154.166 58.0479L155.236 59.5329Z" fill="black" mask="url(#path-88-inside-33_67_1115)"/>
<path d="M98.0422 94.654L98.0775 94.68L98.1156 94.7017C103.635 97.8333 108.742 98.4473 112.852 95.3077C115.46 93.5183 116.984 91.4294 117.48 89.3879C117.981 87.3217 117.409 85.3603 115.938 83.9869C113.478 81.6893 108.663 82.0778 106.956 86.6139C106.628 87.4844 106.239 88.4647 105.603 89.1248C105.299 89.4406 104.953 89.6649 104.542 89.7702C104.144 89.8724 103.631 89.8763 102.96 89.6727C102.682 89.5222 102.392 89.3542 102.089 89.1681C100.576 88.0728 98.455 88.3909 97.3352 89.8902C96.207 91.4007 96.5253 93.5342 98.0422 94.654ZM11.7483 90.9251C12.7966 94.8857 16.3495 97.6453 20.4126 97.6333C24.3006 97.6218 27.7285 95.0711 28.9057 91.3324L34.5532 73.3956L40.3074 91.2987C41.5067 95.0304 44.9498 97.5608 48.8377 97.5493C52.9009 97.5373 56.4373 94.7568 57.462 90.79L67.4276 52.214C68.6762 47.3808 65.0693 42.6371 60.1069 42.6517C56.5556 42.6622 53.5012 45.175 52.7557 48.675L47.9416 71.276L42.6238 55.3146C41.4475 51.784 38.1702 49.4023 34.4782 49.4132C30.79 49.4241 27.5294 51.8202 26.3711 55.3526L21.1523 71.2674L16.2069 48.7795C15.4385 45.2855 12.3696 42.7928 8.81934 42.8033C3.85576 42.818 0.276317 47.5841 1.55394 52.4109L11.7483 90.9251ZM174.776 90.9013L180.424 72.9644L186.178 90.8676C187.377 94.5992 190.82 97.1297 194.708 97.1182C198.771 97.1062 202.308 94.3256 203.332 90.3588L213.298 51.7829C214.547 46.9497 210.94 42.2059 205.977 42.2206C202.426 42.2311 199.372 44.7439 198.626 48.2439L193.812 70.8448L188.494 54.8835C187.318 51.3528 184.041 48.9711 180.349 48.9821C176.66 48.993 173.4 51.389 172.242 54.9214L167.023 70.8363L162.077 48.3484C161.309 44.8543 158.24 42.3617 154.69 42.3722C149.726 42.3868 146.147 47.1529 147.424 51.9798L157.619 90.494C158.667 94.4546 162.22 97.2142 166.283 97.2022C170.171 97.1907 173.599 94.6399 174.776 90.9013ZM127.551 83.3297C133.521 83.3121 138.32 81.1103 141.615 77.4233C144.902 73.7455 146.643 68.6468 146.626 62.9075C146.609 57.1681 144.837 52.0945 141.528 48.4511C138.21 44.799 133.399 42.6422 127.43 42.6598C121.462 42.6774 116.664 44.8627 113.368 48.5344C110.08 52.1972 108.339 57.2813 108.356 63.0207C108.373 68.7599 110.145 73.8482 113.453 77.5065C116.77 81.1739 121.581 83.3474 127.551 83.3297ZM137.012 62.9731C137.028 68.1431 132.824 72.3539 127.613 72.3693C122.402 72.3847 118.173 68.1988 118.157 63.0288C118.142 57.8588 122.346 53.648 127.557 53.6326C132.768 53.6172 136.997 57.8031 137.012 62.9731ZM87.4855 83.2411C93.4555 83.2234 98.2538 81.0216 101.549 77.3347C104.836 73.6569 106.577 68.5581 106.56 62.8189C106.543 57.0795 104.771 52.0058 101.462 48.3625C98.144 44.7104 93.3328 42.5535 87.3645 42.5712C81.3962 42.5888 76.5978 44.7741 73.3021 48.4457C70.0143 52.1086 68.2727 57.1926 68.2898 62.932C68.3069 68.6713 70.0786 73.7596 73.3872 77.4179C76.7041 81.0853 81.5155 83.2587 87.4855 83.2411ZM96.9191 63.0916C96.9345 68.2616 92.7302 72.4725 87.5194 72.4879C82.3087 72.5033 78.0794 68.3173 78.064 63.1474C78.0486 57.9774 82.2529 53.7665 87.4637 53.7511C92.6744 53.7357 96.9038 57.9216 96.9191 63.0916Z" stroke="black" stroke-width="1.46047"/>
</svg>
