<svg width="278" height="74" viewBox="0 0 278 74" fill="none" xmlns="http://www.w3.org/2000/svg">
<mask id="path-1-inside-1_2_477" fill="white">
<path d="M23.0979 61.7647C21.4702 63.1856 20.0229 64.814 18.5329 66.3758C18.1817 66.7443 18.7544 67.2687 19.1117 66.9104C20.6349 65.3822 22.2266 63.8952 23.6046 62.2331C23.8936 61.8847 23.4279 61.4762 23.0979 61.7647Z"/>
</mask>
<path d="M23.0979 61.7647C21.4702 63.1856 20.0229 64.814 18.5329 66.3758C18.1817 66.7443 18.7544 67.2687 19.1117 66.9104C20.6349 65.3822 22.2266 63.8952 23.6046 62.2331C23.8936 61.8847 23.4279 61.4762 23.0979 61.7647Z" fill="black"/>
<path d="M23.0979 61.7647L23.8784 62.6588L23.879 62.6582L23.0979 61.7647ZM18.5329 66.3758L17.6742 65.5565L17.6738 65.5569L18.5329 66.3758ZM19.1117 66.9104L19.9521 67.7486L19.9523 67.7483L19.1117 66.9104ZM23.6046 62.2331L22.6911 61.4754L22.6909 61.4756L23.6046 62.2331ZM22.3173 60.8705C20.6355 62.3387 19.1249 64.0359 17.6742 65.5565L19.3917 67.1951C20.921 65.592 22.3048 64.0325 23.8784 62.6588L22.3173 60.8705ZM17.6738 65.5569C17.3585 65.8877 17.1969 66.3291 17.2444 66.7875C17.2885 67.213 17.5014 67.5577 17.7532 67.7892C18.2528 68.2487 19.2227 68.4799 19.9521 67.7486L18.2713 66.0723C18.4151 65.9281 18.6361 65.8332 18.8758 65.8442C19.0876 65.854 19.2515 65.9422 19.3601 66.042C19.4679 66.1412 19.5812 66.3081 19.6055 66.5428C19.6332 66.8105 19.5317 67.0482 19.3921 67.1947L17.6738 65.5569ZM19.9523 67.7483C21.435 66.2608 23.0943 64.7082 24.5183 62.9906L22.6909 61.4756C21.3589 63.0822 19.8349 64.5036 18.2711 66.0726L19.9523 67.7483ZM24.5181 62.9909C24.7736 62.6828 24.917 62.2826 24.8749 61.8557C24.8346 61.4478 24.6342 61.1095 24.3782 60.8787C23.8572 60.4087 22.9804 60.2909 22.3167 60.8711L23.879 62.6582C23.5454 62.9499 23.0664 62.8921 22.7885 62.6414C22.6541 62.5202 22.5365 62.3313 22.5126 62.089C22.4868 61.8277 22.58 61.6092 22.6911 61.4754L24.5181 62.9909Z" fill="black" mask="url(#path-1-inside-1_2_477)"/>
<mask id="path-3-inside-2_2_477" fill="white">
<path d="M212.16 61.7647C210.533 63.1856 209.085 64.814 207.595 66.3758C207.244 66.7443 207.817 67.2687 208.174 66.9104C209.697 65.3822 211.289 63.8952 212.667 62.2331C212.956 61.8847 212.49 61.4762 212.16 61.7647Z"/>
</mask>
<path d="M212.16 61.7647C210.533 63.1856 209.085 64.814 207.595 66.3758C207.244 66.7443 207.817 67.2687 208.174 66.9104C209.697 65.3822 211.289 63.8952 212.667 62.2331C212.956 61.8847 212.49 61.4762 212.16 61.7647Z" fill="black"/>
<path d="M212.16 61.7647L212.941 62.6588L212.941 62.6582L212.16 61.7647ZM207.595 66.3758L206.737 65.5565L206.736 65.5569L207.595 66.3758ZM208.174 66.9104L209.014 67.7486L209.015 67.7483L208.174 66.9104ZM212.667 62.2331L211.753 61.4754L211.753 61.4756L212.667 62.2331ZM211.38 60.8705C209.698 62.3387 208.187 64.0359 206.737 65.5565L208.454 67.1951C209.983 65.592 211.367 64.0325 212.941 62.6588L211.38 60.8705ZM206.736 65.5569C206.421 65.8877 206.259 66.3291 206.307 66.7875C206.351 67.213 206.564 67.5577 206.816 67.7892C207.315 68.2487 208.285 68.4799 209.014 67.7486L207.334 66.0723C207.477 65.9281 207.698 65.8332 207.938 65.8442C208.15 65.854 208.314 65.9422 208.422 66.042C208.53 66.1412 208.644 66.3081 208.668 66.5428C208.696 66.8105 208.594 67.0482 208.454 67.1947L206.736 65.5569ZM209.015 67.7483C210.497 66.2608 212.157 64.7082 213.581 62.9906L211.753 61.4756C210.421 63.0822 208.897 64.5036 207.333 66.0726L209.015 67.7483ZM213.58 62.9909C213.836 62.6828 213.979 62.2826 213.937 61.8557C213.897 61.4478 213.697 61.1095 213.441 60.8787C212.92 60.4087 212.043 60.2909 211.379 60.8711L212.941 62.6582C212.608 62.9499 212.129 62.8921 211.851 62.6414C211.716 62.5202 211.599 62.3313 211.575 62.089C211.549 61.8277 211.642 61.6092 211.753 61.4754L213.58 62.9909Z" fill="black" mask="url(#path-3-inside-2_2_477)"/>
<mask id="path-5-inside-3_2_477" fill="white">
<path d="M60.2226 64.8467C58.5949 66.2676 57.1477 67.896 55.6577 69.4578C55.3064 69.8263 55.8791 70.3507 56.2364 69.9925C57.7597 68.4642 59.3513 66.9772 60.7293 65.3151C61.0183 64.9667 60.5526 64.5582 60.2226 64.8467Z"/>
</mask>
<path d="M60.2226 64.8467C58.5949 66.2676 57.1477 67.896 55.6577 69.4578C55.3064 69.8263 55.8791 70.3507 56.2364 69.9925C57.7597 68.4642 59.3513 66.9772 60.7293 65.3151C61.0183 64.9667 60.5526 64.5582 60.2226 64.8467Z" fill="black"/>
<path d="M60.2226 64.8467L61.0031 65.7408L61.0037 65.7403L60.2226 64.8467ZM55.6577 69.4578L54.7989 68.6385L54.7985 68.6389L55.6577 69.4578ZM56.2364 69.9925L57.0768 70.8306L57.077 70.8303L56.2364 69.9925ZM60.7293 65.3151L59.8158 64.5574L59.8156 64.5576L60.7293 65.3151ZM59.442 63.9526C57.7603 65.4207 56.2496 67.1179 54.7989 68.6385L56.5164 70.2771C58.0457 68.6741 59.4295 67.1145 61.0031 65.7408L59.442 63.9526ZM54.7985 68.6389C54.4832 68.9697 54.3216 69.4111 54.3691 69.8695C54.4132 70.295 54.6261 70.6397 54.8779 70.8713C55.3775 71.3307 56.3474 71.562 57.0768 70.8306L55.396 69.1543C55.5398 69.0102 55.7608 68.9152 56.0006 68.9263C56.2124 68.936 56.3762 69.0243 56.4848 69.1241C56.5926 69.2232 56.7059 69.3901 56.7302 69.6249C56.758 69.8925 56.6564 70.1302 56.5168 70.2767L54.7985 68.6389ZM57.077 70.8303C58.5597 69.3428 60.219 67.7902 61.643 66.0727L59.8156 64.5576C58.4836 66.1642 56.9596 67.5857 55.3958 69.1546L57.077 70.8303ZM61.6428 66.0729C61.8984 65.7648 62.0418 65.3647 61.9996 64.9377C61.9593 64.5298 61.7589 64.1915 61.503 63.9607C60.9819 63.4907 60.1051 63.373 59.4414 63.9531L61.0037 65.7403C60.6701 66.0319 60.1912 65.9742 59.9132 65.7235C59.7788 65.6022 59.6613 65.4134 59.6373 65.171C59.6115 64.9097 59.7048 64.6913 59.8158 64.5574L61.6428 66.0729Z" fill="black" mask="url(#path-5-inside-3_2_477)"/>
<mask id="path-7-inside-4_2_477" fill="white">
<path d="M249.285 64.8467C247.657 66.2676 246.21 67.896 244.72 69.4578C244.369 69.8263 244.941 70.3507 245.299 69.9925C246.822 68.4642 248.414 66.9772 249.792 65.3151C250.081 64.9667 249.615 64.5582 249.285 64.8467Z"/>
</mask>
<path d="M249.285 64.8467C247.657 66.2676 246.21 67.896 244.72 69.4578C244.369 69.8263 244.941 70.3507 245.299 69.9925C246.822 68.4642 248.414 66.9772 249.792 65.3151C250.081 64.9667 249.615 64.5582 249.285 64.8467Z" fill="black"/>
<path d="M249.285 64.8467L250.065 65.7408L250.066 65.7403L249.285 64.8467ZM244.72 69.4578L243.861 68.6385L243.861 68.6389L244.72 69.4578ZM245.299 69.9925L246.139 70.8306L246.139 70.8303L245.299 69.9925ZM249.792 65.3151L248.878 64.5574L248.878 64.5576L249.792 65.3151ZM248.504 63.9526C246.822 65.4207 245.312 67.1179 243.861 68.6385L245.579 70.2771C247.108 68.6741 248.492 67.1145 250.065 65.7408L248.504 63.9526ZM243.861 68.6389C243.545 68.9697 243.384 69.4111 243.431 69.8695C243.475 70.295 243.688 70.6397 243.94 70.8713C244.44 71.3307 245.41 71.562 246.139 70.8306L244.458 69.1543C244.602 69.0102 244.823 68.9152 245.063 68.9263C245.275 68.936 245.438 69.0243 245.547 69.1241C245.655 69.2232 245.768 69.3901 245.792 69.6249C245.82 69.8925 245.719 70.1302 245.579 70.2767L243.861 68.6389ZM246.139 70.8303C247.622 69.3428 249.281 67.7902 250.705 66.0727L248.878 64.5576C247.546 66.1642 246.022 67.5857 244.458 69.1546L246.139 70.8303ZM250.705 66.0729C250.961 65.7648 251.104 65.3647 251.062 64.9377C251.022 64.5298 250.821 64.1915 250.565 63.9607C250.044 63.4907 249.167 63.373 248.504 63.9531L250.066 65.7403C249.732 66.0319 249.253 65.9742 248.975 65.7235C248.841 65.6022 248.723 65.4134 248.7 65.171C248.674 64.9097 248.767 64.6913 248.878 64.5574L250.705 66.0729Z" fill="black" mask="url(#path-7-inside-4_2_477)"/>
<mask id="path-9-inside-5_2_477" fill="white">
<path d="M101.473 42.1597C99.8451 43.5806 98.3978 45.209 96.9078 46.7708C96.5566 47.1393 97.1293 47.6637 97.4866 47.3055C99.0098 45.7772 100.601 44.2902 101.979 42.6281C102.268 42.2797 101.803 41.8712 101.473 42.1597Z"/>
</mask>
<path d="M101.473 42.1597C99.8451 43.5806 98.3978 45.209 96.9078 46.7708C96.5566 47.1393 97.1293 47.6637 97.4866 47.3055C99.0098 45.7772 100.601 44.2902 101.979 42.6281C102.268 42.2797 101.803 41.8712 101.473 42.1597Z" fill="black"/>
<path d="M101.473 42.1597L102.253 43.0538L102.254 43.0533L101.473 42.1597ZM96.9078 46.7708L96.0491 45.9515L96.0487 45.9519L96.9078 46.7708ZM97.4866 47.3055L98.327 48.1436L98.3272 48.1433L97.4866 47.3055ZM101.979 42.6281L101.066 41.8704L101.066 41.8706L101.979 42.6281ZM100.692 41.2656C99.0104 42.7337 97.4998 44.4309 96.0491 45.9515L97.7666 47.5901C99.2959 45.9871 100.68 44.4275 102.253 43.0538L100.692 41.2656ZM96.0487 45.9519C95.7334 46.2827 95.5718 46.7241 95.6193 47.1825C95.6634 47.608 95.8763 47.9527 96.1281 48.1843C96.6277 48.6437 97.5975 48.8749 98.327 48.1436L96.6462 46.4673C96.79 46.3232 97.011 46.2282 97.2507 46.2392C97.4625 46.249 97.6264 46.3372 97.7349 46.4371C97.8428 46.5362 97.956 46.7031 97.9804 46.9379C98.0081 47.2055 97.9066 47.4432 97.7669 47.5897L96.0487 45.9519ZM98.3272 48.1433C99.8099 46.6558 101.469 45.1032 102.893 43.3857L101.066 41.8706C99.7338 43.4772 98.2097 44.8987 96.646 46.4676L98.3272 48.1433ZM102.893 43.3859C103.149 43.0778 103.292 42.6776 103.25 42.2507C103.209 41.8428 103.009 41.5045 102.753 41.2737C102.232 40.8037 101.355 40.686 100.692 41.2661L102.254 43.0533C101.92 43.3449 101.441 43.2871 101.163 43.0364C101.029 42.9152 100.911 42.7264 100.887 42.484C100.862 42.2227 100.955 42.0042 101.066 41.8704L102.893 43.3859Z" fill="black" mask="url(#path-9-inside-5_2_477)"/>
<mask id="path-11-inside-6_2_477" fill="white">
<path d="M134.861 64.9038C133.233 66.3247 131.786 67.9531 130.296 69.515C129.945 69.8835 130.518 70.4078 130.875 70.0496C132.398 68.5214 133.99 67.0343 135.368 65.3723C135.657 65.0239 135.191 64.6153 134.861 64.9038Z"/>
</mask>
<path d="M134.861 64.9038C133.233 66.3247 131.786 67.9531 130.296 69.515C129.945 69.8835 130.518 70.4078 130.875 70.0496C132.398 68.5214 133.99 67.0343 135.368 65.3723C135.657 65.0239 135.191 64.6153 134.861 64.9038Z" fill="black"/>
<path d="M134.861 64.9038L135.642 65.7979L135.642 65.7974L134.861 64.9038ZM130.296 69.515L129.437 68.6957L129.437 68.6961L130.296 69.515ZM130.875 70.0496L131.715 70.8877L131.716 70.8875L130.875 70.0496ZM135.368 65.3723L134.454 64.6145L134.454 64.6147L135.368 65.3723ZM134.081 64.0097C132.399 65.4779 130.888 67.1751 129.437 68.6957L131.155 70.3342C132.684 68.7312 134.068 67.1716 135.642 65.7979L134.081 64.0097ZM129.437 68.6961C129.122 69.0268 128.96 69.4683 129.008 69.9267C129.052 70.3522 129.265 70.6969 129.516 70.9284C130.016 71.3879 130.986 71.6191 131.715 70.8877L130.035 69.2115C130.178 69.0673 130.399 68.9723 130.639 68.9834C130.851 68.9932 131.015 69.0814 131.123 69.1812C131.231 69.2804 131.344 69.4472 131.369 69.682C131.397 69.9496 131.295 70.1873 131.155 70.3338L129.437 68.6961ZM131.716 70.8875C133.198 69.3999 134.858 67.8473 136.282 66.1298L134.454 64.6147C133.122 66.2213 131.598 67.6428 130.034 69.2117L131.716 70.8875ZM136.281 66.13C136.537 65.822 136.68 65.4218 136.638 64.9949C136.598 64.587 136.397 64.2487 136.142 64.0178C135.62 63.5479 134.744 63.4301 134.08 64.0102L135.642 65.7974C135.309 66.089 134.83 66.0313 134.552 65.7806C134.417 65.6594 134.3 65.4705 134.276 65.2282C134.25 64.9668 134.343 64.7484 134.454 64.6145L136.281 66.13Z" fill="black" mask="url(#path-11-inside-6_2_477)"/>
<mask id="path-13-inside-7_2_477" fill="white">
<path d="M153.723 44.9102C152.095 46.3311 150.648 47.9595 149.158 49.5213C148.807 49.8898 149.379 50.4142 149.737 50.0559C151.26 48.5277 152.851 47.0407 154.229 45.3786C154.518 45.0302 154.053 44.6217 153.723 44.9102Z"/>
</mask>
<path d="M153.723 44.9102C152.095 46.3311 150.648 47.9595 149.158 49.5213C148.807 49.8898 149.379 50.4142 149.737 50.0559C151.26 48.5277 152.851 47.0407 154.229 45.3786C154.518 45.0302 154.053 44.6217 153.723 44.9102Z" fill="black"/>
<path d="M153.723 44.9102L154.503 45.8043L154.504 45.8037L153.723 44.9102ZM149.158 49.5213L148.299 48.702L148.299 48.7024L149.158 49.5213ZM149.737 50.0559L150.577 50.8941L150.577 50.8938L149.737 50.0559ZM154.229 45.3786L153.316 44.6209L153.316 44.6211L154.229 45.3786ZM152.942 44.016C151.26 45.4842 149.75 47.1814 148.299 48.702L150.017 50.3406C151.546 48.7376 152.93 47.178 154.503 45.8043L152.942 44.016ZM148.299 48.7024C147.983 49.0332 147.822 49.4746 147.869 49.933C147.913 50.3585 148.126 50.7032 148.378 50.9347C148.878 51.3942 149.848 51.6254 150.577 50.8941L148.896 49.2178C149.04 49.0736 149.261 48.9787 149.501 48.9897C149.713 48.9995 149.876 49.0877 149.985 49.1875C150.093 49.2867 150.206 49.4536 150.23 49.6883C150.258 49.956 150.157 50.1937 150.017 50.3402L148.299 48.7024ZM150.577 50.8938C152.06 49.4063 153.719 47.8537 155.143 46.1361L153.316 44.6211C151.984 46.2277 150.46 47.6492 148.896 49.2181L150.577 50.8938ZM155.143 46.1364C155.399 45.8283 155.542 45.4281 155.5 45.0012C155.459 44.5933 155.259 44.255 155.003 44.0242C154.482 43.5542 153.605 43.4365 152.942 44.0166L154.504 45.8037C154.17 46.0954 153.691 46.0376 153.413 45.7869C153.279 45.6657 153.161 45.4768 153.137 45.2345C153.112 44.9732 153.205 44.7547 153.316 44.6209L155.143 46.1364Z" fill="black" mask="url(#path-13-inside-7_2_477)"/>
<mask id="path-15-inside-8_2_477" fill="white">
<path d="M15.9357 39.8602C14.0143 40.8484 12.2182 42.0813 10.3965 43.2394C9.96703 43.5127 10.397 44.1593 10.8299 43.8974C12.6757 42.78 14.578 41.7189 16.315 40.4367C16.6792 40.1679 16.3253 39.6594 15.9357 39.8602Z"/>
</mask>
<path d="M15.9357 39.8602C14.0143 40.8484 12.2182 42.0813 10.3965 43.2394C9.96703 43.5127 10.397 44.1593 10.8299 43.8974C12.6757 42.78 14.578 41.7189 16.315 40.4367C16.6792 40.1679 16.3253 39.6594 15.9357 39.8602Z" fill="black"/>
<path d="M15.9357 39.8602L16.4785 40.9156L16.4792 40.9153L15.9357 39.8602ZM10.3965 43.2394L9.75978 42.2378L9.75931 42.238L10.3965 43.2394ZM10.8299 43.8974L11.4442 44.9129L11.4445 44.9127L10.8299 43.8974ZM16.315 40.4367L15.6103 39.4816L15.6101 39.4818L16.315 40.4367ZM15.3928 38.8047C13.4076 39.8258 11.5334 41.1103 9.75978 42.2378L11.0333 44.241C12.903 43.0524 14.621 41.871 16.4785 40.9156L15.3928 38.8047ZM9.75931 42.238C9.37381 42.4834 9.11084 42.873 9.0468 43.3294C8.98736 43.7531 9.11125 44.1388 9.3 44.4241C9.67457 44.9901 10.5605 45.4476 11.4442 44.9129L10.2155 42.8819C10.3897 42.7765 10.6271 42.7374 10.8571 42.8058C11.0603 42.8662 11.1982 42.9912 11.2796 43.1141C11.3604 43.2363 11.4303 43.4255 11.3975 43.6592C11.3601 43.9257 11.2045 44.132 11.0337 44.2407L9.75931 42.238ZM11.4445 44.9127C13.2412 43.825 15.225 42.7166 17.0199 41.3915L15.6101 39.4818C13.9311 40.7213 12.1102 41.7349 10.2152 42.8821L11.4445 44.9127ZM17.0197 41.3917C17.3417 41.1541 17.5771 40.8001 17.6388 40.3756C17.6977 39.9699 17.5844 39.5934 17.3914 39.3078C16.9985 38.7264 16.1757 38.4014 15.3921 38.8051L16.4792 40.9153C16.0853 41.1182 15.6343 40.9471 15.4247 40.6369C15.3233 40.487 15.2546 40.2754 15.2896 40.0344C15.3274 39.7745 15.4704 39.5849 15.6103 39.4816L17.0197 41.3917Z" fill="black" mask="url(#path-15-inside-8_2_477)"/>
<mask id="path-17-inside-9_2_477" fill="white">
<path d="M204.998 39.8602C203.077 40.8484 201.281 42.0813 199.459 43.2394C199.029 43.5127 199.459 44.1593 199.892 43.8974C201.738 42.78 203.64 41.7189 205.377 40.4367C205.742 40.1679 205.388 39.6594 204.998 39.8602Z"/>
</mask>
<path d="M204.998 39.8602C203.077 40.8484 201.281 42.0813 199.459 43.2394C199.029 43.5127 199.459 44.1593 199.892 43.8974C201.738 42.78 203.64 41.7189 205.377 40.4367C205.742 40.1679 205.388 39.6594 204.998 39.8602Z" fill="black"/>
<path d="M204.998 39.8602L205.541 40.9156L205.542 40.9153L204.998 39.8602ZM199.459 43.2394L198.822 42.2378L198.822 42.238L199.459 43.2394ZM199.892 43.8974L200.507 44.9129L200.507 44.9127L199.892 43.8974ZM205.377 40.4367L204.673 39.4816L204.672 39.4818L205.377 40.4367ZM204.455 38.8047C202.47 39.8258 200.596 41.1103 198.822 42.2378L200.096 44.241C201.965 43.0524 203.683 41.871 205.541 40.9156L204.455 38.8047ZM198.822 42.238C198.436 42.4834 198.173 42.873 198.109 43.3294C198.05 43.7531 198.174 44.1388 198.362 44.4241C198.737 44.9901 199.623 45.4476 200.507 44.9129L199.278 42.8819C199.452 42.7765 199.689 42.7374 199.919 42.8058C200.123 42.8662 200.261 42.9912 200.342 43.1141C200.423 43.2363 200.493 43.4255 200.46 43.6592C200.423 43.9257 200.267 44.132 200.096 44.2407L198.822 42.238ZM200.507 44.9127C202.304 43.825 204.287 42.7166 206.082 41.3915L204.672 39.4818C202.993 40.7213 201.173 41.7349 199.278 42.8821L200.507 44.9127ZM206.082 41.3917C206.404 41.1541 206.639 40.8001 206.701 40.3756C206.76 39.9699 206.647 39.5934 206.454 39.3078C206.061 38.7264 205.238 38.4014 204.455 38.8051L205.542 40.9153C205.148 41.1182 204.697 40.9471 204.487 40.6369C204.386 40.487 204.317 40.2754 204.352 40.0344C204.39 39.7745 204.533 39.5849 204.673 39.4816L206.082 41.3917Z" fill="black" mask="url(#path-17-inside-9_2_477)"/>
<mask id="path-19-inside-10_2_477" fill="white">
<path d="M53.0604 42.9422C51.139 43.9304 49.3429 45.1634 47.5212 46.3214C47.0918 46.5947 47.5217 47.2413 47.9546 46.9794C49.8004 45.862 51.7028 44.801 53.4397 43.5187C53.804 43.2499 53.4501 42.7415 53.0604 42.9422Z"/>
</mask>
<path d="M53.0604 42.9422C51.139 43.9304 49.3429 45.1634 47.5212 46.3214C47.0918 46.5947 47.5217 47.2413 47.9546 46.9794C49.8004 45.862 51.7028 44.801 53.4397 43.5187C53.804 43.2499 53.4501 42.7415 53.0604 42.9422Z" fill="black"/>
<path d="M53.0604 42.9422L53.6032 43.9977L53.604 43.9973L53.0604 42.9422ZM47.5212 46.3214L46.8845 45.3198L46.884 45.3201L47.5212 46.3214ZM47.9546 46.9794L48.569 47.9949L48.5693 47.9948L47.9546 46.9794ZM53.4397 43.5187L52.7351 42.5637L52.7348 42.5638L53.4397 43.5187ZM52.5176 41.8867C50.5323 42.9078 48.6581 44.1923 46.8845 45.3198L48.158 47.323C50.0277 46.1344 51.7457 44.953 53.6032 43.9977L52.5176 41.8867ZM46.884 45.3201C46.4985 45.5654 46.2356 45.955 46.1715 46.4114C46.1121 46.8351 46.236 47.2208 46.4247 47.5061C46.7993 48.0721 47.6852 48.5296 48.569 47.9949L47.3402 45.964C47.5144 45.8585 47.7518 45.8195 47.9818 45.8878C48.1851 45.9482 48.323 46.0732 48.4043 46.1962C48.4852 46.3183 48.555 46.5076 48.5223 46.7413C48.4849 47.0077 48.3292 47.2141 48.1584 47.3227L46.884 45.3201ZM48.5693 47.9948C50.3659 46.9071 52.3497 45.7986 54.1446 44.4736L52.7348 42.5638C51.0558 43.8033 49.2349 44.8169 47.3399 45.9641L48.5693 47.9948ZM54.1444 44.4737C54.4665 44.2361 54.7018 43.8821 54.7635 43.4576C54.8224 43.052 54.7091 42.6754 54.5162 42.3898C54.1233 41.8084 53.3004 41.4834 52.5169 41.8871L53.604 43.9973C53.21 44.2002 52.759 44.0291 52.5494 43.719C52.4481 43.569 52.3794 43.3574 52.4144 43.1164C52.4521 42.8566 52.5951 42.6669 52.7351 42.5637L54.1444 44.4737Z" fill="black" mask="url(#path-19-inside-10_2_477)"/>
<mask id="path-21-inside-11_2_477" fill="white">
<path d="M242.123 42.9422C240.201 43.9304 238.405 45.1634 236.583 46.3214C236.154 46.5947 236.584 47.2413 237.017 46.9794C238.863 45.862 240.765 44.801 242.502 43.5187C242.866 43.2499 242.512 42.7415 242.123 42.9422Z"/>
</mask>
<path d="M242.123 42.9422C240.201 43.9304 238.405 45.1634 236.583 46.3214C236.154 46.5947 236.584 47.2413 237.017 46.9794C238.863 45.862 240.765 44.801 242.502 43.5187C242.866 43.2499 242.512 42.7415 242.123 42.9422Z" fill="black"/>
<path d="M242.123 42.9422L242.665 43.9977L242.666 43.9973L242.123 42.9422ZM236.583 46.3214L235.947 45.3198L235.946 45.3201L236.583 46.3214ZM237.017 46.9794L237.631 47.9949L237.631 47.9948L237.017 46.9794ZM242.502 43.5187L241.797 42.5637L241.797 42.5638L242.502 43.5187ZM241.58 41.8867C239.595 42.9078 237.72 44.1923 235.947 45.3198L237.22 47.323C239.09 46.1344 240.808 44.953 242.665 43.9977L241.58 41.8867ZM235.946 45.3201C235.561 45.5654 235.298 45.955 235.234 46.4114C235.174 46.8351 235.298 47.2208 235.487 47.5061C235.862 48.0721 236.747 48.5296 237.631 47.9949L236.402 45.964C236.577 45.8585 236.814 45.8195 237.044 45.8878C237.247 45.9482 237.385 46.0732 237.467 46.1962C237.547 46.3183 237.617 46.5076 237.584 46.7413C237.547 47.0077 237.391 47.2141 237.221 47.3227L235.946 45.3201ZM237.631 47.9948C239.428 46.9071 241.412 45.7986 243.207 44.4736L241.797 42.5638C240.118 43.8033 238.297 44.8169 236.402 45.9641L237.631 47.9948ZM243.207 44.4737C243.529 44.2361 243.764 43.8821 243.826 43.4576C243.885 43.052 243.771 42.6754 243.578 42.3898C243.185 41.8084 242.363 41.4834 241.579 41.8871L242.666 43.9973C242.272 44.2002 241.821 44.0291 241.612 43.719C241.51 43.569 241.442 43.3574 241.477 43.1164C241.514 42.8566 241.657 42.6669 241.797 42.5637L243.207 44.4737Z" fill="black" mask="url(#path-21-inside-11_2_477)"/>
<mask id="path-23-inside-12_2_477" fill="white">
<path d="M94.3104 20.2547C92.389 21.2429 90.5929 22.4759 88.7712 23.6339C88.3418 23.9072 88.7717 24.5538 89.2046 24.2919C91.0504 23.1745 92.9528 22.1135 94.6897 20.8312C95.054 20.5624 94.7001 20.054 94.3104 20.2547Z"/>
</mask>
<path d="M94.3104 20.2547C92.389 21.2429 90.5929 22.4759 88.7712 23.6339C88.3418 23.9072 88.7717 24.5538 89.2046 24.2919C91.0504 23.1745 92.9528 22.1135 94.6897 20.8312C95.054 20.5624 94.7001 20.054 94.3104 20.2547Z" fill="black"/>
<path d="M94.3104 20.2547L94.8532 21.3102L94.854 21.3098L94.3104 20.2547ZM88.7712 23.6339L88.1345 22.6323L88.134 22.6326L88.7712 23.6339ZM89.2046 24.2919L89.819 25.3074L89.8193 25.3073L89.2046 24.2919ZM94.6897 20.8312L93.9851 19.8762L93.9848 19.8763L94.6897 20.8312ZM93.7676 19.1992C91.7823 20.2203 89.9081 21.5048 88.1345 22.6323L89.408 24.6355C91.2777 23.4469 92.9957 22.2655 94.8532 21.3102L93.7676 19.1992ZM88.134 22.6326C87.7485 22.8779 87.4856 23.2675 87.4215 23.7239C87.3621 24.1476 87.486 24.5333 87.6747 24.8186C88.0493 25.3846 88.9352 25.8421 89.819 25.3074L88.5902 23.2765C88.7644 23.171 89.0018 23.132 89.2318 23.2003C89.4351 23.2607 89.573 23.3857 89.6543 23.5087C89.7352 23.6308 89.805 23.8201 89.7723 24.0538C89.7349 24.3202 89.5792 24.5266 89.4084 24.6352L88.134 22.6326ZM89.8193 25.3073C91.6159 24.2196 93.5997 23.1111 95.3946 21.7861L93.9848 19.8763C92.3058 21.1158 90.4849 22.1294 88.5899 23.2766L89.8193 25.3073ZM95.3944 21.7862C95.7165 21.5486 95.9518 21.1946 96.0135 20.7701C96.0724 20.3645 95.9591 19.9879 95.7662 19.7023C95.3733 19.1209 94.5504 18.7959 93.7669 19.1996L94.854 21.3098C94.46 21.5127 94.009 21.3416 93.7994 21.0315C93.6981 20.8815 93.6294 20.6699 93.6644 20.4289C93.7021 20.1691 93.8451 19.9794 93.9851 19.8762L95.3944 21.7862Z" fill="black" mask="url(#path-23-inside-12_2_477)"/>
<mask id="path-25-inside-13_2_477" fill="white">
<path d="M146.56 23.0042C144.639 23.9924 142.843 25.2254 141.021 26.3834C140.592 26.6567 141.022 27.3034 141.455 27.0415C143.3 25.924 145.203 24.863 146.94 23.5807C147.304 23.312 146.95 22.8035 146.56 23.0042Z"/>
</mask>
<path d="M146.56 23.0042C144.639 23.9924 142.843 25.2254 141.021 26.3834C140.592 26.6567 141.022 27.3034 141.455 27.0415C143.3 25.924 145.203 24.863 146.94 23.5807C147.304 23.312 146.95 22.8035 146.56 23.0042Z" fill="black"/>
<path d="M146.56 23.0042L147.103 24.0597L147.104 24.0593L146.56 23.0042ZM141.021 26.3834L140.385 25.3818L140.384 25.3821L141.021 26.3834ZM141.455 27.0415L142.069 28.0569L142.069 28.0568L141.455 27.0415ZM146.94 23.5807L146.235 22.6257L146.235 22.6258L146.94 23.5807ZM146.018 21.9488C144.032 22.9698 142.158 24.2543 140.385 25.3818L141.658 27.385C143.528 26.1964 145.246 25.015 147.103 24.0597L146.018 21.9488ZM140.384 25.3821C139.999 25.6274 139.736 26.0171 139.672 26.4734C139.612 26.8971 139.736 27.2828 139.925 27.5681C140.299 28.1342 141.185 28.5916 142.069 28.0569L140.84 26.026C141.014 25.9206 141.252 25.8815 141.482 25.9498C141.685 26.0102 141.823 26.1352 141.904 26.2582C141.985 26.3804 142.055 26.5696 142.022 26.8033C141.985 27.0697 141.829 27.2761 141.658 27.3847L140.384 25.3821ZM142.069 28.0568C143.866 26.9691 145.85 25.8607 147.645 24.5356L146.235 22.6258C144.556 23.8653 142.735 24.8789 140.84 26.0261L142.069 28.0568ZM147.644 24.5358C147.967 24.2981 148.202 23.9441 148.264 23.5196C148.322 23.114 148.209 22.7374 148.016 22.4518C147.623 21.8705 146.8 21.5455 146.017 21.9491L147.104 24.0593C146.71 24.2623 146.259 24.0911 146.049 23.781C145.948 23.631 145.879 23.4194 145.914 23.1785C145.952 22.9186 146.095 22.7289 146.235 22.6257L147.644 24.5358Z" fill="black" mask="url(#path-25-inside-13_2_477)"/>
<mask id="path-27-inside-14_2_477" fill="white">
<path d="M10.0466 13.0482C8.12523 14.0364 6.32912 15.2693 4.50748 16.4274C4.07799 16.7007 4.50795 17.3473 4.94083 17.0854C6.78665 15.968 8.68899 14.9069 10.426 13.6247C10.7902 13.3559 10.4363 12.8474 10.0466 13.0482Z"/>
</mask>
<path d="M10.0466 13.0482C8.12523 14.0364 6.32912 15.2693 4.50748 16.4274C4.07799 16.7007 4.50795 17.3473 4.94083 17.0854C6.78665 15.968 8.68899 14.9069 10.426 13.6247C10.7902 13.3559 10.4363 12.8474 10.0466 13.0482Z" fill="black"/>
<path d="M10.0466 13.0482L10.5895 14.1036L10.5902 14.1033L10.0466 13.0482ZM4.50748 16.4274L3.87074 15.4257L3.87028 15.426L4.50748 16.4274ZM4.94083 17.0854L5.55521 18.1009L5.5555 18.1007L4.94083 17.0854ZM10.426 13.6247L9.72129 12.6696L9.72106 12.6698L10.426 13.6247ZM9.50381 11.9927C7.51853 13.0137 5.64431 14.2983 3.87074 15.4257L5.14422 17.429C7.01393 16.2404 8.73192 15.059 10.5895 14.1036L9.50381 11.9927ZM3.87028 15.426C3.48477 15.6714 3.2218 16.061 3.15776 16.5174C3.09832 16.941 3.22221 17.3268 3.41096 17.612C3.78553 18.1781 4.67144 18.6356 5.55521 18.1009L4.32645 16.0699C4.50068 15.9645 4.73802 15.9254 4.96807 15.9938C5.17131 16.0541 5.3092 16.1792 5.39057 16.3021C5.47141 16.4243 5.54128 16.6135 5.50849 16.8472C5.4711 17.1137 5.31545 17.32 5.14469 17.4287L3.87028 15.426ZM5.5555 18.1007C7.35218 17.013 9.33591 15.9046 11.1309 14.5795L9.72106 12.6698C8.04207 13.9092 6.22112 14.9229 4.32616 16.0701L5.5555 18.1007ZM11.1306 14.5797C11.4527 14.3421 11.6881 13.9881 11.7497 13.5635C11.8086 13.1579 11.6954 12.7814 11.5024 12.4958C11.1095 11.9144 10.2867 11.5894 9.5031 11.9931L10.5902 14.1033C10.1963 14.3062 9.74524 14.1351 9.53564 13.8249C9.43431 13.675 9.3656 13.4634 9.4006 13.2224C9.43834 12.9625 9.58134 12.7729 9.72129 12.6696L11.1306 14.5797Z" fill="black" mask="url(#path-27-inside-14_2_477)"/>
<mask id="path-29-inside-15_2_477" fill="white">
<path d="M199.11 13.0482C197.188 14.0364 195.392 15.2693 193.57 16.4274C193.141 16.7007 193.571 17.3473 194.004 17.0854C195.85 15.968 197.752 14.9069 199.489 13.6247C199.853 13.3559 199.499 12.8474 199.11 13.0482Z"/>
</mask>
<path d="M199.11 13.0482C197.188 14.0364 195.392 15.2693 193.57 16.4274C193.141 16.7007 193.571 17.3473 194.004 17.0854C195.85 15.968 197.752 14.9069 199.489 13.6247C199.853 13.3559 199.499 12.8474 199.11 13.0482Z" fill="black"/>
<path d="M199.11 13.0482L199.652 14.1036L199.653 14.1033L199.11 13.0482ZM193.57 16.4274L192.934 15.4257L192.933 15.426L193.57 16.4274ZM194.004 17.0854L194.618 18.1009L194.618 18.1007L194.004 17.0854ZM199.489 13.6247L198.784 12.6696L198.784 12.6698L199.489 13.6247ZM198.567 11.9927C196.581 13.0137 194.707 14.2983 192.934 15.4257L194.207 17.429C196.077 16.2404 197.795 15.059 199.652 14.1036L198.567 11.9927ZM192.933 15.426C192.548 15.6714 192.285 16.061 192.221 16.5174C192.161 16.941 192.285 17.3268 192.474 17.612C192.848 18.1781 193.734 18.6356 194.618 18.1009L193.389 16.0699C193.564 15.9645 193.801 15.9254 194.031 15.9938C194.234 16.0541 194.372 16.1792 194.453 16.3021C194.534 16.4243 194.604 16.6135 194.571 16.8472C194.534 17.1137 194.378 17.32 194.208 17.4287L192.933 15.426ZM194.618 18.1007C196.415 17.013 198.399 15.9046 200.194 14.5795L198.784 12.6698C197.105 13.9092 195.284 14.9229 193.389 16.0701L194.618 18.1007ZM200.194 14.5797C200.516 14.3421 200.751 13.9881 200.813 13.5635C200.871 13.1579 200.758 12.7814 200.565 12.4958C200.172 11.9144 199.35 11.5894 198.566 11.9931L199.653 14.1033C199.259 14.3062 198.808 14.1351 198.599 13.8249C198.497 13.675 198.428 13.4634 198.463 13.2224C198.501 12.9625 198.644 12.7729 198.784 12.6696L200.194 14.5797Z" fill="black" mask="url(#path-29-inside-15_2_477)"/>
<path d="M21.5905 58.6481C21.5905 58.6481 21.5905 58.6481 21.5904 58.6481L21.5905 58.6481Z" fill="black" stroke="black" stroke-width="1.18688"/>
<path d="M210.653 58.6481C210.653 58.6481 210.653 58.6481 210.653 58.6481L210.653 58.6481Z" fill="black" stroke="black" stroke-width="1.18688"/>
<path d="M58.7158 61.7301C58.7158 61.7301 58.7158 61.7301 58.7158 61.7301L58.7158 61.7301Z" fill="black" stroke="black" stroke-width="1.18688"/>
<path d="M247.778 61.7301C247.778 61.7301 247.778 61.7301 247.778 61.7301L247.778 61.7301Z" fill="black" stroke="black" stroke-width="1.18688"/>
<path d="M99.9658 39.0426C99.9658 39.0426 99.9658 39.0426 99.9658 39.0426L99.9658 39.0426Z" fill="black" stroke="black" stroke-width="1.18688"/>
<path d="M133.354 61.7872C133.354 61.7872 133.354 61.7872 133.354 61.7872L133.354 61.7872Z" fill="black" stroke="black" stroke-width="1.18688"/>
<path d="M152.215 41.7931C152.215 41.7931 152.215 41.7931 152.215 41.7931L152.215 41.7931Z" fill="black" stroke="black" stroke-width="1.18688"/>
<path d="M15.221 36.4725C15.221 36.4725 15.221 36.4725 15.221 36.4725L15.221 36.4725Z" fill="black" stroke="black" stroke-width="1.18688"/>
<path d="M204.283 36.4725C204.283 36.4725 204.283 36.4725 204.283 36.4725L204.283 36.4725Z" fill="black" stroke="black" stroke-width="1.18688"/>
<path d="M9.33279 9.6605C9.33279 9.6605 9.33279 9.66051 9.33278 9.66051L9.33279 9.6605Z" fill="black" stroke="black" stroke-width="1.18688"/>
<path d="M198.395 9.6605C198.395 9.6605 198.395 9.66051 198.395 9.66051L198.395 9.6605Z" fill="black" stroke="black" stroke-width="1.18688"/>
<path d="M13.4522 58.202C14.0238 57.6446 14.598 57.0935 15.1707 56.5437C17.1378 54.6554 19.0876 52.7837 20.855 50.734C18.8204 52.4785 16.9432 54.4211 15.0493 56.3809C14.4981 56.9513 13.9455 57.5232 13.3871 58.0921C13.3671 58.1125 13.3627 58.1242 13.3625 58.1249L13.3624 58.1249C13.3624 58.1251 13.3624 58.1252 13.3623 58.1252C13.3622 58.1255 13.3622 58.1255 13.3623 58.1266C13.3627 58.1331 13.3686 58.1594 13.3964 58.1885C13.4126 58.2055 13.4266 58.2134 13.4347 58.217M13.4522 58.202C13.4523 58.202 13.4523 58.2019 13.4524 58.2019L13.8666 58.6269L13.4522 58.202ZM13.4522 58.202C13.4449 58.2092 13.439 58.2139 13.4347 58.217M13.4347 58.217C13.4295 58.2208 13.4267 58.222 13.4266 58.222C13.4266 58.222 13.427 58.2218 13.4277 58.2216C13.4319 58.22 13.4377 58.2194 13.4417 58.2197C13.4424 58.2198 13.4424 58.2198 13.4417 58.2196C13.4407 58.2193 13.4383 58.2185 13.4347 58.217Z" fill="black" stroke="black" stroke-width="1.18688"/>
<path d="M210.329 50.5914L210.329 50.5912C210.34 50.5823 210.349 50.5771 210.355 50.574C208.426 52.6812 206.287 54.5974 204.13 56.5302C203.516 57.0798 202.901 57.6309 202.289 58.188C202.266 58.2093 202.25 58.2155 202.245 58.2173C202.239 58.2193 202.234 58.2201 202.226 58.2194C202.207 58.2178 202.172 58.2058 202.14 58.1739C202.12 58.155 202.112 58.1393 202.108 58.1306C202.112 58.1252 202.119 58.1171 202.13 58.1066C202.728 57.538 203.32 56.9663 203.91 56.396C206 54.3776 208.072 52.3766 210.329 50.5914ZM210.395 50.5819C210.395 50.5819 210.395 50.5818 210.395 50.5815L210.395 50.5819Z" fill="black" stroke="black" stroke-width="1.18688"/>
<path d="M50.696 61.3583C51.2675 60.8009 51.8417 60.2497 52.4144 59.7C54.3815 57.8117 56.3314 55.94 58.0988 53.8903C56.0641 55.6348 54.1869 57.5774 52.293 59.5372C51.7418 60.1076 51.1892 60.6794 50.6308 61.2483C50.6108 61.2687 50.6064 61.2804 50.6062 61.2812L50.6062 61.2812C50.6061 61.2813 50.6061 61.2814 50.606 61.2815C50.6059 61.2817 50.6059 61.2817 50.606 61.2828C50.6064 61.2893 50.6123 61.3156 50.6401 61.3447C50.6564 61.3618 50.6703 61.3697 50.6785 61.3732M50.696 61.3583C50.696 61.3582 50.696 61.3582 50.6961 61.3581L51.1103 61.7831L50.696 61.3583ZM50.696 61.3583C50.6886 61.3654 50.6827 61.3702 50.6785 61.3732M50.6785 61.3732C50.6732 61.3771 50.6704 61.3783 50.6704 61.3782C50.6704 61.3782 50.6707 61.3781 50.6714 61.3778C50.6756 61.3763 50.6814 61.3756 50.6854 61.376C50.6861 61.376 50.6861 61.376 50.6854 61.3758C50.6844 61.3755 50.682 61.3748 50.6785 61.3732Z" fill="black" stroke="black" stroke-width="1.18688"/>
<path d="M239.44 61.3583C240.011 60.8009 240.585 60.2497 241.158 59.7C243.125 57.8117 245.075 55.94 246.842 53.8903C244.808 55.6348 242.931 57.5774 241.037 59.5372C240.485 60.1076 239.933 60.6794 239.374 61.2483C239.354 61.2687 239.35 61.2804 239.35 61.2812L239.35 61.2812C239.35 61.2813 239.35 61.2814 239.35 61.2815C239.35 61.2817 239.35 61.2817 239.35 61.2828C239.35 61.2893 239.356 61.3156 239.384 61.3447C239.4 61.3618 239.414 61.3697 239.422 61.3732M239.44 61.3583C239.44 61.3582 239.44 61.3582 239.44 61.3581L239.854 61.7831L239.44 61.3583ZM239.44 61.3583C239.432 61.3654 239.426 61.3702 239.422 61.3732M239.422 61.3732C239.417 61.3771 239.414 61.3783 239.414 61.3782C239.414 61.3782 239.414 61.3781 239.415 61.3778C239.419 61.3763 239.425 61.3756 239.429 61.376C239.43 61.376 239.43 61.376 239.429 61.3758C239.428 61.3755 239.426 61.3748 239.422 61.3732Z" fill="black" stroke="black" stroke-width="1.18688"/>
<path d="M91.7273 38.6327C92.2988 38.0753 92.873 37.5241 93.4457 36.9744C95.4128 35.0861 97.3627 33.2144 99.1301 31.1647C97.0954 32.9092 95.2182 34.8518 93.3243 36.8116C92.7731 37.382 92.2205 37.9538 91.6621 38.5227C91.6421 38.5432 91.6378 38.5548 91.6375 38.5556L91.6375 38.5556C91.6374 38.5557 91.6374 38.5558 91.6373 38.5559C91.6372 38.5561 91.6372 38.5562 91.6373 38.5573C91.6377 38.5637 91.6436 38.5901 91.6714 38.6191C91.6877 38.6362 91.7017 38.6441 91.7098 38.6477M91.7273 38.6327C91.7273 38.6326 91.7273 38.6326 91.7274 38.6325L92.1416 39.0575L91.7273 38.6327ZM91.7273 38.6327C91.7199 38.6398 91.714 38.6446 91.7098 38.6477M91.7098 38.6477C91.7045 38.6515 91.7017 38.6527 91.7017 38.6526C91.7017 38.6526 91.702 38.6525 91.7027 38.6522C91.7069 38.6507 91.7127 38.65 91.7167 38.6504C91.7174 38.6505 91.7174 38.6504 91.7167 38.6502C91.7157 38.6499 91.7133 38.6492 91.7098 38.6477Z" fill="black" stroke="black" stroke-width="1.18688"/>
<path d="M144.121 41.7889C144.693 41.2315 145.267 40.6804 145.839 40.1306C147.807 38.2423 149.756 36.3706 151.524 34.321C149.489 36.0655 147.612 38.008 145.718 39.9678C145.167 40.5382 144.614 41.1101 144.056 41.679C144.036 41.6994 144.031 41.7111 144.031 41.7118L144.031 41.7118C144.031 41.712 144.031 41.7121 144.031 41.7121C144.031 41.7124 144.031 41.7124 144.031 41.7135C144.031 41.72 144.037 41.7463 144.065 41.7754C144.081 41.7924 144.095 41.8003 144.104 41.8039M144.121 41.7889C144.121 41.7889 144.121 41.7888 144.121 41.7888L144.535 42.2138L144.121 41.7889ZM144.121 41.7889C144.114 41.7961 144.108 41.8008 144.104 41.8039M144.104 41.8039C144.098 41.8077 144.095 41.8089 144.095 41.8089C144.095 41.8089 144.096 41.8087 144.096 41.8085C144.101 41.8069 144.106 41.8063 144.11 41.8066C144.111 41.8067 144.111 41.8067 144.11 41.8065C144.109 41.8062 144.107 41.8055 144.104 41.8039Z" fill="black" stroke="black" stroke-width="1.18688"/>
<path d="M7.30203 34.3077C7.99846 33.8995 8.69598 33.498 9.39175 33.0975C11.8073 31.707 14.2018 30.3287 16.4561 28.7242C14.0059 29.9505 11.6659 31.4171 9.30525 32.8966C8.62555 33.3226 7.94414 33.7497 7.2579 34.1724C7.23218 34.1883 7.22451 34.1994 7.22368 34.2006C7.22274 34.202 7.22245 34.2025 7.22202 34.2048C7.22051 34.213 7.22037 34.2419 7.24125 34.2784C7.25522 34.3028 7.26942 34.3148 7.27678 34.3199M7.30203 34.3077C7.30208 34.3077 7.30212 34.3076 7.30217 34.3076L7.60212 34.8197L7.30203 34.3077ZM7.30203 34.3077C7.29049 34.3144 7.2821 34.3181 7.27678 34.3199M7.27678 34.3199C7.27066 34.3221 7.26859 34.322 7.27046 34.3218C7.27395 34.3214 7.27886 34.3221 7.28178 34.3231C7.28204 34.3232 7.28196 34.3231 7.2816 34.3229C7.28092 34.3226 7.27922 34.3216 7.27678 34.3199Z" fill="black" stroke="black" stroke-width="1.18688"/>
<path d="M196.365 34.3077C197.061 33.8995 197.759 33.498 198.455 33.0975C200.87 31.707 203.265 30.3287 205.519 28.7242C203.069 29.9505 200.729 31.4171 198.368 32.8966C197.688 33.3226 197.007 33.7497 196.321 34.1724C196.295 34.1883 196.287 34.1994 196.287 34.2006C196.286 34.202 196.285 34.2025 196.285 34.2048C196.283 34.213 196.283 34.2419 196.304 34.2784C196.318 34.3028 196.332 34.3148 196.34 34.3199M196.365 34.3077C196.365 34.3077 196.365 34.3076 196.365 34.3076L196.665 34.8197L196.365 34.3077ZM196.365 34.3077C196.353 34.3144 196.345 34.3181 196.34 34.3199M196.34 34.3199C196.334 34.3221 196.331 34.322 196.333 34.3218C196.337 34.3214 196.342 34.3221 196.345 34.3231C196.345 34.3232 196.345 34.3231 196.344 34.3229C196.344 34.3226 196.342 34.3216 196.34 34.3199Z" fill="black" stroke="black" stroke-width="1.18688"/>
<mask id="path-50-inside-16_2_477" fill="white">
<path d="M16.5452 48.4573C14.676 49.6646 12.9495 51.1202 11.1922 52.4986C10.7779 52.8239 11.2547 53.4712 11.6732 53.1577C13.4575 51.8201 15.3026 50.5374 16.9662 49.0347C17.3151 48.7197 16.9243 48.2121 16.5452 48.4573Z"/>
</mask>
<path d="M16.5452 48.4573C14.676 49.6646 12.9495 51.1202 11.1922 52.4986C10.7779 52.8239 11.2547 53.4712 11.6732 53.1577C13.4575 51.8201 15.3026 50.5374 16.9662 49.0347C17.3151 48.7197 16.9243 48.2121 16.5452 48.4573Z" fill="black"/>
<path d="M16.5452 48.4573L17.1892 49.4543L17.1898 49.4538L16.5452 48.4573ZM11.1922 52.4986L10.4597 51.5648L10.4592 51.5651L11.1922 52.4986ZM11.6732 53.1577L12.3848 54.1076L12.3851 54.1074L11.6732 53.1577ZM16.9662 49.0347L16.1709 48.1537L16.1707 48.1539L16.9662 49.0347ZM15.9012 47.4603C13.9714 48.7068 12.1718 50.2217 10.4597 51.5648L11.9248 53.4325C13.7271 52.0186 15.3806 50.6225 17.1892 49.4543L15.9012 47.4603ZM10.4592 51.5651C10.0973 51.8494 9.88038 52.2576 9.8497 52.701C9.821 53.1159 9.95855 53.4903 10.1632 53.7695C10.3673 54.0479 10.6874 54.2979 11.1045 54.3911C11.5535 54.4913 12.014 54.3854 12.3848 54.1076L10.9616 52.2078C11.1232 52.0868 11.3671 52.0175 11.6219 52.0744C11.8449 52.1242 11.9932 52.2509 12.0776 52.366C12.1626 52.4819 12.2324 52.653 12.2178 52.8649C12.2012 53.1053 12.08 53.3106 11.9252 53.4321L10.4592 51.5651ZM12.3851 54.1074C14.1236 52.8041 16.0448 51.4663 17.7618 49.9155L16.1707 48.1539C14.5604 49.6084 12.7914 50.8361 10.9613 52.208L12.3851 54.1074ZM17.7616 49.9157C18.4279 49.3141 18.4175 48.4109 17.979 47.8249C17.5474 47.248 16.6733 46.9609 15.9006 47.4607L17.1898 49.4538C17.0344 49.5544 16.8109 49.6114 16.5722 49.5605C16.3522 49.5136 16.1847 49.389 16.0784 49.247C15.9715 49.1041 15.901 48.9096 15.9173 48.6898C15.9347 48.453 16.0468 48.2657 16.1709 48.1537L17.7616 49.9157Z" fill="black" mask="url(#path-50-inside-16_2_477)"/>
<mask id="path-52-inside-17_2_477" fill="white">
<path d="M205.607 48.4573C203.738 49.6646 202.011 51.1202 200.254 52.4986C199.84 52.8239 200.317 53.4712 200.735 53.1577C202.52 51.8201 204.365 50.5374 206.028 49.0347C206.377 48.7197 205.986 48.2121 205.607 48.4573Z"/>
</mask>
<path d="M205.607 48.4573C203.738 49.6646 202.011 51.1202 200.254 52.4986C199.84 52.8239 200.317 53.4712 200.735 53.1577C202.52 51.8201 204.365 50.5374 206.028 49.0347C206.377 48.7197 205.986 48.2121 205.607 48.4573Z" fill="black"/>
<path d="M205.607 48.4573L206.251 49.4543L206.252 49.4538L205.607 48.4573ZM200.254 52.4986L199.522 51.5648L199.521 51.5651L200.254 52.4986ZM200.735 53.1577L201.447 54.1076L201.447 54.1074L200.735 53.1577ZM206.028 49.0347L205.233 48.1537L205.233 48.1539L206.028 49.0347ZM204.963 47.4603C203.033 48.7068 201.234 50.2217 199.522 51.5648L200.987 53.4325C202.789 52.0186 204.443 50.6225 206.251 49.4543L204.963 47.4603ZM199.521 51.5651C199.159 51.8494 198.942 52.2576 198.912 52.701C198.883 53.1159 199.021 53.4903 199.225 53.7695C199.429 54.0479 199.749 54.2979 200.167 54.3911C200.615 54.4913 201.076 54.3854 201.447 54.1076L200.024 52.2078C200.185 52.0868 200.429 52.0175 200.684 52.0744C200.907 52.1242 201.055 52.2509 201.14 52.366C201.225 52.4819 201.294 52.653 201.28 52.8649C201.263 53.1053 201.142 53.3106 200.987 53.4321L199.521 51.5651ZM201.447 54.1074C203.186 52.8041 205.107 51.4663 206.824 49.9155L205.233 48.1539C203.622 49.6084 201.853 50.8361 200.023 52.208L201.447 54.1074ZM206.824 49.9157C207.49 49.3141 207.479 48.4109 207.041 47.8249C206.609 47.248 205.735 46.9609 204.963 47.4607L206.252 49.4538C206.096 49.5544 205.873 49.6114 205.634 49.5605C205.414 49.5136 205.247 49.389 205.14 49.247C205.033 49.1041 204.963 48.9096 204.979 48.6898C204.997 48.453 205.109 48.2657 205.233 48.1537L206.824 49.9157Z" fill="black" mask="url(#path-52-inside-17_2_477)"/>
<mask id="path-54-inside-18_2_477" fill="white">
<path d="M53.6697 51.5388C51.8005 52.7462 50.074 54.2017 48.3167 55.5802C47.9024 55.9055 48.3792 56.5528 48.7977 56.2393C50.5821 54.9016 52.4272 53.6189 54.0907 52.1162C54.4396 51.8013 54.0488 51.2936 53.6697 51.5388Z"/>
</mask>
<path d="M53.6697 51.5388C51.8005 52.7462 50.074 54.2017 48.3167 55.5802C47.9024 55.9055 48.3792 56.5528 48.7977 56.2393C50.5821 54.9016 52.4272 53.6189 54.0907 52.1162C54.4396 51.8013 54.0488 51.2936 53.6697 51.5388Z" fill="black"/>
<path d="M53.6697 51.5388L54.3137 52.5358L54.3144 52.5354L53.6697 51.5388ZM48.3167 55.5802L47.5842 54.6463L47.5838 54.6467L48.3167 55.5802ZM48.7977 56.2393L49.5093 57.1891L49.5096 57.1889L48.7977 56.2393ZM54.0907 52.1162L53.2954 51.2353L53.2952 51.2355L54.0907 52.1162ZM53.0257 50.5418C51.0959 51.7884 49.2964 53.3032 47.5842 54.6463L49.0493 56.514C50.8516 55.1002 52.5051 53.704 54.3137 52.5358L53.0257 50.5418ZM47.5838 54.6467C47.2218 54.9309 47.0049 55.3391 46.9742 55.7826C46.9455 56.1975 47.0831 56.5718 47.2877 56.851C47.4919 57.1295 47.812 57.3795 48.2291 57.4726C48.678 57.5729 49.1385 57.467 49.5093 57.1891L48.0861 55.2894C48.2477 55.1683 48.4917 55.0991 48.7464 55.1559C48.9694 55.2057 49.1177 55.3324 49.2021 55.4475C49.2871 55.5634 49.357 55.7346 49.3423 55.9464C49.3257 56.1868 49.2045 56.3921 49.0497 56.5137L47.5838 54.6467ZM49.5096 57.1889C51.2481 55.8857 53.1694 54.5479 54.8863 52.997L53.2952 51.2355C51.685 52.6899 49.916 53.9176 48.0858 55.2896L49.5096 57.1889ZM54.8861 52.9972C55.5524 52.3956 55.542 51.4925 55.1035 50.9064C54.6719 50.3295 53.7978 50.0424 53.0251 50.5423L54.3144 52.5354C54.1589 52.6359 53.9354 52.693 53.6967 52.642C53.4768 52.5951 53.3092 52.4706 53.2029 52.3285C53.096 52.1856 53.0256 51.9912 53.0418 51.7713C53.0592 51.5345 53.1713 51.3473 53.2954 51.2353L54.8861 52.9972Z" fill="black" mask="url(#path-54-inside-18_2_477)"/>
<mask id="path-56-inside-19_2_477" fill="white">
<path d="M242.732 51.5388C240.863 52.7462 239.136 54.2017 237.379 55.5802C236.965 55.9055 237.442 56.5528 237.86 56.2393C239.644 54.9016 241.49 53.6189 243.153 52.1162C243.502 51.8013 243.111 51.2936 242.732 51.5388Z"/>
</mask>
<path d="M242.732 51.5388C240.863 52.7462 239.136 54.2017 237.379 55.5802C236.965 55.9055 237.442 56.5528 237.86 56.2393C239.644 54.9016 241.49 53.6189 243.153 52.1162C243.502 51.8013 243.111 51.2936 242.732 51.5388Z" fill="black"/>
<path d="M242.732 51.5388L243.376 52.5358L243.377 52.5354L242.732 51.5388ZM237.379 55.5802L236.647 54.6463L236.646 54.6467L237.379 55.5802ZM237.86 56.2393L238.572 57.1891L238.572 57.1889L237.86 56.2393ZM243.153 52.1162L242.358 51.2353L242.358 51.2355L243.153 52.1162ZM242.088 50.5418C240.158 51.7884 238.359 53.3032 236.647 54.6463L238.112 56.514C239.914 55.1002 241.567 53.704 243.376 52.5358L242.088 50.5418ZM236.646 54.6467C236.284 54.9309 236.067 55.3391 236.037 55.7826C236.008 56.1975 236.145 56.5718 236.35 56.851C236.554 57.1295 236.874 57.3795 237.291 57.4726C237.74 57.5729 238.201 57.467 238.572 57.1891L237.148 55.2894C237.31 55.1683 237.554 55.0991 237.809 55.1559C238.032 55.2057 238.18 55.3324 238.265 55.4475C238.349 55.5634 238.419 55.7346 238.405 55.9464C238.388 56.1868 238.267 56.3921 238.112 56.5137L236.646 54.6467ZM238.572 57.1889C240.311 55.8857 242.232 54.5479 243.949 52.997L242.358 51.2355C240.747 52.6899 238.978 53.9176 237.148 55.2896L238.572 57.1889ZM243.948 52.9972C244.615 52.3956 244.604 51.4925 244.166 50.9064C243.734 50.3295 242.86 50.0424 242.087 50.5423L243.377 52.5354C243.221 52.6359 242.998 52.693 242.759 52.642C242.539 52.5951 242.372 52.4706 242.265 52.3285C242.158 52.1856 242.088 51.9912 242.104 51.7713C242.122 51.5345 242.234 51.3473 242.358 51.2353L243.948 52.9972Z" fill="black" mask="url(#path-56-inside-19_2_477)"/>
<mask id="path-58-inside-20_2_477" fill="white">
<path d="M94.9197 28.8513C93.0505 30.0587 91.324 31.5142 89.5667 32.8927C89.1524 33.218 89.6292 33.8653 90.0477 33.5518C91.8321 32.2141 93.6772 30.9314 95.3407 29.4287C95.6896 29.1138 95.2988 28.6061 94.9197 28.8513Z"/>
</mask>
<path d="M94.9197 28.8513C93.0505 30.0587 91.324 31.5142 89.5667 32.8927C89.1524 33.218 89.6292 33.8653 90.0477 33.5518C91.8321 32.2141 93.6772 30.9314 95.3407 29.4287C95.6896 29.1138 95.2988 28.6061 94.9197 28.8513Z" fill="black"/>
<path d="M94.9197 28.8513L95.5637 29.8483L95.5644 29.8479L94.9197 28.8513ZM89.5667 32.8927L88.8342 31.9588L88.8338 31.9592L89.5667 32.8927ZM90.0477 33.5518L90.7593 34.5016L90.7596 34.5014L90.0477 33.5518ZM95.3407 29.4287L94.5454 28.5478L94.5452 28.548L95.3407 29.4287ZM94.2757 27.8543C92.3459 29.1009 90.5464 30.6157 88.8342 31.9588L90.2993 33.8265C92.1016 32.4127 93.7551 31.0165 95.5637 29.8483L94.2757 27.8543ZM88.8338 31.9592C88.4718 32.2434 88.2549 32.6516 88.2242 33.0951C88.1955 33.51 88.3331 33.8843 88.5377 34.1635C88.7419 34.442 89.062 34.692 89.4791 34.7851C89.928 34.8854 90.3885 34.7795 90.7593 34.5016L89.3361 32.6019C89.4977 32.4808 89.7417 32.4116 89.9964 32.4684C90.2194 32.5182 90.3677 32.6449 90.4521 32.76C90.5371 32.8759 90.607 33.0471 90.5923 33.2589C90.5757 33.4993 90.4545 33.7046 90.2997 33.8262L88.8338 31.9592ZM90.7596 34.5014C92.4981 33.1982 94.4194 31.8604 96.1363 30.3095L94.5452 28.548C92.935 30.0024 91.166 31.2301 89.3358 32.6021L90.7596 34.5014ZM96.1361 30.3097C96.8024 29.7081 96.792 28.805 96.3535 28.2189C95.9219 27.642 95.0478 27.3549 94.2751 27.8548L95.5644 29.8479C95.4089 29.9484 95.1854 30.0055 94.9467 29.9545C94.7268 29.9076 94.5592 29.7831 94.4529 29.641C94.346 29.4981 94.2756 29.3037 94.2918 29.0838C94.3092 28.847 94.4213 28.6598 94.5454 28.5478L96.1361 30.3097Z" fill="black" mask="url(#path-58-inside-20_2_477)"/>
<mask id="path-60-inside-21_2_477" fill="white">
<path d="M147.17 31.6013C145.301 32.8087 143.574 34.2642 141.817 35.6427C141.403 35.968 141.879 36.6153 142.298 36.3018C144.082 34.9641 145.927 33.6814 147.591 32.1787C147.94 31.8638 147.549 31.3561 147.17 31.6013Z"/>
</mask>
<path d="M147.17 31.6013C145.301 32.8087 143.574 34.2642 141.817 35.6427C141.403 35.968 141.879 36.6153 142.298 36.3018C144.082 34.9641 145.927 33.6814 147.591 32.1787C147.94 31.8638 147.549 31.3561 147.17 31.6013Z" fill="black"/>
<path d="M147.17 31.6013L147.814 32.5983L147.815 32.5979L147.17 31.6013ZM141.817 35.6427L141.084 34.7088L141.084 34.7092L141.817 35.6427ZM142.298 36.3018L143.01 37.2516L143.01 37.2514L142.298 36.3018ZM147.591 32.1787L146.796 31.2978L146.795 31.298L147.591 32.1787ZM146.526 30.6043C144.596 31.8509 142.797 33.3657 141.084 34.7088L142.55 36.5765C144.352 35.1627 146.005 33.7665 147.814 32.5983L146.526 30.6043ZM141.084 34.7092C140.722 34.9934 140.505 35.4016 140.474 35.8451C140.446 36.26 140.583 36.6343 140.788 36.9135C140.992 37.192 141.312 37.442 141.729 37.5351C142.178 37.6354 142.639 37.5295 143.01 37.2516L141.586 35.3519C141.748 35.2308 141.992 35.1616 142.247 35.2184C142.47 35.2682 142.618 35.3949 142.702 35.51C142.787 35.6259 142.857 35.7971 142.843 36.0089C142.826 36.2493 142.705 36.4546 142.55 36.5762L141.084 34.7092ZM143.01 37.2514C144.748 35.9482 146.67 34.6104 148.387 33.0595L146.795 31.298C145.185 32.7524 143.416 33.9801 141.586 35.3521L143.01 37.2514ZM148.386 33.0597C149.053 32.4581 149.042 31.555 148.604 30.9689C148.172 30.392 147.298 30.1049 146.525 30.6048L147.815 32.5979C147.659 32.6984 147.436 32.7555 147.197 32.7045C146.977 32.6576 146.809 32.5331 146.703 32.391C146.596 32.2481 146.526 32.0537 146.542 31.8338C146.559 31.597 146.672 31.4098 146.796 31.2978L148.386 33.0597Z" fill="black" mask="url(#path-60-inside-21_2_477)"/>
<mask id="path-62-inside-22_2_477" fill="white">
<path d="M12.7719 25.3679C10.6674 26.0907 8.64173 27.0888 6.60473 28.0046C6.12442 28.2209 6.43169 28.9638 6.91324 28.76C8.96672 27.8903 11.066 27.0885 13.0419 26.0296C13.4562 25.8077 13.1988 25.221 12.7719 25.3679Z"/>
</mask>
<path d="M12.7719 25.3679C10.6674 26.0907 8.64173 27.0888 6.60473 28.0046C6.12442 28.2209 6.43169 28.9638 6.91324 28.76C8.96672 27.8903 11.066 27.0885 13.0419 26.0296C13.4562 25.8077 13.1988 25.221 12.7719 25.3679Z" fill="black"/>
<path d="M12.7719 25.3679L13.1575 26.4904L13.1582 26.4901L12.7719 25.3679ZM6.60473 28.0046L6.11803 26.9221L6.11753 26.9224L6.60473 28.0046ZM6.91324 28.76L7.37579 29.853L7.3761 29.8529L6.91324 28.76ZM13.0419 26.0296L12.4815 24.9833L12.4813 24.9834L13.0419 26.0296ZM12.3864 24.2454C10.2136 24.9917 8.10276 26.0298 6.11803 26.9221L7.09144 29.0871C9.1807 28.1478 11.1212 27.1898 13.1575 26.4904L12.3864 24.2454ZM6.11753 26.9224C5.69787 27.1113 5.38925 27.4554 5.25291 27.8785C5.12536 28.2744 5.16892 28.6708 5.30051 28.991C5.43175 29.3103 5.68241 29.63 6.06491 29.8206C6.47658 30.0258 6.94905 30.0336 7.37579 29.853L6.45069 27.6669C6.63665 27.5883 6.89013 27.5796 7.12376 27.6961C7.32822 27.798 7.44179 27.9566 7.49606 28.0886C7.55068 28.2215 7.57739 28.4045 7.51226 28.6066C7.43835 28.8359 7.27144 29.0061 7.09194 29.0869L6.11753 26.9224ZM7.3761 29.8529C9.37686 29.0055 11.5632 28.1686 13.6025 27.0757L12.4813 24.9834C10.5687 26.0084 8.55658 26.7751 6.45038 27.6671L7.3761 29.8529ZM13.6023 27.0758C14.3936 26.652 14.6005 25.7728 14.3157 25.0986C14.0353 24.4348 13.2558 23.9461 12.3856 24.2456L13.1582 26.4901C12.9832 26.5504 12.7525 26.5521 12.5331 26.4453C12.3308 26.3469 12.1981 26.1857 12.129 26.0223C12.0596 25.8579 12.038 25.6522 12.1065 25.4427C12.1804 25.2171 12.3342 25.0622 12.4815 24.9833L13.6023 27.0758Z" fill="black" mask="url(#path-62-inside-22_2_477)"/>
<mask id="path-64-inside-23_2_477" fill="white">
<path d="M201.834 25.3679C199.729 26.0907 197.704 27.0888 195.667 28.0046C195.186 28.2209 195.494 28.9638 195.975 28.76C198.029 27.8903 200.128 27.0885 202.104 26.0296C202.518 25.8077 202.261 25.221 201.834 25.3679Z"/>
</mask>
<path d="M201.834 25.3679C199.729 26.0907 197.704 27.0888 195.667 28.0046C195.186 28.2209 195.494 28.9638 195.975 28.76C198.029 27.8903 200.128 27.0885 202.104 26.0296C202.518 25.8077 202.261 25.221 201.834 25.3679Z" fill="black"/>
<path d="M201.834 25.3679L202.219 26.4904L202.22 26.4901L201.834 25.3679ZM195.667 28.0046L195.18 26.9221L195.18 26.9224L195.667 28.0046ZM195.975 28.76L196.438 29.853L196.438 29.8529L195.975 28.76ZM202.104 26.0296L201.544 24.9833L201.543 24.9834L202.104 26.0296ZM201.448 24.2454C199.276 24.9917 197.165 26.0298 195.18 26.9221L196.153 29.0871C198.243 28.1478 200.183 27.1898 202.219 26.4904L201.448 24.2454ZM195.18 26.9224C194.76 27.1113 194.451 27.4554 194.315 27.8785C194.187 28.2744 194.231 28.6708 194.363 28.991C194.494 29.3103 194.744 29.63 195.127 29.8206C195.539 30.0258 196.011 30.0336 196.438 29.853L195.513 27.6669C195.699 27.5883 195.952 27.5796 196.186 27.6961C196.39 27.798 196.504 27.9566 196.558 28.0886C196.613 28.2215 196.639 28.4045 196.574 28.6066C196.5 28.8359 196.333 29.0061 196.154 29.0869L195.18 26.9224ZM196.438 29.8529C198.439 29.0055 200.625 28.1686 202.665 27.0757L201.543 24.9834C199.631 26.0084 197.619 26.7751 195.512 27.6671L196.438 29.8529ZM202.664 27.0758C203.456 26.652 203.662 25.7728 203.378 25.0986C203.097 24.4348 202.318 23.9461 201.448 24.2456L202.22 26.4901C202.045 26.5504 201.815 26.5521 201.595 26.4453C201.393 26.3469 201.26 26.1857 201.191 26.0223C201.122 25.8579 201.1 25.6522 201.169 25.4427C201.242 25.2171 201.396 25.0622 201.544 24.9833L202.664 27.0758Z" fill="black" mask="url(#path-64-inside-23_2_477)"/>
<mask id="path-66-inside-24_2_477" fill="white">
<path d="M14.05 45.6421C12.2965 46.9631 10.7224 48.4932 9.10636 49.9567C8.72542 50.302 9.30016 50.8348 9.68697 50.4997C11.3362 49.0702 13.0549 47.6834 14.5584 46.1179C14.8737 45.7897 14.4056 45.3739 14.05 45.6421Z"/>
</mask>
<path d="M14.05 45.6421C12.2965 46.9631 10.7224 48.4932 9.10636 49.9567C8.72542 50.302 9.30016 50.8348 9.68697 50.4997C11.3362 49.0702 13.0549 47.6834 14.5584 46.1179C14.8737 45.7897 14.4056 45.3739 14.05 45.6421Z" fill="black"/>
<path d="M14.05 45.6421L14.7642 46.5901L14.7648 46.5896L14.05 45.6421ZM9.10636 49.9567L8.30964 49.077L8.30923 49.0774L9.10636 49.9567ZM9.68697 50.4997L10.4641 51.3968L10.4644 51.3966L9.68697 50.4997ZM14.5584 46.1179L13.7025 45.2956L13.7023 45.2958L14.5584 46.1179ZM13.3359 44.6941C11.5256 46.0579 9.8839 47.6512 8.30964 49.077L9.90309 50.8364C11.5608 49.3351 13.0674 47.8683 14.7642 46.5901L13.3359 44.6941ZM8.30923 49.0774C7.97037 49.3845 7.76455 49.8264 7.79785 50.3151C7.82844 50.764 8.05098 51.1202 8.29994 51.352C8.78793 51.8064 9.71586 52.045 10.4641 51.3968L8.90982 49.6027C9.05869 49.4737 9.26615 49.405 9.47456 49.4218C9.66018 49.4367 9.8104 49.515 9.91758 49.6148C10.0221 49.7121 10.1482 49.8913 10.1661 50.1537C10.1867 50.4558 10.0519 50.7016 9.9035 50.8361L8.30923 49.0774ZM10.4644 51.3966C12.0701 50.0047 13.8611 48.5574 15.4144 46.94L13.7023 45.2958C12.2487 46.8093 10.6022 48.1357 8.90957 49.6029L10.4644 51.3966ZM15.4142 46.9402C15.6929 46.6502 15.8751 46.2471 15.8465 45.7928C15.8193 45.3609 15.6095 45.0113 15.3561 44.7799C14.8504 44.3181 14.0096 44.1859 13.3353 44.6946L14.7648 46.5896C14.4461 46.8301 14.017 46.7717 13.7554 46.5328C13.6241 46.4129 13.4944 46.212 13.4774 45.942C13.459 45.6496 13.5815 45.4215 13.7025 45.2956L15.4142 46.9402Z" fill="black" mask="url(#path-66-inside-24_2_477)"/>
<mask id="path-68-inside-25_2_477" fill="white">
<path d="M203.425 45.6421C201.671 46.9631 200.097 48.4932 198.481 49.9567C198.1 50.302 198.675 50.8348 199.062 50.4997C200.711 49.0702 202.43 47.6834 203.933 46.1179C204.248 45.7897 203.78 45.3739 203.425 45.6421Z"/>
</mask>
<path d="M203.425 45.6421C201.671 46.9631 200.097 48.4932 198.481 49.9567C198.1 50.302 198.675 50.8348 199.062 50.4997C200.711 49.0702 202.43 47.6834 203.933 46.1179C204.248 45.7897 203.78 45.3739 203.425 45.6421Z" fill="black"/>
<path d="M203.425 45.6421L204.139 46.5901L204.14 46.5896L203.425 45.6421ZM198.481 49.9567L197.684 49.077L197.684 49.0774L198.481 49.9567ZM199.062 50.4997L199.839 51.3968L199.839 51.3966L199.062 50.4997ZM203.933 46.1179L203.077 45.2956L203.077 45.2958L203.933 46.1179ZM202.711 44.6941C200.9 46.0579 199.259 47.6512 197.684 49.077L199.278 50.8364C200.936 49.3351 202.442 47.8683 204.139 46.5901L202.711 44.6941ZM197.684 49.0774C197.345 49.3845 197.139 49.8264 197.173 50.3151C197.203 50.764 197.426 51.1202 197.675 51.352C198.163 51.8064 199.091 52.045 199.839 51.3968L198.285 49.6027C198.433 49.4737 198.641 49.405 198.849 49.4218C199.035 49.4367 199.185 49.515 199.292 49.6148C199.397 49.7121 199.523 49.8913 199.541 50.1537C199.561 50.4558 199.427 50.7016 199.278 50.8361L197.684 49.0774ZM199.839 51.3966C201.445 50.0047 203.236 48.5574 204.789 46.94L203.077 45.2958C201.623 46.8093 199.977 48.1357 198.284 49.6029L199.839 51.3966ZM204.789 46.9402C205.068 46.6502 205.25 46.2471 205.221 45.7928C205.194 45.3609 204.984 45.0113 204.731 44.7799C204.225 44.3181 203.384 44.1859 202.71 44.6946L204.14 46.5896C203.821 46.8301 203.392 46.7717 203.13 46.5328C202.999 46.4129 202.869 46.212 202.852 45.942C202.834 45.6496 202.956 45.4215 203.077 45.2956L204.789 46.9402Z" fill="black" mask="url(#path-68-inside-25_2_477)"/>
<mask id="path-70-inside-26_2_477" fill="white">
<path d="M51.2939 48.1782C49.5404 49.6644 47.9662 51.3857 46.3502 53.0322C45.9693 53.4207 46.544 54.0201 46.9308 53.6431C48.58 52.0348 50.2987 50.4747 51.8022 48.7135C52.1175 48.3443 51.6494 47.8765 51.2939 48.1782Z"/>
</mask>
<path d="M51.2939 48.1782C49.5404 49.6644 47.9662 51.3857 46.3502 53.0322C45.9693 53.4207 46.544 54.0201 46.9308 53.6431C48.58 52.0348 50.2987 50.4747 51.8022 48.7135C52.1175 48.3443 51.6494 47.8765 51.2939 48.1782Z" fill="black"/>
<path d="M51.2939 48.1782L52.0613 49.0837L52.0619 49.0831L51.2939 48.1782ZM46.3502 53.0322L45.5031 52.2008L45.5028 52.2012L46.3502 53.0322ZM46.9308 53.6431L47.7592 54.493L47.7594 54.4928L46.9308 53.6431ZM51.8022 48.7135L50.8997 47.9427L50.8995 47.9429L51.8022 48.7135ZM50.5265 47.2728C48.7179 48.8056 47.079 50.5952 45.5031 52.2008L47.1973 53.8635C48.8534 52.1762 50.3628 50.5232 52.0613 49.0837L50.5265 47.2728ZM45.5028 52.2012C45.1775 52.5329 45.014 52.9692 45.0411 53.4163C45.0665 53.8348 45.2528 54.1914 45.4941 54.4442C45.7348 54.6964 46.0876 54.9046 46.5165 54.9434C46.9778 54.9851 47.4243 54.8195 47.7592 54.493L46.1024 52.7931C46.2439 52.6552 46.4735 52.556 46.7302 52.5792C46.9544 52.5995 47.1148 52.7043 47.2111 52.8052C47.308 52.9067 47.3979 53.0642 47.4105 53.2728C47.4249 53.51 47.3324 53.7257 47.1976 53.8631L45.5028 52.2012ZM47.7594 54.4928C49.3676 52.9245 51.1547 51.3 52.7049 49.4841L50.8995 47.9429C49.4427 49.6494 47.7924 51.1451 46.1022 52.7933L47.7594 54.4928ZM52.7047 49.4843C53.2927 48.7958 53.1645 47.8949 52.6501 47.3664C52.1436 46.8461 51.2332 46.673 50.5259 47.2733L52.0619 49.0831C51.9236 49.2005 51.7124 49.2851 51.472 49.2657C51.2506 49.2478 51.0709 49.1473 50.9491 49.0221C50.8266 48.8963 50.7329 48.7152 50.7208 48.498C50.7077 48.2639 50.7937 48.0668 50.8997 47.9427L52.7047 49.4843Z" fill="black" mask="url(#path-70-inside-26_2_477)"/>
<mask id="path-72-inside-27_2_477" fill="white">
<path d="M240.105 48.1782C238.547 49.6644 237.147 51.3857 235.711 53.0322C235.372 53.4207 235.883 54.0201 236.227 53.6431C237.693 52.0348 239.221 50.4747 240.557 48.7135C240.838 48.3443 240.421 47.8765 240.105 48.1782Z"/>
</mask>
<path d="M240.105 48.1782C238.547 49.6644 237.147 51.3857 235.711 53.0322C235.372 53.4207 235.883 54.0201 236.227 53.6431C237.693 52.0348 239.221 50.4747 240.557 48.7135C240.838 48.3443 240.421 47.8765 240.105 48.1782Z" fill="black"/>
<path d="M240.105 48.1782L240.924 49.0372L240.925 49.0367L240.105 48.1782ZM235.711 53.0322L234.817 52.2519L234.816 52.2523L235.711 53.0322ZM236.227 53.6431L237.104 54.4429L237.104 54.4426L236.227 53.6431ZM240.557 48.7135L239.612 47.9958L239.612 47.996L240.557 48.7135ZM239.286 47.3192C237.675 48.8553 236.215 50.6488 234.817 52.2519L236.605 53.8124C238.08 52.1226 239.418 50.4735 240.924 49.0372L239.286 47.3192ZM234.816 52.2523C234.182 52.9807 234.385 53.8933 234.808 54.3926C235.025 54.6484 235.374 54.8953 235.834 54.9421C236.34 54.9935 236.794 54.783 237.104 54.4429L235.35 52.8433C235.488 52.6917 235.75 52.5476 236.074 52.5805C236.352 52.6088 236.53 52.7523 236.618 52.8568C236.785 53.0535 236.902 53.4722 236.606 53.812L234.816 52.2523ZM237.104 54.4426C238.532 52.876 240.124 51.2486 241.503 49.4309L239.612 47.996C238.318 49.7008 236.854 51.1937 235.35 52.8435L237.104 54.4426ZM241.503 49.4312C242.004 48.7713 241.904 47.9396 241.453 47.4177C241.23 47.1605 240.888 46.9399 240.456 46.9007C239.999 46.859 239.584 47.035 239.286 47.3198L240.925 49.0367C240.785 49.1706 240.541 49.2919 240.241 49.2646C239.968 49.2398 239.771 49.1026 239.657 48.9708C239.423 48.6997 239.391 48.2865 239.612 47.9958L241.503 49.4312Z" fill="black" mask="url(#path-72-inside-27_2_477)"/>
<mask id="path-74-inside-28_2_477" fill="white">
<path d="M92.393 26.0733C90.8343 27.3943 89.435 28.9243 87.9986 30.3879C87.66 30.7332 88.1709 31.266 88.5147 30.9309C89.9806 29.5013 91.5084 28.1145 92.8448 26.549C93.1251 26.2209 92.709 25.805 92.393 26.0733Z"/>
</mask>
<path d="M92.393 26.0733C90.8343 27.3943 89.435 28.9243 87.9986 30.3879C87.66 30.7332 88.1709 31.266 88.5147 30.9309C89.9806 29.5013 91.5084 28.1145 92.8448 26.549C93.1251 26.2209 92.709 25.805 92.393 26.0733Z" fill="black"/>
<path d="M92.393 26.0733L93.1604 26.9787L93.161 26.9782L92.393 26.0733ZM87.9986 30.3879L87.1515 29.5565L87.1511 29.5569L87.9986 30.3879ZM88.5147 30.9309L89.3431 31.7809L89.3433 31.7806L88.5147 30.9309ZM92.8448 26.549L91.9423 25.7782L91.9421 25.7784L92.8448 26.549ZM91.6256 25.1678C90.0119 26.5355 88.5478 28.1339 87.1515 29.5565L88.8456 31.2192C90.3222 29.7148 91.6567 28.253 93.1604 26.9787L91.6256 25.1678ZM87.1511 29.5569C86.8365 29.8778 86.6769 30.3019 86.7033 30.7373C86.728 31.1441 86.9089 31.4897 87.1422 31.7341C87.3749 31.9778 87.717 32.1803 88.1345 32.218C88.5845 32.2587 89.0189 32.0968 89.3431 31.7809L87.6863 30.0809C87.8386 29.9325 88.0801 29.8297 88.3482 29.8539C88.5839 29.8752 88.7549 29.9858 88.8592 30.095C88.9642 30.2049 89.0594 30.3735 89.0727 30.5938C89.0878 30.8426 88.9914 31.0706 88.846 31.2188L87.1511 29.5569ZM89.3433 31.7806C90.7683 30.391 92.3644 28.9398 93.7475 27.3196L91.9421 25.7784C90.6524 27.2892 89.193 28.6116 87.686 30.0812L89.3433 31.7806ZM93.7473 27.3199C94.3178 26.6519 94.1938 25.7742 93.693 25.2597C93.2001 24.7533 92.3126 24.5848 91.625 25.1683L93.161 26.9782C93.0128 27.1039 92.7909 27.1915 92.5406 27.1713C92.3094 27.1526 92.1206 27.0475 91.992 26.9154C91.8627 26.7825 91.7646 26.5922 91.7519 26.3649C91.7382 26.1206 91.8275 25.9126 91.9423 25.7782L93.7473 27.3199Z" fill="black" mask="url(#path-74-inside-28_2_477)"/>
<mask id="path-76-inside-29_2_477" fill="white">
<path d="M144.719 28.6094C142.965 30.0955 141.391 31.8168 139.775 33.4633C139.394 33.8518 139.969 34.4512 140.356 34.0742C142.005 32.466 143.723 30.9058 145.227 29.1446C145.542 28.7755 145.074 28.3076 144.719 28.6094Z"/>
</mask>
<path d="M144.719 28.6094C142.965 30.0955 141.391 31.8168 139.775 33.4633C139.394 33.8518 139.969 34.4512 140.356 34.0742C142.005 32.466 143.723 30.9058 145.227 29.1446C145.542 28.7755 145.074 28.3076 144.719 28.6094Z" fill="black"/>
<path d="M144.719 28.6094L145.486 29.5148L145.487 29.5143L144.719 28.6094ZM139.775 33.4633L138.928 32.632L138.927 32.6324L139.775 33.4633ZM140.356 34.0742L141.184 34.9242L141.184 34.924L140.356 34.0742ZM145.227 29.1446L144.324 28.3738L144.324 28.3741L145.227 29.1446ZM143.951 27.704C142.143 29.2368 140.504 31.0264 138.928 32.632L140.622 34.2947C142.278 32.6073 143.788 30.9543 145.486 29.5148L143.951 27.704ZM138.927 32.6324C138.602 32.9641 138.439 33.4004 138.466 33.8474C138.491 34.2659 138.677 34.6226 138.919 34.8754C139.16 35.1275 139.512 35.3357 139.941 35.3745C140.403 35.4162 140.849 35.2506 141.184 34.9242L139.527 33.2243C139.669 33.0863 139.898 32.9872 140.155 33.0104C140.379 33.0307 140.54 33.1355 140.636 33.2363C140.733 33.3378 140.823 33.4953 140.835 33.7039C140.85 33.9411 140.757 34.1568 140.622 34.2943L138.927 32.6324ZM141.184 34.924C142.792 33.3557 144.579 31.7311 146.13 29.9152L144.324 28.3741C142.867 30.0805 141.217 31.5763 139.527 33.2245L141.184 34.924ZM146.129 29.9155C146.717 29.227 146.589 28.326 146.075 27.7976C145.568 27.2773 144.658 27.1042 143.951 27.7045L145.487 29.5143C145.348 29.6317 145.137 29.7163 144.897 29.6968C144.675 29.6789 144.496 29.5784 144.374 29.4533C144.251 29.3274 144.158 29.1463 144.146 28.9292C144.132 28.695 144.218 28.498 144.324 28.3738L146.129 29.9155Z" fill="black" mask="url(#path-76-inside-29_2_477)"/>
<mask id="path-78-inside-30_2_477" fill="white">
<path d="M8.36877 18.5093C6.61525 19.9954 5.04108 21.7167 3.42509 23.3632C3.04415 23.7517 3.61889 24.3511 4.00569 23.9741C5.65489 22.3659 7.37363 20.8057 8.87709 19.0446C9.19239 18.6754 8.72432 18.2075 8.36877 18.5093Z"/>
</mask>
<path d="M8.36877 18.5093C6.61525 19.9954 5.04108 21.7167 3.42509 23.3632C3.04415 23.7517 3.61889 24.3511 4.00569 23.9741C5.65489 22.3659 7.37363 20.8057 8.87709 19.0446C9.19239 18.6754 8.72432 18.2075 8.36877 18.5093Z" fill="black"/>
<path d="M8.36877 18.5093L9.13615 19.4147L9.13677 19.4142L8.36877 18.5093ZM3.42509 23.3632L2.57803 22.5319L2.57765 22.5323L3.42509 23.3632ZM4.00569 23.9741L4.83408 24.8241L4.83433 24.8239L4.00569 23.9741ZM8.87709 19.0446L7.97458 18.2737L7.97439 18.274L8.87709 19.0446ZM7.60139 17.6039C5.79282 19.1367 4.15387 20.9263 2.57803 22.5319L4.27215 24.1946C5.92828 22.5072 7.43769 20.8542 9.13615 19.4147L7.60139 17.6039ZM2.57765 22.5323C2.25239 22.864 2.08892 23.3003 2.116 23.7473C2.14134 24.1658 2.32764 24.5225 2.56897 24.7753C2.80966 25.0274 3.16246 25.2356 3.59136 25.2744C4.05273 25.3161 4.49916 25.1505 4.83408 24.8241L3.1773 23.1242C3.31882 22.9862 3.54836 22.8871 3.80507 22.9103C4.02933 22.9306 4.18973 23.0354 4.286 23.1362C4.38291 23.2377 4.47278 23.3952 4.48541 23.6038C4.49978 23.841 4.40731 24.0568 4.27254 24.1942L2.57765 22.5323ZM4.83433 24.8239C6.44253 23.2556 8.22963 21.631 9.77978 19.8151L7.97439 18.274C6.51762 19.9804 4.86725 21.4762 3.17706 23.1244L4.83433 24.8239ZM9.77959 19.8154C10.3676 19.1269 10.2394 18.2259 9.725 17.6975C9.21854 17.1772 8.30811 17.0041 7.60078 17.6044L9.13677 19.4142C8.99849 19.5316 8.78727 19.6162 8.54685 19.5967C8.32548 19.5788 8.14584 19.4783 8.024 19.3532C7.90149 19.2273 7.80781 19.0462 7.79566 18.8291C7.78255 18.5949 7.86856 18.3979 7.97458 18.2737L9.77959 19.8154Z" fill="black" mask="url(#path-78-inside-30_2_477)"/>
<mask id="path-80-inside-31_2_477" fill="white">
<path d="M197.181 18.5093C195.622 19.9954 194.223 21.7167 192.786 23.3632C192.448 23.7517 192.958 24.3511 193.302 23.9741C194.768 22.3659 196.296 20.8057 197.632 19.0446C197.913 18.6754 197.497 18.2075 197.181 18.5093Z"/>
</mask>
<path d="M197.181 18.5093C195.622 19.9954 194.223 21.7167 192.786 23.3632C192.448 23.7517 192.958 24.3511 193.302 23.9741C194.768 22.3659 196.296 20.8057 197.632 19.0446C197.913 18.6754 197.497 18.2075 197.181 18.5093Z" fill="black"/>
<path d="M197.181 18.5093L198 19.3683L198 19.3677L197.181 18.5093ZM192.786 23.3632L191.892 22.583L191.891 22.5834L192.786 23.3632ZM193.302 23.9741L194.179 24.7739L194.179 24.7737L193.302 23.9741ZM197.632 19.0446L196.687 18.3269L196.687 18.3271L197.632 19.0446ZM196.362 17.6503C194.751 19.1863 193.29 20.9799 191.892 22.583L193.681 24.1435C195.155 22.4536 196.493 20.8045 198 19.3683L196.362 17.6503ZM191.891 22.5834C191.257 23.3117 191.46 24.2243 191.883 24.7236C192.1 24.9794 192.449 25.2264 192.909 25.2731C193.415 25.3246 193.869 25.114 194.179 24.7739L192.425 23.1743C192.564 23.0227 192.825 22.8786 193.149 22.9116C193.427 22.9398 193.605 23.0834 193.693 23.1878C193.86 23.3846 193.977 23.8032 193.681 24.1431L191.891 22.5834ZM194.179 24.7737C195.607 23.207 197.199 21.5796 198.578 19.762L196.687 18.3271C195.393 20.0318 193.929 21.5247 192.425 23.1746L194.179 24.7737ZM198.578 19.7622C199.079 19.1023 198.979 18.2707 198.528 17.7487C198.305 17.4916 197.963 17.271 197.531 17.2317C197.074 17.1901 196.659 17.3661 196.361 17.6509L198 19.3677C197.86 19.5016 197.616 19.623 197.316 19.5957C197.043 19.5708 196.847 19.4337 196.733 19.3019C196.498 19.0307 196.466 18.6176 196.687 18.3269L198.578 19.7622Z" fill="black" mask="url(#path-80-inside-31_2_477)"/>
<mask id="path-82-inside-32_2_477" fill="white">
<path d="M11.188 21.8324C9.19449 22.8211 7.31478 24.0725 5.41318 25.2439C4.96483 25.5204 5.3655 26.2173 5.81669 25.953C7.7406 24.8253 9.71867 23.759 11.5412 22.4537C11.9234 22.1801 11.5923 21.6316 11.188 21.8324Z"/>
</mask>
<path d="M11.188 21.8324C9.19449 22.8211 7.31478 24.0725 5.41318 25.2439C4.96483 25.5204 5.3655 26.2173 5.81669 25.953C7.7406 24.8253 9.71867 23.759 11.5412 22.4537C11.9234 22.1801 11.5923 21.6316 11.188 21.8324Z" fill="black"/>
<path d="M11.188 21.8324L11.7154 22.8957L11.7161 22.8954L11.188 21.8324ZM5.41318 25.2439L4.7907 24.2333L4.79023 24.2336L5.41318 25.2439ZM5.81669 25.953L6.41658 26.9771L6.41687 26.977L5.81669 25.953ZM11.5412 22.4537L10.8503 21.4886L10.8501 21.4888L11.5412 22.4537ZM10.6607 20.7691C8.60249 21.7899 6.6435 23.092 4.7907 24.2333L6.03566 26.2544C7.98605 25.053 9.78649 23.8524 11.7154 22.8957L10.6607 20.7691ZM4.79023 24.2336C4.3985 24.4752 4.13692 24.8563 4.05639 25.2935C3.98105 25.7025 4.07547 26.09 4.24733 26.3905C4.41873 26.6902 4.70857 26.9747 5.1125 27.1144C5.54723 27.2646 6.01676 27.2113 6.41658 26.9771L5.2168 24.9289C5.39103 24.8269 5.64128 24.7856 5.888 24.8708C6.10391 24.9455 6.23701 25.0881 6.30789 25.212C6.37922 25.3367 6.42934 25.5147 6.39087 25.7235C6.34722 25.9605 6.20369 26.1508 6.03613 26.2541L4.79023 24.2336ZM6.41687 26.977C8.29139 25.8782 10.3513 24.7658 12.2323 23.4186L10.8501 21.4888C9.08605 22.7522 7.18981 23.7724 5.2165 24.9291L6.41687 26.977ZM12.2321 23.4188C12.962 22.8962 13.0536 21.9977 12.684 21.3659C12.3203 20.744 11.4841 20.36 10.66 20.7695L11.7161 22.8954C11.5503 22.9777 11.3218 23.0092 11.0904 22.9317C10.8771 22.8602 10.7247 22.7176 10.6351 22.5644C10.545 22.4104 10.4969 22.2092 10.5379 21.9926C10.5819 21.7593 10.7145 21.5859 10.8503 21.4886L12.2321 23.4188Z" fill="black" mask="url(#path-82-inside-32_2_477)"/>
<mask id="path-84-inside-33_2_477" fill="white">
<path d="M200.25 21.8324C198.257 22.8211 196.377 24.0725 194.475 25.2439C194.027 25.5204 194.428 26.2173 194.879 25.953C196.803 24.8253 198.781 23.759 200.603 22.4537C200.986 22.1801 200.654 21.6316 200.25 21.8324Z"/>
</mask>
<path d="M200.25 21.8324C198.257 22.8211 196.377 24.0725 194.475 25.2439C194.027 25.5204 194.428 26.2173 194.879 25.953C196.803 24.8253 198.781 23.759 200.603 22.4537C200.986 22.1801 200.654 21.6316 200.25 21.8324Z" fill="black"/>
<path d="M200.25 21.8324L200.778 22.8957L200.778 22.8954L200.25 21.8324ZM194.475 25.2439L193.853 24.2333L193.852 24.2336L194.475 25.2439ZM194.879 25.953L195.479 26.9771L195.479 26.977L194.879 25.953ZM200.603 22.4537L199.912 21.4886L199.912 21.4888L200.603 22.4537ZM199.723 20.7691C197.665 21.7899 195.706 23.092 193.853 24.2333L195.098 26.2544C197.048 25.053 198.849 23.8524 200.778 22.8957L199.723 20.7691ZM193.852 24.2336C193.461 24.4752 193.199 24.8563 193.119 25.2935C193.043 25.7025 193.138 26.09 193.309 26.3905C193.481 26.6902 193.771 26.9747 194.175 27.1144C194.609 27.2646 195.079 27.2113 195.479 26.9771L194.279 24.9289C194.453 24.8269 194.703 24.7856 194.95 24.8708C195.166 24.9455 195.299 25.0881 195.37 25.212C195.441 25.3367 195.491 25.5147 195.453 25.7235C195.409 25.9605 195.266 26.1508 195.098 26.2541L193.852 24.2336ZM195.479 26.977C197.354 25.8782 199.413 24.7658 201.294 23.4186L199.912 21.4888C198.148 22.7522 196.252 23.7724 194.279 24.9291L195.479 26.977ZM201.294 23.4188C202.024 22.8962 202.116 21.9977 201.746 21.3659C201.382 20.744 200.546 20.36 199.722 20.7695L200.778 22.8954C200.612 22.9777 200.384 23.0092 200.153 22.9317C199.939 22.8602 199.787 22.7176 199.697 22.5644C199.607 22.4104 199.559 22.2092 199.6 21.9926C199.644 21.7593 199.777 21.5859 199.912 21.4886L201.294 23.4188Z" fill="black" mask="url(#path-84-inside-33_2_477)"/>
<path d="M126.976 68.7556L127.021 68.7895L127.071 68.8177C134.214 72.9075 140.834 73.7274 146.177 69.6699C149.566 67.3586 151.552 64.6539 152.204 62.0067C152.863 59.3275 152.13 56.7796 150.229 54.9904C147.049 51.9964 140.803 52.4803 138.57 58.3602C138.141 59.4886 137.632 60.7598 136.804 61.614C136.408 62.0225 135.959 62.3122 135.426 62.447C134.91 62.5778 134.245 62.5806 133.376 62.3134C133.015 62.1168 132.64 61.8975 132.248 61.6545C130.291 60.2258 127.539 60.6296 126.08 62.5706C124.611 64.5255 125.014 67.2954 126.976 68.7556ZM62.1164 38.187L55.2922 17.444C53.7829 12.8565 49.5443 9.74984 44.7562 9.74759C39.9732 9.74533 35.7349 12.8416 34.2175 17.421L27.3797 38.0567L21.0673 8.84313C20.0867 4.30512 16.119 1.0553 11.5147 1.05313C5.0772 1.0501 0.416383 7.22159 2.051 13.491L15.0982 63.5319C16.4396 68.6769 21.0338 72.2754 26.3032 72.2779C31.3453 72.2802 35.8012 68.9839 37.3439 64.1368L44.7467 40.8783L52.1281 64.1438C53.6664 68.9924 58.1193 72.2928 63.1614 72.2952C68.4308 72.2977 73.0282 68.7036 74.3744 63.5598L87.4682 13.5283C89.1082 7.26189 84.4541 1.08748 78.0182 1.08445C73.4125 1.08228 69.4413 4.33098 68.4593 8.87006L62.1164 38.187ZM216.527 38.1457L210.215 8.93221C209.234 4.39421 205.266 1.14437 200.662 1.1422C194.225 1.13917 189.564 7.31066 191.198 13.5801L204.245 63.621C205.587 68.766 210.181 72.3645 215.45 72.367C220.493 72.3693 224.948 69.073 226.491 64.2259L233.894 40.9673L241.275 64.2329C242.814 69.0814 247.267 72.3819 252.309 72.3843C257.578 72.3868 262.176 68.7926 263.522 63.6489L276.615 13.6174C278.255 7.351 273.601 1.17655 267.165 1.17352C262.56 1.17135 258.589 4.42007 257.607 8.95917L251.264 38.276L244.439 17.5331C242.93 12.9456 238.692 9.83892 233.903 9.83666C229.12 9.83441 224.882 12.9307 223.365 17.5101L216.527 38.1457ZM165.29 54.1867C173.032 54.1904 179.264 51.3534 183.552 46.5821C187.83 41.8227 190.111 35.2121 190.114 27.7624C190.118 20.3125 187.843 13.7188 183.568 8.97486C179.283 4.21937 173.054 1.39799 165.314 1.39435C157.575 1.3907 151.343 4.20621 147.054 8.95767C142.774 13.6976 140.494 20.2891 140.49 27.7391C140.487 35.1888 142.761 41.8015 147.035 46.5649C151.319 51.3402 157.549 54.1831 165.29 54.1867ZM177.649 27.8047C177.646 34.5176 172.174 39.9645 165.419 39.9613C158.663 39.9581 153.196 34.5061 153.2 27.7932C153.203 21.0804 158.674 15.6335 165.43 15.6366C172.185 15.6398 177.652 21.0919 177.649 27.8047ZM113.338 53.8935C121.08 53.8971 127.312 51.0601 131.6 46.2888C135.879 41.5294 138.159 34.9189 138.162 27.4691C138.166 20.0192 135.891 13.4255 131.616 8.68161C127.331 3.92611 121.102 1.10474 113.363 1.10109C105.623 1.09745 99.3916 3.91295 95.1018 8.66442C90.8225 13.4043 88.5418 19.9959 88.5384 27.4458C88.535 34.8955 90.8095 41.5082 95.0832 46.2716C99.3677 51.0469 105.597 53.8898 113.338 53.8935ZM125.66 27.7803C125.657 34.4932 120.186 39.9401 113.43 39.9369C106.675 39.9337 101.208 34.4817 101.211 27.7688C101.214 21.0559 106.686 15.609 113.441 15.6122C120.197 15.6154 125.663 21.0675 125.66 27.7803Z" stroke="black" stroke-width="1.89375"/>
</svg>
