<svg width="690" height="199" viewBox="0 0 690 199" fill="none" xmlns="http://www.w3.org/2000/svg">
<mask id="path-1-outside-1_67_1108" maskUnits="userSpaceOnUse" x="26" y="2.38419e-07" width="664" height="199" fill="black">
<rect fill="white" x="26" y="2.38419e-07" width="664" height="199"/>
<path d="M123.809 4C71.9996 4 30 43.4143 30 92.0343C30 140.654 71.9996 180.069 123.809 180.069H553.322C573.485 180.069 592.162 174.099 607.456 163.94C626.124 174.263 662.965 190.637 686 195C658.253 185.886 647.13 123.105 647.131 92.0343C647.131 43.4143 605.132 4 553.322 4H123.809Z"/>
</mask>
<path d="M123.809 4C71.9996 4 30 43.4143 30 92.0343C30 140.654 71.9996 180.069 123.809 180.069H553.322C573.485 180.069 592.162 174.099 607.456 163.94C626.124 174.263 662.965 190.637 686 195C658.253 185.886 647.13 123.105 647.131 92.0343C647.131 43.4143 605.132 4 553.322 4H123.809Z" fill="white"/>
<path d="M607.456 163.94L609.316 160.578C608.061 159.884 606.524 159.946 605.33 160.739L607.456 163.94ZM686 195L685.285 198.776C687.275 199.153 689.216 197.92 689.721 195.959C690.227 193.998 689.123 191.981 687.199 191.349L686 195ZM647.131 92.0343L650.974 92.0344V92.0343H647.131ZM33.8427 92.0343C33.8427 45.7629 73.8883 7.84274 123.809 7.84274V0.157261C70.111 0.157261 26.1573 41.0657 26.1573 92.0343H33.8427ZM123.809 176.226C73.8883 176.226 33.8427 138.306 33.8427 92.0343H26.1573C26.1573 143.003 70.111 183.911 123.809 183.911V176.226ZM553.322 176.226H123.809V183.911H553.322V176.226ZM605.33 160.739C590.659 170.484 572.721 176.226 553.322 176.226V183.911C574.25 183.911 593.665 177.714 609.582 167.141L605.33 160.739ZM686.715 191.224C664.274 186.974 627.853 170.828 609.316 160.578L605.597 167.303C624.395 177.698 661.656 194.3 685.285 198.776L686.715 191.224ZM643.288 92.0341C643.288 107.917 646.115 131.756 652.481 152.861C655.665 163.415 659.784 173.458 664.993 181.521C670.178 189.546 676.691 195.987 684.801 198.651L687.199 191.349C681.435 189.456 676.153 184.632 671.449 177.35C666.769 170.108 662.905 160.805 659.839 150.641C653.707 130.309 650.973 107.223 650.974 92.0344L643.288 92.0341ZM553.322 7.84274C603.243 7.84274 643.288 45.7629 643.288 92.0343H650.974C650.974 41.0657 607.02 0.157261 553.322 0.157261V7.84274ZM123.809 7.84274H553.322V0.157261H123.809V7.84274Z" fill="white" mask="url(#path-1-outside-1_67_1108)"/>
<path d="M142.999 62.5949V103.322H131.942V72.7767H131.703L122.794 78.1062V68.7199L132.817 62.5949H142.999ZM174.668 95.6858V93.5381C174.668 91.8146 175.039 90.2237 175.781 88.7653C176.537 87.307 177.631 86.1337 179.062 85.2454C180.494 84.3572 182.238 83.9131 184.293 83.9131C186.401 83.9131 188.17 84.3506 189.602 85.2256C191.047 86.1006 192.141 87.2672 192.884 88.7256C193.626 90.1839 193.997 91.7881 193.997 93.5381V95.6858C193.997 97.4093 193.619 99.0002 192.864 100.459C192.121 101.917 191.027 103.09 189.582 103.978C188.137 104.867 186.374 105.311 184.293 105.311C182.211 105.311 180.455 104.867 179.023 103.978C177.591 103.09 176.504 101.917 175.761 100.459C175.032 99.0002 174.668 97.4093 174.668 95.6858ZM181.588 93.5381V95.6858C181.588 96.4415 181.774 97.1905 182.145 97.9329C182.529 98.6621 183.245 99.0267 184.293 99.0267C185.393 99.0267 186.116 98.6687 186.46 97.9528C186.818 97.2369 186.997 96.4812 186.997 95.6858V93.5381C186.997 92.7426 186.831 91.9737 186.5 91.2312C186.169 90.4888 185.433 90.1176 184.293 90.1176C183.245 90.1176 182.529 90.4888 182.145 91.2312C181.774 91.9737 181.588 92.7426 181.588 93.5381ZM153.349 72.379V70.2312C153.349 68.4812 153.727 66.8771 154.483 65.4187C155.252 63.9604 156.352 62.7937 157.784 61.9187C159.216 61.0437 160.946 60.6062 162.974 60.6062C165.082 60.6062 166.852 61.0437 168.284 61.9187C169.729 62.7937 170.823 63.9604 171.565 65.4187C172.308 66.8771 172.679 68.4812 172.679 70.2312V72.379C172.679 74.129 172.301 75.7265 171.545 77.1716C170.803 78.6167 169.709 79.7701 168.264 80.6318C166.819 81.4935 165.056 81.9244 162.974 81.9244C160.893 81.9244 159.136 81.4869 157.705 80.6119C156.273 79.7369 155.186 78.5769 154.443 77.1318C153.714 75.6867 153.349 74.1024 153.349 72.379ZM160.349 70.2312V72.379C160.349 73.1744 160.535 73.9301 160.906 74.646C161.277 75.3619 161.967 75.7199 162.974 75.7199C164.075 75.7199 164.797 75.3619 165.142 74.646C165.5 73.9301 165.679 73.1744 165.679 72.379V70.2312C165.679 69.4358 165.513 68.6668 165.182 67.9244C164.85 67.182 164.115 66.8108 162.974 66.8108C161.927 66.8108 161.224 67.1952 160.866 67.9642C160.522 68.7199 160.349 69.4756 160.349 70.2312ZM156.73 103.322L184.73 62.5949H190.378L162.378 103.322H156.73ZM234.267 75.3221C234.161 73.9964 233.664 72.9623 232.776 72.2199C231.901 71.4774 230.568 71.1062 228.778 71.1062C227.638 71.1062 226.704 71.2454 225.974 71.5238C225.259 71.789 224.728 72.1536 224.384 72.6176C224.039 73.0816 223.86 73.6119 223.847 74.2085C223.82 74.699 223.906 75.1432 224.105 75.5409C224.317 75.9254 224.649 76.2767 225.099 76.5949C225.55 76.8998 226.127 77.1782 226.83 77.4301C227.532 77.682 228.367 77.9074 229.335 78.1062L232.676 78.8221C234.93 79.2994 236.859 79.9291 238.463 80.7113C240.067 81.4935 241.38 82.4149 242.401 83.4756C243.421 84.5229 244.17 85.7028 244.648 87.0153C245.138 88.3278 245.39 89.7596 245.403 91.3108C245.39 93.9888 244.721 96.2559 243.395 98.1119C242.069 99.968 240.173 101.38 237.707 102.348C235.255 103.316 232.305 103.799 228.858 103.799C225.318 103.799 222.229 103.276 219.591 102.228C216.966 101.181 214.924 99.5702 213.466 97.396C212.021 95.2085 211.292 92.4112 211.278 89.004H221.778C221.845 90.2502 222.156 91.2975 222.713 92.146C223.27 92.9945 224.052 93.6375 225.06 94.075C226.08 94.5125 227.294 94.7312 228.699 94.7312C229.879 94.7312 230.866 94.5854 231.662 94.2937C232.457 94.0021 233.061 93.5977 233.472 93.0807C233.883 92.5636 234.095 91.9737 234.108 91.3108C234.095 90.6877 233.889 90.1441 233.491 89.6801C233.107 89.2028 232.471 88.7786 231.582 88.4074C230.694 88.0229 229.494 87.6649 227.983 87.3335L223.926 86.4585C220.32 85.6763 217.476 84.3704 215.395 82.5409C213.327 80.6981 212.299 78.1858 212.312 75.004C212.299 72.4187 212.989 70.1583 214.381 68.2227C215.786 66.2738 217.728 64.7559 220.207 63.6687C222.7 62.5816 225.557 62.0381 228.778 62.0381C232.066 62.0381 234.91 62.5882 237.31 63.6886C239.709 64.789 241.559 66.3401 242.858 68.342C244.17 70.3307 244.833 72.6574 244.847 75.3221H234.267ZM269.575 89.9585V72.7767H280.553V103.322H270.132V97.5153H269.814C269.151 99.4642 267.991 100.989 266.334 102.089C264.677 103.176 262.708 103.72 260.428 103.72C258.293 103.72 256.424 103.229 254.82 102.248C253.229 101.267 251.989 99.9149 251.101 98.1915C250.226 96.468 249.782 94.4926 249.768 92.2653V72.7767H260.746V89.9585C260.759 91.4699 261.143 92.6564 261.899 93.5182C262.668 94.3799 263.742 94.8108 265.121 94.8108C266.036 94.8108 266.824 94.6185 267.487 94.2341C268.163 93.8363 268.68 93.2795 269.038 92.5636C269.41 91.8345 269.589 90.9661 269.575 89.9585ZM286.136 114.777V72.7767H297.033V78.1062H297.272C297.67 77.0721 298.253 76.1242 299.022 75.2625C299.791 74.3875 300.746 73.6915 301.886 73.1744C303.026 72.6441 304.352 72.379 305.863 72.379C307.878 72.379 309.794 72.9159 311.61 73.9898C313.44 75.0636 314.924 76.754 316.065 79.0608C317.218 81.3676 317.795 84.3638 317.795 88.0494C317.795 91.5759 317.245 94.4992 316.144 96.8193C315.057 99.1394 313.599 100.869 311.769 102.01C309.953 103.15 307.958 103.72 305.783 103.72C304.352 103.72 303.072 103.488 301.945 103.024C300.832 102.547 299.877 101.904 299.082 101.095C298.299 100.273 297.696 99.3449 297.272 98.3108H297.113V114.777H286.136ZM296.874 88.0494C296.874 89.5343 297.067 90.8202 297.451 91.9074C297.849 92.9812 298.406 93.8165 299.121 94.4131C299.851 94.9964 300.719 95.2881 301.727 95.2881C302.734 95.2881 303.589 95.003 304.292 94.4329C305.008 93.8496 305.551 93.021 305.923 91.9471C306.307 90.86 306.499 89.5608 306.499 88.0494C306.499 86.5381 306.307 85.2454 305.923 84.1716C305.551 83.0845 305.008 82.2559 304.292 81.6858C303.589 81.1024 302.734 80.8108 301.727 80.8108C300.719 80.8108 299.851 81.1024 299.121 81.6858C298.406 82.2559 297.849 83.0845 297.451 84.1716C297.067 85.2454 296.874 86.5381 296.874 88.0494ZM337.03 103.879C333.768 103.879 330.958 103.256 328.598 102.01C326.251 100.75 324.442 98.9471 323.169 96.6006C321.91 94.2407 321.28 91.4168 321.28 88.129C321.28 84.9737 321.916 82.2161 323.189 79.8562C324.462 77.4964 326.258 75.6602 328.578 74.3477C330.898 73.0352 333.636 72.379 336.791 72.379C339.098 72.379 341.186 72.7369 343.055 73.4528C344.925 74.1687 346.522 75.2095 347.848 76.575C349.174 77.9273 350.195 79.5712 350.911 81.5068C351.626 83.4424 351.984 85.6233 351.984 88.0494V90.5949H324.7V84.5494H341.882C341.869 83.6744 341.643 82.9055 341.206 82.2426C340.782 81.5665 340.205 81.0428 339.476 80.6716C338.76 80.2871 337.945 80.0949 337.03 80.0949C336.142 80.0949 335.326 80.2871 334.584 80.6716C333.841 81.0428 333.245 81.5598 332.794 82.2227C332.357 82.8856 332.125 83.6612 332.098 84.5494V91.0721C332.098 92.0532 332.304 92.9282 332.714 93.6971C333.125 94.4661 333.715 95.0693 334.484 95.5068C335.253 95.9443 336.181 96.1631 337.268 96.1631C338.024 96.1631 338.714 96.057 339.337 95.8449C339.973 95.6327 340.517 95.3278 340.967 94.9301C341.418 94.5191 341.75 94.0286 341.962 93.4585H351.984C351.64 95.5797 350.824 97.4225 349.538 98.9869C348.252 100.538 346.549 101.744 344.428 102.606C342.32 103.455 339.854 103.879 337.03 103.879ZM356.464 103.322V72.7767H367.123V78.5835H367.441C367.998 76.4358 368.879 74.8648 370.086 73.8704C371.306 72.8761 372.731 72.379 374.362 72.379C374.839 72.379 375.309 72.4187 375.773 72.4983C376.251 72.5646 376.708 72.664 377.146 72.7966V82.1631C376.602 81.9774 375.933 81.8382 375.137 81.7454C374.342 81.6526 373.659 81.6062 373.089 81.6062C372.015 81.6062 371.047 81.8515 370.185 82.342C369.337 82.8193 368.667 83.4954 368.177 84.3704C367.686 85.2322 367.441 86.2464 367.441 87.4131V103.322H356.464ZM391.742 103.322V62.5949H420.379V71.504H402.799V78.504H418.629V87.4131H402.799V103.322H391.742ZM437.078 103.879C433.764 103.879 430.927 103.223 428.567 101.91C426.207 100.584 424.397 98.7417 423.138 96.3818C421.878 94.0087 421.249 91.2577 421.249 88.129C421.249 85.0002 421.878 82.2559 423.138 79.896C424.397 77.5229 426.207 75.6801 428.567 74.3676C430.927 73.0418 433.764 72.379 437.078 72.379C440.393 72.379 443.23 73.0418 445.589 74.3676C447.949 75.6801 449.759 77.5229 451.018 79.896C452.278 82.2559 452.908 85.0002 452.908 88.129C452.908 91.2577 452.278 94.0087 451.018 96.3818C449.759 98.7417 447.949 100.584 445.589 101.91C443.23 103.223 440.393 103.879 437.078 103.879ZM437.158 95.7653C438.086 95.7653 438.888 95.4538 439.564 94.8307C440.24 94.2076 440.764 93.3193 441.135 92.1659C441.506 91.0125 441.692 89.6403 441.692 88.0494C441.692 86.4452 441.506 85.0731 441.135 83.9329C440.764 82.7795 440.24 81.8913 439.564 81.2682C438.888 80.6451 438.086 80.3335 437.158 80.3335C436.177 80.3335 435.335 80.6451 434.632 81.2682C433.929 81.8913 433.393 82.7795 433.021 83.9329C432.65 85.0731 432.464 86.4452 432.464 88.0494C432.464 89.6403 432.65 91.0125 433.021 92.1659C433.393 93.3193 433.929 94.2076 434.632 94.8307C435.335 95.4538 436.177 95.7653 437.158 95.7653ZM472.078 103.879C468.764 103.879 465.927 103.223 463.567 101.91C461.207 100.584 459.397 98.7417 458.138 96.3818C456.878 94.0087 456.249 91.2577 456.249 88.129C456.249 85.0002 456.878 82.2559 458.138 79.896C459.397 77.5229 461.207 75.6801 463.567 74.3676C465.927 73.0418 468.764 72.379 472.078 72.379C475.393 72.379 478.23 73.0418 480.589 74.3676C482.949 75.6801 484.759 77.5229 486.018 79.896C487.278 82.2559 487.908 85.0002 487.908 88.129C487.908 91.2577 487.278 94.0087 486.018 96.3818C484.759 98.7417 482.949 100.584 480.589 101.91C478.23 103.223 475.393 103.879 472.078 103.879ZM472.158 95.7653C473.086 95.7653 473.888 95.4538 474.564 94.8307C475.24 94.2076 475.764 93.3193 476.135 92.1659C476.506 91.0125 476.692 89.6403 476.692 88.0494C476.692 86.4452 476.506 85.0731 476.135 83.9329C475.764 82.7795 475.24 81.8913 474.564 81.2682C473.888 80.6451 473.086 80.3335 472.158 80.3335C471.177 80.3335 470.335 80.6451 469.632 81.2682C468.929 81.8913 468.393 82.7795 468.021 83.9329C467.65 85.0731 467.464 86.4452 467.464 88.0494C467.464 89.6403 467.65 91.0125 468.021 92.1659C468.393 93.3193 468.929 94.2076 469.632 94.8307C470.335 95.4538 471.177 95.7653 472.158 95.7653ZM503.419 103.72C501.245 103.72 499.243 103.15 497.413 102.01C495.597 100.869 494.139 99.1394 493.038 96.8193C491.951 94.4992 491.408 91.5759 491.408 88.0494C491.408 84.3638 491.978 81.3676 493.118 79.0608C494.271 76.754 495.756 75.0636 497.572 73.9898C499.402 72.9159 501.324 72.379 503.339 72.379C504.851 72.379 506.177 72.6441 507.317 73.1744C508.457 73.6915 509.411 74.3875 510.18 75.2625C510.949 76.1242 511.533 77.0721 511.93 78.1062H512.089V62.5949H523.067V103.322H512.169V98.3108H511.93C511.506 99.3449 510.896 100.273 510.101 101.095C509.319 101.904 508.364 102.547 507.237 103.024C506.124 103.488 504.851 103.72 503.419 103.72ZM507.476 95.2881C508.483 95.2881 509.345 94.9964 510.061 94.4131C510.79 93.8165 511.347 92.9812 511.732 91.9074C512.129 90.8202 512.328 89.5343 512.328 88.0494C512.328 86.5381 512.129 85.2454 511.732 84.1716C511.347 83.0845 510.79 82.2559 510.061 81.6858C509.345 81.1024 508.483 80.8108 507.476 80.8108C506.468 80.8108 505.607 81.1024 504.891 81.6858C504.188 82.2559 503.644 83.0845 503.26 84.1716C502.889 85.2454 502.703 86.5381 502.703 88.0494C502.703 89.5608 502.889 90.86 503.26 91.9471C503.644 93.021 504.188 93.8496 504.891 94.4329C505.607 95.003 506.468 95.2881 507.476 95.2881Z" fill="black"/>
<path d="M278.316 27.4545V42H275.703V29.642H269.339V42H266.725V27.4545H278.316ZM281.354 46.0909V31.0909H283.883V32.8949H284.032C284.164 32.6297 284.351 32.348 284.593 32.0497C284.834 31.7467 285.161 31.4886 285.573 31.2756C285.985 31.0578 286.51 30.9489 287.15 30.9489C287.992 30.9489 288.752 31.1643 289.43 31.5952C290.111 32.0213 290.651 32.6534 291.049 33.4915C291.451 34.3248 291.653 35.3475 291.653 36.5597C291.653 37.7576 291.456 38.7756 291.063 39.6136C290.67 40.4517 290.135 41.0909 289.458 41.5312C288.781 41.9716 288.014 42.1918 287.157 42.1918C286.532 42.1918 286.013 42.0876 285.601 41.8793C285.189 41.6709 284.858 41.42 284.607 41.1264C284.361 40.8281 284.169 40.5464 284.032 40.2812H283.925V46.0909H281.354ZM283.876 36.5455C283.876 37.2509 283.975 37.8688 284.174 38.3991C284.377 38.9295 284.669 39.3437 285.047 39.642C285.431 39.9356 285.895 40.0824 286.439 40.0824C287.008 40.0824 287.483 39.9309 287.867 39.6278C288.251 39.3201 288.539 38.901 288.733 38.3707C288.932 37.8357 289.032 37.2273 289.032 36.5455C289.032 35.8684 288.935 35.267 288.741 34.7415C288.546 34.2159 288.258 33.804 287.874 33.5057C287.491 33.2074 287.012 33.0582 286.439 33.0582C285.89 33.0582 285.424 33.2027 285.04 33.4915C284.657 33.7803 284.366 34.1851 284.167 34.706C283.973 35.2268 283.876 35.84 283.876 36.5455ZM296.993 42.2202C296.302 42.2202 295.68 42.0971 295.126 41.8509C294.576 41.5999 294.141 41.2306 293.819 40.7429C293.501 40.2552 293.343 39.6539 293.343 38.9389C293.343 38.3234 293.456 37.8144 293.684 37.4119C293.911 37.0095 294.221 36.6875 294.614 36.446C295.007 36.2045 295.45 36.0223 295.942 35.8991C296.439 35.7713 296.953 35.679 297.483 35.6222C298.123 35.5559 298.641 35.4967 299.039 35.4446C299.437 35.3878 299.725 35.3026 299.905 35.1889C300.09 35.0705 300.182 34.8883 300.182 34.642V34.5994C300.182 34.0644 300.024 33.6501 299.706 33.3565C299.389 33.063 298.932 32.9162 298.336 32.9162C297.706 32.9162 297.206 33.0535 296.837 33.3281C296.473 33.6027 296.226 33.9271 296.099 34.3011L293.698 33.9602C293.887 33.2973 294.2 32.7434 294.635 32.2983C295.071 31.8485 295.604 31.5123 296.233 31.2898C296.863 31.0625 297.559 30.9489 298.322 30.9489C298.847 30.9489 299.37 31.0104 299.891 31.1335C300.412 31.2566 300.888 31.4602 301.319 31.7443C301.75 32.0237 302.095 32.4048 302.356 32.8878C302.621 33.3707 302.753 33.9744 302.753 34.6989V42H300.282V40.5014H300.197C300.04 40.8045 299.82 41.0885 299.536 41.3537C299.257 41.6141 298.904 41.8248 298.478 41.9858C298.056 42.142 297.562 42.2202 296.993 42.2202ZM297.661 40.331C298.177 40.331 298.625 40.2292 299.003 40.0256C299.382 39.8172 299.673 39.5426 299.877 39.2017C300.085 38.8608 300.189 38.4891 300.189 38.0866V36.8011C300.109 36.8674 299.972 36.929 299.778 36.9858C299.588 37.0426 299.375 37.0923 299.138 37.1349C298.902 37.1776 298.667 37.2154 298.435 37.2486C298.203 37.2817 298.002 37.3101 297.831 37.3338C297.448 37.3859 297.105 37.4711 296.802 37.5895C296.499 37.7079 296.26 37.8736 296.084 38.0866C295.909 38.295 295.822 38.5649 295.822 38.8963C295.822 39.3698 295.994 39.7273 296.34 39.9688C296.686 40.2102 297.126 40.331 297.661 40.331ZM305.339 42V31.0909L309.92 31.0909C311.212 31.0909 312.233 31.349 312.981 31.8651C313.733 32.3812 314.11 33.1009 314.11 34.0241C314.11 34.6349 313.897 35.1345 313.471 35.5227C313.049 35.9062 312.474 36.1643 311.745 36.2969C312.318 36.3442 312.82 36.4886 313.251 36.7301C313.686 36.9716 314.027 37.2888 314.273 37.6818C314.519 38.0748 314.643 38.527 314.643 39.0384C314.643 39.6397 314.484 40.1629 314.167 40.608C313.854 41.0483 313.397 41.3916 312.796 41.6378C312.199 41.8793 311.475 42 310.623 42H305.339ZM307.746 39.9759H310.623C311.096 39.9759 311.468 39.8646 311.738 39.642C312.008 39.4148 312.143 39.107 312.143 38.7188C312.143 38.2689 312.008 37.9162 311.738 37.6605C311.468 37.4001 311.096 37.2699 310.623 37.2699H307.746V39.9759ZM307.746 35.608H309.969C310.32 35.608 310.62 35.5582 310.871 35.4588C311.122 35.3546 311.314 35.2102 311.447 35.0256C311.579 34.8362 311.645 34.6113 311.645 34.3509C311.645 33.9768 311.492 33.6832 311.184 33.4702C310.881 33.2571 310.459 33.1506 309.92 33.1506H307.746V35.608ZM319.243 38.5199L323.611 31.0909H326.253V42H323.767V34.5639L319.414 42H316.764V31.0909H319.243V38.5199ZM328.14 42L328.126 39.8835H328.503C328.787 39.8835 329.026 39.8196 329.22 39.6918C329.414 39.5639 329.575 39.3509 329.703 39.0526C329.831 38.7495 329.93 38.3423 330.001 37.831C330.072 37.3196 330.122 36.6828 330.15 35.9205L330.342 31.0909H338.297V42H335.811V33.2003H332.679L332.508 36.7159C332.466 37.625 332.364 38.4134 332.203 39.081C332.047 39.7438 331.824 40.2907 331.535 40.7216C331.251 41.1525 330.894 41.4744 330.463 41.6875C330.032 41.8958 329.523 42 328.936 42H328.14ZM345.644 42.2131C344.579 42.2131 343.655 41.9787 342.874 41.5099C342.093 41.0412 341.487 40.3854 341.056 39.5426C340.63 38.6998 340.417 37.715 340.417 36.5881C340.417 35.4612 340.63 34.474 341.056 33.6264C341.487 32.7789 342.093 32.1207 342.874 31.652C343.655 31.1832 344.579 30.9489 345.644 30.9489C346.709 30.9489 347.633 31.1832 348.414 31.652C349.195 32.1207 349.799 32.7789 350.225 33.6264C350.656 34.474 350.871 35.4612 350.871 36.5881C350.871 37.715 350.656 38.6998 350.225 39.5426C349.799 40.3854 349.195 41.0412 348.414 41.5099C347.633 41.9787 346.709 42.2131 345.644 42.2131ZM345.658 40.1534C346.236 40.1534 346.719 39.9948 347.107 39.6776C347.495 39.3556 347.784 38.9247 347.974 38.3849C348.168 37.8452 348.265 37.2438 348.265 36.581C348.265 35.9134 348.168 35.3097 347.974 34.7699C347.784 34.2254 347.495 33.7921 347.107 33.4702C346.719 33.1482 346.236 32.9872 345.658 32.9872C345.066 32.9872 344.574 33.1482 344.181 33.4702C343.793 33.7921 343.501 34.2254 343.307 34.7699C343.118 35.3097 343.023 35.9134 343.023 36.581C343.023 37.2438 343.118 37.8452 343.307 38.3849C343.501 38.9247 343.793 39.3556 344.181 39.6776C344.574 39.9948 345.066 40.1534 345.658 40.1534ZM363.497 42L365.884 27.4545H367.872L365.486 42H363.497ZM356.942 38.25L357.276 36.2614H368.469L368.135 38.25L356.942 38.25ZM358.384 42L360.77 27.4545H362.759L360.372 42L358.384 42ZM357.787 33.1932L358.114 31.2045H369.307L368.98 33.1932H357.787ZM370.857 42V40.0966L375.907 35.1463C376.39 34.6586 376.792 34.2254 377.114 33.8466C377.436 33.4678 377.678 33.1009 377.839 32.7457C378 32.3906 378.08 32.0118 378.08 31.6094C378.08 31.1501 377.976 30.7571 377.768 30.4304C377.559 30.099 377.273 29.8433 376.908 29.6634C376.544 29.4834 376.129 29.3935 375.665 29.3935C375.187 29.3935 374.768 29.4929 374.408 29.6918C374.048 29.8859 373.769 30.1629 373.57 30.5227C373.376 30.8826 373.279 31.3111 373.279 31.8082H370.772C370.772 30.8849 370.983 30.0824 371.404 29.4006C371.825 28.7187 372.405 28.1908 373.144 27.8168C373.887 27.4427 374.74 27.2557 375.701 27.2557C376.676 27.2557 377.533 27.438 378.272 27.8026C379.01 28.1671 379.583 28.6667 379.991 29.3011C380.403 29.9356 380.608 30.66 380.608 31.4744C380.608 32.0189 380.504 32.554 380.296 33.0795C380.088 33.6051 379.721 34.1875 379.195 34.8267C378.674 35.4659 377.943 36.2401 377.001 37.1491L374.493 39.6989V39.7983H380.829V42H370.857Z" fill="#F0563A"/>
<path d="M111.627 146.509V140.848H112.6C112.926 140.588 113.232 140.221 113.516 139.747C113.8 139.274 114.042 138.625 114.24 137.801C114.439 136.977 114.577 135.912 114.652 134.605L115.036 128.455H124.333V140.848H125.952V146.494H123.424V143H114.155V146.509H111.627ZM115.668 140.848H121.804V130.663H117.408L117.181 134.605C117.119 135.595 117.02 136.48 116.882 137.261C116.745 138.043 116.572 138.732 116.364 139.328C116.156 139.92 115.924 140.427 115.668 140.848ZM132.744 143.213C131.678 143.213 130.755 142.979 129.974 142.51C129.192 142.041 128.586 141.385 128.156 140.543C127.729 139.7 127.516 138.715 127.516 137.588C127.516 136.461 127.729 135.474 128.156 134.626C128.586 133.779 129.192 133.121 129.974 132.652C130.755 132.183 131.678 131.949 132.744 131.949C133.809 131.949 134.732 132.183 135.513 132.652C136.295 133.121 136.898 133.779 137.325 134.626C137.755 135.474 137.971 136.461 137.971 137.588C137.971 138.715 137.755 139.7 137.325 140.543C136.898 141.385 136.295 142.041 135.513 142.51C134.732 142.979 133.809 143.213 132.744 143.213ZM132.758 141.153C133.335 141.153 133.818 140.995 134.207 140.678C134.595 140.356 134.884 139.925 135.073 139.385C135.267 138.845 135.364 138.244 135.364 137.581C135.364 136.913 135.267 136.31 135.073 135.77C134.884 135.225 134.595 134.792 134.207 134.47C133.818 134.148 133.335 133.987 132.758 133.987C132.166 133.987 131.674 134.148 131.281 134.47C130.892 134.792 130.601 135.225 130.407 135.77C130.218 136.31 130.123 136.913 130.123 137.581C130.123 138.244 130.218 138.845 130.407 139.385C130.601 139.925 130.892 140.356 131.281 140.678C131.674 140.995 132.166 141.153 132.758 141.153ZM148.896 128.057L149.791 129.719C149.474 129.993 149.118 130.192 148.725 130.315C148.333 130.438 147.871 130.519 147.341 130.557C146.815 130.59 146.19 130.614 145.466 130.628C144.651 130.647 143.986 130.801 143.47 131.089C142.954 131.378 142.558 131.816 142.284 132.403C142.009 132.986 141.829 133.729 141.744 134.634H141.865C142.206 133.966 142.684 133.457 143.299 133.107C143.915 132.756 144.637 132.581 145.466 132.581C146.37 132.581 147.168 132.785 147.859 133.192C148.555 133.594 149.097 134.179 149.485 134.946C149.878 135.713 150.075 136.641 150.075 137.73C150.075 138.852 149.864 139.825 149.443 140.649C149.021 141.468 148.422 142.1 147.646 142.545C146.874 142.991 145.958 143.213 144.897 143.213C143.842 143.213 142.923 142.983 142.142 142.524C141.365 142.06 140.764 141.376 140.338 140.472C139.916 139.562 139.706 138.443 139.706 137.112V136.132C139.706 133.566 140.184 131.651 141.14 130.386C142.097 129.122 143.515 128.478 145.395 128.455C145.953 128.445 146.453 128.443 146.893 128.447C147.338 128.452 147.726 128.431 148.058 128.384C148.389 128.336 148.669 128.227 148.896 128.057ZM144.912 141.153C145.437 141.153 145.892 141.018 146.275 140.749C146.659 140.474 146.952 140.086 147.156 139.584C147.364 139.082 147.468 138.488 147.468 137.801C147.468 137.124 147.364 136.549 147.156 136.075C146.948 135.597 146.652 135.232 146.268 134.982C145.885 134.731 145.428 134.605 144.897 134.605C144.5 134.605 144.142 134.676 143.825 134.818C143.508 134.96 143.238 135.169 143.015 135.443C142.793 135.718 142.622 136.052 142.504 136.445C142.386 136.838 142.322 137.29 142.312 137.801C142.312 138.829 142.544 139.645 143.008 140.251C143.472 140.853 144.107 141.153 144.912 141.153ZM155.402 143.22C154.71 143.22 154.088 143.097 153.534 142.851C152.984 142.6 152.549 142.231 152.227 141.743C151.91 141.255 151.751 140.654 151.751 139.939C151.751 139.323 151.865 138.814 152.092 138.412C152.319 138.009 152.629 137.688 153.022 137.446C153.415 137.205 153.858 137.022 154.35 136.899C154.848 136.771 155.361 136.679 155.892 136.622C156.531 136.556 157.049 136.497 157.447 136.445C157.845 136.388 158.134 136.303 158.314 136.189C158.498 136.071 158.591 135.888 158.591 135.642V135.599C158.591 135.064 158.432 134.65 158.115 134.357C157.797 134.063 157.341 133.916 156.744 133.916C156.114 133.916 155.615 134.054 155.245 134.328C154.881 134.603 154.635 134.927 154.507 135.301L152.106 134.96C152.296 134.297 152.608 133.743 153.044 133.298C153.479 132.848 154.012 132.512 154.642 132.29C155.271 132.062 155.967 131.949 156.73 131.949C157.255 131.949 157.779 132.01 158.299 132.134C158.82 132.257 159.296 132.46 159.727 132.744C160.158 133.024 160.503 133.405 160.764 133.888C161.029 134.371 161.162 134.974 161.162 135.699V143H158.69V141.501H158.605C158.449 141.804 158.228 142.089 157.944 142.354C157.665 142.614 157.312 142.825 156.886 142.986C156.465 143.142 155.97 143.22 155.402 143.22ZM156.069 141.331C156.585 141.331 157.033 141.229 157.412 141.026C157.79 140.817 158.082 140.543 158.285 140.202C158.493 139.861 158.598 139.489 158.598 139.087V137.801C158.517 137.867 158.38 137.929 158.186 137.986C157.996 138.043 157.783 138.092 157.547 138.135C157.31 138.178 157.075 138.215 156.843 138.249C156.611 138.282 156.41 138.31 156.24 138.334C155.856 138.386 155.513 138.471 155.21 138.589C154.907 138.708 154.668 138.874 154.493 139.087C154.317 139.295 154.23 139.565 154.23 139.896C154.23 140.37 154.403 140.727 154.748 140.969C155.094 141.21 155.534 141.331 156.069 141.331ZM163.747 143V132.091H168.328C169.62 132.091 170.641 132.349 171.389 132.865C172.142 133.381 172.518 134.101 172.518 135.024C172.518 135.635 172.305 136.134 171.879 136.523C171.458 136.906 170.882 137.164 170.153 137.297C170.726 137.344 171.228 137.489 171.659 137.73C172.094 137.972 172.435 138.289 172.681 138.682C172.928 139.075 173.051 139.527 173.051 140.038C173.051 140.64 172.892 141.163 172.575 141.608C172.262 142.048 171.806 142.392 171.204 142.638C170.608 142.879 169.883 143 169.031 143H163.747ZM166.154 140.976H169.031C169.504 140.976 169.876 140.865 170.146 140.642C170.416 140.415 170.551 140.107 170.551 139.719C170.551 139.269 170.416 138.916 170.146 138.661C169.876 138.4 169.504 138.27 169.031 138.27H166.154V140.976ZM166.154 136.608H168.377C168.728 136.608 169.029 136.558 169.279 136.459C169.53 136.355 169.722 136.21 169.855 136.026C169.987 135.836 170.054 135.611 170.054 135.351C170.054 134.977 169.9 134.683 169.592 134.47C169.289 134.257 168.868 134.151 168.328 134.151H166.154V136.608ZM175.173 143V132.091H177.744V136.494H178.681L181.962 132.091H185.059L181.018 137.446L185.102 143H181.991L179.001 138.888H177.744V143H175.173ZM189.038 139.52L193.406 132.091H196.048V143H193.562V135.564L189.208 143H186.559V132.091H189.038V139.52ZM202.683 146.168V140.884H203.55C203.782 140.704 203.976 140.46 204.132 140.152C204.288 139.839 204.416 139.473 204.516 139.051C204.62 138.625 204.705 138.149 204.771 137.624C204.838 137.093 204.897 136.523 204.949 135.912L205.261 132.091H213.145V140.884H214.835V146.168H212.349V143H205.212V146.168H202.683ZM206.192 140.884H210.688V134.165H207.491L207.321 135.912C207.226 137.067 207.101 138.057 206.945 138.881C206.788 139.705 206.537 140.372 206.192 140.884ZM216.002 143L215.988 140.884H216.364C216.648 140.884 216.887 140.82 217.081 140.692C217.275 140.564 217.436 140.351 217.564 140.053C217.692 139.75 217.792 139.342 217.863 138.831C217.934 138.32 217.983 137.683 218.012 136.92L218.203 132.091H226.158V143H223.672V134.2H220.54L220.37 137.716C220.327 138.625 220.225 139.413 220.064 140.081C219.908 140.744 219.685 141.291 219.397 141.722C219.113 142.152 218.755 142.474 218.324 142.687C217.893 142.896 217.384 143 216.797 143H216.002ZM235.196 143V134.179H232.866C232.274 134.179 231.82 134.316 231.502 134.591C231.185 134.866 231.029 135.206 231.034 135.614C231.029 136.021 231.178 136.357 231.481 136.622C231.784 136.887 232.217 137.02 232.781 137.02H236.005V138.895H232.781C231.91 138.895 231.157 138.758 230.522 138.483C229.888 138.208 229.4 137.82 229.059 137.318C228.718 136.816 228.548 136.229 228.548 135.557C228.548 134.856 228.721 134.248 229.066 133.732C229.417 133.211 229.914 132.808 230.558 132.524C231.207 132.235 231.976 132.091 232.866 132.091H237.603V143H235.196ZM228.15 143L231.197 137.403H233.733L230.679 143H228.15ZM247.632 139.52L252 132.091H254.642V143H252.156V135.564L247.802 143H245.153V132.091H247.632V139.52ZM263.56 140.01L266.799 132.091H268.873L264.462 143H262.665L258.354 132.091H260.407L263.56 140.01ZM259.761 132.091V143H257.282V132.091H259.761ZM267.467 143V132.091H269.924V143H267.467ZM278.795 140.01L282.033 132.091H284.107L279.697 143H277.9L273.589 132.091H275.641L278.795 140.01ZM274.995 132.091V143H272.516V132.091H274.995ZM282.701 143V132.091H285.158V143H282.701ZM288.958 147.091C288.608 147.091 288.283 147.063 287.985 147.006C287.692 146.954 287.457 146.892 287.282 146.821L287.879 144.818C288.253 144.927 288.586 144.979 288.88 144.974C289.174 144.97 289.432 144.877 289.654 144.697C289.881 144.522 290.073 144.229 290.229 143.817L290.45 143.227L286.494 132.091H289.221L291.735 140.33H291.849L294.37 132.091H297.104L292.737 144.321C292.533 144.899 292.263 145.393 291.927 145.805C291.591 146.222 291.179 146.539 290.691 146.757C290.208 146.98 289.63 147.091 288.958 147.091ZM306.376 136.48V138.589H300.567V136.48H306.376ZM301.362 132.091V143H298.884V132.091H301.362ZM308.06 132.091V143H305.588V132.091H308.06ZM313.14 139.52L317.507 132.091H320.15V143H317.664V135.564L313.31 143H310.661V132.091H313.14V139.52ZM321.568 134.2V132.091H331.114V134.2H327.584V143H325.098V134.2H321.568ZM337.541 143.213C336.447 143.213 335.503 142.986 334.707 142.531C333.917 142.072 333.308 141.423 332.882 140.585C332.456 139.742 332.243 138.75 332.243 137.609C332.243 136.487 332.456 135.502 332.882 134.655C333.313 133.803 333.914 133.14 334.686 132.666C335.458 132.188 336.365 131.949 337.406 131.949C338.079 131.949 338.713 132.058 339.31 132.276C339.911 132.489 340.441 132.82 340.901 133.27C341.365 133.72 341.729 134.293 341.994 134.989C342.259 135.68 342.392 136.504 342.392 137.46V138.249H333.45V136.516H339.928C339.923 136.023 339.816 135.585 339.608 135.202C339.4 134.813 339.108 134.508 338.734 134.286C338.365 134.063 337.934 133.952 337.442 133.952C336.916 133.952 336.455 134.08 336.057 134.335C335.659 134.586 335.349 134.918 335.126 135.33C334.909 135.737 334.797 136.184 334.793 136.672V138.185C334.793 138.819 334.909 139.364 335.141 139.818C335.373 140.268 335.697 140.614 336.114 140.855C336.53 141.092 337.018 141.21 337.577 141.21C337.951 141.21 338.289 141.158 338.592 141.054C338.895 140.945 339.158 140.786 339.381 140.578C339.603 140.37 339.771 140.112 339.885 139.804L342.286 140.074C342.134 140.708 341.845 141.262 341.419 141.736C340.998 142.205 340.458 142.569 339.8 142.83C339.142 143.085 338.389 143.213 337.541 143.213ZM343.658 134.2V132.091H353.203V134.2H349.674V143H347.188V134.2H343.658ZM357.941 143.22C357.249 143.22 356.627 143.097 356.073 142.851C355.524 142.6 355.088 142.231 354.766 141.743C354.449 141.255 354.29 140.654 354.29 139.939C354.29 139.323 354.404 138.814 354.631 138.412C354.858 138.009 355.168 137.687 355.561 137.446C355.954 137.205 356.397 137.022 356.89 136.899C357.387 136.771 357.9 136.679 358.431 136.622C359.07 136.556 359.588 136.497 359.986 136.445C360.384 136.388 360.673 136.303 360.853 136.189C361.037 136.071 361.13 135.888 361.13 135.642V135.599C361.13 135.064 360.971 134.65 360.654 134.357C360.337 134.063 359.88 133.916 359.283 133.916C358.653 133.916 358.154 134.054 357.784 134.328C357.42 134.603 357.174 134.927 357.046 135.301L354.645 134.96C354.835 134.297 355.147 133.743 355.583 133.298C356.018 132.848 356.551 132.512 357.181 132.29C357.81 132.062 358.507 131.949 359.269 131.949C359.794 131.949 360.318 132.01 360.838 132.134C361.359 132.257 361.835 132.46 362.266 132.744C362.697 133.024 363.042 133.405 363.303 133.888C363.568 134.371 363.701 134.974 363.701 135.699V143H361.229V141.501H361.144C360.988 141.804 360.767 142.089 360.483 142.354C360.204 142.614 359.851 142.825 359.425 142.986C359.004 143.142 358.509 143.22 357.941 143.22ZM358.608 141.331C359.124 141.331 359.572 141.229 359.951 141.026C360.329 140.817 360.621 140.543 360.824 140.202C361.033 139.861 361.137 139.489 361.137 139.087V137.801C361.056 137.867 360.919 137.929 360.725 137.986C360.535 138.043 360.322 138.092 360.086 138.135C359.849 138.178 359.614 138.215 359.382 138.249C359.15 138.282 358.949 138.31 358.779 138.334C358.395 138.386 358.052 138.471 357.749 138.589C357.446 138.708 357.207 138.874 357.032 139.087C356.856 139.295 356.769 139.565 356.769 139.896C356.769 140.37 356.942 140.727 357.287 140.969C357.633 141.21 358.073 141.331 358.608 141.331ZM373.725 139.52L378.093 132.091H380.735V143H378.25V135.564L373.896 143H371.247V132.091H373.725V139.52ZM392.229 134.065C391.869 134.07 391.537 134.148 391.234 134.3C390.931 134.451 390.688 134.657 390.503 134.918C390.323 135.173 390.233 135.472 390.233 135.812H387.868C387.868 135.263 387.982 134.752 388.209 134.278C388.436 133.805 388.749 133.393 389.146 133.043C389.549 132.692 390.013 132.42 390.538 132.226C391.069 132.027 391.632 131.928 392.229 131.928C393.289 131.928 394.184 132.174 394.913 132.666C395.647 133.159 396.201 133.821 396.575 134.655C396.954 135.483 397.143 136.402 397.143 137.411V137.716C397.143 138.724 396.956 139.645 396.582 140.479C396.208 141.307 395.654 141.968 394.92 142.46C394.191 142.953 393.294 143.199 392.229 143.199C391.376 143.199 390.621 143.026 389.963 142.68C389.31 142.33 388.796 141.842 388.422 141.217C388.053 140.592 387.868 139.863 387.868 139.03H390.233C390.233 139.39 390.318 139.723 390.489 140.031C390.659 140.334 390.893 140.578 391.192 140.763C391.495 140.947 391.84 141.042 392.229 141.047C392.811 141.042 393.28 140.869 393.635 140.528C393.995 140.187 394.255 139.761 394.416 139.25C394.582 138.739 394.665 138.227 394.665 137.716V137.411C394.665 136.861 394.582 136.333 394.416 135.827C394.255 135.315 393.995 134.896 393.635 134.57C393.28 134.238 392.811 134.07 392.229 134.065ZM395.467 136.679V138.384H391.312V136.679H395.467ZM406.806 136.48V138.589H400.996V136.48H406.806ZM401.792 132.091V143H399.313V132.091H401.792ZM408.489 132.091V143H406.018V132.091H408.489ZM415.92 143.213C414.826 143.213 413.882 142.986 413.086 142.531C412.296 142.072 411.687 141.423 411.261 140.585C410.835 139.742 410.622 138.75 410.622 137.609C410.622 136.487 410.835 135.502 411.261 134.655C411.692 133.803 412.293 133.14 413.065 132.666C413.837 132.188 414.743 131.949 415.785 131.949C416.458 131.949 417.092 132.058 417.689 132.276C418.29 132.489 418.82 132.82 419.279 133.27C419.743 133.72 420.108 134.293 420.373 134.989C420.638 135.68 420.771 136.504 420.771 137.46V138.249H411.829V136.516H418.306C418.302 136.023 418.195 135.585 417.987 135.202C417.779 134.813 417.487 134.508 417.113 134.286C416.744 134.063 416.313 133.952 415.821 133.952C415.295 133.952 414.833 134.08 414.436 134.335C414.038 134.586 413.728 134.918 413.505 135.33C413.288 135.737 413.176 136.184 413.172 136.672V138.185C413.172 138.819 413.288 139.364 413.52 139.818C413.752 140.268 414.076 140.614 414.493 140.855C414.909 141.092 415.397 141.21 415.956 141.21C416.33 141.21 416.668 141.158 416.971 141.054C417.274 140.945 417.537 140.786 417.76 140.578C417.982 140.37 418.15 140.112 418.264 139.804L420.664 140.074C420.513 140.708 420.224 141.262 419.798 141.736C419.377 142.205 418.837 142.569 418.179 142.83C417.52 143.085 416.768 143.213 415.92 143.213ZM422.946 147.091V132.091H425.474V133.895H425.624C425.756 133.63 425.943 133.348 426.185 133.05C426.426 132.747 426.753 132.489 427.165 132.276C427.577 132.058 428.102 131.949 428.741 131.949C429.584 131.949 430.344 132.164 431.021 132.595C431.703 133.021 432.243 133.653 432.641 134.491C433.043 135.325 433.244 136.348 433.244 137.56C433.244 138.758 433.048 139.776 432.655 140.614C432.262 141.452 431.727 142.091 431.05 142.531C430.373 142.972 429.606 143.192 428.749 143.192C428.124 143.192 427.605 143.088 427.193 142.879C426.781 142.671 426.45 142.42 426.199 142.126C425.953 141.828 425.761 141.546 425.624 141.281H425.517V147.091H422.946ZM425.467 137.545C425.467 138.251 425.567 138.869 425.766 139.399C425.969 139.929 426.26 140.344 426.639 140.642C427.023 140.936 427.487 141.082 428.031 141.082C428.599 141.082 429.075 140.931 429.459 140.628C429.842 140.32 430.131 139.901 430.325 139.371C430.524 138.836 430.624 138.227 430.624 137.545C430.624 136.868 430.527 136.267 430.332 135.741C430.138 135.216 429.849 134.804 429.466 134.506C429.082 134.207 428.604 134.058 428.031 134.058C427.482 134.058 427.016 134.203 426.632 134.491C426.249 134.78 425.957 135.185 425.759 135.706C425.564 136.227 425.467 136.84 425.467 137.545ZM442.662 132.091V134.2H437.96V143H435.446V132.091H442.662ZM447.202 139.52L451.57 132.091H454.212V143H451.726V135.564L447.373 143H444.723V132.091H447.202V139.52ZM459.331 139.52L463.699 132.091H466.341V143H463.855V135.564L459.501 143H456.852V132.091H459.331V139.52ZM473.942 143V132.091H476.513V136.494H477.451L480.732 132.091H483.828L479.787 137.446L483.871 143H480.76L477.77 138.888H476.513V143H473.942ZM489.638 143.213C488.573 143.213 487.65 142.979 486.868 142.51C486.087 142.041 485.481 141.385 485.05 140.543C484.624 139.7 484.411 138.715 484.411 137.588C484.411 136.461 484.624 135.474 485.05 134.626C485.481 133.779 486.087 133.121 486.868 132.652C487.65 132.183 488.573 131.949 489.638 131.949C490.703 131.949 491.627 132.183 492.408 132.652C493.189 133.121 493.793 133.779 494.219 134.626C494.65 135.474 494.865 136.461 494.865 137.588C494.865 138.715 494.65 139.7 494.219 140.543C493.793 141.385 493.189 142.041 492.408 142.51C491.627 142.979 490.703 143.213 489.638 143.213ZM489.652 141.153C490.23 141.153 490.713 140.995 491.101 140.678C491.489 140.356 491.778 139.925 491.968 139.385C492.162 138.845 492.259 138.244 492.259 137.581C492.259 136.913 492.162 136.31 491.968 135.77C491.778 135.225 491.489 134.792 491.101 134.47C490.713 134.148 490.23 133.987 489.652 133.987C489.06 133.987 488.568 134.148 488.175 134.47C487.787 134.792 487.496 135.225 487.301 135.77C487.112 136.31 487.017 136.913 487.017 137.581C487.017 138.244 487.112 138.845 487.301 139.385C487.496 139.925 487.787 140.356 488.175 140.678C488.568 140.995 489.06 141.153 489.652 141.153ZM497.048 132.091H499.526V140.884H502.957V132.091H505.435V140.884H508.866V132.091H511.344V143H497.048V132.091ZM518.772 143.213C517.678 143.213 516.733 142.986 515.938 142.531C515.147 142.072 514.539 141.423 514.113 140.585C513.686 139.742 513.473 138.75 513.473 137.609C513.473 136.487 513.686 135.502 514.113 134.655C514.543 133.803 515.145 133.14 515.917 132.666C516.688 132.188 517.595 131.949 518.637 131.949C519.309 131.949 519.944 132.058 520.54 132.276C521.141 132.489 521.672 132.82 522.131 133.27C522.595 133.72 522.96 134.293 523.225 134.989C523.49 135.68 523.623 136.504 523.623 137.46V138.249H514.681V136.516H521.158C521.153 136.023 521.047 135.585 520.838 135.202C520.63 134.813 520.339 134.508 519.965 134.286C519.596 134.063 519.165 133.952 518.672 133.952C518.147 133.952 517.685 134.08 517.287 134.335C516.89 134.586 516.579 134.918 516.357 135.33C516.139 135.737 516.028 136.184 516.023 136.672V138.185C516.023 138.819 516.139 139.364 516.371 139.818C516.603 140.268 516.927 140.614 517.344 140.855C517.761 141.092 518.248 141.21 518.807 141.21C519.181 141.21 519.52 141.158 519.823 141.054C520.126 140.945 520.389 140.786 520.611 140.578C520.834 140.37 521.002 140.112 521.115 139.804L523.516 140.074C523.364 140.708 523.076 141.262 522.65 141.736C522.228 142.205 521.688 142.569 521.03 142.83C520.372 143.085 519.619 143.213 518.772 143.213ZM525.798 143V132.091H528.369V136.494H529.306L532.587 132.091H535.684L531.643 137.446L535.727 143H532.616L529.626 138.888H528.369V143H525.798Z" fill="#F0563A"/>
</svg>
