<svg width="363" height="180" viewBox="0 0 363 180" fill="none" xmlns="http://www.w3.org/2000/svg">
<path d="M358.177 177.894C359.179 178.065 360.141 177.425 360.372 176.435C360.602 175.444 360.02 174.446 359.045 174.158C352.661 172.269 347.082 167.553 342.282 160.864C337.487 154.181 333.571 145.664 330.482 136.443C324.304 117.995 321.553 97.0734 321.553 83.277C321.553 38.1419 278.378 2.07863 225.823 2.07863L97.8088 2.07867C45.2543 2.07867 2.07863 38.142 2.07863 83.277C2.07863 128.412 45.2543 164.475 97.8088 164.475L225.823 164.475C245.931 164.475 264.612 159.218 280.038 150.214C299.047 159.563 335.253 173.984 358.177 177.894Z" fill="white" stroke="white" stroke-width="3.84274" stroke-linejoin="round"/>
<path d="M72.3081 59.6364V80H66.7797V64.7273H66.6604L62.2059 67.392V62.6989L67.2172 59.6364H72.3081ZM88.1426 76.1818V75.108C88.1426 74.2462 88.3283 73.4508 88.6995 72.7216C89.0773 71.9924 89.6242 71.4058 90.3401 70.9616C91.056 70.5175 91.9277 70.2955 92.9551 70.2955C94.0091 70.2955 94.8941 70.5142 95.61 70.9517C96.3325 71.3892 96.8794 71.9725 97.2506 72.7017C97.6218 73.4309 97.8074 74.233 97.8074 75.108V76.1818C97.8074 77.0436 97.6185 77.839 97.2407 78.5682C96.8694 79.2973 96.3226 79.884 95.6 80.3281C94.8775 80.7723 93.9959 80.9943 92.9551 80.9943C91.9144 80.9943 91.0361 80.7723 90.3202 80.3281C89.6043 79.884 89.0607 79.2973 88.6895 78.5682C88.3249 77.839 88.1426 77.0436 88.1426 76.1818ZM91.6029 75.108V76.1818C91.6029 76.5597 91.6957 76.9342 91.8813 77.3054C92.0735 77.67 92.4315 77.8523 92.9551 77.8523C93.5053 77.8523 93.8666 77.6733 94.039 77.3153C94.2179 76.9574 94.3074 76.5795 94.3074 76.1818V75.108C94.3074 74.7102 94.2246 74.3258 94.0588 73.9545C93.8931 73.5833 93.5252 73.3977 92.9551 73.3977C92.4315 73.3977 92.0735 73.5833 91.8813 73.9545C91.6957 74.3258 91.6029 74.7102 91.6029 75.108ZM77.4836 64.5284V63.4545C77.4836 62.5795 77.6725 61.7775 78.0503 61.0483C78.4348 60.3191 78.985 59.7358 79.7009 59.2983C80.4168 58.8608 81.2818 58.642 82.2961 58.642C83.35 58.642 84.235 58.8608 84.9509 59.2983C85.6734 59.7358 86.2203 60.3191 86.5915 61.0483C86.9627 61.7775 87.1483 62.5795 87.1483 63.4545V64.5284C87.1483 65.4034 86.9594 66.2022 86.5816 66.9247C86.2104 67.6473 85.6635 68.224 84.9409 68.6548C84.2184 69.0857 83.3368 69.3011 82.2961 69.3011C81.2553 69.3011 80.377 69.0824 79.6611 68.6449C78.9452 68.2074 78.4016 67.6274 78.0304 66.9048C77.6658 66.1823 77.4836 65.3902 77.4836 64.5284ZM80.9836 63.4545V64.5284C80.9836 64.9261 81.0764 65.304 81.262 65.6619C81.4476 66.0199 81.7923 66.1989 82.2961 66.1989C82.8462 66.1989 83.2075 66.0199 83.3799 65.6619C83.5588 65.304 83.6483 64.9261 83.6483 64.5284V63.4545C83.6483 63.0568 83.5655 62.6723 83.3997 62.3011C83.234 61.9299 82.8661 61.7443 82.2961 61.7443C81.7724 61.7443 81.4211 61.9366 81.2421 62.321C81.0697 62.6989 80.9836 63.0767 80.9836 63.4545ZM79.1739 80L93.1739 59.6364H95.9978L81.9978 80H79.1739ZM117.942 66C117.889 65.3371 117.641 64.8201 117.197 64.4489C116.759 64.0777 116.093 63.892 115.198 63.892C114.628 63.892 114.161 63.9616 113.796 64.1009C113.438 64.2334 113.173 64.4157 113.001 64.6477C112.828 64.8797 112.739 65.1449 112.732 65.4432C112.719 65.6884 112.762 65.9105 112.861 66.1094C112.967 66.3016 113.133 66.4773 113.359 66.6364C113.584 66.7888 113.872 66.928 114.224 67.054C114.575 67.1799 114.993 67.2926 115.476 67.392L117.147 67.75C118.274 67.9886 119.238 68.3035 120.04 68.6946C120.842 69.0857 121.499 69.5464 122.009 70.0767C122.52 70.6004 122.894 71.1903 123.133 71.8466C123.378 72.5028 123.504 73.2187 123.511 73.9943C123.504 75.3333 123.169 76.4669 122.506 77.3949C121.843 78.3229 120.895 79.0289 119.663 79.5128C118.436 79.9967 116.961 80.2386 115.238 80.2386C113.468 80.2386 111.923 79.9768 110.604 79.4531C109.292 78.9295 108.271 78.1241 107.542 77.0369C106.819 75.9432 106.455 74.5445 106.448 72.8409H111.698C111.731 73.464 111.887 73.9877 112.165 74.4119C112.444 74.8362 112.835 75.1577 113.339 75.3764C113.849 75.5952 114.456 75.7045 115.158 75.7045C115.748 75.7045 116.242 75.6316 116.64 75.4858C117.038 75.34 117.339 75.1378 117.545 74.8793C117.75 74.6207 117.856 74.3258 117.863 73.9943C117.856 73.6828 117.753 73.411 117.555 73.179C117.362 72.9403 117.044 72.7282 116.6 72.5426C116.156 72.3504 115.556 72.1714 114.8 72.0057L112.772 71.5682C110.969 71.1771 109.547 70.5241 108.506 69.6094C107.472 68.688 106.958 67.4318 106.965 65.8409C106.958 64.5483 107.303 63.4181 107.999 62.4503C108.702 61.4759 109.673 60.7169 110.913 60.1733C112.159 59.6297 113.587 59.358 115.198 59.358C116.842 59.358 118.264 59.633 119.464 60.1832C120.663 60.7334 121.588 61.509 122.238 62.5099C122.894 63.5043 123.226 64.6676 123.232 66H117.942ZM135.596 73.3182V64.7273H141.085V80H135.875V77.0966H135.716C135.384 78.071 134.804 78.8333 133.976 79.3835C133.147 79.9271 132.163 80.1989 131.023 80.1989C129.955 80.1989 129.021 79.9536 128.219 79.4631C127.423 78.9725 126.803 78.2964 126.359 77.4347C125.922 76.5729 125.7 75.5852 125.693 74.4716V64.7273H131.182V73.3182C131.188 74.0739 131.381 74.6671 131.758 75.098C132.143 75.5289 132.68 75.7443 133.369 75.7443C133.827 75.7443 134.221 75.6482 134.552 75.456C134.891 75.2571 135.149 74.9787 135.328 74.6207C135.514 74.2562 135.603 73.822 135.596 73.3182ZM143.877 85.7273V64.7273H149.326V67.392H149.445C149.644 66.875 149.935 66.401 150.32 65.9702C150.704 65.5327 151.182 65.1847 151.752 64.9261C152.322 64.661 152.985 64.5284 153.74 64.5284C154.748 64.5284 155.706 64.7969 156.614 65.3338C157.529 65.8707 158.271 66.7159 158.841 67.8693C159.418 69.0227 159.706 70.5208 159.706 72.3636C159.706 74.1269 159.431 75.5885 158.881 76.7486C158.337 77.9086 157.608 78.7737 156.693 79.3438C155.785 79.9138 154.788 80.1989 153.701 80.1989C152.985 80.1989 152.345 80.0829 151.781 79.8509C151.225 79.6122 150.747 79.2907 150.35 78.8864C149.959 78.4754 149.657 78.0114 149.445 77.4943H149.365V85.7273H143.877ZM149.246 72.3636C149.246 73.1061 149.342 73.7491 149.534 74.2926C149.733 74.8295 150.012 75.2472 150.37 75.5455C150.734 75.8371 151.168 75.983 151.672 75.983C152.176 75.983 152.603 75.8404 152.955 75.5554C153.313 75.2637 153.585 74.8494 153.77 74.3125C153.962 73.7689 154.058 73.1193 154.058 72.3636C154.058 71.608 153.962 70.9616 153.77 70.4247C153.585 69.8812 153.313 69.4669 152.955 69.1818C152.603 68.8902 152.176 68.7443 151.672 68.7443C151.168 68.7443 150.734 68.8902 150.37 69.1818C150.012 69.4669 149.733 69.8812 149.534 70.4247C149.342 70.9616 149.246 71.608 149.246 72.3636ZM169.324 80.2784C167.693 80.2784 166.288 79.9669 165.108 79.3438C163.935 78.714 163.03 77.8125 162.393 76.6392C161.764 75.4593 161.449 74.0473 161.449 72.4034C161.449 70.8258 161.767 69.447 162.403 68.267C163.04 67.0871 163.938 66.169 165.098 65.5128C166.258 64.8565 167.627 64.5284 169.204 64.5284C170.358 64.5284 171.402 64.7074 172.337 65.0653C173.271 65.4233 174.07 65.9437 174.733 66.6264C175.396 67.3026 175.906 68.1245 176.264 69.0923C176.622 70.0601 176.801 71.1506 176.801 72.3636V73.6364H163.159V70.6136H171.75C171.743 70.1761 171.631 69.7917 171.412 69.4602C171.2 69.1222 170.911 68.8603 170.547 68.6747C170.189 68.4825 169.781 68.3864 169.324 68.3864C168.88 68.3864 168.472 68.4825 168.101 68.6747C167.73 68.8603 167.431 69.1188 167.206 69.4503C166.987 69.7817 166.871 70.1695 166.858 70.6136V73.875C166.858 74.3655 166.961 74.803 167.166 75.1875C167.372 75.572 167.667 75.8736 168.051 76.0923C168.435 76.3111 168.9 76.4205 169.443 76.4205C169.821 76.4205 170.166 76.3674 170.477 76.2614C170.795 76.1553 171.067 76.0028 171.293 75.804C171.518 75.5985 171.684 75.3532 171.79 75.0682H176.801C176.629 76.1288 176.221 77.0502 175.578 77.8324C174.935 78.608 174.083 79.2112 173.023 79.642C171.969 80.0663 170.736 80.2784 169.324 80.2784ZM179.041 80V64.7273H184.37V67.6307H184.529C184.808 66.5568 185.249 65.7713 185.852 65.2741C186.462 64.777 187.174 64.5284 187.99 64.5284C188.228 64.5284 188.464 64.5483 188.696 64.5881C188.934 64.6212 189.163 64.6709 189.382 64.7372V69.4205C189.11 69.3277 188.775 69.258 188.377 69.2116C187.98 69.1652 187.638 69.142 187.353 69.142C186.816 69.142 186.332 69.2647 185.902 69.5099C185.477 69.7486 185.143 70.0866 184.897 70.5241C184.652 70.955 184.529 71.4621 184.529 72.0455V80H179.041ZM196.68 80V59.6364H210.998V64.0909H202.208V67.5909H210.123V72.0455H202.208V80H196.68ZM219.348 80.2784C217.691 80.2784 216.272 79.9503 215.092 79.294C213.912 78.6312 213.007 77.7098 212.378 76.5298C211.748 75.3433 211.433 73.9678 211.433 72.4034C211.433 70.839 211.748 69.4669 212.378 68.2869C213.007 67.1004 213.912 66.179 215.092 65.5227C216.272 64.8598 217.691 64.5284 219.348 64.5284C221.005 64.5284 222.424 64.8598 223.604 65.5227C224.784 66.179 225.688 67.1004 226.318 68.2869C226.948 69.4669 227.263 70.839 227.263 72.4034C227.263 73.9678 226.948 75.3433 226.318 76.5298C225.688 77.7098 224.784 78.6312 223.604 79.294C222.424 79.9503 221.005 80.2784 219.348 80.2784ZM219.388 76.2216C219.852 76.2216 220.253 76.0658 220.591 75.7543C220.929 75.4427 221.191 74.9986 221.376 74.4219C221.562 73.8452 221.655 73.1591 221.655 72.3636C221.655 71.5616 221.562 70.8755 221.376 70.3054C221.191 69.7287 220.929 69.2846 220.591 68.973C220.253 68.6615 219.852 68.5057 219.388 68.5057C218.897 68.5057 218.476 68.6615 218.125 68.973C217.774 69.2846 217.505 69.7287 217.319 70.3054C217.134 70.8755 217.041 71.5616 217.041 72.3636C217.041 73.1591 217.134 73.8452 217.319 74.4219C217.505 74.9986 217.774 75.4427 218.125 75.7543C218.476 76.0658 218.897 76.2216 219.388 76.2216ZM236.848 80.2784C235.191 80.2784 233.772 79.9503 232.592 79.294C231.412 78.6312 230.507 77.7098 229.878 76.5298C229.248 75.3433 228.933 73.9678 228.933 72.4034C228.933 70.839 229.248 69.4669 229.878 68.2869C230.507 67.1004 231.412 66.179 232.592 65.5227C233.772 64.8598 235.191 64.5284 236.848 64.5284C238.505 64.5284 239.924 64.8598 241.104 65.5227C242.284 66.179 243.188 67.1004 243.818 68.2869C244.448 69.4669 244.763 70.839 244.763 72.4034C244.763 73.9678 244.448 75.3433 243.818 76.5298C243.188 77.7098 242.284 78.6312 241.104 79.294C239.924 79.9503 238.505 80.2784 236.848 80.2784ZM236.888 76.2216C237.352 76.2216 237.753 76.0658 238.091 75.7543C238.429 75.4427 238.691 74.9986 238.876 74.4219C239.062 73.8452 239.155 73.1591 239.155 72.3636C239.155 71.5616 239.062 70.8755 238.876 70.3054C238.691 69.7287 238.429 69.2846 238.091 68.973C237.753 68.6615 237.352 68.5057 236.888 68.5057C236.397 68.5057 235.976 68.6615 235.625 68.973C235.274 69.2846 235.005 69.7287 234.819 70.3054C234.634 70.8755 234.541 71.5616 234.541 72.3636C234.541 73.1591 234.634 73.8452 234.819 74.4219C235.005 74.9986 235.274 75.4427 235.625 75.7543C235.976 76.0658 236.397 76.2216 236.888 76.2216ZM252.518 80.1989C251.431 80.1989 250.43 79.9138 249.516 79.3438C248.607 78.7737 247.878 77.9086 247.328 76.7486C246.784 75.5885 246.513 74.1269 246.513 72.3636C246.513 70.5208 246.798 69.0227 247.368 67.8693C247.944 66.7159 248.687 65.8707 249.595 65.3338C250.51 64.7969 251.471 64.5284 252.479 64.5284C253.234 64.5284 253.897 64.661 254.467 64.9261C255.037 65.1847 255.515 65.5327 255.899 65.9702C256.284 66.401 256.575 66.875 256.774 67.392H256.854V59.6364H262.342V80H256.893V77.4943H256.774C256.562 78.0114 256.257 78.4754 255.859 78.8864C255.468 79.2907 254.991 79.6122 254.427 79.8509C253.871 80.0829 253.234 80.1989 252.518 80.1989ZM254.547 75.983C255.051 75.983 255.481 75.8371 255.839 75.5455C256.204 75.2472 256.482 74.8295 256.675 74.2926C256.873 73.7491 256.973 73.1061 256.973 72.3636C256.973 71.608 256.873 70.9616 256.675 70.4247C256.482 69.8812 256.204 69.4669 255.839 69.1818C255.481 68.8902 255.051 68.7443 254.547 68.7443C254.043 68.7443 253.612 68.8902 253.254 69.1818C252.903 69.4669 252.631 69.8812 252.439 70.4247C252.253 70.9616 252.16 71.608 252.16 72.3636C252.16 73.1193 252.253 73.7689 252.439 74.3125C252.631 74.8494 252.903 75.2637 253.254 75.5554C253.612 75.8404 254.043 75.983 254.547 75.983Z" fill="black"/>
<path d="M125.662 31.3636V43H123.571V33.1136H118.48V43H116.389V31.3636H125.662ZM128.092 46.2727V34.2727H130.115V35.7159H130.234C130.34 35.5038 130.49 35.2784 130.683 35.0398C130.876 34.7973 131.138 34.5909 131.467 34.4205C131.797 34.2462 132.217 34.1591 132.729 34.1591C133.403 34.1591 134.011 34.3314 134.552 34.6761C135.098 35.017 135.53 35.5227 135.848 36.1932C136.17 36.8598 136.331 37.678 136.331 38.6477C136.331 39.6061 136.174 40.4205 135.859 41.0909C135.545 41.7614 135.117 42.2727 134.575 42.625C134.034 42.9773 133.42 43.1534 132.734 43.1534C132.234 43.1534 131.819 43.0701 131.49 42.9034C131.16 42.7367 130.895 42.536 130.694 42.3011C130.498 42.0625 130.344 41.8371 130.234 41.625H130.149V46.2727H128.092ZM130.109 38.6364C130.109 39.2008 130.189 39.6951 130.348 40.1193C130.511 40.5436 130.744 40.875 131.047 41.1136C131.354 41.3485 131.725 41.4659 132.16 41.4659C132.615 41.4659 132.996 41.3447 133.302 41.1023C133.609 40.8561 133.84 40.5208 133.996 40.0966C134.155 39.6686 134.234 39.1818 134.234 38.6364C134.234 38.0947 134.157 37.6136 134.001 37.1932C133.846 36.7727 133.615 36.4432 133.308 36.2045C133.001 35.9659 132.619 35.8466 132.16 35.8466C131.721 35.8466 131.348 35.9621 131.041 36.1932C130.734 36.4242 130.501 36.7481 130.342 37.1648C130.187 37.5814 130.109 38.072 130.109 38.6364ZM140.604 43.1761C140.051 43.1761 139.552 43.0777 139.109 42.8807C138.67 42.6799 138.321 42.3845 138.064 41.9943C137.81 41.6042 137.683 41.1231 137.683 40.5511C137.683 40.0587 137.774 39.6515 137.956 39.3295C138.138 39.0076 138.386 38.75 138.7 38.5568C139.015 38.3636 139.369 38.2178 139.763 38.1193C140.16 38.017 140.571 37.9432 140.996 37.8977C141.507 37.8447 141.922 37.7973 142.24 37.7557C142.558 37.7102 142.789 37.642 142.933 37.5511C143.081 37.4564 143.155 37.3106 143.155 37.1136V37.0795C143.155 36.6515 143.028 36.3201 142.774 36.0852C142.52 35.8504 142.155 35.733 141.677 35.733C141.174 35.733 140.774 35.8428 140.479 36.0625C140.187 36.2822 139.99 36.5417 139.888 36.8409L137.967 36.5682C138.119 36.0379 138.369 35.5947 138.717 35.2386C139.066 34.8788 139.492 34.6098 139.996 34.4318C140.499 34.25 141.056 34.1591 141.666 34.1591C142.087 34.1591 142.505 34.2083 142.922 34.3068C143.338 34.4053 143.719 34.5682 144.064 34.7955C144.409 35.0189 144.685 35.3239 144.893 35.7102C145.105 36.0966 145.212 36.5795 145.212 37.1591V43H143.234V41.8011H143.166C143.041 42.0436 142.865 42.2708 142.638 42.483C142.414 42.6913 142.132 42.8598 141.791 42.9886C141.454 43.1136 141.058 43.1761 140.604 43.1761ZM141.138 41.6648C141.551 41.6648 141.909 41.5833 142.212 41.4205C142.515 41.2538 142.748 41.0341 142.91 40.7614C143.077 40.4886 143.16 40.1913 143.16 39.8693V38.8409C143.096 38.8939 142.986 38.9432 142.831 38.9886C142.679 39.0341 142.509 39.0739 142.319 39.108C142.13 39.142 141.943 39.1723 141.757 39.1989C141.571 39.2254 141.41 39.2481 141.274 39.267C140.967 39.3087 140.693 39.3769 140.45 39.4716C140.208 39.5663 140.016 39.6989 139.876 39.8693C139.736 40.036 139.666 40.2519 139.666 40.517C139.666 40.8958 139.804 41.1818 140.081 41.375C140.357 41.5682 140.71 41.6648 141.138 41.6648ZM147.28 43V34.2727H150.944C151.979 34.2727 152.795 34.4792 153.393 34.892C153.996 35.3049 154.297 35.8807 154.297 36.6193C154.297 37.108 154.126 37.5076 153.785 37.8182C153.448 38.125 152.988 38.3314 152.405 38.4375C152.863 38.4754 153.265 38.5909 153.609 38.7841C153.958 38.9773 154.23 39.2311 154.427 39.5455C154.624 39.8598 154.723 40.2216 154.723 40.6307C154.723 41.1117 154.596 41.5303 154.342 41.8864C154.092 42.2386 153.727 42.5133 153.246 42.7102C152.768 42.9034 152.189 43 151.507 43H147.28ZM149.206 41.3807H151.507C151.886 41.3807 152.183 41.2917 152.399 41.1136C152.615 40.9318 152.723 40.6856 152.723 40.375C152.723 40.0152 152.615 39.733 152.399 39.5284C152.183 39.3201 151.886 39.2159 151.507 39.2159H149.206V41.3807ZM149.206 37.8864H150.984C151.265 37.8864 151.505 37.8466 151.706 37.767C151.907 37.6837 152.06 37.5682 152.166 37.4205C152.272 37.2689 152.325 37.089 152.325 36.8807C152.325 36.5814 152.202 36.3466 151.956 36.1761C151.713 36.0057 151.376 35.9205 150.944 35.9205H149.206V37.8864ZM158.403 40.2159L161.898 34.2727L164.011 34.2727V43H162.023V37.0511L158.54 43H156.42V34.2727H158.403V40.2159ZM165.521 43L165.51 41.3068H165.811C166.038 41.3068 166.23 41.2557 166.385 41.1534C166.54 41.0511 166.669 40.8807 166.771 40.642C166.873 40.3996 166.953 40.0739 167.01 39.6648C167.067 39.2557 167.106 38.7462 167.129 38.1364L167.283 34.2727H173.646V43H171.658V35.9602H169.152L169.016 38.7727C168.981 39.5 168.9 40.1307 168.771 40.6648C168.646 41.1951 168.468 41.6326 168.237 41.9773C168.01 42.322 167.724 42.5795 167.379 42.75C167.034 42.9167 166.627 43 166.158 43H165.521ZM179.524 43.1705C178.672 43.1705 177.933 42.983 177.308 42.608C176.683 42.233 176.198 41.7083 175.854 41.0341C175.513 40.3598 175.342 39.572 175.342 38.6705C175.342 37.7689 175.513 36.9792 175.854 36.3011C176.198 35.6231 176.683 35.0966 177.308 34.7216C177.933 34.3466 178.672 34.1591 179.524 34.1591C180.376 34.1591 181.115 34.3466 181.74 34.7216C182.365 35.0966 182.848 35.6231 183.189 36.3011C183.534 36.9792 183.706 37.7689 183.706 38.6705C183.706 39.572 183.534 40.3598 183.189 41.0341C182.848 41.7083 182.365 42.233 181.74 42.608C181.115 42.983 180.376 43.1705 179.524 43.1705ZM179.535 41.5227C179.998 41.5227 180.384 41.3958 180.694 41.142C181.005 40.8845 181.236 40.5398 181.388 40.108C181.543 39.6761 181.621 39.1951 181.621 38.6648C181.621 38.1307 181.543 37.6477 181.388 37.2159C181.236 36.7803 181.005 36.4337 180.694 36.1761C180.384 35.9186 179.998 35.7898 179.535 35.7898C179.062 35.7898 178.668 35.9186 178.354 36.1761C178.043 36.4337 177.81 36.7803 177.655 37.2159C177.503 37.6477 177.427 38.1307 177.427 38.6648C177.427 39.1951 177.503 39.6761 177.655 40.108C177.81 40.5398 178.043 40.8845 178.354 41.142C178.668 41.3958 179.062 41.5227 179.535 41.5227ZM193.807 43L195.716 31.3636H197.307L195.398 43H193.807ZM188.562 40L188.829 38.4091H197.784L197.517 40H188.562ZM189.716 43L191.625 31.3636H193.216L191.307 43H189.716ZM189.239 35.9545L189.5 34.3636H198.454L198.193 35.9545H189.239ZM199.694 43V41.4773L203.734 37.517C204.121 37.1269 204.443 36.7803 204.7 36.4773C204.958 36.1742 205.151 35.8807 205.28 35.5966C205.409 35.3125 205.473 35.0095 205.473 34.6875C205.473 34.3201 205.39 34.0057 205.223 33.7443C205.056 33.4792 204.827 33.2746 204.535 33.1307C204.244 32.9867 203.912 32.9148 203.541 32.9148C203.159 32.9148 202.823 32.9943 202.535 33.1534C202.248 33.3087 202.024 33.5303 201.865 33.8182C201.71 34.1061 201.632 34.4489 201.632 34.8466H199.626C199.626 34.108 199.795 33.4659 200.132 32.9205C200.469 32.375 200.933 31.9527 201.524 31.6534C202.119 31.3542 202.801 31.2045 203.569 31.2045C204.35 31.2045 205.035 31.3504 205.626 31.642C206.217 31.9337 206.676 32.3333 207.001 32.8409C207.331 33.3485 207.496 33.928 207.496 34.5795C207.496 35.0152 207.412 35.4432 207.246 35.8636C207.079 36.2841 206.785 36.75 206.365 37.2614C205.948 37.7727 205.363 38.392 204.609 39.1193L202.604 41.1591V41.2386H207.672V43H199.694Z" fill="#F0563A"/>
<path d="M54.0249 112.807V108.278H54.8033C55.0646 108.07 55.3089 107.777 55.5362 107.398C55.7635 107.019 55.9567 106.5 56.1158 105.841C56.2749 105.182 56.3847 104.33 56.4453 103.284L56.7521 98.3636H64.1896V108.278H65.4851V112.795H63.4624V110H56.0476V112.807H54.0249ZM57.2578 108.278H62.1669V100.131H58.6499L58.468 103.284C58.4188 104.076 58.3393 104.784 58.2294 105.409C58.1196 106.034 57.9813 106.585 57.8146 107.062C57.648 107.536 57.4624 107.941 57.2578 108.278ZM70.9183 110.17C70.0661 110.17 69.3274 109.983 68.7024 109.608C68.0774 109.233 67.5926 108.708 67.2479 108.034C66.907 107.36 66.7365 106.572 66.7365 105.67C66.7365 104.769 66.907 103.979 67.2479 103.301C67.5926 102.623 68.0774 102.097 68.7024 101.722C69.3274 101.347 70.0661 101.159 70.9183 101.159C71.7706 101.159 72.5092 101.347 73.1342 101.722C73.7592 102.097 74.2422 102.623 74.5831 103.301C74.9278 103.979 75.1001 104.769 75.1001 105.67C75.1001 106.572 74.9278 107.36 74.5831 108.034C74.2422 108.708 73.7592 109.233 73.1342 109.608C72.5092 109.983 71.7706 110.17 70.9183 110.17ZM70.9297 108.523C71.3918 108.523 71.7782 108.396 72.0888 108.142C72.3994 107.884 72.6304 107.54 72.782 107.108C72.9373 106.676 73.0149 106.195 73.0149 105.665C73.0149 105.131 72.9373 104.648 72.782 104.216C72.6304 103.78 72.3994 103.434 72.0888 103.176C71.7782 102.919 71.3918 102.79 70.9297 102.79C70.4562 102.79 70.0623 102.919 69.7479 103.176C69.4373 103.434 69.2043 103.78 69.049 104.216C68.8975 104.648 68.8217 105.131 68.8217 105.665C68.8217 106.195 68.8975 106.676 69.049 107.108C69.2043 107.54 69.4373 107.884 69.7479 108.142C70.0623 108.396 70.4562 108.523 70.9297 108.523ZM83.8402 98.0455L84.5561 99.375C84.3023 99.5947 84.0182 99.7538 83.7038 99.8523C83.3894 99.9508 83.0201 100.015 82.5959 100.045C82.1754 100.072 81.6754 100.091 81.0959 100.102C80.4444 100.117 79.9122 100.241 79.4993 100.472C79.0864 100.703 78.7701 101.053 78.5504 101.523C78.3307 101.989 78.1868 102.583 78.1186 103.307H78.2152C78.4879 102.773 78.8705 102.366 79.3629 102.085C79.8554 101.805 80.433 101.665 81.0959 101.665C81.8194 101.665 82.4576 101.828 83.0107 102.153C83.5675 102.475 84.0012 102.943 84.3118 103.557C84.6262 104.17 84.7834 104.913 84.7834 105.784C84.7834 106.682 84.6148 107.46 84.2777 108.119C83.9406 108.775 83.4614 109.28 82.8402 109.636C82.2228 109.992 81.4898 110.17 80.6413 110.17C79.7966 110.17 79.0618 109.987 78.4368 109.619C77.8156 109.248 77.3345 108.701 76.9936 107.977C76.6565 107.25 76.4879 106.354 76.4879 105.29V104.506C76.4879 102.453 76.8705 100.92 77.6357 99.9091C78.4008 98.8977 79.5353 98.3826 81.0391 98.3636C81.486 98.3561 81.8857 98.3542 82.2379 98.358C82.594 98.3617 82.9046 98.3447 83.1697 98.3068C83.4349 98.2689 83.6584 98.1818 83.8402 98.0455ZM80.6527 108.523C81.0732 108.523 81.4368 108.415 81.7436 108.199C82.0504 107.979 82.2853 107.669 82.4482 107.267C82.6148 106.866 82.6982 106.39 82.6982 105.841C82.6982 105.299 82.6148 104.839 82.4482 104.46C82.2815 104.078 82.0447 103.786 81.7379 103.585C81.4311 103.384 81.0656 103.284 80.6413 103.284C80.3232 103.284 80.0372 103.341 79.7834 103.455C79.5296 103.568 79.3137 103.735 79.1357 103.955C78.9576 104.174 78.8213 104.441 78.7266 104.756C78.6319 105.07 78.5807 105.432 78.5732 105.841C78.5732 106.663 78.7588 107.316 79.13 107.801C79.5012 108.282 80.0088 108.523 80.6527 108.523ZM89.0447 110.176C88.4917 110.176 87.9936 110.078 87.5504 109.881C87.111 109.68 86.7625 109.384 86.505 108.994C86.2512 108.604 86.1243 108.123 86.1243 107.551C86.1243 107.059 86.2152 106.652 86.397 106.33C86.5788 106.008 86.8269 105.75 87.1413 105.557C87.4557 105.364 87.8099 105.218 88.2038 105.119C88.6016 105.017 89.0125 104.943 89.4368 104.898C89.9482 104.845 90.3629 104.797 90.6811 104.756C90.9993 104.71 91.2304 104.642 91.3743 104.551C91.522 104.456 91.5959 104.311 91.5959 104.114V104.08C91.5959 103.652 91.469 103.32 91.2152 103.085C90.9614 102.85 90.5959 102.733 90.1186 102.733C89.6148 102.733 89.2152 102.843 88.9197 103.062C88.6281 103.282 88.4311 103.542 88.3288 103.841L86.4084 103.568C86.5599 103.038 86.8099 102.595 87.1584 102.239C87.5069 101.879 87.933 101.61 88.4368 101.432C88.9406 101.25 89.4974 101.159 90.1072 101.159C90.5277 101.159 90.9463 101.208 91.3629 101.307C91.7796 101.405 92.1603 101.568 92.505 101.795C92.8497 102.019 93.1262 102.324 93.3345 102.71C93.5466 103.097 93.6527 103.58 93.6527 104.159V110H91.6754V108.801H91.6072C91.4822 109.044 91.3061 109.271 91.0788 109.483C90.8554 109.691 90.5732 109.86 90.2322 109.989C89.8951 110.114 89.4993 110.176 89.0447 110.176ZM89.5788 108.665C89.9917 108.665 90.3497 108.583 90.6527 108.42C90.9557 108.254 91.1887 108.034 91.3516 107.761C91.5182 107.489 91.6016 107.191 91.6016 106.869V105.841C91.5372 105.894 91.4273 105.943 91.272 105.989C91.1205 106.034 90.95 106.074 90.7607 106.108C90.5713 106.142 90.3838 106.172 90.1982 106.199C90.0125 106.225 89.8516 106.248 89.7152 106.267C89.4084 106.309 89.1338 106.377 88.8913 106.472C88.6489 106.566 88.4576 106.699 88.3175 106.869C88.1773 107.036 88.1072 107.252 88.1072 107.517C88.1072 107.896 88.2455 108.182 88.522 108.375C88.7985 108.568 89.1508 108.665 89.5788 108.665ZM95.7209 110V101.273H99.3857C100.42 101.273 101.236 101.479 101.835 101.892C102.437 102.305 102.738 102.881 102.738 103.619C102.738 104.108 102.567 104.508 102.227 104.818C101.889 105.125 101.429 105.331 100.846 105.438C101.304 105.475 101.706 105.591 102.05 105.784C102.399 105.977 102.672 106.231 102.869 106.545C103.066 106.86 103.164 107.222 103.164 107.631C103.164 108.112 103.037 108.53 102.783 108.886C102.533 109.239 102.168 109.513 101.687 109.71C101.21 109.903 100.63 110 99.9482 110H95.7209ZM97.647 108.381H99.9482C100.327 108.381 100.624 108.292 100.84 108.114C101.056 107.932 101.164 107.686 101.164 107.375C101.164 107.015 101.056 106.733 100.84 106.528C100.624 106.32 100.327 106.216 99.9482 106.216H97.647V108.381ZM97.647 104.886H99.4254C99.7057 104.886 99.9463 104.847 100.147 104.767C100.348 104.684 100.501 104.568 100.607 104.42C100.713 104.269 100.766 104.089 100.766 103.881C100.766 103.581 100.643 103.347 100.397 103.176C100.155 103.006 99.8175 102.92 99.3857 102.92H97.647V104.886ZM104.862 110V101.273H106.918V104.795H107.668L110.293 101.273H112.771L109.538 105.557L112.805 110H110.316L107.924 106.71H106.918V110H104.862ZM115.954 107.216L119.448 101.273H121.562V110H119.573V104.051L116.09 110H113.971V101.273H115.954V107.216ZM126.87 112.534V108.307H127.563C127.749 108.163 127.904 107.968 128.029 107.722C128.154 107.472 128.256 107.178 128.336 106.841C128.419 106.5 128.487 106.119 128.54 105.699C128.594 105.275 128.641 104.818 128.683 104.33L128.933 101.273H135.239V108.307H136.592V112.534H134.603V110L128.893 110V112.534H126.87ZM129.677 108.307L133.273 108.307V102.932H130.717L130.58 104.33C130.504 105.254 130.404 106.045 130.279 106.705C130.154 107.364 129.953 107.898 129.677 108.307ZM137.525 110L137.513 108.307H137.815C138.042 108.307 138.233 108.256 138.388 108.153C138.544 108.051 138.673 107.881 138.775 107.642C138.877 107.4 138.957 107.074 139.013 106.665C139.07 106.256 139.11 105.746 139.133 105.136L139.286 101.273H145.65V110H143.661V102.96H141.156L141.019 105.773C140.985 106.5 140.904 107.131 140.775 107.665C140.65 108.195 140.472 108.633 140.241 108.977C140.013 109.322 139.728 109.58 139.383 109.75C139.038 109.917 138.631 110 138.161 110H137.525ZM152.88 110V102.943H151.016C150.543 102.943 150.179 103.053 149.925 103.273C149.672 103.492 149.547 103.765 149.55 104.091C149.547 104.417 149.666 104.686 149.908 104.898C150.151 105.11 150.497 105.216 150.948 105.216H153.528V106.716H150.948C150.251 106.716 149.649 106.606 149.141 106.386C148.634 106.167 148.244 105.856 147.971 105.455C147.698 105.053 147.562 104.583 147.562 104.045C147.562 103.485 147.7 102.998 147.977 102.585C148.257 102.169 148.655 101.847 149.17 101.619C149.689 101.388 150.304 101.273 151.016 101.273H154.806V110H152.88ZM147.244 110L149.681 105.523H151.71L149.266 110H147.244ZM162.829 107.216L166.323 101.273H168.437V110H166.448V104.051L162.965 110H160.846V101.273H162.829V107.216ZM175.572 107.608L178.163 101.273H179.822L176.293 110H174.856L171.407 101.273H173.049L175.572 107.608ZM172.532 101.273V110H170.549V101.273H172.532ZM178.697 110V101.273H180.663V110H178.697ZM187.759 107.608L190.35 101.273H192.009L188.481 110H187.043L183.594 101.273H185.237L187.759 107.608ZM184.719 101.273V110H182.737V101.273H184.719ZM190.884 110V101.273H192.85V110H190.884ZM195.89 113.273C195.61 113.273 195.35 113.25 195.112 113.205C194.877 113.163 194.689 113.114 194.549 113.057L195.026 111.455C195.326 111.542 195.593 111.583 195.827 111.58C196.062 111.576 196.269 111.502 196.447 111.358C196.629 111.218 196.782 110.983 196.907 110.653L197.083 110.182L193.918 101.273H196.1L198.112 107.864H198.202L200.219 101.273H202.407L198.913 111.057C198.75 111.519 198.534 111.915 198.265 112.244C197.996 112.578 197.666 112.831 197.276 113.006C196.89 113.184 196.428 113.273 195.89 113.273ZM209.825 104.784V106.472H205.177V104.784H209.825ZM205.813 101.273V110H203.83V101.273H205.813ZM211.171 101.273V110H209.194V101.273H211.171ZM215.235 107.216L218.729 101.273H220.843V110H218.854V104.051L215.371 110H213.252V101.273H215.235V107.216ZM221.978 102.96V101.273H229.614V102.96H226.79V110H224.802V102.96H221.978ZM234.756 110.17C233.881 110.17 233.126 109.989 232.489 109.625C231.857 109.258 231.37 108.739 231.029 108.068C230.688 107.394 230.518 106.6 230.518 105.687C230.518 104.79 230.688 104.002 231.029 103.324C231.374 102.642 231.855 102.112 232.472 101.733C233.09 101.35 233.815 101.159 234.648 101.159C235.186 101.159 235.694 101.246 236.171 101.42C236.652 101.591 237.076 101.856 237.444 102.216C237.815 102.576 238.107 103.034 238.319 103.591C238.531 104.144 238.637 104.803 238.637 105.568V106.199H231.484V104.812H236.665C236.662 104.419 236.576 104.068 236.41 103.761C236.243 103.451 236.01 103.206 235.711 103.028C235.415 102.85 235.071 102.761 234.677 102.761C234.256 102.761 233.887 102.864 233.569 103.068C233.251 103.269 233.003 103.534 232.825 103.864C232.65 104.189 232.561 104.547 232.558 104.937V106.148C232.558 106.655 232.65 107.091 232.836 107.455C233.022 107.814 233.281 108.091 233.614 108.284C233.948 108.473 234.338 108.568 234.785 108.568C235.084 108.568 235.355 108.527 235.597 108.443C235.84 108.356 236.05 108.229 236.228 108.062C236.406 107.896 236.54 107.689 236.631 107.443L238.552 107.659C238.431 108.167 238.2 108.61 237.859 108.989C237.522 109.364 237.09 109.655 236.563 109.864C236.037 110.068 235.434 110.17 234.756 110.17ZM239.65 102.96V101.273H247.286V102.96H244.462V110H242.474V102.96H239.65ZM251.076 110.176C250.523 110.176 250.025 110.078 249.582 109.881C249.142 109.68 248.794 109.384 248.536 108.994C248.282 108.604 248.156 108.123 248.156 107.551C248.156 107.059 248.246 106.652 248.428 106.33C248.61 106.008 248.858 105.75 249.173 105.557C249.487 105.364 249.841 105.218 250.235 105.119C250.633 105.017 251.044 104.943 251.468 104.898C251.979 104.845 252.394 104.797 252.712 104.756C253.031 104.71 253.262 104.642 253.406 104.551C253.553 104.456 253.627 104.311 253.627 104.114V104.08C253.627 103.652 253.5 103.32 253.246 103.085C252.993 102.85 252.627 102.733 252.15 102.733C251.646 102.733 251.246 102.843 250.951 103.062C250.659 103.282 250.462 103.542 250.36 103.841L248.44 103.568C248.591 103.038 248.841 102.595 249.19 102.239C249.538 101.879 249.964 101.61 250.468 101.432C250.972 101.25 251.529 101.159 252.138 101.159C252.559 101.159 252.978 101.208 253.394 101.307C253.811 101.405 254.192 101.568 254.536 101.795C254.881 102.019 255.157 102.324 255.366 102.71C255.578 103.097 255.684 103.58 255.684 104.159V110H253.707V108.801H253.638C253.513 109.044 253.337 109.271 253.11 109.483C252.887 109.691 252.604 109.86 252.263 109.989C251.926 110.114 251.531 110.176 251.076 110.176ZM251.61 108.665C252.023 108.665 252.381 108.583 252.684 108.42C252.987 108.254 253.22 108.034 253.383 107.761C253.549 107.489 253.633 107.191 253.633 106.869V105.841C253.568 105.894 253.459 105.943 253.303 105.989C253.152 106.034 252.981 106.074 252.792 106.108C252.603 106.142 252.415 106.172 252.229 106.199C252.044 106.225 251.883 106.248 251.746 106.267C251.44 106.309 251.165 106.377 250.923 106.472C250.68 106.566 250.489 106.699 250.349 106.869C250.209 107.036 250.138 107.252 250.138 107.517C250.138 107.896 250.277 108.182 250.553 108.375C250.83 108.568 251.182 108.665 251.61 108.665ZM263.704 107.216L267.198 101.273H269.312V110H267.323V104.051L263.84 110H261.721V101.273H263.704V107.216ZM106.631 121.852C106.344 121.856 106.078 121.919 105.836 122.04C105.594 122.161 105.398 122.326 105.251 122.534C105.107 122.739 105.035 122.977 105.035 123.25H103.143C103.143 122.811 103.234 122.402 103.415 122.023C103.597 121.644 103.847 121.314 104.165 121.034C104.487 120.754 104.859 120.536 105.279 120.381C105.703 120.222 106.154 120.142 106.631 120.142C107.48 120.142 108.196 120.339 108.779 120.733C109.366 121.127 109.809 121.657 110.109 122.324C110.412 122.987 110.563 123.722 110.563 124.528V124.773C110.563 125.58 110.414 126.316 110.114 126.983C109.815 127.646 109.372 128.174 108.785 128.568C108.201 128.962 107.484 129.159 106.631 129.159C105.95 129.159 105.345 129.021 104.819 128.744C104.296 128.464 103.885 128.074 103.586 127.574C103.29 127.074 103.143 126.491 103.143 125.824H105.035C105.035 126.112 105.103 126.379 105.239 126.625C105.376 126.867 105.563 127.062 105.802 127.21C106.044 127.358 106.321 127.434 106.631 127.438C107.097 127.434 107.472 127.295 107.756 127.023C108.044 126.75 108.253 126.409 108.381 126C108.514 125.591 108.58 125.182 108.58 124.773V124.528C108.58 124.089 108.514 123.667 108.381 123.261C108.253 122.852 108.044 122.517 107.756 122.256C107.472 121.991 107.097 121.856 106.631 121.852ZM109.222 123.943V125.307H105.898V123.943H109.222ZM118.293 123.784V125.472H113.646V123.784H118.293ZM114.282 120.273V129H112.299V120.273H114.282ZM119.64 120.273V129H117.663V120.273H119.64ZM125.585 129.17C124.71 129.17 123.954 128.989 123.317 128.625C122.685 128.258 122.198 127.739 121.857 127.068C121.516 126.394 121.346 125.6 121.346 124.688C121.346 123.79 121.516 123.002 121.857 122.324C122.202 121.642 122.683 121.112 123.3 120.733C123.918 120.35 124.643 120.159 125.477 120.159C126.014 120.159 126.522 120.246 126.999 120.42C127.48 120.591 127.905 120.856 128.272 121.216C128.643 121.576 128.935 122.034 129.147 122.591C129.359 123.144 129.465 123.803 129.465 124.568V125.199H122.312V123.812H127.494C127.49 123.419 127.405 123.068 127.238 122.761C127.071 122.451 126.838 122.206 126.539 122.028C126.244 121.85 125.899 121.761 125.505 121.761C125.085 121.761 124.715 121.864 124.397 122.068C124.079 122.269 123.831 122.534 123.653 122.864C123.478 123.189 123.389 123.547 123.386 123.938V125.148C123.386 125.655 123.478 126.091 123.664 126.455C123.85 126.814 124.109 127.091 124.442 127.284C124.776 127.473 125.166 127.568 125.613 127.568C125.912 127.568 126.183 127.527 126.425 127.443C126.668 127.356 126.878 127.229 127.056 127.062C127.234 126.896 127.369 126.689 127.46 126.443L129.38 126.659C129.259 127.167 129.028 127.61 128.687 127.989C128.35 128.364 127.918 128.655 127.391 128.864C126.865 129.068 126.263 129.17 125.585 129.17ZM131.205 132.273V120.273H133.228V121.716H133.347C133.453 121.504 133.603 121.278 133.796 121.04C133.989 120.797 134.251 120.591 134.58 120.42C134.91 120.246 135.33 120.159 135.842 120.159C136.516 120.159 137.124 120.331 137.665 120.676C138.211 121.017 138.643 121.523 138.961 122.193C139.283 122.86 139.444 123.678 139.444 124.648C139.444 125.606 139.287 126.42 138.972 127.091C138.658 127.761 138.23 128.273 137.688 128.625C137.147 128.977 136.533 129.153 135.847 129.153C135.347 129.153 134.933 129.07 134.603 128.903C134.273 128.737 134.008 128.536 133.808 128.301C133.611 128.062 133.457 127.837 133.347 127.625H133.262V132.273H131.205ZM133.222 124.636C133.222 125.201 133.302 125.695 133.461 126.119C133.624 126.544 133.857 126.875 134.16 127.114C134.467 127.348 134.838 127.466 135.273 127.466C135.728 127.466 136.109 127.345 136.415 127.102C136.722 126.856 136.953 126.521 137.109 126.097C137.268 125.669 137.347 125.182 137.347 124.636C137.347 124.095 137.27 123.614 137.114 123.193C136.959 122.773 136.728 122.443 136.421 122.205C136.114 121.966 135.732 121.847 135.273 121.847C134.834 121.847 134.461 121.962 134.154 122.193C133.847 122.424 133.614 122.748 133.455 123.165C133.3 123.581 133.222 124.072 133.222 124.636ZM146.978 120.273V121.96L143.217 121.96V129H141.205V120.273L146.978 120.273ZM150.61 126.216L154.104 120.273H156.218V129H154.229V123.051L150.746 129H148.627V120.273H150.61V126.216ZM160.313 126.216L163.808 120.273H165.921V129H163.933V123.051L160.45 129H158.33V120.273H160.313V126.216ZM172.002 129V120.273H174.059V123.795H174.809L177.434 120.273H179.911L176.678 124.557L179.945 129H177.457L175.065 125.71H174.059V129H172.002ZM184.559 129.17C183.707 129.17 182.968 128.983 182.343 128.608C181.718 128.233 181.233 127.708 180.888 127.034C180.548 126.36 180.377 125.572 180.377 124.67C180.377 123.769 180.548 122.979 180.888 122.301C181.233 121.623 181.718 121.097 182.343 120.722C182.968 120.347 183.707 120.159 184.559 120.159C185.411 120.159 186.15 120.347 186.775 120.722C187.4 121.097 187.883 121.623 188.224 122.301C188.568 122.979 188.741 123.769 188.741 124.67C188.741 125.572 188.568 126.36 188.224 127.034C187.883 127.708 187.4 128.233 186.775 128.608C186.15 128.983 185.411 129.17 184.559 129.17ZM184.57 127.523C185.032 127.523 185.419 127.396 185.729 127.142C186.04 126.884 186.271 126.54 186.423 126.108C186.578 125.676 186.656 125.195 186.656 124.665C186.656 124.131 186.578 123.648 186.423 123.216C186.271 122.78 186.04 122.434 185.729 122.176C185.419 121.919 185.032 121.79 184.57 121.79C184.097 121.79 183.703 121.919 183.388 122.176C183.078 122.434 182.845 122.78 182.69 123.216C182.538 123.648 182.462 124.131 182.462 124.665C182.462 125.195 182.538 125.676 182.69 126.108C182.845 126.54 183.078 126.884 183.388 127.142C183.703 127.396 184.097 127.523 184.57 127.523ZM190.487 120.273H192.469V127.307H195.214V120.273H197.197V127.307H199.941V120.273H201.924V129H190.487V120.273ZM207.866 129.17C206.991 129.17 206.235 128.989 205.599 128.625C204.966 128.258 204.479 127.739 204.138 127.068C203.798 126.394 203.627 125.6 203.627 124.687C203.627 123.79 203.798 123.002 204.138 122.324C204.483 121.642 204.964 121.112 205.582 120.733C206.199 120.35 206.924 120.159 207.758 120.159C208.296 120.159 208.803 120.246 209.281 120.42C209.762 120.591 210.186 120.856 210.553 121.216C210.924 121.576 211.216 122.034 211.428 122.591C211.64 123.144 211.746 123.803 211.746 124.568V125.199H204.593V123.812H209.775C209.771 123.419 209.686 123.068 209.519 122.761C209.353 122.451 209.12 122.206 208.82 122.028C208.525 121.85 208.18 121.761 207.786 121.761C207.366 121.761 206.996 121.864 206.678 122.068C206.36 122.269 206.112 122.534 205.934 122.864C205.76 123.189 205.671 123.547 205.667 123.937V125.148C205.667 125.655 205.76 126.091 205.945 126.455C206.131 126.814 206.39 127.091 206.724 127.284C207.057 127.473 207.447 127.568 207.894 127.568C208.193 127.568 208.464 127.527 208.707 127.443C208.949 127.356 209.159 127.229 209.337 127.062C209.515 126.896 209.65 126.689 209.741 126.443L211.661 126.659C211.54 127.167 211.309 127.61 210.968 127.989C210.631 128.364 210.199 128.655 209.673 128.864C209.146 129.068 208.544 129.17 207.866 129.17ZM213.487 129V120.273H215.543V123.795H216.293L218.918 120.273H221.396L218.163 124.557L221.43 129H218.941L216.549 125.71H215.543V129H213.487Z" fill="#F0563A"/>
</svg>
