<svg width="298" height="103" viewBox="0 0 298 103" fill="none" xmlns="http://www.w3.org/2000/svg">
<path d="M50.5833 89C29.5505 89 12.5 73.1105 12.5 53.5097C12.5 33.909 29.5505 18.0194 50.5833 18.0194L230.5 18.0194C238.685 18.0194 246.268 20.426 252.477 24.5214C260.055 20.36 275.011 13.7589 284.363 12C273.099 15.6743 268.583 40.9837 268.583 53.5097C268.583 73.1105 251.533 89 230.5 89L50.5833 89Z" fill="#7AFF8C"/>
<path d="M284.008 10.1117C285.003 9.9245 285.973 10.5422 286.224 11.5235C286.475 12.5048 285.922 13.5125 284.959 13.8266C282.727 14.5546 280.641 16.4243 278.756 19.3224C276.882 22.2021 275.326 25.9161 274.087 29.9939C271.609 38.152 270.504 47.4216 270.505 53.5096C270.505 74.297 252.464 90.9214 230.5 90.9214L50.5833 90.9214C28.6192 90.9214 10.5786 74.297 10.5786 53.5097C10.5786 32.7225 28.6192 16.0981 50.5833 16.0981L230.5 16.0981C238.642 16.0981 246.228 18.3741 252.558 22.2934C260.465 18.0824 274.768 11.8497 284.008 10.1117Z" stroke="white" stroke-width="4.84274" stroke-linejoin="round"/>
<path d="M35.57 60.1945V58.3052H36.4243C36.7809 58.3052 37.0749 58.245 37.3065 58.1246C37.5426 58.0042 37.7348 57.8421 37.883 57.6384C38.0358 57.43 38.1631 57.2031 38.265 56.9577L38.4664 56.4506L33.4654 45.7748H35.7436L39.4736 53.9987L42.7937 45.7748H45.0442L40.1265 57.5342C39.9181 58.0065 39.6773 58.4441 39.4041 58.847C39.1356 59.2498 38.7767 59.5763 38.3275 59.8264C37.8783 60.0718 37.2833 60.1945 36.5424 60.1945H35.57ZM46.2754 57.18H48.4008C48.4286 57.6152 48.6254 57.951 48.9912 58.1871C49.3617 58.4233 49.8409 58.5414 50.429 58.5414C51.0264 58.5414 51.5358 58.414 51.9571 58.1593C52.3785 57.9 52.5892 57.4995 52.5892 56.9577C52.5892 56.6335 52.5082 56.3511 52.3461 56.1103C52.1887 55.8649 51.9641 55.675 51.6724 55.5407C51.3853 55.4064 51.0449 55.3393 50.6513 55.3393H48.9148V53.707H50.6513C51.2394 53.707 51.6793 53.5727 51.971 53.3041C52.2628 53.0356 52.4086 52.6998 52.4086 52.297C52.4086 51.8617 52.2512 51.5121 51.9363 51.2481C51.626 50.9796 51.1931 50.8453 50.6374 50.8453C50.0725 50.8453 49.6025 50.9726 49.2274 51.2273C48.8523 51.4774 48.6555 51.8015 48.637 52.1997H46.5393C46.5532 51.6024 46.7338 51.0791 47.0811 50.63C47.433 50.1762 47.9054 49.8242 48.4981 49.5742C49.0954 49.3195 49.7738 49.1922 50.5332 49.1922C51.3251 49.1922 52.0104 49.3195 52.5892 49.5742C53.168 49.8289 53.6149 50.1808 53.9298 50.63C54.2493 51.0791 54.409 51.5954 54.409 52.1789C54.409 52.767 54.2331 53.2486 53.8812 53.6237C53.5339 53.9941 53.0801 54.2604 52.5198 54.4224V54.5336C52.9319 54.5613 53.2977 54.6864 53.6172 54.9086C53.9367 55.1309 54.1868 55.425 54.3674 55.7908C54.548 56.1566 54.6383 56.571 54.6383 57.0341C54.6383 57.687 54.4577 58.2519 54.0965 58.7289C53.7399 59.2059 53.2444 59.574 52.6101 59.8333C51.9803 60.088 51.2602 60.2153 50.4499 60.2153C49.6627 60.2153 48.9565 60.0926 48.3314 59.8472C47.7109 59.5971 47.2177 59.2452 46.8519 58.7914C46.4907 58.3376 46.2985 57.8005 46.2754 57.18ZM64.0135 53.7695V55.5685H58.2345V53.7695H64.0135ZM58.818 49.3311V60H56.7828V49.3311H58.818ZM65.4652 49.3311V60H63.437V49.3311H65.4652ZM71.3484 60.2362C70.6723 60.2362 70.0611 60.1111 69.5147 59.8611C68.9683 59.6064 68.5353 59.2383 68.2158 58.7567C67.9009 58.2751 67.7435 57.6847 67.7435 56.9855C67.7435 56.3835 67.8592 55.888 68.0908 55.499C68.3223 55.1101 68.6349 54.8021 69.0285 54.5752C69.4221 54.3483 69.862 54.177 70.3482 54.0612C70.8344 53.9455 71.3299 53.8575 71.8346 53.7973C72.4736 53.7232 72.9923 53.663 73.3905 53.6167C73.7887 53.5658 74.0781 53.4847 74.2587 53.3736C74.4393 53.2625 74.5296 53.0819 74.5296 52.8318V52.7832C74.5296 52.1766 74.3583 51.7066 74.0156 51.3732C73.6776 51.0398 73.1729 50.8731 72.5014 50.8731C71.8022 50.8731 71.2511 51.0282 70.8483 51.3384C70.4501 51.6441 70.1745 51.9844 70.0217 52.3595L68.0699 51.915C68.3015 51.2667 68.6395 50.7434 69.084 50.3452C69.5332 49.9423 70.0495 49.6506 70.633 49.47C71.2164 49.2848 71.83 49.1922 72.4736 49.1922C72.8996 49.1922 73.3511 49.2431 73.8281 49.345C74.3097 49.4422 74.7588 49.6228 75.1756 49.8867C75.597 50.1507 75.942 50.5281 76.2105 51.0189C76.4791 51.5051 76.6134 52.1372 76.6134 52.9152V60H74.5852V58.5414H74.5018C74.3675 58.8099 74.1661 59.0739 73.8975 59.3332C73.629 59.5925 73.284 59.8078 72.8626 59.9792C72.4412 60.1505 71.9365 60.2362 71.3484 60.2362ZM71.7999 58.5691C72.3741 58.5691 72.8649 58.4557 73.2724 58.2288C73.6845 58.0019 73.9971 57.7055 74.2101 57.3397C74.4277 56.9693 74.5366 56.5733 74.5366 56.152V54.7767C74.4625 54.8508 74.3189 54.9202 74.1059 54.985C73.8975 55.0452 73.6591 55.0985 73.3905 55.1448C73.1219 55.1865 72.8603 55.2258 72.6056 55.2629C72.3509 55.2953 72.1379 55.3231 71.9666 55.3462C71.5637 55.3972 71.1956 55.4828 70.8622 55.6032C70.5334 55.7236 70.2695 55.8973 70.0703 56.1242C69.8759 56.3464 69.7786 56.6428 69.7786 57.0133C69.7786 57.5273 69.9685 57.9162 70.3482 58.1802C70.7279 58.4395 71.2118 58.5691 71.7999 58.5691ZM81.4148 57.0897L86.1171 49.3311H88.3537V60H86.3186V52.2345L81.637 60H79.3796V49.3311H81.4148V57.0897ZM85.2281 45.7192H86.9368C86.9368 46.5018 86.6589 47.1385 86.1032 47.6293C85.5522 48.1155 84.8067 48.3586 83.8667 48.3586C82.9313 48.3586 82.1881 48.1155 81.637 47.6293C81.086 47.1385 80.8105 46.5018 80.8105 45.7192H82.5122C82.5122 46.0665 82.6141 46.3744 82.8178 46.643C83.0216 46.907 83.3712 47.0389 83.8667 47.0389C84.3529 47.0389 84.7002 46.907 84.9086 46.643C85.1216 46.3791 85.2281 46.0711 85.2281 45.7192ZM102.31 57.43L105.755 49.3311H107.547L103.081 60H101.539L97.1629 49.3311H98.9341L102.31 57.43ZM98.3576 49.3311V60H96.3224V49.3311H98.3576ZM106.318 60V49.3311H108.339V60H106.318ZM115.601 60.2153C114.601 60.2153 113.728 59.9861 112.982 59.5277C112.237 59.0692 111.658 58.4279 111.246 57.6037C110.834 56.7794 110.628 55.8162 110.628 54.7142C110.628 53.6074 110.834 52.6396 111.246 51.8108C111.658 50.9819 112.237 50.3382 112.982 49.8798C113.728 49.4214 114.601 49.1922 115.601 49.1922C116.601 49.1922 117.474 49.4214 118.219 49.8798C118.965 50.3382 119.544 50.9819 119.956 51.8108C120.368 52.6396 120.574 53.6074 120.574 54.7142C120.574 55.8162 120.368 56.7794 119.956 57.6037C119.544 58.4279 118.965 59.0692 118.219 59.5277C117.474 59.9861 116.601 60.2153 115.601 60.2153ZM115.608 58.4719C116.256 58.4719 116.793 58.3006 117.219 57.9579C117.645 57.6152 117.96 57.1591 118.164 56.5896C118.372 56.02 118.476 55.3925 118.476 54.7072C118.476 54.0265 118.372 53.4014 118.164 52.8318C117.96 52.2576 117.645 51.7969 117.219 51.4496C116.793 51.1023 116.256 50.9286 115.608 50.9286C114.955 50.9286 114.413 51.1023 113.982 51.4496C113.556 51.7969 113.239 52.2576 113.031 52.8318C112.827 53.4014 112.725 54.0265 112.725 54.7072C112.725 55.3925 112.827 56.02 113.031 56.5896C113.239 57.1591 113.556 57.6152 113.982 57.9579C114.413 58.3006 114.955 58.4719 115.608 58.4719ZM128.261 53.8459V55.6519H122.573V53.8459H128.261ZM124.261 49.3311V60H122.184V49.3311H124.261ZM131.512 60.2153C130.521 60.2153 129.655 59.9838 128.914 59.5207C128.173 59.0577 127.599 58.414 127.192 57.5898C126.784 56.7609 126.581 55.8 126.581 54.7072C126.581 53.6051 126.784 52.642 127.192 51.8177C127.599 50.9888 128.173 50.3452 128.914 49.8867C129.655 49.4237 130.521 49.1922 131.512 49.1922C132.508 49.1922 133.374 49.4237 134.11 49.8867C134.851 50.3452 135.425 50.9888 135.833 51.8177C136.245 52.642 136.451 53.6051 136.451 54.7072C136.451 55.8 136.245 56.7609 135.833 57.5898C135.425 58.414 134.851 59.0577 134.11 59.5207C133.374 59.9838 132.508 60.2153 131.512 60.2153ZM131.512 58.4372C132.184 58.4372 132.732 58.2682 133.158 57.9301C133.589 57.5875 133.906 57.1337 134.11 56.5687C134.314 56.0038 134.416 55.3833 134.416 54.7072C134.416 54.0265 134.314 53.4037 134.11 52.8388C133.906 52.2692 133.589 51.8131 133.158 51.4704C132.732 51.1278 132.184 50.9564 131.512 50.9564C130.845 50.9564 130.297 51.1278 129.866 51.4704C129.435 51.8131 129.118 52.2692 128.914 52.8388C128.711 53.4037 128.609 54.0265 128.609 54.7072C128.609 55.3833 128.711 56.0038 128.914 56.5687C129.118 57.1337 129.435 57.5875 129.866 57.9301C130.297 58.2682 130.845 58.4372 131.512 58.4372ZM146.111 57.0897L150.813 49.3311H153.05V60H151.015V52.2345L146.333 60H144.076V49.3311H146.111V57.0897ZM160.336 60.2153C159.303 60.2153 158.414 59.9815 157.669 59.5138C156.928 59.0415 156.358 58.3909 155.96 57.562C155.562 56.7331 155.363 55.7838 155.363 54.7142C155.363 53.6306 155.566 52.6744 155.974 51.8455C156.381 51.012 156.956 50.3614 157.697 49.8937C158.437 49.426 159.31 49.1922 160.315 49.1922C161.125 49.1922 161.848 49.3427 162.482 49.6436C163.117 49.94 163.628 50.3568 164.017 50.8939C164.411 51.4311 164.645 52.0585 164.719 52.7762H162.698C162.586 52.2761 162.332 51.8455 161.934 51.4843C161.54 51.1231 161.012 50.9425 160.35 50.9425C159.771 50.9425 159.264 51.0953 158.829 51.401C158.398 51.7019 158.062 52.1326 157.822 52.6929C157.581 53.2486 157.46 53.9061 157.46 54.6655C157.46 55.4435 157.578 56.1149 157.815 56.6799C158.051 57.2448 158.384 57.6824 158.815 57.9926C159.25 58.3029 159.762 58.458 160.35 58.458C160.743 58.458 161.1 58.3862 161.42 58.2427C161.744 58.0945 162.015 57.8838 162.232 57.6106C162.454 57.3374 162.61 57.0086 162.698 56.6243H164.719C164.645 57.3142 164.42 57.9301 164.045 58.4719C163.67 59.0137 163.168 59.4397 162.538 59.7499C161.913 60.0602 161.179 60.2153 160.336 60.2153ZM166.132 51.1231V49.3311H175.134V51.1231H171.654V60H169.626V51.1231H166.132ZM181.328 60.2153C180.328 60.2153 179.455 59.9861 178.71 59.5277C177.964 59.0692 177.385 58.4279 176.973 57.6037C176.561 56.7794 176.355 55.8162 176.355 54.7142C176.355 53.6074 176.561 52.6396 176.973 51.8108C177.385 50.9819 177.964 50.3382 178.71 49.8798C179.455 49.4214 180.328 49.1922 181.328 49.1922C182.328 49.1922 183.201 49.4214 183.947 49.8798C184.692 50.3382 185.271 50.9819 185.683 51.8108C186.095 52.6396 186.302 53.6074 186.302 54.7142C186.302 55.8162 186.095 56.7794 185.683 57.6037C185.271 58.4279 184.692 59.0692 183.947 59.5277C183.201 59.9861 182.328 60.2153 181.328 60.2153ZM181.335 58.4719C181.983 58.4719 182.521 58.3006 182.947 57.9579C183.373 57.6152 183.688 57.1591 183.891 56.5896C184.1 56.02 184.204 55.3925 184.204 54.7072C184.204 54.0265 184.1 53.4014 183.891 52.8318C183.688 52.2576 183.373 51.7969 182.947 51.4496C182.521 51.1023 181.983 50.9286 181.335 50.9286C180.682 50.9286 180.141 51.1023 179.71 51.4496C179.284 51.7969 178.967 52.2576 178.758 52.8318C178.555 53.4014 178.453 54.0265 178.453 54.7072C178.453 55.3925 178.555 56.02 178.758 56.5896C178.967 57.1591 179.284 57.6152 179.71 57.9579C180.141 58.3006 180.682 58.4719 181.335 58.4719ZM188.62 64.0008V49.3311H190.648V51.0606H190.822C190.942 50.8383 191.116 50.5813 191.343 50.2896C191.569 49.9979 191.884 49.7432 192.287 49.5256C192.69 49.3033 193.223 49.1922 193.885 49.1922C194.746 49.1922 195.515 49.4098 196.191 49.8451C196.867 50.2804 197.397 50.9078 197.781 51.7274C198.17 52.547 198.365 53.5334 198.365 54.6864C198.365 55.8394 198.173 56.828 197.788 57.6523C197.404 58.4719 196.876 59.104 196.205 59.5485C195.533 59.9884 194.767 60.2084 193.906 60.2084C193.257 60.2084 192.727 60.0996 192.315 59.8819C191.907 59.6643 191.588 59.4096 191.356 59.1179C191.125 58.8261 190.947 58.5668 190.822 58.3399H190.697V64.0008H188.62ZM190.655 54.6655C190.655 55.4157 190.764 56.0732 190.981 56.6382C191.199 57.2031 191.514 57.6453 191.926 57.9648C192.338 58.2797 192.843 58.4372 193.44 58.4372C194.061 58.4372 194.579 58.2728 194.996 57.944C195.413 57.6106 195.728 57.1591 195.941 56.5896C196.158 56.02 196.267 55.3787 196.267 54.6655C196.267 53.9617 196.161 53.3296 195.948 52.7693C195.739 52.209 195.424 51.7668 195.003 51.4426C194.586 51.1185 194.065 50.9564 193.44 50.9564C192.838 50.9564 192.329 51.1115 191.912 51.4218C191.5 51.732 191.187 52.165 190.974 52.7207C190.761 53.2764 190.655 53.9246 190.655 54.6655ZM202.727 57.0897L207.429 49.3311H209.666V60H207.631V52.2345L202.949 60H200.692V49.3311H202.727V57.0897ZM217.827 53.8459V55.6519H212.139V53.8459H217.827ZM213.826 49.3311V60H211.75V49.3311H213.826ZM221.078 60.2153C220.087 60.2153 219.221 59.9838 218.48 59.5207C217.739 59.0577 217.165 58.414 216.758 57.5898C216.35 56.7609 216.146 55.8 216.146 54.7072C216.146 53.6051 216.35 52.642 216.758 51.8177C217.165 50.9888 217.739 50.3452 218.48 49.8867C219.221 49.4237 220.087 49.1922 221.078 49.1922C222.074 49.1922 222.939 49.4237 223.676 49.8867C224.417 50.3452 224.991 50.9888 225.398 51.8177C225.81 52.642 226.017 53.6051 226.017 54.7072C226.017 55.8 225.81 56.7609 225.398 57.5898C224.991 58.414 224.417 59.0577 223.676 59.5207C222.939 59.9838 222.074 60.2153 221.078 60.2153ZM221.078 58.4372C221.749 58.4372 222.298 58.2682 222.724 57.9301C223.155 57.5875 223.472 57.1337 223.676 56.5687C223.88 56.0038 223.981 55.3833 223.981 54.7072C223.981 54.0265 223.88 53.4037 223.676 52.8388C223.472 52.2692 223.155 51.8131 222.724 51.4704C222.298 51.1278 221.749 50.9564 221.078 50.9564C220.411 50.9564 219.862 51.1278 219.432 51.4704C219.001 51.8131 218.684 52.2692 218.48 52.8388C218.276 53.4037 218.175 54.0265 218.175 54.7072C218.175 55.3833 218.276 56.0038 218.48 56.5687C218.684 57.1337 219.001 57.5875 219.432 57.9301C219.862 58.2682 220.411 58.4372 221.078 58.4372ZM242.504 60.257L241.254 59.0206L245.595 54.6794H234.69V52.8735H245.595L241.254 48.5392L242.504 47.2959L248.985 53.7765L242.504 60.257Z" fill="black"/>
<defs>
<filter id="filter0_dd_67_837" x="0.971787" y="0.471261" width="296.841" height="101.978" filterUnits="userSpaceOnUse" color-interpolation-filters="sRGB">
<feFlood flood-opacity="0" result="BackgroundImageFix"/>
<feColorMatrix in="SourceAlpha" type="matrix" values="0 0 0 0 0 0 0 0 0 0 0 0 0 0 0 0 0 0 127 0" result="hardAlpha"/>
<feOffset dx="0.960685" dy="0.960685"/>
<feGaussianBlur stdDeviation="4.32308"/>
<feComposite in2="hardAlpha" operator="out"/>
<feColorMatrix type="matrix" values="0 0 0 0 0 0 0 0 0 0 0 0 0 0 0 0 0 0 0.13 0"/>
<feBlend mode="normal" in2="BackgroundImageFix" result="effect1_dropShadow_67_837"/>
<feColorMatrix in="SourceAlpha" type="matrix" values="0 0 0 0 0 0 0 0 0 0 0 0 0 0 0 0 0 0 127 0" result="hardAlpha"/>
<feOffset dx="0.960685" dy="1.92137"/>
<feGaussianBlur stdDeviation="1.44103"/>
<feComposite in2="hardAlpha" operator="out"/>
<feColorMatrix type="matrix" values="0 0 0 0 0 0 0 0 0 0 0 0 0 0 0 0 0 0 0.25 0"/>
<feBlend mode="normal" in2="effect1_dropShadow_67_837" result="effect2_dropShadow_67_837"/>
<feBlend mode="normal" in="SourceGraphic" in2="effect2_dropShadow_67_837" result="shape"/>
</filter>
</defs>
</svg>
