<svg width="187" height="85" viewBox="0 0 187 85" fill="none" xmlns="http://www.w3.org/2000/svg">
<path d="M1.23295 82V71.8182H2.46591V76.3523H7.89489V71.8182H9.12784V82H7.89489V77.446H2.46591V82H1.23295ZM13.6843 82.179C13.2004 82.179 12.7612 82.0878 12.3668 81.9055C11.9724 81.7199 11.6592 81.4531 11.4272 81.1051C11.1952 80.7538 11.0792 80.3295 11.0792 79.8324C11.0792 79.3949 11.1654 79.0402 11.3377 78.7685C11.5101 78.4934 11.7404 78.2779 12.0288 78.1222C12.3171 77.9664 12.6353 77.8504 12.9833 77.7741C13.3346 77.6946 13.6876 77.6316 14.0423 77.5852C14.5063 77.5256 14.8825 77.4808 15.1708 77.451C15.4625 77.4179 15.6746 77.3632 15.8072 77.2869C15.9431 77.2107 16.011 77.0781 16.011 76.8892V76.8494C16.011 76.3589 15.8768 75.9777 15.6083 75.706C15.3432 75.4342 14.9405 75.2983 14.4002 75.2983C13.8401 75.2983 13.4009 75.4209 13.0827 75.6662C12.7646 75.9115 12.5408 76.1733 12.4116 76.4517L11.2979 76.054C11.4968 75.59 11.762 75.2287 12.0934 74.9702C12.4281 74.7083 12.7927 74.526 13.1871 74.4233C13.5849 74.3172 13.976 74.2642 14.3604 74.2642C14.6057 74.2642 14.8874 74.294 15.2056 74.3537C15.5271 74.41 15.837 74.5277 16.1353 74.7067C16.4369 74.8857 16.6871 75.1558 16.886 75.517C17.0849 75.8783 17.1843 76.3622 17.1843 76.9688V82H16.011V80.9659H15.9513C15.8718 81.1316 15.7392 81.3089 15.5536 81.4979C15.368 81.6868 15.1211 81.8475 14.8129 81.9801C14.5046 82.1127 14.1284 82.179 13.6843 82.179ZM13.8633 81.125C14.3273 81.125 14.7184 81.0339 15.0366 80.8516C15.3581 80.6693 15.6 80.4339 15.7624 80.1456C15.9281 79.8572 16.011 79.554 16.011 79.2358V78.1619C15.9613 78.2216 15.8519 78.2763 15.6829 78.326C15.5172 78.3724 15.3249 78.4138 15.1062 78.4503C14.8907 78.4834 14.6803 78.5133 14.4748 78.5398C14.2726 78.563 14.1085 78.5829 13.9826 78.5994C13.6777 78.6392 13.3926 78.7038 13.1275 78.7933C12.8656 78.8795 12.6535 79.0104 12.4911 79.1861C12.332 79.3584 12.2525 79.5937 12.2525 79.892C12.2525 80.2997 12.4033 80.608 12.7049 80.8168C13.0098 81.0223 13.396 81.125 13.8633 81.125ZM19.3258 74.3636H20.4991V80.9062H23.3826V74.3636H24.5559V80.9062H27.4395V74.3636H28.6127V82H19.3258V74.3636ZM37.7953 82.1591C37.0794 82.1591 36.4629 81.9901 35.9458 81.652C35.4288 81.3139 35.0311 80.8482 34.7527 80.255C34.4743 79.6617 34.335 78.9839 34.335 78.2216C34.335 77.446 34.4776 76.7616 34.7626 76.1683C35.051 75.5717 35.452 75.1061 35.9657 74.7713C36.4828 74.4332 37.086 74.2642 37.7754 74.2642C38.3123 74.2642 38.7962 74.3636 39.2271 74.5625C39.658 74.7614 40.0109 75.0398 40.286 75.3977C40.5611 75.7557 40.7318 76.1733 40.7981 76.6506H39.6248C39.5353 76.3026 39.3365 75.9943 39.0282 75.7259C38.7233 75.4541 38.3123 75.3182 37.7953 75.3182C37.3379 75.3182 36.9368 75.4375 36.5922 75.6761C36.2508 75.9115 35.984 76.2446 35.7917 76.6754C35.6028 77.103 35.5083 77.6051 35.5083 78.1818C35.5083 78.7718 35.6011 79.2855 35.7868 79.723C35.9757 80.1605 36.2408 80.5002 36.5822 80.7422C36.9269 80.9841 37.3313 81.1051 37.7953 81.1051C38.1002 81.1051 38.377 81.0521 38.6255 80.946C38.8741 80.84 39.0846 80.6875 39.2569 80.4886C39.4293 80.2898 39.5519 80.0511 39.6248 79.7727H40.7981C40.7318 80.2235 40.5678 80.6295 40.3059 80.9908C40.0474 81.3487 39.7044 81.6338 39.2768 81.8459C38.8526 82.0547 38.3587 82.1591 37.7953 82.1591ZM45.6156 82.1591C44.9262 82.1591 44.3213 81.995 43.801 81.6669C43.2839 81.3388 42.8796 80.8797 42.5879 80.2898C42.2995 79.6998 42.1554 79.0104 42.1554 78.2216C42.1554 77.4261 42.2995 76.7318 42.5879 76.1385C42.8796 75.5452 43.2839 75.0845 43.801 74.7564C44.3213 74.4283 44.9262 74.2642 45.6156 74.2642C46.305 74.2642 46.9082 74.4283 47.4252 74.7564C47.9456 75.0845 48.35 75.5452 48.6383 76.1385C48.93 76.7318 49.0758 77.4261 49.0758 78.2216C49.0758 79.0104 48.93 79.6998 48.6383 80.2898C48.35 80.8797 47.9456 81.3388 47.4252 81.6669C46.9082 81.995 46.305 82.1591 45.6156 82.1591ZM45.6156 81.1051C46.1393 81.1051 46.5701 80.9709 46.9082 80.7024C47.2463 80.4339 47.4965 80.081 47.6589 79.6435C47.8213 79.206 47.9025 78.732 47.9025 78.2216C47.9025 77.7112 47.8213 77.2356 47.6589 76.7947C47.4965 76.3539 47.2463 75.9976 46.9082 75.7259C46.5701 75.4541 46.1393 75.3182 45.6156 75.3182C45.0919 75.3182 44.661 75.4541 44.323 75.7259C43.9849 75.9976 43.7347 76.3539 43.5723 76.7947C43.4099 77.2356 43.3287 77.7112 43.3287 78.2216C43.3287 78.732 43.4099 79.206 43.5723 79.6435C43.7347 80.081 43.9849 80.4339 44.323 80.7024C44.661 80.9709 45.0919 81.1051 45.6156 81.1051ZM50.8668 82V74.3636H53.989C54.811 74.3636 55.4639 74.5492 55.9478 74.9205C56.4317 75.2917 56.6737 75.7822 56.6737 76.392C56.6737 76.8561 56.5361 77.2157 56.261 77.4709C55.9859 77.7228 55.6329 77.8935 55.2021 77.983C55.4838 78.0227 55.7572 78.1222 56.0224 78.2812C56.2908 78.4403 56.5129 78.6591 56.6886 78.9375C56.8642 79.2126 56.9521 79.5507 56.9521 79.9517C56.9521 80.3428 56.8526 80.6925 56.6538 81.0007C56.4549 81.3089 56.1699 81.5526 55.7987 81.7315C55.4274 81.9105 54.9833 82 54.4663 82H50.8668ZM51.9805 80.9261H54.4663C54.8706 80.9261 55.1871 80.83 55.4158 80.6378C55.6445 80.4455 55.7589 80.1837 55.7589 79.8523C55.7589 79.4579 55.6445 79.148 55.4158 78.9226C55.1871 78.6939 54.8706 78.5795 54.4663 78.5795H51.9805V80.9261ZM51.9805 77.5653H53.989C54.3039 77.5653 54.574 77.5223 54.7994 77.4361C55.0247 77.3466 55.1971 77.2206 55.3164 77.0582C55.439 76.8925 55.5004 76.697 55.5004 76.4716C55.5004 76.1501 55.3661 75.8982 55.0977 75.7159C54.8292 75.5303 54.4596 75.4375 53.989 75.4375H51.9805V77.5653ZM58.7282 84.8636V74.3636H59.8617V75.5767H60.0009C60.0871 75.4441 60.2064 75.2751 60.3588 75.0696C60.5146 74.8608 60.7367 74.6752 61.025 74.5128C61.3167 74.3471 61.7111 74.2642 62.2083 74.2642C62.8513 74.2642 63.418 74.425 63.9086 74.7464C64.3991 75.0679 64.7819 75.5237 65.057 76.1136C65.3321 76.7036 65.4696 77.3996 65.4696 78.2017C65.4696 79.0104 65.3321 79.7114 65.057 80.3047C64.7819 80.8946 64.4007 81.352 63.9135 81.6768C63.4263 81.9983 62.8645 82.1591 62.2282 82.1591C61.7376 82.1591 61.3449 82.0779 61.0499 81.9155C60.7549 81.7498 60.5279 81.5625 60.3688 81.3537C60.2097 81.1416 60.0871 80.9659 60.0009 80.8267H59.9015V84.8636H58.7282ZM59.8816 78.1818C59.8816 78.7585 59.9661 79.2673 60.1351 79.7081C60.3042 80.1456 60.5511 80.4886 60.8759 80.7372C61.2007 80.9825 61.5984 81.1051 62.0691 81.1051C62.5596 81.1051 62.9689 80.9759 63.2971 80.7173C63.6285 80.4555 63.8771 80.1042 64.0428 79.6634C64.2118 79.2192 64.2963 78.7254 64.2963 78.1818C64.2963 77.6449 64.2135 77.161 64.0478 76.7301C63.8854 76.2959 63.6384 75.9529 63.307 75.701C62.9789 75.4458 62.5662 75.3182 62.0691 75.3182C61.5918 75.3182 61.1908 75.4392 60.8659 75.6811C60.5411 75.9197 60.2959 76.2545 60.1301 76.6854C59.9644 77.1129 59.8816 77.6117 59.8816 78.1818ZM70.4611 82.1591C69.7253 82.1591 69.0906 81.9967 68.557 81.6719C68.0267 81.3438 67.6174 80.8864 67.329 80.2997C67.044 79.7098 66.9015 79.0237 66.9015 78.2415C66.9015 77.4593 67.044 76.7699 67.329 76.1733C67.6174 75.5734 68.0184 75.1061 68.5321 74.7713C69.0492 74.4332 69.6524 74.2642 70.3418 74.2642C70.7395 74.2642 71.1323 74.3305 71.5201 74.4631C71.9078 74.5956 72.2608 74.8111 72.579 75.1094C72.8972 75.4044 73.1507 75.7955 73.3397 76.2827C73.5286 76.7699 73.623 77.3698 73.623 78.0824V78.5795H67.7367V77.5653H72.4299C72.4299 77.1345 72.3437 76.75 72.1713 76.4119C72.0023 76.0739 71.7604 75.8071 71.4455 75.6115C71.1339 75.416 70.766 75.3182 70.3418 75.3182C69.8745 75.3182 69.4701 75.4342 69.1287 75.6662C68.7907 75.8949 68.5305 76.1932 68.3482 76.5611C68.1659 76.929 68.0748 77.3234 68.0748 77.7443V78.4205C68.0748 78.9972 68.1742 79.486 68.373 79.8871C68.5752 80.2848 68.8553 80.5881 69.2132 80.7969C69.5712 81.0024 69.9872 81.1051 70.4611 81.1051C70.7694 81.1051 71.0478 81.062 71.2963 80.9759C71.5482 80.8864 71.7653 80.7538 71.9476 80.5781C72.1299 80.3991 72.2708 80.1771 72.3702 79.9119L73.5037 80.2301C73.3844 80.6146 73.1839 80.9527 72.9022 81.2443C72.6204 81.5327 72.2724 81.758 71.8581 81.9205C71.4438 82.0795 70.9782 82.1591 70.4611 82.1591ZM79.584 80.4091L82.2488 74.3636H83.3624L80.0613 82H79.1067L75.8652 74.3636H76.959L79.584 80.4091ZM76.5811 74.3636V82H75.4078V74.3636H76.5811ZM82.5868 82V74.3636H83.7601V82H82.5868ZM89.1096 82.1591C88.3738 82.1591 87.7391 81.9967 87.2054 81.6719C86.6751 81.3438 86.2658 80.8864 85.9775 80.2997C85.6924 79.7098 85.5499 79.0237 85.5499 78.2415C85.5499 77.4593 85.6924 76.7699 85.9775 76.1733C86.2658 75.5734 86.6668 75.1061 87.1806 74.7713C87.6976 74.4332 88.3008 74.2642 88.9902 74.2642C89.388 74.2642 89.7807 74.3305 90.1685 74.4631C90.5563 74.5956 90.9093 74.8111 91.2275 75.1094C91.5456 75.4044 91.7992 75.7955 91.9881 76.2827C92.177 76.7699 92.2715 77.3698 92.2715 78.0824V78.5795H86.3851V77.5653H91.0783C91.0783 77.1345 90.9921 76.75 90.8198 76.4119C90.6507 76.0739 90.4088 75.8071 90.0939 75.6115C89.7824 75.416 89.4145 75.3182 88.9902 75.3182C88.5229 75.3182 88.1185 75.4342 87.7772 75.6662C87.4391 75.8949 87.1789 76.1932 86.9966 76.5611C86.8143 76.929 86.7232 77.3234 86.7232 77.7443V78.4205C86.7232 78.9972 86.8226 79.486 87.0215 79.8871C87.2237 80.2848 87.5037 80.5881 87.8617 80.7969C88.2196 81.0024 88.6356 81.1051 89.1096 81.1051C89.4178 81.1051 89.6962 81.062 89.9448 80.9759C90.1967 80.8864 90.4138 80.7538 90.5961 80.5781C90.7784 80.3991 90.9192 80.1771 91.0186 79.9119L92.1522 80.2301C92.0328 80.6146 91.8323 80.9527 91.5506 81.2443C91.2689 81.5327 90.9209 81.758 90.5066 81.9205C90.0923 82.0795 89.6266 82.1591 89.1096 82.1591ZM99.1671 77.6449V78.7386H94.9512V77.6449H99.1671ZM95.2296 74.3636V82H94.0563V74.3636H95.2296ZM100.062 74.3636V82H98.8887V74.3636H100.062ZM107.316 77.6449V78.7386H103.1V77.6449H107.316ZM103.378 74.3636V82H102.205V74.3636H103.378ZM108.21 74.3636V82H107.037V74.3636H108.21ZM111.526 80.2699L115.205 74.3636H116.558V82H115.384V76.0938L111.725 82H110.353V74.3636H111.526V80.2699ZM118.707 82V74.3636H119.88V77.6847H120.656L123.4 74.3636H124.911L121.829 78.0426L124.951 82H123.44L120.934 78.7784H119.88V82H118.707Z" fill="white"/>
<path d="M14.0284 41.5455V59H10.9261V41.5455H14.0284ZM0.673295 59L6.21307 49.8295L0.988636 41.5455H4.86648L8.99148 48.9176H16.0398L20.0966 41.5455H23.9574L18.8097 49.821L24.2812 59H20.5398L16.4915 51.8494H8.50568L4.38068 59H0.673295ZM29.5206 54.8239L34.7621 45.9091H37.9325V59H34.9496V50.0767L29.7251 59H26.5462V45.9091H29.5206V54.8239ZM41.1009 59V45.9091H46.598C48.1491 45.9091 49.3736 46.2187 50.2713 46.8381C51.1747 47.4574 51.6264 48.321 51.6264 49.429C51.6264 50.1619 51.3707 50.7614 50.8594 51.2273C50.3537 51.6875 49.6634 51.9972 48.7884 52.1562C49.4759 52.2131 50.0781 52.3864 50.5952 52.6761C51.1179 52.9659 51.527 53.3466 51.8224 53.8182C52.1179 54.2898 52.2656 54.8324 52.2656 55.446C52.2656 56.1676 52.0753 56.7955 51.6946 57.3295C51.3196 57.858 50.7713 58.2699 50.0497 58.5653C49.3338 58.8551 48.4645 59 47.4418 59H41.1009ZM43.9901 56.571H47.4418C48.0099 56.571 48.456 56.4375 48.7798 56.1705C49.1037 55.8977 49.2656 55.5284 49.2656 55.0625C49.2656 54.5227 49.1037 54.0994 48.7798 53.7926C48.456 53.4801 48.0099 53.3239 47.4418 53.3239H43.9901V56.571ZM43.9901 51.3295H46.6577C47.0781 51.3295 47.4389 51.2699 47.7401 51.1506C48.0412 51.0256 48.2713 50.8523 48.4304 50.6307C48.5895 50.4034 48.669 50.1335 48.669 49.821C48.669 49.3722 48.4844 49.0199 48.1151 48.7642C47.7514 48.5085 47.2457 48.3807 46.598 48.3807H43.9901V51.3295ZM58.5788 59.2642C57.7493 59.2642 57.0021 59.1165 56.3374 58.821C55.6783 58.5199 55.1555 58.0767 54.7692 57.4915C54.3885 56.9062 54.1982 56.1847 54.1982 55.3267C54.1982 54.5881 54.3345 53.9773 54.6072 53.4943C54.88 53.0114 55.2521 52.625 55.7237 52.3352C56.1953 52.0455 56.7266 51.8267 57.3175 51.679C57.9141 51.5256 58.5305 51.4148 59.1669 51.3466C59.9339 51.267 60.5561 51.196 61.0334 51.1335C61.5107 51.0653 61.8572 50.9631 62.0732 50.8267C62.2947 50.6847 62.4055 50.4659 62.4055 50.1705V50.1193C62.4055 49.4773 62.2152 48.9801 61.8345 48.6278C61.4538 48.2756 60.9055 48.0994 60.1896 48.0994C59.4339 48.0994 58.8345 48.2642 58.3913 48.5938C57.9538 48.9233 57.6584 49.3125 57.505 49.7614L54.6243 49.3523C54.8516 48.5568 55.2266 47.892 55.7493 47.358C56.272 46.8182 56.9112 46.4148 57.6669 46.1477C58.4226 45.875 59.2578 45.7386 60.1726 45.7386C60.8033 45.7386 61.4311 45.8125 62.0561 45.9602C62.6811 46.108 63.2521 46.3523 63.7692 46.6932C64.2862 47.0284 64.701 47.4858 65.0135 48.0653C65.3317 48.6449 65.4908 49.3693 65.4908 50.2386V59H62.5249V57.2017H62.4226C62.2351 57.5653 61.9709 57.9062 61.63 58.2244C61.2947 58.5369 60.8714 58.7898 60.3601 58.983C59.8544 59.1705 59.2607 59.2642 58.5788 59.2642ZM59.38 56.9972C59.9993 56.9972 60.5362 56.875 60.9908 56.6307C61.4453 56.3807 61.7947 56.0511 62.0391 55.642C62.2891 55.233 62.4141 54.7869 62.4141 54.304V52.7614C62.3175 52.8409 62.1527 52.9148 61.9197 52.983C61.6925 53.0511 61.4368 53.1108 61.1527 53.1619C60.8686 53.2131 60.5874 53.2585 60.3089 53.2983C60.0305 53.3381 59.7891 53.3722 59.5845 53.4006C59.1243 53.4631 58.7124 53.5653 58.3487 53.7074C57.9851 53.8494 57.6982 54.0483 57.4879 54.304C57.2777 54.554 57.1726 54.8778 57.1726 55.2756C57.1726 55.8438 57.38 56.2727 57.7947 56.5625C58.2095 56.8523 58.7379 56.9972 59.38 56.9972ZM76.3317 59V48.4148H73.5362C72.826 48.4148 72.2805 48.5795 71.8999 48.9091C71.5192 49.2386 71.3317 49.6477 71.3374 50.1364C71.3317 50.625 71.5107 51.0284 71.8743 51.3466C72.2379 51.6648 72.7578 51.8239 73.4339 51.8239H77.3033V54.0739H73.4339C72.3885 54.0739 71.4851 53.9091 70.7237 53.5795C69.9624 53.25 69.3771 52.7841 68.968 52.1818C68.5589 51.5795 68.3544 50.875 68.3544 50.0682C68.3544 49.2273 68.5618 48.4972 68.9766 47.8778C69.397 47.2528 69.9936 46.7699 70.7663 46.429C71.5447 46.0824 72.468 45.9091 73.5362 45.9091H79.2209V59H76.3317ZM67.8771 59L71.5334 52.2841H74.576L70.9112 59H67.8771ZM87.2834 59V56.375L87.7777 56.3494C88.4482 56.3097 88.9794 56.0682 89.3714 55.625C89.7692 55.1818 90.0618 54.4687 90.2493 53.4858C90.4425 52.5028 90.5703 51.1847 90.6328 49.5312L90.9226 41.5455H102.36V59H99.2663V44.1449H93.8714L93.5987 50.5114C93.5192 52.4205 93.3089 54.0028 92.968 55.2585C92.6328 56.5142 92.0817 57.4517 91.3146 58.071C90.5533 58.6903 89.4936 59 88.1357 59H87.2834ZM111.467 59.2557C110.154 59.2557 109.021 58.983 108.066 58.4375C107.117 57.8864 106.387 57.108 105.876 56.1023C105.364 55.0909 105.109 53.9006 105.109 52.5312C105.109 51.1847 105.364 50.0028 105.876 48.9858C106.393 47.9631 107.114 47.1676 108.04 46.5994C108.967 46.0256 110.055 45.7386 111.305 45.7386C112.112 45.7386 112.873 45.8693 113.589 46.1307C114.31 46.3864 114.947 46.7841 115.498 47.3239C116.055 47.8636 116.492 48.5511 116.81 49.3864C117.129 50.2159 117.288 51.2045 117.288 52.3523V53.2983H106.558V51.2188H114.33C114.325 50.6278 114.197 50.1023 113.947 49.642C113.697 49.1761 113.347 48.8097 112.898 48.5426C112.455 48.2756 111.938 48.142 111.347 48.142C110.717 48.142 110.163 48.2955 109.685 48.6023C109.208 48.9034 108.836 49.3011 108.569 49.7955C108.308 50.2841 108.174 50.821 108.168 51.4062V53.2216C108.168 53.983 108.308 54.6364 108.586 55.1818C108.864 55.7216 109.254 56.1364 109.754 56.4261C110.254 56.7102 110.839 56.8523 111.509 56.8523C111.958 56.8523 112.364 56.7898 112.728 56.6648C113.092 56.5341 113.407 56.3438 113.674 56.0938C113.941 55.8438 114.143 55.5341 114.279 55.1648L117.16 55.4886C116.978 56.25 116.631 56.9148 116.12 57.483C115.614 58.0455 114.967 58.483 114.177 58.7955C113.387 59.1023 112.484 59.2557 111.467 59.2557ZM128.557 45.9091V48.4403H122.915V59H119.898V45.9091H128.557ZM136.287 59.2557C134.974 59.2557 133.841 58.983 132.886 58.4375C131.938 57.8864 131.207 57.108 130.696 56.1023C130.185 55.0909 129.929 53.9006 129.929 52.5312C129.929 51.1847 130.185 50.0028 130.696 48.9858C131.213 47.9631 131.935 47.1676 132.861 46.5994C133.787 46.0256 134.875 45.7386 136.125 45.7386C136.932 45.7386 137.693 45.8693 138.409 46.1307C139.131 46.3864 139.767 46.7841 140.318 47.3239C140.875 47.8636 141.313 48.5511 141.631 49.3864C141.949 50.2159 142.108 51.2045 142.108 52.3523V53.2983H131.378V51.2188H139.151C139.145 50.6278 139.017 50.1023 138.767 49.642C138.517 49.1761 138.168 48.8097 137.719 48.5426C137.276 48.2756 136.759 48.142 136.168 48.142C135.537 48.142 134.983 48.2955 134.506 48.6023C134.028 48.9034 133.656 49.3011 133.389 49.7955C133.128 50.2841 132.994 50.821 132.989 51.4062V53.2216C132.989 53.983 133.128 54.6364 133.406 55.1818C133.685 55.7216 134.074 56.1364 134.574 56.4261C135.074 56.7102 135.659 56.8523 136.33 56.8523C136.778 56.8523 137.185 56.7898 137.548 56.6648C137.912 56.5341 138.227 56.3438 138.494 56.0938C138.761 55.8438 138.963 55.5341 139.099 55.1648L141.98 55.4886C141.798 56.25 141.452 56.9148 140.94 57.483C140.435 58.0455 139.787 58.483 138.997 58.7955C138.207 59.1023 137.304 59.2557 136.287 59.2557ZM153.71 51.1761V53.7074H146.738V51.1761H153.71ZM147.692 45.9091V59H144.718V45.9091H147.692ZM155.729 45.9091V59H152.763V45.9091H155.729ZM157.692 62.8011V56.4602H158.732C159.01 56.2443 159.243 55.9517 159.43 55.5824C159.618 55.2074 159.771 54.767 159.891 54.2614C160.016 53.75 160.118 53.179 160.197 52.5483C160.277 51.9119 160.348 51.2273 160.411 50.4943L160.786 45.9091H170.246V56.4602H172.274V62.8011H169.291V59H160.726V62.8011H157.692ZM161.902 56.4602H167.297V48.3977H163.462L163.257 50.4943C163.143 51.8807 162.993 53.0682 162.805 54.0568C162.618 55.0455 162.317 55.8466 161.902 56.4602ZM178.344 59.2642C177.515 59.2642 176.768 59.1165 176.103 58.821C175.444 58.5199 174.921 58.0767 174.535 57.4915C174.154 56.9062 173.964 56.1847 173.964 55.3267C173.964 54.5881 174.1 53.9773 174.373 53.4943C174.646 53.0114 175.018 52.625 175.489 52.3352C175.961 52.0455 176.492 51.8267 177.083 51.679C177.68 51.5256 178.296 51.4148 178.933 51.3466C179.7 51.267 180.322 51.196 180.799 51.1335C181.276 51.0653 181.623 50.9631 181.839 50.8267C182.06 50.6847 182.171 50.4659 182.171 50.1705V50.1193C182.171 49.4773 181.981 48.9801 181.6 48.6278C181.219 48.2756 180.671 48.0994 179.955 48.0994C179.2 48.0994 178.6 48.2642 178.157 48.5938C177.719 48.9233 177.424 49.3125 177.271 49.7614L174.39 49.3523C174.617 48.5568 174.992 47.892 175.515 47.358C176.038 46.8182 176.677 46.4148 177.433 46.1477C178.188 45.875 179.023 45.7386 179.938 45.7386C180.569 45.7386 181.197 45.8125 181.822 45.9602C182.447 46.108 183.018 46.3523 183.535 46.6932C184.052 47.0284 184.467 47.4858 184.779 48.0653C185.097 48.6449 185.256 49.3693 185.256 50.2386V59H182.29V57.2017H182.188C182.001 57.5653 181.737 57.9062 181.396 58.2244C181.06 58.5369 180.637 58.7898 180.126 58.983C179.62 59.1705 179.026 59.2642 178.344 59.2642ZM179.146 56.9972C179.765 56.9972 180.302 56.875 180.756 56.6307C181.211 56.3807 181.56 56.0511 181.805 55.642C182.055 55.233 182.18 54.7869 182.18 54.304V52.7614C182.083 52.8409 181.918 52.9148 181.685 52.983C181.458 53.0511 181.202 53.1108 180.918 53.1619C180.634 53.2131 180.353 53.2585 180.075 53.2983C179.796 53.3381 179.555 53.3722 179.35 53.4006C178.89 53.4631 178.478 53.5653 178.114 53.7074C177.751 53.8494 177.464 54.0483 177.254 54.304C177.043 54.554 176.938 54.8778 176.938 55.2756C176.938 55.8438 177.146 56.2727 177.56 56.5625C177.975 56.8523 178.504 56.9972 179.146 56.9972Z" fill="#7AFF8C"/>
<g clip-path="url(#clip0_620_3724)">
<path d="M141.643 2.7898C139.933 5.57946 138.117 8.31553 136.406 11.1051C136.085 11.6315 135.188 11.4139 135.245 10.78C135.254 9.56432 135.315 8.40189 135.323 7.18624C134.471 8.07895 134.253 9.13467 134.085 10.402C133.976 10.9298 133.76 11.5098 133.178 11.6643C132.278 11.9224 131.28 11.017 130.596 10.5366C128.86 9.30893 127.284 7.87088 125.388 6.85356C123.176 5.72836 123.112 7.31363 123.576 9.06109C124.039 10.9143 124.872 12.77 125.812 14.415C127.484 17.2808 129.419 20.2541 129.872 23.5871C130.123 25.4389 129.153 28.2336 126.828 28.1119C123.974 27.9866 120.712 25.8499 118.877 23.723C117.827 22.6586 111.856 14.689 111.243 19.2305C110.798 22.5574 113.518 26.6461 115.138 29.4058C115.346 29.7772 114.815 30.1436 114.553 29.8246C112.509 27.2736 110.893 24.0382 110.175 20.809C109.817 19.0622 110.421 15.8421 112.953 16.5467C115.908 17.3598 117.84 20.7031 119.728 22.9361C120.881 24.3711 122.723 25.4409 124.303 26.2975C127.674 28.1178 129.225 25.4856 128.4 22.4143C127.369 18.6543 124.694 15.5703 123.186 12.0185C122.666 10.7463 120.792 6.50499 122.861 5.46199C125.248 4.2627 128.398 7.29729 130.08 8.63019C129.975 8.5766 132.761 10.8686 132.923 10.3939C133.084 9.91932 133.088 9.338 133.198 8.81019C133.416 7.80741 133.844 7.01742 134.536 6.38798C133.531 6.43392 132.527 6.37417 131.524 6.2087C130.996 6.09936 130.949 5.30618 131.374 5.04481C134.398 3.37419 137.784 2.97461 141.015 1.88683C141.492 1.67869 141.964 2.31621 141.643 2.7898ZM135.917 5.44604C136.234 5.44822 136.338 5.71322 136.283 5.92428C136.441 6.03108 136.546 6.19037 136.544 6.40178C136.54 7.08889 136.534 7.82885 136.53 8.51596C137.598 6.83189 138.667 5.20058 139.735 3.51651C137.723 4.0841 135.659 4.49276 133.751 5.27258C134.437 5.33016 135.177 5.3881 135.917 5.44604Z" fill="white"/>
</g>
<defs>
<clipPath id="clip0_620_3724">
<rect width="31.5475" height="31.5475" fill="white" transform="matrix(0.999976 0.00687523 0.00687523 -0.999976 110 31.5469)"/>
</clipPath>
</defs>
</svg>
