<svg width="596" height="90" viewBox="0 0 596 90" fill="none" xmlns="http://www.w3.org/2000/svg">
<g clip-path="url(#clip0_610_3795)">
<path d="M265.913 27.4385C261.904 18.2928 252.008 13.2533 242.206 14.7693C240.931 14.9666 239.699 15.2869 238.512 15.7023C238.218 15.6964 237.923 15.6898 237.629 15.6828C237.382 15.6772 237.351 15.9664 237.505 16.0887C230.352 19.0136 225.143 25.7377 223.983 33.5522C223.184 38.9371 224.439 44.5686 227.759 48.9256C232.727 55.4441 239.536 57.8294 242.769 65.6686C240.513 66.555 239.07 69.5259 240.3 71.7542C240.329 71.8078 240.374 71.8233 240.415 71.851C240.542 72.2086 240.855 72.4816 241.279 72.6932C241.262 72.7018 241.245 72.6971 241.228 72.711C241.137 72.7864 241.07 72.8878 240.989 72.9744C240.89 72.9751 240.79 72.9744 240.691 72.9751C240.541 72.9757 240.541 73.2078 240.691 73.2084C240.72 73.2084 240.748 73.2084 240.776 73.2084C239.586 74.7783 239.734 77.5959 241.63 78.4945C241.637 78.5682 241.666 78.637 241.75 78.6753C245.635 80.4633 250.585 79.6906 254.671 78.9817C257.639 78.4671 261.837 77.8831 263.988 75.4337C265.292 76.4018 265.951 77.967 265.641 79.5406C262.78 82.2385 259.066 83.2881 255.274 83.9472C251.835 84.5451 245.66 85.8611 242.5 83.4732C242.545 83.3923 242.563 83.2984 242.493 83.1913C242.473 83.1606 242.458 83.1285 242.438 83.0978C243.819 83.3205 245.21 83.4954 246.598 83.6567C246.748 83.6742 246.785 83.4141 246.634 83.3913C245.186 83.1715 243.73 82.9616 242.272 82.8122C242.032 82.3664 241.876 81.9066 241.817 81.4433C243.118 81.4277 244.417 81.4816 245.713 81.5791C245.908 81.5937 245.903 81.2979 245.713 81.278C244.408 81.1415 243.108 81.1263 241.799 81.1792C241.77 80.5258 241.935 79.8678 242.357 79.2325C242.49 79.0312 242.2 78.8297 242.034 78.983C241.073 79.8704 240.771 81.4096 241.287 82.6014C241.275 82.6374 241.277 82.6804 241.301 82.727C241.991 84.0589 243.041 84.8336 244.272 85.2646C244.277 85.2841 244.268 85.3029 244.281 85.3221C249.307 92.8295 263.882 91.1522 264.944 81.3643C264.948 81.3289 264.938 81.3025 264.935 81.2714C265.234 81.0397 265.538 80.8173 265.818 80.5565C265.916 80.5539 266.011 80.5225 266.061 80.4141C266.078 80.3777 266.085 80.3387 266.101 80.302C266.173 80.231 266.254 80.1751 266.324 80.1021C266.495 79.9226 266.469 79.7094 266.357 79.5564C266.79 77.7816 266.157 75.8353 264.628 74.7654C265.585 73.2035 265.519 70.4867 264.106 69.1241C264.284 68.9459 264.461 68.7671 264.617 68.5715C264.887 68.2337 264.589 67.8063 264.252 67.8628C264.592 65.3044 262.722 62.6012 259.934 62.5953C259.927 62.5953 259.924 62.6015 259.917 62.6019C258.741 54.6136 265.533 49.1652 267.296 41.8442C268.441 37.0896 267.869 31.8993 265.913 27.4385ZM254.812 89.1847C250.999 89.8949 247.5 88.365 245.046 85.4857C247.485 86.0439 250.446 85.5214 252.788 85.2464C256.584 84.8009 260.661 84.0629 263.916 81.9906C263.079 86.2243 258.773 88.447 254.812 89.1847ZM264.266 71.5576C264.451 72.2404 264.444 72.9047 264.319 73.5627C264.251 73.5958 264.186 73.6434 264.134 73.727C262.077 77.0224 257.119 77.622 253.6 78.1871C250.079 78.7526 245.788 79.2957 242.286 78.279C242.276 78.2258 242.261 78.1719 242.217 78.1286C241.968 77.8801 241.751 77.6071 241.551 77.3245C242.848 77.6213 244.168 77.8355 245.499 77.8629C245.756 77.8682 245.747 77.4921 245.499 77.4696C244.083 77.342 242.681 77.196 241.285 76.9226C240.972 76.3793 240.781 75.7953 240.748 75.204C242.039 75.2397 243.334 75.2268 244.625 75.2093C244.818 75.2067 244.819 74.9109 244.625 74.9082C243.331 74.8907 242.035 74.8775 240.741 74.9135C240.765 74.3378 240.965 73.761 241.375 73.2104C242.013 73.2147 242.651 73.2174 243.289 73.2144C245.383 73.4811 247.924 73.259 248.493 73.2078C252.763 72.8221 259.555 72.6565 263.307 69.8227C263.707 70.3443 264.074 70.8476 264.266 71.5576ZM259.809 63.7481C259.883 63.6866 259.942 63.6073 259.977 63.5147C261.029 63.7841 261.928 64.1063 262.656 64.9941C263.423 65.9287 263.698 67.1397 263.592 68.3282C263.475 68.4254 263.351 68.5001 263.232 68.5896C263.003 68.5728 262.776 68.7202 262.757 68.9353C260.353 70.5204 257.488 70.8136 254.608 71.2928C253.406 71.4928 241.846 73.3601 240.916 71.389C240.895 71.2697 240.883 71.1527 240.868 71.0347C240.872 70.9957 240.87 70.959 240.881 70.918C240.899 70.8496 240.87 70.7931 240.829 70.7462C240.819 70.6242 240.822 70.5052 240.819 70.3849C240.835 70.3958 240.841 70.4137 240.864 70.4193C242.289 70.768 243.686 70.7792 245.112 70.4352C245.329 70.3826 245.236 70.061 245.02 70.1033C243.671 70.3681 242.305 70.3625 240.96 70.07C240.898 70.0564 240.849 70.0752 240.81 70.107C240.823 69.3349 240.993 68.6091 241.318 67.9524C242.636 68.0648 243.957 68.2102 245.279 68.2254C245.461 68.2274 245.452 67.968 245.279 67.9488C244.005 67.8083 242.718 67.7885 241.436 67.7435C241.785 67.1232 242.272 66.5673 242.942 66.1188C243.051 66.402 243.167 66.6737 243.267 66.9711C243.341 67.1919 243.614 67.1665 243.697 67.0072C243.721 67.0151 243.734 67.0349 243.764 67.0353C249.067 67.1271 254.679 66.2711 259.64 64.3744C259.934 64.262 259.96 63.9302 259.809 63.7481ZM248.643 65.9235C246.679 55.8556 241.767 46.7522 236.154 38.2387C238.788 35.836 243.165 35.2622 246.46 36.4877C248.771 37.3474 250.679 39.0158 253.057 39.7343C253.443 39.8506 253.888 39.9808 254.357 40.0962C252.702 48.2094 252.868 56.5854 254.774 64.7472C252.738 65.1967 250.702 65.6035 248.643 65.9235ZM266.702 38.1568C266.102 47.4436 257.044 53.9033 258.946 63.5071C258.965 63.6026 259.004 63.6754 259.053 63.7349C257.845 64.0488 256.649 64.3146 255.45 64.5872C253.935 56.2595 253.972 48.3228 255.473 40.3196C256.991 40.5417 258.5 40.3738 258.977 38.8707C259.123 38.4099 258.492 38.209 258.241 38.5607C257.629 39.4183 256.708 39.6573 255.641 39.5439C256.116 37.1639 256.699 34.778 257.43 32.3716C257.593 31.8352 256.788 31.6297 256.601 32.1429C255.743 34.5007 255.059 36.8979 254.529 39.3182C251.745 38.5203 248.398 36.0766 246.725 35.4579C244.766 34.7337 242.694 34.6006 240.655 35.0533C238.782 35.4698 237.043 36.3559 235.729 37.6048C235.076 36.6229 234.416 35.6469 233.748 34.6799C233.52 34.349 232.989 34.6452 233.202 34.9991C233.85 36.0789 234.499 37.1521 235.144 38.2229C233.866 39.7088 233.15 41.6069 233.392 43.7909C233.425 44.0821 233.867 44.0983 233.859 43.7909C233.805 41.7517 234.463 40.1193 235.534 38.8707C240.736 47.512 245.649 56.007 247.998 66.0305C246.603 66.2364 245.196 66.4152 243.763 66.5501C243.708 66.5554 243.674 66.5855 243.638 66.6126C243.554 66.3118 243.437 66.0381 243.339 65.7493C243.342 65.6931 243.323 65.6428 243.287 65.5999C243.216 65.3963 243.122 65.2122 243.044 65.0146C244.005 65.1696 244.962 65.3239 245.93 65.4323C246.129 65.4545 246.174 65.1213 245.978 65.0823C245.037 64.8962 244.093 64.7568 243.145 64.6163C243.04 64.6008 242.969 64.6622 242.928 64.7366C242.164 62.9003 241.118 61.3099 239.92 59.8511C240.838 59.9886 241.768 60.0124 242.692 59.8802C242.847 59.858 242.809 59.6032 242.656 59.6085C241.64 59.6452 240.643 59.6217 239.638 59.5203C238.818 58.5542 237.928 57.6493 237.01 56.7701C237.654 56.8746 238.297 56.9876 238.944 57.0682C239.111 57.0891 239.151 56.8012 238.984 56.7724C238.216 56.6402 237.442 56.5431 236.669 56.4433C235.905 55.7231 235.124 55.0194 234.344 54.3155C235.365 54.4242 236.367 54.6278 237.368 54.9054C237.579 54.9639 237.663 54.648 237.458 54.5795C236.313 54.1988 235.134 54.0094 233.938 53.9486C232.889 52.9991 231.856 52.037 230.875 51.0329C232.176 51.2497 233.49 51.4953 234.801 51.5584C234.98 51.567 235.019 51.2861 234.843 51.2448C233.417 50.9073 231.922 50.7887 230.465 50.6089C229.451 49.5377 228.512 48.4047 227.7 47.166C228.82 47.3831 229.944 47.5834 231.074 47.7345C231.28 47.7619 231.326 47.4135 231.123 47.3722C229.907 47.1257 228.677 46.9363 227.447 46.7664C226.698 45.5607 226.075 44.25 225.626 42.7931C226.856 42.994 228.088 43.2046 229.331 43.2965C229.495 43.3084 229.535 43.0357 229.371 43.0066C228.131 42.7888 226.873 42.69 225.62 42.5822C225.597 42.5803 225.579 42.5908 225.563 42.6027C225.283 41.6538 225.084 40.6997 224.946 39.7462C226.186 39.7548 227.392 39.888 228.618 40.0909C228.866 40.1319 228.978 39.7706 228.724 39.7059C227.478 39.3879 226.176 39.3089 224.895 39.3806C224.805 38.6648 224.755 37.9499 224.741 37.2376C225.906 37.2743 227.073 37.2813 228.237 37.2406C228.494 37.2317 228.495 36.8503 228.237 36.841C227.076 36.8004 225.912 36.8077 224.751 36.844C224.75 35.6026 224.872 34.3745 225.088 33.1681C226.5 33.2574 227.915 33.3734 229.33 33.3506C229.637 33.3456 229.622 32.916 229.33 32.8836C227.954 32.7316 226.565 32.7107 225.181 32.6684C225.727 29.9814 226.797 27.4293 228.276 25.1495C229.716 25.3045 231.158 25.474 232.603 25.5401C232.881 25.5527 232.955 25.085 232.67 25.045C231.323 24.8573 229.963 24.7571 228.605 24.6524C229.365 23.5488 230.229 22.521 231.176 21.575C232.817 21.732 234.456 21.895 236.104 21.9505C236.388 21.9601 236.371 21.5529 236.104 21.5205C234.607 21.3377 233.103 21.2449 231.598 21.1543C232.591 20.217 233.682 19.3874 234.843 18.6567C236.557 18.977 238.29 19.1224 240.036 18.9555C240.372 18.9234 240.386 18.4095 240.036 18.4207C238.498 18.4706 236.986 18.4475 235.474 18.2683C236.912 17.4338 238.468 16.787 240.105 16.323C241.612 16.4284 243.119 16.5226 244.627 16.5388C245.019 16.5431 245.008 15.9674 244.627 15.9366C243.881 15.8762 243.132 15.854 242.383 15.8229C242.999 15.7251 243.618 15.6336 244.254 15.5942C257.008 14.8103 267.525 25.432 266.702 38.1568Z" fill="white"/>
<path d="M231.616 59.9425C228.776 61.2437 225.89 62.4768 223.071 63.8213C222.789 63.9558 222.988 64.4231 223.284 64.3266C226.251 63.3625 229.172 61.9347 231.858 60.3562C232.129 60.1969 231.892 59.8162 231.616 59.9425Z" fill="white"/>
<path d="M217.92 40.0715C214.991 40.555 212.171 40.4139 209.244 40.0309C208.939 39.9909 208.883 40.4873 209.172 40.562C212.094 41.3179 215.132 41.222 218.078 40.6463C218.458 40.5722 218.293 40.01 217.92 40.0715Z" fill="white"/>
<path d="M226.292 16.5713C224.094 13.6919 222.548 10.4811 221.527 7.00915C221.433 6.68955 220.955 6.82274 221.029 7.1463C221.855 10.7769 223.517 14.0182 225.838 16.921C226.041 17.1745 226.491 16.8321 226.292 16.5713Z" fill="white"/>
<path d="M244.531 0.309468C244.571 -0.0418582 243.968 -0.126467 243.909 0.22552C243.468 2.86724 243.436 5.50863 243.686 8.17316C243.722 8.5615 244.329 8.57043 244.3 8.17316C244.108 5.53871 244.231 2.9307 244.531 0.309468Z" fill="white"/>
<path d="M263.413 3.57037C261.408 5.90407 260.167 8.84556 259.32 11.7775C259.198 12.2015 259.843 12.3744 259.978 11.9589C260.922 9.05378 262.381 6.57136 263.915 3.95773C264.094 3.653 263.655 3.28878 263.413 3.57037Z" fill="white"/>
<path d="M279.822 19.1017C278.339 20.2964 277.007 21.6803 275.64 23.0039C275.318 23.3162 275.804 23.7981 276.131 23.4951C277.526 22.2021 278.98 20.9479 280.252 19.532C280.519 19.2352 280.123 18.8591 279.822 19.1017Z" fill="white"/>
<path d="M280.491 42.3428C277.915 43.4771 275.383 44.6781 272.749 45.6766C272.333 45.8343 272.507 46.5048 272.935 46.3522C275.635 45.3897 278.333 44.3397 280.841 42.9423C281.241 42.7199 280.89 42.167 280.491 42.3428Z" fill="white"/>
<path d="M251.669 87.7291C250.324 87.4541 248.848 87.1395 247.472 87.1289C247.338 87.1279 247.316 87.3199 247.441 87.3583C248.757 87.7628 250.257 87.9056 251.626 88.049C251.808 88.0679 251.848 87.7655 251.669 87.7291Z" fill="white"/>
<path d="M249.677 86.1009C248.434 85.8683 247.198 85.7956 245.936 85.8881C245.815 85.897 245.812 86.0831 245.936 86.0785C247.172 86.0335 248.4 86.1059 249.622 86.3025C249.753 86.3234 249.811 86.1261 249.677 86.1009Z" fill="white"/>
<path d="M244.406 62.3002C243.678 62.2873 242.949 62.2979 242.221 62.3002C242.11 62.3006 242.11 62.4721 242.221 62.4724C242.949 62.4747 243.678 62.4853 244.406 62.4724C244.517 62.4704 244.517 62.3022 244.406 62.3002Z" fill="white"/>
<path d="M229.986 28.9364C228.83 28.8247 227.649 28.9053 226.49 28.9208C226.162 28.9251 226.162 29.4265 226.49 29.4308C227.649 29.4463 228.83 29.527 229.986 29.4153C230.294 29.3859 230.294 28.9661 229.986 28.9364Z" fill="white"/>
</g>
<g clip-path="url(#clip1_610_3795)">
<path d="M163.015 42.2883C161.003 41.263 158.8 40.5794 156.712 39.782C156.446 39.6681 156.142 39.9719 156.142 40.1997C156.18 41.5288 156.142 42.9339 156.56 44.1871L156.522 44.2251C152.23 49.1999 143.8 49.7315 137.724 50.0353C130.736 50.4151 123.369 49.7315 117.217 46.2378C116.534 45.7061 115.812 45.1365 115.167 44.4909C114.863 44.1871 114.445 44.6049 114.711 44.9466C114.825 45.0606 114.939 45.1745 115.053 45.2884C114.901 45.4403 114.901 45.6682 115.091 45.858C115.546 46.2378 116.078 46.5416 116.572 46.8834C127.167 56.8709 147.332 56.5291 158.003 47.1492C158.268 48.0986 158.61 49.0478 158.838 50.0353C158.914 50.491 159.484 50.4529 159.712 50.1491C161.345 47.9846 162.142 45.3642 163.205 42.9339C163.319 42.7441 163.319 42.4403 163.015 42.2883ZM159.446 48.8961C159.18 48.1745 158.838 47.529 158.61 46.7694C158.496 46.5035 158.231 46.4656 158.079 46.5416C157.965 46.4277 157.813 46.4276 157.661 46.5036C147.066 54.0607 133.509 55.2379 122.382 49.5796C127.471 51.0986 133.091 51.2505 138.218 50.9846C141.977 50.7948 145.661 50.3011 149.268 49.3517C152.078 48.5922 155.268 47.301 156.674 44.6049C156.863 45.0226 157.471 44.7188 157.395 44.339C157.243 43.1998 157.129 42.0985 157.091 40.9972C158.8 41.6429 160.547 42.2503 162.18 43.0479C161.307 44.9846 160.585 47.0732 159.446 48.8961Z" fill="white"/>
</g>
<g clip-path="url(#clip2_610_3795)">
<path d="M373.015 42.2883C371.003 41.263 368.8 40.5794 366.712 39.782C366.446 39.6681 366.142 39.9719 366.142 40.1997C366.18 41.5288 366.142 42.9339 366.56 44.1871L366.522 44.2251C362.23 49.1999 353.8 49.7315 347.724 50.0353C340.736 50.4151 333.369 49.7315 327.217 46.2378C326.534 45.7061 325.812 45.1365 325.167 44.4909C324.863 44.1871 324.445 44.6049 324.711 44.9466C324.825 45.0606 324.939 45.1745 325.053 45.2884C324.901 45.4403 324.901 45.6682 325.091 45.858C325.546 46.2378 326.078 46.5416 326.572 46.8834C337.167 56.8709 357.332 56.5291 368.003 47.1492C368.268 48.0986 368.61 49.0478 368.838 50.0353C368.914 50.491 369.484 50.4529 369.712 50.1491C371.345 47.9846 372.142 45.3642 373.205 42.9339C373.319 42.7441 373.319 42.4403 373.015 42.2883ZM369.446 48.8961C369.18 48.1745 368.838 47.529 368.61 46.7694C368.496 46.5035 368.231 46.4656 368.079 46.5416C367.965 46.4277 367.813 46.4276 367.661 46.5036C357.066 54.0607 343.509 55.2379 332.382 49.5796C337.471 51.0986 343.091 51.2505 348.218 50.9846C351.977 50.7948 355.661 50.3011 359.268 49.3517C362.078 48.5922 365.268 47.301 366.674 44.6049C366.863 45.0226 367.471 44.7188 367.395 44.339C367.243 43.1998 367.129 42.0985 367.091 40.9972C368.8 41.6429 370.547 42.2503 372.18 43.0479C371.307 44.9846 370.585 47.0732 369.446 48.8961Z" fill="white"/>
</g>
<g clip-path="url(#clip3_610_3795)">
<path d="M55.8299 8.32826C34.2876 -1.22445 9.97231 8.37867 2.38803 27.6898C2.31358 27.7402 2.28621 27.8353 2.30724 27.9171C-0.120585 34.2301 -0.777286 41.5626 1.0349 49.6019C5.66586 70.146 25.1803 73.0412 43.0678 69.771C42.8925 78.5051 53.6481 83.4476 61.1279 83.4065C61.6096 83.4038 61.8513 82.8066 61.5182 82.4644C58.443 79.3061 56.551 75.5408 55.8776 71.2156C70.2192 71.227 78.9099 58.0302 79.8934 44.6575C81.1534 27.5272 71.0976 15.0983 55.8299 8.32826ZM54.6296 69.9563C53.8377 69.9206 53.8424 71.1435 54.6296 71.1853C54.6861 71.1883 54.7408 71.1866 54.7972 71.1893C55.4266 75.3999 57.0902 79.0724 59.8535 82.26C57.3282 82.1031 54.6807 81.4388 52.2709 80.32C52.6946 80.4846 53.391 80.4338 53.8257 80.4696C54.5171 80.5266 55.2025 80.5627 55.8966 80.5697C56.0692 80.5714 56.1193 80.2846 55.9387 80.2589C55.3825 80.1791 54.8303 80.1107 54.2694 80.0673C53.9736 80.0446 53.6778 80.0252 53.3817 80.0045C53.2785 79.9971 52.6265 80.0058 52.3127 80.0108C52.3524 79.9731 52.3748 79.9167 52.3384 79.8636L52.2956 79.8005C52.2629 79.7524 52.2092 79.7271 52.1517 79.7417C51.7792 79.8369 51.9214 80.127 52.1594 80.2679C50.6363 79.5494 49.2178 78.641 47.9895 77.5583C49.6742 77.6237 51.3531 77.7543 53.0298 77.9469C53.2745 77.975 53.3333 77.5546 53.0885 77.5142C51.2213 77.2048 49.3477 77.0816 47.459 77.0709C46.6941 76.3277 46.0228 75.5061 45.4632 74.613C46.8764 74.8581 48.289 75.1328 49.7139 75.2944C49.9179 75.3174 49.9646 74.9739 49.7626 74.9345C48.302 74.6507 46.816 74.4905 45.3417 74.2902C45.3173 74.2868 45.3006 74.2998 45.2799 74.3059C44.7745 73.4428 44.3892 72.5074 44.1194 71.5141C45.8582 71.6173 47.6146 71.6129 49.3373 71.3419C49.567 71.3055 49.5153 70.9142 49.2819 70.9332C47.5228 71.0771 45.7897 71.1943 44.0266 71.1292C43.8764 70.4865 43.7615 69.8268 43.7265 69.1314C43.7054 68.715 43.1382 68.718 43.0795 69.109C32.7802 70.584 21.2938 71.41 12.3163 65.2265C16.4629 65.7721 20.6151 66.2866 24.7723 66.7376C25.0444 66.767 25.036 66.3503 24.7723 66.3156C20.4067 65.7394 16.0305 65.2292 11.6523 64.7568C10.3539 63.7943 9.20076 62.7079 8.16513 61.5341C10.6584 62.0883 13.1804 62.5263 15.7297 62.7066C15.9968 62.7256 15.9854 62.3273 15.7297 62.2969C13.0472 61.9761 10.3876 61.6092 7.74413 61.0536C6.69148 59.7923 5.79941 58.4178 5.01751 56.9799C7.11581 57.1411 9.21445 57.3074 11.3164 57.4056C11.5902 57.4183 11.5838 57.0059 11.3164 56.9836C9.14033 56.7999 6.9589 56.6894 4.7788 56.5709C4.06668 55.2044 3.48109 53.7695 2.99132 52.2955C5.23351 52.6751 7.49007 52.8437 9.77099 52.7796C10.0538 52.7716 10.0554 52.3402 9.77099 52.3389C7.44266 52.3272 5.13903 52.1333 2.83841 51.8054C2.46015 50.6008 2.17503 49.3649 1.93131 48.1189C6.603 48.1981 11.28 48.3273 15.9507 48.1627C16.2225 48.153 16.2222 47.7527 15.9507 47.7407C11.254 47.5303 6.54725 47.6171 1.84751 47.6512C1.60179 46.3004 1.43219 44.9353 1.3287 43.5674C1.41483 43.6856 1.45757 43.7167 1.63551 43.7036C1.71931 43.6976 1.77607 43.6412 1.78241 43.5568C1.78341 43.5444 1.78442 43.5317 1.78542 43.5194C2.91152 43.6749 7.32514 43.7631 7.78453 43.7307C8.06831 43.7107 8.07532 43.283 7.78453 43.2837C6.30353 43.2877 4.81519 43.2633 3.33686 43.1718C2.72389 43.1338 1.72532 42.7642 1.31568 43.3494C1.2449 42.3372 1.20484 41.3236 1.21852 40.3136C1.22887 39.5534 1.29164 38.8093 1.34639 38.0624C3.85334 38.3282 6.36863 38.5559 8.88526 38.6861C9.14935 38.6998 9.13699 38.3115 8.88526 38.2824C6.38933 37.9963 3.87871 37.8047 1.36976 37.6525C1.4983 36.1311 1.74736 34.6524 2.05317 33.1971C7.34784 33.3894 12.6398 33.5734 17.9382 33.6244C18.2991 33.6278 18.2964 33.0802 17.9382 33.0659C12.6792 32.8542 7.41996 32.7744 2.15767 32.703C2.50321 31.1669 2.96194 29.6799 3.49478 28.2319C6.08419 28.6977 8.68261 28.8329 11.3171 28.5311C11.6136 28.497 11.6216 28.0303 11.3171 28.0593C8.73069 28.3071 6.18301 28.239 3.63266 27.8337C4.37182 25.8979 5.28726 24.0587 6.33926 22.313C9.32362 22.6004 12.3 22.9456 15.2907 23.1616C15.5367 23.1793 15.5281 22.8094 15.2907 22.783C12.3734 22.4568 9.44648 22.2539 6.52254 21.9998C7.69472 20.1001 9.05453 18.3334 10.5656 16.7041C13.5343 17.0133 16.5016 17.3405 19.4806 17.5348C19.8202 17.5568 19.8071 17.05 19.4806 17.0133C16.6421 16.6954 13.7923 16.4995 10.9438 16.2928C16.1457 10.8653 23.1638 7.12537 31.3173 5.90778C47.4957 3.49131 67.8294 12.0271 75.7185 26.8705C84.3237 43.0606 75.7042 70.9028 54.6296 69.9563Z" fill="white"/>
<path d="M39.9966 16.1229C26.6088 14.0913 13.9659 31.9758 27.3426 40.7951C27.4528 40.8679 27.564 40.8368 27.6598 40.7767C27.7934 40.9183 28.017 40.9673 28.2027 40.7837C29.2209 39.7785 30.2315 38.7659 31.2999 37.8134C31.8674 37.3072 33.1621 36.6038 33.4045 35.8252C33.7895 34.5893 32.2571 32.931 31.99 31.8413C30.4572 25.5911 38.2976 24.7274 41.2355 28.9962C43.2631 31.9421 44.0423 39.0867 38.9029 39.6947C38.7473 39.713 38.6314 39.7875 38.5476 39.8853C38.4956 39.3258 37.5844 39.3702 37.509 39.9898C36.898 45.0014 36.7264 50.045 36.8606 55.0893C36.87 55.4415 37.1975 55.7002 37.5434 55.6094C40.2466 54.902 42.8337 54.7387 45.5957 55.0766C45.8622 55.1093 46.1626 54.8035 46.1322 54.5401C45.7266 51.0025 45.6441 47.4128 45.1567 43.8883C45.2348 43.92 45.3216 43.9337 45.4188 43.906C60.1003 39.678 52.3404 17.9958 39.9966 16.1229ZM45.0816 43.106C45.0038 43.1461 44.9561 43.2035 44.9213 43.266C44.7674 43.2386 44.5735 43.3381 44.5554 43.5217C44.3905 45.1803 44.4413 46.8256 44.5301 48.4889C44.5781 49.3879 45.362 52.7863 44.9347 53.442C44.4042 54.2563 42.4024 53.7698 41.4682 53.8309C40.268 53.9097 39.0982 54.1364 37.934 54.4162C37.8405 49.7926 38.0632 45.2064 38.5046 40.6041C38.5877 40.7099 38.7172 40.7774 38.9032 40.7557C46.7208 39.8412 44.3551 27.5349 38.374 25.4432C35.6708 24.4977 32.4681 25.4486 31.1587 28.1201C30.1931 30.0899 30.977 31.463 31.4474 33.4128C31.8544 35.0988 31.6998 35.7147 30.6001 37.1126C29.7388 38.2073 28.5809 39.1365 27.6655 40.2041C15.7097 30.5693 28.0564 13.9982 41.3003 17.5762C52.8909 20.7081 56.3316 37.3373 45.0816 43.106Z" fill="white"/>
<path d="M45.7189 57.093C45.0729 56.6507 43.6917 56.9451 43.001 56.9578C41.4739 56.9862 39.9064 56.9248 38.3994 57.1885C38.1657 57.2296 38.165 57.6212 38.3994 57.6616C39.2828 57.8138 40.1612 57.8192 41.0566 57.8425C42.0702 57.8686 43.6754 57.5781 44.6209 57.9066C45.5306 58.2228 45.1093 59.6447 45.0702 60.5385C45.0275 61.5137 44.9851 62.4889 44.94 63.4641C43.2033 63.191 41.4599 63.1679 39.7158 63.4757C39.426 63.5268 38.5476 63.9131 38.2749 63.8059C37.4706 63.4901 37.6829 62.4218 37.6826 61.7968C37.6819 60.9882 37.295 58.5817 37.9537 57.9744C38.4692 57.499 37.7263 56.8169 37.2032 57.2239C36.2577 57.9594 36.5819 59.4828 36.5789 60.5351C36.5759 61.6011 36.1158 63.668 36.8142 64.5651C37.3237 65.2192 38.179 64.9714 38.8591 64.8122C41.0249 64.304 43.1111 64.2139 45.3076 64.6015C45.6562 64.6629 45.9767 64.457 45.9887 64.0827C46.0434 62.3647 46.1352 60.6463 46.1726 58.9276C46.1853 58.317 46.3195 57.5043 45.7189 57.093Z" fill="white"/>
<path d="M24.9996 11.9229C22.1962 11.9743 19.3935 11.9065 16.6027 11.6291C16.3891 11.6077 16.3367 11.9779 16.5517 12.007C19.3661 12.3886 22.1612 12.5549 25 12.407C25.3088 12.3909 25.3131 11.9172 24.9996 11.9229Z" fill="white"/>
<path d="M35.3733 8.57254C31.4598 8.57487 27.5577 8.43866 23.6686 7.98461C23.3658 7.94922 23.2913 8.47705 23.5961 8.52112C27.5126 9.08868 31.4171 9.36178 35.3733 9.15011C35.7416 9.13008 35.7476 8.57254 35.3733 8.57254Z" fill="white"/>
</g>
<path d="M426.719 46.8516L426.897 45.8675L426.895 45.8673L426.719 46.8516ZM423.887 46.3438L423.709 47.3278L423.71 47.3281L423.887 46.3438ZM427.344 43.6094L426.506 44.156L426.51 44.1616L427.344 43.6094ZM431.211 45.7188V46.7188L431.22 46.7187L431.211 45.7188ZM434.297 40.8164L435.221 40.4341L435.22 40.4318L434.297 40.8164ZM420.332 52.7695L420.509 51.7852L420.507 51.785L420.332 52.7695ZM423.164 53.2773L422.988 54.2616L422.988 54.2617L423.164 53.2773ZM418.945 56.1875L419.763 55.6117L419.76 55.6072L418.945 56.1875ZM412.09 59.4492L413.005 59.0467L413 59.0354L412.09 59.4492ZM423.32 65.4883C427.352 65.4883 430.67 64.5324 433.004 62.7048C435.367 60.8549 436.625 58.1833 436.625 54.9961H434.625C434.625 57.6097 433.618 59.6841 431.771 61.1301C429.896 62.5985 427.062 63.4883 423.32 63.4883V65.4883ZM436.625 54.9961C436.625 52.4775 435.826 50.4267 434.113 48.8782C432.443 47.369 430.003 46.4287 426.897 45.8675L426.541 47.8356C429.489 48.3682 431.503 49.2149 432.772 50.3621C433.998 51.4698 434.625 52.9443 434.625 54.9961H436.625ZM426.895 45.8673L424.063 45.3594L423.71 47.3281L426.542 47.8359L426.895 45.8673ZM424.064 45.3597C422.666 45.1071 421.809 44.8511 421.316 44.5695C421.085 44.4375 420.983 44.3268 420.936 44.254C420.895 44.1913 420.863 44.109 420.863 43.9609H418.863C418.863 44.4476 418.983 44.9171 419.257 45.3409C419.525 45.7545 419.901 46.0649 420.325 46.3064C421.14 46.7719 422.295 47.0725 423.709 47.3278L424.064 45.3597ZM420.863 43.9609C420.863 43.6693 420.983 43.3941 421.316 43.1576C421.676 42.9022 422.32 42.6758 423.34 42.6758V40.6758C422.055 40.6758 420.961 40.9572 420.158 41.5269C419.329 42.1157 418.863 42.9831 418.863 43.9609H420.863ZM423.34 42.6758C424.134 42.6758 424.751 42.7942 425.244 43.0226C425.724 43.2452 426.141 43.5969 426.506 44.156L428.181 43.0628C427.628 42.2156 426.932 41.6005 426.084 41.2079C425.249 40.821 424.323 40.6758 423.34 40.6758V42.6758ZM426.51 44.1616C427.069 45.005 427.707 45.6666 428.513 46.1061C429.321 46.5465 430.215 46.7188 431.211 46.7188V44.7188C430.449 44.7188 429.907 44.5883 429.47 44.35C429.031 44.1107 428.615 43.7176 428.177 43.0572L426.51 44.1616ZM431.22 46.7187C432.457 46.707 433.57 46.3192 434.384 45.5674C435.207 44.8085 435.648 43.7478 435.648 42.5547H433.648C433.648 43.2366 433.407 43.7481 433.028 44.0976C432.641 44.4542 432.036 44.7109 431.202 44.7188L431.22 46.7187ZM435.648 42.5547C435.648 41.7685 435.501 41.1116 435.221 40.4341L433.373 41.1988C433.561 41.654 433.648 42.0518 433.648 42.5547H435.648ZM435.22 40.4318C433.529 36.3729 429.008 34.3281 423.242 34.3281V36.3281C428.649 36.3281 432.135 38.2287 433.374 41.201L435.22 40.4318ZM423.242 34.3281C419.725 34.3281 416.597 35.2657 414.325 37.034C412.031 38.8191 410.66 41.4163 410.66 44.5664H412.66C412.66 42.0525 413.731 40.0305 415.553 38.6124C417.397 37.1777 420.06 36.3281 423.242 36.3281V34.3281ZM410.66 44.5664C410.66 47.0124 411.528 49.0837 413.209 50.6637C414.864 52.2199 417.238 53.2353 420.157 53.7541L420.507 51.785C417.821 51.3076 415.858 50.409 414.579 49.2065C413.325 48.0277 412.66 46.4954 412.66 44.5664H410.66ZM420.156 53.7538L422.988 54.2616L423.341 52.293L420.509 51.7852L420.156 53.7538ZM422.988 54.2617C424.576 54.546 425.484 54.8077 425.987 55.0926C426.218 55.223 426.308 55.3288 426.348 55.3945C426.385 55.4546 426.422 55.5492 426.422 55.7383H428.422C428.422 55.2633 428.322 54.7891 428.055 54.3517C427.791 53.92 427.41 53.5997 426.972 53.3518C426.138 52.8798 424.916 52.5751 423.34 52.293L422.988 54.2617ZM426.422 55.7383C426.422 56.0115 426.289 56.3215 425.824 56.609C425.339 56.9092 424.537 57.1406 423.418 57.1406V59.1406C424.779 59.1406 425.98 58.8642 426.876 58.31C427.793 57.743 428.422 56.8518 428.422 55.7383H426.422ZM423.418 57.1406C421.745 57.1406 420.483 56.634 419.763 55.6117L418.128 56.7633C419.361 58.5144 421.38 59.1406 423.418 59.1406V57.1406ZM419.76 55.6072C419.147 54.747 418.496 54.1062 417.717 53.6928C416.932 53.2763 416.103 53.1367 415.215 53.1367V55.1367C415.889 55.1367 416.369 55.2413 416.78 55.4595C417.197 55.681 417.631 56.0655 418.131 56.7678L419.76 55.6072ZM415.215 53.1367C412.677 53.1367 410.66 54.8888 410.66 57.4961H412.66C412.66 56.1191 413.651 55.1367 415.215 55.1367V53.1367ZM410.66 57.4961C410.66 58.2831 410.827 59.0883 411.179 59.863L413 59.0354C412.766 58.5211 412.66 57.9981 412.66 57.4961H410.66ZM411.174 59.8517C412.615 63.1289 416.787 65.4883 423.32 65.4883V63.4883C417.158 63.4883 413.986 61.2774 413.005 59.0467L411.174 59.8517ZM453.34 42.418V41.418H452.34V42.418H453.34ZM445.059 42.418H446.059V41.418H445.059V42.418ZM449.199 65.4883C450.716 65.4883 452.041 65.0341 452.981 64.0517C453.915 63.0758 454.34 61.7134 454.34 60.1523H452.34C452.34 61.3648 452.013 62.1703 451.536 62.669C451.065 63.1612 450.319 63.4883 449.199 63.4883V65.4883ZM454.34 60.1523V42.418H452.34V60.1523H454.34ZM453.34 43.418H457.5V41.418H453.34V43.418ZM457.5 43.418C458.767 43.418 459.938 43.0723 460.806 42.3101C461.691 41.533 462.152 40.4182 462.152 39.1172H460.152C460.152 39.9256 459.881 40.4612 459.487 40.8071C459.076 41.1679 458.42 41.418 457.5 41.418V43.418ZM462.152 39.1172C462.152 37.8245 461.707 36.708 460.824 35.9268C459.957 35.1603 458.783 34.8164 457.5 34.8164V36.8164C458.444 36.8164 459.096 37.0683 459.499 37.4248C459.885 37.7666 460.152 38.3005 460.152 39.1172H462.152ZM457.5 34.8164H440.898V36.8164H457.5V34.8164ZM440.898 34.8164C439.615 34.8164 438.441 35.1603 437.575 35.9268C436.692 36.708 436.246 37.8245 436.246 39.1172H438.246C438.246 38.3005 438.513 37.7666 438.9 37.4248C439.303 37.0683 439.955 36.8164 440.898 36.8164V34.8164ZM436.246 39.1172C436.246 40.4182 436.707 41.533 437.592 42.3101C438.46 43.0723 439.631 43.418 440.898 43.418V41.418C439.978 41.418 439.323 41.1679 438.912 40.8071C438.518 40.4612 438.246 39.9256 438.246 39.1172H436.246ZM440.898 43.418H445.059V41.418H440.898V43.418ZM444.059 42.418V60.1523H446.059V42.418H444.059ZM444.059 60.1523C444.059 61.7134 444.484 63.0758 445.418 64.0517C446.358 65.0341 447.682 65.4883 449.199 65.4883V63.4883C448.079 63.4883 447.334 63.1612 446.863 62.669C446.385 62.1703 446.059 61.3648 446.059 60.1523H444.059ZM467.793 60.5039L468.757 60.7698L468.757 60.7688L467.793 60.5039ZM468.281 58.7266V57.7266H467.519L467.317 58.4617L468.281 58.7266ZM477.461 58.7266L478.43 58.4794L478.238 57.7266H477.461V58.7266ZM477.949 60.6406L476.98 60.8878L476.981 60.8897L477.949 60.6406ZM485.957 57.7109L486.897 57.3692L486.896 57.3677L485.957 57.7109ZM479.59 40.2891L478.651 40.6321L478.651 40.6323L479.59 40.2891ZM466.191 40.2891L467.132 40.6295L467.134 40.623L466.191 40.2891ZM459.883 57.7109L460.82 58.0601L460.823 58.0514L459.883 57.7109ZM469.844 52.5547L468.879 52.2914L468.534 53.5547H469.844V52.5547ZM472.637 42.3203V41.3203H471.873L471.672 42.057L472.637 42.3203ZM472.793 42.3203L473.754 42.0451L473.547 41.3203H472.793V42.3203ZM475.723 52.5547V53.5547H477.049L476.684 52.2795L475.723 52.5547ZM463.516 65.4883C464.823 65.4883 465.964 65.1459 466.884 64.2906C467.772 63.466 468.345 62.2633 468.757 60.7698L466.829 60.238C466.46 61.5766 466.017 62.366 465.523 62.8256C465.061 63.2545 464.454 63.4883 463.516 63.4883V65.4883ZM468.757 60.7688L469.246 58.9915L467.317 58.4617L466.829 60.239L468.757 60.7688ZM468.281 59.7266H477.461V57.7266H468.281V59.7266ZM476.492 58.9737L476.98 60.8878L478.918 60.3934L478.43 58.4794L476.492 58.9737ZM476.981 60.8897C477.356 62.3473 477.919 63.5333 478.847 64.3432C479.796 65.172 480.989 65.4883 482.363 65.4883V63.4883C481.296 63.4883 480.633 63.2479 480.162 62.8365C479.669 62.4062 479.246 61.6683 478.918 60.3916L476.981 60.8897ZM482.363 65.4883C485.289 65.4883 487.504 63.3893 487.504 60.4648H485.504C485.504 62.2279 484.242 63.4883 482.363 63.4883V65.4883ZM487.504 60.4648C487.504 59.422 487.316 58.5233 486.897 57.3692L485.017 58.0527C485.379 59.047 485.504 59.7108 485.504 60.4648H487.504ZM486.896 57.3677L480.529 39.9458L478.651 40.6323L485.018 58.0542L486.896 57.3677ZM480.529 39.946C479.853 38.0951 478.932 36.6576 477.609 35.696C476.28 34.73 474.662 34.3281 472.754 34.3281V36.3281C474.381 36.3281 475.546 36.6684 476.434 37.3138C477.327 37.9635 478.057 39.0065 478.651 40.6321L480.529 39.946ZM472.754 34.3281C470.943 34.3281 469.377 34.7543 468.086 35.7288C466.805 36.6964 465.896 38.1284 465.249 39.9551L467.134 40.623C467.698 39.0317 468.42 37.9833 469.292 37.3249C470.154 36.6734 471.264 36.3281 472.754 36.3281V34.3281ZM465.251 39.9486L458.943 57.3705L460.823 58.0514L467.132 40.6295L465.251 39.9486ZM458.946 57.3618C458.547 58.4315 458.297 59.6077 458.297 60.4844H460.297C460.297 59.9158 460.476 58.9826 460.82 58.06L458.946 57.3618ZM458.297 60.4844C458.297 61.9505 458.766 63.2351 459.729 64.149C460.685 65.0567 462.011 65.4883 463.516 65.4883V63.4883C462.384 63.4883 461.6 63.1679 461.106 62.6986C460.618 62.2356 460.297 61.5183 460.297 60.4844H458.297ZM470.808 52.818L473.601 42.5836L471.672 42.057L468.879 52.2914L470.808 52.818ZM472.637 43.3203H472.793V41.3203H472.637V43.3203ZM471.832 42.5955L474.761 52.8299L476.684 52.2795L473.754 42.0451L471.832 42.5955ZM475.723 51.5547H469.844V53.5547H475.723V51.5547ZM498.125 54.5469V53.5469H497.125V54.5469H498.125ZM501.426 54.5469L502.298 54.058L502.012 53.5469H501.426V54.5469ZM505.137 61.168L504.264 61.6569L504.266 61.6592L505.137 61.168ZM512.695 57.8672L513.554 57.3547L513.549 57.3471L512.695 57.8672ZM509.746 53.0234L509.242 52.1599L508.362 52.6735L508.892 53.5435L509.746 53.0234ZM498.125 49.0781H497.125V50.0781H498.125V49.0781ZM498.125 41.9297V40.9297H497.125V41.9297H498.125ZM493.984 65.4883C495.501 65.4883 496.826 65.0341 497.766 64.0517C498.7 63.0758 499.125 61.7134 499.125 60.1523H497.125C497.125 61.3648 496.798 62.1703 496.321 62.669C495.85 63.1612 495.104 63.4883 493.984 63.4883V65.4883ZM499.125 60.1523V54.5469H497.125V60.1523H499.125ZM498.125 55.5469H501.426V53.5469H498.125V55.5469ZM500.553 55.0358L504.264 61.6569L506.009 60.6791L502.298 54.058L500.553 55.0358ZM504.266 61.6592C504.998 62.9573 505.651 63.9481 506.464 64.588C507.343 65.2795 508.304 65.4883 509.453 65.4883V63.4883C508.571 63.4883 508.107 63.3357 507.701 63.0164C507.23 62.6456 506.741 61.9763 506.008 60.6768L504.266 61.6592ZM509.453 65.4883C512.327 65.4883 514.574 63.5357 514.574 60.6992H512.574C512.574 62.2768 511.384 63.4883 509.453 63.4883V65.4883ZM514.574 60.6992C514.574 60.1517 514.53 59.643 514.364 59.0857C514.202 58.5397 513.937 57.9957 513.554 57.3547L511.837 58.3796C512.177 58.9496 512.351 59.3333 512.447 59.6565C512.54 59.9683 512.574 60.2701 512.574 60.6992H514.574ZM513.549 57.3471L510.6 52.5034L508.892 53.5435L511.841 58.3872L513.549 57.3471ZM510.25 53.887C513.302 52.105 514.75 48.7794 514.75 45.3867H512.75C512.75 48.244 511.542 50.8169 509.242 52.1599L510.25 53.887ZM514.75 45.3867C514.75 42.1455 513.703 39.4482 511.528 37.5799C509.377 35.732 506.264 34.8164 502.363 34.8164V36.8164C505.982 36.8164 508.562 37.6684 510.225 39.0969C511.864 40.5049 512.75 42.5928 512.75 45.3867H514.75ZM502.363 34.8164H493.984V36.8164H502.363V34.8164ZM493.984 34.8164C492.467 34.8164 491.143 35.2706 490.203 36.253C489.269 37.2289 488.844 38.5913 488.844 40.1523H490.844C490.844 38.9399 491.171 38.1344 491.648 37.6357C492.119 37.1435 492.865 36.8164 493.984 36.8164V34.8164ZM488.844 40.1523V60.1523H490.844V40.1523H488.844ZM488.844 60.1523C488.844 61.7134 489.269 63.0758 490.203 64.0517C491.143 65.0341 492.467 65.4883 493.984 65.4883V63.4883C492.865 63.4883 492.119 63.1612 491.648 62.669C491.171 62.1703 490.844 61.3648 490.844 60.1523H488.844ZM499.125 49.0781V41.9297H497.125V49.0781H499.125ZM498.125 42.9297H501.562V40.9297H498.125V42.9297ZM501.562 42.9297C502.446 42.9297 503.118 43.2243 503.565 43.6593C504.011 44.0932 504.293 44.726 504.293 45.5234H506.293C506.293 44.2311 505.823 43.067 504.96 42.2265C504.098 41.387 502.906 40.9297 501.562 40.9297V42.9297ZM504.293 45.5234C504.293 46.3583 504.019 46.972 503.596 47.3785C503.17 47.7882 502.5 48.0781 501.543 48.0781V50.0781C502.911 50.0781 504.115 49.6552 504.983 48.8197C505.854 47.9812 506.293 46.8175 506.293 45.5234H504.293ZM501.543 48.0781H498.125V50.0781H501.543V48.0781ZM531.738 42.418V41.418H530.738V42.418H531.738ZM523.457 42.418H524.457V41.418H523.457V42.418ZM527.598 65.4883C529.115 65.4883 530.439 65.0341 531.379 64.0517C532.313 63.0758 532.738 61.7134 532.738 60.1523H530.738C530.738 61.3648 530.411 62.1703 529.934 62.669C529.463 63.1612 528.717 63.4883 527.598 63.4883V65.4883ZM532.738 60.1523V42.418H530.738V60.1523H532.738ZM531.738 43.418H535.898V41.418H531.738V43.418ZM535.898 43.418C537.166 43.418 538.336 43.0723 539.205 42.3101C540.09 41.533 540.551 40.4182 540.551 39.1172H538.551C538.551 39.9256 538.279 40.4612 537.885 40.8071C537.474 41.1679 536.819 41.418 535.898 41.418V43.418ZM540.551 39.1172C540.551 37.8245 540.105 36.708 539.222 35.9268C538.356 35.1603 537.181 34.8164 535.898 34.8164V36.8164C536.842 36.8164 537.494 37.0683 537.897 37.4248C538.283 37.7666 538.551 38.3005 538.551 39.1172H540.551ZM535.898 34.8164H519.297V36.8164H535.898V34.8164ZM519.297 34.8164C518.014 34.8164 516.84 35.1603 515.973 35.9268C515.09 36.708 514.645 37.8245 514.645 39.1172H516.645C516.645 38.3005 516.912 37.7666 517.298 37.4248C517.701 37.0683 518.353 36.8164 519.297 36.8164V34.8164ZM514.645 39.1172C514.645 40.4182 515.105 41.533 515.991 42.3101C516.859 43.0723 518.03 43.418 519.297 43.418V41.418C518.377 41.418 517.721 41.1679 517.31 40.8071C516.916 40.4612 516.645 39.9256 516.645 39.1172H514.645ZM519.297 43.418H523.457V41.418H519.297V43.418ZM522.457 42.418V60.1523H524.457V42.418H522.457ZM522.457 60.1523C522.457 61.7134 522.882 63.0758 523.816 64.0517C524.756 65.0341 526.081 65.4883 527.598 65.4883V63.4883C526.478 63.4883 525.732 63.1612 525.261 62.669C524.784 62.1703 524.457 61.3648 524.457 60.1523H522.457ZM554.414 65.4883C558.311 65.4883 561.663 64.4139 564.059 62.3997C566.472 60.3711 567.836 57.4531 567.836 53.9609H565.836C565.836 56.8946 564.709 59.2403 562.772 60.8688C560.817 62.5119 557.958 63.4883 554.414 63.4883V65.4883ZM567.836 53.9609V39.6641H565.836V53.9609H567.836ZM567.836 39.6641C567.836 38.103 567.411 36.7406 566.477 35.7647C565.537 34.7823 564.212 34.3281 562.695 34.3281V36.3281C563.815 36.3281 564.561 36.6552 565.032 37.1474C565.509 37.6461 565.836 38.4516 565.836 39.6641H567.836ZM562.695 34.3281C561.178 34.3281 559.854 34.7823 558.914 35.7647C557.98 36.7406 557.555 38.103 557.555 39.6641H559.555C559.555 38.4516 559.882 37.6461 560.359 37.1474C560.83 36.6552 561.575 36.3281 562.695 36.3281V34.3281ZM557.555 39.6641V53.043H559.555V39.6641H557.555ZM557.555 53.043C557.555 54.376 557.225 55.2493 556.745 55.7812C556.28 56.2966 555.546 56.6328 554.414 56.6328V58.6328C555.958 58.6328 557.294 58.1585 558.23 57.1212C559.151 56.1004 559.555 54.6787 559.555 53.043H557.555ZM554.414 56.6328C553.283 56.6328 552.548 56.2966 552.083 55.7812C551.603 55.2493 551.273 54.376 551.273 53.043H549.273C549.273 54.6787 549.677 56.1004 550.598 57.1212C551.534 58.1585 552.87 58.6328 554.414 58.6328V56.6328ZM551.273 53.043V39.6641H549.273V53.043H551.273ZM551.273 39.6641C551.273 38.103 550.848 36.7406 549.914 35.7647C548.974 34.7823 547.65 34.3281 546.133 34.3281V36.3281C547.253 36.3281 547.998 36.6552 548.469 37.1474C548.947 37.6461 549.273 38.4516 549.273 39.6641H551.273ZM546.133 34.3281C544.616 34.3281 543.291 34.7823 542.351 35.7647C541.417 36.7406 540.992 38.103 540.992 39.6641H542.992C542.992 38.4516 543.319 37.6461 543.796 37.1474C544.267 36.6552 545.013 36.3281 546.133 36.3281V34.3281ZM540.992 39.6641V53.9609H542.992V39.6641H540.992ZM540.992 53.9609C540.992 57.4531 542.356 60.3711 544.769 62.3997C547.165 64.4139 550.517 65.4883 554.414 65.4883V63.4883C550.87 63.4883 548.011 62.5119 546.056 60.8688C544.119 59.2403 542.992 56.8946 542.992 53.9609H540.992ZM579.023 56.3047V55.3047H578.023V56.3047H579.023ZM579.023 50.1914H578.023V51.1914H579.023V50.1914ZM579.023 42.0469V41.0469H578.023V42.0469H579.023ZM574.883 65.4883C576.4 65.4883 577.724 65.0341 578.664 64.0517C579.598 63.0758 580.023 61.7134 580.023 60.1523H578.023C578.023 61.3648 577.697 62.1703 577.219 62.669C576.748 63.1612 576.003 63.4883 574.883 63.4883V65.4883ZM580.023 60.1523V56.3047H578.023V60.1523H580.023ZM579.023 57.3047H583.047V55.3047H579.023V57.3047ZM583.047 57.3047C586.539 57.3047 589.559 56.2405 591.718 54.2639C593.885 52.2791 595.102 49.4481 595.102 46.0898H593.102C593.102 48.9426 592.082 51.2189 590.367 52.7889C588.644 54.3669 586.137 55.3047 583.047 55.3047V57.3047ZM595.102 46.0898C595.102 42.7236 593.964 39.883 591.905 37.8845C589.85 35.8894 586.963 34.8164 583.613 34.8164V36.8164C586.533 36.8164 588.89 37.7453 590.512 39.3196C592.13 40.8905 593.102 43.1866 593.102 46.0898H595.102ZM583.613 34.8164H574.883V36.8164H583.613V34.8164ZM574.883 34.8164C573.366 34.8164 572.041 35.2706 571.101 36.253C570.167 37.2289 569.742 38.5913 569.742 40.1523H571.742C571.742 38.9399 572.069 38.1344 572.546 37.6357C573.017 37.1435 573.763 36.8164 574.883 36.8164V34.8164ZM569.742 40.1523V60.1523H571.742V40.1523H569.742ZM569.742 60.1523C569.742 61.7134 570.167 63.0758 571.101 64.0517C572.041 65.0341 573.366 65.4883 574.883 65.4883V63.4883C573.763 63.4883 573.017 63.1612 572.546 62.669C572.069 62.1703 571.742 61.3648 571.742 60.1523H569.742ZM580.023 50.1914V42.0469H578.023V50.1914H580.023ZM579.023 43.0469H581.406V41.0469H579.023V43.0469ZM581.406 43.0469C582.593 43.0469 583.405 43.3519 583.911 43.8137C584.403 44.2621 584.742 44.9814 584.742 46.1094H586.742C586.742 44.5616 586.261 43.2497 585.259 42.3358C584.271 41.4352 582.915 41.0469 581.406 41.0469V43.0469ZM584.742 46.1094C584.742 47.249 584.402 47.9708 583.906 48.4201C583.394 48.8839 582.569 49.1914 581.348 49.1914V51.1914C582.88 51.1914 584.252 50.8056 585.249 49.9022C586.262 48.9843 586.742 47.6651 586.742 46.1094H584.742ZM581.348 49.1914H579.023V51.1914H581.348V49.1914Z" fill="white"/>
<defs>
<clipPath id="clip0_610_3795">
<rect width="90" height="90" fill="white" transform="translate(200)"/>
</clipPath>
<clipPath id="clip1_610_3795">
<rect width="36.4406" height="36.4406" fill="white" transform="translate(114 44.7673) rotate(-45)"/>
</clipPath>
<clipPath id="clip2_610_3795">
<rect width="36.4406" height="36.4406" fill="white" transform="translate(324 44.7673) rotate(-45)"/>
</clipPath>
<clipPath id="clip3_610_3795">
<rect width="80" height="80" fill="white" transform="translate(0 4)"/>
</clipPath>
</defs>
</svg>
